<svg id="_37" data-name="37" xmlns="http://www.w3.org/2000/svg" width="22.5" height="24.837" viewBox="0 0 22.5 24.837">
  <path id="Path_1887" data-name="Path 1887" d="M24.813,4.606a23.75,23.75,0,0,0-21.125,0A1.25,1.25,0,0,0,3,5.718v15a1.25,1.25,0,0,0,.688,1.112l10,5a1.25,1.25,0,0,0,1.125,0l10-5a1.25,1.25,0,0,0,.688-1.112v-15a1.25,1.25,0,0,0-.687-1.112ZM23,19.943l-8.75,4.375L5.5,19.943V6.506a21.25,21.25,0,0,1,17.5,0Z" transform="translate(-3 -2.128)" fill="#fff"/>
  <path id="Path_1888" data-name="Path 1888" d="M8.918,11.964a1.25,1.25,0,0,0-1.375,2.075l3.75,2.5a1.15,1.15,0,0,0,.687.212,1.25,1.25,0,0,0,.887-.362l6.25-6.25a1.255,1.255,0,0,0-1.775-1.775l-5.525,5.525Z" transform="translate(-1.981 -0.66)" fill="#fff"/>
</svg>
