<svg id="Component_44_4" data-name="Component 44 – 4" xmlns="http://www.w3.org/2000/svg" xmlns:xlink="http://www.w3.org/1999/xlink" width="1280" height="625" viewBox="0 0 1280 625">
  <defs>
    <filter id="Rectangle_57" x="38" y="289" width="177" height="66" filterUnits="userSpaceOnUse">
      <feOffset dy="3" input="SourceAlpha"/>
      <feGaussianBlur stdDeviation="3" result="blur"/>
      <feFlood flood-opacity="0.161"/>
      <feComposite operator="in" in2="blur"/>
      <feComposite in="SourceGraphic"/>
    </filter>
    <filter id="Rectangle_199" x="257" y="289" width="177" height="66" filterUnits="userSpaceOnUse">
      <feOffset dy="3" input="SourceAlpha"/>
      <feGaussianBlur stdDeviation="3" result="blur-2"/>
      <feFlood flood-opacity="0.161"/>
      <feComposite operator="in" in2="blur-2"/>
      <feComposite in="SourceGraphic"/>
    </filter>
    <filter id="Rectangle_61" x="51" y="465" width="1178" height="160" filterUnits="userSpaceOnUse">
      <feOffset dy="3" input="SourceAlpha"/>
      <feGaussianBlur stdDeviation="3" result="blur-3"/>
      <feFlood flood-opacity="0.161"/>
      <feComposite operator="in" in2="blur-3"/>
      <feComposite in="SourceGraphic"/>
    </filter>
  </defs>
  <g id="Path_6103" data-name="Path 6103" fill="#064c87" opacity="0.1">
    <path d="M 1279.5 545.5 L 0.5 545.5 L 0.5 0.5 L 1279.5 0.5 L 1279.5 545.5 Z" stroke="none"/>
    <path d="M 1 1 L 1 545 L 1279 545 L 1279 1 L 1 1 M 0 0 L 1280 0 L 1280 546 L 0 546 L 0 0 Z" stroke="none" fill="#707070"/>
  </g>
  <text id="Accelerate_your_CAREER" data-name="Accelerate your CAREER" transform="translate(47 163)" fill="#064c87" font-size="20" font-family="Poppins-Medium, Poppins" font-weight="500"><tspan x="0" y="0">ACCELERATE YOUR CAREER</tspan></text>
  <text id="Land_Your_Dream_Tech_Job" data-name="Land Your  Dream Tech Job" transform="translate(47 224)" font-size="44" font-family="Poppins-SemiBold, Poppins" font-weight="600"><tspan x="0" y="0" xml:space="preserve">Land Your  Dream Tech Job</tspan></text>
  <text id="Lorem_Ipsum_is_simply_dummy_text_of_the_printing_and_typesetting_industry._Lorem_Ipsum_has_been_the_industry_s_standard_dummy_text_ever._" data-name="Lorem Ipsum is simply dummy text of the printing and typesetting industry. Lorem Ipsum has been the industry&apos;s standard dummy text ever. " transform="translate(47 244)" fill="#707070" font-size="10" font-family="Poppins-Regular, Poppins"><tspan x="0" y="11">Lorem Ipsum is simply dummy text of the printing and typesetting industry. Lorem Ipsum has been the </tspan><tspan x="0" y="27">industry&apos;s standard dummy text ever. </tspan></text>
  <g id="Group_382" data-name="Group 382" transform="translate(-22 -534)">
    <rect id="Rectangle_62" data-name="Rectangle 62" width="143" height="42" rx="4" transform="translate(700 608)" fill="#064c87"/>
    <text id="Saved_Cost_25_" data-name="Saved Cost 25%" transform="translate(716 634)" fill="#fff" font-size="14" font-family="Poppins-Regular, Poppins"><tspan x="0" y="0">Saved Cost 25%</tspan></text>
  </g>
  <g id="Group_436" data-name="Group 436" transform="translate(756.154 41.663)">
    <path id="Path_586" data-name="Path 586" d="M131.415,122.428s35.173-30.776,78.407-16.121,76.941,81.338,118.709,83.536,80.6-20.517,113.579-.732,38.837,105.519-24.181,114.312-98.192-22.716-125.3-21.25-93.062,34.44-145.088,19.785S48.612,186.179,131.415,122.428Z" transform="translate(0 -14.365)" fill="#e8f4ff"/>
    <g id="Group_435" data-name="Group 435" transform="translate(97.04 54.337)">
      <g id="Group_414" data-name="Group 414" transform="translate(70.032)">
        <g id="Group_390" data-name="Group 390" transform="translate(46.578)" opacity="0.46">
          <path id="Path_587" data-name="Path 587" d="M420.777,113.093H270.426a2.415,2.415,0,0,1-2.336-3.023l14.036-53.927a2.414,2.414,0,0,1,2.337-1.806H434.813a2.415,2.415,0,0,1,2.337,3.023l-14.036,53.927A2.416,2.416,0,0,1,420.777,113.093Z" transform="translate(-268.01 -54.337)" fill="#bfd9ff"/>
          <g id="Group_389" data-name="Group 389" transform="translate(19.012 11.536)">
            <line id="Line_127" data-name="Line 127" x2="52.317" transform="translate(4.024)" fill="none" stroke="#a9c2ff" stroke-linecap="round" stroke-linejoin="round" stroke-width="3.446"/>
            <line id="Line_128" data-name="Line 128" x2="52.317" transform="translate(0 24.146)" fill="none" stroke="#a9c2ff" stroke-linecap="round" stroke-linejoin="round" stroke-width="3.446"/>
            <line id="Line_129" data-name="Line 129" x2="52.317" transform="translate(22 15.024)" fill="none" stroke="#a9c2ff" stroke-linecap="round" stroke-linejoin="round" stroke-width="3.446"/>
            <line id="Line_130" data-name="Line 130" x2="15.695" transform="translate(2.683 8.049)" fill="none" stroke="#a9c2ff" stroke-linecap="round" stroke-linejoin="round" stroke-width="3.446"/>
            <line id="Line_131" data-name="Line 131" x2="15.695" transform="translate(0.537 15.024)" fill="none" stroke="#a9c2ff" stroke-linecap="round" stroke-linejoin="round" stroke-width="3.446"/>
            <line id="Line_132" data-name="Line 132" x2="18.646" transform="translate(64.659)" fill="none" stroke="#a9c2ff" stroke-linecap="round" stroke-linejoin="round" stroke-width="3.446"/>
            <path id="Path_588" data-name="Path 588" d="M388.461,119.191H360.617a.215.215,0,0,1-.208-.268l1.247-4.788a.214.214,0,0,1,.207-.16h27.844a.214.214,0,0,1,.207.268l-1.246,4.788A.214.214,0,0,1,388.461,119.191Z" transform="translate(-314.665 -83.717)" fill="none" stroke="#84aee5" stroke-width="1.149"/>
            <path id="Path_589" data-name="Path 589" d="M339.075,119.191H311.231a.214.214,0,0,1-.207-.268l1.246-4.788a.214.214,0,0,1,.207-.16h27.844a.215.215,0,0,1,.208.268l-1.247,4.788A.214.214,0,0,1,339.075,119.191Z" transform="translate(-299.889 -83.717)" fill="none" stroke="#84aee5" stroke-width="1.149"/>
          </g>
          <path id="Path_590" data-name="Path 590" d="M454.225,98.87c-1.427-1.9-7.217-3.283-8.817-5.185-.818-.971-.818-2.776-.622-4.31a5.932,5.932,0,0,0,1.325-1.066,25.711,25.711,0,0,0,1.566-2.76.9.9,0,0,0,.667.278c.76-.023,3.654-3.962,2.908-4.875-.426-.521-1.116-.069-1.628.415.766-1.754,1.3-3.1,1.3-3.1H450.9c.072-.221.139-.444.2-.669,1.149-4.606-1.654-8.339-6.26-8.339A11.391,11.391,0,0,0,434.417,77.6c-.056.226-.1.449-.137.669h-.029s-.132,1.345-.24,3.1c-.271-.484-.734-.936-1.421-.415-1.2.913-.272,4.852.477,4.875a1.442,1.442,0,0,0,.8-.278,16.935,16.935,0,0,0,.19,2.76,3.378,3.378,0,0,0,1.066,1.308,9.367,9.367,0,0,1-2.679,4.067c-2.547,1.9-9.028,3.283-11.4,5.185-2.136,1.71-4.042,6.7-4.4,7.691h38.155C454.925,105.574,455.509,100.58,454.225,98.87Z" transform="translate(-312.48 -58.802)" fill="#8dbcf8"/>
        </g>
        <g id="Group_396" data-name="Group 396" transform="translate(17.603 38.902)">
          <g id="Group_391" data-name="Group 391">
            <path id="Path_591" data-name="Path 591" d="M383.451,174.347H233.1a2.415,2.415,0,0,1-2.337-3.023L244.8,117.4a2.414,2.414,0,0,1,2.336-1.806H397.487a2.414,2.414,0,0,1,2.336,3.023L385.788,172.54A2.415,2.415,0,0,1,383.451,174.347Z" transform="translate(-227.867 -111.566)" fill="none" stroke="#7094d8" stroke-width="1.149"/>
            <path id="Path_592" data-name="Path 592" d="M379.431,168.6H229.08a2.414,2.414,0,0,1-2.336-3.023l14.036-53.927a2.415,2.415,0,0,1,2.336-1.807H393.467a2.415,2.415,0,0,1,2.336,3.023L381.768,166.8A2.414,2.414,0,0,1,379.431,168.6Z" transform="translate(-226.664 -109.848)" fill="#a5c5ff"/>
            <line id="Line_133" data-name="Line 133" x2="75.256" transform="translate(49.597 58.756)" fill="none" stroke="#7094d8" stroke-width="1.149"/>
            <line id="Line_134" data-name="Line 134" x2="63.585" transform="translate(28.67)" fill="none" stroke="#7094d8" stroke-width="1.149"/>
          </g>
          <g id="Group_395" data-name="Group 395" transform="translate(104.622 10.866)">
            <path id="Path_593" data-name="Path 593" d="M411.96,165.194h-33.8a2.129,2.129,0,0,1-2.115-2.817l8.529-34.207a3.849,3.849,0,0,1,3.519-2.817h33.805a2.128,2.128,0,0,1,2.114,2.817l-8.529,34.207A3.848,3.848,0,0,1,411.96,165.194Z" transform="translate(-375.953 -125.353)" fill="#b7deff"/>
            <g id="Group_394" data-name="Group 394" transform="translate(2.792 3.353)">
              <path id="Path_594" data-name="Path 594" d="M396.561,176.453l2.958-11.865-4.85-2.054s-9.039,3.309-9.808,4.107c-.645.669-3.891,7.59-4.924,9.812Z" transform="translate(-379.937 -139.831)" fill="#023f61"/>
              <path id="Path_595" data-name="Path 595" d="M420.445,176.453c.074-2.222.28-9.143-.031-9.812-.371-.8-7.761-4.107-7.761-4.107l-5.874,2.054-2.959,11.865Z" transform="translate(-387.083 -139.831)" fill="#023f61"/>
              <path id="Path_596" data-name="Path 596" d="M405.338,178.012l4.634-10.268-9.954.57-.974,9.7Z" transform="translate(-385.654 -141.39)" fill="#bebecf"/>
              <path id="Path_597" data-name="Path 597" d="M401.831,159.247l-2.167,1.369-1.424,3.423-.368,4.678,3.051-1.255,2.369,2.852,3.164-2.624,1.941,1.825,2.933-6.275-.516-3.879-1.227-.57Z" transform="translate(-385.303 -138.711)" fill="#dee0e8"/>
              <g id="Group_393" data-name="Group 393" transform="translate(14.396)">
                <path id="Path_598" data-name="Path 598" d="M403.277,146.227a1.379,1.379,0,0,0-2.22-.554c-1.493,1.1.254,5.35,1.335,4.072A5.546,5.546,0,0,0,403.277,146.227Z" transform="translate(-400.479 -134.673)" fill="#fb8e74"/>
                <path id="Path_599" data-name="Path 599" d="M419.351,146.042s1.418-1.753,2.489-.771-2.449,5.475-3.027,4.273S419.351,146.042,419.351,146.042Z" transform="translate(-405.915 -134.576)" fill="#fb8e74"/>
                <g id="Group_392" data-name="Group 392" transform="translate(0.848 15.749)">
                  <path id="Path_600" data-name="Path 600" d="M410.952,160.711l1.527-8.1-8.838.767-1.952,7.607a20.209,20.209,0,0,0,3.2,5.2S410.03,161.742,410.952,160.711Z" transform="translate(-401.689 -152.611)" fill="#fb8877"/>
                </g>
                <path id="Path_601" data-name="Path 601" d="M418.907,138.335c-.329.985-1.141,1.231-1.2,1.806a5.681,5.681,0,0,1-.988,2.627,4.572,4.572,0,0,1-.851.739s-7.583,2.135-11.433-.821a6.6,6.6,0,0,1,.012-2.463c.261-1.327-.383-1.56.365-2.217a2.466,2.466,0,0,0,.992-1.97,3.122,3.122,0,0,1,.844-2.381c.768-.739,1.457-.493,2.2-1.149,0,0,1.106-1.856,2.566-2.068s4.54-.985,6.372,1.267.988,4.224,1.517,4.928S418.907,138.335,418.907,138.335Z" transform="translate(-401.63 -130.138)" fill="#713336"/>
                <path id="Path_602" data-name="Path 602" d="M403.982,141.321s-3.578,9.855,3.161,10.594c5.954.138,8.068-7.128,8.921-10.855s.326-7.628-4.44-7.5S404.506,139.113,403.982,141.321Z" transform="translate(-401.243 -131.161)" fill="#fba990"/>
                <path id="Path_603" data-name="Path 603" d="M405.88,137.382a1.806,1.806,0,0,1,.032,1.587c-.409.8-1.517,1.1-1.683,2.154s-.652,3.238-.95,3.333-.087-2.135-.037-2.9a12.922,12.922,0,0,1,2.21-5.934c1.589-2.008,2.571-2.856,5.4-3.316s4.974.731,5.761,2.457-.472,6.124-.472,6.124.188-2.09-.512-2.58-1.279-.853-1.163-1.14-2.24.753-4.594,0-3.116-.413-3.508-.17A1.621,1.621,0,0,0,405.88,137.382Z" transform="translate(-401.27 -130.757)" fill="#713336"/>
              </g>
              <path id="Path_604" data-name="Path 604" d="M396.139,166.442c-.057.228-3.289,7.929-3.289,7.929l2.839,1.426-.8,1.6" transform="translate(-383.801 -141)" fill="none" stroke="#022755" stroke-width="0.488"/>
              <path id="Path_605" data-name="Path 605" d="M415.686,166.442c-.057.228-.664,7.929-.664,7.929l-3.55,1.426v1.6" transform="translate(-389.372 -141)" fill="none" stroke="#022755" stroke-width="0.488"/>
            </g>
          </g>
          <path id="Path_606" data-name="Path 606" d="M411.96,165.194h-33.8a2.129,2.129,0,0,1-2.115-2.817l8.529-34.207a3.849,3.849,0,0,1,3.519-2.817h33.805a2.128,2.128,0,0,1,2.114,2.817l-8.529,34.207A3.848,3.848,0,0,1,411.96,165.194Z" transform="translate(-271.331 -114.487)" fill="none" stroke="#fff" stroke-width="1.149"/>
          <line id="Line_135" data-name="Line 135" x2="52.317" transform="translate(23.036 12.878)" fill="none" stroke="#73a5ff" stroke-linecap="round" stroke-linejoin="round" stroke-width="3.446"/>
          <line id="Line_136" data-name="Line 136" x2="52.317" transform="translate(19.012 37.024)" fill="none" stroke="#73a5ff" stroke-linecap="round" stroke-linejoin="round" stroke-width="3.446"/>
          <line id="Line_137" data-name="Line 137" x2="52.317" transform="translate(41.012 27.902)" fill="none" stroke="#73a5ff" stroke-linecap="round" stroke-linejoin="round" stroke-width="3.446"/>
          <line id="Line_138" data-name="Line 138" x2="15.695" transform="translate(21.695 20.927)" fill="none" stroke="#73a5ff" stroke-linecap="round" stroke-linejoin="round" stroke-width="3.446"/>
          <line id="Line_139" data-name="Line 139" x2="15.695" transform="translate(19.548 27.902)" fill="none" stroke="#73a5ff" stroke-linecap="round" stroke-linejoin="round" stroke-width="3.446"/>
          <line id="Line_140" data-name="Line 140" x2="18.646" transform="translate(83.67 12.878)" fill="none" stroke="#73a5ff" stroke-linecap="round" stroke-linejoin="round" stroke-width="3.446"/>
          <path id="Path_607" data-name="Path 607" d="M347.115,176.617H319.271a.215.215,0,0,1-.207-.268l1.246-4.789a.215.215,0,0,1,.207-.16h27.844a.214.214,0,0,1,.207.268l-1.246,4.788A.215.215,0,0,1,347.115,176.617Z" transform="translate(-254.308 -128.264)" fill="none" stroke="#7094d8" stroke-width="1.149"/>
          <path id="Path_608" data-name="Path 608" d="M297.729,176.617H269.884a.215.215,0,0,1-.207-.268l1.246-4.789a.215.215,0,0,1,.208-.16h27.844a.214.214,0,0,1,.207.268l-1.246,4.788A.215.215,0,0,1,297.729,176.617Z" transform="translate(-239.531 -128.264)" fill="none" stroke="#7094d8" stroke-width="1.149"/>
        </g>
        <line id="Line_141" data-name="Line 141" x2="32.598" transform="translate(107.846 32.866)" fill="none" stroke="#7094d8" stroke-width="1.149"/>
        <g id="Group_398" data-name="Group 398" transform="translate(19.213 115.902)">
          <path id="Path_609" data-name="Path 609" d="M381.728,278.478H231.377a2.414,2.414,0,0,1-2.336-3.023l14.036-53.927a2.415,2.415,0,0,1,2.336-1.807H395.764a2.415,2.415,0,0,1,2.336,3.023l-14.036,53.927A2.414,2.414,0,0,1,381.728,278.478Z" transform="translate(-228.961 -219.722)" fill="#bfd9ff"/>
          <g id="Group_397" data-name="Group 397" transform="translate(19.012 11.537)">
            <line id="Line_142" data-name="Line 142" x2="52.317" transform="translate(4.024)" fill="none" stroke="#a9c2ff" stroke-linecap="round" stroke-linejoin="round" stroke-width="3.446"/>
            <line id="Line_143" data-name="Line 143" x2="52.317" transform="translate(0 24.146)" fill="none" stroke="#a9c2ff" stroke-linecap="round" stroke-linejoin="round" stroke-width="3.446"/>
            <line id="Line_144" data-name="Line 144" x2="52.317" transform="translate(22 15.024)" fill="none" stroke="#a9c2ff" stroke-linecap="round" stroke-linejoin="round" stroke-width="3.446"/>
            <line id="Line_145" data-name="Line 145" x2="15.695" transform="translate(2.683 8.049)" fill="none" stroke="#a9c2ff" stroke-linecap="round" stroke-linejoin="round" stroke-width="3.446"/>
            <line id="Line_146" data-name="Line 146" x2="15.695" transform="translate(0.537 15.024)" fill="none" stroke="#a9c2ff" stroke-linecap="round" stroke-linejoin="round" stroke-width="3.446"/>
            <line id="Line_147" data-name="Line 147" x2="18.646" transform="translate(64.659)" fill="none" stroke="#a9c2ff" stroke-linecap="round" stroke-linejoin="round" stroke-width="3.446"/>
            <path id="Path_610" data-name="Path 610" d="M349.412,284.576H321.568a.214.214,0,0,1-.207-.268l1.246-4.789a.214.214,0,0,1,.207-.16h27.844a.214.214,0,0,1,.207.268l-1.246,4.789A.215.215,0,0,1,349.412,284.576Z" transform="translate(-275.616 -249.102)" fill="none" stroke="#84aee5" stroke-width="1.149"/>
            <path id="Path_611" data-name="Path 611" d="M300.026,284.576H272.181a.214.214,0,0,1-.207-.268l1.246-4.789a.215.215,0,0,1,.208-.16h27.844a.214.214,0,0,1,.207.268l-1.246,4.789A.215.215,0,0,1,300.026,284.576Z" transform="translate(-260.84 -249.102)" fill="none" stroke="#84aee5" stroke-width="1.149"/>
          </g>
          <path id="Path_612" data-name="Path 612" d="M415.176,264.256c-1.427-1.9-7.218-3.284-8.818-5.185-.817-.971-.817-2.776-.622-4.309a5.988,5.988,0,0,0,1.325-1.066,25.662,25.662,0,0,0,1.566-2.761.9.9,0,0,0,.667.278c.76-.022,3.654-3.962,2.908-4.875-.427-.522-1.116-.069-1.628.414.766-1.753,1.3-3.1,1.3-3.1h-.029c.073-.221.14-.444.2-.669,1.148-4.6-1.654-8.338-6.26-8.338a11.39,11.39,0,0,0-10.417,8.338c-.056.226-.1.449-.138.669H395.2s-.132,1.346-.24,3.1c-.271-.484-.734-.936-1.421-.414-1.2.912-.272,4.852.477,4.875a1.442,1.442,0,0,0,.8-.278,16.962,16.962,0,0,0,.189,2.761A3.38,3.38,0,0,0,396.077,255a9.373,9.373,0,0,1-2.679,4.067c-2.548,1.9-9.028,3.284-11.4,5.185-2.136,1.71-4.042,6.7-4.4,7.69h38.155C415.876,270.959,416.46,265.966,415.176,264.256Z" transform="translate(-273.431 -224.187)" fill="#8dbcf8"/>
        </g>
        <g id="Group_400" data-name="Group 400" transform="translate(3.651 187.805)" opacity="0.46">
          <path id="Path_613" data-name="Path 613" d="M359.523,381.078H209.172a2.414,2.414,0,0,1-2.337-3.023l14.036-53.927a2.415,2.415,0,0,1,2.337-1.807H373.559a2.415,2.415,0,0,1,2.337,3.023l-14.036,53.927A2.414,2.414,0,0,1,359.523,381.078Z" transform="translate(-206.756 -322.322)" fill="#bfd9ff"/>
          <g id="Group_399" data-name="Group 399" transform="translate(19.012 11.537)">
            <line id="Line_148" data-name="Line 148" x2="52.317" transform="translate(4.024)" fill="none" stroke="#a9c2ff" stroke-linecap="round" stroke-linejoin="round" stroke-width="3.446"/>
            <line id="Line_149" data-name="Line 149" x2="52.317" transform="translate(0 24.146)" fill="none" stroke="#a9c2ff" stroke-linecap="round" stroke-linejoin="round" stroke-width="3.446"/>
            <line id="Line_150" data-name="Line 150" x2="52.317" transform="translate(22 15.024)" fill="none" stroke="#a9c2ff" stroke-linecap="round" stroke-linejoin="round" stroke-width="3.446"/>
            <line id="Line_151" data-name="Line 151" x2="15.695" transform="translate(2.683 8.049)" fill="none" stroke="#a9c2ff" stroke-linecap="round" stroke-linejoin="round" stroke-width="3.446"/>
            <line id="Line_152" data-name="Line 152" x2="15.695" transform="translate(0.537 15.024)" fill="none" stroke="#a9c2ff" stroke-linecap="round" stroke-linejoin="round" stroke-width="3.446"/>
            <line id="Line_153" data-name="Line 153" x2="18.646" transform="translate(64.659)" fill="none" stroke="#a9c2ff" stroke-linecap="round" stroke-linejoin="round" stroke-width="3.446"/>
            <path id="Path_614" data-name="Path 614" d="M327.207,387.177H299.363a.214.214,0,0,1-.207-.268l1.246-4.788a.214.214,0,0,1,.207-.16h27.844a.215.215,0,0,1,.207.268l-1.247,4.788A.215.215,0,0,1,327.207,387.177Z" transform="translate(-253.412 -351.702)" fill="none" stroke="#84aee5" stroke-width="1.149"/>
            <path id="Path_615" data-name="Path 615" d="M277.821,387.177H249.977a.214.214,0,0,1-.207-.268l1.246-4.788a.214.214,0,0,1,.207-.16h27.844a.215.215,0,0,1,.207.268l-1.247,4.788A.215.215,0,0,1,277.821,387.177Z" transform="translate(-238.636 -351.702)" fill="none" stroke="#84aee5" stroke-width="1.149"/>
          </g>
          <path id="Path_616" data-name="Path 616" d="M392.972,366.856c-1.428-1.9-7.218-3.284-8.818-5.185-.817-.971-.817-2.776-.622-4.31a5.952,5.952,0,0,0,1.324-1.066,25.537,25.537,0,0,0,1.566-2.761.9.9,0,0,0,.666.277c.76-.022,3.654-3.962,2.908-4.875-.427-.522-1.116-.069-1.629.414.766-1.753,1.3-3.1,1.3-3.1h-.029c.073-.221.139-.444.2-.67,1.149-4.6-1.654-8.338-6.259-8.338a11.391,11.391,0,0,0-10.418,8.338c-.056.226-.1.449-.137.67H373s-.132,1.345-.24,3.1c-.271-.484-.734-.936-1.421-.414-1.2.912-.271,4.852.477,4.875a1.443,1.443,0,0,0,.8-.277,16.876,16.876,0,0,0,.189,2.761,3.383,3.383,0,0,0,1.066,1.308,9.369,9.369,0,0,1-2.679,4.067c-2.547,1.9-9.027,3.283-11.4,5.185-2.137,1.71-4.043,6.7-4.4,7.69h38.155C393.672,373.56,394.255,368.566,392.972,366.856Z" transform="translate(-251.226 -326.787)" fill="#8dbcf8"/>
        </g>
        <line id="Line_154" data-name="Line 154" x2="26.829" transform="translate(126.359 246.829)" fill="none" stroke="#7094d8" stroke-width="1.149"/>
        <line id="Line_155" data-name="Line 155" x2="63.854" transform="translate(35.139 174.927)" fill="none" stroke="#7094d8" stroke-width="1.149"/>
        <line id="Line_156" data-name="Line 156" x2="15.561" transform="translate(113.615 174.927)" fill="none" stroke="#7094d8" stroke-width="1.149"/>
        <path id="Path_617" data-name="Path 617" d="M459.567,220.105h5.393a2.357,2.357,0,0,1,2.253,3.051l-2.28,7.412" transform="translate(-278.745 -103.934)" fill="none" stroke="#7094d8" stroke-width="1.149"/>
        <g id="Group_404" data-name="Group 404" transform="translate(0 16.097)">
          <g id="Group_401" data-name="Group 401" transform="translate(6.268)">
            <path id="Path_618" data-name="Path 618" d="M214.218,82.56h-2.751a.945.945,0,0,1-.938-1.25l.685-2.751a1.709,1.709,0,0,1,1.563-1.251h2.751a.945.945,0,0,1,.939,1.251l-.686,2.751A1.709,1.709,0,0,1,214.218,82.56Z" transform="translate(-210.49 -77.307)" fill="#bfd9ff"/>
          </g>
          <g id="Group_402" data-name="Group 402" transform="translate(4.257 8.067)">
            <path id="Path_619" data-name="Path 619" d="M211.348,94.071H208.6a.945.945,0,0,1-.938-1.25l.685-2.752a1.709,1.709,0,0,1,1.563-1.25h2.751a.945.945,0,0,1,.939,1.25l-.686,2.752A1.709,1.709,0,0,1,211.348,94.071Z" transform="translate(-207.62 -88.818)" fill="#edf4ff"/>
            <path id="Path_620" data-name="Path 620" d="M223.841,94.071H221.09a.945.945,0,0,1-.939-1.25l.686-2.752a1.709,1.709,0,0,1,1.562-1.25h2.752a.945.945,0,0,1,.938,1.25L225.4,92.82A1.708,1.708,0,0,1,223.841,94.071Z" transform="translate(-211.357 -88.818)" fill="#bfd9ff"/>
            <path id="Path_621" data-name="Path 621" d="M236.333,94.071h-2.751a.945.945,0,0,1-.939-1.25l.686-2.752a1.709,1.709,0,0,1,1.563-1.25h2.751a.945.945,0,0,1,.939,1.25L237.9,92.82A1.709,1.709,0,0,1,236.333,94.071Z" transform="translate(-215.095 -88.818)" fill="#edf4ff"/>
          </g>
          <g id="Group_403" data-name="Group 403" transform="translate(0 16.321)">
            <path id="Path_622" data-name="Path 622" d="M208.412,105.849h-2.751a.945.945,0,0,1-.939-1.251l.686-2.751a1.708,1.708,0,0,1,1.562-1.251h2.752a.945.945,0,0,1,.938,1.251l-.686,2.751A1.708,1.708,0,0,1,208.412,105.849Z" transform="translate(-202.484 -100.596)" fill="#edf4ff"/>
            <path id="Path_623" data-name="Path 623" d="M205.275,118.431h-2.751a.945.945,0,0,1-.939-1.25l.686-2.751a1.708,1.708,0,0,1,1.562-1.251h2.752a.945.945,0,0,1,.938,1.251l-.686,2.751A1.708,1.708,0,0,1,205.275,118.431Z" transform="translate(-201.546 -104.361)" fill="#edf4ff"/>
            <path id="Path_624" data-name="Path 624" d="M220.9,105.849h-2.751a.945.945,0,0,1-.939-1.251l.686-2.751a1.709,1.709,0,0,1,1.563-1.251h2.751a.945.945,0,0,1,.939,1.251l-.686,2.751A1.709,1.709,0,0,1,220.9,105.849Z" transform="translate(-206.222 -100.596)" fill="#edf4ff"/>
            <path id="Path_625" data-name="Path 625" d="M215.431,127.8H212.68a.945.945,0,0,1-.939-1.251l.686-2.751a1.709,1.709,0,0,1,1.563-1.251h2.751a.945.945,0,0,1,.939,1.251l-.686,2.751A1.709,1.709,0,0,1,215.431,127.8Z" transform="translate(-204.585 -107.164)" fill="#bfd9ff"/>
          </g>
        </g>
        <g id="Group_412" data-name="Group 412" transform="translate(33.977 3.786)">
          <g id="Group_408" data-name="Group 408" transform="translate(0 1.505)">
            <g id="Group_407" data-name="Group 407">
              <g id="Group_406" data-name="Group 406">
                <g id="Group_405" data-name="Group 405">
                  <path id="Path_626" data-name="Path 626" d="M270.182,61.928h0l-.041,0c-.042,0-.083-.008-.125-.011v0c-.283-.018-.569-.031-.861-.031-8.159,0-16.416,6.541-18.589,14.664l-.1.388h0c-.01.041-.017.081-.027.122l-.062.249h.008c-1.791,8.233,3.492,14.786,11.95,14.444,7.712-.312,15.49-6.467,17.8-14.1C282.649,69.383,278.08,62.481,270.182,61.928Zm5.627,15.448c-1.628,5.424-7.187,9.8-12.659,9.976-5.883.186-9.553-4.379-8.34-10.12l.17-.682h-.006c1.565-5.688,7.357-10.255,13.08-10.255.3,0,.585.015.87.04C274.391,66.8,277.539,71.61,275.809,77.376Z" transform="translate(-250.031 -61.887)" fill="#ebedfc"/>
                  <path id="Path_627" data-name="Path 627" d="M269.376,64.631h0a1.662,1.662,0,0,0,1.144,2.139c4.461,1.18,6.841,5.59,5.287,10.767-1.628,5.424-7.187,9.8-12.659,9.976-5.365.17-8.893-3.612-8.552-8.634a1.621,1.621,0,0,0-1.718-1.779h0a2.97,2.97,0,0,0-2.817,2.575c-.485,7.166,4.584,12.551,12.272,12.239,7.712-.312,15.49-6.467,17.8-14.1,2.234-7.365-1.139-13.645-7.477-15.326A2.916,2.916,0,0,0,269.376,64.631Z" transform="translate(-250.028 -62.048)" fill="#a5c5ff"/>
                </g>
              </g>
            </g>
          </g>
          <g id="Group_411" data-name="Group 411" transform="translate(37.157)">
            <g id="Group_410" data-name="Group 410">
              <g id="Group_409" data-name="Group 409">
                <path id="Path_628" data-name="Path 628" d="M323.2,59.78h0l-.04,0-.156-.009c-.275-.016-.551-.029-.833-.029-8.251,0-16.608,6.688-18.664,14.94s2.964,14.939,11.215,14.939c.281,0,.563-.012.844-.028l.159-.009.045,0h0c7.855-.531,15.558-6.927,17.58-14.769.011-.043.025-.086.036-.13C335.36,66.777,330.835,60.314,323.2,59.78Zm-6.637,25.4-.041,0q-.261.017-.521.021h0c-.06,0-.12,0-.179,0-5.816,0-9.355-4.715-7.905-10.531s7.34-10.531,13.156-10.531c.06,0,.118,0,.177,0q.26.005.513.022l.043,0c5.375.381,8.56,4.935,7.172,10.5-.011.043-.025.086-.036.13A14.486,14.486,0,0,1,316.566,85.18Z" transform="translate(-303.049 -59.739)" fill="#fff"/>
                <path id="Path_629" data-name="Path 629" d="M333.594,83.082a14.757,14.757,0,0,1-10.423,8.368A3.08,3.08,0,0,0,320.8,93.62h0a1.7,1.7,0,0,0,2.091,2.164,20.929,20.929,0,0,0,14.847-11.919,1.724,1.724,0,0,0-1.512-2.624h0A3.049,3.049,0,0,0,333.594,83.082Z" transform="translate(-308.34 -66.173)" fill="#bfd9ff"/>
              </g>
            </g>
          </g>
        </g>
        <path id="Path_630" data-name="Path 630" d="M263.274,132.59H235.429a.215.215,0,0,1-.207-.268l1.246-4.788a.215.215,0,0,1,.207-.16H264.52a.215.215,0,0,1,.207.268l-1.246,4.788A.214.214,0,0,1,263.274,132.59Z" transform="translate(-211.62 -76.189)" fill="#edf4ff"/>
        <g id="Group_413" data-name="Group 413" transform="translate(155.859 52.977)">
          <ellipse id="Ellipse_20" data-name="Ellipse 20" cx="13.999" cy="10.917" rx="13.999" ry="10.917" transform="translate(0 18.533) rotate(-41.447)" fill="#73a5ff"/>
          <path id="Path_631" data-name="Path 631" d="M472.372,172.337a4.622,4.622,0,0,1-4.227,3.383,2.556,2.556,0,0,1-2.54-3.383,4.621,4.621,0,0,1,4.227-3.383A2.556,2.556,0,0,1,472.372,172.337Z" transform="translate(-436.379 -141.607)" fill="#73a5ff"/>
          <path id="Path_632" data-name="Path 632" d="M442.811,159.124a1.172,1.172,0,0,1-.964-.445l-3.195-4.256a1.625,1.625,0,0,1,.536-2.149,1.51,1.51,0,0,1,2.149,0l2.388,3.181,8.532-6.829a1.51,1.51,0,0,1,2.149,0,1.626,1.626,0,0,1-.536,2.149l-9.874,7.9A1.932,1.932,0,0,1,442.811,159.124Z" transform="translate(-428.279 -135.392)" fill="#fff"/>
        </g>
      </g>
      <g id="Group_426" data-name="Group 426" transform="translate(269.366 39.168)">
        <ellipse id="Ellipse_21" data-name="Ellipse 21" cx="52.72" cy="4.427" rx="52.72" ry="4.427" transform="translate(0 237.978)" fill="#bfd9ff"/>
        <g id="Group_422" data-name="Group 422" transform="translate(1.495)">
          <g id="Group_420" data-name="Group 420">
            <path id="Path_633" data-name="Path 633" d="M563.088,119.8s-1.341,2.683-2.146,8.586,1.341,39.975,1.341,39.975l23.073-2.414-10.464-44.537Z" transform="translate(-509.851 -113.092)" fill="#024470"/>
            <g id="Group_418" data-name="Group 418">
              <path id="Path_634" data-name="Path 634" d="M541.121,325.193l-8.049,39.842,15.7.4s4.024-35.414,2.414-35.414S541.121,325.193,541.121,325.193Z" transform="translate(-501.567 -174.545)" fill="#45242c"/>
              <g id="Group_415" data-name="Group 415" transform="translate(67.725 149.509)">
                <path id="Path_635" data-name="Path 635" d="M593.072,445.945s-5.9,6.171-8.317,7.513c.536,1.073,9.122,1.073,12.341-.537s5.634-5.365,5.634-5.365l-.268,4.024h1.61a55.642,55.642,0,0,0,1.61-6.976c0-1.341-1.61-3.22-1.61-3.22Z" transform="translate(-584.755 -358.817)" fill="#713336"/>
                <path id="Path_636" data-name="Path 636" d="M593.177,331.28l5.9,72.439,6.976-.537s8.049-53.122,4.829-71.366S593.177,331.28,593.177,331.28Z" transform="translate(-587.275 -323.567)" fill="#ff8d68"/>
                <path id="Path_637" data-name="Path 637" d="M599.135,437.71s-2.146,5.634-5.1,8.317,4.562,2.683,7.781,0,3.488-4.293,4.561-4.829-.268-4.025-.268-4.025Z" transform="translate(-587.331 -357.557)" fill="#ff8d68"/>
              </g>
              <g id="Group_416" data-name="Group 416" transform="translate(18.132 150.994)">
                <path id="Path_638" data-name="Path 638" d="M523.453,445.029s-6.858,5.088-9.464,6c.348,1.148,8.81,2.6,12.256,1.551s6.458-4.339,6.458-4.339l-.943,3.922,1.587.271a55.652,55.652,0,0,0,2.763-6.6c.226-1.322-1.044-3.444-1.044-3.444Z" transform="translate(-513.989 -360.603)" fill="#713336"/>
                <path id="Path_639" data-name="Path 639" d="M540.47,331.427l-6.392,72.4,6.966.647s16.888-51.005,16.79-69.531S540.47,331.427,540.47,331.427Z" transform="translate(-520 -325.686)" fill="#ff8d68"/>
                <path id="Path_640" data-name="Path 640" d="M530.97,437.185s-3.065,5.192-6.427,7.339,4.044,3.413,7.67,1.311,4.161-3.643,5.31-3.991.414-4.012.414-4.012Z" transform="translate(-516.891 -359.046)" fill="#ff8d68"/>
              </g>
              <g id="Group_417" data-name="Group 417" transform="translate(0 37.016)">
                <path id="Path_641" data-name="Path 641" d="M502,168.478l-13.87-2.732s-.21,1.891,1.051,2.311l1.261.42s3.152,7.565,4.623,8.406,10.3,4.484,10.3,4.484l2.308-8.9Z" transform="translate(-488.116 -163.855)" fill="#ff7759"/>
                <path id="Path_642" data-name="Path 642" d="M516.111,178.887a22.411,22.411,0,0,0-1.99-4.7A38.86,38.86,0,0,1,511.6,168.3s-6.515-2.522-7.565-3.783a4.649,4.649,0,0,0-1.681-1.471,3.327,3.327,0,0,0,.63,3.992c1.891,1.681,3.573,2.943,3.573,2.943a32.592,32.592,0,0,0,.421,7.145,6.154,6.154,0,0,0,2.525,3.433Z" transform="translate(-492.253 -163.047)" fill="#ff8d68"/>
                <path id="Path_643" data-name="Path 643" d="M540.936,193.2s-9.39,15.025-9.658,13.682-12.073-22-12.073-22l-6.475,2.21s9.695,30.254,15.866,35.083c0,0,.536.805,2.414.537s16.366-15.293,16.366-15.293Z" transform="translate(-495.48 -169.581)" fill="#ff8d68"/>
              </g>
              <path id="Path_644" data-name="Path 644" d="M558.329,171.293s-5.03,2.013-7.445,5.5-9.39,19.318-9.39,19.318a21.533,21.533,0,0,0,12.342,9.122l11.8-21.732Z" transform="translate(-504.087 -128.498)" fill="#e86d5e"/>
              <path id="Path_645" data-name="Path 645" d="M552.486,243.6s.4,6.439.4,8.853c0,0-9.658,46.683-10.061,57.549s7.646,33,7.646,33,34.61-.805,45.878-3.219l1.207-23.342s1.61-40.647,0-52.317-8.452-17.707-8.452-17.707l-2.012-5.634Z" transform="translate(-504.481 -149.288)" fill="#713336"/>
              <path id="Path_646" data-name="Path 646" d="M582.92,167.273s9.055,4.226,11.872,8.653S606.06,204.3,606.06,204.3s-9.457,3.421-17.707,3.421c0,0,.805,7.646,1.61,10.061s-2.012,3.421-2.012,3.421-19.719,5.433-34.409,2.213c0,0-1.811-.4-1.811-1.207s.2-2.817.2-2.817-1.409-13.682-1.811-16.1-4.829-8.988-4.427-11.6,7.244-14.755,7.244-14.755,4.628-5.433,6.64-6.842,7.043-1.409,7.043-1.409Z" transform="translate(-505.336 -127.295)" fill="#e86d5e"/>
              <path id="Path_647" data-name="Path 647" d="M572.955,152.906c.008.315,1.156,7.145-2.627,11.978-3.783,4.939,11.138,4.728,14.605-.315,3.152-4.518,2.837-5.253,2.837-5.253s-2.522-8.2-1.786-13.555C585.774,140.927,572.745,143.869,572.955,152.906Z" transform="translate(-512.532 -120.169)" fill="#ff8d68"/>
              <path id="Path_648" data-name="Path 648" d="M570.755,115.6s-4.35,1.113-6.814,7.793-.821,20.873.821,22.543,6.633,1.032,13.553-1.252c7.312-2.413,9.783-10.014,11.09-15.029C591.907,120.057,583.558,110.177,570.755,115.6Z" transform="translate(-510.427 -111.374)" fill="#ff8d68"/>
              <path id="Path_649" data-name="Path 649" d="M562.124,122.035s4.025,9.658,19.317,10.195L585,149.3s6.51,3.128,9.055,4.528c0,0,2.951-30.988-4.025-38.5s-19.317-5.634-24.146-1.341S562.124,122.035,562.124,122.035Z" transform="translate(-510.229 -110.228)" fill="#024470"/>
              <path id="Path_650" data-name="Path 650" d="M589.018,165.9l-3.421-3.219s-3.018,8.653-13.683,9.256a7.357,7.357,0,0,1-.6-5.433l-1.812,1.409s-3.823,5.433-3.421,7.042,5.5-1.207,5.5-1.207,6.037,3.622,8.452,3.824S588.615,166.5,589.018,165.9Z" transform="translate(-511.433 -125.921)" fill="#fff"/>
              <path id="Path_651" data-name="Path 651" d="M589.538,140.458s1.613-2.661,3.227-1.681-1.027,7-3.227,7.142S588.512,142,589.538,140.458Z" transform="translate(-518.088 -118.705)" fill="#ff7759"/>
            </g>
            <line id="Line_157" data-name="Line 157" x2="6.171" y2="22" transform="translate(75.237 57.417)" fill="none" stroke="#bb524f" stroke-width="1.149"/>
            <path id="Path_652" data-name="Path 652" d="M590.019,193.976a14.547,14.547,0,0,0,6.036,7.043" transform="translate(-518.605 -135.285)" fill="none" stroke="#bb524f" stroke-width="1.149"/>
            <path id="Path_653" data-name="Path 653" d="M600.068,183.934a7.418,7.418,0,0,1,7.244-6.037" transform="translate(-521.612 -130.474)" fill="none" stroke="#bb524f" stroke-width="1.149"/>
            <path id="Path_654" data-name="Path 654" d="M552.211,183.065s-6.573,10.8-6.506,13.347S550,206.206,550,206.206l5.232,13.683" transform="translate(-505.346 -132.02)" fill="none" stroke="#bb524f" stroke-width="1.149"/>
            <line id="Line_158" data-name="Line 158" y1="8.049" x2="7.043" transform="translate(69.603 87.868)" fill="none" stroke="#bb524f" stroke-width="1.149"/>
            <g id="Group_419" data-name="Group 419" transform="translate(2.325 41.639)">
              <path id="Path_655" data-name="Path 655" d="M499.687,172.007l-8.253-2.363a10.676,10.676,0,0,0,1.278,2.363c.536.537,6.3,2.549,6.3,2.549" transform="translate(-491.434 -169.644)" fill="none" stroke="#e66657" stroke-width="1.026"/>
              <path id="Path_656" data-name="Path 656" d="M493.257,173.016a14.607,14.607,0,0,0,1.207,2.817c.4.4,5.5,1.878,5.5,1.878" transform="translate(-491.979 -170.653)" fill="none" stroke="#e66657" stroke-width="1.026"/>
              <path id="Path_657" data-name="Path 657" d="M504.933,170.145l2.518,1.961,1.909-.485" transform="translate(-495.473 -169.794)" fill="none" stroke="#e66657" stroke-width="1.026"/>
            </g>
          </g>
          <g id="Group_421" data-name="Group 421" transform="translate(53.572 21.868)">
            <path id="Path_658" data-name="Path 658" d="M575.567,157.671a12.689,12.689,0,0,0,7.78-5.9" transform="translate(-567.853 -144.525)" fill="none" stroke="#e66657" stroke-width="1.026"/>
            <path id="Path_659" data-name="Path 659" d="M568.849,143.346l-.939,5.1,1.744.4" transform="translate(-565.562 -142.005)" fill="none" stroke="#e66657" stroke-width="1.026"/>
            <path id="Path_660" data-name="Path 660" d="M568.867,154.047a8.267,8.267,0,0,0,5.232-.938" transform="translate(-565.849 -144.926)" fill="none" stroke="#e66657" stroke-width="1.026"/>
            <path id="Path_661" data-name="Path 661" d="M580.339,146.02a2.482,2.482,0,1,1-2.482-2.482A2.482,2.482,0,0,1,580.339,146.02Z" transform="translate(-567.796 -142.062)" fill="#fa6157"/>
            <path id="Path_662" data-name="Path 662" d="M575.052,142.035a.6.6,0,1,1-.6-.6A.6.6,0,0,1,575.052,142.035Z" transform="translate(-567.338 -141.432)" fill="#024470"/>
            <path id="Path_663" data-name="Path 663" d="M565.768,142.035a.6.6,0,1,1-.6-.6A.6.6,0,0,1,565.768,142.035Z" transform="translate(-564.56 -141.432)" fill="#024470"/>
          </g>
          <path id="Path_664" data-name="Path 664" d="M560.157,254.992s11.067,3.421,21.531-1.006" transform="translate(-509.671 -153.24)" fill="none" stroke="#562525" stroke-width="1.149"/>
          <path id="Path_665" data-name="Path 665" d="M564.847,260.381s5.634,1.878,14.756-1.61" transform="translate(-511.074 -154.671)" fill="none" stroke="#562525" stroke-width="1.149"/>
        </g>
        <rect id="Rectangle_173" data-name="Rectangle 173" width="24.549" height="32.598" transform="matrix(0.866, -0.5, 0.5, 0.866, 31.593, 115.104)" fill="#fff"/>
        <g id="Group_425" data-name="Group 425" transform="translate(56.207 77.942)">
          <g id="Group_423" data-name="Group 423" transform="translate(0.102)">
            <path id="Path_666" data-name="Path 666" d="M583,270.262s-3.353,3.689-4.36,4.494-7.848,1.409-7.848,1.409-3.018,5.03-3.823,4.829-.6-.805-.6-.805-.2-9.054.4-10.061,10.463-3.823,10.463-3.823l1.208-1.409L583,270.262" transform="translate(-566.332 -234.446)" fill="#ff8d68"/>
            <path id="Path_667" data-name="Path 667" d="M614.46,221.445c.268.8,2.415,7.11,3.488,10.329s-23.073,20.122-26.83,23.073l-2.951,2.414-4.561-5.365,21.2-21.2-3.085-6.976Z" transform="translate(-571.5 -221.445)" fill="#ff8d68"/>
          </g>
          <g id="Group_424" data-name="Group 424" transform="translate(0 35.683)">
            <line id="Line_159" data-name="Line 159" y1="5.634" x2="1.274" transform="translate(0.738 5.232)" fill="none" stroke="#e66657" stroke-width="1.026"/>
            <line id="Line_160" data-name="Line 160" y1="3.219" x2="1.476" transform="translate(0 2.549)" fill="none" stroke="#e66657" stroke-width="1.026"/>
            <path id="Path_668" data-name="Path 668" d="M566.724,272.362l-.537,10.866h1.744l2.817-4.829" transform="translate(-566.187 -272.362)" fill="none" stroke="#e66657" stroke-width="1.026"/>
          </g>
        </g>
      </g>
      <g id="Group_434" data-name="Group 434" transform="translate(0 36.756)">
        <ellipse id="Ellipse_22" data-name="Ellipse 22" cx="52.72" cy="4.427" rx="52.72" ry="4.427" transform="translate(0 240.39)" fill="#bfd9ff"/>
        <g id="Group_433" data-name="Group 433" transform="translate(13.956)">
          <g id="Group_432" data-name="Group 432">
            <g id="Group_431" data-name="Group 431">
              <g id="Group_427" data-name="Group 427" transform="translate(11.471 164.871)">
                <path id="Path_669" data-name="Path 669" d="M145.913,435.005s1.118-2.4,5.273-1.758,4.634,1.438,5.113,3.515,1.917,4.314,2.876,4.794,4.474,2.876,7.349,3.355,3.2,2.237,2.557,3.036-11.5,1.438-13.9,1.118c0,0-8.149-.159-10.066-.8S145.753,435.8,145.913,435.005Z" transform="translate(-139.844 -369.301)" fill="#2d2737"/>
                <path id="Path_670" data-name="Path 670" d="M139.353,351.587a7.869,7.869,0,0,1,5.773-8.838c6.988-2.222,8.31,1.008,10.425,7.043s-1.818,57.591-1.818,57.591-8.046,1.374-10.11.156c0,0-6.129-33.561-5.7-42.772S139.353,351.587,139.353,351.587Z" transform="translate(-137.898 -342.045)" fill="#3d4776"/>
                <path id="Path_671" data-name="Path 671" d="M144.847,432.064s9.108-.8,11.984-1.278l-.16,4.154s-7.19,1.278-11.664.639Z" transform="translate(-139.977 -368.596)" fill="#51598d"/>
              </g>
              <path id="Path_672" data-name="Path 672" d="M135.633,171.33s-5.751.32-9.267,13.422-5.752,29.079-4.474,33.233,15.019,15.339,20.132,15.339,5.433-3.835,4.474-7.03-10.865-11.824-10.865-11.824,7.989-25.564,7.67-32.275S139.149,171.33,135.633,171.33Z" transform="translate(-121.529 -126.097)" fill="#7e78c7"/>
              <g id="Group_429" data-name="Group 429" transform="translate(85.175 17.001)">
                <path id="Path_673" data-name="Path 673" d="M244.022,163.979l-.954.1,2.138-4.233s5.435-.343,6.307,1.952l-2.493,5.529Z" transform="translate(-243.068 -139.656)" fill="#ff8d68"/>
                <g id="Group_428" data-name="Group 428" transform="translate(0.794)">
                  <path id="Path_674" data-name="Path 674" d="M248.784,146.4s-.212-4.326,1.327-4.941a3.958,3.958,0,0,1,3.263.582s2.491-.254,3.286.809a4.78,4.78,0,0,1,.73,2.671,2.5,2.5,0,0,1,1.77,1.65,10.551,10.551,0,0,1-.287,3.919s-1.627,2-3.508,1.5S248.784,146.4,248.784,146.4Z" transform="translate(-245.569 -134.11)" fill="#ff7759"/>
                  <path id="Path_675" data-name="Path 675" d="M244.62,146.833s-.577-5.662.033-6.41,6.848-9.378,6.848-9.378a3.147,3.147,0,0,1,.549,3.148c-.744,1.678-3.681,6.766-3.681,6.766l-.015,4.349A9.55,9.55,0,0,1,244.62,146.833Z" transform="translate(-244.253 -131.045)" fill="#ff7759"/>
                  <path id="Path_676" data-name="Path 676" d="M245.03,155.323s-1.491-9.092-.474-10.34,6-.52,6.955-.16,3.586,3.753,3.951,5.089-2.118,6.166-3.611,7.233S245.894,157.066,245.03,155.323Z" transform="translate(-244.201 -135.006)" fill="#ff8d68"/>
                </g>
              </g>
              <path id="Path_677" data-name="Path 677" d="M240.376,167.06l1.917-3.515s4.474-.8,6.711,2.716c.639,1.278.32,1.278.32,1.278l-1.438,2.876Z" transform="translate(-157.088 -123.745)" fill="#dee0e8"/>
              <path id="Path_678" data-name="Path 678" d="M166.567,112.986s4.728,1.21,7.405,8.469.893,22.683-.893,24.5-7.208,1.121-14.728-1.361c-7.946-2.623-10.631-10.883-12.051-16.332C143.581,117.825,152.655,107.088,166.567,112.986Z" transform="translate(-128.797 -108.139)" fill="#ff8d68"/>
              <path id="Path_679" data-name="Path 679" d="M151.231,164.8l3.835-13.741s7.67-2.237,12.462,2.876l1.6,2.237v8.947A51.177,51.177,0,0,1,151.231,164.8Z" transform="translate(-130.416 -119.886)" fill="#ff8d68"/>
              <path id="Path_680" data-name="Path 680" d="M135.41,274.669a126.563,126.563,0,0,0,0,35.95c2.876,19.174,8.628,21.091,13.9,21.091s6.711-15.338,7.67-22.049,4.793-29.718-2.4-34.991S139.244,268.917,135.41,274.669Z" transform="translate(-125.3 -155.778)" fill="#3d4776"/>
              <path id="Path_681" data-name="Path 681" d="M163.984,297.366s-5.752-15.338,4.314-22.049,17.735-5.752,20.132,5.273,2.876,48.892-.479,56.561S172.612,332.837,163.984,297.366Z" transform="translate(-133.742 -155.946)" fill="#3d4776"/>
              <path id="Path_682" data-name="Path 682" d="M174.993,112.289a6.917,6.917,0,0,1,.907,6.351c-1.361,3.4-6.351,4.763-6.351,4.763a5.459,5.459,0,0,1,0,5.444l-1.134,1.815s1.588,3.629,1.134,4.536-2.041.68-2.041.68-1.814-4.99-2.495-4.536a7.291,7.291,0,0,0-2.495,4.763c0,2.041.68,3.629.226,4.99s-7.485,1.361-10.434.908-7.485-9.527-8.62-13.61c0,0-1.587-5.671.68-10.434,0,0-.453-4.083,3.4-8.166s16.105-2.722,18.147-1.135c0,0-.227-2.268,2.041-1.814A10.854,10.854,0,0,1,174.993,112.289Z" transform="translate(-127.998 -106.785)" fill="#c53a45"/>
              <path id="Path_683" data-name="Path 683" d="M177.113,143.263s-.68-2.949-3.175-1.588.453,8.393,2.495,7.939S177.568,144.4,177.113,143.263Z" transform="translate(-136.924 -117.117)" fill="#ff7759"/>
              <path id="Path_684" data-name="Path 684" d="M148.336,168.831s1.07-3.763,2.029-4.081,12.783-1.6,19.173,2.236c2.876,2.237,2.557,3.835,2.557,3.835S153.017,167.161,148.336,168.831Z" transform="translate(-129.55 -123.99)" fill="#dee0e8"/>
              <path id="Path_685" data-name="Path 685" d="M140.7,168.673s19.812-1.278,33.873,4.794c6.391,3.2,21.011,17.655,21.011,17.655l11.5-23.967s6.471-2.316,9.028,3.755c0,0-7.27,28.281-13.341,37.229-3.835,3.195-22.129-7.19-22.129-7.19s2.875,37.068,1.917,53.686c-1.278,3.195-26.2,4.793-30.678,4.473s-20.132-5.432-20.452-6.391,2.237-39.306,1.6-43.779-2.557-26.523-1.917-29.719S134.628,169.951,140.7,168.673Z" transform="translate(-124.358 -124.718)" fill="#7e78c7"/>
              <g id="Group_430" data-name="Group 430" transform="translate(35.923 166.973)">
                <path id="Path_686" data-name="Path 686" d="M174.3,436.373s1.118-2.4,5.272-1.758,4.634,1.438,5.113,3.515,1.917,4.314,2.876,4.793,4.474,2.876,7.35,3.355,3.195,2.236,2.556,3.036-11.5,1.437-13.9,1.118c0,0-8.149-.16-10.066-.8S174.139,437.172,174.3,436.373Z" transform="translate(-172.79 -371.812)" fill="#3e3343"/>
                <path id="Path_687" data-name="Path 687" d="M176.254,353.525a7.87,7.87,0,0,1,6.711-8.149c7.19-1.438,8.149,1.917,9.587,8.149s-8.149,57.04-8.149,57.04-8.149.479-10.066-.959c0,0-2.4-34.032-.959-43.14S176.254,353.525,176.254,353.525Z" transform="translate(-172.828 -345.046)" fill="#3d4776"/>
                <path id="Path_688" data-name="Path 688" d="M173.962,436.741s6.232,1.758,11.5.8l.479-3.675-12.144-.8Z" transform="translate(-173.093 -371.381)" fill="#51598d"/>
              </g>
              <path id="Path_689" data-name="Path 689" d="M161.947,303.452s6.711,21.57,11.743,32.116" transform="translate(-133.622 -165.628)" fill="none" stroke="#2a2e59" stroke-width="1.026"/>
              <path id="Path_690" data-name="Path 690" d="M181.44,354.98a8.524,8.524,0,0,1,8.149,0" transform="translate(-139.455 -180.726)" fill="none" stroke="#2a2e59" stroke-width="1.026"/>
              <path id="Path_691" data-name="Path 691" d="M180.414,359s3.355-1.917,9.108,2.156" transform="translate(-139.148 -182.114)" fill="none" stroke="#2a2e59" stroke-width="1.026"/>
              <path id="Path_692" data-name="Path 692" d="M144.505,350.905s2.636-2.4,8.628.24" transform="translate(-128.404 -179.527)" fill="none" stroke="#2a2e59" stroke-width="1.026"/>
              <path id="Path_693" data-name="Path 693" d="M147.241,354.484a7.208,7.208,0,0,1,7.43.959" transform="translate(-129.222 -180.709)" fill="none" stroke="#2a2e59" stroke-width="1.026"/>
              <line id="Line_161" data-name="Line 161" x1="1.438" y2="48.892" transform="translate(25.449 177.609)" fill="none" stroke="#2a2e59" stroke-width="1.026"/>
              <path id="Path_694" data-name="Path 694" d="M188.166,300.923s5.433,3.2,7.67-1.917" transform="translate(-141.467 -164.297)" fill="none" stroke="#2a2e59" stroke-width="1.026"/>
              <path id="Path_695" data-name="Path 695" d="M195.918,302.654s2.557,19.812,1.917,32.915" transform="translate(-143.786 -165.389)" fill="none" stroke="#2a2e59" stroke-width="1.026"/>
              <line id="Line_162" data-name="Line 162" x2="2.556" y2="27.482" transform="translate(6.755 62.809)" fill="none" stroke="#524b81" stroke-width="1.026"/>
              <path id="Path_696" data-name="Path 696" d="M193.752,210.089s18.934,13.661,27.8,11.025" transform="translate(-143.138 -137.694)" fill="none" stroke="#524b81" stroke-width="1.026"/>
              <path id="Path_697" data-name="Path 697" d="M225.9,205.3a7.905,7.905,0,0,1,3.6,7.19" transform="translate(-152.757 -136.261)" fill="none" stroke="#524b81" stroke-width="1.026"/>
              <path id="Path_698" data-name="Path 698" d="M224.531,202.495A5.77,5.77,0,0,1,231,205.371" transform="translate(-152.347 -135.372)" fill="none" stroke="#524b81" stroke-width="1.026"/>
              <path id="Path_699" data-name="Path 699" d="M190.309,178.968s-10.066,5.273-3.355,17.5" transform="translate(-140.414 -128.382)" fill="none" stroke="#524b81" stroke-width="1.026"/>
              <path id="Path_700" data-name="Path 700" d="M172.378,156.226s1.677,4.314,7.309,3.6" transform="translate(-136.743 -121.578)" fill="none" stroke="#e66657" stroke-width="1.026"/>
              <path id="Path_701" data-name="Path 701" d="M249.781,142.856l1.877-1.678a2.889,2.889,0,0,1,2.017.835" transform="translate(-159.902 -117.076)" fill="none" stroke="#e66657" stroke-width="1.026"/>
              <path id="Path_702" data-name="Path 702" d="M252.973,143.306a30.883,30.883,0,0,1,2.676-1.558s2.437.6,2.8,1.877a3.241,3.241,0,0,1,.08,1.957" transform="translate(-160.857 -117.246)" fill="none" stroke="#e66657" stroke-width="1.026"/>
              <path id="Path_703" data-name="Path 703" d="M257.476,147.275c.12-.04,3.4.16,3.4.16a2.868,2.868,0,0,1,1.158,2.357,12.183,12.183,0,0,1-.554,3.095,4.063,4.063,0,0,1-3.161,1.619" transform="translate(-162.204 -118.898)" fill="none" stroke="#e66657" stroke-width="1.026"/>
              <path id="Path_704" data-name="Path 704" d="M258.648,152.065a1.984,1.984,0,0,1-.12,1.8c-.519,1.158-1.148,4.192-3.41,5.611" transform="translate(-161.499 -120.333)" fill="none" stroke="#e66657" stroke-width="1.026"/>
            </g>
            <path id="Path_705" data-name="Path 705" d="M158.591,120.783c-4.674-2.277-10.666.479-10.666.479A6.21,6.21,0,0,1,152,117.068" transform="translate(-129.427 -109.862)" fill="none" stroke="#a03a45" stroke-width="1.368"/>
            <path id="Path_706" data-name="Path 706" d="M148.267,125.789s1.2-.12,2.756,2.277" transform="translate(-129.529 -112.471)" fill="none" stroke="#a03a45" stroke-width="1.368"/>
            <path id="Path_707" data-name="Path 707" d="M177.678,110.456s5.912.959,6.072,6.871" transform="translate(-138.329 -107.884)" fill="none" stroke="#a03a45" stroke-width="1.368"/>
          </g>
        </g>
      </g>
    </g>
  </g>
  <g id="Group_384" data-name="Group 384" transform="translate(-161 -248)">
    <rect id="Rectangle_63" data-name="Rectangle 63" width="148" height="42" rx="4" transform="translate(1055 608)" fill="#064c87"/>
    <text id="Saved_time_2_hrs" data-name="Saved time 2 hrs" transform="translate(1071 634)" fill="#fff" font-size="14" font-family="Poppins-Regular, Poppins"><tspan x="0" y="0">Saved time 2 hrs</tspan></text>
  </g>
  <g id="Component_32_1" data-name="Component 32 – 1" transform="translate(47 295)">
    <g transform="matrix(1, 0, 0, 1, -47, -295)" filter="url(#Rectangle_57)">
      <rect id="Rectangle_57-2" data-name="Rectangle 57" width="159" height="48" rx="4" transform="translate(47 295)" fill="#064c87"/>
    </g>
    <text id="Post_a_Job" data-name="Post a Job" transform="translate(38 30)" fill="#fff" font-size="16" font-family="Poppins-Medium, Poppins" font-weight="500"><tspan x="0" y="0">Post a Job</tspan></text>
  </g>
  <g id="Rectangle_170" data-name="Rectangle 170" transform="translate(47 394)" fill="#fff" stroke="#064c87" stroke-width="1">
    <rect width="420" height="48" rx="4" stroke="none"/>
    <rect x="0.5" y="0.5" width="419" height="47" rx="3.5" fill="none"/>
  </g>
  <text id="Search_your_Skill_here" data-name="Search your Skill here" transform="translate(93 423)" fill="#200e32" font-size="12" font-family="Poppins-Regular, Poppins" opacity="0.6"><tspan x="0" y="0">search your skill here</tspan></text>
  <g id="Group_780" data-name="Group 780" transform="translate(-8 -122)">
    <rect id="Rectangle_172" data-name="Rectangle 172" width="112" height="36" rx="4" transform="translate(351 522)" fill="#064c87"/>
    <text id="Get_Started" data-name="Get Started" transform="translate(367 545)" fill="#fff" font-size="14" font-family="Poppins-Medium, Poppins" font-weight="500"><tspan x="0" y="0">Get Started</tspan></text>
  </g>
  <g id="Iconly_Light_Search" data-name="Iconly/Light/Search" transform="translate(63 409)" opacity="0.6">
    <rect id="Iconly_Light_Search_Background_" data-name="Iconly/Light/Search (Background)" width="18" height="18" fill="none"/>
    <g id="Search" transform="translate(2.084 2.084)">
      <circle id="Ellipse_739" cx="6.741" cy="6.741" r="6.741" fill="none" stroke="#200e32" stroke-linecap="round" stroke-linejoin="round" stroke-width="1.5" stroke-dasharray="0 0"/>
      <path id="Line_181" d="M0,0,2.643,2.636" transform="translate(11.43 11.78)" fill="none" stroke="#200e32" stroke-linecap="round" stroke-linejoin="round" stroke-width="1.5" stroke-dasharray="0 0"/>
    </g>
  </g>
  <g id="Component_44_1" data-name="Component 44 – 1" transform="translate(266 295)">
    <text id="Browse_a_Job_" data-name="Browse a Job " transform="translate(24 30)" fill="#064c87" font-size="16" font-family="Poppins-Medium, Poppins" font-weight="500"><tspan x="0" y="0">Browse a Job </tspan></text>
    <g transform="matrix(1, 0, 0, 1, -266, -295)" filter="url(#Rectangle_199)">
      <g id="Rectangle_199-2" data-name="Rectangle 199" transform="translate(266 295)" fill="none" stroke="#064c87" stroke-width="1">
        <rect width="159" height="48" rx="4" stroke="none"/>
        <rect x="0.5" y="0.5" width="158" height="47" rx="3.5" fill="none"/>
      </g>
    </g>
  </g>
  <g id="Group_799" data-name="Group 799" transform="translate(0 -122)">
    <g transform="matrix(1, 0, 0, 1, 0, 122)" filter="url(#Rectangle_61)">
      <rect id="Rectangle_61-2" data-name="Rectangle 61" width="1160" height="142" rx="6" transform="translate(60 471)" fill="#fff"/>
    </g>
    <g id="Group_789" data-name="Group 789" transform="translate(90 620)">
      <rect id="Rectangle_201" data-name="Rectangle 201" width="184" height="88" rx="4" fill="#e4ecf2"/>
      <g id="Group_788" data-name="Group 788" transform="translate(16 24)">
        <text id="Trusted_by" data-name="Trusted by" transform="translate(52 13)" fill="#707070" font-size="12" font-family="Poppins-Regular, Poppins"><tspan x="0" y="0">Trusted by</tspan></text>
        <text id="_6345_Users" data-name="6345+ Users" transform="translate(52 34)" fill="#064c87" font-size="16" font-family="Poppins-Medium, Poppins" font-weight="500"><tspan x="0" y="0">6345+ Users</tspan></text>
        <g id="Group_787" data-name="Group 787">
          <rect id="Rectangle_202" data-name="Rectangle 202" width="40" height="40" rx="4" fill="#064c87"/>
          <g id="_37" data-name="37" transform="translate(9 8)">
            <path id="Path_1887" data-name="Path 1887" d="M24.813,4.606a23.75,23.75,0,0,0-21.125,0A1.25,1.25,0,0,0,3,5.718v15a1.25,1.25,0,0,0,.688,1.112l10,5a1.25,1.25,0,0,0,1.125,0l10-5a1.25,1.25,0,0,0,.688-1.112v-15a1.25,1.25,0,0,0-.687-1.112ZM23,19.943l-8.75,4.375L5.5,19.943V6.506a21.25,21.25,0,0,1,17.5,0Z" transform="translate(-3 -2.128)" fill="#fff"/>
            <path id="Path_1888" data-name="Path 1888" d="M8.918,11.964a1.25,1.25,0,0,0-1.375,2.075l3.75,2.5a1.15,1.15,0,0,0,.687.212,1.25,1.25,0,0,0,.887-.362l6.25-6.25a1.255,1.255,0,0,0-1.775-1.775l-5.525,5.525Z" transform="translate(-1.981 -0.66)" fill="#fff"/>
          </g>
        </g>
      </g>
    </g>
    <rect id="Rectangle_201-2" data-name="Rectangle 201" width="184" height="88" rx="4" transform="translate(319 620)" fill="#e4ecf2"/>
    <text id="Job_Posted_by" data-name="Job Posted by" transform="translate(386.735 657)" fill="#707070" font-size="12" font-family="Poppins-Regular, Poppins"><tspan x="0" y="0">Job Posted by</tspan></text>
    <text id="_7453_" data-name="7453+" transform="translate(386.735 678)" fill="#064c87" font-size="16" font-family="Poppins-Medium, Poppins" font-weight="500"><tspan x="0" y="0">7453+</tspan></text>
    <g id="Group_790" data-name="Group 790" transform="translate(334.735 644)">
      <rect id="Rectangle_204" data-name="Rectangle 204" width="40" height="40" rx="4" fill="#064c87"/>
      <g id="job_1_" data-name="job (1)" transform="translate(8 8)">
        <path id="Path_1920" data-name="Path 1920" d="M28.028,58.19H15.778a1.267,1.267,0,0,1-1.267-1.267V56.5H29.3v.422A1.267,1.267,0,0,1,28.028,58.19Z" transform="translate(-9.653 -33.901)" fill="#dbe7f6"/>
        <path id="Path_1921" data-name="Path 1921" d="M29.544,58.19h7.167a1.267,1.267,0,0,0,1.267-1.267V56.5H31.234Z" transform="translate(-18.336 -33.901)" fill="#b4cbea"/>
        <rect id="Rectangle_205" data-name="Rectangle 205" width="2.957" height="0.845" transform="translate(10.772 22.599)" fill="#b4cbea"/>
        <path id="Path_1922" data-name="Path 1922" d="M33.22,57.345V56.5h-.831l-.845.845Z" transform="translate(-19.491 -33.901)" fill="#79a1d5"/>
        <path id="Path_1923" data-name="Path 1923" d="M24.946,37.5H28.76a.845.845,0,0,1,.845.845v7.181H16.51V38.345a.845.845,0,0,1,.845-.845h3.813" transform="translate(-10.807 -22.927)" fill="#b4cbea"/>
        <path id="Path_1924" data-name="Path 1924" d="M31.717,37.5H29.654l-8.026,8.026H32.561V38.345A.845.845,0,0,0,31.717,37.5Z" transform="translate(-13.764 -22.927)" fill="#79a1d5"/>
        <path id="Path_1925" data-name="Path 1925" d="M25.894,39.5h4.022v6.336H18.511V39.5h4.121" transform="translate(-11.963 -24.082)" fill="#f4f8f8"/>
        <path id="Path_1926" data-name="Path 1926" d="M29.963,39.5l-6.336,6.336h9.244V39.5Z" transform="translate(-14.918 -24.082)" fill="#fff"/>
        <path id="Path_1927" data-name="Path 1927" d="M30.755,35.745a1.9,1.9,0,0,1-2.828-2.532,2.033,2.033,0,0,1,.14-.157,1.9,1.9,0,1,1,2.688,2.688Z" transform="translate(-17.161 -20.039)" fill="#f4f8f8"/>
        <path id="Path_1928" data-name="Path 1928" d="M31.512,33.814l0,0L28.821,36.5l0,0a1.9,1.9,0,0,0,2.688-2.688Z" transform="translate(-17.918 -20.796)" fill="#dbe7f6"/>
        <path id="Path_1929" data-name="Path 1929" d="M41.3,24.393,43.394,22.3a.422.422,0,0,0,0-.6L42.2,20.51a.422.422,0,0,0-.6,0L39.511,22.6a.422.422,0,0,0,0,.6l1.195,1.195A.422.422,0,0,0,41.3,24.393Z" transform="translate(-24.021 -13.042)" fill="#f4f8f8"/>
        <path id="Path_1930" data-name="Path 1930" d="M39.509,22.6,41.6,20.51a.421.421,0,0,1,.336-.122.318.318,0,0,1,.033.009l-.006.039-.343,1.519a.8.8,0,0,1-.6.6l-1.58.357-.051.011h0A.421.421,0,0,1,39.509,22.6Z" transform="translate(-24.02 -13.042)" fill="#dbe7f6"/>
        <path id="Path_1931" data-name="Path 1931" d="M42,20.5l-.343,1.519a.8.8,0,0,1-.6.6l-1.58.357-.051.011" transform="translate(-24.042 -13.109)" fill="#dbe7f6"/>
        <path id="Path_1932" data-name="Path 1932" d="M31.544,23.889V20.932a.423.423,0,0,0-.422-.422h-1.69a.422.422,0,0,0-.422.422v2.957a.423.423,0,0,0,.422.422h1.69A.422.422,0,0,0,31.544,23.889Z" transform="translate(-18.027 -13.114)" fill="#f4f8f8"/>
        <path id="Path_1933" data-name="Path 1933" d="M29.01,23.32v.786a.423.423,0,0,0,.422.422h1.69a.423.423,0,0,0,.422-.422V21.15a.415.415,0,0,0-.1-.264Z" transform="translate(-18.027 -13.331)" fill="#dbe7f6"/>
        <path id="Path_1934" data-name="Path 1934" d="M29.215,20.735l-.023-.032c-.009.007-.021.01-.03.017a.421.421,0,0,0-.151.324V24a.42.42,0,0,0,.142.316h0l.028-.044.865-1.369a.8.8,0,0,0,0-.852Z" transform="translate(-18.028 -13.225)" fill="#dbe7f6"/>
        <path id="Path_1935" data-name="Path 1935" d="M29.01,25.179v.786a.42.42,0,0,0,.142.316h0l.028-.044.865-1.369a.793.793,0,0,0,.04-.764Z" transform="translate(-18.027 -15.189)" fill="#b4cbea"/>
        <path id="Path_1936" data-name="Path 1936" d="M16.6,24.393,14.51,22.3a.422.422,0,0,1,0-.6L15.7,20.51a.422.422,0,0,1,.6,0L18.392,22.6a.422.422,0,0,1,0,.6L17.2,24.393A.422.422,0,0,1,16.6,24.393Z" transform="translate(-9.58 -13.042)" fill="#f4f8f8"/>
        <path id="Path_1937" data-name="Path 1937" d="M18.684,22.892l-1.792,1.792,1.156,1.156a.422.422,0,0,0,.6,0l1.195-1.195a.422.422,0,0,0,0-.6Z" transform="translate(-11.028 -14.489)" fill="#dbe7f6"/>
        <path id="Path_1938" data-name="Path 1938" d="M18.062,20.5l.343,1.519a.8.8,0,0,0,.6.6l1.58.357.051.011" transform="translate(-11.704 -13.109)" fill="#dbe7f6"/>
        <path id="Path_1939" data-name="Path 1939" d="M20.508,22.6,18.417,20.51a.421.421,0,0,0-.336-.122.318.318,0,0,0-.033.009l.006.039.343,1.519a.8.8,0,0,0,.6.6l1.58.357.051.011h0A.421.421,0,0,0,20.508,22.6Z" transform="translate(-11.696 -13.042)" fill="#dbe7f6"/>
        <path id="Path_1940" data-name="Path 1940" d="M20.029,22.892l-.808.809a.79.79,0,0,0,.456.3l1.58.357.051.011h0a.422.422,0,0,0-.123-.324Z" transform="translate(-12.373 -14.489)" fill="#b4cbea"/>
        <path id="Path_1941" data-name="Path 1941" d="M40.667,22.892l1.792,1.792L41.3,25.84a.422.422,0,0,1-.6,0l-1.195-1.195a.422.422,0,0,1,0-.6Z" transform="translate(-24.021 -14.489)" fill="#dbe7f6"/>
        <path id="Path_1942" data-name="Path 1942" d="M19.945,14l.809.808a.79.79,0,0,1-.456.3l-1.58.357-.051.011h0a.422.422,0,0,1,.123-.324ZM7.477,11.466A2.323,2.323,0,0,1,4.02,8.372a2.353,2.353,0,0,1,.171-.191,2.323,2.323,0,1,1,3.286,3.286Z" transform="translate(-3.299 -5.599)" fill="#b4cbea"/>
        <path id="Path_1943" data-name="Path 1943" d="M8.4,9.107l0,0L5.115,12.389l0,0A2.323,2.323,0,0,0,8.4,9.107Z" transform="translate(-4.226 -6.526)" fill="#79a1d5"/>
        <path id="Path_1944" data-name="Path 1944" d="M8.432,10.942A.845.845,0,0,1,7.175,9.816a.878.878,0,0,1,.063-.07.845.845,0,1,1,1.195,1.2Z" transform="translate(-5.309 -6.754)" fill="#dbe7f6"/>
        <path id="Path_1945" data-name="Path 1945" d="M8.777,10.094,7.583,11.288a.844.844,0,0,0,1.194-1.194Z" transform="translate(-5.651 -7.097)" fill="#b4cbea"/>
        <path id="Path_1946" data-name="Path 1946" d="M8.291,14.821a1.459,1.459,0,0,0-.7-1.984.835.835,0,0,1-1.248,0,1.475,1.475,0,0,0-.855,1.336,1.491,1.491,0,0,0,.009.163,1.468,1.468,0,0,0,.129.45,2.9,2.9,0,0,0,1.349.442A2.4,2.4,0,0,0,8.291,14.821Z" transform="translate(-4.442 -8.682)" fill="#dbe7f6"/>
        <path id="Path_1947" data-name="Path 1947" d="M8.253,7.554,6.3,9.509a2.559,2.559,0,0,0,1.146.327,2.392,2.392,0,0,0,1.314-.408,1.454,1.454,0,0,0-.505-1.874Zm10.541-.088a2.323,2.323,0,0,1-3.457-3.094,2.353,2.353,0,0,1,.172-.191,2.323,2.323,0,1,1,3.286,3.286Z" transform="translate(-4.909 -3.289)" fill="#b4cbea"/>
        <path id="Path_1948" data-name="Path 1948" d="M31.382,5.107l0,0L28.094,8.389l0,0a2.323,2.323,0,0,0,3.286-3.286Z" transform="translate(-17.498 -4.215)" fill="#79a1d5"/>
        <path id="Path_1949" data-name="Path 1949" d="M31.411,6.942a.845.845,0,0,1-1.257-1.125.878.878,0,0,1,.063-.07.845.845,0,1,1,1.195,1.2Z" transform="translate(-18.581 -4.444)" fill="#dbe7f6"/>
        <path id="Path_1950" data-name="Path 1950" d="M31.757,6.094,30.563,7.288a.844.844,0,0,0,1.194-1.194Z" transform="translate(-18.924 -4.787)" fill="#b4cbea"/>
        <path id="Path_1951" data-name="Path 1951" d="M31.27,10.821a1.459,1.459,0,0,0-.7-1.984.835.835,0,0,1-1.248,0,1.475,1.475,0,0,0-.855,1.336,1.491,1.491,0,0,0,.009.163,1.468,1.468,0,0,0,.129.45,2.9,2.9,0,0,0,1.349.442A2.4,2.4,0,0,0,31.27,10.821Z" transform="translate(-17.715 -6.371)" fill="#dbe7f6"/>
        <path id="Path_1952" data-name="Path 1952" d="M31.232,8.175,29.277,10.13a2.559,2.559,0,0,0,1.146.327,2.392,2.392,0,0,0,1.314-.408,1.455,1.455,0,0,0-.506-1.874Zm10.55,3.291a2.323,2.323,0,0,1-3.457-3.094,2.354,2.354,0,0,1,.171-.191,2.323,2.323,0,1,1,3.286,3.286Z" transform="translate(-18.181 -5.599)" fill="#b4cbea"/>
        <path id="Path_1953" data-name="Path 1953" d="M54.382,9.107l0,0-3.285,3.285,0,0a2.323,2.323,0,0,0,3.286-3.286Z" transform="translate(-30.783 -6.526)" fill="#79a1d5"/>
        <path id="Path_1954" data-name="Path 1954" d="M54.411,10.942a.845.845,0,0,1-1.257-1.125.879.879,0,0,1,.063-.07.845.845,0,0,1,1.195,1.2Z" transform="translate(-31.866 -6.754)" fill="#dbe7f6"/>
        <path id="Path_1955" data-name="Path 1955" d="M54.757,10.094l-1.194,1.194a.844.844,0,0,0,1.194-1.194Z" transform="translate(-32.209 -7.097)" fill="#b4cbea"/>
        <path id="Path_1956" data-name="Path 1956" d="M54.27,14.821a1.459,1.459,0,0,0-.7-1.984.835.835,0,0,1-1.248,0,1.458,1.458,0,0,0-.716,1.95,2.9,2.9,0,0,0,1.349.442A2.4,2.4,0,0,0,54.27,14.821Z" transform="translate(-30.999 -8.682)" fill="#dbe7f6"/>
        <path id="Path_1957" data-name="Path 1957" d="M54.232,13.1l-1.955,1.955a2.559,2.559,0,0,0,1.146.327,2.392,2.392,0,0,0,1.314-.408,1.455,1.455,0,0,0-.506-1.874Z" transform="translate(-31.466 -8.832)" fill="#b4cbea"/>
        <path id="Path_1958" data-name="Path 1958" d="M31,42.345,30.99,41.5h.845l.009.845Z" transform="translate(-19.171 -25.237)" fill="#dbe7f6"/>
        <line id="Line_197" data-name="Line 197" x1="0.008" y1="0.792" transform="translate(11.819 16.263)" fill="#dbe7f6"/>
        <line id="Line_198" data-name="Line 198" x2="0.008" y2="0.792" transform="translate(12.664 16.263)" fill="#dbe7f6"/>
        <path id="Path_1959" data-name="Path 1959" d="M31.144,46.457h0a.634.634,0,0,1-.634-.634V43.5h1.267v2.323A.634.634,0,0,1,31.144,46.457Z" transform="translate(-18.894 -26.392)" fill="#dbe7f6"/>
        <path id="Path_1960" data-name="Path 1960" d="M31.144,47.1a.634.634,0,0,0,.634-.634V44.617L30.51,45.884v.584A.634.634,0,0,0,31.144,47.1Z" transform="translate(-18.894 -27.037)" fill="#b4cbea"/>
        <line id="Line_199" data-name="Line 199" x1="0.896" y2="0.896" transform="translate(20.29 7.462)" fill="#dbe7f6"/>
        <line id="Line_200" data-name="Line 200" x1="0.597" y2="0.597" transform="translate(19.693 7.163)" fill="#dbe7f6"/>
        <path id="Path_1961" data-name="Path 1961" d="M16.611,24.439a.63.63,0,0,1-.448-.185l-2.091-2.091a.635.635,0,0,1,0-.9l1.2-1.2a.634.634,0,0,1,.9,0l2.091,2.091a.633.633,0,0,1,0,.9l-1.195,1.195A.63.63,0,0,1,16.611,24.439Zm-.9-4.13H15.7a.208.208,0,0,0-.131.061l-1.195,1.195a.211.211,0,0,0,0,.3l2.091,2.091h0a.216.216,0,0,0,.3,0l1.195-1.195a.211.211,0,0,0,.062-.137.208.208,0,0,0-.062-.162L15.864,20.37A.209.209,0,0,0,15.715,20.309Z" transform="translate(-9.292 -12.753)" fill="#437abe"/>
        <path id="Path_1962" data-name="Path 1962" d="M19.454,22.916a.221.221,0,0,1-.047-.005l-1.631-.368a1.014,1.014,0,0,1-.762-.762l-.343-1.519a.211.211,0,1,1,.412-.093l.343,1.519a.588.588,0,0,0,.443.443L19.5,22.5a.211.211,0,0,1-.046.417ZM29.528,35.632H16.011V28.239a1.058,1.058,0,0,1,1.056-1.056H20.88v.422H17.067a.634.634,0,0,0-.634.634v6.97H29.106v-6.97a.634.634,0,0,0-.634-.634H24.659v-.422h3.814a1.058,1.058,0,0,1,1.056,1.056Z" transform="translate(-10.519 -12.821)" fill="#fff"/>
        <path id="Path_1963" data-name="Path 1963" d="M27.317,45.759H15.912a.211.211,0,0,1-.211-.211V39.211A.211.211,0,0,1,15.912,39h4.122a.211.211,0,0,1,0,.422H16.123v5.914H27.106V39.422H23.3a.211.211,0,1,1,0-.422h4.022a.211.211,0,0,1,.211.211v6.336A.211.211,0,0,1,27.317,45.759Zm.422,2.534H15.489a1.48,1.48,0,0,1-1.478-1.478v-.422a.211.211,0,0,1,.211-.211H29.007a.211.211,0,0,1,.211.211v.422A1.48,1.48,0,0,1,27.739,48.293ZM14.433,46.6v.211a1.058,1.058,0,0,0,1.056,1.056h12.25A1.058,1.058,0,0,0,28.8,46.815V46.6Z" transform="translate(-9.364 -23.793)" fill="#437abe"/>
        <path id="Path_1964" data-name="Path 1964" d="M30.6,43.405H27.644a.211.211,0,0,1-.211-.211v-.845a.211.211,0,0,1,.211-.211H30.6a.211.211,0,0,1,.211.211v.845A.211.211,0,0,1,30.6,43.405Zm-2.746-.422H30.39V42.56H27.855v.422Zm1.267-6.759a2.112,2.112,0,1,1,2.112-2.112A2.108,2.108,0,0,1,29.122,36.224Zm0-3.8a1.69,1.69,0,1,0,1.69,1.69A1.691,1.691,0,0,0,29.122,32.422Z" transform="translate(-16.872 -19.75)" fill="#437abe"/>
        <path id="Path_1965" data-name="Path 1965" d="M27.495,17.69a.212.212,0,0,1-.21-.189,1.268,1.268,0,0,1,1.26-1.407.211.211,0,1,1,0,.422.846.846,0,0,0-.845.845.874.874,0,0,0,.005.094.211.211,0,0,1-.188.232Zm1.05-9.621a2.53,2.53,0,0,1-2.519-2.254,2.535,2.535,0,1,1,2.519,2.254Zm0-4.647a2.112,2.112,0,1,0,2.112,2.112A2.114,2.114,0,0,0,28.544,3.422Z" transform="translate(-16.294 -3)" fill="#437abe"/>
        <path id="Path_1966" data-name="Path 1966" d="M30.546,7.112a1.054,1.054,0,0,1-1.05-.939,1.073,1.073,0,0,1-.006-.117,1.056,1.056,0,1,1,1.056,1.056Zm0-1.69a.634.634,0,0,0-.634.634.654.654,0,0,0,0,.071.634.634,0,1,0,.63-.7Zm-.414,16a.211.211,0,0,1-.211-.209l-.009-.792a.211.211,0,0,1,.209-.213.216.216,0,0,1,.213.209l.009.792a.211.211,0,0,1-.209.213Zm.845,0a.211.211,0,0,1-.211-.209l-.009-.792a.211.211,0,0,1,.209-.213.216.216,0,0,1,.213.209l.009.792a.211.211,0,0,1-.209.213Z" transform="translate(-18.304 -4.155)" fill="#437abe"/>
        <path id="Path_1967" data-name="Path 1967" d="M19.252,32.782a.846.846,0,0,1-.845-.845V29.614a.211.211,0,0,1,.211-.211h1.267a.211.211,0,0,1,.211.211v2.323A.846.846,0,0,1,19.252,32.782Zm-.422-2.957v2.112a.422.422,0,0,0,.845,0V29.825Zm-7.8-8.75a.212.212,0,0,1-.15-.062l-.9-.9a.211.211,0,1,1,.3-.3l.9.9a.211.211,0,0,1-.149.36Zm.6-.6a.212.212,0,0,1-.15-.062l-.6-.6a.211.211,0,0,1,.3-.3l.6.6a.211.211,0,0,1-.149.36ZM24,24.191a.633.633,0,0,1-.448-.185l-1.2-1.195a.633.633,0,0,1,0-.9l2.091-2.091a.628.628,0,0,1,.5-.183.634.634,0,0,1,.392.183l1.2,1.2a.634.634,0,0,1,0,.9l-2.091,2.091A.633.633,0,0,1,24,24.191Zm.9-4.13a.212.212,0,0,0-.15.062l-2.091,2.091a.211.211,0,0,0,0,.3l1.195,1.195a.212.212,0,0,0,.3,0l2.091-2.091a.209.209,0,0,0,.062-.15.212.212,0,0,0-.062-.15l-1.195-1.2a.208.208,0,0,0-.131-.061Z" transform="translate(-7.002 -12.506)" fill="#437abe"/>
        <path id="Path_1968" data-name="Path 1968" d="M33.12,22.6a.211.211,0,0,1-.046-.417l1.631-.368a.588.588,0,0,0,.443-.443l.343-1.519a.211.211,0,1,1,.412.093l-.343,1.519a1.014,1.014,0,0,1-.762.762l-1.631.368A.217.217,0,0,1,33.12,22.6Zm4.908-1.525a.211.211,0,0,1-.15-.36l.9-.9a.211.211,0,1,1,.3.3l-.9.9A.21.21,0,0,1,38.028,21.075Zm-.6-.6a.211.211,0,0,1-.15-.36l.6-.6a.211.211,0,0,1,.3.3l-.6.6A.21.21,0,0,1,37.431,20.477Zm-6.6,3.438h-1.69a.634.634,0,0,1-.634-.634V20.325a.634.634,0,0,1,.634-.634h1.69a.634.634,0,0,1,.634.634v2.957A.634.634,0,0,1,30.833,23.915Zm-1.69-3.8a.208.208,0,0,0-.136.049.211.211,0,0,0-.076.162v2.957A.214.214,0,0,0,29,23.44a.21.21,0,0,0,.14.053h1.69a.211.211,0,0,0,.211-.211V20.325a.211.211,0,0,0-.211-.211Z" transform="translate(-17.738 -12.506)" fill="#437abe"/>
        <path id="Path_1969" data-name="Path 1969" d="M14.136,14.3a.211.211,0,0,1-.178-.324l.893-1.414a.59.59,0,0,0,0-.626l-.832-1.316a.211.211,0,0,1,.357-.226l.832,1.316a1.014,1.014,0,0,1,0,1.078L14.314,14.2A.212.212,0,0,1,14.136,14.3Zm2.392-4.549a.211.211,0,0,1-.211-.211V8.7a.211.211,0,1,1,.422,0v.845A.211.211,0,0,1,16.527,9.754Zm-2.534,0a.211.211,0,0,1-.211-.211V8.7a.211.211,0,1,1,.422,0v.845A.211.211,0,0,1,13.993,9.754Zm.845,0a.211.211,0,0,1-.211-.211V9.121a.211.211,0,1,1,.422,0v.422A.211.211,0,0,1,14.838,9.754Zm.845,0a.211.211,0,0,1-.211-.211V9.121a.211.211,0,1,1,.422,0v.422A.211.211,0,0,1,15.682,9.754Zm.892-2.093a.211.211,0,0,1-.19-.3,1.256,1.256,0,0,0,.134-.555,1.271,1.271,0,0,0-.609-1.078,1.075,1.075,0,0,1-1.316,0,1.261,1.261,0,0,0-.6,1.218,1.236,1.236,0,0,0,.112.386.211.211,0,0,1-.315.26,2.532,2.532,0,0,1-1.047-1.773,2.363,2.363,0,0,1-.016-.28,2.534,2.534,0,1,1,3.969,2.089A.214.214,0,0,1,16.575,7.661Zm-.7-2.406a.216.216,0,0,1,.09.02A1.7,1.7,0,0,1,16.941,6.8v.01a2.112,2.112,0,1,0-3.793-1.277,2.13,2.13,0,0,0,.013.234,2.077,2.077,0,0,0,.4,1.012,1.7,1.7,0,0,1,.976-1.505.211.211,0,0,1,.246.049.638.638,0,0,0,.935,0A.213.213,0,0,1,15.875,5.254ZM5.544,9.759A2.53,2.53,0,0,1,3.025,7.5,2.535,2.535,0,1,1,5.544,9.759Zm0-4.647A2.112,2.112,0,1,0,7.657,7.224,2.114,2.114,0,0,0,5.544,5.112Z" transform="translate(-3.01 -3)" fill="#437abe"/>
        <path id="Path_1970" data-name="Path 1970" d="M7.546,11.112a1.054,1.054,0,0,1-1.05-.939,1.072,1.072,0,0,1-.006-.117,1.056,1.056,0,1,1,1.056,1.056Zm0-1.69a.634.634,0,0,0-.634.634.654.654,0,0,0,0,.071.634.634,0,1,0,.63-.7Z" transform="translate(-5.02 -6.466)" fill="#437abe"/>
        <path id="Path_1971" data-name="Path 1971" d="M6.859,11.661a.211.211,0,0,1-.19-.3A1.256,1.256,0,0,0,6.8,10.8a1.271,1.271,0,0,0-.609-1.078,1.075,1.075,0,0,1-1.316,0,1.261,1.261,0,0,0-.6,1.218,1.236,1.236,0,0,0,.112.386.211.211,0,0,1-.315.26A2.532,2.532,0,0,1,3.026,9.815a2.363,2.363,0,0,1-.016-.28,2.534,2.534,0,1,1,3.969,2.089A.214.214,0,0,1,6.859,11.661Zm-.7-2.406a.216.216,0,0,1,.09.02A1.7,1.7,0,0,1,7.226,10.8v.01a2.111,2.111,0,1,0-3.78-1.044,2.077,2.077,0,0,0,.4,1.012,1.7,1.7,0,0,1,.976-1.505.212.212,0,0,1,.246.049.638.638,0,0,0,.935,0A.212.212,0,0,1,6.16,9.254Z" transform="translate(-3.01 -5.31)" fill="#437abe"/>
        <g id="Group_786" data-name="Group 786" transform="translate(19.423 1.69)">
          <path id="Path_1972" data-name="Path 1972" d="M51.524,12.069a2.53,2.53,0,0,1-2.519-2.254,2.535,2.535,0,1,1,2.519,2.254Zm0-4.647a2.112,2.112,0,1,0,2.112,2.112A2.114,2.114,0,0,0,51.524,7.422Z" transform="translate(-48.99 -7)" fill="#437abe"/>
          <path id="Path_1973" data-name="Path 1973" d="M53.525,11.112a1.056,1.056,0,1,1,1.056-1.056A1.054,1.054,0,0,1,53.525,11.112Zm0-1.69a.634.634,0,1,0,.634.634A.634.634,0,0,0,53.525,9.422Z" transform="translate(-50.999 -8.155)" fill="#437abe"/>
          <path id="Path_1974" data-name="Path 1974" d="M52.839,11.661a.211.211,0,0,1-.19-.3,1.253,1.253,0,0,0,.134-.555,1.271,1.271,0,0,0-.609-1.078,1.075,1.075,0,0,1-1.315,0,1.27,1.27,0,0,0-.61,1.078,1.283,1.283,0,0,0,.008.141,1.243,1.243,0,0,0,.112.385.211.211,0,0,1-.315.26,2.535,2.535,0,0,1-1.047-1.773,2.363,2.363,0,0,1-.016-.28,2.534,2.534,0,1,1,3.968,2.089A.214.214,0,0,1,52.839,11.661Zm-.7-2.406a.209.209,0,0,1,.09.02,1.7,1.7,0,0,1,.976,1.527v.011a2.112,2.112,0,1,0-3.793-1.278,2.13,2.13,0,0,0,.013.234,2.081,2.081,0,0,0,.4,1.012A1.7,1.7,0,0,1,50.8,9.274a.211.211,0,0,1,.246.049.638.638,0,0,0,.935,0A.213.213,0,0,1,52.14,9.254Z" transform="translate(-48.99 -7)" fill="#437abe"/>
        </g>
      </g>
    </g>
    <g id="Group_797" data-name="Group 797" transform="translate(548.5 620)">
      <rect id="Rectangle_201-3" data-name="Rectangle 201" width="184" height="88" rx="4" transform="translate(-0.5)" fill="#e4ecf2"/>
      <text id="Experts" transform="translate(68 37)" fill="#707070" font-size="12" font-family="Poppins-Regular, Poppins"><tspan x="0" y="0">Experts</tspan></text>
      <text id="_6345_Users-2" data-name="6345+ Users" transform="translate(68 58)" fill="#064c87" font-size="16" font-family="Poppins-Medium, Poppins" font-weight="500"><tspan x="0" y="0">6345+ Users</tspan></text>
      <g id="Group_791" data-name="Group 791" transform="translate(23 24)">
        <rect id="Rectangle_207" data-name="Rectangle 207" width="40" height="40" rx="4" fill="#064c87"/>
        <g id="team" transform="translate(8 9)">
          <path id="Path_1975" data-name="Path 1975" d="M43.1,17.118c3.079,1.3,5.045,3.932,5.045,6.826a6.852,6.852,0,0,1-.482,2.449,4.284,4.284,0,0,0,2.6-3.71c0-1.892-1.484-3.524-3.747-4.118l-.594-.148.482-.371a2.745,2.745,0,0,0,1.15-2.263A2.8,2.8,0,0,0,44.769,13a3.267,3.267,0,0,0-.631.074,4.731,4.731,0,0,1,.037.742A4.794,4.794,0,0,1,43.1,17.118Z" transform="translate(-27.11 -9.03)" fill="#fff"/>
          <path id="Path_1976" data-name="Path 1976" d="M52.552,21.839a5,5,0,0,0-3.636-4.526A3.358,3.358,0,0,0,46.542,11.6a4.567,4.567,0,0,0-.742.074l.111.556a3.267,3.267,0,0,1,.631-.074,2.8,2.8,0,0,1,2.782,2.782,2.846,2.846,0,0,1-1.15,2.263l-.482.371.594.148c2.226.594,3.747,2.263,3.747,4.118a4.284,4.284,0,0,1-2.6,3.71,7.414,7.414,0,0,1-.371.779A5,5,0,0,0,52.552,21.839Z" transform="translate(-28.809 -8.15)" fill="#ffa7a7"/>
          <path id="Path_1977" data-name="Path 1977" d="M4.171,15.757a2.846,2.846,0,0,0,1.15,2.263l.482.371-.556.111C3.021,19.1,1.5,20.765,1.5,22.62a4.154,4.154,0,0,0,2.337,3.562,6.235,6.235,0,0,1-.445-2.337c0-2.894,1.966-5.528,5.045-6.826a5.331,5.331,0,0,1-1.15-3.3,5.535,5.535,0,0,1,.074-.779,1.806,1.806,0,0,0-.445-.037A2.887,2.887,0,0,0,4.171,15.757Z" transform="translate(-0.944 -8.968)" fill="#fff"/>
          <path id="Path_1978" data-name="Path 1978" d="M2.931,25.4A4.154,4.154,0,0,1,.594,21.839c0-1.892,1.484-3.524,3.747-4.118l.594-.148L4.452,17.2A2.745,2.745,0,0,1,3.3,14.939a2.8,2.8,0,0,1,2.782-2.782,1.806,1.806,0,0,1,.445.037l.111-.556a2.808,2.808,0,0,0-.556-.037,3.381,3.381,0,0,0-3.376,3.339,3.5,3.5,0,0,0,.965,2.374A4.951,4.951,0,0,0,0,21.839a4.888,4.888,0,0,0,3.3,4.378A5.462,5.462,0,0,1,2.931,25.4Z" transform="translate(0 -8.15)" fill="#ffa7a7"/>
          <path id="Path_1979" data-name="Path 1979" d="M21.3,17.2c-.037.111-.111.185-.148.3A2.187,2.187,0,0,1,21.3,17.2Zm4.266,7.123a.223.223,0,0,0,.037.148A.223.223,0,0,1,25.562,24.326Zm-4.118-7.568a2.556,2.556,0,0,1-.111.3A2.556,2.556,0,0,0,21.444,16.758Zm.148-.445c-.037.111-.037.223-.074.334C21.556,16.536,21.556,16.424,21.593,16.313Zm4.044,8.5c0,.185.037.334.037.519A2.282,2.282,0,0,1,25.637,24.809Zm-3.9-9.609a2.115,2.115,0,0,1-.037.482C21.7,15.534,21.741,15.385,21.741,15.2Zm-.074.631c0,.111-.037.223-.037.334C21.63,16.053,21.667,15.942,21.667,15.831Zm.408,3.784c.074.037.111.074.185.111A.811.811,0,0,0,22.075,19.615Zm1.039.7.037.037C23.114,20.357,23.114,20.357,23.114,20.32Zm-.482-.371c.037.037.074.037.111.074C22.669,20.023,22.669,19.986,22.632,19.949Zm-1.558-2.3a1.127,1.127,0,0,1-.185.26C20.962,17.834,21,17.723,21.073,17.649Zm4.378,6.158Zm-3.932-4.489.223.111A.6.6,0,0,0,21.519,19.318Zm-.742-1.261a.665.665,0,0,0-.185.26C20.665,18.205,20.739,18.131,20.777,18.057Zm.185,1c.111.037.185.074.3.111A2.557,2.557,0,0,1,20.962,19.058ZM8.274,24.475a.223.223,0,0,1,.037-.148C8.311,24.363,8.274,24.438,8.274,24.475Zm2.449-4.118.037-.037A.036.036,0,0,1,10.723,20.357Zm-2.3,3.487ZM8.2,25.328a2.449,2.449,0,0,1,.037-.519C8.237,24.994,8.2,25.18,8.2,25.328Zm2.931-5.305c.037-.037.074-.037.111-.074C11.205,19.986,11.168,20.023,11.131,20.023Zm1.855-2.115c-.074-.074-.111-.185-.185-.26A1.127,1.127,0,0,0,12.986,17.908Zm-.631-1.261a1.083,1.083,0,0,1-.074-.334A1.083,1.083,0,0,0,12.355,16.647Zm-.111-.482a1.027,1.027,0,0,1-.037-.334A1.027,1.027,0,0,0,12.244,16.165Zm-.631,3.562c.074-.037.111-.074.185-.111A.811.811,0,0,0,11.613,19.726Zm.556-4.044c0-.148-.037-.334-.037-.482A1.96,1.96,0,0,0,12.17,15.682Zm.334,1.41c-.037-.111-.074-.185-.111-.3A2.556,2.556,0,0,1,12.5,17.092Zm.111,2.078c.111-.037.185-.074.3-.111C12.8,19.1,12.726,19.132,12.615,19.17Zm-.519.26.223-.111Zm.631-1.929c-.037-.111-.111-.185-.148-.3A.746.746,0,0,0,12.726,17.5Zm.519.779a.665.665,0,0,1-.185-.26C13.134,18.131,13.208,18.205,13.245,18.279Z" transform="translate(-5.158 -10.414)" fill="#ffd76c"/>
          <path id="Path_1980" data-name="Path 1980" d="M25.961,18.22c0-2.82-2.263-5.305-5.6-6.2l-.594-.148.482-.371A4.2,4.2,0,0,0,17.8,3.9a4.224,4.224,0,0,0-2.486,7.642l.482.371-.594.148c-3.339.89-5.6,3.376-5.6,6.2,0,3.6,3.636,6.529,8.162,6.529C22.288,24.75,25.961,21.819,25.961,18.22Z" transform="translate(-6.038 -3.306)" fill="#fff"/>
          <path id="Path_1981" data-name="Path 1981" d="M25.637,17.214a2.449,2.449,0,0,0-.037-.519c0-.111-.037-.223-.037-.334a.223.223,0,0,0-.037-.148l-.111-.445V15.73a6.716,6.716,0,0,0-2.3-3.45l-.037-.037c-.111-.111-.26-.185-.371-.3-.037-.037-.074-.037-.111-.074a3.263,3.263,0,0,0-.371-.223.811.811,0,0,0-.185-.111c-.111-.074-.223-.111-.334-.185l-.223-.111c-.111-.037-.185-.111-.3-.148s-.185-.074-.3-.111c-.074-.037-.185-.074-.26-.111-.185-.074-.334-.111-.519-.185l.334-.334.111-.111a.665.665,0,0,0,.185-.26.512.512,0,0,0,.111-.148c.074-.074.111-.185.185-.26.037-.037.037-.074.074-.148.037-.111.111-.185.148-.3.037-.037.037-.074.074-.148.037-.111.074-.185.111-.3,0-.037.037-.111.037-.148a1.083,1.083,0,0,0,.074-.334c0-.037.037-.111.037-.148a1.027,1.027,0,0,0,.037-.334.28.28,0,0,1,.037-.148c0-.148.037-.334.037-.482a4.786,4.786,0,1,0-9.572,0,2.115,2.115,0,0,0,.037.482.28.28,0,0,0,.037.148c0,.111.037.223.037.334,0,.037.037.111.037.148.037.111.037.223.074.334,0,.037.037.111.037.148a2.556,2.556,0,0,0,.111.3c.037.037.037.111.074.148.037.111.111.185.148.3.037.037.037.111.074.148a1.127,1.127,0,0,0,.185.26c.037.037.074.111.111.148a1.571,1.571,0,0,1,.185.26l.111.111.334.334c-.185.074-.334.111-.519.185a1.809,1.809,0,0,0-.26.111c-.111.037-.185.074-.3.111s-.185.111-.3.148l-.223.111c-.111.074-.223.111-.334.185-.074.037-.111.074-.185.111a3.262,3.262,0,0,1-.371.223c-.037.037-.074.037-.111.074a3.244,3.244,0,0,0-.371.3l-.037.037a6.868,6.868,0,0,0-2.3,3.45v.037l-.111.445a.223.223,0,0,1-.037.148c0,.111-.037.223-.037.334,0,.185-.037.334-.037.519,0,3.9,3.9,7.086,8.718,7.086C21.741,24.337,25.637,21.146,25.637,17.214Zm-16.843,0c0-2.82,2.263-5.305,5.6-6.2l.594-.148-.482-.371a4.168,4.168,0,0,1-1.744-3.413A4.192,4.192,0,1,1,19.4,10.5l-.482.371.594.148c3.339.89,5.6,3.376,5.6,6.2,0,3.6-3.636,6.529-8.162,6.529S8.794,20.812,8.794,17.214Z" transform="translate(-5.158 -2.3)" fill="#ffa7a7"/>
        </g>
      </g>
    </g>
    <g id="Group_795" data-name="Group 795" transform="translate(777.265 620)">
      <rect id="Rectangle_201-4" data-name="Rectangle 201" width="184" height="88" rx="4" transform="translate(-0.265)" fill="#e4ecf2"/>
      <text id="Queries_Solved" data-name="Queries Solved" transform="translate(68 37)" fill="#707070" font-size="12" font-family="Poppins-Regular, Poppins"><tspan x="0" y="0">Queries Solved</tspan></text>
      <text id="_3495_" data-name="3495+" transform="translate(68 58)" fill="#064c87" font-size="16" font-family="Poppins-Medium, Poppins" font-weight="500"><tspan x="0" y="0">3495+</tspan></text>
      <g id="Group_793" data-name="Group 793" transform="translate(16 24)">
        <rect id="Rectangle_208" data-name="Rectangle 208" width="40" height="40" rx="4" fill="#064c87"/>
        <g id="customer" transform="translate(8 9)">
          <path id="Path_1889" data-name="Path 1889" d="M22.625,15h-2.25a.375.375,0,0,1,0-.75h2.25a.375.375,0,0,1,0,.75Zm-.75,1.5h-1.5a.375.375,0,1,1,0-.75h1.5a.375.375,0,1,1,0,.75Zm-15-12.75h-4.5A.354.354,0,0,1,2,3.375.354.354,0,0,1,2.375,3h4.5a.354.354,0,0,1,.375.375A.354.354,0,0,1,6.875,3.75Zm-1.5,1.5h-3a.375.375,0,0,1,0-.75h3a.375.375,0,0,1,0,.75ZM11.75,18.975H11.6c-.225-.075-2.4-1.125-2.4-2.55V14.85a.375.375,0,0,1,.75,0v1.575c0,.75,1.2,1.5,1.8,1.8.6-.3,1.8-1.05,1.8-1.8V14.85a.375.375,0,0,1,.75,0v1.575c0,1.425-2.175,2.4-2.4,2.55C11.825,18.9,11.825,18.975,11.75,18.975Z" transform="translate(-0.5 -1.5)" fill="#fff"/>
          <path id="Path_1890" data-name="Path 1890" d="M12.25,17.85a4.513,4.513,0,0,1-4.5-4.5V11.775a.375.375,0,1,1,.75,0V13.35a3.75,3.75,0,1,0,7.5,0V11.775a.375.375,0,0,1,.75,0V13.35A4.513,4.513,0,0,1,12.25,17.85Zm7.875,8.25H4.375A.354.354,0,0,1,4,25.725V22.95a3.635,3.635,0,0,1,2.4-3.375l3.525-1.2a.364.364,0,0,1,.45.225c.075.15-.075.375-.225.45l-3.525,1.2a2.918,2.918,0,0,0-1.875,2.7v2.4h15v-2.4a2.748,2.748,0,0,0-1.875-2.625l-3.525-1.2a.356.356,0,1,1,.225-.675l3.525,1.2a3.492,3.492,0,0,1,2.4,3.375V25.8A.343.343,0,0,1,20.125,26.1Z" transform="translate(-1 -3.6)" fill="#fff"/>
          <path id="Path_1891" data-name="Path 1891" d="M20.125,26h-3.75A.354.354,0,0,1,16,25.625v-.6A4.142,4.142,0,0,1,19.675,20.9a.573.573,0,0,1,.375.15,3.85,3.85,0,0,1,.525,1.8v2.775a.475.475,0,0,1-.45.375Zm-3.375-.75h3v-2.4a2.375,2.375,0,0,0-.3-1.2,3.457,3.457,0,0,0-2.775,3.375v.225ZM8.125,26H4.375A.354.354,0,0,1,4,25.625V22.85a3.147,3.147,0,0,1,.525-1.8A.274.274,0,0,1,4.9,20.9a4.142,4.142,0,0,1,3.675,4.125v.6a.475.475,0,0,1-.45.375ZM4.75,25.25h3v-.225A3.52,3.52,0,0,0,4.975,21.65a3.4,3.4,0,0,0-.225,1.2Zm7.5-4.275H12.1c-.225-.075-2.4-1.125-2.4-2.55V16.85a.375.375,0,1,1,.75,0v1.575c0,.75,1.2,1.5,1.8,1.8.6-.3,1.8-1.05,1.8-1.8V16.85a.375.375,0,0,1,.75,0v1.575c0,1.425-2.175,2.4-2.4,2.55C12.325,20.9,12.325,20.975,12.25,20.975ZM8.125,14h-.75A1.153,1.153,0,0,1,6.25,12.875v-.75A1.153,1.153,0,0,1,7.375,11H7.75a.375.375,0,0,1,0,.75H7.375A.354.354,0,0,0,7,12.125v.75a.354.354,0,0,0,.375.375H7.75V12.5a.375.375,0,1,1,.75,0v1.125A.354.354,0,0,1,8.125,14Zm9,0h-.75A.354.354,0,0,1,16,13.625V12.5a.375.375,0,0,1,.75,0v.75h.375a.354.354,0,0,0,.375-.375v-.75a.354.354,0,0,0-.375-.375h-.75a.375.375,0,0,1,0-.75h.75a1.153,1.153,0,0,1,1.125,1.125v.75A1.153,1.153,0,0,1,17.125,14Z" transform="translate(-1 -3.5)" fill="#fff"/>
          <path id="Path_1892" data-name="Path 1892" d="M9.125,11h-.75a.375.375,0,0,1,0-.75h.75A1.153,1.153,0,0,0,10.25,9.125v-.75a.375.375,0,0,1,.75,0v.75A1.857,1.857,0,0,1,9.125,11Z" transform="translate(-2 -2.75)" fill="#fff"/>
          <path id="Path_1893" data-name="Path 1893" d="M15.375,9.25h-5.25A1.857,1.857,0,0,1,8.25,7.375v-.75a.375.375,0,0,1,.75,0v.75A1.153,1.153,0,0,0,10.125,8.5h5.25a.375.375,0,0,1,0,.75Zm4.5.75h-.15a.412.412,0,0,1-.225-.375V8.5h-.375A1.153,1.153,0,0,1,18,7.375V2.125A1.153,1.153,0,0,1,19.125,1h3A1.153,1.153,0,0,1,23.25,2.125v5.25A1.153,1.153,0,0,1,22.125,8.5h-.6L20.1,9.925a.755.755,0,0,1-.225.075Zm-.75-8.25a.354.354,0,0,0-.375.375v5.25a.354.354,0,0,0,.375.375h.75a.354.354,0,0,1,.375.375v.6l.825-.825c.075-.075.15-.075.3-.075h.75A.354.354,0,0,0,22.5,7.45V2.2c0-.3-.15-.45-.375-.45h-3Zm-12.75,6a.276.276,0,0,1-.225-.075L3.975,6.25H1.125A1.153,1.153,0,0,1,0,5.125v-3A1.153,1.153,0,0,1,1.125,1h6A1.153,1.153,0,0,1,8.25,2.125v3A1.153,1.153,0,0,1,7.125,6.25H6.75V7.375c0,.15-.075.3-.225.3C6.525,7.75,6.45,7.75,6.375,7.75Zm-5.25-6a.354.354,0,0,0-.375.375v3a.354.354,0,0,0,.375.375h3a.276.276,0,0,1,.225.075L6,6.7V5.875A.354.354,0,0,1,6.375,5.5h.75A.354.354,0,0,0,7.5,5.125v-3a.354.354,0,0,0-.375-.375Z" transform="translate(0 -1)" fill="#fff"/>
          <path id="Path_1894" data-name="Path 1894" d="M15.175,16.425c-.15,0-.375-.15-.375-.3a.506.506,0,0,1,.3-.45,13.971,13.971,0,0,0,2.55-.525l.525-.15V9a5.218,5.218,0,0,0-5.25-5.25,4.947,4.947,0,0,0-3,.975v.9A1.044,1.044,0,0,1,8.875,6.75H8.5V7.875c0,.15-.075.3-.225.3a.335.335,0,0,1-.375,0L7.825,8.1A3.651,3.651,0,0,0,7.75,9v6.075l.525.15c.825.225,1.725.375,2.55.525a.382.382,0,1,1-.15.75,17.154,17.154,0,0,1-2.7-.525L7.3,15.75a.5.5,0,0,1-.3-.375V9a5.709,5.709,0,0,1,.225-1.575A.239.239,0,0,1,7.45,7.2h.3V6.375A.354.354,0,0,1,8.125,6h.75a.354.354,0,0,0,.375-.375V4.5a.39.39,0,0,1,.15-.3A6.28,6.28,0,0,1,13,3a6.018,6.018,0,0,1,6,6v6.375a.5.5,0,0,1-.3.375l-.825.225a25.3,25.3,0,0,1-2.7.45ZM24.625,18h-3.75a1.153,1.153,0,0,1-1.125-1.125v-3a1.153,1.153,0,0,1,1.125-1.125h.375V11.625c0-.15.075-.3.225-.3a.335.335,0,0,1,.375,0l2.175,1.425h.6a1.153,1.153,0,0,1,1.125,1.125v3A1.153,1.153,0,0,1,24.625,18Zm-3.75-4.5a.354.354,0,0,0-.375.375v3a.354.354,0,0,0,.375.375h3.75A.354.354,0,0,0,25,16.875v-3a.354.354,0,0,0-.375-.375h-.75a.276.276,0,0,1-.225-.075L22,12.3v.825a.354.354,0,0,1-.375.375Zm1.5-7.5A.354.354,0,0,1,22,5.625V5.4a1.17,1.17,0,0,1,.525-.975c.15,0,.225-.15.225-.3a.375.375,0,1,0-.75,0,.375.375,0,0,1-.75,0,1.125,1.125,0,1,1,2.25,0,1,1,0,0,1-.6.975.39.39,0,0,0-.15.3v.225A.354.354,0,0,1,22.375,6Zm0,1.5a.375.375,0,1,1,.375-.375A.354.354,0,0,1,22.375,7.5Z" transform="translate(-1.75 -1.5)" fill="#fff"/>
        </g>
      </g>
    </g>
    <g id="Group_798" data-name="Group 798" transform="translate(1006 620)">
      <rect id="Rectangle_201-5" data-name="Rectangle 201" width="184" height="88" rx="4" fill="#e4ecf2"/>
      <g id="Group_796" data-name="Group 796" transform="translate(16 24)">
        <text id="Ratings" transform="translate(52 13)" fill="#707070" font-size="12" font-family="Poppins-Regular, Poppins"><tspan x="0" y="0">Ratings</tspan></text>
        <text id="_4.5" data-name="4.5" transform="translate(52 34)" fill="#064c87" font-size="16" font-family="Poppins-Medium, Poppins" font-weight="500"><tspan x="0" y="0">4.5</tspan></text>
        <g id="Group_792" data-name="Group 792">
          <rect id="Rectangle_203" data-name="Rectangle 203" width="40" height="40" rx="4" fill="#064c87"/>
          <path id="star" d="M22,10.1A.937.937,0,0,0,21.2,9l-5.7-.8L12.9,3a.781.781,0,0,0-.4-.4,1.012,1.012,0,0,0-1.4.4L8.6,8.2,2.9,9a.6.6,0,0,0-.6.3.967.967,0,0,0,0,1.4l4.1,4-1,5.7a1.268,1.268,0,0,0,.1.6,1.012,1.012,0,0,0,1.4.4L12,18.7l5.1,2.7a.749.749,0,0,0,.5.1h.2a1.037,1.037,0,0,0,.8-1.2l-1-5.7,4.1-4A.55.55,0,0,0,22,10.1Z" transform="translate(8 7.541)" fill="#fff"/>
        </g>
      </g>
    </g>
  </g>
  <g id="Group_383" data-name="Group 383" transform="translate(225 -534)">
    <rect id="Rectangle_64" data-name="Rectangle 64" width="151" height="42" rx="4" transform="translate(864 608)" fill="#064c87"/>
    <text id="Save_Voucher_2k" data-name="Save Voucher  2k" transform="translate(880 634)" fill="#fff" font-size="14" font-family="Poppins-Regular, Poppins"><tspan x="0" y="0" xml:space="preserve">Save Voucher  2k</tspan></text>
  </g>
</svg>
