<svg id="customer" xmlns="http://www.w3.org/2000/svg" width="24" height="22.5" viewBox="0 0 24 22.5">
  <path id="Path_1889" data-name="Path 1889" d="M22.625,15h-2.25a.375.375,0,0,1,0-.75h2.25a.375.375,0,0,1,0,.75Zm-.75,1.5h-1.5a.375.375,0,1,1,0-.75h1.5a.375.375,0,1,1,0,.75Zm-15-12.75h-4.5A.354.354,0,0,1,2,3.375.354.354,0,0,1,2.375,3h4.5a.354.354,0,0,1,.375.375A.354.354,0,0,1,6.875,3.75Zm-1.5,1.5h-3a.375.375,0,0,1,0-.75h3a.375.375,0,0,1,0,.75ZM11.75,18.975H11.6c-.225-.075-2.4-1.125-2.4-2.55V14.85a.375.375,0,0,1,.75,0v1.575c0,.75,1.2,1.5,1.8,1.8.6-.3,1.8-1.05,1.8-1.8V14.85a.375.375,0,0,1,.75,0v1.575c0,1.425-2.175,2.4-2.4,2.55C11.825,18.9,11.825,18.975,11.75,18.975Z" transform="translate(-0.5 -1.5)" fill="#fff"/>
  <path id="Path_1890" data-name="Path 1890" d="M12.25,17.85a4.513,4.513,0,0,1-4.5-4.5V11.775a.375.375,0,1,1,.75,0V13.35a3.75,3.75,0,1,0,7.5,0V11.775a.375.375,0,0,1,.75,0V13.35A4.513,4.513,0,0,1,12.25,17.85Zm7.875,8.25H4.375A.354.354,0,0,1,4,25.725V22.95a3.635,3.635,0,0,1,2.4-3.375l3.525-1.2a.364.364,0,0,1,.45.225c.075.15-.075.375-.225.45l-3.525,1.2a2.918,2.918,0,0,0-1.875,2.7v2.4h15v-2.4a2.748,2.748,0,0,0-1.875-2.625l-3.525-1.2a.356.356,0,1,1,.225-.675l3.525,1.2a3.492,3.492,0,0,1,2.4,3.375V25.8A.343.343,0,0,1,20.125,26.1Z" transform="translate(-1 -3.6)" fill="#fff"/>
  <path id="Path_1891" data-name="Path 1891" d="M20.125,26h-3.75A.354.354,0,0,1,16,25.625v-.6A4.142,4.142,0,0,1,19.675,20.9a.573.573,0,0,1,.375.15,3.85,3.85,0,0,1,.525,1.8v2.775a.475.475,0,0,1-.45.375Zm-3.375-.75h3v-2.4a2.375,2.375,0,0,0-.3-1.2,3.457,3.457,0,0,0-2.775,3.375v.225ZM8.125,26H4.375A.354.354,0,0,1,4,25.625V22.85a3.147,3.147,0,0,1,.525-1.8A.274.274,0,0,1,4.9,20.9a4.142,4.142,0,0,1,3.675,4.125v.6a.475.475,0,0,1-.45.375ZM4.75,25.25h3v-.225A3.52,3.52,0,0,0,4.975,21.65a3.4,3.4,0,0,0-.225,1.2Zm7.5-4.275H12.1c-.225-.075-2.4-1.125-2.4-2.55V16.85a.375.375,0,1,1,.75,0v1.575c0,.75,1.2,1.5,1.8,1.8.6-.3,1.8-1.05,1.8-1.8V16.85a.375.375,0,0,1,.75,0v1.575c0,1.425-2.175,2.4-2.4,2.55C12.325,20.9,12.325,20.975,12.25,20.975ZM8.125,14h-.75A1.153,1.153,0,0,1,6.25,12.875v-.75A1.153,1.153,0,0,1,7.375,11H7.75a.375.375,0,0,1,0,.75H7.375A.354.354,0,0,0,7,12.125v.75a.354.354,0,0,0,.375.375H7.75V12.5a.375.375,0,1,1,.75,0v1.125A.354.354,0,0,1,8.125,14Zm9,0h-.75A.354.354,0,0,1,16,13.625V12.5a.375.375,0,0,1,.75,0v.75h.375a.354.354,0,0,0,.375-.375v-.75a.354.354,0,0,0-.375-.375h-.75a.375.375,0,0,1,0-.75h.75a1.153,1.153,0,0,1,1.125,1.125v.75A1.153,1.153,0,0,1,17.125,14Z" transform="translate(-1 -3.5)" fill="#fff"/>
  <path id="Path_1892" data-name="Path 1892" d="M9.125,11h-.75a.375.375,0,0,1,0-.75h.75A1.153,1.153,0,0,0,10.25,9.125v-.75a.375.375,0,0,1,.75,0v.75A1.857,1.857,0,0,1,9.125,11Z" transform="translate(-2 -2.75)" fill="#fff"/>
  <path id="Path_1893" data-name="Path 1893" d="M15.375,9.25h-5.25A1.857,1.857,0,0,1,8.25,7.375v-.75a.375.375,0,0,1,.75,0v.75A1.153,1.153,0,0,0,10.125,8.5h5.25a.375.375,0,0,1,0,.75Zm4.5.75h-.15a.412.412,0,0,1-.225-.375V8.5h-.375A1.153,1.153,0,0,1,18,7.375V2.125A1.153,1.153,0,0,1,19.125,1h3A1.153,1.153,0,0,1,23.25,2.125v5.25A1.153,1.153,0,0,1,22.125,8.5h-.6L20.1,9.925a.755.755,0,0,1-.225.075Zm-.75-8.25a.354.354,0,0,0-.375.375v5.25a.354.354,0,0,0,.375.375h.75a.354.354,0,0,1,.375.375v.6l.825-.825c.075-.075.15-.075.3-.075h.75A.354.354,0,0,0,22.5,7.45V2.2c0-.3-.15-.45-.375-.45h-3Zm-12.75,6a.276.276,0,0,1-.225-.075L3.975,6.25H1.125A1.153,1.153,0,0,1,0,5.125v-3A1.153,1.153,0,0,1,1.125,1h6A1.153,1.153,0,0,1,8.25,2.125v3A1.153,1.153,0,0,1,7.125,6.25H6.75V7.375c0,.15-.075.3-.225.3C6.525,7.75,6.45,7.75,6.375,7.75Zm-5.25-6a.354.354,0,0,0-.375.375v3a.354.354,0,0,0,.375.375h3a.276.276,0,0,1,.225.075L6,6.7V5.875A.354.354,0,0,1,6.375,5.5h.75A.354.354,0,0,0,7.5,5.125v-3a.354.354,0,0,0-.375-.375Z" transform="translate(0 -1)" fill="#fff"/>
  <path id="Path_1894" data-name="Path 1894" d="M15.175,16.425c-.15,0-.375-.15-.375-.3a.506.506,0,0,1,.3-.45,13.971,13.971,0,0,0,2.55-.525l.525-.15V9a5.218,5.218,0,0,0-5.25-5.25,4.947,4.947,0,0,0-3,.975v.9A1.044,1.044,0,0,1,8.875,6.75H8.5V7.875c0,.15-.075.3-.225.3a.335.335,0,0,1-.375,0L7.825,8.1A3.651,3.651,0,0,0,7.75,9v6.075l.525.15c.825.225,1.725.375,2.55.525a.382.382,0,1,1-.15.75,17.154,17.154,0,0,1-2.7-.525L7.3,15.75a.5.5,0,0,1-.3-.375V9a5.709,5.709,0,0,1,.225-1.575A.239.239,0,0,1,7.45,7.2h.3V6.375A.354.354,0,0,1,8.125,6h.75a.354.354,0,0,0,.375-.375V4.5a.39.39,0,0,1,.15-.3A6.28,6.28,0,0,1,13,3a6.018,6.018,0,0,1,6,6v6.375a.5.5,0,0,1-.3.375l-.825.225a25.3,25.3,0,0,1-2.7.45ZM24.625,18h-3.75a1.153,1.153,0,0,1-1.125-1.125v-3a1.153,1.153,0,0,1,1.125-1.125h.375V11.625c0-.15.075-.3.225-.3a.335.335,0,0,1,.375,0l2.175,1.425h.6a1.153,1.153,0,0,1,1.125,1.125v3A1.153,1.153,0,0,1,24.625,18Zm-3.75-4.5a.354.354,0,0,0-.375.375v3a.354.354,0,0,0,.375.375h3.75A.354.354,0,0,0,25,16.875v-3a.354.354,0,0,0-.375-.375h-.75a.276.276,0,0,1-.225-.075L22,12.3v.825a.354.354,0,0,1-.375.375Zm1.5-7.5A.354.354,0,0,1,22,5.625V5.4a1.17,1.17,0,0,1,.525-.975c.15,0,.225-.15.225-.3a.375.375,0,1,0-.75,0,.375.375,0,0,1-.75,0,1.125,1.125,0,1,1,2.25,0,1,1,0,0,1-.6.975.39.39,0,0,0-.15.3v.225A.354.354,0,0,1,22.375,6Zm0,1.5a.375.375,0,1,1,.375-.375A.354.354,0,0,1,22.375,7.5Z" transform="translate(-1.75 -1.5)" fill="#fff"/>
</svg>
