<svg xmlns="http://www.w3.org/2000/svg" xmlns:xlink="http://www.w3.org/1999/xlink" width="402.251" height="400" viewBox="0 0 402.251 400">
  <defs>
    <linearGradient id="linear-gradient" x1="1.082" y1="1.018" x2="0.336" y2="0.362" gradientUnits="objectBoundingBox">
      <stop offset="0" stop-color="#dae3fe"/>
      <stop offset="1" stop-color="#e9effd"/>
    </linearGradient>
    <linearGradient id="linear-gradient-2" x1="-4.517" y1="0.212" x2="-10.222" y2="1.858" xlink:href="#linear-gradient"/>
    <linearGradient id="linear-gradient-3" x1="0.867" y1="0.198" x2="-0.218" y2="1.115" gradientUnits="objectBoundingBox">
      <stop offset="0" stop-color="#4f52ff"/>
      <stop offset="1" stop-color="#4042e2"/>
    </linearGradient>
    <linearGradient id="linear-gradient-4" x1="0" y1="0.5" x2="1" y2="0.5" xlink:href="#linear-gradient"/>
    <linearGradient id="linear-gradient-16" y1="0.5" x2="1" y2="0.5" gradientUnits="objectBoundingBox">
      <stop offset="0" stop-color="#09005d"/>
      <stop offset="1" stop-color="#1a0f91"/>
    </linearGradient>
    <linearGradient id="linear-gradient-17" x1="-1.041" y1="2.887" x2="3.053" y2="-3.455" xlink:href="#linear-gradient-3"/>
    <linearGradient id="linear-gradient-18" x1="-1.77" y1="4.016" x2="2.324" y2="-2.325" xlink:href="#linear-gradient-3"/>
    <linearGradient id="linear-gradient-19" x1="-2.472" y1="5.102" x2="1.623" y2="-1.239" xlink:href="#linear-gradient-3"/>
    <linearGradient id="linear-gradient-20" x1="3.046" y1="-4.24" x2="0.812" y2="-0.082" gradientUnits="objectBoundingBox">
      <stop offset="0" stop-color="#ff928e"/>
      <stop offset="1" stop-color="#fe7062"/>
    </linearGradient>
    <linearGradient id="linear-gradient-21" x1="-0.555" y1="2.134" x2="3.54" y2="-4.208" xlink:href="#linear-gradient-3"/>
    <linearGradient id="linear-gradient-22" x1="-1.284" y1="3.263" x2="2.81" y2="-3.078" xlink:href="#linear-gradient-3"/>
    <linearGradient id="linear-gradient-23" x1="-1.986" y1="4.349" x2="2.109" y2="-1.992" xlink:href="#linear-gradient-3"/>
    <linearGradient id="linear-gradient-24" x1="-2.715" y1="5.479" x2="1.38" y2="-0.862" xlink:href="#linear-gradient-3"/>
    <linearGradient id="linear-gradient-25" x1="-0.124" y1="1.467" x2="3.97" y2="-4.874" xlink:href="#linear-gradient-3"/>
    <linearGradient id="linear-gradient-26" x1="-0.854" y1="2.596" x2="3.241" y2="-3.745" xlink:href="#linear-gradient-3"/>
    <linearGradient id="linear-gradient-27" x1="-1.555" y1="3.683" x2="2.539" y2="-2.659" xlink:href="#linear-gradient-3"/>
    <linearGradient id="linear-gradient-28" x1="0.348" y1="0.735" x2="4.443" y2="-5.606" xlink:href="#linear-gradient-3"/>
    <linearGradient id="linear-gradient-29" x1="-0.381" y1="1.864" x2="3.713" y2="-4.477" xlink:href="#linear-gradient-3"/>
    <linearGradient id="linear-gradient-30" x1="-1.082" y1="2.951" x2="3.012" y2="-3.391" xlink:href="#linear-gradient-3"/>
    <linearGradient id="linear-gradient-31" x1="1.299" y1="-18.055" x2="0.471" y2="1.126" xlink:href="#linear-gradient-3"/>
    <linearGradient id="linear-gradient-32" x1="-43.132" x2="-42.132" xlink:href="#linear-gradient-16"/>
    <linearGradient id="linear-gradient-33" x1="-150.601" y1="0.5" x2="-149.601" y2="0.5" gradientUnits="objectBoundingBox">
      <stop offset="0" stop-color="#febbba"/>
      <stop offset="1" stop-color="#ff928e"/>
    </linearGradient>
    <linearGradient id="linear-gradient-34" x1="2.221" y1="-13.265" x2="0.416" y2="1.065" xlink:href="#linear-gradient-3"/>
    <linearGradient id="linear-gradient-35" x1="-82.324" x2="-81.324" xlink:href="#linear-gradient-16"/>
    <linearGradient id="linear-gradient-36" x1="-136.49" y1="0.5" x2="-135.49" y2="0.5" xlink:href="#linear-gradient-33"/>
    <linearGradient id="linear-gradient-37" x1="1.916" y1="-1.232" x2="0.208" y2="0.864" xlink:href="#linear-gradient-3"/>
    <linearGradient id="linear-gradient-38" x1="-7.134" y1="-18.387" x2="-7.818" y2="-17.295" xlink:href="#linear-gradient-20"/>
    <linearGradient id="linear-gradient-39" x1="5.138" y1="-9.659" x2="1.686" y2="-2.097" xlink:href="#linear-gradient-16"/>
    <linearGradient id="linear-gradient-40" x1="-86.501" y1="0.1" x2="-88.89" y2="1.142" xlink:href="#linear-gradient-33"/>
    <linearGradient id="linear-gradient-41" x1="-18.508" y1="-32.199" x2="-20.017" y2="-30.3" xlink:href="#linear-gradient-20"/>
    <linearGradient id="linear-gradient-42" x1="-18.911" y1="-37.66" x2="-20.932" y2="-35.43" xlink:href="#linear-gradient-20"/>
    <linearGradient id="linear-gradient-43" x1="-40.014" y1="0.5" x2="-39.014" y2="0.5" xlink:href="#linear-gradient-33"/>
    <linearGradient id="linear-gradient-44" x1="-57.45" y1="-0.004" x2="-57.465" y2="1.888" xlink:href="#linear-gradient-33"/>
    <linearGradient id="linear-gradient-45" x1="0.028" y1="-0.037" x2="1.029" y2="0.962" xlink:href="#linear-gradient-16"/>
    <linearGradient id="linear-gradient-46" x1="0.159" y1="-0.007" x2="0.789" y2="0.93" xlink:href="#linear-gradient-16"/>
    <linearGradient id="linear-gradient-47" x1="-71.343" y1="8.231" x2="-72.863" y2="9.568" xlink:href="#linear-gradient-33"/>
    <linearGradient id="linear-gradient-48" x1="-47.057" y1="0.423" x2="-44.086" y2="0.704" xlink:href="#linear-gradient-16"/>
    <linearGradient id="linear-gradient-49" x1="-201.53" y1="25.387" x2="-198.239" y2="23.031" xlink:href="#linear-gradient-33"/>
    <linearGradient id="linear-gradient-50" x1="-59.812" y1="-1.222" x2="-61.505" y2="3.818" xlink:href="#linear-gradient-33"/>
    <linearGradient id="linear-gradient-51" x1="-108.538" y1="0.5" x2="-107.538" y2="0.5" xlink:href="#linear-gradient-33"/>
    <linearGradient id="linear-gradient-52" x1="1.279" y1="-3.921" x2="0.785" y2="-1.058" xlink:href="#linear-gradient-16"/>
    <linearGradient id="linear-gradient-53" x1="145.058" y1="0.5" x2="146.058" y2="0.5" xlink:href="#linear-gradient-33"/>
    <linearGradient id="linear-gradient-54" x1="43.249" y1="0.802" x2="48.135" y2="-0.514" xlink:href="#linear-gradient-16"/>
    <linearGradient id="linear-gradient-55" x1="93.497" y1="-2.223" x2="86.48" y2="5.384" xlink:href="#linear-gradient-16"/>
    <linearGradient id="linear-gradient-56" x1="168.011" y1="0.5" x2="169.011" y2="0.5" xlink:href="#linear-gradient-33"/>
    <linearGradient id="linear-gradient-57" x1="30.587" y1="0.721" x2="34.028" y2="-0.571" xlink:href="#linear-gradient-16"/>
    <linearGradient id="linear-gradient-58" x1="1.397" y1="-0.921" x2="0.379" y2="0.372" xlink:href="#linear-gradient-20"/>
    <linearGradient id="linear-gradient-59" x1="28.394" y1="0.5" x2="29.394" y2="0.5" xlink:href="#linear-gradient-33"/>
    <linearGradient id="linear-gradient-60" x1="32.098" y1="1.605" x2="34.098" y2="4.278" xlink:href="#linear-gradient-33"/>
    <linearGradient id="linear-gradient-61" x1="205.093" y1="0.706" x2="207.112" y2="-1.072" xlink:href="#linear-gradient-33"/>
    <linearGradient id="linear-gradient-62" x1="3.387" y1="-3.076" x2="0.83" y2="0.231" xlink:href="#linear-gradient-20"/>
    <linearGradient id="linear-gradient-63" x1="22.437" y1="0.5" x2="23.437" y2="0.5" xlink:href="#linear-gradient-33"/>
    <linearGradient id="linear-gradient-64" x1="0" y1="0.5" x2="1" y2="0.5" xlink:href="#linear-gradient-3"/>
    <linearGradient id="linear-gradient-65" x1="-0.036" y1="-12.762" x2="0.336" y2="-3.568" xlink:href="#linear-gradient-16"/>
    <linearGradient id="linear-gradient-66" x1="0.204" y1="-9.119" x2="0.398" y2="-2.8" xlink:href="#linear-gradient-16"/>
    <linearGradient id="linear-gradient-67" x1="72.018" y1="0.5" x2="73.018" y2="0.5" xlink:href="#linear-gradient-33"/>
    <linearGradient id="linear-gradient-68" x1="56.749" y1="0.5" x2="57.749" y2="0.5" xlink:href="#linear-gradient-33"/>
    <linearGradient id="linear-gradient-69" x1="-10.978" y1="10.368" x2="-11.299" y2="9.303" xlink:href="#linear-gradient-33"/>
    <linearGradient id="linear-gradient-70" x1="-8.261" y1="6.838" x2="-8.056" y2="8.017" xlink:href="#linear-gradient-16"/>
    <linearGradient id="linear-gradient-71" x1="-36.999" y1="47.802" x2="-37.942" y2="43.155" xlink:href="#linear-gradient-33"/>
    <linearGradient id="linear-gradient-72" x1="93.132" y1="-1.716" x2="44.899" y2="-0.562" xlink:href="#linear-gradient-16"/>
    <linearGradient id="linear-gradient-73" x1="88.704" y1="-1.595" x2="40.471" y2="-0.449" xlink:href="#linear-gradient-16"/>
    <linearGradient id="linear-gradient-74" x1="4.024" y1="-1.325" x2="1.827" y2="-0.189" xlink:href="#linear-gradient-16"/>
    <linearGradient id="linear-gradient-75" x1="4.381" y1="-1.508" x2="2.176" y2="-0.368" xlink:href="#linear-gradient-16"/>
    <linearGradient id="linear-gradient-76" x1="2.982" y1="-62.859" x2="1.387" y2="-22.136" xlink:href="#linear-gradient-16"/>
    <linearGradient id="linear-gradient-77" x1="5.388" y1="-90.305" x2="2.343" y2="-33.735" xlink:href="#linear-gradient-16"/>
    <linearGradient id="linear-gradient-78" x1="5.567" y1="-93.63" x2="2.522" y2="-37.06" xlink:href="#linear-gradient-16"/>
    <linearGradient id="linear-gradient-79" x1="5.428" y1="-96.828" x2="2.564" y2="-40.257" xlink:href="#linear-gradient-16"/>
    <linearGradient id="linear-gradient-80" x1="5.594" y1="-100.117" x2="2.73" y2="-43.546" xlink:href="#linear-gradient-16"/>
    <linearGradient id="linear-gradient-81" x1="0.948" y1="-1.673" x2="-0.009" y2="3.291" xlink:href="#linear-gradient-20"/>
    <linearGradient id="linear-gradient-82" x1="3.854" y1="-5.189" x2="-0.737" y2="2.245" xlink:href="#linear-gradient-20"/>
    <linearGradient id="linear-gradient-83" x1="-1.424" y1="-1.41" x2="-0.754" y2="-2.188" xlink:href="#linear-gradient-20"/>
    <linearGradient id="linear-gradient-84" x1="-0.405" y1="-2.868" x2="-2.456" y2="0.231" xlink:href="#linear-gradient-20"/>
    <linearGradient id="linear-gradient-85" x1="-12.911" y1="-4.805" x2="-15.63" y2="-2.083" xlink:href="#linear-gradient-20"/>
    <linearGradient id="linear-gradient-86" x1="-1" y1="-0.375" x2="-0.329" y2="-1.153" xlink:href="#linear-gradient-20"/>
    <linearGradient id="linear-gradient-87" x1="0.034" y1="-1.797" x2="-2.017" y2="1.302" xlink:href="#linear-gradient-20"/>
    <linearGradient id="linear-gradient-88" x1="-8.355" y1="-3.096" x2="-11.074" y2="-0.373" xlink:href="#linear-gradient-20"/>
    <linearGradient id="linear-gradient-89" x1="-0.931" y1="-0.363" x2="-0.261" y2="-1.141" xlink:href="#linear-gradient-20"/>
    <linearGradient id="linear-gradient-90" x1="0.105" y1="-1.785" x2="-1.946" y2="1.314" xlink:href="#linear-gradient-20"/>
    <linearGradient id="linear-gradient-91" x1="-7.41" y1="-3.416" x2="-10.129" y2="-0.694" xlink:href="#linear-gradient-20"/>
    <linearGradient id="linear-gradient-92" x1="-1.185" y1="-0.803" x2="-0.514" y2="-1.581" xlink:href="#linear-gradient-20"/>
    <linearGradient id="linear-gradient-93" x1="-0.157" y1="-2.24" x2="-2.208" y2="0.859" xlink:href="#linear-gradient-20"/>
    <linearGradient id="linear-gradient-94" x1="-10.736" y1="-4.37" x2="-13.455" y2="-1.648" xlink:href="#linear-gradient-20"/>
  </defs>
  <g id="Group_1179" data-name="Group 1179" transform="translate(-447.123 -455)">
    <path id="Path_2261" data-name="Path 2261" d="M832.513,725.233C793.486,815.757,689.527,866.47,599.374,852.791c-14.67-2.226-54.887-8.857-90.494-40.138-68.546-60.219-83.205-179.461-27.911-263.493C521.213,488,593.355,453.328,661.9,455.062c14.766.373,71.353,2.676,121.083,43.072a184.715,184.715,0,0,1,37.935,42.4C855.017,593.059,857.947,666.236,832.513,725.233Z" transform="translate(0 0)" fill="url(#linear-gradient)"/>
    <g id="Group_1140" data-name="Group 1140" transform="translate(448.13 465.176)">
      <g id="Group_1138" data-name="Group 1138" transform="translate(13.189 0)">
        <path id="Path_2262" data-name="Path 2262" d="M639.35,756.332s1.187-49.913-21.8-63.272-66.7-21.711-68.339-93.381c-.959-41.959-2-60.3-2.693-68.3a4.725,4.725,0,0,1,5.58-5.059c21.773,4.1,92.5,20.984,107.333,69.261C677.008,652.81,639.35,756.332,639.35,756.332Z" transform="translate(-546.497 -526.232)" fill="#bdd0fb"/>
        <path id="Path_2263" data-name="Path 2263" d="M694.3,665.031c23.9,21.316,51.536,59.04,66.266,96.764,1.891,6.217,7.422,19.439,9.823,42.93,2.145,19.592,1.079,40.295-1.522,54A1.6,1.6,0,0,1,767,859.995a1.619,1.619,0,0,1-1.278-1.834,218.957,218.957,0,0,0-5.069-78.852c-8.7-32.287-28.093-63.591-48.156-90.141l-2.065-2.614c-15.544-19.962-18.816-20.109-17.363-21.5A.909.909,0,0,1,694.3,665.031Z" transform="translate(-671.867 -645.007)" fill="url(#linear-gradient-2)"/>
      </g>
      <g id="Group_1139" data-name="Group 1139" transform="translate(0 132.802)">
        <path id="Path_2264" data-name="Path 2264" d="M597.163,1649.11c3.11,1.525-29.446-39.415-39.644-103.714-4.806-30.3-4.868-68.262-22.128-82.891-14.365-12.176-63.246-4.489-79.24-1.568a2.4,2.4,0,0,0-1.116,4.2c7.67,6.441,24.078,21.635,28.353,36.948,5.635,20.183,24.824,33.021,42,36.5s26.735,6.846,35.1,34.318S588.325,1644.776,597.163,1649.11Z" transform="translate(-454.176 -1455.848)" fill="#91b3fa"/>
        <path id="Path_2265" data-name="Path 2265" d="M622.707,1551.165c20.406.855,42.31,10.163,53.426,27.624l1.049,1.666c2.423,3.907,16.156,31.68,23.783,54.7a.548.548,0,0,1-.348.692.558.558,0,0,1-.685-.328c-5.314-13.006-12.946-29.5-19.025-41.826-6.519-13.455-11.081-22.568-25.95-31.3a82.788,82.788,0,0,0-32.313-10.358.439.439,0,0,1,.063-.876Z" transform="translate(-598.239 -1537.548)" fill="#bdd0fb"/>
      </g>
    </g>
    <g id="Group_1147" data-name="Group 1147" transform="translate(521.67 456.334)">
      <path id="Path_2266" data-name="Path 2266" d="M1256.806,847.379H991.433a16.041,16.041,0,0,1-15.857-15.913l-6.621-344.5a16.068,16.068,0,0,1,15.511-16.548l271.994-6.076a16.04,16.04,0,0,1,16.206,16.229V831.146A16.05,16.05,0,0,1,1256.806,847.379Z" transform="translate(-968.952 -464.335)" fill="url(#linear-gradient-3)"/>
      <rect id="Rectangle_232" data-name="Rectangle 232" width="263.003" height="317.896" rx="66.845" transform="translate(22.614 48.257)" fill="#91b3fa"/>
      <g id="Group_1141" data-name="Group 1141" transform="translate(129.987 62.131)">
        <rect id="Rectangle_233" data-name="Rectangle 233" width="145.375" height="11.461" fill="#bdd0fb"/>
        <rect id="Rectangle_234" data-name="Rectangle 234" width="145.375" height="6.635" transform="translate(0 16.287)" fill="#bdd0fb"/>
        <rect id="Rectangle_235" data-name="Rectangle 235" width="145.375" height="6.635" transform="translate(0 27.748)" fill="#bdd0fb"/>
        <rect id="Rectangle_236" data-name="Rectangle 236" width="145.375" height="6.635" transform="translate(0 39.209)" fill="#bdd0fb"/>
      </g>
      <g id="Group_1142" data-name="Group 1142" transform="translate(41.314 205.697)">
        <rect id="Rectangle_237" data-name="Rectangle 237" width="83.244" height="11.461" fill="#bdd0fb"/>
        <rect id="Rectangle_238" data-name="Rectangle 238" width="83.244" height="6.635" transform="translate(0 16.287)" fill="#bdd0fb"/>
        <rect id="Rectangle_239" data-name="Rectangle 239" width="83.244" height="6.635" transform="translate(0 27.748)" fill="#bdd0fb"/>
        <rect id="Rectangle_240" data-name="Rectangle 240" width="83.244" height="6.635" transform="translate(0 39.209)" fill="#bdd0fb"/>
      </g>
      <g id="Group_1143" data-name="Group 1143" transform="translate(118.135 120.226)">
        <rect id="Rectangle_241" data-name="Rectangle 241" width="8.113" height="34.555" transform="translate(0 27.993)" fill="url(#linear-gradient-4)"/>
        <rect id="Rectangle_242" data-name="Rectangle 242" width="8.113" height="22.679" transform="translate(13.556 39.87)" fill="url(#linear-gradient-4)"/>
        <rect id="Rectangle_243" data-name="Rectangle 243" width="8.113" height="52.03" transform="translate(27.112 10.519)" fill="url(#linear-gradient-4)"/>
        <rect id="Rectangle_244" data-name="Rectangle 244" width="8.113" height="12.5" transform="translate(40.668 50.049)" fill="url(#linear-gradient-4)"/>
        <rect id="Rectangle_245" data-name="Rectangle 245" width="8.113" height="45.074" transform="translate(54.223 17.475)" fill="url(#linear-gradient-4)"/>
        <rect id="Rectangle_246" data-name="Rectangle 246" width="8.113" height="37.27" transform="translate(67.779 25.279)" fill="url(#linear-gradient-4)"/>
        <rect id="Rectangle_247" data-name="Rectangle 247" width="8.113" height="28.787" transform="translate(81.335 33.762)" fill="url(#linear-gradient-4)"/>
        <rect id="Rectangle_248" data-name="Rectangle 248" width="8.113" height="62.549" transform="translate(94.891)" fill="url(#linear-gradient-4)"/>
        <rect id="Rectangle_249" data-name="Rectangle 249" width="8.113" height="55.932" transform="translate(108.447 6.617)" fill="url(#linear-gradient-4)"/>
        <rect id="Rectangle_250" data-name="Rectangle 250" width="8.113" height="45.922" transform="translate(122.003 16.626)" fill="url(#linear-gradient-4)"/>
        <rect id="Rectangle_251" data-name="Rectangle 251" width="8.113" height="11.339" transform="translate(135.559 51.209)" fill="url(#linear-gradient-4)"/>
        <rect id="Rectangle_252" data-name="Rectangle 252" width="8.113" height="33.367" transform="translate(149.115 29.181)" fill="url(#linear-gradient-4)"/>
      </g>
      <rect id="Rectangle_253" data-name="Rectangle 253" width="234.049" height="6.635" transform="translate(41.314 345.041)" fill="#bdd0fb"/>
      <path id="Rectangle_254" data-name="Rectangle 254" d="M33.188,0h0A33.188,33.188,0,0,1,66.377,33.188V87.455a33.188,33.188,0,0,1-33.188,33.188h0A33.188,33.188,0,0,1,0,87.455V33.188A33.188,33.188,0,0,1,33.188,0Z" transform="translate(41.314 62.131)" fill="#bdd0fb"/>
      <rect id="Rectangle_255" data-name="Rectangle 255" width="82.641" height="71.18" rx="17" transform="translate(41.917 263.606)" fill="#fff" opacity="0.57"/>
      <g id="Group_1146" data-name="Group 1146" transform="translate(141.01 205.697)">
        <g id="Group_1144" data-name="Group 1144" transform="translate(62.716)">
          <path id="Path_2267" data-name="Path 2267" d="M2398.468,1968.4a3.43,3.43,0,0,1-3.375-4.039l10.351-57.327a3.43,3.43,0,0,1,4.009-2.761,62.377,62.377,0,0,1,50.087,51.821,3.43,3.43,0,0,1-2.9,3.912l-57.681,8.36A3.389,3.389,0,0,1,2398.468,1968.4Z" transform="translate(-2395.038 -1904.216)" fill="#bdd0fb"/>
        </g>
        <g id="Group_1145" data-name="Group 1145" transform="translate(0 25.968)">
          <path id="Path_2268" data-name="Path 2268" d="M2006.981,2187.906a50.957,50.957,0,1,1,9.467-101.022,3.429,3.429,0,0,1,2.741,3.98l-7.5,41.517,41.777-6.055a3.436,3.436,0,0,1,3.882,2.877,51,51,0,0,1-50.371,58.7Z" transform="translate(-1956.024 -2085.992)" fill="#bdd0fb"/>
        </g>
      </g>
    </g>
    <g id="Group_1152" data-name="Group 1152" transform="translate(500.246 651.483)">
      <g id="Group_1151" data-name="Group 1151" transform="translate(0)">
        <g id="Group_1148" data-name="Group 1148">
          <path id="Path_2269" data-name="Path 2269" d="M821.754,1840.548c-.89,31.792-3.777,141.452-2.4,180.313.146,4.117,3.874,7.421,8.524,7.556,23,.666,107.31,2.355,144.928.958,7.835-.291,14.066-5.91,14.229-12.851.782-33.369,2.506-127.224-1.593-170.219-.491-5.151-5.058-9.254-10.869-9.768-25.047-2.218-109.721-7.641-142.221-5.774C826.493,1831.1,821.9,1835.349,821.754,1840.548Z" transform="translate(-818.989 -1830.377)" fill="url(#linear-gradient-16)"/>
          <rect id="Rectangle_256" data-name="Rectangle 256" width="147.433" height="45.652" rx="22.826" transform="translate(9.371 14.832)" fill="#7d97f4"/>
          <path id="Path_2270" data-name="Path 2270" d="M1069.474,1975.849a6.166,6.166,0,0,0-4.334-1.878l-120.449-1.914a6.166,6.166,0,0,0-6.237,5.59l-2.5,26.722c-.2,2.188,3.395,4.03,7.984,4.086l118.418,1.435c4.582.055,8.37-1.692,8.408-3.879l.447-25.768A6.166,6.166,0,0,0,1069.474,1975.849Z" transform="translate(-919.235 -1951.816)" fill="#fff" opacity="0.2"/>
        </g>
        <path id="Path_2271" data-name="Path 2271" d="M943.71,2393.343a8.606,8.606,0,0,1-8.606,8.606H924.626a8.606,8.606,0,0,1-8.606-8.606h0a8.606,8.606,0,0,1,8.606-8.606H935.1a8.606,8.606,0,0,1,8.606,8.606Z" transform="translate(-902.158 -2305.542)" fill="url(#linear-gradient-17)"/>
        <path id="Path_2272" data-name="Path 2272" d="M1216.124,2393.343a8.606,8.606,0,0,1-8.606,8.606h-10.477a8.607,8.607,0,0,1-8.607-8.606h0a8.607,8.607,0,0,1,8.607-8.606h10.477a8.606,8.606,0,0,1,8.606,8.606Z" transform="translate(-1135.656 -2305.542)" fill="url(#linear-gradient-18)"/>
        <path id="Path_2273" data-name="Path 2273" d="M1478.062,2393.343a8.607,8.607,0,0,1-8.607,8.606h-10.477a8.607,8.607,0,0,1-8.607-8.606h0a8.607,8.607,0,0,1,8.607-8.606h10.477a8.607,8.607,0,0,1,8.607,8.606Z" transform="translate(-1360.173 -2305.542)" fill="url(#linear-gradient-19)"/>
        <path id="Path_2274" data-name="Path 2274" d="M1744.018,2401.35a8.746,8.746,0,0,1-8.746,8.746h-10.127a8.746,8.746,0,0,1-8.746-8.746h0a8.746,8.746,0,0,1,8.746-8.746h10.127a8.746,8.746,0,0,1,8.746,8.746Z" transform="translate(-1588.198 -2312.286)" fill="url(#linear-gradient-20)"/>
        <path id="Path_2275" data-name="Path 2275" d="M943.71,2581.938a8.606,8.606,0,0,1-8.606,8.606H924.626a8.606,8.606,0,0,1-8.606-8.606h0a8.606,8.606,0,0,1,8.606-8.606H935.1a8.606,8.606,0,0,1,8.606,8.606Z" transform="translate(-902.158 -2467.195)" fill="url(#linear-gradient-21)"/>
        <path id="Path_2276" data-name="Path 2276" d="M1216.124,2581.938a8.606,8.606,0,0,1-8.606,8.606h-10.477a8.607,8.607,0,0,1-8.607-8.606h0a8.606,8.606,0,0,1,8.607-8.606h10.477a8.606,8.606,0,0,1,8.606,8.606Z" transform="translate(-1135.656 -2467.195)" fill="url(#linear-gradient-22)"/>
        <path id="Path_2277" data-name="Path 2277" d="M1478.062,2581.938a8.607,8.607,0,0,1-8.607,8.606h-10.477a8.607,8.607,0,0,1-8.607-8.606h0a8.606,8.606,0,0,1,8.607-8.606h10.477a8.606,8.606,0,0,1,8.607,8.606Z" transform="translate(-1360.173 -2467.195)" fill="url(#linear-gradient-23)"/>
        <path id="Path_2278" data-name="Path 2278" d="M1750.476,2581.938a8.607,8.607,0,0,1-8.607,8.606h-10.477a8.606,8.606,0,0,1-8.606-8.606h0a8.606,8.606,0,0,1,8.606-8.606h10.477a8.606,8.606,0,0,1,8.607,8.606Z" transform="translate(-1593.672 -2467.195)" fill="url(#linear-gradient-24)"/>
        <g id="Group_1149" data-name="Group 1149" transform="translate(13.862 129.997)">
          <path id="Path_2279" data-name="Path 2279" d="M943.71,2748.963a8.606,8.606,0,0,1-8.606,8.606H924.626a8.606,8.606,0,0,1-8.606-8.606h0a8.606,8.606,0,0,1,8.606-8.606H935.1a8.606,8.606,0,0,1,8.606,8.606Z" transform="translate(-916.02 -2740.357)" opacity="0.63" fill="url(#linear-gradient-25)"/>
          <path id="Path_2280" data-name="Path 2280" d="M1216.124,2748.963a8.606,8.606,0,0,1-8.606,8.606h-10.477a8.606,8.606,0,0,1-8.607-8.606h0a8.607,8.607,0,0,1,8.607-8.606h10.477a8.606,8.606,0,0,1,8.606,8.606Z" transform="translate(-1149.518 -2740.357)" opacity="0.63" fill="url(#linear-gradient-26)"/>
          <path id="Path_2281" data-name="Path 2281" d="M1478.062,2748.963a8.606,8.606,0,0,1-8.607,8.606h-10.477a8.606,8.606,0,0,1-8.607-8.606h0a8.607,8.607,0,0,1,8.607-8.606h10.477a8.607,8.607,0,0,1,8.607,8.606Z" transform="translate(-1374.035 -2740.357)" opacity="0.63" fill="url(#linear-gradient-27)"/>
        </g>
        <g id="Group_1150" data-name="Group 1150" transform="translate(13.862 156.191)">
          <path id="Path_2282" data-name="Path 2282" d="M943.71,2932.319a8.606,8.606,0,0,1-8.606,8.606H924.626a8.606,8.606,0,0,1-8.606-8.606h0a8.606,8.606,0,0,1,8.606-8.606H935.1a8.606,8.606,0,0,1,8.606,8.606Z" transform="translate(-916.02 -2923.713)" opacity="0.63" fill="url(#linear-gradient-28)"/>
          <path id="Path_2283" data-name="Path 2283" d="M1216.124,2932.319a8.606,8.606,0,0,1-8.606,8.606h-10.477a8.607,8.607,0,0,1-8.607-8.606h0a8.607,8.607,0,0,1,8.607-8.606h10.477a8.606,8.606,0,0,1,8.606,8.606Z" transform="translate(-1149.518 -2923.713)" opacity="0.63" fill="url(#linear-gradient-29)"/>
          <path id="Path_2284" data-name="Path 2284" d="M1478.062,2932.319a8.607,8.607,0,0,1-8.607,8.606h-10.477a8.607,8.607,0,0,1-8.607-8.606h0a8.607,8.607,0,0,1,8.607-8.606h10.477a8.607,8.607,0,0,1,8.607,8.606Z" transform="translate(-1374.035 -2923.713)" opacity="0.63" fill="url(#linear-gradient-30)"/>
        </g>
        <path id="Rectangle_257" data-name="Rectangle 257" d="M11.226,0h0A11.226,11.226,0,0,1,22.452,11.226V31.432A11.226,11.226,0,0,1,11.226,42.658h0A11.226,11.226,0,0,1,0,31.432V11.226A11.226,11.226,0,0,1,11.226,0Z" transform="translate(130.611 132.33)" fill="#7d97f4"/>
      </g>
    </g>
    <g id="Group_1162" data-name="Group 1162" transform="translate(604.907 542.004)">
      <g id="Group_1158" data-name="Group 1158" transform="translate(103.371 30.325)">
        <g id="Group_1153" data-name="Group 1153" transform="translate(42.24 153.426)">
          <path id="Path_2285" data-name="Path 2285" d="M2571.479,2436.4c3.558.308,9.732.807,14.6,1.021a14.05,14.05,0,0,0,5.581-.546c0,.109,0,.213-.009.309a1.007,1.007,0,0,1-.957.951,171,171,0,0,1-19.116.019.717.717,0,0,1-.584-1.077A5.867,5.867,0,0,1,2571.479,2436.4Z" transform="translate(-2570.893 -2424.095)" fill="url(#linear-gradient-31)"/>
          <path id="Path_2286" data-name="Path 2286" d="M2589.6,2394.319c-4.867-.214-11.042-.714-14.6-1.021,3.5-4.291,14.6-7.183,14.6-7.183h3.135a13.149,13.149,0,0,1,2.445,7.658A14.05,14.05,0,0,1,2589.6,2394.319Z" transform="translate(-2574.411 -2380.995)" fill="url(#linear-gradient-32)"/>
          <path id="Path_2287" data-name="Path 2287" d="M2667.738,2350.282l-.293,5.806a1.326,1.326,0,0,1-1.132,1.247,5.155,5.155,0,0,1-2.355-.2,1.569,1.569,0,0,1-1.055-1.206l-1.014-5.652Z" transform="translate(-2648.889 -2350.282)" fill="url(#linear-gradient-33)"/>
        </g>
        <g id="Group_1155" data-name="Group 1155" transform="translate(91.285 147.999)">
          <g id="Group_1154" data-name="Group 1154" transform="translate(1.381 5.389)">
            <path id="Path_2288" data-name="Path 2288" d="M2955.709,2432a2.816,2.816,0,0,0,2.534-1.873l.006.023a2,2,0,0,1-1.351,2.286,8.821,8.821,0,0,1-3.741.586,3.719,3.719,0,0,1-2.8-1.294l-.009-.011C2951.505,2432.292,2953.137,2432.36,2955.709,2432Z" transform="translate(-2946.562 -2418.684)" fill="url(#linear-gradient-34)"/>
            <path id="Path_2289" data-name="Path 2289" d="M2925.752,2350.018h2.586c3.938-.08,6.412,8.227,7.221,11.444a2.816,2.816,0,0,1-2.534,1.873c-2.573.359-4.2.291-5.366-.284-2.128-2.8-3.183-6.9-3.69-9.294A3.263,3.263,0,0,1,2925.752,2350.018Z" transform="translate(-2923.878 -2350.018)" fill="url(#linear-gradient-35)"/>
          </g>
          <path id="Path_2290" data-name="Path 2290" d="M2919.717,2312.3l1.436,5.71a1.55,1.55,0,0,1-.807,1.757,5.5,5.5,0,0,1-2.973.72,1.3,1.3,0,0,1-1.056-.864l-2.108-6.008Z" transform="translate(-2914.209 -2312.298)" fill="url(#linear-gradient-36)"/>
        </g>
        <path id="Path_2291" data-name="Path 2291" d="M2633.577,1836.678c-1.786,1.585-7.6,1.794-7.6,1.794-20.93-50.234-29.492-57.371-29.492-57.371,3.022,18.961.487,60.938.487,60.938-3.454,1.524-7.906,0-7.906,0a323.567,323.567,0,0,0-10.688-79.455c14.146-.318,21.669-5.159,24.125-7.1C2614.3,1774.493,2633.577,1836.678,2633.577,1836.678Z" transform="translate(-2535.071 -1687.028)" fill="url(#linear-gradient-37)"/>
        <path id="Path_2292" data-name="Path 2292" d="M2485.025,1349.028c2.677,13.356,1.718,37.26,1.087,48.164-.177,3.065,1.962,7.313,3.691,10.212a.909.909,0,0,1-.367,1.279,63.055,63.055,0,0,1-24.07,6.673,1.621,1.621,0,0,1-1.631-1.211c-8.432-31.483-18.225-51.6-18.225-51.6C2456.323,1345.276,2485.025,1349.028,2485.025,1349.028Z" transform="translate(-2421.182 -1338.344)" fill="url(#linear-gradient-38)"/>
        <path id="Path_2293" data-name="Path 2293" d="M2643.006,1876.75a.671.671,0,0,0,.572-1.019,21.028,21.028,0,0,0-8.3-7.2.67.67,0,1,0-.583,1.207,20.051,20.051,0,0,1,7.737,6.695A.67.67,0,0,0,2643.006,1876.75Z" transform="translate(-2583.016 -1783.867)" fill="url(#linear-gradient-39)"/>
        <g id="Group_1156" data-name="Group 1156" transform="translate(60.852 10.684)">
          <path id="Path_2294" data-name="Path 2294" d="M2777.175,1613.838c-.86,6.222-3.4,13.008-8.485,20.217l-1.932-1.575a59.677,59.677,0,0,0,.962-19.322A23.127,23.127,0,0,1,2777.175,1613.838Z" transform="translate(-2757.389 -1575.507)" fill="url(#linear-gradient-40)"/>
          <path id="Path_2295" data-name="Path 2295" d="M2701.176,1367.573l2.991-16.479s19.982,15.274,16.795,38.331a23.127,23.127,0,0,0-9.454-.681C2710.594,1381.345,2707.865,1373.313,2701.176,1367.573Z" transform="translate(-2701.176 -1351.094)" fill="url(#linear-gradient-41)"/>
        </g>
        <g id="Group_1157" data-name="Group 1157" transform="translate(0 24.199)">
          <path id="Path_2296" data-name="Path 2296" d="M2401.587,1445.7l7.713,16.611c-1.247,10.029-6.634,14.365-12.443,16.028a35.243,35.243,0,0,0-2.59-10.818C2401.688,1459.856,2401.587,1445.7,2401.587,1445.7Z" transform="translate(-2377.258 -1445.697)" fill="url(#linear-gradient-42)"/>
          <path id="Path_2297" data-name="Path 2297" d="M2292.219,1598.45a35.244,35.244,0,0,1,2.59,10.818c-15.5,6.013-19.6-5.649-19.6-5.649l2.864-.505C2284.543,1603.8,2289.062,1601.71,2292.219,1598.45Z" transform="translate(-2275.211 -1576.628)" fill="url(#linear-gradient-43)"/>
        </g>
        <path id="Path_2298" data-name="Path 2298" d="M2495.254,1279.994l3.724,13.689a2.663,2.663,0,0,0,3.562,1.772,54.039,54.039,0,0,0,5.367-2.451,3.589,3.589,0,0,0,1.266-5.157l-7.742-11.543Z" transform="translate(-2463.819 -1276.303)" fill="url(#linear-gradient-44)"/>
      </g>
      <path id="Path_2299" data-name="Path 2299" d="M2211.071,1570.513l95.415,34.727a7.306,7.306,0,0,1,4.152,9.89l-.29.637a6.791,6.791,0,0,1-9.033,3.352l-92.647-42.859Z" transform="translate(-2114.803 -1498.158)" fill="url(#linear-gradient-45)"/>
      <g id="Group_1159" data-name="Group 1159" transform="translate(5.31 5.214)" opacity="0.15">
        <ellipse id="Ellipse_86" data-name="Ellipse 86" cx="47.101" cy="46.252" rx="47.101" ry="46.252" fill="#7d97f4"/>
      </g>
      <path id="Path_2300" data-name="Path 2300" d="M1551.614,1115.493c0,28.424,23.465,51.466,52.411,51.466s52.411-23.042,52.411-51.466-23.465-51.466-52.411-51.466S1551.614,1087.069,1551.614,1115.493Zm7.7,0c0-24.248,20.018-43.906,44.712-43.906s44.712,19.657,44.712,43.906-20.018,43.906-44.712,43.906S1559.313,1139.741,1559.313,1115.493Z" transform="translate(-1551.614 -1064.027)" fill="url(#linear-gradient-46)"/>
      <g id="Group_1160" data-name="Group 1160" transform="translate(25.96 3.297)">
        <path id="Path_2301" data-name="Path 2301" d="M1808.21,1141.54l-.031,0a.241.241,0,0,1-.208-.27c.154-1.207.262-2.433.322-3.644a.241.241,0,1,1,.481.024c-.06,1.224-.17,2.462-.325,3.682A.241.241,0,0,1,1808.21,1141.54Zm-.36-14.391a.241.241,0,0,1-.237-.2,46.817,46.817,0,0,0-2.792-9.555h0a48.392,48.392,0,0,0-45.038-29.806,49.062,49.062,0,0,0-26.082,7.453.241.241,0,0,1-.256-.409,49.548,49.548,0,0,1,26.339-7.526,48.871,48.871,0,0,1,45.483,30.1h0a47.291,47.291,0,0,1,2.821,9.655.241.241,0,0,1-.195.28A.267.267,0,0,1,1807.85,1127.149Z" transform="translate(-1733.332 -1087.107)" fill="#bdd0fb"/>
      </g>
      <g id="Group_1161" data-name="Group 1161" transform="translate(122.79 16.264)">
        <path id="Path_2302" data-name="Path 2302" d="M2438.229,1216.161c-.034.235,3.105,15.621,3.105,15.621l8.747-1.979-.809-15.025S2438.8,1212.226,2438.229,1216.161Z" transform="translate(-2434.359 -1208.808)" fill="url(#linear-gradient-47)"/>
        <path id="Path_2303" data-name="Path 2303" d="M2424.091,1187.191l1.045,7.876a1.1,1.1,0,0,1,0,.3c-.088.617-.547,2.719-2.669,2.118-1.925-.545-3.69-1.014-4.909-.641a1.108,1.108,0,0,0-.763,1.283,47.955,47.955,0,0,0,2.013,7.169,1.107,1.107,0,0,0,1.344.654,35.76,35.76,0,0,0,7.71-3.155,1.11,1.11,0,0,0,.541-1c-.084-1.988-.316-8.032-.121-9.726.184-1.59,2.135-2.543,2.983-2.885a1.09,1.09,0,0,0,.607-.609c.392-.984.934-3.261-1.936-4.194a1.111,1.111,0,0,1-.7-1.437,2.882,2.882,0,0,0-1.616-3.984,4.066,4.066,0,0,0-4.851,1.169,1.11,1.11,0,0,1-1.415.167.878.878,0,0,0-1,.034,1.093,1.093,0,0,1-1.548-.469,3.314,3.314,0,0,0-3.85-1.919c-3.92.671-4.364,5.015-3.33,7.56s5.242,1.576,7.353.293c1.6-.975,3.687.047,4.593.593A1.1,1.1,0,0,1,2424.091,1187.191Z" transform="translate(-2411.146 -1177.874)" fill="url(#linear-gradient-48)"/>
        <path id="Path_2304" data-name="Path 2304" d="M2529.338,1260.572s-1.611-4.512.044-5.617,4.107-.531,3.568,2.738C2532.278,1261.759,2529.338,1260.572,2529.338,1260.572Z" transform="translate(-2511.85 -1243.503)" fill="url(#linear-gradient-49)"/>
      </g>
      <path id="Path_2305" data-name="Path 2305" d="M2694.777,1743.571l-9.02-.735-3.906,3.6s.924,1.277,3.813.543a41.368,41.368,0,0,1,6.847-.914s3.989,1.8,4.037-1.566Z" transform="translate(-2520.388 -1645.863)" fill="url(#linear-gradient-50)"/>
      <path id="Path_2306" data-name="Path 2306" d="M2246.742,1608.6c-.78.609-3.453-.663-5.088-1.543a1.882,1.882,0,0,1-.909-2.223c.394-1.241,1.049-2.843,1.857-3.045C2243.943,1601.453,2249.957,1606.087,2246.742,1608.6Z" transform="translate(-2142.223 -1524.95)" fill="url(#linear-gradient-51)"/>
      <path id="Path_2307" data-name="Path 2307" d="M2815.732,1811.416a.241.241,0,0,1-.079-.469c2.74-.947,4.175-2.487,4.265-4.576a5.082,5.082,0,0,0-3.324-4.891l-11.457-4.467a.241.241,0,1,1,.175-.449l11.457,4.467a5.565,5.565,0,0,1,3.631,5.36c-.1,2.307-1.645,3.993-4.59,5.012A.24.24,0,0,1,2815.732,1811.416Z" transform="translate(-2625.931 -1691.9)" fill="#bdd0fb"/>
      <path id="Path_2308" data-name="Path 2308" d="M2771.606,1783.92a.237.237,0,0,1-.087-.016l-1.485-.579a.241.241,0,0,1,.175-.449l1.485.579a.241.241,0,0,1-.088.466Z" transform="translate(-2595.842 -1680.168)" fill="#bdd0fb"/>
    </g>
    <g id="Group_1167" data-name="Group 1167" transform="translate(448.799 656.63)">
      <path id="Path_2309" data-name="Path 2309" d="M748.123,3171.885s-.687,3.891-1.024,7.743a2.654,2.654,0,0,0,2.539,2.875c5.13.213,16.1.629,20.04.453a.863.863,0,0,0,.76-1.183h0a1.932,1.932,0,0,0-.989-1.042l-18.125-8.33Z" transform="translate(-705.913 -2985.388)" fill="url(#linear-gradient-52)"/>
      <path id="Path_2310" data-name="Path 2310" d="M750.389,3151.568l.552,4.655s3.175,1.478,5.343-.186l-1.315-5.187Z" transform="translate(-708.742 -2967.357)" fill="url(#linear-gradient-53)"/>
      <path id="Path_2311" data-name="Path 2311" d="M666.925,2543.314c-.238,1.215-1.28,60.657,5.073,87.295a.9.9,0,0,1-.53,1.052,15.748,15.748,0,0,1-5.175,1.052,1.557,1.557,0,0,1-1.545-1.118c-1.816-6.18-10.519-37.146-11.655-66.726-1.269-33.053,0-1.125,0-1.125l.744-20.431Z" transform="translate(-624.863 -2446.611)" fill="url(#linear-gradient-54)"/>
      <path id="Path_2312" data-name="Path 2312" d="M595.263,3186.095s-1.094,1.964-2.154,7.185a1.619,1.619,0,0,0,1.425,1.939c1.694.167,4.3.381,6.39.366a1.615,1.615,0,0,0,1.6-1.8,13.617,13.617,0,0,0-3.179-7.468Z" transform="translate(-573.902 -2997.568)" fill="url(#linear-gradient-55)"/>
      <path id="Path_2313" data-name="Path 2313" d="M601.656,3142.547l1.29,7.039s1.276.949,3.8.261l-.616-7.573Z" transform="translate(-581.256 -2960.007)" fill="url(#linear-gradient-56)"/>
      <path id="Path_2314" data-name="Path 2314" d="M565.25,2536.359c-5.2,31.362,1.127,77.513,3.26,86.546a1.408,1.408,0,0,0,1.137,1.07,9.457,9.457,0,0,0,4.064-.162,1.291,1.291,0,0,0,.928-1.189c.286-7.3-.229-52.135,4.613-69.854a4.025,4.025,0,0,1,1.552-2.22l9.4-6.681.721-10.8Z" transform="translate(-548.337 -2437.832)" fill="url(#linear-gradient-57)"/>
      <g id="Group_1163" data-name="Group 1163" transform="translate(14.973 14.984)">
        <path id="Path_2315" data-name="Path 2315" d="M598.723,2124.851c-15.573-.257-32.756,4.089-32.756,4.089-4.642,27.086-.812,58.328-.812,58.328,12.056,3.162,25.657-1.933,25.657-1.933,2-11.321,11.353-43.183,11.353-43.183a51.3,51.3,0,0,0,19.039-6.042c-3.937-4.564-5.794-10.371-6.6-13.8A52.253,52.253,0,0,1,598.723,2124.851Z" transform="translate(-563.67 -2100.732)" fill="url(#linear-gradient-58)"/>
        <path id="Path_2316" data-name="Path 2316" d="M950.33,1972.475a2.98,2.98,0,0,0-3.466-.974c-2.292,9.68-14.308,17.53-26.653,21.366.806,3.433,2.662,9.24,6.6,13.8C947.3,1995.153,950.33,1972.475,950.33,1972.475Z" transform="translate(-869.276 -1971.295)" fill="url(#linear-gradient-59)"/>
      </g>
      <g id="Group_1164" data-name="Group 1164" transform="translate(92.561 0)">
        <path id="Path_2317" data-name="Path 2317" d="M1109.88,1883.04c.16.509-1.693,1.284-2.785-.8-.038-1-.645-5.271-.049-6.084a79.6,79.6,0,0,1,9.329-9.753,1.465,1.465,0,0,1,.183,2.035l-2.986,3.11a14.445,14.445,0,0,1,1.743,3.446,4.183,4.183,0,0,1-.417,3.079c-.524.944-1.239,2.172-1.915,3.132A4.131,4.131,0,0,1,1109.88,1883.04Z" transform="translate(-1106.785 -1866.406)" fill="url(#linear-gradient-60)"/>
        <path id="Path_2318" data-name="Path 2318" d="M1123.707,1916.548l-2.721,2.306-.854,2.3,2.426,2.691s.816-4.557,1.422-5.543S1124.271,1916.836,1123.707,1916.548Z" transform="translate(-1118.225 -1909.385)" fill="url(#linear-gradient-61)"/>
      </g>
      <path id="Path_2319" data-name="Path 2319" d="M484.091,2183.828l-5.973-15.08s-14.546,9.884-16.938,22.415a34.417,34.417,0,0,1,12.645,3.389C474.9,2188.635,484.091,2183.828,484.091,2183.828Z" transform="translate(-460.847 -2125.556)" fill="url(#linear-gradient-62)"/>
      <path id="Path_2320" data-name="Path 2320" d="M494.813,2332.507s-16.332,9.23-21.842,1.349a6.2,6.2,0,0,1-1.136-4.813,34.422,34.422,0,0,0-12.645-3.389,17.3,17.3,0,0,0,1.88,11.856c9.653,17.657,35.9-.976,35.9-.976Z" transform="translate(-458.858 -2260.046)" fill="url(#linear-gradient-63)"/>
      <g id="Group_1165" data-name="Group 1165" transform="translate(33.957 47.4)">
        <path id="Path_2321" data-name="Path 2321" d="M696.593,2253.087l8.913-31.127a.907.907,0,0,1,.768-.654c1.615-.188,6.294-.718,11.7-1.175a152.561,152.561,0,0,1,17.14-.707,1.833,1.833,0,0,1,1.568,2.646c-3.338,6.71-12.868,25.548-17.8,32.009a.913.913,0,0,1-.735.361l-20.68-.192A.911.911,0,0,1,696.593,2253.087Z" transform="translate(-696.557 -2216.35)" fill="url(#linear-gradient-64)"/>
        <path id="Path_2322" data-name="Path 2322" d="M848.223,2199.292l6.462-1.077a.464.464,0,0,1,.517.6l-.64,1.938a.463.463,0,0,1-.379.314l-6.219.831a.464.464,0,0,1-.513-.565l.4-1.692A.464.464,0,0,1,848.223,2199.292Z" transform="translate(-825.885 -2198.209)" fill="url(#linear-gradient-65)"/>
        <path id="Path_2323" data-name="Path 2323" d="M818.985,2216.382l.532-2.773a.641.641,0,0,1,.565-.517l13.052-1.324a.641.641,0,0,1,.688.787l-.83,3.455a.641.641,0,0,1-.591.49l-12.755.642A.641.641,0,0,1,818.985,2216.382Z" transform="translate(-801.485 -2209.828)" fill="url(#linear-gradient-66)"/>
        <path id="Path_2324" data-name="Path 2324" d="M706.722,2339.048s-1.242-5.105-.741-6.917,1.471-4.14,4.706-3.623a47.337,47.337,0,0,1,7.05,1.88,1.851,1.851,0,0,1-2.651,1.6l1.524,1.18s-.218,1.889-2.294.88l1.418,1.564a1.652,1.652,0,0,1-2.419.556C711.787,2335.171,711.055,2339.663,706.722,2339.048Z" transform="translate(-704.533 -2309.831)" fill="url(#linear-gradient-67)"/>
      </g>
      <path id="Path_2325" data-name="Path 2325" d="M668.719,2051.625l-4.955,14.33a.516.516,0,0,0,.235.622c1.351.747,6.217,2.906,12.081-.812a2.432,2.432,0,0,0,1.12-1.737l1.6-12.4Z" transform="translate(-634.466 -2025.165)" fill="url(#linear-gradient-68)"/>
      <g id="Group_1166" data-name="Group 1166" transform="translate(24.848 5.743)">
        <path id="Path_2326" data-name="Path 2326" d="M697.889,1958.735s5.441,10.243,4.744,14.38-7.441,3.84-13.33.48l-4.115-11.06Z" transform="translate(-677.703 -1951.288)" fill="url(#linear-gradient-69)"/>
        <path id="Path_2327" data-name="Path 2327" d="M644.652,1923.48a.422.422,0,0,0,.184-.618,11.019,11.019,0,0,1-1.514-3.214s-.978-.626,2.49-1.456,8.639-2.118,9.726-5.07c1.06-2.878-1.725-10.115-6.167-4.349a.422.422,0,0,1-.669,0c-.728-.948-2.643-2.915-5.3-1.722-2.487,1.116-2.768,2.939-2.733,3.858a.42.42,0,0,1-.5.43,4.869,4.869,0,0,0-5.685,2.65c-1.16,2.55-.406,3.994.281,4.7a.421.421,0,0,1-.18.7,2.533,2.533,0,0,0-1.787,2.89c.148,2.677,3.141,2.442,3.993,2.319a.423.423,0,0,1,.375.133c.731.809,4.023,4.242,7.586,4.656a.426.426,0,0,0,.447-.563l-1.542-4.483a.424.424,0,0,1,.229-.526Z" transform="translate(-632.792 -1906.604)" fill="url(#linear-gradient-70)"/>
        <path id="Path_2328" data-name="Path 2328" d="M695.12,2021.292s-3.874-2.658-4.157-.42,3.489,3.242,5.357,2.408Z" transform="translate(-682.639 -2003.78)" fill="url(#linear-gradient-71)"/>
      </g>
    </g>
    <g id="Group_1168" data-name="Group 1168" transform="translate(738.408 740.005)">
      <path id="Path_2329" data-name="Path 2329" d="M2499.455,2566.888c.688,0,1.245-.4,1.245-.9V2458.73c0-.5-.557-.9-1.245-.9s-1.245.4-1.245.9v107.261C2498.21,2566.487,2498.767,2566.888,2499.455,2566.888Z" transform="translate(-2496.483 -2456.718)" fill="url(#linear-gradient-72)"/>
      <path id="Path_2330" data-name="Path 2330" d="M2658.513,2562.144c.688,0,1.245-.4,1.245-.9V2453.2c0-.5-.557-.9-1.245-.9s-1.245.4-1.245.9V2561.24C2657.268,2561.74,2657.825,2562.144,2658.513,2562.144Z" transform="translate(-2632.819 -2451.974)" fill="url(#linear-gradient-73)"/>
      <path id="Path_2331" data-name="Path 2331" d="M2925.62,2562.678a1.364,1.364,0,0,0,.486-.089,1.072,1.072,0,0,0,.658-1.459l-51.82-108.941s-2.973-.566-2.7,0L2924.474,2562A1.258,1.258,0,0,0,2925.62,2562.678Z" transform="translate(-2817.066 -2451.665)" fill="url(#linear-gradient-74)"/>
      <path id="Path_2332" data-name="Path 2332" d="M2651.6,2564.386a1.364,1.364,0,0,0,.486-.089,1.072,1.072,0,0,0,.658-1.459l-51.575-108.425c-.269-.565-3.026-.675-2.757-.109l52.041,109.406A1.257,1.257,0,0,0,2651.6,2564.386Z" transform="translate(-2582.353 -2453.373)" fill="url(#linear-gradient-75)"/>
      <rect id="Rectangle_258" data-name="Rectangle 258" width="76.358" height="3.135" rx="1.568" transform="translate(76.359 3.135) rotate(180)" fill="url(#linear-gradient-76)"/>
      <rect id="Rectangle_259" data-name="Rectangle 259" width="39.427" height="2.225" transform="translate(27.314 20.756)" fill="url(#linear-gradient-77)"/>
      <rect id="Rectangle_260" data-name="Rectangle 260" width="39.427" height="2.225" transform="translate(39.025 46.06)" fill="url(#linear-gradient-78)"/>
      <path id="Path_2333" data-name="Path 2333" d="M2837.8,2951.8h39.427a1.119,1.119,0,1,0,0-2.225H2837.8a1.119,1.119,0,1,0,0,2.225Z" transform="translate(-2786.497 -2878.214)" fill="url(#linear-gradient-79)"/>
      <path id="Path_2334" data-name="Path 2334" d="M2920.924,3128.934h39.427a1.119,1.119,0,1,0,0-2.225h-39.427a1.119,1.119,0,1,0,0,2.225Z" transform="translate(-2857.743 -3030.041)" fill="url(#linear-gradient-80)"/>
    </g>
    <g id="Group_1169" data-name="Group 1169" transform="translate(728.06 471.26)">
      <path id="Path_2335" data-name="Path 2335" d="M2416.481,582.573,2430.9,570.6a7.744,7.744,0,0,1,4.947-1.786h69.808a7.745,7.745,0,0,1,7.744,7.745V600.5a7.745,7.745,0,0,1-7.744,7.744h-69.808a7.744,7.744,0,0,1-4.947-1.786l-14.418-11.971A7.744,7.744,0,0,1,2416.481,582.573Z" transform="translate(-2413.684 -568.816)" fill="url(#linear-gradient-81)"/>
      <path id="Rectangle_261" data-name="Rectangle 261" d="M12.149,0h0A12.149,12.149,0,0,1,24.3,12.149v0A12.149,12.149,0,0,1,12.149,24.3h0A12.149,12.149,0,0,1,0,12.149v0A12.149,12.149,0,0,1,12.149,0Z" transform="translate(64.863 6.793)" fill="#fff"/>
      <path id="Path_2336" data-name="Path 2336" d="M2905.35,645.774l6.517,11.856,7.03-17.512-7.671,9.229Z" transform="translate(-2835.112 -629.932)" fill="url(#linear-gradient-82)"/>
    </g>
    <g id="Group_1178" data-name="Group 1178" transform="translate(496.549 533.588)">
      <g id="Group_1171" data-name="Group 1171" transform="translate(0 70.862)">
        <circle id="Ellipse_87" data-name="Ellipse 87" cx="16.243" cy="16.243" r="16.243" transform="matrix(0.585, -0.811, 0.811, 0.585, 0, 26.359)" fill="url(#linear-gradient-83)"/>
        <circle id="Ellipse_88" data-name="Ellipse 88" cx="15.703" cy="15.703" r="15.703" transform="translate(0.466 22.673) rotate(-45)" fill="url(#linear-gradient-84)"/>
        <path id="Path_2337" data-name="Path 2337" d="M860.464,1563.08a.525.525,0,0,1-.429-.784,14.957,14.957,0,0,1,13.823-7.562,15.18,15.18,0,0,1,2.693.382.525.525,0,1,1-.241,1.022,14.147,14.147,0,0,0-2.506-.355,13.912,13.912,0,0,0-12.857,7.034A.525.525,0,0,1,860.464,1563.08Z" transform="translate(-850.415 -1547.06)" fill="#fff" opacity="0.78"/>
        <circle id="Ellipse_89" data-name="Ellipse 89" cx="13.291" cy="13.291" r="13.291" transform="translate(4.202 23.033) rotate(-45)" fill="#fff" opacity="0.78"/>
        <g id="Group_1170" data-name="Group 1170" transform="translate(16.802 13.616)">
          <path id="Path_2338" data-name="Path 2338" d="M915.11,1615.677l.074-1.444a11.786,11.786,0,0,1-4.007-1.087.836.836,0,0,1-.411-1.01l.436-1.326a.843.843,0,0,1,1.171-.492,9.789,9.789,0,0,0,3.7.98c1.45.074,2.556-.361,2.608-1.369.047-.909-.761-1.493-2.749-2.137-2.835-.934-4.835-2.293-4.7-4.825.117-2.286,1.878-3.945,4.8-4.263l.074-1.444a.842.842,0,0,1,.885-.8l.848.044a.842.842,0,0,1,.8.885l-.067,1.3a10.748,10.748,0,0,1,3.182.742.838.838,0,0,1,.471,1.037l-.4,1.227a.84.84,0,0,1-1.137.51,8.772,8.772,0,0,0-3.12-.734c-1.72-.088-2.248.6-2.281,1.238-.04.786.964,1.38,3.165,2.183,3.146,1.122,4.4,2.518,4.282,4.9-.112,2.187-1.835,4.07-5.006,4.4l-.083,1.616a.843.843,0,0,1-.885.8l-.848-.044A.843.843,0,0,1,915.11,1615.677Z" transform="translate(-910.724 -1596.461)" fill="url(#linear-gradient-85)"/>
        </g>
      </g>
      <g id="Group_1173" data-name="Group 1173" transform="translate(0.726 0.043)">
        <circle id="Ellipse_90" data-name="Ellipse 90" cx="26.508" cy="26.508" r="26.508" transform="translate(9.734 9.734)" fill="url(#linear-gradient-86)"/>
        <circle id="Ellipse_91" data-name="Ellipse 91" cx="25.627" cy="25.627" r="25.627" transform="translate(0 36.242) rotate(-45)" fill="url(#linear-gradient-87)"/>
        <path id="Path_2339" data-name="Path 2339" d="M904.994,1102.983a.492.492,0,0,1-.4-.735,24.047,24.047,0,0,1,22.224-12.159,24.294,24.294,0,0,1,4.33.615.492.492,0,1,1-.226.958,23.375,23.375,0,0,0-4.155-.59,23.069,23.069,0,0,0-21.318,11.663A.492.492,0,0,1,904.994,1102.983Z" transform="translate(-889.336 -1077.964)" fill="#fff" opacity="0.78"/>
        <circle id="Ellipse_92" data-name="Ellipse 92" cx="21.69" cy="21.69" r="21.69" transform="translate(6.097 36.828) rotate(-45)" fill="#fff" opacity="0.78"/>
        <g id="Group_1172" data-name="Group 1172" transform="translate(26.66 21.461)">
          <path id="Path_2340" data-name="Path 2340" d="M991.967,1187l.121-2.357a19.247,19.247,0,0,1-6.539-1.773,1.365,1.365,0,0,1-.671-1.649l.711-2.164a1.376,1.376,0,0,1,1.911-.8,15.981,15.981,0,0,0,6.039,1.6c2.366.121,4.172-.59,4.257-2.235.076-1.484-1.242-2.436-4.486-3.487-4.626-1.524-7.89-3.743-7.678-7.874.192-3.73,3.065-6.438,7.837-6.956l.121-2.357a1.375,1.375,0,0,1,1.444-1.3l1.385.071a1.375,1.375,0,0,1,1.3,1.444l-.109,2.116a17.544,17.544,0,0,1,5.193,1.21,1.368,1.368,0,0,1,.769,1.693l-.655,2a1.371,1.371,0,0,1-1.855.832,14.317,14.317,0,0,0-5.093-1.2c-2.808-.144-3.669.978-3.723,2.021-.066,1.283,1.573,2.252,5.165,3.563,5.134,1.832,7.188,4.109,6.988,8-.183,3.57-2.995,6.642-8.17,7.181l-.135,2.637a1.375,1.375,0,0,1-1.444,1.3l-1.385-.071A1.375,1.375,0,0,1,991.967,1187Z" transform="translate(-984.808 -1155.64)" fill="url(#linear-gradient-88)"/>
        </g>
      </g>
      <g id="Group_1175" data-name="Group 1175" transform="translate(34.055 47.032)">
        <circle id="Ellipse_93" data-name="Ellipse 93" cx="27.277" cy="27.277" r="27.277" transform="translate(0 38.575) rotate(-45)" fill="url(#linear-gradient-89)"/>
        <circle id="Ellipse_94" data-name="Ellipse 94" cx="26.37" cy="26.37" r="26.37" transform="translate(1.283 38.575) rotate(-45)" fill="url(#linear-gradient-90)"/>
        <path id="Path_2341" data-name="Path 2341" d="M1150.46,1443.792a.492.492,0,0,1-.4-.736,24.729,24.729,0,0,1,22.855-12.5,25.006,25.006,0,0,1,4.453.632.492.492,0,1,1-.226.958,24.088,24.088,0,0,0-4.278-.607,23.751,23.751,0,0,0-21.949,12.008A.492.492,0,0,1,1150.46,1443.792Z" transform="translate(-1133.065 -1416.779)" fill="#fff" opacity="0.78"/>
        <circle id="Ellipse_95" data-name="Ellipse 95" cx="22.319" cy="22.319" r="22.319" transform="matrix(0.292, -0.956, 0.956, 0.292, 11.251, 53.998)" fill="#fff" opacity="0.78"/>
        <g id="Group_1174" data-name="Group 1174" transform="translate(28.716 23.366)">
          <path id="Path_2342" data-name="Path 2342" d="M1239.868,1530.172l.125-2.425a19.807,19.807,0,0,1-6.729-1.825,1.4,1.4,0,0,1-.69-1.7l.732-2.227a1.416,1.416,0,0,1,1.967-.827,16.438,16.438,0,0,0,6.215,1.645c2.435.125,4.293-.607,4.38-2.3.078-1.527-1.278-2.507-4.616-3.588-4.761-1.568-8.119-3.851-7.9-8.1.2-3.838,3.154-6.624,8.064-7.158l.125-2.425a1.415,1.415,0,0,1,1.485-1.34l1.425.073a1.414,1.414,0,0,1,1.34,1.485l-.112,2.177a18.049,18.049,0,0,1,5.344,1.245,1.408,1.408,0,0,1,.791,1.742l-.674,2.06a1.411,1.411,0,0,1-1.909.856,14.731,14.731,0,0,0-5.24-1.232c-2.889-.148-3.776,1.006-3.831,2.079-.068,1.321,1.619,2.317,5.315,3.666,5.282,1.885,7.4,4.228,7.191,8.231-.189,3.673-3.082,6.835-8.406,7.389l-.139,2.714a1.415,1.415,0,0,1-1.486,1.34l-1.425-.073A1.415,1.415,0,0,1,1239.868,1530.172Z" transform="translate(-1232.502 -1497.902)" fill="url(#linear-gradient-91)"/>
        </g>
      </g>
      <g id="Group_1177" data-name="Group 1177" transform="translate(66.059 0)">
        <circle id="Ellipse_96" data-name="Ellipse 96" cx="21.815" cy="21.815" r="21.815" transform="translate(4.837 47.92) rotate(-80.909)" fill="url(#linear-gradient-92)"/>
        <circle id="Ellipse_97" data-name="Ellipse 97" cx="21.09" cy="21.09" r="21.09" transform="translate(0 29.825) rotate(-45)" fill="url(#linear-gradient-93)"/>
        <path id="Path_2343" data-name="Path 2343" d="M1342.613,1084.748a.537.537,0,0,1-.439-.8,19.922,19.922,0,0,1,18.411-10.072,20.183,20.183,0,0,1,3.587.509.537.537,0,1,1-.247,1.046,19.169,19.169,0,0,0-3.4-.482,18.853,18.853,0,0,0-17.422,9.531A.537.537,0,0,1,1342.613,1084.748Z" transform="translate(-1329.734 -1064.027)" fill="#fff" opacity="0.78"/>
        <circle id="Ellipse_98" data-name="Ellipse 98" cx="17.85" cy="17.85" r="17.85" transform="translate(5.017 30.308) rotate(-45)" fill="#fff" opacity="0.78"/>
        <g id="Group_1176" data-name="Group 1176" transform="translate(21.94 17.661)">
          <path id="Path_2344" data-name="Path 2344" d="M1414.988,1154.551l.1-1.939a15.836,15.836,0,0,1-5.381-1.459,1.123,1.123,0,0,1-.552-1.357l.585-1.781a1.132,1.132,0,0,1,1.573-.661,13.152,13.152,0,0,0,4.97,1.316c1.947.1,3.433-.486,3.5-1.839.063-1.221-1.022-2-3.691-2.87-3.807-1.255-6.493-3.08-6.319-6.48.157-3.07,2.522-5.3,6.449-5.725l.1-1.94a1.132,1.132,0,0,1,1.188-1.072l1.139.058a1.132,1.132,0,0,1,1.072,1.188l-.089,1.741a14.435,14.435,0,0,1,4.273,1,1.126,1.126,0,0,1,.633,1.393l-.539,1.648a1.128,1.128,0,0,1-1.527.685,11.784,11.784,0,0,0-4.191-.985c-2.31-.119-3.02.8-3.064,1.663-.054,1.056,1.295,1.853,4.251,2.932,4.225,1.507,5.915,3.381,5.751,6.583-.151,2.938-2.465,5.466-6.723,5.909l-.111,2.17a1.132,1.132,0,0,1-1.188,1.072l-1.14-.059A1.132,1.132,0,0,1,1414.988,1154.551Z" transform="translate(-1409.097 -1128.742)" fill="url(#linear-gradient-94)"/>
        </g>
      </g>
    </g>
  </g>
</svg>
