<svg xmlns="http://www.w3.org/2000/svg" xmlns:xlink="http://www.w3.org/1999/xlink" width="299" height="299" viewBox="0 0 299 299">
  <defs>
    <clipPath id="clip-path">
      <rect id="Rectangle_3093" data-name="Rectangle 3093" width="299" height="299" fill="none"/>
    </clipPath>
    <clipPath id="clip-path-2">
      <rect id="Rectangle_3091" data-name="Rectangle 3091" width="9.536" height="8.555" fill="none"/>
    </clipPath>
  </defs>
  <g id="Group_7942" data-name="Group 7942" clip-path="url(#clip-path)">
    <path id="Path_4274" data-name="Path 4274" d="M217.005,96.034v39.432H199.683a2.786,2.786,0,0,1-2.783-2.787V98.817a2.783,2.783,0,0,1,2.783-2.783Z" transform="translate(-79.154 -38.606)" fill="#1d253d"/>
    <path id="Path_4275" data-name="Path 4275" d="M297.959,87.264c-1.781,16.766-11.3,20.762-11.3,20.762H230.521V68.594c15.752-3.029,23.253-22.428,21.63-32.156a20.843,20.843,0,0,0,.011-5.947,3.843,3.843,0,0,1,4.4-2.661c10.83,1.7,11.448,24.168,11.364,31.492a2.4,2.4,0,0,0,2.231,2.423,122.961,122.961,0,0,1,21.073,3.167c5.19,1.359,7.344,2.718,7.982,5.689.675,3.133-.334,8.059-1.248,16.662" transform="translate(-92.669 -11.166)" fill="#fea30a"/>
    <path id="Path_4276" data-name="Path 4276" d="M217.005,96.034v33.427H199.683a2.785,2.785,0,0,1-2.783-2.783V98.817a2.783,2.783,0,0,1,2.783-2.783Z" transform="translate(-79.154 -38.606)" fill="#465a94"/>
    <path id="Path_4277" data-name="Path 4277" d="M299.207,70.569c-.276,2.741-.776,6.208-1.248,10.658-1.781,16.766-11.3,20.762-11.3,20.762H230.521V68.561c7.852-1.509,13.964-7.316,17.668-14.176,2.672-4.949,3.507-10.531,3.861-16.074.207-3.239-1.055-11.645,4.508-10.513,10.83,1.7,11.448,24.167,11.364,31.492a2.4,2.4,0,0,0,2.231,2.423,122.965,122.965,0,0,1,21.073,3.168c5.191,1.359,7.344,2.718,7.982,5.689" transform="translate(-92.669 -11.133)" fill="#feb12f"/>
    <path id="Path_4278" data-name="Path 4278" d="M306.76,161.971h8.449l-4.083,4.459v4.831h-6v-4.174a6.8,6.8,0,0,1,.592-2.776Z" transform="translate(-122.659 -65.112)" fill="#bf6d3e"/>
    <path id="Path_4279" data-name="Path 4279" d="M305.13,162.972a2.671,2.671,0,0,0-.169-4.878,3.925,3.925,0,0,0-3.294-3.235,29.2,29.2,0,0,1,2.241,8.508Z" transform="translate(-121.27 -62.253)" fill="#bf6d3e"/>
    <path id="Path_4280" data-name="Path 4280" d="M305.053,156.189a1.81,1.81,0,0,1,.93,1.441,2.32,2.32,0,0,0,.357.949,3.664,3.664,0,0,0,.864.6,2.337,2.337,0,0,1,1.041,1.677,4.971,4.971,0,0,1-.459,2.225c-.086.23-.426.05-.339-.179a4.334,4.334,0,0,0,.4-2.11,2.143,2.143,0,0,0-1.206-1.5,1.9,1.9,0,0,1-.669-.554,2.338,2.338,0,0,1-.31-.77c-.13-.524-.214-1.215-.792-1.432-.231-.086-.051-.425.179-.34" transform="translate(-122.516 -62.782)" fill="#80410e"/>
    <path id="Path_4281" data-name="Path 4281" d="M210.638,161.971h-8.449l4.083,4.459v4.831h6v-4.174a6.8,6.8,0,0,0-.592-2.776Z" transform="translate(-81.28 -65.112)" fill="#bf6d3e"/>
    <path id="Path_4282" data-name="Path 4282" d="M276.412,210.816a66.989,66.989,0,0,0,13.616-11.742,244.772,244.772,0,0,0,2.8-24.479,41.491,41.491,0,0,1,7.692-.15,137.385,137.385,0,0,1,1.839,32.583c-6.784,6.706-14.024,14.191-20.807,20.9Z" transform="translate(-111.118 -70.079)" fill="#465a94"/>
    <path id="Path_4283" data-name="Path 4283" d="M304.268,219.6a10.723,10.723,0,0,0,1.014-1.751q-.048,3.331-.269,6.674c-6.784,6.706-14.024,14.192-20.807,20.9l-1.195-3.976c7.509-6.76,14.926-13.668,21.257-21.844" transform="translate(-113.77 -87.577)" fill="#1d253d"/>
    <path id="Path_4284" data-name="Path 4284" d="M304.783,181.145l5.132.122c.246.006.264.39.017.384l-5.132-.123c-.246-.005-.264-.389-.017-.383" transform="translate(-122.452 -72.82)" fill="#1d253d"/>
    <path id="Path_4285" data-name="Path 4285" d="M230.013,210.816A66.989,66.989,0,0,1,216.4,199.074a244.763,244.763,0,0,1-2.8-24.479,41.491,41.491,0,0,0-7.692-.15,137.385,137.385,0,0,0-1.839,32.583c6.784,6.706,14.024,14.191,20.807,20.9Z" transform="translate(-81.919 -70.079)" fill="#465a94"/>
    <path id="Path_4286" data-name="Path 4286" d="M225.2,238.215q.171,1.926.277,3.858l-.6,2c-6.783-6.706-14.023-14.192-20.807-20.9q-.293-4.351-.282-8.683c3.723,9.942,12.154,17.552,21.413,23.724" transform="translate(-81.921 -86.225)" fill="#1d253d"/>
    <path id="Path_4287" data-name="Path 4287" d="M207.907,181.4l6.8-.344a.192.192,0,0,1,.017.383l-6.8.344a.192.192,0,0,1-.017-.383" transform="translate(-83.508 -72.786)" fill="#1d253d"/>
    <path id="Path_4288" data-name="Path 4288" d="M234.108,435.35c0,.939.008,1.853.02,2.73h5.45l.3-2.73Z" transform="translate(-94.111 -175.011)" fill="#001e4a"/>
    <path id="Path_4289" data-name="Path 4289" d="M279.231,435.35c0,.939.008,1.853.02,2.73h5.45l.3-2.73Z" transform="translate(-112.251 -175.011)" fill="#001e4a"/>
    <path id="Path_4290" data-name="Path 4290" d="M278.093,311.121c-14.439,1.588-16.53,9.85-16.53,9.85l5.831,34.435,3.061,31.54h9.715c2.934-39.438-2.077-75.825-2.077-75.825" transform="translate(-105.148 -125.071)" fill="#1d253d"/>
    <path id="Path_4291" data-name="Path 4291" d="M253.007,321.613s6.423-4.115,7.175-7.716l-26.03.858s-3.624,46.5-3.522,71.771h9.932Z" transform="translate(-92.713 -126.187)" fill="#465a94"/>
    <path id="Path_4292" data-name="Path 4292" d="M252.276,331.384,240.562,394.02h-9.932c-.077-18.8,1.911-50.893,2.933-65.3a53.742,53.742,0,0,0,18.713,2.666" transform="translate(-92.713 -132.145)" fill="#465a94"/>
    <path id="Path_4293" data-name="Path 4293" d="M235.536,322.76c.352-4.955.589-8.005.589-8.005l26.03-.857c-.752,3.6-7.175,7.715-7.175,7.715l-.731,3.813a53.742,53.742,0,0,1-18.713-2.666" transform="translate(-94.685 -126.187)" fill="#1d253d"/>
    <path id="Path_4294" data-name="Path 4294" d="M261.582,316.4a9.256,9.256,0,0,0,2.68-4.126L239.9,311.121s-.2,2.619-.291,3.708a66.879,66.879,0,0,0,21.976,1.571" transform="translate(-96.322 -125.071)" fill="#1d253d"/>
    <path id="Path_4295" data-name="Path 4295" d="M237.019,439.114l-6.379-.175a14.84,14.84,0,0,0-3.665,6.665h11.517a27.125,27.125,0,0,0-1.473-6.49" transform="translate(-91.244 -176.453)" fill="#001e4a"/>
    <path id="Path_4296" data-name="Path 4296" d="M226.856,450.085c-.06.239-.121.476-.168.718a.609.609,0,0,0,.594.732h10.559a.607.607,0,0,0,.607-.649c-.021-.267-.047-.534-.075-.8Z" transform="translate(-91.124 -180.934)" fill="#a86114"/>
    <path id="Path_4297" data-name="Path 4297" d="M277.664,439.114l6.379-.175c1.777,1.85,12.481,4.177,13.1,6.665H276.191a27.124,27.124,0,0,1,1.473-6.49" transform="translate(-111.029 -176.453)" fill="#001e4a"/>
    <path id="Path_4298" data-name="Path 4298" d="M297.093,450.085c.059.239.121.476.168.718a.61.61,0,0,1-.594.732h-20a.606.606,0,0,1-.606-.649c.021-.267.047-.534.075-.8Z" transform="translate(-110.977 -180.934)" fill="#a86114"/>
    <path id="Path_4299" data-name="Path 4299" d="M239.752,383.552c-.791-1.359-1.618-2.683-2.274-4.117a38.745,38.745,0,0,1-1.615-4.472.149.149,0,0,0-.288.08,20.451,20.451,0,0,0,1.5,4.565,18.9,18.9,0,0,0,2.391,4.16c.129.161.381-.045.281-.216" transform="translate(-94.7 -150.693)" fill="#1d253d"/>
    <path id="Path_4300" data-name="Path 4300" d="M233.163,433.8h6.33c.246,0,.264.383.017.383h-6.33c-.246,0-.264-.383-.017-.383" transform="translate(-93.66 -174.386)" fill="#1d253d"/>
    <path id="Path_4301" data-name="Path 4301" d="M265.172,239.518a4.339,4.339,0,0,0-3.006-3.793,29.477,29.477,0,0,0-11.919-1.494,50.764,50.764,0,0,0-10.935,2.089,4.489,4.489,0,0,0-3.421,4.9,170.3,170.3,0,0,1,2.028,38.72c9.541,2.768,19.06,3.575,28.081.424.307-13.179-.211-27.644-.828-40.845" transform="translate(-94.807 -94.129)" fill="#a6f3ff"/>
    <path id="Path_4302" data-name="Path 4302" d="M258.651,238.636a14.909,14.909,0,0,0-2.917,1.94c-.386-.717-.745-1.451-1.115-2.176q-.306-.6-.614-1.191a6.906,6.906,0,0,0-.652-1.164c-.112-.141-.33.013-.288.167a6.722,6.722,0,0,0,.542,1.174q.309.623.622,1.242c.408.812.842,1.616,1.225,2.44a.242.242,0,0,0,.375.048,17.868,17.868,0,0,1,3.049-2.095c.254-.137.03-.515-.225-.386" transform="translate(-101.73 -94.868)" fill="#47bed1"/>
    <path id="Path_4303" data-name="Path 4303" d="M266.23,239q-.022-.521-.029-1.044a2.326,2.326,0,0,0-.078-1,.159.159,0,0,0-.272,0,2.033,2.033,0,0,0-.077.962q.006.543.028,1.084c.023.578.065,1.155.115,1.731q-.715-.408-1.432-.815c-.293-.166-.588-.328-.883-.49a3.127,3.127,0,0,0-.913-.419.118.118,0,0,0-.114.2,3.11,3.11,0,0,0,.822.572c.29.172.579.343.871.511q.893.513,1.788,1.023a.219.219,0,0,0,.326-.187q-.106-1.058-.152-2.122" transform="translate(-105.542 -95.224)" fill="#47bed1"/>
    <path id="Path_4304" data-name="Path 4304" d="M261.685,240.765l-1.355,1.072.678,1.06-.126,36.081,2.691,1.4,2.286-1.4L262.706,243.1l.389-1.42Z" transform="translate(-104.653 -96.788)" fill="#dd4f05"/>
    <path id="Path_4305" data-name="Path 4305" d="M233.956,243.854c-.457-3.081.8-6.419,3.29-7.323a24.807,24.807,0,0,1,6.281-1.463c1.683,7.012,8.607,21.344,8.607,21.344s5.386-16.4,2.218-22.054a19.515,19.515,0,0,1,7.908,1.5c1.909.972,3.106,4.112,3.249,6.546.884,15.049,3.7,30.691,4.88,45.954a15.356,15.356,0,0,1-4.973.846c-2.577.232-5.165.35-7.751.445-8.385.311-16.673.042-24.6-3.006,1.15-14.3,3.006-28.551.89-42.791" transform="translate(-93.693 -94.207)" fill="#465a94"/>
    <path id="Path_4306" data-name="Path 4306" d="M236.969,252.779a147.625,147.625,0,0,1-2.571,40.93c-.445-.153-.889-.312-1.331-.482,1.142-14.2,2.979-28.361.93-42.507q1.467,1.055,2.973,2.059" transform="translate(-93.693 -100.789)" fill="#1d253d"/>
    <path id="Path_4307" data-name="Path 4307" d="M273.04,249.82l2.843-.974.711-.243a3.876,3.876,0,0,0,.629-.231c.409-.226.249-.71.133-1.067-.628-1.925-1.266-3.847-1.9-5.771a.192.192,0,0,1,.366-.118l1.615,4.907c.126.382.273.762.371,1.151a1.251,1.251,0,0,1-.027.868,1.112,1.112,0,0,1-.681.494c-.395.139-.792.271-1.188.407l-2.754.943a.192.192,0,0,1-.118-.365" transform="translate(-109.711 -96.998)" fill="#1d253d"/>
    <path id="Path_4308" data-name="Path 4308" d="M273.32,255.683l3.209,3.328c.17.177-.088.461-.26.283l-3.209-3.327c-.17-.178.088-.462.26-.283" transform="translate(-109.748 -102.762)" fill="#1d253d"/>
    <path id="Path_4309" data-name="Path 4309" d="M266.243,270.373l7.278-9.131c.154-.194.437.066.283.259l-7.279,9.131c-.154.193-.437-.067-.283-.26" transform="translate(-107.012 -104.992)" fill="#1d253d"/>
    <path id="Path_4310" data-name="Path 4310" d="M250.133,251.243l-2.951-.568-.738-.142a3.849,3.849,0,0,1-.654-.141c-.437-.167-.346-.669-.28-1.039.355-1.994.718-3.986,1.077-5.978a.192.192,0,0,0-.378-.066q-.458,2.542-.916,5.084c-.071.4-.164.792-.207,1.192a1.25,1.25,0,0,0,.147.855,1.11,1.11,0,0,0,.743.395c.41.083.822.158,1.232.237l2.858.55a.192.192,0,0,0,.066-.378" transform="translate(-98.519 -97.748)" fill="#1d253d"/>
    <path id="Path_4311" data-name="Path 4311" d="M251.3,256.851l-2.714,3.742c-.145.2.151.445.3.245l2.714-3.742c.145-.2-.151-.444-.3-.244" transform="translate(-99.918 -103.224)" fill="#1d253d"/>
    <path id="Path_4312" data-name="Path 4312" d="M257.338,271.093l-8.478-8.029c-.179-.17-.423.127-.244.3l8.478,8.029c.18.17.423-.127.245-.3" transform="translate(-99.918 -105.731)" fill="#1d253d"/>
    <path id="Path_4313" data-name="Path 4313" d="M265,272.194q.411,6.444.641,12.9T265.922,298q.027,3.635,0,7.27c0,.246-.385.265-.383.017q.054-6.457-.074-12.913t-.437-12.907q-.174-3.631-.405-7.259a.192.192,0,0,1,.383-.017" transform="translate(-106.377 -109.351)" fill="#1d253d"/>
    <path id="Path_4314" data-name="Path 4314" d="M276.245,304.783a11.174,11.174,0,0,0,6.876-.277c.233-.086.35.28.118.365a11.536,11.536,0,0,1-7.08.287c-.237-.066-.154-.441.086-.374" transform="translate(-110.959 -122.406)" fill="#1d253d"/>
    <path id="Path_4315" data-name="Path 4315" d="M241.733,305.626a11.173,11.173,0,0,0,6.875-.277c.233-.086.35.28.119.365a11.54,11.54,0,0,1-7.08.286c-.237-.066-.153-.441.085-.374" transform="translate(-97.085 -122.745)" fill="#1d253d"/>
    <path id="Path_4316" data-name="Path 4316" d="M264.7,207.193a10.548,10.548,0,0,0-.465-7.122,2.365,2.365,0,0,0-.253-1.661,3.125,3.125,0,0,0-1.2-1.146,2.848,2.848,0,0,0-2.173-.319,1.873,1.873,0,0,0-1.359,1.621,8.754,8.754,0,0,0-1.638-.879,3.215,3.215,0,0,0-1.916-.12,1.953,1.953,0,0,0-1.364,1.275,1.415,1.415,0,0,0,.7,1.646,2.127,2.127,0,0,0-2.274-.394,3.008,3.008,0,0,0-1.484,1.635,3.117,3.117,0,0,0-.251,1.757,1.91,1.91,0,0,0,1.017,1.4,2.6,2.6,0,0,0-1.151,2.9,6.636,6.636,0,0,0,1.676,2.973,14.033,14.033,0,0,1,2.09,2.736Z" transform="translate(-100.835 -79.133)" fill="#7a2923"/>
    <path id="Path_4317" data-name="Path 4317" d="M265.189,207.848a10.937,10.937,0,0,0-.413-6.855,2.443,2.443,0,0,0-.225-1.6,2.89,2.89,0,0,0-1.065-1.1,2.368,2.368,0,0,0-1.932-.307,1.775,1.775,0,0,0-1.209,1.561,7.6,7.6,0,0,0-1.456-.847,2.654,2.654,0,0,0-1.7-.115,1.8,1.8,0,0,0-1.212,1.227,1.407,1.407,0,0,0,.623,1.585,1.784,1.784,0,0,0-2.021-.38,2.831,2.831,0,0,0-1.32,1.574,3.225,3.225,0,0,0-.223,1.691,1.835,1.835,0,0,0,.9,1.348,2.6,2.6,0,0,0-1.023,2.788,6.536,6.536,0,0,0,1.49,2.861,13.475,13.475,0,0,1,1.857,2.634Z" transform="translate(-101.65 -79.552)" fill="#3b1411"/>
    <path id="Path_4318" data-name="Path 4318" d="M255.564,219.488a46.3,46.3,0,0,1-.213,9.322,1.7,1.7,0,0,0,.7,1.6,6.949,6.949,0,0,0,4.947,1.18,1.678,1.678,0,0,0,1.405-1.8,55.5,55.5,0,0,1-.169-5.991,13.447,13.447,0,0,0-6.673-4.312" transform="translate(-102.646 -88.234)" fill="#bf6d3e"/>
    <path id="Path_4319" data-name="Path 4319" d="M262.39,223.8a13.447,13.447,0,0,0-6.672-4.312q.1,1.225.124,2.454a9.524,9.524,0,0,0,6.626,6.443c-.086-1.509-.115-3-.078-4.585" transform="translate(-102.799 -88.234)" fill="#80410e"/>
    <path id="Path_4320" data-name="Path 4320" d="M265.344,209.027c.578,4.334-.328,11.758-3.6,12.1-3.847.4-6.208-3.028-7.067-6.18a.937.937,0,0,1-.727.236,1.808,1.808,0,0,1-1.064-.762,2.134,2.134,0,0,1-.369-2.171,1.169,1.169,0,0,1,2.1-.024,12.174,12.174,0,0,1,1.024-4.51,1.729,1.729,0,0,1,1.045-1.039,12.248,12.248,0,0,1,7.212-.147,1.734,1.734,0,0,1,1.153,1.19,9.684,9.684,0,0,1,.291,1.311" transform="translate(-101.439 -82.834)" fill="#bf6d3e"/>
    <path id="Path_4321" data-name="Path 4321" d="M263.916,211.177c-.7-.886-2.617-.274-3.323.294-.129.1-.285.237-.27.42a.222.222,0,0,0,.157.205c.216.062.423-.118.6-.212a3.065,3.065,0,0,1,1.749-.335,3.757,3.757,0,0,0,.95.135c.252-.038.257-.352.134-.507" transform="translate(-104.65 -84.714)" fill="#3b1411"/>
    <path id="Path_4322" data-name="Path 4322" d="M264.077,213.9a.322.322,0,0,0-.088-.137.314.314,0,0,0-.137-.088.325.325,0,0,0-.164-.037l-.113.016a.412.412,0,0,0-.188.109l-.067.086a.424.424,0,0,0-.058.215v.046a.322.322,0,0,0,.036.164.388.388,0,0,0,.225.225.322.322,0,0,0,.164.036l.114-.015a.425.425,0,0,0,.188-.11l.066-.086a.418.418,0,0,0,.058-.215v-.046a.316.316,0,0,0-.036-.164" transform="translate(-105.831 -85.882)" fill="#3b1411"/>
    <path id="Path_4323" data-name="Path 4323" d="M271.873,214.339a.436.436,0,0,0-.389-.262l-.113.016a.418.418,0,0,0-.188.109l-.066.086a.424.424,0,0,0-.058.215v.046a.322.322,0,0,0,.036.164.384.384,0,0,0,.225.225.322.322,0,0,0,.164.036l.113-.015a.424.424,0,0,0,.188-.11l.066-.086a.418.418,0,0,0,.058-.215V214.5a.316.316,0,0,0-.036-.164" transform="translate(-108.965 -86.059)" fill="#3b1411"/>
    <path id="Path_4324" data-name="Path 4324" d="M272.419,212.068a1.291,1.291,0,0,0-.862-.576,2.014,2.014,0,0,0-1.008-.019.318.318,0,0,0-.228.35c.035.259.254.268.459.27a2.067,2.067,0,0,1,.8.148c.172.074,1.076.525.895-.046a.866.866,0,0,0-.053-.127" transform="translate(-108.668 -84.99)" fill="#3b1411"/>
    <path id="Path_4325" data-name="Path 4325" d="M266.025,226.574a1.476,1.476,0,0,0-.414,0,2.781,2.781,0,0,1-.365-.023,3.4,3.4,0,0,1-.377-.077,1.211,1.211,0,0,0-.406-.083.167.167,0,0,0-.116.28.776.776,0,0,0,.393.216,2.4,2.4,0,0,0,.414.1,3.25,3.25,0,0,0,.443.041.949.949,0,0,0,.48-.062.218.218,0,0,0-.051-.393" transform="translate(-106.25 -91.009)" fill="#804e26"/>
    <path id="Path_4326" data-name="Path 4326" d="M254.539,218.034a.272.272,0,0,1-.352-.179.254.254,0,0,1,.074-.207.25.25,0,0,1,.188-.1.171.171,0,0,0,.164-.215,1.045,1.045,0,0,0-1.017-.868.656.656,0,0,0-.544.371.478.478,0,0,0-.028.319c.016.062.094.222.182.142.052-.047.036-.118.053-.179a.626.626,0,0,1,.084-.183.359.359,0,0,1,.344-.145.688.688,0,0,1,.539.47.558.558,0,0,0-.321.649.588.588,0,0,0,.713.4c.181-.055.1-.343-.078-.283" transform="translate(-101.71 -87.019)" fill="#804e26"/>
    <path id="Path_4327" data-name="Path 4327" d="M269.675,217.308a6.192,6.192,0,0,0-.662-.461.651.651,0,0,1-.309-.661c.02-.2-.252-.227-.347-.094-.289.405.105.91.429,1.145a4.571,4.571,0,0,1,.588.413,1.355,1.355,0,0,1,.328.547,1.3,1.3,0,0,1-.21,1.216,1.877,1.877,0,0,1-1.128.579.142.142,0,0,0,0,.272,1.461,1.461,0,0,0,1.3-.4,1.678,1.678,0,0,0,.563-1.282,1.792,1.792,0,0,0-.55-1.271" transform="translate(-107.839 -86.836)" fill="#80410e"/>
    <path id="Path_4328" data-name="Path 4328" d="M265.709,224.138a3.279,3.279,0,0,1-3.661-1.332.192.192,0,0,1,.322-.209,2.885,2.885,0,0,0,3.22,1.177c.237-.07.356.295.119.365" transform="translate(-105.33 -89.449)" fill="#3b1411"/>
    <path id="Path_4329" data-name="Path 4329" d="M287.182,246.835q.444,8.608,1.561,17.162.313,2.395.679,4.782c.038.244-.346.259-.383.017q-1.305-8.52-1.94-17.123-.177-2.409-.3-4.821a.192.192,0,0,1,.383-.017" transform="translate(-115.293 -99.157)" fill="#1d253d"/>
    <path id="Path_4330" data-name="Path 4330" d="M215.711,162.972a2.671,2.671,0,0,1,.169-4.878,3.925,3.925,0,0,1,3.294-3.235,29.2,29.2,0,0,0-2.241,8.508Z" transform="translate(-86.112 -62.253)" fill="#bf6d3e"/>
    <path id="Path_4331" data-name="Path 4331" d="M216.777,156.189a1.807,1.807,0,0,0-.93,1.441,2.313,2.313,0,0,1-.358.949,3.664,3.664,0,0,1-.864.6,2.337,2.337,0,0,0-1.041,1.677,4.979,4.979,0,0,0,.459,2.225c.087.23.426.05.34-.179a4.333,4.333,0,0,1-.4-2.11,2.142,2.142,0,0,1,1.206-1.5,1.9,1.9,0,0,0,.669-.554,2.338,2.338,0,0,0,.31-.77c.13-.524.214-1.215.793-1.432.231-.086.05-.425-.179-.34" transform="translate(-85.855 -62.782)" fill="#80410e"/>
    <path id="Path_4332" data-name="Path 4332" d="M370.061,211.078a7.73,7.73,0,0,1,5.394,6.079,4.527,4.527,0,0,0,.506,1.894c.4.578,1.145.932,1.3,1.615.165.727-.434,1.533-.089,2.192s1.437.674,1.774,1.354c.374.753-.474,1.69-.132,2.457.312.7,1.3.684,1.957,1.077a2.089,2.089,0,0,1,.908,1.812,4.6,4.6,0,0,1-.588,2.017,14.163,14.163,0,0,1-9.838,7.123,21.147,21.147,0,0,1-12.286-1.52,5.948,5.948,0,0,1-2.468-1.628,2.361,2.361,0,0,1-.234-2.771,5.67,5.67,0,0,0,.7-.872c.56-1.2-1.221-2.409-.956-3.7.143-.7.826-1.127,1.411-1.536s1.184-1.035,1.033-1.732c-.074-.344-.324-.628-.4-.971-.21-.887.718-1.572,1.3-2.27,1.043-1.245,1.106-3.006,1.308-4.618a7.344,7.344,0,0,1,9.4-6" transform="translate(-143.077 -84.734)" fill="#96432a"/>
    <path id="Path_4333" data-name="Path 4333" d="M370.48,213.739a7.294,7.294,0,0,1,5.088,5.735,4.263,4.263,0,0,0,.477,1.786c.373.545,1.079.88,1.226,1.524.155.685-.41,1.445-.084,2.068s1.356.636,1.674,1.277c.352.71-.447,1.594-.124,2.318.294.659,1.228.645,1.847,1.016a1.972,1.972,0,0,1,.856,1.709,4.343,4.343,0,0,1-.555,1.9,13.362,13.362,0,0,1-9.281,6.72,19.952,19.952,0,0,1-11.59-1.434,5.615,5.615,0,0,1-2.329-1.536,2.228,2.228,0,0,1-.22-2.614,5.359,5.359,0,0,0,.662-.822c.528-1.128-1.151-2.272-.9-3.492.135-.66.779-1.063,1.331-1.45s1.117-.975.974-1.634c-.07-.324-.306-.593-.382-.916-.2-.837.677-1.482,1.229-2.141.985-1.175,1.043-2.836,1.234-4.356a6.928,6.928,0,0,1,8.868-5.659" transform="translate(-143.567 -85.811)" fill="#6c301e"/>
    <path id="Path_4334" data-name="Path 4334" d="M404.9,228.232a1.457,1.457,0,0,0-.722-1.208,3.846,3.846,0,0,0-1.386-.468,24.469,24.469,0,0,0-4.28-.426,1.547,1.547,0,0,0-1.527,1.252,7.984,7.984,0,0,0-.163,1.1c-.974.667-.937,2.179-.773,3.348-2.269,2-5.979,4.846-8.914,5.588s-6.072,1.969-7.483,4.648c-.979,1.857-.933,4.066-.844,6.164.065,1.527.221,3.256,2.23,3.756a4.469,4.469,0,0,0,1.93.01c4.11-.795,6.735-4.35,10.31-6.5,3.414-2.052,6.891-4.245,9.181-7.5s4.618-6.427,2.442-9.763" transform="translate(-152.264 -90.905)" fill="#ff941e"/>
    <path id="Path_4335" data-name="Path 4335" d="M405.26,233.386a5.233,5.233,0,0,0-.358-5.154,1.455,1.455,0,0,0-.722-1.207,3.845,3.845,0,0,0-1.386-.468,24.425,24.425,0,0,0-4.28-.426,1.546,1.546,0,0,0-1.527,1.251,7.927,7.927,0,0,0-.164,1.1c-.974.667-.937,2.179-.772,3.348-2.269,2-5.979,4.846-8.914,5.588s-6.072,1.969-7.484,4.648c-.979,1.857-.933,4.066-.844,6.164.015.341.035.693.078,1.039,9.654-3.187,19.5-8.2,26.372-15.883" transform="translate(-152.264 -90.905)" fill="#ff941e"/>
    <path id="Path_4336" data-name="Path 4336" d="M378.97,254.145a2.786,2.786,0,0,0,2.152,2.718,4.478,4.478,0,0,0,1.93.01c4.11-.795,6.735-4.35,10.31-6.5,3.414-2.051,6.891-4.244,9.181-7.5a24.66,24.66,0,0,0,2.8-4.61c-6.87,7.681-16.719,12.7-26.372,15.883" transform="translate(-152.346 -95.781)" fill="#a86114"/>
    <path id="Path_4337" data-name="Path 4337" d="M410.262,204.975l-.349,13.432a1.871,1.871,0,0,0,1.708,1.924,5.623,5.623,0,0,0,2.876-.544,1.866,1.866,0,0,0,1.02-1.963l-1.954-13.093a11.688,11.688,0,0,0-3.3.245" transform="translate(-164.785 -82.291)" fill="#ffc9b9"/>
    <path id="Path_4338" data-name="Path 4338" d="M412.382,238.834a5.832,5.832,0,0,1-3.847-2.372c-.144-.2-.425.06-.283.259a6.2,6.2,0,0,0,4.113,2.5c.244.036.259-.347.017-.383" transform="translate(-164.102 -95.028)" fill="#a86114"/>
    <path id="Path_4339" data-name="Path 4339" d="M414.421,231.987a6.457,6.457,0,0,1-3.321-.9c-.212-.126-.42.2-.208.323a6.846,6.846,0,0,0,3.513.965c.246,0,.264-.384.017-.383" transform="translate(-165.143 -92.884)" fill="#a86114"/>
    <path id="Path_4340" data-name="Path 4340" d="M370.279,242.615a12.611,12.611,0,0,0-7.81.447c-1.155.455-2.4,1.335-2.348,2.576.041,1.076,1.038,1.846,1.986,2.357a16.721,16.721,0,0,0,11.577,1.56c1.887-.435,3.765-2,2.072-3.834a11.754,11.754,0,0,0-5.477-3.106" transform="translate(-144.768 -97.363)" fill="#ff941e"/>
    <path id="Path_4341" data-name="Path 4341" d="M351.8,250.723c-2.741.438-4.959,2.667-6.569,5.115s-2.8,5.212-4.569,7.529c-1.45,1.9-3.263,3.475-4.561,5.5s-2.012,4.78-.957,6.97a6.044,6.044,0,0,0,5.5,3.078,5.256,5.256,0,0,0,4.288-1.74,5.509,5.509,0,0,0,1.014-3.574c-.009-.258-.03-.515-.063-.77a4.8,4.8,0,0,1,1.37-3.943,8.588,8.588,0,0,0,.847-1.024,26.784,26.784,0,0,0,4.273-8.11,12.142,12.142,0,0,0-.575-9.038" transform="translate(-134.521 -100.791)" fill="#ff941e"/>
    <path id="Path_4342" data-name="Path 4342" d="M352.12,260.537c.087-.257.175-.514.249-.777a12.142,12.142,0,0,0-.574-9.038c-2.741.438-4.959,2.668-6.569,5.115s-2.8,5.212-4.569,7.529c-1.45,1.9-3.264,3.476-4.562,5.505s-2.011,4.78-.957,6.97a6.042,6.042,0,0,0,5.5,3.078,5.257,5.257,0,0,0,4.289-1.739,5.512,5.512,0,0,0,1.014-3.574q-.014-.387-.063-.77c-.007-.058-.006-.115-.011-.173a18.2,18.2,0,0,0-1.914-3.209,38.3,38.3,0,0,0,8.165-8.918" transform="translate(-134.521 -100.79)" fill="#ff941e"/>
    <path id="Path_4343" data-name="Path 4343" d="M350.223,276.053a18.2,18.2,0,0,1,1.914,3.209,4.808,4.808,0,0,1,1.381-3.769,8.7,8.7,0,0,0,.847-1.024,28.342,28.342,0,0,0,4.023-7.333,38.288,38.288,0,0,1-8.165,8.918" transform="translate(-140.79 -107.388)" fill="#a86114"/>
    <path id="Path_4344" data-name="Path 4344" d="M370.452,316.889c1.478-1.787,2.713-3.626,2.933-4.981l-19.762-3.646c-.618,1.609-1.539,3.242-2.013,4.893a53.417,53.417,0,0,0,18.841,3.735" transform="translate(-141.348 -123.921)" fill="#1d253d"/>
    <path id="Path_4345" data-name="Path 4345" d="M377.71,443.9l4.1-.112c1.142,1.189,8.022,2.684,8.42,4.283H376.763a17.442,17.442,0,0,1,.947-4.171" transform="translate(-151.459 -178.403)" fill="#fff"/>
    <path id="Path_4346" data-name="Path 4346" d="M390.2,450.951c.038.153.077.306.108.461a.392.392,0,0,1-.382.471H377.071a.39.39,0,0,1-.39-.417c.013-.172.03-.343.048-.514Z" transform="translate(-151.425 -181.282)" fill="#465a94"/>
    <path id="Path_4347" data-name="Path 4347" d="M385.023,312.219c-5.949,2.226-8.7,1.36-14.944,1.28-.545,3.522,1.636,11.038,1.636,11.038l.253,5.505h15.247a68.711,68.711,0,0,0-2.192-17.823" transform="translate(-148.737 -125.512)" fill="#1d253d"/>
    <path id="Path_4348" data-name="Path 4348" d="M373.3,342.023l.175,2.615,14.911.171a16.912,16.912,0,0,0,.161-2.786Z" transform="translate(-150.065 -137.493)" fill="#006cb0"/>
    <path id="Path_4349" data-name="Path 4349" d="M362.551,443.9l-4.1-.112c-1.143,1.189-3.031,2.684-3.43,4.283H363.5a17.443,17.443,0,0,0-.947-4.171" transform="translate(-142.719 -178.403)" fill="#fff"/>
    <path id="Path_4350" data-name="Path 4350" d="M354.944,450.951c-.038.153-.077.306-.108.461a.392.392,0,0,0,.382.471h7.861a.39.39,0,0,0,.39-.417c-.013-.172-.03-.343-.048-.514Z" transform="translate(-142.641 -181.282)" fill="#465a94"/>
    <path id="Path_4351" data-name="Path 4351" d="M363.014,326.235a65.394,65.394,0,0,0,5.864-6.056,53.463,53.463,0,0,1-18.842-3.735,64.731,64.731,0,0,0-2.342,15.3h15.067Z" transform="translate(-139.773 -127.21)" fill="#465a94"/>
    <path id="Path_4352" data-name="Path 4352" d="M347.646,342.023a12.69,12.69,0,0,0,.011,2.786h15.055v-2.786Z" transform="translate(-139.725 -137.493)" fill="#0081c9"/>
    <path id="Path_4353" data-name="Path 4353" d="M375.744,272.721c.025-7.312.795-13.249,1.088-20.557a2.176,2.176,0,0,0-.917-2.077c-10.45-5.335-18.171-1.011-19.872.223a2.548,2.548,0,0,0-.917,2.816c1.9,6.068,1.741,11.681.73,17.956-.79,4.9-6.068,10.661-4.74,16.988,8.414,3.769,18.5,3.4,27.722,1.638,2.451-4.394-3.108-13-3.093-16.987" transform="translate(-141.063 -99.489)" fill="#ff941e"/>
    <path id="Path_4354" data-name="Path 4354" d="M371.751,232.276a66.8,66.8,0,0,1,.522,9.167,2.069,2.069,0,0,0,.585,1.542,3.578,3.578,0,0,0,3.394.92,1.645,1.645,0,0,0,.811-1.84c-.254-1.964-.424-3.835-.541-5.878a9.549,9.549,0,0,0-4.771-3.911" transform="translate(-149.444 -93.375)" fill="#ffc9b9"/>
    <path id="Path_4355" data-name="Path 4355" d="M376.522,236.187a9.553,9.553,0,0,0-4.771-3.91q.151,1.2.258,2.4c1.232,2.454,2.984,4.892,4.892,6.008-.166-1.478-.291-2.94-.38-4.5" transform="translate(-149.444 -93.375)" fill="#ffab90"/>
    <path id="Path_4356" data-name="Path 4356" d="M377.119,315.734a34.923,34.923,0,0,1-8.6,1.347,35.362,35.362,0,0,1-8.668-.8,34.813,34.813,0,0,1-4.722-1.4c-.232-.087-.349.279-.118.365a35.346,35.346,0,0,0,8.526,2.023,35.785,35.785,0,0,0,8.807-.128,34.905,34.905,0,0,0,4.859-1.033c.236-.068.153-.443-.086-.374" transform="translate(-142.664 -126.577)" fill="#a86114"/>
    <path id="Path_4357" data-name="Path 4357" d="M377.731,220.759c1.07,4.721-.157,10.216-1.4,10.408-4.13.639-6.876-3.218-6.9-3.267a2.334,2.334,0,0,1-.956.453,1.782,1.782,0,0,1-1.2-.481c-.511-.47-1.105-1.252-.858-1.992a1.412,1.412,0,0,1,2.316-.529c1.256-2.438.169-3.706.117-5.479a10.636,10.636,0,0,1,7.341-2.1c.441.032,1.441,2.552,1.54,2.988" transform="translate(-147.276 -87.531)" fill="#ffc9b9"/>
    <path id="Path_4358" data-name="Path 4358" d="M376.879,226.215a.317.317,0,0,0-.116-.111.313.313,0,0,0-.152-.053.318.318,0,0,0-.166,0l-.1.041a.413.413,0,0,0-.154.148l-.044.1a.42.42,0,0,0-.005.219l.011.044a.315.315,0,0,0,.073.148.381.381,0,0,0,.268.163.318.318,0,0,0,.166,0l.105-.041a.422.422,0,0,0,.154-.148l.044-.1a.412.412,0,0,0,.005-.219l-.011-.044a.318.318,0,0,0-.073-.148" transform="translate(-151.202 -90.869)" fill="#3b1411"/>
    <path id="Path_4359" data-name="Path 4359" d="M383.623,225.023a.317.317,0,0,0-.116-.111.313.313,0,0,0-.152-.053.318.318,0,0,0-.166,0l-.1.041a.413.413,0,0,0-.154.148l-.044.1a.421.421,0,0,0-.006.219l.011.044a.315.315,0,0,0,.073.148.381.381,0,0,0,.268.163.318.318,0,0,0,.166,0l.105-.041a.428.428,0,0,0,.154-.149l.044-.1a.412.412,0,0,0,.005-.219l-.011-.044a.318.318,0,0,0-.073-.148" transform="translate(-153.913 -90.39)" fill="#3b1411"/>
    <path id="Path_4360" data-name="Path 4360" d="M368.735,232.349a.268.268,0,0,1-.379-.089.249.249,0,0,1,.023-.215.244.244,0,0,1,.157-.135.17.17,0,0,0,.106-.245,1.029,1.029,0,0,0-1.176-.594.648.648,0,0,0-.433.482.475.475,0,0,0,.047.312c.03.056.142.191.207.094.039-.057.007-.121.009-.184a.62.62,0,0,1,.038-.195.355.355,0,0,1,.295-.219.679.679,0,0,1,.625.325.551.551,0,0,0-.157.7.58.58,0,0,0,.777.22c.161-.094.017-.352-.14-.252" transform="translate(-147.544 -92.872)" fill="#ffab90"/>
    <path id="Path_4361" data-name="Path 4361" d="M376.733,222.177a4.7,4.7,0,0,0-2.385.928c-.2.148.057.435.254.288a4.333,4.333,0,0,1,2.205-.838.193.193,0,0,0,.151-.225.2.2,0,0,0-.225-.151" transform="translate(-150.459 -89.315)" fill="#6c301e"/>
    <path id="Path_4362" data-name="Path 4362" d="M383.724,222.012a1.767,1.767,0,0,0-1.571-.451.192.192,0,0,0,.074.377,1.631,1.631,0,0,1,.179-.028l.026,0h.112a1.643,1.643,0,0,1,.179.016l.047.008.02,0,.033.008.046.012c.055.016.109.034.162.055l.078.034.011.005,0,0,.042.022a1.651,1.651,0,0,1,.145.091c.026.019.051.038.075.058l.022.019.026.025a.2.2,0,0,0,.271.017.193.193,0,0,0,.017-.271" transform="translate(-153.563 -89.052)" fill="#6c301e"/>
    <path id="Path_4363" data-name="Path 4363" d="M381.624,236.186l-1.256.183a.193.193,0,0,0-.151.225.2.2,0,0,0,.225.151l1.256-.183a.193.193,0,0,0,.151-.225.2.2,0,0,0-.225-.151" transform="translate(-152.845 -94.946)" fill="#ffab90"/>
    <path id="Path_4364" data-name="Path 4364" d="M382.53,229.4a1.463,1.463,0,0,0-.581-.465.838.838,0,0,1-.45-.4.193.193,0,0,0-.257-.086.2.2,0,0,0-.086.258c.155.428.625.5.936.771a.319.319,0,0,1,.114.425c-.115.191-.332.3-.485.46a.2.2,0,0,0-.017.271.193.193,0,0,0,.271.017,3.547,3.547,0,0,0,.55-.534.655.655,0,0,0,.007-.713" transform="translate(-153.218 -91.828)" fill="#ffab90"/>
    <path id="Path_4365" data-name="Path 4365" d="M380.98,234.317a.2.2,0,0,0-.258-.086,2.8,2.8,0,0,1-1.739.077.2.2,0,0,0-.244.118.194.194,0,0,0,.118.245,3.239,3.239,0,0,0,2.036-.1.194.194,0,0,0,.086-.258" transform="translate(-152.249 -94.154)" fill="#3b1411"/>
    <path id="Path_4366" data-name="Path 4366" d="M365.753,298.053a8.837,8.837,0,0,1-3.589,5.769c-.2.143.06.425.259.283a9.206,9.206,0,0,0,3.714-6.036c.039-.243-.345-.258-.383-.017" transform="translate(-145.561 -119.748)" fill="#a86114"/>
    <path id="Path_4367" data-name="Path 4367" d="M380.137,297.27l-11.782.342c-.246.007-.264.39-.017.383l11.783-.342c.245-.007.264-.391.017-.383" transform="translate(-148.001 -119.502)" fill="#a86114"/>
    <path id="Path_4368" data-name="Path 4368" d="M390.39,302.125a5.209,5.209,0,0,1-2.243-4.662c.019-.246-.365-.263-.383-.017a5.6,5.6,0,0,0,2.418,5c.205.139.413-.185.208-.323" transform="translate(-155.875 -119.502)" fill="#a86114"/>
    <path id="Path_4369" data-name="Path 4369" d="M357.656,294.913l-11.9-9.013a5.64,5.64,0,0,0-2.7,5.233l12.873,6.6a11.691,11.691,0,0,0,1.725-2.825" transform="translate(-137.907 -114.932)" fill="#ffc9b9"/>
    <path id="Path_4370" data-name="Path 4370" d="M345.5,285.656a5.892,5.892,0,0,0-3.288,5.975c.031.245.405.158.374-.086A5.5,5.5,0,0,1,345.677,286c.224-.1.045-.444-.179-.34" transform="translate(-137.551 -114.826)" fill="#a86114"/>
    <path id="Path_4371" data-name="Path 4371" d="M348.133,284.705a3.74,3.74,0,0,0-4.211-1.057c-.229.091-.048.431.179.34a3.353,3.353,0,0,1,3.748.977c.157.191.44-.069.283-.26" transform="translate(-138.214 -113.923)" fill="#a86114"/>
    <path id="Path_4372" data-name="Path 4372" d="M359.936,265.43c-.017-.243-.4-.263-.383-.017a57.14,57.14,0,0,1-.286,11c-.03.245.353.261.383.017a57.091,57.091,0,0,0,.286-11" transform="translate(-144.424 -106.625)" fill="#a86114"/>
    <path id="Path_4373" data-name="Path 4373" d="M375.793,247.426c-.078-.232-.453-.149-.374.086a2.735,2.735,0,0,1-.7,2.479,4.992,4.992,0,0,1-.825.947.863.863,0,0,1-1.113-.019c-.337-.232-.636-.521-.966-.765a11.6,11.6,0,0,0-1.078-.71,12.063,12.063,0,0,0-2.323-1.037c-.831-.272-1.934-.6-2.072-1.617-.033-.245-.407-.158-.374.086a2.365,2.365,0,0,0,1.775,1.713,16.25,16.25,0,0,1,2.751,1.157,11.483,11.483,0,0,1,1.214.806,7.5,7.5,0,0,0,1.119.84c.892.442,1.526-.316,2.03-.953a3.3,3.3,0,0,0,.934-3.012" transform="translate(-147.119 -99.151)" fill="#a86114"/>
    <path id="Path_4374" data-name="Path 4374" d="M371.767,255.778c-.081-.23-.456-.148-.374.086a15.214,15.214,0,0,1,.667,7.417c-.039.243.345.258.383.017a15.455,15.455,0,0,0-.676-7.519" transform="translate(-149.295 -102.768)" fill="#fff"/>
    <path id="Path_4375" data-name="Path 4375" d="M383,254.857c-.074-.234-.449-.151-.374.086a16.8,16.8,0,0,1,.426,8.505c-.051.24.314.36.365.118a17.2,17.2,0,0,0-.417-8.709" transform="translate(-153.812 -102.396)" fill="#fff"/>
    <path id="Path_4376" data-name="Path 4376" d="M355.989,404.752l-2.348-12.774a117.181,117.181,0,0,1-1.045-17.746l.107-4.654-3.809-22.894h13.584l-3.668,23.59.489,2.358c1.074,5.183,1.505,15.087,1.284,20.376l-.5,11.857Z" transform="translate(-140.256 -139.367)" fill="#ffc9b9"/>
    <path id="Path_4377" data-name="Path 4377" d="M388.892,346.571l-7.967,58.069h-4.1l-.694-15.7c-.2-4.511.463-13.627,1.951-17.89l-3.519-24.648Z" transform="translate(-150.574 -139.256)" fill="#ffc9b9"/>
    <path id="Path_4378" data-name="Path 4378" d="M362.478,346.682H348.894l.205,1.233h13.186Z" transform="translate(-140.255 -139.366)" fill="#ffab90"/>
    <path id="Path_4379" data-name="Path 4379" d="M358.948,371.1l3.476-22.357H349.238l3.6,21.661-.107,4.655a117.241,117.241,0,0,0,1.045,17.745l2.348,12.774,4.1.114.5-11.857c.221-5.289-.211-15.193-1.284-20.377Z" transform="translate(-140.394 -140.195)" fill="#ffc9b9"/>
    <path id="Path_4380" data-name="Path 4380" d="M388.892,346.572l-14.329-.164.2,1.4h13.96Z" transform="translate(-150.575 -139.256)" fill="#ffab90"/>
    <path id="Path_4381" data-name="Path 4381" d="M374.9,348.744l3.32,23.251c-1.488,4.264-2.151,13.378-1.951,17.89l.694,15.7h4.1l7.8-56.836Z" transform="translate(-150.709 -140.195)" fill="#ffc9b9"/>
    <path id="Path_4382" data-name="Path 4382" d="M413.863,201.807v-.035l2.334-4.37-2.505-1.9-2.479.949-.444,3.646a5.544,5.544,0,0,0-.239,1.514Z" transform="translate(-165.033 -78.591)" fill="#ffc9b9"/>
    <path id="Path_4383" data-name="Path 4383" d="M396.583,122.8l8.627,17.48,19.29,2.8-13.959,13.606,3.295,19.213-17.254-9.071-17.254,9.071,3.295-19.213-13.959-13.606,19.29-2.8Z" transform="translate(-148.204 -49.366)" fill="#feb12f"/>
    <path id="Path_4384" data-name="Path 4384" d="M376.375,154.847l-7.71,1.12,13.959,13.607-3.295,19.213,17.254-9.071,17.254,9.071-2.8-16.3c-13.424-.573-26.759-6.847-34.665-17.635" transform="translate(-148.203 -62.248)" fill="#fea30a"/>
    <path id="Path_4385" data-name="Path 4385" d="M410.368,200.88a2.376,2.376,0,0,0,.858-1.973,2.259,2.259,0,0,0-.954-1.887,2.791,2.791,0,0,0-1.883-2.561,30.454,30.454,0,0,1,1.281,6.733Z" transform="translate(-164.172 -78.173)" fill="#ffc9b9"/>
    <path id="Path_4386" data-name="Path 4386" d="M410.324,195.513c.341.177.457.694.532,1.14a2.289,2.289,0,0,0,.2.751c.126.218.331.316.493.471a2.031,2.031,0,0,1,.6,1.328,5.258,5.258,0,0,1-.263,1.761c-.05.182-.243.039-.194-.142a4.59,4.59,0,0,0,.232-1.67,1.7,1.7,0,0,0-.689-1.19,1.263,1.263,0,0,1-.383-.438,2.323,2.323,0,0,1-.177-.609c-.074-.414-.122-.962-.453-1.133-.132-.068-.029-.336.1-.268" transform="translate(-164.884 -78.592)" fill="#ffab90"/>
    <path id="Path_4387" data-name="Path 4387" d="M375.253,217.431a5.8,5.8,0,0,1-1.406,1.079,2.91,2.91,0,0,0-1.2,1.2,5.229,5.229,0,0,0-.042,1.753,2.679,2.679,0,0,1-1.216,2.037,4.246,4.246,0,0,1-2.7.681c-.1-1.841-.179-3.787.919-5.409a6.325,6.325,0,0,1,3.328-2.335c1.179-.376,3.681-.7,2.324.99" transform="translate(-148.188 -86.889)" fill="#6c301e"/>
    <path id="Path_4388" data-name="Path 4388" d="M148.545,226.981c-.594.76-1.164,1.485-1.685,2.114-3.416.724-4.482,1.787-5.907,4.975l2.492,12.159c4.958-1.723,8.739-6.611,12.039-10.693q.424-.524.83-1.036a6.113,6.113,0,0,1-.784-.091,8.842,8.842,0,0,1-6.985-7.428" transform="translate(-56.663 -91.246)" fill="#465a94"/>
    <path id="Path_4389" data-name="Path 4389" d="M164.9,218.112c-.525-1.633-1.723-3.376-3.438-3.336a4.215,4.215,0,0,0-2.478,1.182,45.007,45.007,0,0,0-5.332,6.117,8.841,8.841,0,0,0,6.985,7.428,6.126,6.126,0,0,0,.784.091c2.887-3.646,4.948-6.913,3.479-11.482" transform="translate(-61.766 -86.34)" fill="#ffab91"/>
    <path id="Path_4390" data-name="Path 4390" d="M98.447,232.124a3.651,3.651,0,0,0-1.163-2.622,6.59,6.59,0,0,0-2.54-1.453,11.412,11.412,0,0,0-6.289-.166,123.681,123.681,0,0,1-10.519-8.014c-2.076,1.534-4.237,4.791-5.865,6.794,6.37,7.8,14.683,12.965,24.138,16.439Z" transform="translate(-28.973 -88.387)" fill="#ffab91"/>
    <path id="Path_4391" data-name="Path 4391" d="M104.784,235.953a3.652,3.652,0,0,0-1.163-2.622,6.586,6.586,0,0,0-2.54-1.453,11.41,11.41,0,0,0-6.289-.166c-1.106-.752-2.2-1.529-3.277-2.317a19.3,19.3,0,0,0-3.681,9.914,61.562,61.562,0,0,0,14.711,7.623Z" transform="translate(-35.31 -92.217)" fill="#465a94"/>
    <path id="Path_4392" data-name="Path 4392" d="M100.745,250.692c-4.211-3.281-8.248-6.8-12.326-10.225a26.432,26.432,0,0,0-.584,3.293,60.226,60.226,0,0,0,12.91,6.932" transform="translate(-35.31 -96.668)" fill="#1d253d"/>
    <path id="Path_4393" data-name="Path 4393" d="M106.363,312.9c13.093,1.569,12.9,9.726,12.9,9.726l-5.288,34L110.2,386.252h-6.246a385.271,385.271,0,0,1,2.41-73.356" transform="translate(-41.479 -125.784)" fill="#a86114"/>
    <path id="Path_4394" data-name="Path 4394" d="M119.818,323.257s-5.825-4.063-6.506-7.619l21.863.847s3.656,45.919,3.563,70.87h-6.194Z" transform="translate(-45.551 -126.886)" fill="#ff941e"/>
    <path id="Path_4395" data-name="Path 4395" d="M151.451,435.565c0,.927-.008,1.83-.018,2.7h-4.942l-.276-2.7Z" transform="translate(-58.778 -175.097)" fill="#ffab91"/>
    <path id="Path_4396" data-name="Path 4396" d="M110.533,435.565c0,.927-.008,1.83-.018,2.7h-4.942l-.276-2.7Z" transform="translate(-42.329 -175.097)" fill="#ffab91"/>
    <path id="Path_4397" data-name="Path 4397" d="M115.026,318.109a9.268,9.268,0,0,1-2.43-4.075L134.69,312.9s.18,2.586.264,3.662a55.839,55.839,0,0,1-19.928,1.551" transform="translate(-45.264 -125.784)" fill="#a86114"/>
    <path id="Path_4398" data-name="Path 4398" d="M145.31,439.282l5.784-.173a15.071,15.071,0,0,1,3.323,6.582H143.973a28.815,28.815,0,0,1,1.337-6.409" transform="translate(-57.877 -176.522)" fill="#465a94"/>
    <path id="Path_4399" data-name="Path 4399" d="M154.37,450.116c.054.235.109.47.152.708a.59.59,0,0,1-.538.724h-9.575a.58.58,0,0,1-.55-.642c.019-.264.042-.527.068-.79Z" transform="translate(-57.831 -180.947)" fill="#a86114"/>
    <path id="Path_4400" data-name="Path 4400" d="M102.7,439.282l-5.784-.173c-1.612,1.827-11.318,4.125-11.88,6.582h19a28.848,28.848,0,0,0-1.337-6.409" transform="translate(-34.184 -176.522)" fill="#465a94"/>
    <path id="Path_4401" data-name="Path 4401" d="M84.927,450.116c-.054.235-.109.47-.152.708a.59.59,0,0,0,.538.724h18.133a.58.58,0,0,0,.55-.642c-.019-.264-.042-.527-.068-.79Z" transform="translate(-34.075 -180.947)" fill="#a86114"/>
    <path id="Path_4402" data-name="Path 4402" d="M147.292,384.418c.717-1.342,1.467-2.649,2.061-4.065a40.4,40.4,0,0,0,1.464-4.416c.053-.183.292-.106.261.079a21.5,21.5,0,0,1-1.364,4.508,19.146,19.146,0,0,1-2.168,4.108c-.117.159-.345-.045-.255-.214" transform="translate(-59.203 -151.085)" fill="#a86114"/>
    <path id="Path_4403" data-name="Path 4403" d="M108.212,239.091a4.657,4.657,0,0,1,2.874-4.047,25.266,25.266,0,0,1,11.276-1.716,42.793,42.793,0,0,1,10.3,2.094,4.676,4.676,0,0,1,3.168,5.2,203.124,203.124,0,0,0-2.392,39.563c.033.855.113,2.087-.7,2.342-7.519,2.345-18.238,2.731-25.392.826-1.775-.473-.377-2.109-.382-3.946-.035-13.144.572-27.308,1.249-40.315" transform="translate(-42.791 -93.774)" fill="#465a94"/>
    <path id="Path_4404" data-name="Path 4404" d="M132.7,219.411a43.693,43.693,0,0,0,.2,8.792,1.6,1.6,0,0,1-.663,1.513,6.553,6.553,0,0,1-4.666,1.114,1.583,1.583,0,0,1-1.326-1.7,52.14,52.14,0,0,0,.16-5.652,12.685,12.685,0,0,1,6.294-4.066" transform="translate(-50.748 -88.203)" fill="#ffab91"/>
    <path id="Path_4405" data-name="Path 4405" d="M126.406,223.477a12.684,12.684,0,0,1,6.293-4.066c-.1,1.248-.138,2.5-.128,3.752-1.115,3.053-3.134,5.962-5.854,7.231a1.6,1.6,0,0,1-.471-1.265,52.605,52.605,0,0,0,.16-5.652" transform="translate(-50.748 -88.203)" fill="#ff8a65"/>
    <path id="Path_4406" data-name="Path 4406" d="M129.561,210.778q.508-1.908,1.015-3.816a4.565,4.565,0,0,0,.222-2.032,1.563,1.563,0,0,0-1.364-1.332,8.934,8.934,0,0,0-8.339-3.8,4.755,4.755,0,0,0-2.991,1.334,5.242,5.242,0,0,0-1.073,3.617c.011,1.534.7,1.7,1.749,2.817,1,1.064,2.126,2.955,3.566,3.2a21.945,21.945,0,0,0,7.214.015" transform="translate(-47.047 -80.293)" fill="#3e2410"/>
    <path id="Path_4407" data-name="Path 4407" d="M129.769,211.475l.919-3.48a4.191,4.191,0,0,0,.2-1.853,1.421,1.421,0,0,0-1.235-1.215,8.067,8.067,0,0,0-7.55-3.468,4.291,4.291,0,0,0-2.708,1.216,4.8,4.8,0,0,0-.971,3.3c.01,1.4.631,1.549,1.583,2.568.906.971,1.926,2.695,3.229,2.919a19.742,19.742,0,0,0,6.532.013" transform="translate(-47.607 -80.964)" fill="#170d05"/>
    <path id="Path_4408" data-name="Path 4408" d="M119.644,209.544c-.545,4.088,1.136,11.326,3.4,11.408,4.823.175,5.856-2.855,6.665-5.829a.883.883,0,0,0,.686.223,1.7,1.7,0,0,0,1-.718,2.014,2.014,0,0,0,.348-2.048,1.1,1.1,0,0,0-1.982-.022,11.552,11.552,0,0,0-.974-4.275,1.588,1.588,0,0,0-.957-.952,11.531,11.531,0,0,0-6.968-.1,1.362,1.362,0,0,0-.887.9,9.427,9.427,0,0,0-.329,1.418" transform="translate(-48.056 -83.109)" fill="#ffab91"/>
    <g id="Group_7941" data-name="Group 7941" transform="translate(72.314 129.295)" opacity="0.37" style="mix-blend-mode: multiply;isolation: isolate">
      <g id="Group_7940" data-name="Group 7940">
        <g id="Group_7939" data-name="Group 7939" clip-path="url(#clip-path-2)">
          <path id="Path_4409" data-name="Path 4409" d="M128.15,220.064a10.019,10.019,0,0,0-7.224.769c.636,2.2,1.586,3.888,2.671,3.926,4.6.167,5.752-2.58,6.55-5.414l.315-3.134-2.311,3.852" transform="translate(-120.926 -216.212)" fill="#170d05"/>
        </g>
      </g>
    </g>
    <path id="Path_4410" data-name="Path 4410" d="M138.5,216.08a1.139,1.139,0,0,0-1.716-.379l-.122.2-.315,3.134c.039-.139.078-.277.115-.416a.885.885,0,0,0,.685.223,1.708,1.708,0,0,0,1-.719,2.013,2.013,0,0,0,.348-2.048" transform="translate(-54.811 -86.61)" fill="#ffab91"/>
    <path id="Path_4411" data-name="Path 4411" d="M129.76,212.557a11.543,11.543,0,0,0-.974-4.275,1.591,1.591,0,0,0-.957-.952,11.53,11.53,0,0,0-6.968-.1,1.364,1.364,0,0,0-.887.9,9.5,9.5,0,0,0-.329,1.418,20.117,20.117,0,0,0,.725,7.481,10.019,10.019,0,0,1,7.224-.768l2.311-3.852.008-.079a1.2,1.2,0,0,0-.153.231" transform="translate(-48.056 -83.109)" fill="#ffab91"/>
    <path id="Path_4412" data-name="Path 4412" d="M136.881,216l-.008.079.122-.2a1.211,1.211,0,0,0-.114.125" transform="translate(-55.023 -86.781)" fill="#ffab91"/>
    <path id="Path_4413" data-name="Path 4413" d="M126.979,211.572c.658-.835,2.468-.259,3.135.277.122.1.269.224.254.4a.209.209,0,0,1-.147.194c-.2.059-.4-.111-.569-.2a2.884,2.884,0,0,0-1.649-.316,3.544,3.544,0,0,1-.9.127c-.238-.036-.242-.332-.126-.478" transform="translate(-51.016 -84.883)" fill="#170d05"/>
    <path id="Path_4414" data-name="Path 4414" d="M128.616,214.138a.413.413,0,0,1,.367-.247l.107.014a.406.406,0,0,1,.177.1l.063.081a.4.4,0,0,1,.055.2v.043a.307.307,0,0,1-.035.155.3.3,0,0,1-.083.129.447.447,0,0,1-.284.118l-.107-.014a.406.406,0,0,1-.177-.1l-.063-.081a.4.4,0,0,1-.055-.2v-.043a.305.305,0,0,1,.035-.155" transform="translate(-51.689 -85.984)" fill="#3b1411"/>
    <path id="Path_4415" data-name="Path 4415" d="M121.263,214.554a.413.413,0,0,1,.367-.247l.107.014a.406.406,0,0,1,.177.1l.063.081a.4.4,0,0,1,.055.2v.043a.307.307,0,0,1-.035.155.3.3,0,0,1-.083.129.447.447,0,0,1-.284.118l-.107-.014a.406.406,0,0,1-.177-.1l-.063-.081a.4.4,0,0,1-.055-.2v-.043a.306.306,0,0,1,.035-.155" transform="translate(-48.734 -86.151)" fill="#3b1411"/>
    <path id="Path_4416" data-name="Path 4416" d="M119.907,212.412a1.217,1.217,0,0,1,.813-.544,1.907,1.907,0,0,1,.951-.018.3.3,0,0,1,.215.33c-.033.245-.24.253-.434.255a1.939,1.939,0,0,0-.752.14c-.163.069-1.015.5-.844-.044a.83.83,0,0,1,.05-.12" transform="translate(-48.174 -85.143)" fill="#170d05"/>
    <path id="Path_4417" data-name="Path 4417" d="M137.068,218.039a.257.257,0,0,0,.332-.169.239.239,0,0,0-.071-.195.234.234,0,0,0-.176-.09.162.162,0,0,1-.155-.2.986.986,0,0,1,.959-.819.621.621,0,0,1,.512.35.452.452,0,0,1,.026.3c-.015.059-.089.209-.171.135-.05-.045-.034-.111-.05-.169a.584.584,0,0,0-.079-.173.339.339,0,0,0-.324-.136.65.65,0,0,0-.508.444.527.527,0,0,1,.3.612.555.555,0,0,1-.673.38c-.17-.051-.1-.324.074-.267" transform="translate(-55.033 -87.057)" fill="#ff8a65"/>
    <path id="Path_4418" data-name="Path 4418" d="M116.923,305.477a18.118,18.118,0,0,0,9.131-1.541,18,18,0,0,0,9.1-9.438c.09-.215.41-.045.321.169a18.444,18.444,0,0,1-5.1,6.949,18.22,18.22,0,0,1-8.224,3.947,18.514,18.514,0,0,1-5.315.267c-.231-.022-.149-.374.081-.353" transform="translate(-46.915 -118.348)" fill="#1d253d"/>
    <path id="Path_4419" data-name="Path 4419" d="M126.576,238.461a7.549,7.549,0,0,0,7.14-1.723c.169-.159.437.085.267.245a7.916,7.916,0,0,1-7.487,1.832c-.223-.063-.144-.417.081-.353" transform="translate(-50.798 -95.148)" fill="#1d253d"/>
    <path id="Path_4420" data-name="Path 4420" d="M122.552,216.815a2.533,2.533,0,0,0,.677-1.11c.039-.229.392-.148.353.081-.135.778-.893,1.182-1.154,1.891a1.108,1.108,0,0,0,1.406,1.434.181.181,0,0,1,.112.344A1.485,1.485,0,0,1,122,217.995a2.052,2.052,0,0,1,.552-1.18" transform="translate(-49.043 -86.659)" fill="#ff8a65"/>
    <path id="Path_4421" data-name="Path 4421" d="M127.46,223.8a3.037,3.037,0,0,1-2.966,1.132c-.24-.048-.359.316-.118.365a3.438,3.438,0,0,0,3.407-1.289c.148-.2-.175-.4-.323-.209" transform="translate(-49.946 -89.937)" fill="#3b1411"/>
    <path id="Path_4422" data-name="Path 4422" d="M102.032,104.684l8.627,17.48,19.291,2.8-13.959,13.606,3.295,19.213-17.254-9.071-17.254,9.071,3.295-19.213L74.115,124.968l19.29-2.8Z" transform="translate(-29.794 -42.083)" fill="#feb12f"/>
    <path id="Path_4423" data-name="Path 4423" d="M81.824,136.729l-7.71,1.121,13.959,13.607-3.295,19.212,17.254-9.071,17.254,9.071-2.8-16.3c-13.424-.573-26.759-6.847-34.665-17.636" transform="translate(-29.794 -54.965)" fill="#fea30a"/>
    <path id="Path_4424" data-name="Path 4424" d="M96.79,180.754a1.721,1.721,0,0,1,.687.022.642.642,0,0,1,.465.465.674.674,0,0,1-.4.667,2.587,2.587,0,0,1-.809.189,5.594,5.594,0,0,0-2.6,1.106,10.094,10.094,0,0,1-1.167.894c-1.478.829-2.634-.764-1.094-1.711a12.065,12.065,0,0,1,4.916-1.631" transform="translate(-36.64 -72.654)" fill="#ffab91"/>
    <path id="Path_4425" data-name="Path 4425" d="M98.259,183.141a1.724,1.724,0,0,1,.687.022.641.641,0,0,1,.465.465.675.675,0,0,1-.4.667,2.587,2.587,0,0,1-.809.189,5.6,5.6,0,0,0-2.6,1.106,10.088,10.088,0,0,1-1.167.894c-1.478.829-2.634-.764-1.094-1.711a12.062,12.062,0,0,1,4.916-1.631" transform="translate(-37.231 -73.613)" fill="#ffab91"/>
    <path id="Path_4426" data-name="Path 4426" d="M97.822,185.835a1.724,1.724,0,0,1,.687.022.642.642,0,0,1,.465.465.675.675,0,0,1-.4.667,2.583,2.583,0,0,1-.808.189,5.6,5.6,0,0,0-2.6,1.106,10.09,10.09,0,0,1-1.167.894c-1.478.829-2.634-.764-1.094-1.711a12.062,12.062,0,0,1,4.916-1.631" transform="translate(-37.055 -74.696)" fill="#ffab91"/>
    <path id="Path_4427" data-name="Path 4427" d="M97.231,188.59a1.4,1.4,0,0,1,.561.018.524.524,0,0,1,.38.38.55.55,0,0,1-.328.544,2.128,2.128,0,0,1-.66.154,4.565,4.565,0,0,0-2.12.9,8.2,8.2,0,0,1-.953.73c-1.207.677-2.15-.624-.893-1.4a9.853,9.853,0,0,1,4.014-1.332" transform="translate(-37.234 -75.805)" fill="#ffab91"/>
    <path id="Path_4428" data-name="Path 4428" d="M90.317,183.468A8.521,8.521,0,0,0,88.5,185.5a4.058,4.058,0,0,0-.71,3.021,2.5,2.5,0,0,0,2.171,2.015,2.777,2.777,0,0,0,1.755-.62,4.292,4.292,0,0,0,.08-6.808Z" transform="translate(-35.266 -73.611)" fill="#ffab91"/>
    <path id="Path_4429" data-name="Path 4429" d="M81.69,188.571c-2.391,2.88-11.7,17.448-11.751,21.141a6.942,6.942,0,0,0,2.114,5.305,2.86,2.86,0,0,0,4.693-.81c1.97-3.433,5.874-18.618,6.8-23.275Z" transform="translate(-28.115 -75.806)" fill="#ffab91"/>
    <path id="Path_4430" data-name="Path 4430" d="M140.612,178.373a1.724,1.724,0,0,0-.687.022.643.643,0,0,0-.465.465.675.675,0,0,0,.4.667,2.587,2.587,0,0,0,.809.189,5.6,5.6,0,0,1,2.6,1.106,10.09,10.09,0,0,0,1.167.894c1.478.829,2.634-.764,1.094-1.711a12.062,12.062,0,0,0-4.916-1.631" transform="translate(-56.06 -71.697)" fill="#ffab91"/>
    <path id="Path_4431" data-name="Path 4431" d="M139.142,180.76a1.723,1.723,0,0,0-.687.022.643.643,0,0,0-.465.465.675.675,0,0,0,.4.667,2.587,2.587,0,0,0,.809.189,5.6,5.6,0,0,1,2.6,1.106,10.091,10.091,0,0,0,1.167.894c1.478.829,2.634-.764,1.094-1.711a12.062,12.062,0,0,0-4.916-1.631" transform="translate(-55.469 -72.656)" fill="#ffab91"/>
    <path id="Path_4432" data-name="Path 4432" d="M139.579,183.454a1.723,1.723,0,0,0-.687.022.643.643,0,0,0-.465.465.675.675,0,0,0,.4.667,2.587,2.587,0,0,0,.808.189,5.6,5.6,0,0,1,2.6,1.106,10.092,10.092,0,0,0,1.167.894c1.478.829,2.634-.764,1.094-1.711a12.062,12.062,0,0,0-4.916-1.631" transform="translate(-55.644 -73.739)" fill="#ffab91"/>
    <path id="Path_4433" data-name="Path 4433" d="M141.01,186.208a1.415,1.415,0,0,0-.561.019.523.523,0,0,0-.38.38.55.55,0,0,0,.328.544,2.108,2.108,0,0,0,.66.154,4.573,4.573,0,0,1,2.12.9,8.205,8.205,0,0,0,.953.73c1.207.677,2.15-.624.893-1.4a9.866,9.866,0,0,0-4.014-1.332" transform="translate(-56.305 -74.848)" fill="#ffab91"/>
    <path id="Path_4434" data-name="Path 4434" d="M147.817,181.087a8.521,8.521,0,0,1,1.813,2.037,4.058,4.058,0,0,1,.71,3.021,2.5,2.5,0,0,1-2.171,2.015,2.781,2.781,0,0,1-1.755-.621,4.292,4.292,0,0,1-.08-6.808Z" transform="translate(-58.168 -72.654)" fill="#ffab91"/>
    <path id="Path_4435" data-name="Path 4435" d="M151.135,186.189c2.391,2.88,11.7,17.448,11.751,21.141a6.942,6.942,0,0,1-2.114,5.305,2.86,2.86,0,0,1-4.693-.81c-1.97-3.433-5.874-18.618-6.8-23.275Z" transform="translate(-60.009 -74.848)" fill="#ffab91"/>
    <path id="Path_4436" data-name="Path 4436" d="M159.67,239.856l-7.034,8.315-2.014,2.381c-.158.187.1.472.26.283l7.034-8.315,2.015-2.381c.157-.186-.1-.471-.26-.283" transform="translate(-60.53 -96.397)" fill="#1d253d"/>
    <path id="Path_4437" data-name="Path 4437" d="M108.05,242.3q-.315,4.864-.514,9.733-.2,4.893-.283,9.79-.047,2.747-.057,5.494c0,.246.383.264.384.017q.018-4.873.151-9.745.135-4.9.385-9.787.141-2.744.318-5.485a.192.192,0,0,0-.383-.017" transform="translate(-43.092 -97.332)" fill="#1d253d"/>
    <path id="Path_4438" data-name="Path 4438" d="M119.469,216.246a1.885,1.885,0,1,1,1.885-1.885,1.887,1.887,0,0,1-1.885,1.885m0-3.578a1.693,1.693,0,1,0,1.693,1.693,1.695,1.695,0,0,0-1.693-1.693" transform="translate(-47.269 -85.415)" fill="#170d05"/>
    <path id="Path_4439" data-name="Path 4439" d="M127.182,216.246a1.885,1.885,0,1,1,1.884-1.885,1.887,1.887,0,0,1-1.884,1.885m0-3.578a1.693,1.693,0,1,0,1.692,1.693,1.695,1.695,0,0,0-1.692-1.693" transform="translate(-50.369 -85.415)" fill="#170d05"/>
    <path id="Path_4440" data-name="Path 4440" d="M123.684,214.385l-.133-.139a.977.977,0,0,1,1.257-.053l-.121.149a.79.79,0,0,0-1,.042" transform="translate(-49.668 -86.024)" fill="#170d05"/>
    <path id="Path_4441" data-name="Path 4441" d="M135.055,215.182a7.4,7.4,0,0,0-3.7-.4l-.028-.19a7.591,7.591,0,0,1,3.793.41Z" transform="translate(-52.795 -86.233)" fill="#170d05"/>
    <rect id="Rectangle_3092" data-name="Rectangle 3092" width="223.405" height="1.438" transform="translate(37.797 270.6)" fill="#001e4a"/>
  </g>
</svg>
