<svg id="Group_7668" data-name="Group 7668" xmlns="http://www.w3.org/2000/svg" width="564.626" height="375.522" viewBox="0 0 564.626 375.522">
  <g id="Device" transform="translate(0 22.993)">
    <g id="Group_249" data-name="Group 249" transform="translate(0 0)">
      <g id="Group_114" data-name="Group 114">
        <g id="Group_75" data-name="Group 75">
          <g id="Group_74" data-name="Group 74">
            <g id="Group_73" data-name="Group 73">
              <g id="Group_72" data-name="Group 72">
                <g id="Group_67" data-name="Group 67">
                  <g id="Group_58" data-name="Group 58" transform="translate(17.061)">
                    <g id="Group_57" data-name="Group 57">
                      <g id="Group_56" data-name="Group 56">
                        <g id="Group_55" data-name="Group 55">
                          <rect id="Rectangle_69" data-name="Rectangle 69" width="521.15" height="344.632" rx="14.567" fill="#0a1e32"/>
                        </g>
                      </g>
                    </g>
                  </g>
                  <g id="Group_62" data-name="Group 62" transform="translate(0 322.374)">
                    <g id="Group_61" data-name="Group 61">
                      <g id="Group_60" data-name="Group 60">
                        <g id="Group_59" data-name="Group 59">
                          <path id="Rectangle_70" data-name="Rectangle 70" d="M0,0H564.626a0,0,0,0,1,0,0V12.357a17.8,17.8,0,0,1-17.8,17.8H17.8A17.8,17.8,0,0,1,0,12.357V0A0,0,0,0,1,0,0Z" fill="#0a1e32"/>
                        </g>
                      </g>
                    </g>
                  </g>
                  <g id="Group_66" data-name="Group 66" transform="translate(226.262 319.142)">
                    <g id="Group_65" data-name="Group 65" transform="translate(0)">
                      <g id="Group_64" data-name="Group 64">
                        <g id="Group_63" data-name="Group 63">
                          <path id="Path_1997" data-name="Path 1997" d="M323.141,421.677l7.006,11.145h98.591l6.506-11.145Z" transform="translate(-323.141 -421.677)" fill="#263238"/>
                        </g>
                      </g>
                    </g>
                  </g>
                </g>
                <g id="Group_71" data-name="Group 71" transform="translate(17.062 318.805)">
                  <g id="Group_70" data-name="Group 70">
                    <g id="Group_69" data-name="Group 69">
                      <g id="Group_68" data-name="Group 68">
                        <path id="Path_1998" data-name="Path 1998" d="M653.129,421.713c0,.187-115.67.338-258.324.338-142.7,0-258.347-.151-258.347-.338s115.645-.337,258.347-.337C537.459,421.376,653.129,421.527,653.129,421.713Z" transform="translate(-136.458 -421.376)" fill="#263238"/>
                      </g>
                    </g>
                  </g>
                </g>
              </g>
            </g>
          </g>
        </g>
        <g id="Group_103" data-name="Group 103" transform="translate(31.461 19.817)">
          <g id="Group_102" data-name="Group 102" transform="translate(0)">
            <g id="Group_101" data-name="Group 101">
              <g id="Group_80" data-name="Group 80" transform="translate(0.524)">
                <g id="Group_79" data-name="Group 79">
                  <g id="Group_78" data-name="Group 78">
                    <g id="Group_77" data-name="Group 77">
                      <g id="Group_76" data-name="Group 76">
                        <path id="Rectangle_71" data-name="Rectangle 71" d="M3.272,0H485.989a3.273,3.273,0,0,1,3.273,3.273V286.94a3.273,3.273,0,0,1-3.273,3.273H3.272A3.272,3.272,0,0,1,0,286.941V3.272A3.272,3.272,0,0,1,3.272,0Z" fill="#ebebeb"/>
                      </g>
                    </g>
                  </g>
                </g>
              </g>
              <g id="Group_85" data-name="Group 85" transform="translate(0 21.689)">
                <g id="Group_84" data-name="Group 84">
                  <g id="Group_83" data-name="Group 83">
                    <g id="Group_82" data-name="Group 82">
                      <g id="Group_81" data-name="Group 81">
                        <path id="Path_1999" data-name="Path 1999" d="M638.571,442.874H149.308l.524-268.949H638.571Z" transform="translate(-149.308 -173.925)" fill="#fff"/>
                      </g>
                    </g>
                  </g>
                </g>
              </g>
              <g id="Group_90" data-name="Group 90" transform="translate(32.837 7.301)">
                <g id="Group_89" data-name="Group 89" transform="translate(0)">
                  <g id="Group_88" data-name="Group 88">
                    <g id="Group_87" data-name="Group 87">
                      <g id="Group_86" data-name="Group 86">
                        <path id="Path_2000" data-name="Path 2000" d="M186.424,164.992a3.907,3.907,0,1,1-3.908-3.906A3.907,3.907,0,0,1,186.424,164.992Z" transform="translate(-178.61 -161.086)" fill="#263238"/>
                      </g>
                    </g>
                  </g>
                </g>
              </g>
              <g id="Group_95" data-name="Group 95" transform="translate(9.153 7.301)">
                <g id="Group_94" data-name="Group 94" transform="translate(0)">
                  <g id="Group_93" data-name="Group 93">
                    <g id="Group_92" data-name="Group 92">
                      <g id="Group_91" data-name="Group 91">
                        <path id="Path_2001" data-name="Path 2001" d="M165.291,164.992a3.908,3.908,0,1,1-3.908-3.906A3.907,3.907,0,0,1,165.291,164.992Z" transform="translate(-157.476 -161.086)" fill="#263238"/>
                      </g>
                    </g>
                  </g>
                </g>
              </g>
              <g id="Group_100" data-name="Group 100" transform="translate(20.521 7.301)">
                <g id="Group_99" data-name="Group 99" transform="translate(0)">
                  <g id="Group_98" data-name="Group 98">
                    <g id="Group_97" data-name="Group 97">
                      <g id="Group_96" data-name="Group 96">
                        <path id="Path_2002" data-name="Path 2002" d="M175.435,164.992a3.908,3.908,0,1,1-3.908-3.906A3.907,3.907,0,0,1,175.435,164.992Z" transform="translate(-167.62 -161.086)" fill="#263238"/>
                      </g>
                    </g>
                  </g>
                </g>
              </g>
            </g>
          </g>
        </g>
        <rect id="Rectangle_72" data-name="Rectangle 72" width="489.787" height="25.971" transform="translate(31.461 284.484)" fill="#263238"/>
        <g id="Group_113" data-name="Group 113" transform="translate(45.861 292.236)">
          <g id="Group_104" data-name="Group 104" transform="translate(0 3.703)">
            <path id="Path_2003" data-name="Path 2003" d="M166.262,405.508v.831h-3.9v-.658l2.1-2c.513-.491.6-.8.6-1.1,0-.483-.333-.763-.983-.763a1.491,1.491,0,0,0-1.239.551l-.688-.529a2.445,2.445,0,0,1,2.01-.877c1.149,0,1.891.582,1.891,1.52a2.122,2.122,0,0,1-.877,1.671l-1.413,1.346Z" transform="translate(-162.158 -400.972)" fill="#fff"/>
            <path id="Path_2004" data-name="Path 2004" d="M166.295,402.746a.62.62,0,1,1,1.239,0,.62.62,0,1,1-1.239,0Zm0,2.88a.62.62,0,1,1,1.239,0,.62.62,0,1,1-1.239,0Z" transform="translate(-161.659 -400.834)" fill="#fff"/>
            <path id="Path_2005" data-name="Path 2005" d="M169.823,401.039v5.293h-.982v-4.468h-1.118v-.825Z" transform="translate(-161.487 -400.964)" fill="#fff"/>
            <path id="Path_2006" data-name="Path 2006" d="M175.258,405.13h-.938v1.2h-.953v-1.2h-2.9v-.681l2.608-3.41h1.051l-2.458,3.26H173.4v-1.067h.922V404.3h.938Z" transform="translate(-161.156 -400.964)" fill="#fff"/>
          </g>
          <g id="Group_105" data-name="Group 105" transform="translate(22.746 5.753)">
            <rect id="Rectangle_73" data-name="Rectangle 73" width="401.449" height="1.83" fill="#fff"/>
          </g>
          <g id="Group_106" data-name="Group 106" transform="translate(22.446 3.782)">
            <rect id="Rectangle_74" data-name="Rectangle 74" width="125.453" height="4.881" fill="#4d50fb"/>
          </g>
          <g id="Group_107" data-name="Group 107" transform="translate(139.732 0.562)">
            <path id="Path_2007" data-name="Path 2007" d="M299.066,404.276a6.108,6.108,0,1,1-6.107-6.107A6.108,6.108,0,0,1,299.066,404.276Z" transform="translate(-286.85 -398.169)" fill="#4d50fb"/>
          </g>
          <g id="Group_108" data-name="Group 108" transform="translate(430.08 2.884)">
            <path id="Path_2008" data-name="Path 2008" d="M550.171,403.967a1.763,1.763,0,0,1-1.934,1.717c-1.443,0-2.291-.929-2.291-2.631a2.505,2.505,0,0,1,2.593-2.812,2.655,2.655,0,0,1,1.391.34l-.363.741a1.793,1.793,0,0,0-1.005-.257c-1,0-1.626.621-1.626,1.822v.008a1.807,1.807,0,0,1,1.414-.551A1.652,1.652,0,0,1,550.171,403.967Zm-.951.045c0-.551-.416-.9-1.058-.9a.963.963,0,0,0-1.075.907c0,.5.393.891,1.1.891A.918.918,0,0,0,549.219,404.012Z" transform="translate(-545.946 -400.241)" fill="#fff"/>
            <path id="Path_2009" data-name="Path 2009" d="M550.143,402.016a.62.62,0,1,1,1.239,0,.62.62,0,1,1-1.239,0Zm0,2.88a.62.62,0,1,1,1.239,0,.62.62,0,1,1-1.239,0Z" transform="translate(-545.44 -400.103)" fill="#fff"/>
            <path id="Path_2010" data-name="Path 2010" d="M551.813,402.963c0-1.739.953-2.722,2.208-2.722s2.215.983,2.215,2.722-.953,2.721-2.215,2.721S551.813,404.7,551.813,402.963Zm3.432,0c0-1.277-.5-1.868-1.225-1.868s-1.217.591-1.217,1.868.5,1.866,1.217,1.866S555.245,404.239,555.245,402.963Z" transform="translate(-545.238 -400.241)" fill="#fff"/>
            <path id="Path_2011" data-name="Path 2011" d="M556.348,402.963c0-1.739.951-2.722,2.206-2.722s2.215.983,2.215,2.722-.953,2.721-2.215,2.721S556.348,404.7,556.348,402.963Zm3.431,0c0-1.277-.5-1.868-1.225-1.868s-1.217.591-1.217,1.868.5,1.866,1.217,1.866S559.779,404.239,559.779,402.963Z" transform="translate(-544.691 -400.241)" fill="#fff"/>
          </g>
          <g id="Group_109" data-name="Group 109" transform="translate(452.877)">
            <path id="Path_2012" data-name="Path 2012" d="M568.119,402.944h-1.83v-5.276h5.266v1.83h-3.436Z" transform="translate(-566.289 -397.667)" fill="#fff"/>
          </g>
          <g id="Group_110" data-name="Group 110" transform="translate(452.871 6.897)">
            <path id="Path_2013" data-name="Path 2013" d="M571.56,409.088h-5.276v-5.266h1.83v3.435h3.446Z" transform="translate(-566.284 -403.822)" fill="#fff"/>
          </g>
          <g id="Group_111" data-name="Group 111" transform="translate(461.284 6.885)">
            <path id="Path_2014" data-name="Path 2014" d="M579.058,409.089h-5.267v-1.831h3.437v-3.447h1.83Z" transform="translate(-573.791 -403.812)" fill="#fff"/>
          </g>
          <g id="Group_112" data-name="Group 112" transform="translate(461.279)">
            <path id="Path_2015" data-name="Path 2015" d="M579.063,402.933h-1.83V399.5h-3.446v-1.83h5.276Z" transform="translate(-573.787 -397.667)" fill="#fff"/>
          </g>
        </g>
      </g>
      <g id="Group_248" data-name="Group 248" transform="translate(47.969 62.628)">
        <g id="Group_245" data-name="Group 245" transform="translate(0)">
          <path id="Path_2016" data-name="Path 2016" d="M213.836,188.2H185l-14.419,24.974L185,238.144h28.838l14.419-24.974Z" transform="translate(-170.579 -188.195)" fill="#ebebeb"/>
          <g id="Group_244" data-name="Group 244" transform="translate(11.97 2.165)">
            <g id="Group_238" data-name="Group 238" transform="translate(0)">
              <g id="Group_115" data-name="Group 115">
                <path id="Path_2017" data-name="Path 2017" d="M186.063,217.824a25.7,25.7,0,0,1-3.528-4.545,8.647,8.647,0,0,1-1.188-5.531c.182-1.109.653-2.166.728-3.288.1-1.543-.547-3.156,0-4.6.855-2.26,3.9-2.61,5.744-4.172,1.437-1.216,2.137-3.192,3.717-4.215a6.986,6.986,0,0,1,4.784-.643,18.075,18.075,0,0,0,4.9.421,32.085,32.085,0,0,0,3.4-.908,4.635,4.635,0,0,1,3.422.233,2.227,2.227,0,0,1,.918,2.994c1.889-.871,4.289.6,4.806,2.617a5.66,5.66,0,0,1-2.119,5.52,12.393,12.393,0,0,1-5.715,2.333c-5.788,1.09-12.067.475-17.055-2.657" transform="translate(-181.261 -190.127)" fill="#263238"/>
              </g>
              <g id="Group_237" data-name="Group 237" transform="translate(0.359 3.26)">
                <g id="Group_211" data-name="Group 211" transform="translate(3.524 1.286)">
                  <g id="Group_210" data-name="Group 210">
                    <g id="Group_209" data-name="Group 209">
                      <g id="Group_128" data-name="Group 128">
                        <g id="Group_127" data-name="Group 127">
                          <g id="Group_126" data-name="Group 126">
                            <path id="Path_2018" data-name="Path 2018" d="M212.383,223.5c-.195-3.575-1.2-10.9-2.177-17.525a13.817,13.817,0,0,0-14.588-11.76l-.714.048c-7.666.964-11.13,8.014-9.953,15.649l2.25,27.51h18.709s-.441-4.827-.445-4.874C205.464,232.548,212.785,230.9,212.383,223.5Z" transform="translate(-184.726 -194.183)" fill="#ffbe9d"/>
                            <g id="Group_125" data-name="Group 125" transform="translate(10.916 36.162)">
                              <g id="Group_124" data-name="Group 124">
                                <g id="Group_123" data-name="Group 123">
                                  <g id="Group_122" data-name="Group 122">
                                    <g id="Group_121" data-name="Group 121">
                                      <g id="Group_120" data-name="Group 120">
                                        <g id="Group_119" data-name="Group 119">
                                          <g id="Group_118" data-name="Group 118">
                                            <g id="Group_117" data-name="Group 117">
                                              <g id="Group_116" data-name="Group 116">
                                                <path id="Path_2019" data-name="Path 2019" d="M204.295,228.549a17.247,17.247,0,0,1-9.828-2.1s2.636,5.171,9.972,4.011Z" transform="translate(-194.467 -226.453)" fill="#eb996e"/>
                                              </g>
                                            </g>
                                          </g>
                                        </g>
                                      </g>
                                    </g>
                                  </g>
                                </g>
                              </g>
                            </g>
                          </g>
                        </g>
                      </g>
                      <g id="Group_208" data-name="Group 208" transform="translate(7.812 11.199)">
                        <g id="Group_207" data-name="Group 207" transform="translate(0)">
                          <g id="Group_186" data-name="Group 186" transform="translate(0.979 3.336)">
                            <g id="Group_185" data-name="Group 185" transform="translate(0)">
                              <g id="Group_184" data-name="Group 184">
                                <g id="Group_150" data-name="Group 150" transform="translate(11.16)">
                                  <g id="Group_138" data-name="Group 138" transform="translate(1.042 2.715)">
                                    <g id="Group_137" data-name="Group 137">
                                      <g id="Group_136" data-name="Group 136">
                                        <g id="Group_135" data-name="Group 135">
                                          <g id="Group_134" data-name="Group 134">
                                            <g id="Group_133" data-name="Group 133">
                                              <g id="Group_132" data-name="Group 132">
                                                <g id="Group_131" data-name="Group 131">
                                                  <g id="Group_130" data-name="Group 130">
                                                    <g id="Group_129" data-name="Group 129">
                                                      <path id="Path_2020" data-name="Path 2020" d="M205.565,210.464a1.059,1.059,0,0,1-.948,1.134,1.013,1.013,0,0,1-1.152-.88,1.058,1.058,0,0,1,.946-1.134A1.014,1.014,0,0,1,205.565,210.464Z" transform="translate(-203.459 -209.576)" fill="#263238"/>
                                                    </g>
                                                  </g>
                                                </g>
                                              </g>
                                            </g>
                                          </g>
                                        </g>
                                      </g>
                                    </g>
                                  </g>
                                  <g id="Group_149" data-name="Group 149">
                                    <g id="Group_148" data-name="Group 148">
                                      <g id="Group_147" data-name="Group 147">
                                        <g id="Group_146" data-name="Group 146">
                                          <g id="Group_145" data-name="Group 145">
                                            <g id="Group_144" data-name="Group 144">
                                              <g id="Group_143" data-name="Group 143">
                                                <g id="Group_142" data-name="Group 142">
                                                  <g id="Group_141" data-name="Group 141">
                                                    <g id="Group_140" data-name="Group 140">
                                                      <g id="Group_139" data-name="Group 139">
                                                        <path id="Path_2021" data-name="Path 2021" d="M206.709,208.131c-.121.147-.962-.392-2.1-.313-1.136.062-1.932.7-2.064.572-.065-.057.052-.315.4-.6a2.9,2.9,0,0,1,1.641-.628,2.8,2.8,0,0,1,1.682.42C206.635,207.824,206.769,208.065,206.709,208.131Z" transform="translate(-202.53 -207.153)" fill="#263238"/>
                                                      </g>
                                                    </g>
                                                  </g>
                                                </g>
                                              </g>
                                            </g>
                                          </g>
                                        </g>
                                      </g>
                                    </g>
                                  </g>
                                </g>
                                <g id="Group_172" data-name="Group 172" transform="translate(0 0.959)">
                                  <g id="Group_160" data-name="Group 160" transform="translate(1.463 2.523)">
                                    <g id="Group_159" data-name="Group 159">
                                      <g id="Group_158" data-name="Group 158">
                                        <g id="Group_157" data-name="Group 157">
                                          <g id="Group_156" data-name="Group 156">
                                            <g id="Group_155" data-name="Group 155">
                                              <g id="Group_154" data-name="Group 154">
                                                <g id="Group_153" data-name="Group 153">
                                                  <g id="Group_152" data-name="Group 152">
                                                    <g id="Group_151" data-name="Group 151">
                                                      <path id="Path_2022" data-name="Path 2022" d="M195.982,211.149a1.059,1.059,0,0,1-.947,1.134,1.012,1.012,0,0,1-1.153-.88,1.059,1.059,0,0,1,.946-1.134A1.014,1.014,0,0,1,195.982,211.149Z" transform="translate(-193.876 -210.261)" fill="#263238"/>
                                                    </g>
                                                  </g>
                                                </g>
                                              </g>
                                            </g>
                                          </g>
                                        </g>
                                      </g>
                                    </g>
                                  </g>
                                  <g id="Group_171" data-name="Group 171">
                                    <g id="Group_170" data-name="Group 170">
                                      <g id="Group_169" data-name="Group 169">
                                        <g id="Group_168" data-name="Group 168">
                                          <g id="Group_167" data-name="Group 167">
                                            <g id="Group_166" data-name="Group 166">
                                              <g id="Group_165" data-name="Group 165">
                                                <g id="Group_164" data-name="Group 164">
                                                  <g id="Group_163" data-name="Group 163">
                                                    <g id="Group_162" data-name="Group 162">
                                                      <g id="Group_161" data-name="Group 161">
                                                        <path id="Path_2023" data-name="Path 2023" d="M196.751,208.987c-.122.147-.963-.392-2.1-.313-1.136.063-1.932.7-2.064.573-.064-.058.05-.315.4-.6a2.892,2.892,0,0,1,1.641-.629,2.789,2.789,0,0,1,1.682.421C196.675,208.68,196.81,208.921,196.751,208.987Z" transform="translate(-192.571 -208.009)" fill="#263238"/>
                                                      </g>
                                                    </g>
                                                  </g>
                                                </g>
                                              </g>
                                            </g>
                                          </g>
                                        </g>
                                      </g>
                                    </g>
                                  </g>
                                </g>
                                <g id="Group_183" data-name="Group 183" transform="translate(7.706 0.655)">
                                  <g id="Group_182" data-name="Group 182">
                                    <g id="Group_181" data-name="Group 181">
                                      <g id="Group_180" data-name="Group 180">
                                        <g id="Group_179" data-name="Group 179">
                                          <g id="Group_178" data-name="Group 178">
                                            <g id="Group_177" data-name="Group 177">
                                              <g id="Group_176" data-name="Group 176">
                                                <g id="Group_175" data-name="Group 175">
                                                  <g id="Group_174" data-name="Group 174">
                                                    <g id="Group_173" data-name="Group 173">
                                                      <path id="Path_2024" data-name="Path 2024" d="M200.61,217.175a7.565,7.565,0,0,1,1.824-.457c.288-.049.559-.126.6-.326a1.491,1.491,0,0,0-.251-.847q-.481-1.027-1.006-2.154a38.119,38.119,0,0,1-2.315-5.652,38.17,38.17,0,0,1,2.765,5.453c.338.758.662,1.478.97,2.168a1.685,1.685,0,0,1,.228,1.13.73.73,0,0,1-.449.456,1.953,1.953,0,0,1-.489.1A7.446,7.446,0,0,1,200.61,217.175Z" transform="translate(-199.447 -207.737)" fill="#263238"/>
                                                    </g>
                                                  </g>
                                                </g>
                                              </g>
                                            </g>
                                          </g>
                                        </g>
                                      </g>
                                    </g>
                                  </g>
                                </g>
                              </g>
                            </g>
                          </g>
                          <g id="Group_196" data-name="Group 196" transform="translate(0 0.083)">
                            <g id="Group_195" data-name="Group 195" transform="translate(0)">
                              <g id="Group_194" data-name="Group 194">
                                <g id="Group_193" data-name="Group 193">
                                  <g id="Group_192" data-name="Group 192">
                                    <g id="Group_191" data-name="Group 191">
                                      <g id="Group_190" data-name="Group 190">
                                        <g id="Group_189" data-name="Group 189">
                                          <g id="Group_188" data-name="Group 188">
                                            <g id="Group_187" data-name="Group 187">
                                              <path id="Path_2025" data-name="Path 2025" d="M196.852,204.966c-.092.317-1.236.247-2.559.5-1.328.223-2.377.686-2.573.42-.087-.128.081-.43.5-.759a4.533,4.533,0,0,1,3.91-.7C196.628,204.591,196.89,204.817,196.852,204.966Z" transform="translate(-191.697 -204.251)" fill="#263238"/>
                                            </g>
                                          </g>
                                        </g>
                                      </g>
                                    </g>
                                  </g>
                                </g>
                              </g>
                            </g>
                          </g>
                          <g id="Group_206" data-name="Group 206" transform="translate(11.796)">
                            <g id="Group_205" data-name="Group 205">
                              <g id="Group_204" data-name="Group 204">
                                <g id="Group_203" data-name="Group 203">
                                  <g id="Group_202" data-name="Group 202">
                                    <g id="Group_201" data-name="Group 201">
                                      <g id="Group_200" data-name="Group 200">
                                        <g id="Group_199" data-name="Group 199">
                                          <g id="Group_198" data-name="Group 198">
                                            <g id="Group_197" data-name="Group 197">
                                              <path id="Path_2026" data-name="Path 2026" d="M206.108,205.228c-.183.271-.984.056-1.926.106-.944.017-1.727.29-1.929.033-.09-.125.018-.393.351-.661a2.791,2.791,0,0,1,3.106-.111C206.061,204.838,206.188,205.1,206.108,205.228Z" transform="translate(-202.223 -204.176)" fill="#263238"/>
                                            </g>
                                          </g>
                                        </g>
                                      </g>
                                    </g>
                                  </g>
                                </g>
                              </g>
                            </g>
                          </g>
                        </g>
                      </g>
                    </g>
                  </g>
                </g>
                <g id="Group_233" data-name="Group 233" transform="translate(0 22.315)">
                  <g id="Group_221" data-name="Group 221" transform="translate(0)">
                    <g id="Group_220" data-name="Group 220">
                      <g id="Group_219" data-name="Group 219">
                        <g id="Group_218" data-name="Group 218">
                          <g id="Group_217" data-name="Group 217">
                            <g id="Group_216" data-name="Group 216">
                              <g id="Group_215" data-name="Group 215">
                                <g id="Group_214" data-name="Group 214">
                                  <g id="Group_213" data-name="Group 213">
                                    <g id="Group_212" data-name="Group 212">
                                      <path id="Path_2027" data-name="Path 2027" d="M186.3,213.086c-.13-.046-5.184-1.163-4.684,3.883s5.97,3.4,5.964,3.257S186.3,213.086,186.3,213.086Z" transform="translate(-181.581 -212.949)" fill="#ffbe9d"/>
                                    </g>
                                  </g>
                                </g>
                              </g>
                            </g>
                          </g>
                        </g>
                      </g>
                    </g>
                  </g>
                  <g id="Group_232" data-name="Group 232" transform="translate(1.307 1.716)">
                    <g id="Group_231" data-name="Group 231">
                      <g id="Group_230" data-name="Group 230">
                        <g id="Group_229" data-name="Group 229">
                          <g id="Group_228" data-name="Group 228">
                            <g id="Group_227" data-name="Group 227">
                              <g id="Group_226" data-name="Group 226">
                                <g id="Group_225" data-name="Group 225">
                                  <g id="Group_224" data-name="Group 224">
                                    <g id="Group_223" data-name="Group 223">
                                      <g id="Group_222" data-name="Group 222">
                                        <path id="Path_2028" data-name="Path 2028" d="M185.2,218.383c-.024-.013-.082.071-.224.154a.885.885,0,0,1-.656.078,2.188,2.188,0,0,1-1.2-1.852,2.922,2.922,0,0,1,.122-1.283,1.019,1.019,0,0,1,.594-.74.451.451,0,0,1,.544.189c.081.134.059.238.086.244s.1-.1.039-.3a.57.57,0,0,0-.23-.3.674.674,0,0,0-.5-.081,1.246,1.246,0,0,0-.84.873,3.015,3.015,0,0,0-.166,1.438,2.3,2.3,0,0,0,1.5,2.052.946.946,0,0,0,.79-.213C185.206,218.506,185.22,218.391,185.2,218.383Z" transform="translate(-182.748 -214.481)" fill="#eb996e"/>
                                      </g>
                                    </g>
                                  </g>
                                </g>
                              </g>
                            </g>
                          </g>
                        </g>
                      </g>
                    </g>
                  </g>
                </g>
                <g id="Group_236" data-name="Group 236" transform="translate(2.705)">
                  <g id="Group_235" data-name="Group 235">
                    <g id="Group_234" data-name="Group 234">
                      <path id="Path_2029" data-name="Path 2029" d="M209.919,199.2c-.346,2.008-4.421,3.849-7.8,3.751-3.114-.091-4.653-1.636-6.915-2.734-1.432-.695-1.432-.695-3.375-.379-1.572.255-2.387,2.109-3.27,3.435,1.681,3.663,1,7.924.289,11.891a2.016,2.016,0,0,1-.51,1.207,1.61,1.61,0,0,1-2.045-.31,6.269,6.269,0,0,1-1.594-3.206,20.871,20.871,0,0,1-.5-8.206,14.2,14.2,0,0,1,3.414-7.408,13.446,13.446,0,0,1,9.173-4.187,16.514,16.514,0,0,1,9.785,2.778,9.678,9.678,0,0,1,3.345,3.37" transform="translate(-183.995 -193.036)" fill="#263238"/>
                    </g>
                  </g>
                </g>
              </g>
            </g>
            <path id="Path_2030" data-name="Path 2030" d="M201.584,218.582l-2.572-1.2a.87.87,0,0,0-.468-.119.747.747,0,0,0-.445.3,2.393,2.393,0,0,0-.286,2.629,2.011,2.011,0,0,0,2.415.888,2.743,2.743,0,0,0,1.425-2.421Z" transform="translate(-179.297 -186.854)" fill="#eb996e"/>
            <g id="Group_239" data-name="Group 239" transform="translate(17.837 29.987)">
              <path id="Path_2031" data-name="Path 2031" d="M200.352,221.31c.04.05-.537.414-1.507.136a2.357,2.357,0,0,1-1.334-1.085,2.445,2.445,0,0,1-.169-2.109,2.553,2.553,0,0,1,.622-.933,2.316,2.316,0,0,1,.438-.328.739.739,0,0,1,.677-.039c.588.327.985.606,1.38.86.753.5,1.2.844,1.159.913s-.559-.149-1.366-.557l-1.373-.717c-.108-.029-.1-.029-.2.025a2.012,2.012,0,0,0-.317.254,2.108,2.108,0,0,0-.475.733,2,2,0,0,0,.1,1.642,2.069,2.069,0,0,0,1.006.956A5.455,5.455,0,0,0,200.352,221.31Z" transform="translate(-197.178 -216.887)" fill="#263238"/>
            </g>
            <g id="Group_240" data-name="Group 240" transform="translate(9.367 17.291)">
              <path id="Path_2032" data-name="Path 2032" d="M200.452,211.075c-.056,0-.049-.468-.275-1.258a5.264,5.264,0,0,0-1.932-2.766,5.019,5.019,0,1,0,0,8.049,5.266,5.266,0,0,0,1.932-2.766c.225-.79.218-1.262.275-1.26.02,0,.035.117.041.34a3.914,3.914,0,0,1-.1.975,5.242,5.242,0,0,1-1.9,3.039,5.459,5.459,0,0,1-5.2.849,5.52,5.52,0,0,1,0-10.4,5.458,5.458,0,0,1,5.2.849,5.245,5.245,0,0,1,1.9,3.038,3.918,3.918,0,0,1,.1.975C200.487,210.96,200.472,211.075,200.452,211.075Z" transform="translate(-189.62 -205.557)" fill="#263238"/>
            </g>
            <g id="Group_241" data-name="Group 241" transform="translate(22.223 16.931)">
              <path id="Path_2033" data-name="Path 2033" d="M211.655,210.619c-.057,0-.052-.457-.271-1.226A5.122,5.122,0,0,0,209.5,206.7a4.884,4.884,0,1,0,0,7.835,5.13,5.13,0,0,0,1.883-2.692c.22-.769.214-1.228.271-1.226.02,0,.034.113.041.331a3.836,3.836,0,0,1-.092.95,5.118,5.118,0,0,1-1.854,2.965,5.326,5.326,0,0,1-5.073.83,5.386,5.386,0,0,1,0-10.153,5.326,5.326,0,0,1,5.073.83,5.113,5.113,0,0,1,1.854,2.964,3.844,3.844,0,0,1,.092.951C211.689,210.506,211.675,210.619,211.655,210.619Z" transform="translate(-201.092 -205.235)" fill="#263238"/>
            </g>
            <g id="Group_242" data-name="Group 242" transform="translate(19.92 20.375)">
              <path id="Path_2034" data-name="Path 2034" d="M201.631,209.087c-.114.106-.614-.215-1.288-.194-.675,0-1.159.342-1.279.24-.154-.081.316-.808,1.269-.824S201.78,209,201.631,209.087Z" transform="translate(-199.037 -208.309)" fill="#263238"/>
            </g>
            <g id="Group_243" data-name="Group 243" transform="translate(5.249 22.045)">
              <path id="Path_2035" data-name="Path 2035" d="M190.673,209.815c.1.129-.882,1.023-2.185,2a7.69,7.69,0,0,1-2.536,1.529c-.1-.129.883-1.022,2.186-2A7.7,7.7,0,0,1,190.673,209.815Z" transform="translate(-185.945 -209.799)" fill="#263238"/>
            </g>
          </g>
        </g>
        <g id="Group_246" data-name="Group 246" transform="translate(68.052 24.428)">
          <path id="Path_2036" data-name="Path 2036" d="M289.213,210.285c0,.161-12.964.292-28.952.292s-28.955-.131-28.955-.292,12.961-.291,28.955-.291S289.213,210.125,289.213,210.285Z" transform="translate(-231.306 -209.994)" fill="#263238"/>
        </g>
        <g id="Group_247" data-name="Group 247" transform="translate(68.431 30.489)">
          <path id="Path_2037" data-name="Path 2037" d="M262.393,215.693c0,.161-6.884.291-15.374.291s-15.375-.13-15.375-.291,6.882-.291,15.375-.291S262.393,215.532,262.393,215.693Z" transform="translate(-231.644 -215.402)" fill="#263238"/>
        </g>
      </g>
    </g>
  </g>
  <g id="Character" transform="translate(126.386 11.239)">
    <g id="Group_447" data-name="Group 447">
      <path id="Path_2038" data-name="Path 2038" d="M439.262,250.209a44.154,44.154,0,0,1,20.8,26.862c5.406,19.363,21.958,69.79,21.958,69.79s9.459,11.128,10.472,19.369-1.013,28.172-4.053,31.888a8.563,8.563,0,0,1-7.377,3.1l-39.813-3.775L425.568,292.468Z" transform="translate(-218.239 -106.333)" fill="#286497"/>
      <path id="Path_2039" data-name="Path 2039" d="M324.128,250.083s-28.467,8.929-35.562,16.7l23.31,108.44-.372,34.214H446.469c0-1.689,1.21-113.6,1.21-113.6l8.108-43.917-47.97-8.445-9.459-7.432-53.375,2.7-8.108,8.108Z" transform="translate(-234.764 -108.042)" fill="#286497"/>
      <g id="Group_250" data-name="Group 250" transform="translate(76.836 233.963)" opacity="0.3">
        <path id="Path_2040" data-name="Path 2040" d="M332.461,332.755c-.415-.919-1.01-1.913-2-2.117-1.625-.336-2.712,1.586-3.265,3.151a142.572,142.572,0,0,1-17.729,34.618l-.346,16.649c7.868-6.621,15.626-13.713,20.642-22.69S336.7,342.127,332.461,332.755Z" transform="translate(-309.121 -330.599)"/>
      </g>
      <path id="Path_2041" data-name="Path 2041" d="M294.357,263.474s-9.38,12.786-13.275,21.134-36.169,78.459-38.117,85.693-6.956,30.048,7.791,35.335h30.326l30.439-61.551,1.557-71.441Z" transform="translate(-240.555 -104.733)" fill="#286497"/>
      <g id="Group_251" data-name="Group 251" transform="translate(5.535 251.537)">
        <path id="Path_2042" data-name="Path 2042" d="M282.429,351.185c-.04.046-.676-.6-2.072-1.391a23.264,23.264,0,0,0-6.365-2.305,30.5,30.5,0,0,0-4.639-.652,18.447,18.447,0,0,0-5.32.346,19.831,19.831,0,0,0-10.21,6.409,27.659,27.659,0,0,0-5.78,10.748,53.545,53.545,0,0,0-1.824,9.921c-.284,2.868-.39,5.2-.49,6.816-.047.754-.086,1.369-.117,1.858a2.735,2.735,0,0,1-.08.647,2.762,2.762,0,0,1-.038-.651c0-.49,0-1.1.008-1.861.029-1.616.073-3.957.3-6.845a51.284,51.284,0,0,1,1.719-10.036,27.759,27.759,0,0,1,5.86-10.982,20.153,20.153,0,0,1,10.529-6.547,18.7,18.7,0,0,1,5.469-.3,29.875,29.875,0,0,1,4.7.733,21.886,21.886,0,0,1,6.389,2.512,10.884,10.884,0,0,1,1.505,1.115A2.718,2.718,0,0,1,282.429,351.185Z" transform="translate(-245.494 -346.282)" fill="#263238"/>
      </g>
      <g id="Group_252" data-name="Group 252" transform="translate(28.088 243.946)">
        <path id="Path_2043" data-name="Path 2043" d="M265.62,339.747a3.5,3.5,0,0,1,1.02-.164,17.3,17.3,0,0,1,2.813-.039,23.266,23.266,0,0,1,4.136.612,24.628,24.628,0,0,1,9.2,4.388,23.373,23.373,0,0,1,3.078,2.831,17.4,17.4,0,0,1,1.74,2.21,3.511,3.511,0,0,1,.513.9c-.09.064-.911-1.152-2.553-2.822a26.661,26.661,0,0,0-3.1-2.684,26.415,26.415,0,0,0-9.011-4.3,26.452,26.452,0,0,0-4.038-.721C267.089,339.731,265.628,339.857,265.62,339.747Z" transform="translate(-265.62 -339.508)" fill="#263238"/>
      </g>
      <g id="Group_253" data-name="Group 253" transform="translate(20.557 239.632)">
        <path id="Path_2044" data-name="Path 2044" d="M293.85,336.838a6.611,6.611,0,0,1-1.4-.108c-.894-.114-2.194-.245-3.8-.364a64.738,64.738,0,0,0-24.8,2.967c-1.532.494-2.763.928-3.605,1.251a6.5,6.5,0,0,1-1.338.435,6.507,6.507,0,0,1,1.252-.645c.818-.389,2.034-.883,3.559-1.431a57.347,57.347,0,0,1,24.974-2.988c1.611.173,2.909.366,3.8.551A6.521,6.521,0,0,1,293.85,336.838Z" transform="translate(-258.9 -335.659)" fill="#263238"/>
      </g>
      <g id="Group_254" data-name="Group 254" transform="translate(102.109 138.808)">
        <path id="Path_2045" data-name="Path 2045" d="M371.45,287.788a1.947,1.947,0,0,1-.308-.364l-.827-1.109c-.743-1.029-1.769-2.45-3.049-4.224l-10.563-14.9.471-.067c-1.634,4.8-3.437,10.093-5.335,15.666l-.12.352-.306-.2-.629-.4a32.362,32.362,0,0,1-6.6-5.576,39.309,39.309,0,0,1-4.714-6.52,54.4,54.4,0,0,1-5.188-12.543,85.054,85.054,0,0,1-1.964-8.935c-.177-1.018-.318-1.83-.425-2.444-.05-.279-.108-.484-.142-.625a.719.719,0,0,1-.071-.206c.124-.054.453,1.122.861,3.234.436,2.11,1.044,5.173,2.138,8.861a55.633,55.633,0,0,0,5.256,12.387,39.369,39.369,0,0,0,4.674,6.407,32.136,32.136,0,0,0,6.492,5.468l.617.4-.426.156c1.914-5.566,3.734-10.855,5.382-15.649l.171-.5.3.433c4.224,6.107,7.815,11.3,10.389,15.025l2.926,4.31c.309.472.559.854.759,1.156A1.957,1.957,0,0,1,371.45,287.788Z" transform="translate(-331.674 -245.686)" fill="#263238"/>
      </g>
      <g id="Group_255" data-name="Group 255" transform="translate(176.729 232.676)" opacity="0.3">
        <path id="Path_2046" data-name="Path 2046" d="M398.556,329.451a61.312,61.312,0,0,0,7.8,36.365c6.281,10.923,15.482,20.657,26.946,25.882.371-11.129-.164-24.238.207-35.367Z" transform="translate(-398.262 -329.451)"/>
      </g>
      <g id="Group_261" data-name="Group 261" transform="translate(173.161 191.465)">
        <path id="Path_2047" data-name="Path 2047" d="M397.67,319.235s-4.9,1.362-1.225,11.4,4.9,9.437,7.353,18.832,5.311,17.97,9.6,23.282,20.223,16.137,20.223,16.137l14.3-13.482s-2.357-10.048-1.791-16.871,1.995-23.573,1.791-26.433-3.268-9.805-3.268-9.805v-4.75L437.3,294.927s-4.086-1.839-5.516,4.7l-2.451-6.938s-3.882-.62-4.9,7.347.817,19,.817,19l-2.043,13.89-3.064,9.4-2.655.408s-4-1.091-6.187-8.614S403.186,317.6,397.67,319.235Z" transform="translate(-395.078 -292.676)" fill="#ffbe9d"/>
        <g id="Group_256" data-name="Group 256" transform="translate(32.125 33.609)">
          <path id="Path_2048" data-name="Path 2048" d="M439.675,351.148a2.226,2.226,0,0,1-.066-.515c-.027-.39-.062-.884-.1-1.5-.074-1.369-.176-3.264-.3-5.624-.22-4.878-.527-11.666-.884-19.59l.065.166a2.868,2.868,0,0,0-2.895-.754,4.225,4.225,0,0,0-2.65,1.943c-1.248,2.009-1.317,4.628-1.708,7.156-.775,5.724-1.514,11.176-2.186,16.145-.341,2.481-.7,4.843-1.183,7.029a45.945,45.945,0,0,1-1.773,5.958,50.254,50.254,0,0,0-1.539,4.851,14.9,14.9,0,0,0-.462,3.782,11.838,11.838,0,0,0,.566,3.2,4.6,4.6,0,0,1-.344-.783,8.9,8.9,0,0,1-.448-2.412,14.448,14.448,0,0,1,.371-3.864,46.9,46.9,0,0,1,1.466-4.913,46.959,46.959,0,0,0,1.69-5.926c.458-2.168.8-4.517,1.123-7,.659-4.971,1.382-10.424,2.141-16.152.179-1.276.318-2.537.54-3.8a9.959,9.959,0,0,1,1.261-3.591,4.8,4.8,0,0,1,3.008-2.183,3.416,3.416,0,0,1,3.44.949l.061.074,0,.092c.272,7.927.505,14.717.673,19.6.061,2.362.11,4.259.146,5.631.006.614.011,1.109.016,1.5A2.272,2.272,0,0,1,439.675,351.148Z" transform="translate(-423.745 -322.667)" fill="#eb996e"/>
        </g>
        <g id="Group_257" data-name="Group 257" transform="translate(37.285 16.84)">
          <path id="Path_2049" data-name="Path 2049" d="M431.3,327.212a5.822,5.822,0,0,1-.6-1.279,32.542,32.542,0,0,1-1.2-3.662,36.9,36.9,0,0,1-1.028-5.628,16.451,16.451,0,0,1-.061-3.411,7.286,7.286,0,0,1,1.233-3.5,5,5,0,0,1,2.614-1.962l.22-.065.112.2c2.071,3.654,3.87,6.878,5.135,9.2q.871,1.631,1.466,2.742a4.7,4.7,0,0,1,.468,1.029,4.762,4.762,0,0,1-.647-.928l-1.615-2.656c-1.354-2.269-3.214-5.459-5.306-9.1l.331.132a4.463,4.463,0,0,0-2.3,1.748,6.809,6.809,0,0,0-1.142,3.229,16.405,16.405,0,0,0,.028,3.3,41.447,41.447,0,0,0,.892,5.581c.361,1.571.744,2.821,1.011,3.685A7.478,7.478,0,0,1,431.3,327.212Z" transform="translate(-428.349 -307.703)" fill="#eb996e"/>
        </g>
        <g id="Group_258" data-name="Group 258" transform="translate(36.217 5.136)">
          <path id="Path_2050" data-name="Path 2050" d="M428,330.31a5.648,5.648,0,0,1-.132-1.3c-.039-.964-.087-2.152-.145-3.556-.1-3-.189-7.151-.256-11.733a100.785,100.785,0,0,1,.182-11.758,17.986,17.986,0,0,1,.767-3.5,4.331,4.331,0,0,1,.524-1.2,32.978,32.978,0,0,0-.881,4.747c-.285,2.966-.043,7.119-.008,11.7.066,4.582.093,8.732.084,11.736-.016,1.405-.03,2.594-.041,3.558A5.636,5.636,0,0,1,428,330.31Z" transform="translate(-427.396 -297.259)" fill="#eb996e"/>
        </g>
        <g id="Group_259" data-name="Group 259" transform="translate(24.724 52.718)">
          <path id="Path_2051" data-name="Path 2051" d="M417.146,362.853c-.083-.068.812-1.122,1.919-3.031a25.18,25.18,0,0,0,1.664-3.487,25.014,25.014,0,0,0,1.671-9.254,25.253,25.253,0,0,0-.34-3.849c-.369-2.176-.839-3.476-.737-3.511a3.138,3.138,0,0,1,.408.885,16.321,16.321,0,0,1,.735,2.548,21.933,21.933,0,0,1,.471,3.915,23.211,23.211,0,0,1-1.708,9.464,21.912,21.912,0,0,1-1.811,3.5,16.349,16.349,0,0,1-1.58,2.131C417.42,362.636,417.177,362.88,417.146,362.853Z" transform="translate(-417.14 -339.72)" fill="#eb996e"/>
        </g>
        <path id="Path_2052" data-name="Path 2052" d="M440.759,354.093l12.409,4.307s11.847-6.128,20.018,0,15.268,22.278,13.022,28.814c0,0-5.639,6.962-9.929,7.983s-20.966-3.018-27.9-4.478c-6.957-1.465-18.9-9.237-18.9-9.237Z" transform="translate(-390.929 -285.268)" fill="#ffbe9d"/>
        <g id="Group_260" data-name="Group 260" transform="translate(50.676 59.115)">
          <path id="Path_2053" data-name="Path 2053" d="M440.977,373.419a4.122,4.122,0,0,1-.132-1.1c-.049-.84-.108-1.838-.176-3-.131-2.531-.3-6.032-.354-9.906a98.283,98.283,0,0,1,.286-9.922c.11-1.267.249-2.289.375-2.989a4.081,4.081,0,0,1,.257-1.078c.092.015-.1,1.569-.221,4.095s-.171,6.021-.114,9.886c.071,3.788.133,7.212.184,9.9.015,1.268.011,2.3-.009,3.007A4.011,4.011,0,0,1,440.977,373.419Z" transform="translate(-440.299 -345.428)" fill="#eb996e"/>
        </g>
      </g>
      <g id="Group_262" data-name="Group 262" transform="translate(231.641 255.273)">
        <path id="Path_2054" data-name="Path 2054" d="M481.054,358.453a39.04,39.04,0,0,0-4.127-3.72,22.7,22.7,0,0,0-25.152-1.386,38.919,38.919,0,0,0-4.51,3.244,6.211,6.211,0,0,1,1.023-1.108,20.243,20.243,0,0,1,3.276-2.491,22.308,22.308,0,0,1,25.614,1.412,20.138,20.138,0,0,1,2.982,2.836A6.216,6.216,0,0,1,481.054,358.453Z" transform="translate(-447.263 -349.616)" fill="#263238"/>
      </g>
      <g id="Group_263" data-name="Group 263" transform="translate(227.889 249.059)">
        <path id="Path_2055" data-name="Path 2055" d="M479.863,348.775a24.337,24.337,0,0,0-5.163-2.846,22.833,22.833,0,0,0-13.97-.419,32.43,32.43,0,0,0-7.225,3.007,34.3,34.3,0,0,0-5.233,3.7c-1.392,1.188-2.457,2.226-3.187,2.947a9.071,9.071,0,0,1-1.169,1.094,7.779,7.779,0,0,1,1-1.25A38.939,38.939,0,0,1,448,351.9a32.15,32.15,0,0,1,5.236-3.852,31.475,31.475,0,0,1,7.337-3.1,22.411,22.411,0,0,1,14.277.6,16.429,16.429,0,0,1,3.819,2.155,10.632,10.632,0,0,1,.909.772C479.778,348.657,479.877,348.761,479.863,348.775Z" transform="translate(-443.916 -344.07)" fill="#263238"/>
      </g>
      <g id="Group_264" data-name="Group 264" transform="translate(225.529 242.82)">
        <path id="Path_2056" data-name="Path 2056" d="M480.219,340.48c-.03.115-2.2-.548-5.8-1.035a46.757,46.757,0,0,0-6.361-.4,46.268,46.268,0,0,0-15.3,2.693,46.833,46.833,0,0,0-5.842,2.55c-3.221,1.689-5.033,3.053-5.1,2.955a8.242,8.242,0,0,1,1.243-.993,17.045,17.045,0,0,1,1.541-1.053c.619-.383,1.306-.853,2.122-1.272a42.034,42.034,0,0,1,5.853-2.693,43.822,43.822,0,0,1,15.486-2.725,42,42,0,0,1,6.42.533c.911.114,1.717.322,2.43.471a16.97,16.97,0,0,1,1.808.464A8.332,8.332,0,0,1,480.219,340.48Z" transform="translate(-441.809 -338.503)" fill="#263238"/>
      </g>
      <g id="Group_265" data-name="Group 265" transform="translate(138.338 135.061)">
        <path id="Path_2057" data-name="Path 2057" d="M394.537,242.343a10.39,10.39,0,0,1,.861,3.3,32.2,32.2,0,0,1-.472,9.626,57.212,57.212,0,0,1-1.6,6.709,50.758,50.758,0,0,1-3.259,7.453c-2.673,5.154-6.036,10.772-9.931,16.767l-.455.7v-.838c-.006-3.96-.012-8.118-.019-12.434l.436.208-10.465,8.448.092-.133a110.148,110.148,0,0,0-4.655,25.157c-1.024,13.638-.2,26.681.445,38.515.551,11.85.912,22.522,1.282,31.483s.679,16.21.949,21.216c.147,2.481.261,4.417.341,5.763.043.638.075,1.135.1,1.5.019.338.013.513.013.513s-.035-.171-.073-.508c-.038-.362-.091-.858-.158-1.494-.123-1.316-.285-3.256-.45-5.759-.34-5.006-.726-12.254-1.134-21.213s-.877-19.631-1.406-31.471c-.672-11.825-1.518-24.9-.49-38.587a109.968,109.968,0,0,1,4.7-25.285l.026-.079.066-.054,10.482-8.426.437-.351v.559c-.007,4.317-.012,8.474-.019,12.434l-.456-.138c7.7-11.939,13.96-22.313,14.923-30.706a33.131,33.131,0,0,0,.605-9.556,16.285,16.285,0,0,0-.461-2.483C394.609,242.633,394.537,242.343,394.537,242.343Z" transform="translate(-364.003 -242.343)" fill="#263238"/>
      </g>
      <path id="Path_2058" data-name="Path 2058" d="M373.688,371.339l-.4-.013a3.159,3.159,0,1,0,.4.013Z" transform="translate(-224.916 -91.724)" fill="#fff"/>
      <g id="Group_266" data-name="Group 266" transform="translate(145.301 191.465)">
        <path id="Path_2059" data-name="Path 2059" d="M373.688,332.8l-.4-.013a3.158,3.158,0,1,0,.4.013Z" transform="translate(-370.217 -287.838)" fill="#fff"/>
        <path id="Path_2060" data-name="Path 2060" d="M373.268,299a3.161,3.161,0,0,0,.419-6.306l-.4-.015a3.162,3.162,0,0,0-.019,6.32Z" transform="translate(-370.217 -292.676)" fill="#fff"/>
      </g>
      <g id="Group_406" data-name="Group 406" transform="translate(85.329)">
        <g id="Group_400" data-name="Group 400" transform="translate(0)">
          <g id="Group_267" data-name="Group 267">
            <path id="Path_2061" data-name="Path 2061" d="M331.343,206.273c-3.929-4.349-7.894-8.746-10.757-13.861s-4.572-11.083-3.623-16.868c.554-3.382,1.991-6.6,2.22-10.024.314-4.705-1.664-9.623,0-14.035,2.608-6.894,11.889-7.96,17.515-12.722,4.382-3.709,6.515-9.731,11.335-12.85,4.211-2.725,9.622-2.666,14.587-1.963s9.963,1.955,14.935,1.288c3.543-.477,6.881-1.91,10.352-2.769s7.342-1.087,10.434.709,4.828,6.185,2.8,9.131c5.76-2.656,13.078,1.833,14.653,7.978s-1.579,12.783-6.46,16.834-11.194,5.937-17.427,7.111c-17.649,3.326-36.791,1.45-52-8.1" transform="translate(-316.7 -121.819)" fill="#263238"/>
          </g>
          <g id="Group_399" data-name="Group 399" transform="translate(1.095 9.939)">
            <g id="Group_373" data-name="Group 373" transform="translate(10.742 3.921)">
              <g id="Group_372" data-name="Group 372">
                <g id="Group_371" data-name="Group 371">
                  <g id="Group_290" data-name="Group 290">
                    <g id="Group_289" data-name="Group 289">
                      <g id="Group_288" data-name="Group 288">
                        <g id="Group_277" data-name="Group 277">
                          <g id="Group_276" data-name="Group 276">
                            <g id="Group_275" data-name="Group 275">
                              <g id="Group_274" data-name="Group 274">
                                <g id="Group_273" data-name="Group 273">
                                  <g id="Group_272" data-name="Group 272">
                                    <g id="Group_271" data-name="Group 271">
                                      <g id="Group_270" data-name="Group 270">
                                        <g id="Group_269" data-name="Group 269">
                                          <g id="Group_268" data-name="Group 268">
                                            <path id="Path_2062" data-name="Path 2062" d="M392.11,264.113c-.862-6.681-1.568-12.254-1.61-12.947,0,0,22.324-5.017,21.095-27.591-.6-10.908-3.649-33.278-6.645-53.483a42.111,42.111,0,0,0-44.475-35.81l-2.175.146c-23.375,2.941-33.937,24.435-30.351,47.719l12.613,78.075s5.382,17.271,16.893,20.261l14.529,20.754,2.4-8.934,10.828-9.428a42.647,42.647,0,0,0,5.339-7.947A17.4,17.4,0,0,0,392.11,264.113Z" transform="translate(-327.263 -134.187)" fill="#ffbe9d"/>
                                          </g>
                                        </g>
                                      </g>
                                    </g>
                                  </g>
                                </g>
                              </g>
                            </g>
                          </g>
                        </g>
                        <g id="Group_287" data-name="Group 287" transform="translate(33.288 110.261)">
                          <g id="Group_286" data-name="Group 286">
                            <g id="Group_285" data-name="Group 285">
                              <g id="Group_284" data-name="Group 284">
                                <g id="Group_283" data-name="Group 283">
                                  <g id="Group_282" data-name="Group 282">
                                    <g id="Group_281" data-name="Group 281">
                                      <g id="Group_280" data-name="Group 280">
                                        <g id="Group_279" data-name="Group 279">
                                          <g id="Group_278" data-name="Group 278">
                                            <path id="Path_2063" data-name="Path 2063" d="M386.932,238.97s-14.177,2.114-29.964-6.39c0,0,8.036,15.767,30.407,12.23Z" transform="translate(-356.968 -232.58)" fill="#eb996e"/>
                                          </g>
                                        </g>
                                      </g>
                                    </g>
                                  </g>
                                </g>
                              </g>
                            </g>
                          </g>
                        </g>
                      </g>
                    </g>
                  </g>
                  <g id="Group_370" data-name="Group 370" transform="translate(23.822 34.148)">
                    <g id="Group_369" data-name="Group 369" transform="translate(0)">
                      <g id="Group_348" data-name="Group 348" transform="translate(2.986 10.167)">
                        <g id="Group_347" data-name="Group 347" transform="translate(0)">
                          <g id="Group_346" data-name="Group 346">
                            <g id="Group_312" data-name="Group 312" transform="translate(34.028)">
                              <g id="Group_300" data-name="Group 300" transform="translate(3.175 8.279)">
                                <g id="Group_299" data-name="Group 299">
                                  <g id="Group_298" data-name="Group 298">
                                    <g id="Group_297" data-name="Group 297">
                                      <g id="Group_296" data-name="Group 296">
                                        <g id="Group_295" data-name="Group 295">
                                          <g id="Group_294" data-name="Group 294">
                                            <g id="Group_293" data-name="Group 293">
                                              <g id="Group_292" data-name="Group 292">
                                                <g id="Group_291" data-name="Group 291">
                                                  <path id="Path_2064" data-name="Path 2064" d="M390.8,183.829a3.227,3.227,0,0,1-2.888,3.457A3.088,3.088,0,0,1,384.4,184.6a3.23,3.23,0,0,1,2.886-3.459A3.09,3.09,0,0,1,390.8,183.829Z" transform="translate(-384.385 -181.12)" fill="#263238"/>
                                                </g>
                                              </g>
                                            </g>
                                          </g>
                                        </g>
                                      </g>
                                    </g>
                                  </g>
                                </g>
                              </g>
                              <g id="Group_311" data-name="Group 311">
                                <g id="Group_310" data-name="Group 310">
                                  <g id="Group_309" data-name="Group 309">
                                    <g id="Group_308" data-name="Group 308">
                                      <g id="Group_307" data-name="Group 307">
                                        <g id="Group_306" data-name="Group 306">
                                          <g id="Group_305" data-name="Group 305">
                                            <g id="Group_304" data-name="Group 304">
                                              <g id="Group_303" data-name="Group 303">
                                                <g id="Group_302" data-name="Group 302">
                                                  <g id="Group_301" data-name="Group 301">
                                                    <path id="Path_2065" data-name="Path 2065" d="M394.295,176.717c-.371.446-2.932-1.2-6.4-.955-3.465.191-5.89,2.144-6.293,1.745-.2-.176.158-.962,1.211-1.841a8.857,8.857,0,0,1,5-1.917,8.5,8.5,0,0,1,5.127,1.284C394.067,175.78,394.48,176.516,394.295,176.717Z" transform="translate(-381.552 -173.732)" fill="#263238"/>
                                                  </g>
                                                </g>
                                              </g>
                                            </g>
                                          </g>
                                        </g>
                                      </g>
                                    </g>
                                  </g>
                                </g>
                              </g>
                            </g>
                            <g id="Group_334" data-name="Group 334" transform="translate(0 2.926)">
                              <g id="Group_322" data-name="Group 322" transform="translate(4.46 7.694)">
                                <g id="Group_321" data-name="Group 321">
                                  <g id="Group_320" data-name="Group 320">
                                    <g id="Group_319" data-name="Group 319">
                                      <g id="Group_318" data-name="Group 318">
                                        <g id="Group_317" data-name="Group 317">
                                          <g id="Group_316" data-name="Group 316">
                                            <g id="Group_315" data-name="Group 315">
                                              <g id="Group_314" data-name="Group 314">
                                                <g id="Group_313" data-name="Group 313">
                                                  <path id="Path_2066" data-name="Path 2066" d="M361.585,185.918a3.228,3.228,0,0,1-2.888,3.457,3.088,3.088,0,0,1-3.515-2.682,3.231,3.231,0,0,1,2.886-3.459A3.09,3.09,0,0,1,361.585,185.918Z" transform="translate(-355.166 -183.209)" fill="#263238"/>
                                                </g>
                                              </g>
                                            </g>
                                          </g>
                                        </g>
                                      </g>
                                    </g>
                                  </g>
                                </g>
                              </g>
                              <g id="Group_333" data-name="Group 333">
                                <g id="Group_332" data-name="Group 332">
                                  <g id="Group_331" data-name="Group 331">
                                    <g id="Group_330" data-name="Group 330">
                                      <g id="Group_329" data-name="Group 329">
                                        <g id="Group_328" data-name="Group 328">
                                          <g id="Group_327" data-name="Group 327">
                                            <g id="Group_326" data-name="Group 326">
                                              <g id="Group_325" data-name="Group 325">
                                                <g id="Group_324" data-name="Group 324">
                                                  <g id="Group_323" data-name="Group 323">
                                                    <path id="Path_2067" data-name="Path 2067" d="M363.931,179.327c-.372.447-2.936-1.195-6.4-.954-3.465.191-5.89,2.144-6.295,1.744-.2-.175.156-.959,1.214-1.84a8.845,8.845,0,0,1,5-1.917,8.516,8.516,0,0,1,5.128,1.284C363.7,178.391,364.113,179.127,363.931,179.327Z" transform="translate(-351.186 -176.343)" fill="#263238"/>
                                                  </g>
                                                </g>
                                              </g>
                                            </g>
                                          </g>
                                        </g>
                                      </g>
                                    </g>
                                  </g>
                                </g>
                              </g>
                            </g>
                            <g id="Group_345" data-name="Group 345" transform="translate(23.496 1.999)">
                              <g id="Group_344" data-name="Group 344">
                                <g id="Group_343" data-name="Group 343">
                                  <g id="Group_342" data-name="Group 342">
                                    <g id="Group_341" data-name="Group 341">
                                      <g id="Group_340" data-name="Group 340">
                                        <g id="Group_339" data-name="Group 339">
                                          <g id="Group_338" data-name="Group 338">
                                            <g id="Group_337" data-name="Group 337">
                                              <g id="Group_336" data-name="Group 336">
                                                <g id="Group_335" data-name="Group 335">
                                                  <path id="Path_2068" data-name="Path 2068" d="M375.7,204.291c-.029-.2,2.1-.713,5.562-1.393.88-.15,1.7-.382,1.814-1a4.528,4.528,0,0,0-.766-2.584q-1.464-3.128-3.068-6.565c-4.277-9.352-7.435-17.066-7.058-17.235s4.152,7.274,8.428,16.627c1.033,2.308,2.02,4.507,2.961,6.613.4.984,1.054,2.085.691,3.443a2.224,2.224,0,0,1-1.368,1.392,6.01,6.01,0,0,1-1.489.309C377.905,204.325,375.727,204.487,375.7,204.291Z" transform="translate(-372.153 -175.516)" fill="#263238"/>
                                                </g>
                                              </g>
                                            </g>
                                          </g>
                                        </g>
                                      </g>
                                    </g>
                                  </g>
                                </g>
                              </g>
                            </g>
                          </g>
                        </g>
                      </g>
                      <g id="Group_358" data-name="Group 358" transform="translate(0 0.251)">
                        <g id="Group_357" data-name="Group 357">
                          <g id="Group_356" data-name="Group 356">
                            <g id="Group_355" data-name="Group 355">
                              <g id="Group_354" data-name="Group 354">
                                <g id="Group_353" data-name="Group 353">
                                  <g id="Group_352" data-name="Group 352">
                                    <g id="Group_351" data-name="Group 351">
                                      <g id="Group_350" data-name="Group 350">
                                        <g id="Group_349" data-name="Group 349">
                                          <path id="Path_2069" data-name="Path 2069" d="M364.239,167.066c-.279.966-3.771.751-7.8,1.513-4.049.681-7.248,2.091-7.844,1.282-.268-.389.244-1.313,1.509-2.314a13.813,13.813,0,0,1,11.921-2.129C363.554,165.918,364.355,166.61,364.239,167.066Z" transform="translate(-348.521 -164.883)" fill="#263238"/>
                                        </g>
                                      </g>
                                    </g>
                                  </g>
                                </g>
                              </g>
                            </g>
                          </g>
                        </g>
                      </g>
                      <g id="Group_368" data-name="Group 368" transform="translate(35.966)">
                        <g id="Group_367" data-name="Group 367">
                          <g id="Group_366" data-name="Group 366">
                            <g id="Group_365" data-name="Group 365">
                              <g id="Group_364" data-name="Group 364">
                                <g id="Group_363" data-name="Group 363">
                                  <g id="Group_362" data-name="Group 362">
                                    <g id="Group_361" data-name="Group 361">
                                      <g id="Group_360" data-name="Group 360">
                                        <g id="Group_359" data-name="Group 359">
                                          <path id="Path_2070" data-name="Path 2070" d="M392.462,167.865c-.557.828-3,.17-5.873.324-2.879.053-5.267.884-5.882.1-.271-.382.058-1.2,1.071-2.014a8.521,8.521,0,0,1,9.471-.34C392.319,166.675,392.705,167.463,392.462,167.865Z" transform="translate(-380.616 -164.659)" fill="#263238"/>
                                        </g>
                                      </g>
                                    </g>
                                  </g>
                                </g>
                              </g>
                            </g>
                          </g>
                        </g>
                      </g>
                    </g>
                  </g>
                </g>
              </g>
            </g>
            <g id="Group_395" data-name="Group 395" transform="translate(0 68.043)">
              <g id="Group_383" data-name="Group 383" transform="translate(0)">
                <g id="Group_382" data-name="Group 382">
                  <g id="Group_381" data-name="Group 381">
                    <g id="Group_380" data-name="Group 380">
                      <g id="Group_379" data-name="Group 379">
                        <g id="Group_378" data-name="Group 378">
                          <g id="Group_377" data-name="Group 377">
                            <g id="Group_376" data-name="Group 376">
                              <g id="Group_375" data-name="Group 375">
                                <g id="Group_374" data-name="Group 374">
                                  <path id="Path_2071" data-name="Path 2071" d="M332.063,191.824c-.4-.141-15.8-3.548-14.28,11.839s18.2,10.372,18.182,9.928S332.063,191.824,332.063,191.824Z" transform="translate(-317.677 -191.408)" fill="#ffbe9d"/>
                                </g>
                              </g>
                            </g>
                          </g>
                        </g>
                      </g>
                    </g>
                  </g>
                </g>
              </g>
              <g id="Group_394" data-name="Group 394" transform="translate(3.985 5.233)">
                <g id="Group_393" data-name="Group 393">
                  <g id="Group_392" data-name="Group 392">
                    <g id="Group_391" data-name="Group 391">
                      <g id="Group_390" data-name="Group 390">
                        <g id="Group_389" data-name="Group 389">
                          <g id="Group_388" data-name="Group 388">
                            <g id="Group_387" data-name="Group 387">
                              <g id="Group_386" data-name="Group 386">
                                <g id="Group_385" data-name="Group 385">
                                  <g id="Group_384" data-name="Group 384">
                                    <path id="Path_2072" data-name="Path 2072" d="M328.718,207.976c-.073-.043-.25.214-.682.466a2.689,2.689,0,0,1-2,.24c-1.684-.436-3.309-2.881-3.659-5.647a8.911,8.911,0,0,1,.371-3.912,3.112,3.112,0,0,1,1.812-2.257,1.372,1.372,0,0,1,1.655.578c.249.41.182.726.266.744.047.035.3-.29.118-.913a1.723,1.723,0,0,0-.7-.9,2.04,2.04,0,0,0-1.522-.244,3.786,3.786,0,0,0-2.564,2.663,9.152,9.152,0,0,0-.5,4.381c.406,3.092,2.28,5.835,4.569,6.258a2.88,2.88,0,0,0,2.411-.65C328.727,208.35,328.774,208,328.718,207.976Z" transform="translate(-321.234 -196.077)" fill="#eb996e"/>
                                  </g>
                                </g>
                              </g>
                            </g>
                          </g>
                        </g>
                      </g>
                    </g>
                  </g>
                </g>
              </g>
            </g>
            <g id="Group_398" data-name="Group 398" transform="translate(8.246)">
              <g id="Group_397" data-name="Group 397">
                <g id="Group_396" data-name="Group 396">
                  <path id="Path_2073" data-name="Path 2073" d="M404.083,149.492c-1.057,6.125-13.48,11.737-23.78,11.437-9.5-.277-14.185-4.988-21.084-8.336-4.367-2.119-4.367-2.119-10.293-1.156-4.791.779-7.277,6.432-9.968,10.473,5.125,11.17,3.054,24.162.881,36.259a6.139,6.139,0,0,1-1.557,3.677c-1.73,1.525-4.534.612-6.236-.946-2.723-2.493-3.964-6.191-4.856-9.774a63.572,63.572,0,0,1-1.524-25.022,43.283,43.283,0,0,1,10.409-22.592,41.006,41.006,0,0,1,27.972-12.765,50.36,50.36,0,0,1,29.837,8.471c4.079,2.673,7.894,5.977,10.2,10.275" transform="translate(-325.036 -130.688)" fill="#263238"/>
                </g>
              </g>
            </g>
          </g>
        </g>
        <path id="Path_2074" data-name="Path 2074" d="M378.667,208.584l-7.843-3.658a2.641,2.641,0,0,0-1.427-.361,2.288,2.288,0,0,0-1.357.922,7.3,7.3,0,0,0-.868,8.015,6.127,6.127,0,0,0,7.36,2.706c2.78-1.151,4.131-4.38,4.348-7.382Z" transform="translate(-310.712 -111.84)" fill="#eb996e"/>
        <g id="Group_401" data-name="Group 401" transform="translate(54.689 91.714)">
          <path id="Path_2075" data-name="Path 2075" d="M374.879,216.871c.021.067-.363.294-1.147.457a6.8,6.8,0,0,1-3.374-.249,7.031,7.031,0,0,1-3.9-3.236,7.23,7.23,0,0,1-.477-6.186,7.546,7.546,0,0,1,1.82-2.743,6.933,6.933,0,0,1,1.272-.962,1.9,1.9,0,0,1,1.815-.112,11.375,11.375,0,0,1,1.221.694l1.069.657,1.911,1.195c2.325,1.476,3.724,2.459,3.642,2.6s-1.625-.592-4.058-1.886l-1.981-1.071-1.1-.606a12.414,12.414,0,0,0-1.108-.583.829.829,0,0,0-.858.082,6.187,6.187,0,0,0-1.031.817,6.645,6.645,0,0,0-1.525,2.339,6.328,6.328,0,0,0,.332,5.252,6.471,6.471,0,0,0,3.241,2.98,7.693,7.693,0,0,0,3.037.569C374.43,216.858,374.855,216.784,374.879,216.871Z" transform="translate(-365.502 -203.662)" fill="#263238"/>
        </g>
        <g id="Group_402" data-name="Group 402" transform="translate(29.161 53.246)">
          <path id="Path_2076" data-name="Path 2076" d="M375.153,185.637a27.951,27.951,0,0,0-.613-3.9,16.013,16.013,0,0,0-5.86-8.714A15.81,15.81,0,0,0,353.7,170.8a15.83,15.83,0,0,0-7.328,5.51,15.722,15.722,0,0,0,0,18.657,15.847,15.847,0,0,0,7.329,5.512,15.936,15.936,0,0,0,20.839-10.945,27.951,27.951,0,0,0,.613-3.9.871.871,0,0,1,.017.261c0,.207-.007.459-.01.766a7.263,7.263,0,0,1-.1,1.244,11.209,11.209,0,0,1-.3,1.68,15.188,15.188,0,0,1-1.739,4.338,16.232,16.232,0,0,1-10.927,7.733,16.342,16.342,0,0,1-8.577-.677,16.336,16.336,0,0,1-7.607-5.679,16.248,16.248,0,0,1,0-19.334,16.321,16.321,0,0,1,7.606-5.677,16.327,16.327,0,0,1,8.576-.678,16.222,16.222,0,0,1,10.928,7.733,15.167,15.167,0,0,1,1.738,4.338,11.079,11.079,0,0,1,.3,1.68,7.263,7.263,0,0,1,.1,1.244c0,.307.007.559.01.766A.871.871,0,0,1,375.153,185.637Z" transform="translate(-342.722 -169.334)" fill="#263238"/>
        </g>
        <g id="Group_403" data-name="Group 403" transform="translate(68.359 52.148)">
          <path id="Path_2077" data-name="Path 2077" d="M409.309,184.247a27.27,27.27,0,0,0-.6-3.8,15.6,15.6,0,0,0-5.71-8.486,15.4,15.4,0,0,0-14.592-2.172,15.452,15.452,0,0,0-7.137,5.368,15.315,15.315,0,0,0,0,18.171,15.42,15.42,0,0,0,7.138,5.369,15.523,15.523,0,0,0,20.3-10.658,27.269,27.269,0,0,0,.6-3.8,6.434,6.434,0,0,1,.009,1,7.1,7.1,0,0,1-.1,1.213,10.979,10.979,0,0,1-.292,1.636,15.765,15.765,0,0,1-12.344,11.769,15.916,15.916,0,0,1-8.361-.659,15.936,15.936,0,0,1-7.416-5.536,15.838,15.838,0,0,1,0-18.849,15.928,15.928,0,0,1,7.415-5.535,15.912,15.912,0,0,1,8.36-.659A15.764,15.764,0,0,1,408.93,180.4a10.978,10.978,0,0,1,.292,1.636,7.106,7.106,0,0,1,.1,1.214A6.414,6.414,0,0,1,409.309,184.247Z" transform="translate(-377.701 -168.355)" fill="#263238"/>
        </g>
        <g id="Group_404" data-name="Group 404" transform="translate(60.819 62.723)">
          <path id="Path_2078" data-name="Path 2078" d="M378.8,179.564c-.063.065-.434-.247-1.115-.569a6.448,6.448,0,0,0-2.822-.62,6.37,6.37,0,0,0-2.8.717c-.668.349-1.023.677-1.089.615-.055-.044.206-.492.874-.967a5.441,5.441,0,0,1,3-.948,5.505,5.505,0,0,1,3.035.843C378.576,179.083,378.857,179.518,378.8,179.564Z" transform="translate(-370.973 -177.791)" fill="#263238"/>
        </g>
        <g id="Group_405" data-name="Group 405" transform="translate(16.025 67.261)">
          <path id="Path_2079" data-name="Path 2079" d="M345.4,181.846a69.53,69.53,0,0,1-7.022,5.606A69.117,69.117,0,0,1,331,192.591a69.461,69.461,0,0,1,7.023-5.606A69.424,69.424,0,0,1,345.4,181.846Z" transform="translate(-331 -181.84)" fill="#263238"/>
        </g>
      </g>
      <g id="Group_407" data-name="Group 407" transform="translate(102.241 140.2)" opacity="0.3">
        <path id="Path_2080" data-name="Path 2080" d="M332.041,246.929c-1.559,15.209,4.224,31.262,16.423,40.478.957.723,2.158,1.44,3.287,1.032a3.608,3.608,0,0,0,1.7-1.756,29.7,29.7,0,0,0,3.636-19.541c-1.931,5.088-3.589,10.08-5.539,15.4C340.92,276.089,334.3,262.367,332.041,246.929Z" transform="translate(-331.791 -246.929)"/>
      </g>
      <path id="Path_2081" data-name="Path 2081" d="M368.864,281.659l8.949-3.269,1.483,15.138s9.66-17.6,13.656-25.635,1.941-22.205,1.941-22.205,1.43,12.346-8.248,28.1l-7.306,11.873V273.222Z" transform="translate(-225.079 -106.878)" opacity="0.3"/>
      <g id="Group_408" data-name="Group 408" transform="translate(8.094 249.863)" opacity="0.3">
        <path id="Path_2082" data-name="Path 2082" d="M279.345,346.646c-3.992-1.885-8.584-2.138-12.969-1.627-4.63.539-9.28,1.956-12.908,4.884s-6.089,7.542-5.636,12.182l.448.064c3.122-8.453,9.335-14.6,17.345-15.348s15.828,2.821,21.327,8.694C286.417,351.113,283.336,348.53,279.345,346.646Z" transform="translate(-247.778 -344.788)"/>
      </g>
      <g id="Group_409" data-name="Group 409" transform="translate(232.88 254.043)" opacity="0.3">
        <path id="Path_2083" data-name="Path 2083" d="M481.5,354.838a20.5,20.5,0,0,0-11.56-5.956,25.978,25.978,0,0,0-21.569,6.244l1.708-1.386a27.209,27.209,0,0,1,14.363-3.9,20.792,20.792,0,0,1,13.692,5.47c3.346,3.188,5.358,7.492,7.275,11.7A14.656,14.656,0,0,0,481.5,354.838Z" transform="translate(-448.369 -348.518)"/>
      </g>
      <g id="Group_410" data-name="Group 410" transform="translate(208.305 159.476)">
        <path id="Path_2084" data-name="Path 2084" d="M426.445,294.71a5.454,5.454,0,0,1,.4-1.224l1.273-3.258c1.084-2.745,2.571-6.541,4.142-10.76s2.924-8.066,3.9-10.853q.689-1.95,1.165-3.3a5.425,5.425,0,0,1,.5-1.188,5.488,5.488,0,0,1-.279,1.256c-.215.8-.552,1.947-.991,3.357-.875,2.824-2.171,6.7-3.743,10.928s-3.124,8.006-4.308,10.715c-.592,1.354-1.086,2.443-1.446,3.188A5.481,5.481,0,0,1,426.445,294.71Z" transform="translate(-426.439 -264.13)" fill="#263238"/>
      </g>
      <g id="Group_411" data-name="Group 411" transform="translate(62.148 167.217)">
        <path id="Path_2085" data-name="Path 2085" d="M300.9,294.976c-.158.033-1.376-5.3-2.72-11.91s-2.306-12-2.148-12.028,1.376,5.3,2.72,11.911S301.057,294.944,300.9,294.976Z" transform="translate(-296.014 -271.038)" fill="#263238"/>
      </g>
      <g id="Group_418" data-name="Group 418" transform="translate(12.369 184.821)">
        <g id="Group_416" data-name="Group 416">
          <path id="Path_2086" data-name="Path 2086" d="M298.929,359.742c.353.178-4.106-34.921-4.106-34.921s2.815-26.636,4.4-27.869l.04-9.4s4.356-2.639,5.526,1.622c0,0,3.863-3.354,4.537,4.63s.817,16.144.817,16.144l8.6,21.5,1.416.716s1.847-16.842,2.922-19.321,1.811-8.506,5.885-7.6,4.416,4.276,3.682,9.771-1.644,11.167-1.3,14.716,1.951,11.36,1.456,17.566-3.893,12.754-7.46,17.349-10.381,14.1-14.086,16.966C309.956,382.612,298.929,359.742,298.929,359.742Z" transform="translate(-246.379 -286.747)" fill="#ffbe9d"/>
          <g id="Group_412" data-name="Group 412" transform="translate(53.033 10.662)">
            <path id="Path_2087" data-name="Path 2087" d="M302.775,330.031a7.337,7.337,0,0,1,.024-1.5c.074-1.078.168-2.445.28-4.078.262-3.44.665-8.19,1.144-13.432.248-2.614.484-5.106.7-7.389a13.227,13.227,0,0,0,.039-3.168,4.5,4.5,0,0,0-1.072-2.423,4.825,4.825,0,0,0-3.51-1.54,9.042,9.042,0,0,0-1.462.187c-.008-.019.111-.081.348-.184a3.771,3.771,0,0,1,1.107-.231,4.928,4.928,0,0,1,3.819,1.487,4.862,4.862,0,0,1,1.247,2.627,13.237,13.237,0,0,1,.019,3.292c-.2,2.286-.423,4.778-.654,7.394-.481,5.242-.948,9.986-1.314,13.417l-.466,4.06A7.474,7.474,0,0,1,302.775,330.031Z" transform="translate(-298.918 -296.262)" fill="#eb996e"/>
          </g>
          <g id="Group_413" data-name="Group 413" transform="translate(56.571 30.075)">
            <path id="Path_2088" data-name="Path 2088" d="M307.016,313.586a12.152,12.152,0,0,0-1.523,2.771c-.693,1.83-.942,4.579-1.429,7.577-.463,3-.914,5.712-1.27,7.671a17.771,17.771,0,0,1-.695,3.15,17.7,17.7,0,0,1,.287-3.214c.251-1.973.638-4.7,1.1-7.7.486-2.982.8-5.753,1.622-7.637a7.235,7.235,0,0,1,1.243-2.046C306.727,313.735,307,313.565,307.016,313.586Z" transform="translate(-302.075 -313.584)" fill="#eb996e"/>
          </g>
          <g id="Group_414" data-name="Group 414" transform="translate(58.333 1.968)">
            <path id="Path_2089" data-name="Path 2089" d="M303.666,288.5a4.24,4.24,0,0,1,.3,1.1c.157.717.352,1.762.566,3.057.428,2.589.9,6.189,1.193,10.185s.359,7.628.316,10.253c-.021,1.312-.061,2.373-.111,3.106a4.287,4.287,0,0,1-.133,1.136,37.353,37.353,0,0,1-.169-4.24c-.062-2.617-.192-6.23-.484-10.212s-.7-7.572-1.021-10.17A37.282,37.282,0,0,1,303.666,288.5Z" transform="translate(-303.648 -288.503)" fill="#eb996e"/>
          </g>
          <g id="Group_415" data-name="Group 415" transform="translate(77.973 33.292)">
            <path id="Path_2090" data-name="Path 2090" d="M326.352,318.038c.085.133-1.256.756-2.895.247-1.646-.492-2.41-1.757-2.267-1.82a7.577,7.577,0,0,0,5.162,1.573Z" transform="translate(-321.174 -316.456)" fill="#eb996e"/>
          </g>
          <path id="Path_2091" data-name="Path 2091" d="M304.626,347.99l-22.714,9.545H268.38S255,361.712,252.936,374.26s-2.353,19,3.53,20.557,22.505,1.723,30.742-1.01,29.814-20.145,29.814-20.145l2.08-12.6Z" transform="translate(-251.593 -279.36)" fill="#ffbe9d"/>
        </g>
        <g id="Group_417" data-name="Group 417" transform="translate(51.52 61.88)">
          <path id="Path_2092" data-name="Path 2092" d="M304.4,362.582c-.029.028-.257-.183-.645-.592a14.09,14.09,0,0,1-1.476-1.877,25.643,25.643,0,0,1-3.171-7.184,42.491,42.491,0,0,1-1.4-7.718,14.442,14.442,0,0,1-.089-3.245,23.332,23.332,0,0,1,.5,3.2,57.5,57.5,0,0,0,1.551,7.606,29.978,29.978,0,0,0,2.96,7.124C303.649,361.59,304.481,362.51,304.4,362.582Z" transform="translate(-297.568 -341.966)" fill="#eb996e"/>
        </g>
      </g>
      <g id="Group_419" data-name="Group 419" transform="translate(70.332 240.185)">
        <path id="Path_2093" data-name="Path 2093" d="M313.594,367.267a23.379,23.379,0,0,0,1.294-4.869,15.7,15.7,0,0,0-3.05-11.4c-1.381-1.933-2.932-3.617-4.239-5.247a24.346,24.346,0,0,1-3.07-4.642,12.206,12.206,0,0,1-1.139-3.583,4.147,4.147,0,0,1-.038-1.376,15.523,15.523,0,0,0,1.545,4.773,25.986,25.986,0,0,0,3.118,4.487c1.318,1.6,2.887,3.273,4.3,5.25a16.325,16.325,0,0,1,2.832,6.214,15.8,15.8,0,0,1,.151,5.577,14.333,14.333,0,0,1-1.041,3.608,7.686,7.686,0,0,1-.458.911C313.682,367.175,313.612,367.276,313.594,367.267Z" transform="translate(-303.317 -336.152)" fill="#eb996e"/>
      </g>
      <g id="Group_446" data-name="Group 446" transform="translate(13.394 140.17)">
        <g id="Group_420" data-name="Group 420" transform="translate(21.643 56.029)">
          <path id="Path_2094" data-name="Path 2094" d="M282.379,317.31a112.683,112.683,0,0,1-5.535-10.07,113.128,113.128,0,0,1-5.017-10.339,113.128,113.128,0,0,1,5.535,10.071A113.741,113.741,0,0,1,282.379,317.31Z" transform="translate(-271.821 -296.9)" fill="#fff"/>
        </g>
        <g id="Group_421" data-name="Group 421" transform="translate(68.924 18.991)">
          <path id="Path_2095" data-name="Path 2095" d="M314.023,280.406a70.334,70.334,0,0,1,3.42-8.4,70.807,70.807,0,0,1,3.955-8.159,70.547,70.547,0,0,1-3.421,8.4A70.8,70.8,0,0,1,314.023,280.406Z" transform="translate(-314.013 -263.849)" fill="#fff"/>
        </g>
        <g id="Group_422" data-name="Group 422" transform="translate(95.053 50.191)">
          <path id="Path_2096" data-name="Path 2096" d="M347.18,303.586a51.309,51.309,0,0,1-5.147-5.76,51.292,51.292,0,0,1-4.7-6.133,102.278,102.278,0,0,1,9.846,11.893Z" transform="translate(-337.329 -291.69)" fill="#fff"/>
        </g>
        <g id="Group_423" data-name="Group 423" transform="translate(96.621 87.235)">
          <path id="Path_2097" data-name="Path 2097" d="M338.736,336.1a84.409,84.409,0,0,1,8.231-11.35,84.384,84.384,0,0,1-8.231,11.35Z" transform="translate(-338.729 -324.748)" fill="#fff"/>
        </g>
        <g id="Group_424" data-name="Group 424" transform="translate(78.544 133.826)">
          <path id="Path_2098" data-name="Path 2098" d="M329.543,382.64a10.986,10.986,0,0,1-1.316-2.251c-.735-1.429-1.69-3.437-2.649-5.695s-1.743-4.339-2.261-5.861a10.878,10.878,0,0,1-.707-2.509,12.4,12.4,0,0,1,1.094,2.363l2.412,5.779c.924,2.136,1.76,4.07,2.486,5.747A12.354,12.354,0,0,1,329.543,382.64Z" transform="translate(-322.597 -366.323)" fill="#fff"/>
        </g>
        <g id="Group_425" data-name="Group 425" transform="translate(103.641 125.582)">
          <path id="Path_2099" data-name="Path 2099" d="M358.49,361.611a80.882,80.882,0,0,1-13.5-2.612,81.112,81.112,0,0,1,13.5,2.612Z" transform="translate(-344.993 -358.967)" fill="#fff"/>
        </g>
        <g id="Group_426" data-name="Group 426" transform="translate(141.678 65.596)">
          <path id="Path_2100" data-name="Path 2100" d="M378.939,319.894a83.55,83.55,0,0,1,6.487-7.425,83.309,83.309,0,0,1,6.915-7.029,83.536,83.536,0,0,1-6.487,7.425A83.109,83.109,0,0,1,378.939,319.894Z" transform="translate(-378.936 -305.438)" fill="#fff"/>
        </g>
        <g id="Group_427" data-name="Group 427" transform="translate(150.635 125.195)">
          <path id="Path_2101" data-name="Path 2101" d="M402.668,377.728c-.124.1-3.747-4.091-8.093-9.366s-7.767-9.635-7.643-9.738,3.747,4.09,8.093,9.367S402.792,377.624,402.668,377.728Z" transform="translate(-386.929 -358.621)" fill="#fff"/>
        </g>
        <g id="Group_428" data-name="Group 428" transform="translate(0 116.908)">
          <path id="Path_2102" data-name="Path 2102" d="M265.6,351.235c.082.16-3.229,1.84-6.836,4.609-3.625,2.748-6.12,5.5-6.252,5.376a8.411,8.411,0,0,1,1.524-1.9,36.309,36.309,0,0,1,9.325-7.113A8.447,8.447,0,0,1,265.6,351.235Z" transform="translate(-252.508 -351.227)" fill="#fff"/>
        </g>
        <g id="Group_429" data-name="Group 429" transform="translate(16.564 92.151)">
          <path id="Path_2103" data-name="Path 2103" d="M273.049,329.137a46.357,46.357,0,0,1-5.75,8.648,46.367,46.367,0,0,1,5.75-8.648Z" transform="translate(-267.289 -329.134)" fill="#fff"/>
        </g>
        <g id="Group_430" data-name="Group 430" transform="translate(40.795 106.894)">
          <path id="Path_2104" data-name="Path 2104" d="M291.243,351.868a14.823,14.823,0,0,1-2.177-9.578c.175,0,.233,2.212.842,4.846C290.5,349.772,291.4,351.793,291.243,351.868Z" transform="translate(-288.911 -342.29)" fill="#fff"/>
        </g>
        <g id="Group_431" data-name="Group 431" transform="translate(37.494 39.172)">
          <path id="Path_2105" data-name="Path 2105" d="M294.682,281.922a33.31,33.31,0,0,1-8.716,1.239,33.316,33.316,0,0,1,8.716-1.239Z" transform="translate(-285.966 -281.858)" fill="#fff"/>
        </g>
        <g id="Group_432" data-name="Group 432" transform="translate(53.992 11.513)">
          <path id="Path_2106" data-name="Path 2106" d="M308.531,257.191a34.528,34.528,0,0,1-7.841,4.346,34.525,34.525,0,0,1,7.841-4.346Z" transform="translate(-300.688 -257.176)" fill="#fff"/>
        </g>
        <g id="Group_433" data-name="Group 433" transform="translate(97.585 12.487)">
          <path id="Path_2107" data-name="Path 2107" d="M347.776,268.791a39.3,39.3,0,0,1-4.322-5.194,39.309,39.309,0,0,1-3.858-5.548,78.408,78.408,0,0,1,8.18,10.742Z" transform="translate(-339.589 -258.045)" fill="#fff"/>
        </g>
        <g id="Group_434" data-name="Group 434" transform="translate(154.756 40.199)">
          <path id="Path_2108" data-name="Path 2108" d="M397.4,293.672a27.415,27.415,0,0,1-6.78-10.9c.159-.068,1.365,2.545,3.24,5.543C395.718,291.322,397.53,293.56,397.4,293.672Z" transform="translate(-390.606 -282.774)" fill="#fff"/>
        </g>
        <g id="Group_435" data-name="Group 435" transform="translate(177.671 58.113)">
          <path id="Path_2109" data-name="Path 2109" d="M416.22,298.761a66.643,66.643,0,0,1-5.152,11.353,66.874,66.874,0,0,1,5.152-11.353Z" transform="translate(-411.055 -298.76)" fill="#fff"/>
        </g>
        <g id="Group_436" data-name="Group 436" transform="translate(174.933 15.985)">
          <path id="Path_2110" data-name="Path 2110" d="M419.491,274.238a62.3,62.3,0,0,1-5.661-6.347,62.11,62.11,0,0,1-5.213-6.721,62.258,62.258,0,0,1,5.661,6.348A62.041,62.041,0,0,1,419.491,274.238Z" transform="translate(-408.612 -261.167)" fill="#fff"/>
        </g>
        <g id="Group_437" data-name="Group 437" transform="translate(152.791)">
          <path id="Path_2111" data-name="Path 2111" d="M389.437,246.9a25.7,25.7,0,0,1-.077,5.453,25.642,25.642,0,0,1-.507-5.431" transform="translate(-388.853 -246.902)" fill="#fff"/>
        </g>
        <g id="Group_438" data-name="Group 438" transform="translate(165.892 3.938)">
          <path id="Path_2112" data-name="Path 2112" d="M414.459,250.46a84.444,84.444,0,0,1-13.915,1.861,84.769,84.769,0,0,1,13.915-1.861Z" transform="translate(-400.544 -250.416)" fill="#fff"/>
        </g>
        <g id="Group_439" data-name="Group 439" transform="translate(213.752 18.527)">
          <path id="Path_2113" data-name="Path 2113" d="M451.063,279.561a68.821,68.821,0,0,1-4.163-7.935,69.149,69.149,0,0,1-3.639-8.189,68.79,68.79,0,0,1,4.164,7.935A69.123,69.123,0,0,1,451.063,279.561Z" transform="translate(-443.252 -263.435)" fill="#fff"/>
        </g>
        <g id="Group_440" data-name="Group 440" transform="translate(214.5 48.511)">
          <path id="Path_2114" data-name="Path 2114" d="M443.952,302.835a35.856,35.856,0,0,1,.976-6.377,35.854,35.854,0,0,1,1.549-6.265,35.882,35.882,0,0,1-.976,6.38A35.788,35.788,0,0,1,443.952,302.835Z" transform="translate(-443.919 -290.192)" fill="#fff"/>
        </g>
        <g id="Group_441" data-name="Group 441" transform="translate(227.791 64.633)">
          <path id="Path_2115" data-name="Path 2115" d="M461.889,321.993a73.109,73.109,0,0,1-3.324-8.611,73.446,73.446,0,0,1-2.772-8.8,72.929,72.929,0,0,1,3.324,8.611A73.047,73.047,0,0,1,461.889,321.993Z" transform="translate(-455.78 -304.578)" fill="#fff"/>
        </g>
        <g id="Group_442" data-name="Group 442" transform="translate(220.749 88.601)">
          <path id="Path_2116" data-name="Path 2116" d="M459.949,331.633a19.7,19.7,0,0,1-10.449-5.659c.114-.134,2.18,1.572,5.066,3.123C457.441,330.667,460,331.464,459.949,331.633Z" transform="translate(-449.496 -325.966)" fill="#fff"/>
        </g>
        <g id="Group_443" data-name="Group 443" transform="translate(252.506 114.297)">
          <path id="Path_2117" data-name="Path 2117" d="M481.34,356.734a31.629,31.629,0,0,1-3.485-7.835,31.627,31.627,0,0,1,3.485,7.835Z" transform="translate(-477.835 -348.896)" fill="#fff"/>
        </g>
        <g id="Group_444" data-name="Group 444" transform="translate(108.251 151.002)">
          <path id="Path_2118" data-name="Path 2118" d="M350.338,391.642a43.329,43.329,0,0,1-1.162-9.991,43.514,43.514,0,0,1,1.162,9.991Z" transform="translate(-349.107 -381.651)" fill="#fff"/>
        </g>
        <g id="Group_445" data-name="Group 445" transform="translate(185.563 149.487)">
          <path id="Path_2119" data-name="Path 2119" d="M418.137,389.883a41.222,41.222,0,0,1,2.037-9.584,41.224,41.224,0,0,1-2.037,9.584Z" transform="translate(-418.098 -380.299)" fill="#fff"/>
        </g>
      </g>
    </g>
  </g>
  <g id="Speech_Bubble" data-name="Speech Bubble" transform="translate(339.979)">
    <g id="Group_480" data-name="Group 480" transform="translate(0)">
      <g id="Group_460" data-name="Group 460">
        <g id="Group_459" data-name="Group 459">
          <g id="Group_458" data-name="Group 458">
            <g id="Group_457" data-name="Group 457">
              <g id="Group_451" data-name="Group 451" transform="translate(0 0.224)">
                <g id="Group_450" data-name="Group 450">
                  <g id="Group_449" data-name="Group 449">
                    <g id="Group_448" data-name="Group 448">
                      <path id="Path_2120" data-name="Path 2120" d="M431.158,200.037,441,182.69a46.479,46.479,0,1,1,11.133,12.384l.016.02Z" transform="translate(-431.158 -111.99)" fill="#fafafa"/>
                    </g>
                  </g>
                </g>
              </g>
              <g id="Group_456" data-name="Group 456" transform="translate(0)">
                <g id="Group_455" data-name="Group 455">
                  <g id="Group_454" data-name="Group 454">
                    <g id="Group_453" data-name="Group 453">
                      <g id="Group_452" data-name="Group 452">
                        <path id="Path_2121" data-name="Path 2121" d="M431.158,200.061l21.024-4.8.215-.049-.134-.176-.016-.021-.2.2a47.594,47.594,0,0,0,9.545,5.756,46.573,46.573,0,0,0,12.727,3.634,41.767,41.767,0,0,0,7.349.371c1.264-.072,2.552-.1,3.849-.211l3.922-.593a46.831,46.831,0,0,0,29.006-18.62,46.28,46.28,0,0,0,7.844-17.931,47.306,47.306,0,0,0-.548-20.649,45.783,45.783,0,0,0-9.949-19.09l-1.9-2.085c-.623-.7-1.366-1.28-2.041-1.923-.707-.608-1.345-1.3-2.1-1.836l-2.228-1.665a19.6,19.6,0,0,0-2.306-1.526l-2.356-1.43-2.464-1.2a21.5,21.5,0,0,0-2.49-1.106,47.34,47.34,0,0,0-20.805-3.2,45.79,45.79,0,0,0-19.1,5.643,47.088,47.088,0,0,0-22.031,27.111,50.141,50.141,0,0,0-2.017,15.1,46.153,46.153,0,0,0,2.274,13.034,47.048,47.048,0,0,0,4.655,9.988l0-.139c-6.212,11.123-9.247,16.561-9.724,17.414l9.962-17.279.04-.069-.043-.071a47.083,47.083,0,0,1-4.568-9.949,46.007,46.007,0,0,1-2.2-12.941A49.914,49.914,0,0,1,436.4,144.8a46.679,46.679,0,0,1,21.859-26.783,45.3,45.3,0,0,1,18.882-5.554,46.852,46.852,0,0,1,20.555,3.174,21.322,21.322,0,0,1,2.458,1.094l2.435,1.183,2.325,1.413a19.387,19.387,0,0,1,2.277,1.507l2.2,1.646c.751.531,1.38,1.213,2.078,1.813.667.636,1.4,1.207,2.017,1.9l1.872,2.061a45.267,45.267,0,0,1,9.832,18.853,46.831,46.831,0,0,1,.557,20.4,45.794,45.794,0,0,1-7.732,17.733,46.407,46.407,0,0,1-28.663,18.483l-3.882.6c-1.285.111-2.561.146-3.813.221a41.416,41.416,0,0,1-7.285-.343,46.345,46.345,0,0,1-12.639-3.552,47.489,47.489,0,0,1-9.511-5.663l-.865-.661.663.861.017.02.08-.225Z" transform="translate(-431.158 -111.79)" fill="#263238"/>
                      </g>
                    </g>
                  </g>
                </g>
              </g>
            </g>
          </g>
        </g>
      </g>
      <g id="Group_479" data-name="Group 479" transform="translate(25.045 40.152)">
        <g id="Group_466" data-name="Group 466" transform="translate(36.855 0.001)">
          <g id="Group_465" data-name="Group 465">
            <g id="Group_464" data-name="Group 464">
              <g id="Group_463" data-name="Group 463">
                <g id="Group_462" data-name="Group 462">
                  <g id="Group_461" data-name="Group 461">
                    <path id="Path_2122" data-name="Path 2122" d="M486.4,152.156a4.535,4.535,0,1,0,4.534-4.535A4.533,4.533,0,0,0,486.4,152.156Z" transform="translate(-486.395 -147.621)" fill="#263238"/>
                  </g>
                </g>
              </g>
            </g>
          </g>
        </g>
        <g id="Group_472" data-name="Group 472" transform="translate(18.709 0.001)">
          <g id="Group_471" data-name="Group 471" transform="translate(0)">
            <g id="Group_470" data-name="Group 470">
              <g id="Group_469" data-name="Group 469">
                <g id="Group_468" data-name="Group 468">
                  <g id="Group_467" data-name="Group 467">
                    <path id="Path_2123" data-name="Path 2123" d="M470.2,152.156a4.534,4.534,0,1,0,4.534-4.535A4.533,4.533,0,0,0,470.2,152.156Z" transform="translate(-470.202 -147.621)" fill="#263238"/>
                  </g>
                </g>
              </g>
            </g>
          </g>
        </g>
        <g id="Group_478" data-name="Group 478" transform="translate(0)">
          <g id="Group_477" data-name="Group 477">
            <g id="Group_476" data-name="Group 476">
              <g id="Group_475" data-name="Group 475">
                <g id="Group_474" data-name="Group 474">
                  <g id="Group_473" data-name="Group 473">
                    <path id="Path_2124" data-name="Path 2124" d="M454.116,149.889a4.535,4.535,0,1,0,6.194-1.661A4.533,4.533,0,0,0,454.116,149.889Z" transform="translate(-453.507 -147.62)" fill="#263238"/>
                  </g>
                </g>
              </g>
            </g>
          </g>
        </g>
      </g>
    </g>
  </g>
</svg>
