<svg xmlns="http://www.w3.org/2000/svg" width="417" height="399.886" viewBox="0 0 417 399.886">
  <g id="Group_1498" data-name="Group 1498" transform="translate(-29.229 -40.683)">
    <g id="Background_Complete" data-name="Background Complete" transform="translate(45.756 40.683)">
      <g id="Group_1209" data-name="Group 1209" transform="translate(193.066 288.645)">
        <g id="Group_1183" data-name="Group 1183">
          <g id="Group_1182" data-name="Group 1182">
            <g id="Group_1181" data-name="Group 1181">
              <g id="Group_1180" data-name="Group 1180">
                <path id="Path_2345" data-name="Path 2345" d="M276.922,455.625c-16.276-7.706-22.771-26.023-25.066-43.088-.383-2.848-1.2-5.782-.273-8.494s3.783-4.943,6.521-4.178c2.271.634,3.6,2.926,5.121,4.75a16.8,16.8,0,0,0,7.716,5.221c1.962.631,4.29.825,5.9-.457,2.216-1.761,1.932-5.185,1.438-8q-1.383-7.868-2.762-15.733a26.6,26.6,0,0,1-.566-8.51c.424-2.822,1.94-5.633,4.492-6.837s6.128-.22,7.161,2.441a26.359,26.359,0,0,1,.673,3.494,3,3,0,0,0,2.205,2.5c1.181.141,2.172-.849,2.875-1.816,2.427-3.336,3.78-7.333,5.007-11.289s2.386-7.989,4.5-11.537,5.346-6.624,9.341-7.536,8.716.852,10.4,4.64.059,8.219-1.918,11.861a63.772,63.772,0,0,1-10.981,14.693,5.253,5.253,0,0,0-1.792,2.726c-.294,1.981,1.8,3.545,3.76,3.849,2.217.345,4.46-.259,6.7-.372s4.783.453,5.965,2.388c1.641,2.684-.256,6.109-2.291,8.487a54.631,54.631,0,0,1-14.384,11.9c-1.944,1.109-4.012,2.143-5.437,3.882s-2,4.442-.659,6.254,4.044,2.013,6.147,1.242,3.845-2.276,5.782-3.406c3.624-2.116,8.668-2.694,11.714.231a9.041,9.041,0,0,1,2.282,7.723,20.841,20.841,0,0,1-3.092,7.684A54.93,54.93,0,0,1,303.029,450.5c-8.453,4.633-16.631,6.884-26.107,5.129" transform="translate(-251.157 -346.316)" fill="#f5f5f5"/>
              </g>
            </g>
          </g>
        </g>
        <g id="Group_1188" data-name="Group 1188" transform="translate(28.345 1.7)">
          <g id="Group_1187" data-name="Group 1187">
            <g id="Group_1186" data-name="Group 1186">
              <g id="Group_1185" data-name="Group 1185">
                <g id="Group_1184" data-name="Group 1184">
                  <path id="Path_2346" data-name="Path 2346" d="M281.17,444.347a256.2,256.2,0,0,1,5.422-28.87q.917-3.8,1.81-7.494c.6-2.458,1.194-4.9,1.923-7.246a128.078,128.078,0,0,1,4.962-13.256c1.782-4.14,3.625-8,5.373-11.6s3.458-6.921,5.139-9.882a101.365,101.365,0,0,1,8.958-13.375c1.177-1.49,2.128-2.617,2.782-3.372.316-.359.564-.641.75-.854a2.226,2.226,0,0,1,.269-.279,2.039,2.039,0,0,1-.228.314l-.71.887c-.628.777-1.553,1.924-2.7,3.431a107.314,107.314,0,0,0-8.794,13.433c-1.655,2.965-3.333,6.29-5.07,9.891s-3.556,7.47-5.322,11.6a129.474,129.474,0,0,0-4.913,13.215c-.722,2.336-1.308,4.753-1.908,7.218L287.1,415.6a262.4,262.4,0,0,0-5.453,28.806" transform="translate(-281.17 -348.117)" fill="#e0e0e0"/>
                </g>
              </g>
            </g>
          </g>
        </g>
        <g id="Group_1193" data-name="Group 1193" transform="translate(28.284 23.982)">
          <g id="Group_1192" data-name="Group 1192">
            <g id="Group_1191" data-name="Group 1191">
              <g id="Group_1190" data-name="Group 1190">
                <g id="Group_1189" data-name="Group 1189">
                  <path id="Path_2347" data-name="Path 2347" d="M290.467,402a5.816,5.816,0,0,1-.479-1.155c-.28-.754-.648-1.856-1.083-3.225-.873-2.738-1.949-6.559-3.119-10.776s-2.3-8.015-3.211-10.731c-.452-1.359-.829-2.456-1.1-3.211a5.783,5.783,0,0,1-.365-1.2,5.588,5.588,0,0,1,.554,1.12c.33.733.761,1.814,1.259,3.162,1.006,2.694,2.195,6.489,3.366,10.713l2.971,10.812c.365,1.3.674,2.392.922,3.27A5.72,5.72,0,0,1,290.467,402Z" transform="translate(-281.106 -371.71)" fill="#e0e0e0"/>
                </g>
              </g>
            </g>
          </g>
        </g>
        <g id="Group_1198" data-name="Group 1198" transform="translate(37.645 41.373)">
          <g id="Group_1197" data-name="Group 1197">
            <g id="Group_1196" data-name="Group 1196">
              <g id="Group_1195" data-name="Group 1195">
                <g id="Group_1194" data-name="Group 1194">
                  <path id="Path_2348" data-name="Path 2348" d="M326.089,390.133a7.911,7.911,0,0,1-1.416.417c-.915.24-2.241.58-3.866,1.053-3.256.919-7.71,2.346-12.555,4.136s-9.157,3.613-12.239,5.016c-1.547.69-2.783,1.283-3.641,1.688a7.869,7.869,0,0,1-1.354.586,7.805,7.805,0,0,1,1.262-.771c.83-.461,2.045-1.107,3.576-1.844,3.05-1.494,7.357-3.37,12.214-5.174a129.481,129.481,0,0,1,12.64-4c1.643-.427,2.986-.713,3.919-.891A7.887,7.887,0,0,1,326.089,390.133Z" transform="translate(-291.018 -390.124)" fill="#e0e0e0"/>
                </g>
              </g>
            </g>
          </g>
        </g>
        <g id="Group_1203" data-name="Group 1203" transform="translate(2.617 54.019)">
          <g id="Group_1202" data-name="Group 1202">
            <g id="Group_1201" data-name="Group 1201">
              <g id="Group_1200" data-name="Group 1200">
                <g id="Group_1199" data-name="Group 1199">
                  <path id="Path_2349" data-name="Path 2349" d="M279.988,446.685a1.887,1.887,0,0,1-.323-.4l-.841-1.206c-.725-1.049-1.736-2.6-2.959-4.524-2.45-3.853-5.666-9.283-9.133-15.321s-6.63-11.493-8.995-15.391l-2.815-4.61-.759-1.259a1.881,1.881,0,0,1-.234-.46,1.975,1.975,0,0,1,.323.4c.228.326.505.722.841,1.2.726,1.05,1.737,2.6,2.96,4.524,2.449,3.853,5.665,9.283,9.133,15.324s6.628,11.49,8.994,15.389c1.157,1.894,2.108,3.452,2.814,4.61l.759,1.259A1.88,1.88,0,0,1,279.988,446.685Z" transform="translate(-253.928 -403.515)" fill="#e0e0e0"/>
                </g>
              </g>
            </g>
          </g>
        </g>
        <g id="Group_1208" data-name="Group 1208" transform="translate(28.677 73.535)">
          <g id="Group_1207" data-name="Group 1207">
            <g id="Group_1206" data-name="Group 1206">
              <g id="Group_1205" data-name="Group 1205">
                <g id="Group_1204" data-name="Group 1204">
                  <path id="Path_2350" data-name="Path 2350" d="M327.024,424.182a1.949,1.949,0,0,1-.445.278l-1.318.7-4.87,2.542c-4.113,2.148-9.759,5.178-15.993,8.536s-11.916,6.341-16.074,8.4c-2.079,1.032-3.769,1.85-4.949,2.391-.546.247-1,.45-1.362.616a1.914,1.914,0,0,1-.491.181,2.012,2.012,0,0,1,.445-.279l1.318-.7,4.87-2.542c4.112-2.147,9.759-5.178,15.995-8.537s11.913-6.34,16.071-8.4c2.079-1.032,3.769-1.85,4.95-2.391l1.362-.616A1.948,1.948,0,0,1,327.024,424.182Z" transform="translate(-281.522 -424.179)" fill="#e0e0e0"/>
                </g>
              </g>
            </g>
          </g>
        </g>
      </g>
      <g id="Group_1233" data-name="Group 1233" transform="translate(85.756 194.979)">
        <g id="Group_1211" data-name="Group 1211" transform="translate(0 0)">
          <g id="Group_1210" data-name="Group 1210">
            <path id="Path_2351" data-name="Path 2351" d="M152.516,247.4s-11.222,1.559-4.921,26.136,11.643,37.243,11.643,37.243.847,5.566-3.641,5.395-13.636-3.815-16.74,1.027c-3.22,5.022-.405,11.073,6.634,17.407s21.949,20.777,23.292,22.088c1.319,1.286,2.32,4.014-.756,4.386s-24.918-2.191-25.514,8.247,21.91,24.861,24.34,26.484,2.813,2.895,2.268,4.307-7.8-.142-14.047-.617-13.564.069-13.4,6.12,11.977,21.34,46.455,32.709l16.32,4.222,12.065-11.881c24.27-27,26.926-46.139,24.059-51.47s-9.49-2.164-14.672,1.351-10.71,8.47-11.884,7.516-1.474-2.248-.172-4.865,13.666-26.317,7.961-35.079-23.385,4.318-26.239,5.523-3.341-1.658-2.836-3.43c.514-1.806,6.277-21.749,9.236-30.743s2.4-15.643-2.893-18.4c-5.1-2.66-11.229,5.048-15.037,7.427s-5.841-2.872-5.841-2.872-1.657-13.647-8.4-38.1-17.5-20.076-17.5-20.076" transform="translate(-137.532 -247.138)" fill="#ebebeb"/>
          </g>
        </g>
        <g id="Group_1214" data-name="Group 1214" transform="translate(20.588 22.277)">
          <g id="Group_1213" data-name="Group 1213">
            <g id="Group_1212" data-name="Group 1212">
              <path id="Path_2352" data-name="Path 2352" d="M205.642,447.918c-4.884-17.982-13.025-50.087-20.16-77.615s-13.612-52.427-18.4-70.432c-2.4-8.984-4.346-16.262-5.7-21.316l-1.545-5.8c-.166-.649-.3-1.151-.389-1.512-.085-.341-.115-.519-.115-.519s.065.169.167.505c.1.358.25.856.439,1.5.381,1.341.932,3.282,1.639,5.771,1.419,5.014,3.42,12.283,5.858,21.275,4.884,17.982,11.421,42.878,18.552,70.4s15.219,59.646,20.011,77.65" transform="translate(-159.332 -270.726)" fill="#e0e0e0"/>
            </g>
          </g>
        </g>
        <g id="Group_1217" data-name="Group 1217" transform="translate(13.917 75.668)">
          <g id="Group_1216" data-name="Group 1216">
            <g id="Group_1215" data-name="Group 1215">
              <path id="Path_2353" data-name="Path 2353" d="M152.269,327.262a5.479,5.479,0,0,1,1.075.576c.676.4,1.636,1,2.814,1.758,2.355,1.518,5.554,3.7,9.04,6.164l8.9,6.35,2.708,1.906a5.5,5.5,0,0,1,.969.74,5.4,5.4,0,0,1-1.079-.569c-.674-.4-1.635-1-2.807-1.772-2.339-1.541-5.509-3.762-8.995-6.229l-8.944-6.283-2.719-1.894A5.5,5.5,0,0,1,152.269,327.262Z" transform="translate(-152.268 -327.259)" fill="#e0e0e0"/>
            </g>
          </g>
        </g>
        <g id="Group_1220" data-name="Group 1220" transform="translate(40.783 62.307)">
          <g id="Group_1219" data-name="Group 1219">
            <g id="Group_1218" data-name="Group 1218">
              <path id="Path_2354" data-name="Path 2354" d="M180.718,343.172c-.122-.078,4.079-6.871,9.382-15.17s9.7-14.967,9.825-14.889-4.078,6.869-9.384,15.171S180.84,343.249,180.718,343.172Z" transform="translate(-180.715 -313.112)" fill="#e0e0e0"/>
            </g>
          </g>
        </g>
        <g id="Group_1223" data-name="Group 1223" transform="translate(49.832 113.391)">
          <g id="Group_1222" data-name="Group 1222">
            <g id="Group_1221" data-name="Group 1221">
              <path id="Path_2355" data-name="Path 2355" d="M190.3,388.938a5.668,5.668,0,0,1,.9-.865l2.546-2.228c2.146-1.883,5.1-4.5,8.252-7.5s5.926-5.809,7.912-7.86c.936-.965,1.725-1.777,2.355-2.429a5.742,5.742,0,0,1,.909-.851,5.614,5.614,0,0,1-.757.989c-.515.613-1.274,1.487-2.236,2.544-1.92,2.12-4.652,4.982-7.822,7.987s-6.163,5.589-8.374,7.4c-1.11.9-2.015,1.623-2.656,2.1A5.648,5.648,0,0,1,190.3,388.938Z" transform="translate(-190.297 -367.203)" fill="#e0e0e0"/>
            </g>
          </g>
        </g>
        <g id="Group_1226" data-name="Group 1226" transform="translate(22.208 125.367)">
          <g id="Group_1225" data-name="Group 1225">
            <g id="Group_1224" data-name="Group 1224">
              <path id="Path_2356" data-name="Path 2356" d="M161.047,379.89a4.9,4.9,0,0,1,1.118.271l2.988.926c2.517.8,5.98,1.944,9.8,3.237s7.263,2.49,9.748,3.383l2.934,1.081a4.944,4.944,0,0,1,1.054.465,4.893,4.893,0,0,1-1.119-.271l-2.988-.925c-2.516-.8-5.98-1.945-9.8-3.237s-7.261-2.49-9.747-3.382l-2.934-1.082A4.829,4.829,0,0,1,161.047,379.89Z" transform="translate(-161.047 -379.883)" fill="#e0e0e0"/>
            </g>
          </g>
        </g>
        <g id="Group_1229" data-name="Group 1229" transform="translate(25.399 164.132)">
          <g id="Group_1228" data-name="Group 1228">
            <g id="Group_1227" data-name="Group 1227">
              <path id="Path_2357" data-name="Path 2357" d="M164.426,420.936a7.81,7.81,0,0,1,1.428.361l3.834,1.171c3.23,1.01,7.681,2.439,12.587,4.049s9.341,3.1,12.542,4.2l3.782,1.328a7.953,7.953,0,0,1,1.365.555,8.018,8.018,0,0,1-1.428-.361l-3.834-1.171c-3.23-1.01-7.682-2.439-12.59-4.05s-9.338-3.095-12.54-4.2l-3.781-1.328A7.951,7.951,0,0,1,164.426,420.936Z" transform="translate(-164.426 -420.93)" fill="#e0e0e0"/>
            </g>
          </g>
        </g>
        <g id="Group_1232" data-name="Group 1232" transform="translate(60.165 146.918)">
          <g id="Group_1231" data-name="Group 1231">
            <g id="Group_1230" data-name="Group 1230">
              <path id="Path_2358" data-name="Path 2358" d="M201.239,431.065a9.032,9.032,0,0,1,1.107-1.125L205.472,427c2.637-2.486,6.264-5.933,10.163-9.851s7.345-7.549,9.817-10.2l2.932-3.135A9.21,9.21,0,0,1,229.5,402.7a9.02,9.02,0,0,1-.967,1.246c-.649.78-1.6,1.894-2.81,3.25-2.4,2.715-5.809,6.4-9.721,10.318s-7.58,7.336-10.283,9.755c-1.355,1.205-2.461,2.17-3.241,2.819A9.146,9.146,0,0,1,201.239,431.065Z" transform="translate(-201.238 -402.703)" fill="#e0e0e0"/>
            </g>
          </g>
        </g>
      </g>
      <g id="Group_1234" data-name="Group 1234" transform="translate(16.37 0)">
        <path id="Path_2359" data-name="Path 2359" d="M99.7,90.136,90.485,87.26S88.071,95,79.986,92.628a7.811,7.811,0,0,1-5.737-7.013,8.651,8.651,0,0,1,2.985-7.26c2.368-2.09,6.524-3.364,12.394-.331l6.483-20.781L87,54.4,83.2,66.573s-13.812-.684-18.207,13.4c-4.2,13.478,6.906,20.378,12.079,21.992C81.028,103.2,94.8,106.45,99.7,90.136Z" transform="translate(-64.062 -41.446)" fill="#f5f5f5"/>
        <rect id="Rectangle_262" data-name="Rectangle 262" width="9.689" height="9.049" transform="matrix(-0.955, -0.298, 0.298, -0.955, 33.41, 11.524)" fill="#f5f5f5"/>
      </g>
      <g id="Group_1235" data-name="Group 1235" transform="translate(77.084 16.274)">
        <path id="Path_2360" data-name="Path 2360" d="M128.713,66.868,132.4,65.9a3.244,3.244,0,0,1,2.388-4,3.088,3.088,0,0,1,3.4,1.144,3.42,3.42,0,0,1,.525,3.058c-.353,1.2-1.478,2.5-4.081,2.715l2.195,8.322,3.649-.963-1.285-4.874a7.372,7.372,0,0,0,3.282-8.315c-1.424-5.4-6.595-5.374-8.666-4.827C132.221,58.57,126.926,60.376,128.713,66.868Z" transform="translate(-128.349 -57.916)" fill="#ebebeb"/>
        <rect id="Rectangle_263" data-name="Rectangle 263" width="3.831" height="3.578" transform="matrix(0.967, -0.255, 0.255, 0.967, 8.919, 20.931)" fill="#ebebeb"/>
      </g>
      <g id="Group_1236" data-name="Group 1236" transform="translate(381.313 115.972)">
        <path id="Path_2361" data-name="Path 2361" d="M451.543,168.321l3.589,1.3a3.244,3.244,0,0,1,4.243-1.932,3.086,3.086,0,0,1,2.14,2.872,3.421,3.421,0,0,1-1.308,2.814c-.973.783-2.637,1.212-4.9-.091l-2.931,8.092,3.548,1.285,1.717-4.739a7.372,7.372,0,0,0,7.431-4.969c1.9-5.248-2.364-8.172-4.378-8.9C459.152,163.494,453.769,161.965,451.543,168.321Z" transform="translate(-450.542 -163.481)" fill="#ebebeb"/>
        <rect id="Rectangle_264" data-name="Rectangle 264" width="3.83" height="3.578" transform="translate(1.219 19.558) rotate(19.914)" fill="#ebebeb"/>
      </g>
      <g id="Group_1237" data-name="Group 1237" transform="translate(0 141.179)">
        <path id="Path_2362" data-name="Path 2362" d="M48.17,210.909l7.6-2.926s-2.457-6.377,4.126-9.045a6.586,6.586,0,0,1,7.463,1.63,7.294,7.294,0,0,1,1.829,6.36c-.47,2.621-2.55,5.638-8.015,6.708l6.6,17.126,7.511-2.894-3.866-10.032s9.485-6.781,5.013-18.389c-4.279-11.106-15.233-9.848-19.5-8.206C53.668,192.5,42.865,197.565,48.17,210.909Z" transform="translate(-46.729 -190.171)" fill="#f5f5f5"/>
        <rect id="Rectangle_265" data-name="Rectangle 265" width="8.168" height="7.629" transform="matrix(0.933, -0.359, 0.359, 0.933, 22.376, 44.127)" fill="#f5f5f5"/>
      </g>
      <g id="Group_1238" data-name="Group 1238" transform="translate(363.088 169.111)">
        <path id="Path_2363" data-name="Path 2363" d="M453.442,241.811l-5.382,2.073a4.9,4.9,0,0,1-2.925,6.41,4.667,4.667,0,0,1-5.288-1.155,5.17,5.17,0,0,1-1.3-4.507c.333-1.857,1.807-4,5.681-4.754l-4.676-12.136-5.322,2.05,2.739,7.109a11.137,11.137,0,0,0-3.552,13.031c3.032,7.871,10.795,6.979,13.816,5.816C449.546,254.857,457.2,251.266,453.442,241.811Z" transform="translate(-431.262 -220.191)" fill="#f5f5f5"/>
        <rect id="Rectangle_266" data-name="Rectangle 266" width="5.788" height="5.406" transform="translate(7.345 5.045) rotate(158.931)" fill="#f5f5f5"/>
      </g>
    </g>
    <g id="Floor" transform="translate(29.229 440.009)">
      <g id="Group_1239" data-name="Group 1239">
        <path id="Path_2364" data-name="Path 2364" d="M446.229,463.758c0,.135-93.356.246-208.49.246-115.175,0-208.51-.111-208.51-.246s93.336-.246,208.51-.246C352.873,463.511,446.229,463.622,446.229,463.758Z" transform="translate(-29.229 -463.511)" fill="#263238"/>
      </g>
    </g>
    <g id="Plant" transform="translate(52.795 276.088)">
      <g id="Group_1265" data-name="Group 1265">
        <g id="Group_1242" data-name="Group 1242" transform="translate(0 69.827)">
          <g id="Group_1241" data-name="Group 1241">
            <g id="Group_1240" data-name="Group 1240">
              <path id="Path_2365" data-name="Path 2365" d="M90.5,433.692c.9-3.473-1.382-6.959-3.934-9.479s-5.6-4.778-6.933-8.11c-2.151-5.4.741-12.387-2.931-16.891-2.16-2.649-6.033-3.536-7.95-6.366a14.469,14.469,0,0,1-1.725-5.058,51.38,51.38,0,0,0-12.778-23.909,44.591,44.591,0,0,0,5.013,23.043c1.487,2.831,3.313,5.592,3.806,8.752.8,5.132-2.064,10.419-.8,15.457,1.442,5.762,7.915,9.619,8.222,15.551.259,5.015-4.112,9.417-3.786,14.428a13.534,13.534,0,0,0,2.232,5.947C72.809,453.5,78.5,457.943,87.138,457.8l10.575.37Z" transform="translate(-54.182 -363.879)" fill="#e8505b"/>
            </g>
          </g>
        </g>
        <g id="Group_1246" data-name="Group 1246" transform="translate(0 69.827)" opacity="0.3">
          <g id="Group_1245" data-name="Group 1245">
            <g id="Group_1244" data-name="Group 1244">
              <g id="Group_1243" data-name="Group 1243">
                <path id="Path_2366" data-name="Path 2366" d="M90.5,433.692c.9-3.473-1.382-6.959-3.934-9.479s-5.6-4.778-6.933-8.11c-2.151-5.4.741-12.387-2.931-16.891-2.16-2.649-6.033-3.536-7.95-6.366a14.469,14.469,0,0,1-1.725-5.058,51.38,51.38,0,0,0-12.778-23.909,44.591,44.591,0,0,0,5.013,23.043c1.487,2.831,3.313,5.592,3.806,8.752.8,5.132-2.064,10.419-.8,15.457,1.442,5.762,7.915,9.619,8.222,15.551.259,5.015-4.112,9.417-3.786,14.428a13.534,13.534,0,0,0,2.232,5.947C72.809,453.5,78.5,457.943,87.138,457.8l10.575.37Z" transform="translate(-54.182 -363.879)"/>
              </g>
            </g>
          </g>
        </g>
        <g id="Group_1264" data-name="Group 1264" transform="translate(9.33)">
          <g id="Group_1255" data-name="Group 1255" transform="translate(30.982 33.501)">
            <g id="Group_1250" data-name="Group 1250">
              <g id="Group_1249" data-name="Group 1249">
                <g id="Group_1248" data-name="Group 1248">
                  <g id="Group_1247" data-name="Group 1247">
                    <path id="Path_2367" data-name="Path 2367" d="M102.228,456.308a8.448,8.448,0,0,0,2.912-.063,17.652,17.652,0,0,0,3.437-.865,14.568,14.568,0,0,0,4.244-2.324,5.924,5.924,0,0,0,1.745-2.326,10.945,10.945,0,0,0,.5-3.16,30.519,30.519,0,0,1,.247-3.421,9.426,9.426,0,0,1,1.292-3.4c1.247-2.19,3.317-4.264,3.985-7.238.724-2.925.2-6.091-.287-9.269s-.966-6.63.246-9.934c1.134-3.307,3.454-6.294,4.613-10.022,1.154-3.765.616-7.816.86-11.81A15.667,15.667,0,0,1,127.4,386.6c.856-1.872,2.043-3.637,2.969-5.608,1.877-3.984,2.208-8.5,2.722-12.923q.375-3.345.758-6.757a33.059,33.059,0,0,1,1.175-6.763,59.544,59.544,0,0,1,2.53-6.545,21.7,21.7,0,0,0,1.227-3.419,34.334,34.334,0,0,0,.341-3.637,42.827,42.827,0,0,0-.281-7.32c-.287-2.44-.727-4.86-.99-7.305-.016-.144-.032-.289-.047-.422l-.055-.487-.433.217a16.33,16.33,0,0,0-5.692,4.8,25.9,25.9,0,0,0-3.5,6.446c-1.766,4.544-2.4,9.305-3.293,13.848-.869,4.545-2.015,9.014-4.345,12.79-1.159,1.883-2.56,3.6-3.787,5.44a14.946,14.946,0,0,0-2.625,6.027c-.625,4.474,1.839,8.4,1.326,12.363a13.722,13.722,0,0,1-1.929,5.489c-.96,1.69-2.089,3.256-3.16,4.831a31.086,31.086,0,0,0-2.838,4.88,15.441,15.441,0,0,0-1.3,5.3c-.258,3.566.248,6.949-.013,10.143a23.323,23.323,0,0,1-2.609,8.691c-1.279,2.6-2.7,4.954-3.894,7.236a37.276,37.276,0,0,0-1.6,3.37,16.592,16.592,0,0,0-.928,3.343,21.118,21.118,0,0,0-.077,6.036,15.212,15.212,0,0,0,3.025,7.7,7.374,7.374,0,0,0,.856.926,4.251,4.251,0,0,0,.694.589c.395.291.605.424.605.424a13.361,13.361,0,0,1-2.047-2.025,15.313,15.313,0,0,1-2.871-7.646,20.994,20.994,0,0,1,.135-5.949,16.326,16.326,0,0,1,.935-3.264,36.7,36.7,0,0,1,1.613-3.325c1.2-2.262,2.639-4.6,3.946-7.223a23.745,23.745,0,0,0,2.7-8.844c.278-3.262-.213-6.657.056-10.139a14.936,14.936,0,0,1,1.275-5.123,30.583,30.583,0,0,1,2.807-4.782c1.07-1.564,2.212-3.136,3.2-4.862a14.277,14.277,0,0,0,2.018-5.713c.51-4.22-1.936-8.175-1.3-12.333a14.349,14.349,0,0,1,2.535-5.765c1.208-1.8,2.617-3.525,3.811-5.455,2.4-3.885,3.568-8.44,4.446-13,.9-4.572,1.536-9.283,3.271-13.733a25.265,25.265,0,0,1,3.406-6.277,15.661,15.661,0,0,1,5.453-4.606l-.487-.27c.015.134.032.28.048.426.265,2.475.707,4.9.992,7.312a42.223,42.223,0,0,1,.281,7.208,34.369,34.369,0,0,1-.326,3.528,21.222,21.222,0,0,1-1.186,3.3,60.189,60.189,0,0,0-2.549,6.617,33.7,33.7,0,0,0-1.191,6.875q-.378,3.414-.75,6.762c-.505,4.444-.837,8.887-2.644,12.733-.893,1.914-2.078,3.685-2.959,5.618a16.291,16.291,0,0,0-1.418,6.089c-.23,4.081.3,8.07-.8,11.685-1.1,3.6-3.4,6.6-4.569,10.012-1.248,3.448-.731,7.019-.227,10.181.511,3.184,1.024,6.283.343,9.095-.612,2.841-2.622,4.895-3.895,7.148a9.8,9.8,0,0,0-1.312,3.536,30.481,30.481,0,0,0-.222,3.462,10.738,10.738,0,0,1-.451,3.073,5.67,5.67,0,0,1-1.64,2.226,14.544,14.544,0,0,1-4.142,2.336,18.257,18.257,0,0,1-3.389.919,13.572,13.572,0,0,1-2.15.208C102.48,456.3,102.228,456.308,102.228,456.308Z" transform="translate(-96.868 -325.415)" fill="#263238"/>
                  </g>
                </g>
              </g>
            </g>
            <g id="Group_1254" data-name="Group 1254" transform="translate(5.356 6.311)">
              <g id="Group_1253" data-name="Group 1253">
                <g id="Group_1252" data-name="Group 1252">
                  <g id="Group_1251" data-name="Group 1251">
                    <path id="Path_2368" data-name="Path 2368" d="M135.956,332.1a1.26,1.26,0,0,0-.1.319c-.062.253-.139.567-.233.952-.208.833-.456,2.091-.856,3.661-.415,1.567-1.374,3.339-2.195,5.524-.853,2.167-1.718,4.679-2.513,7.5s-1.522,5.953-2.269,9.307a39.163,39.163,0,0,1-3.385,10.327c-.867,1.718-1.843,3.457-2.618,5.359a24.952,24.952,0,0,0-1.522,6.069,122.769,122.769,0,0,1-2.28,12.793c-2.121,8.667-4.14,16.92-5.979,24.437-1.884,7.489-3.581,14.239-5.012,19.929-1.392,5.638-2.523,10.219-3.322,13.449q-.551,2.326-.87,3.666c-.084.388-.154.7-.209.957a1.207,1.207,0,0,0-.049.332,1.268,1.268,0,0,0,.116-.314c.073-.25.163-.56.275-.942.241-.882.573-2.1.994-3.633l3.53-13.4c1.471-5.679,3.216-12.416,5.153-19.892,1.856-7.518,3.895-15.775,6.036-24.442a121.189,121.189,0,0,0,2.275-12.847,24.4,24.4,0,0,1,1.466-5.921c.747-1.853,1.708-3.583,2.575-5.319a39.452,39.452,0,0,0,3.376-10.488c.723-3.364,1.408-6.486,2.182-9.3s1.59-5.324,2.405-7.493c.777-2.178,1.706-3.971,2.1-5.59.366-1.61.568-2.855.734-3.7.067-.391.123-.709.167-.966A1.233,1.233,0,0,0,135.956,332.1Z" transform="translate(-102.539 -332.097)" fill="#263238"/>
                  </g>
                </g>
              </g>
            </g>
          </g>
          <g id="Group_1263" data-name="Group 1263">
            <g id="Group_1258" data-name="Group 1258">
              <g id="Group_1257" data-name="Group 1257">
                <g id="Group_1256" data-name="Group 1256">
                  <path id="Path_2369" data-name="Path 2369" d="M102.27,454.369c6.907-4.105,8.89-16.568,6.008-24.069s-7.925-14.354-8.7-22.352c-.6-6.148,1.415-12.458-.017-18.466-1.932-8.11-9.849-14.391-9.758-22.726.051-4.678,2.712-9.079,2.5-13.751-.26-5.732-4.659-10.279-7.383-15.328-4.171-7.728-4.444-16.864-5.871-25.529s-4.729-17.945-12.409-22.2c-1.133,7.357-3.069,12.4-2.462,22.361.219,3.579,4.376,10.431,4.942,18.275.338,4.688.572,9.384.859,14.076.279,4.565.574,9.215,2.211,13.486,1.254,3.273,3.269,6.246,4.2,9.626,1.752,6.358-.55,13.244.865,19.685,1.2,5.457,4.975,10.153,5.747,15.688,1.084,7.774-3.948,15.853-1.372,23.27,1.279,3.68,4.306,6.635,5.165,10.435.667,2.948-.06,6.07.543,9.031.973,4.772,10.074,8.478,14.935,8.183" transform="translate(-64.062 -289.942)" fill="#e8505b"/>
                </g>
              </g>
            </g>
            <g id="Group_1262" data-name="Group 1262" transform="translate(4.477 7.303)">
              <g id="Group_1261" data-name="Group 1261">
                <g id="Group_1260" data-name="Group 1260">
                  <g id="Group_1259" data-name="Group 1259">
                    <path id="Path_2370" data-name="Path 2370" d="M68.807,297.675a1.927,1.927,0,0,0,.03.415c.04.31.092.708.156,1.21.159,1.063.336,2.623.7,4.64.385,2.029,1.431,4.312,2.266,7.066.882,2.745,1.759,5.912,2.534,9.458s1.448,7.467,2.14,11.688c.715,4.19,1.447,8.822,3.541,13.216.969,2.208,2.056,4.418,2.872,6.772A30.415,30.415,0,0,1,84.5,359.6,150.569,150.569,0,0,0,86.524,375.7l5.964,30.732c1.933,9.413,3.675,17.893,5.141,25.032l3.524,16.864c.423,1.953.756,3.487.992,4.578.114.492.2.883.275,1.187a1.893,1.893,0,0,0,.116.4,1.884,1.884,0,0,0-.048-.414c-.053-.307-.122-.7-.209-1.2-.206-1.1-.5-2.64-.867-4.6-.79-4.037-1.92-9.8-3.312-16.907-1.425-7.147-3.118-15.637-5-25.06-1.817-9.448-3.813-19.827-5.909-30.724a152.613,152.613,0,0,1-2.032-16.038,30.955,30.955,0,0,0-1.506-7.613c-.841-2.405-1.943-4.624-2.913-6.814-2.082-4.33-2.812-8.852-3.558-13.058-.716-4.214-1.405-8.147-2.227-11.7s-1.722-6.727-2.641-9.472c-.877-2.763-1.955-5.027-2.37-7-.393-1.98-.618-3.556-.819-4.6-.092-.5-.165-.892-.222-1.2A1.815,1.815,0,0,0,68.807,297.675Z" transform="translate(-68.802 -297.675)" fill="#263238"/>
                  </g>
                </g>
              </g>
            </g>
          </g>
        </g>
      </g>
    </g>
    <g id="Speech_Bubble" data-name="Speech Bubble" transform="translate(364.991 53.336)">
      <g id="Group_1273" data-name="Group 1273">
        <g id="Group_1266" data-name="Group 1266" transform="translate(20.6 15.683)">
          <path id="Path_2371" data-name="Path 2371" d="M420.645,88.078h-3.76a3.2,3.2,0,0,1-3.28,3.214,3.043,3.043,0,0,1-2.947-1.942,3.37,3.37,0,0,1,.268-3.045c.638-1.052,2.035-2.007,4.568-1.561V76.267h-3.717v4.966a7.259,7.259,0,0,0-5.213,7.094c0,5.5,4.93,6.774,7.04,6.774C415.219,95.1,420.716,94.711,420.645,88.078Z" transform="translate(-406.565 -70.998)" fill="#e8505b"/>
          <rect id="Rectangle_267" data-name="Rectangle 267" width="3.773" height="3.524" transform="translate(8.941 3.524) rotate(180)" fill="#e8505b"/>
        </g>
        <g id="Group_1272" data-name="Group 1272">
          <g id="Group_1271" data-name="Group 1271">
            <g id="Group_1270" data-name="Group 1270">
              <g id="Group_1269" data-name="Group 1269">
                <g id="Group_1268" data-name="Group 1268">
                  <g id="Group_1267" data-name="Group 1267">
                    <path id="Path_2372" data-name="Path 2372" d="M440.023,81.814a2.709,2.709,0,0,0,.008-.475c-.009-.346-.023-.808-.04-1.4-.014-.307-.014-.653-.045-1.03q-.081-.568-.174-1.233l-.207-1.439q-.187-.756-.4-1.607a26.04,26.04,0,0,0-3.4-7.794A27.5,27.5,0,0,0,415.1,54.2a28.39,28.39,0,0,0-3.769-.076c-.637.044-1.285.032-1.928.125l-1.941.293a27.648,27.648,0,0,0-7.67,2.619,29.519,29.519,0,0,0-6.892,5.009,28.94,28.94,0,0,0-5.185,7.217,26.217,26.217,0,0,0-2.7,8.8,17.474,17.474,0,0,0-.2,2.346,21.133,21.133,0,0,0-.043,2.371,28.1,28.1,0,0,0,.6,4.751,27.767,27.767,0,0,0,3.98,9.457l-.029-.287q-1.973,4.919-3.866,9.634l-.229.57.593-.162,10.3-2.832-.254-.048a27.648,27.648,0,0,0,11.768,5.14,25.042,25.042,0,0,0,6.03.375,19.367,19.367,0,0,0,2.9-.274l1.409-.218c.464-.087.912-.228,1.365-.337A27.554,27.554,0,0,0,435,97.925a26.338,26.338,0,0,0,3.374-6.4l.516-1.441q.181-.711.348-1.368t.31-1.251c.077-.4.119-.789.175-1.152.093-.728.218-1.368.246-1.929s.034-1.024.047-1.416c.009-.359.014-.644.02-.865a1.337,1.337,0,0,0-.01-.293,1.358,1.358,0,0,0-.041.293c-.017.22-.04.5-.068.86q-.038.585-.094,1.407c-.043.556-.184,1.19-.291,1.911a27.4,27.4,0,0,1-20.321,21.906c-.444.106-.885.243-1.341.325l-1.385.208a19.048,19.048,0,0,1-2.844.255,24.547,24.547,0,0,1-5.91-.391,27.141,27.141,0,0,1-11.513-5.07l-.115-.087-.139.038-10.305,2.811.364.408q1.9-4.707,3.878-9.629l.06-.151-.09-.136a27.2,27.2,0,0,1-3.887-9.247,27.614,27.614,0,0,1-.587-4.644,20.639,20.639,0,0,1,.042-2.319,16.839,16.839,0,0,1,.194-2.294,25.661,25.661,0,0,1,2.631-8.6,28.414,28.414,0,0,1,5.059-7.069,29.007,29.007,0,0,1,6.736-4.919,27.165,27.165,0,0,1,7.5-2.591l1.9-.294c.629-.094,1.265-.083,1.89-.129a27.154,27.154,0,0,1,24.124,12.364,26.207,26.207,0,0,1,3.458,7.668q.222.839.422,1.588l.234,1.424q.109.659.2,1.221c.042.375.051.718.076,1.023.042.587.076,1.047.1,1.391A2.593,2.593,0,0,0,440.023,81.814Z" transform="translate(-384.752 -54.081)" fill="#263238"/>
                  </g>
                </g>
              </g>
            </g>
          </g>
        </g>
      </g>
    </g>
    <g id="Question_Mark" data-name="Question Mark" transform="translate(116.025 90.196)">
      <g id="Group_1282" data-name="Group 1282">
        <g id="Group_1276" data-name="Group 1276">
          <g id="Group_1274" data-name="Group 1274" transform="translate(22.591)">
            <path id="Path_2373" data-name="Path 2373" d="M145.066,195.366H199.61s0-45.8,47.591-46.616c24.717-.425,37.532,15.765,42.739,28.168,6.047,14.4,4.217,30.819-3.884,44.176-9.251,15.252-29.175,30.579-65.933,24.1l-.348,121.517h53.932V294.676s75.64-19.553,75.64-102.911c0-79.757-64.5-96.987-99.159-98.094-19.29-.616-26.281-1.445-50.136,1.942C169.65,99.929,144.423,135.227,145.066,195.366Z" transform="translate(-145.054 -93.11)" fill="#e8505b"/>
            <rect id="Rectangle_268" data-name="Rectangle 268" width="54.735" height="51.12" transform="translate(74.569 298.939)" fill="#e8505b"/>
            <rect id="Rectangle_269" data-name="Rectangle 269" width="54.735" height="51.12" transform="translate(74.569 298.939)" opacity="0.1"/>
            <path id="Path_2374" data-name="Path 2374" d="M145.066,195.366H199.61s0-45.8,47.591-46.616c24.717-.425,37.532,15.765,42.739,28.168,6.047,14.4,4.217,30.819-3.884,44.176-9.251,15.252-29.175,30.579-65.933,24.1l-.348,121.517h53.932V294.676s75.64-19.553,75.64-102.911c0-79.757-64.5-96.987-99.159-98.094-19.29-.616-26.281-1.445-50.136,1.942C169.65,99.929,144.423,135.227,145.066,195.366Z" transform="translate(-145.054 -93.11)" opacity="0.1"/>
          </g>
          <g id="Group_1275" data-name="Group 1275" transform="translate(0 0.374)">
            <path id="Path_2375" data-name="Path 2375" d="M121.143,195.388h54.544s0-45.8,47.592-46.616c24.716-.425,37.531,15.765,42.739,28.168,6.046,14.4,4.216,30.819-3.885,44.176-9.251,15.252-29.523,29.116-66.281,22.641V366.736h53.932V294.7s75.64-19.553,75.64-102.911c0-79.757-71.524-98.282-102.14-98.281C199.871,93.506,120.115,99.166,121.143,195.388Z" transform="translate(-121.134 -93.506)" fill="#e8505b"/>
            <path id="Path_2376" data-name="Path 2376" d="M121.143,195.388h54.544s0-45.8,47.592-46.616c24.716-.425,37.531,15.765,42.739,28.168,6.046,14.4,4.216,30.819-3.885,44.176-9.251,15.252-29.523,29.116-66.281,22.641V366.736h53.932V294.7s75.64-19.553,75.64-102.911c0-79.757-71.524-98.282-102.14-98.281C199.871,93.506,120.115,99.166,121.143,195.388Z" transform="translate(-121.134 -93.506)" opacity="0.3"/>
            <rect id="Rectangle_270" data-name="Rectangle 270" width="54.735" height="51.12" transform="translate(74.567 298.565)" fill="#e8505b"/>
            <rect id="Rectangle_271" data-name="Rectangle 271" width="54.735" height="51.12" transform="translate(74.567 298.565)" opacity="0.3"/>
          </g>
        </g>
        <g id="Group_1277" data-name="Group 1277" transform="translate(54.227 55.338)">
          <path id="Path_2377" data-name="Path 2377" d="M232.63,152.261a5.062,5.062,0,0,1-.816-.05c-.534-.026-1.31-.177-2.324-.188a47.523,47.523,0,0,0-8.553.354,61.283,61.283,0,0,0-12.346,2.9,52.7,52.7,0,0,0-6.879,2.959,36.575,36.575,0,0,0-6.727,4.358,33.367,33.367,0,0,0-5.506,5.817,53.817,53.817,0,0,0-9.012,17.949,47.23,47.23,0,0,0-1.64,8.4c-.116,1.007-.146,1.792-.174,2.325a5.138,5.138,0,0,1-.074.814,5.016,5.016,0,0,1-.025-.816c0-.535,0-1.326.083-2.34a43.715,43.715,0,0,1,1.5-8.477,54.158,54.158,0,0,1,4.824-11.824,55.157,55.157,0,0,1,4.139-6.324,33.514,33.514,0,0,1,5.576-5.9,36.654,36.654,0,0,1,6.819-4.4,52.141,52.141,0,0,1,6.952-2.959,59.686,59.686,0,0,1,12.453-2.822,44.123,44.123,0,0,1,8.606-.2c1.017.042,1.794.223,2.325.281A5.051,5.051,0,0,1,232.63,152.261Z" transform="translate(-178.552 -151.705)" fill="#263238"/>
        </g>
        <g id="Group_1278" data-name="Group 1278" transform="translate(98.403 0.392)">
          <path id="Path_2378" data-name="Path 2378" d="M317.41,139.29a1.152,1.152,0,0,1-.178-.214c-.124-.171-.281-.386-.478-.656l-1.794-2.548c-.394-.55-.8-1.181-1.3-1.836l-1.7-2.066L310,129.593c-.71-.824-1.538-1.627-2.365-2.507-.846-.862-1.688-1.811-2.646-2.716l-3.049-2.757c-.532-.471-1.051-.975-1.617-1.441l-1.758-1.384c-1.2-.924-2.389-1.93-3.688-2.86a118.068,118.068,0,0,0-17.871-10.555l-4.976-2.251-4.945-1.919c-1.607-.667-3.252-1.141-4.839-1.666-1.6-.495-3.135-1.069-4.693-1.434l-4.517-1.186c-1.464-.388-2.919-.618-4.307-.921-1.4-.261-2.729-.608-4.039-.771l-3.756-.543c-2.386-.409-4.577-.491-6.488-.684-.958-.075-1.847-.178-2.669-.215l-2.25-.06-3.116-.1-.81-.039a1.151,1.151,0,0,1-.277-.03,1.175,1.175,0,0,1,.276-.021l.811-.009,3.12.008,2.256.018c.824.025,1.716.113,2.677.176,1.917.167,4.117.225,6.513.612l3.772.514c1.317.154,2.655.493,4.058.746,1.395.295,2.857.518,4.327.9l4.539,1.171c1.565.36,3.111.93,4.715,1.423,1.6.522,3.247.994,4.863,1.66l4.967,1.92,5,2.258a115.972,115.972,0,0,1,17.927,10.632c1.3.939,2.493,1.956,3.692,2.889l1.758,1.4c.566.471,1.085.98,1.616,1.456l3.044,2.79c.956.916,1.793,1.877,2.635,2.749.822.892,1.643,1.707,2.348,2.541l1.93,2.409,1.676,2.1c.486.666.887,1.307,1.268,1.867l1.723,2.6.436.683A1.234,1.234,0,0,1,317.41,139.29Z" transform="translate(-225.328 -93.525)" fill="#263238"/>
        </g>
        <g id="Group_1279" data-name="Group 1279" transform="translate(128.873 163.259)">
          <path id="Path_2379" data-name="Path 2379" d="M313.52,265.978a3.77,3.77,0,0,1-.413.566q-.476.594-1.258,1.565c-.545.681-1.226,1.5-2.059,2.42s-1.741,2-2.839,3.106c-1.076,1.13-2.261,2.362-3.6,3.618-1.3,1.3-2.777,2.587-4.312,3.964a118.131,118.131,0,0,1-22.061,15.21c-1.834.946-3.566,1.866-5.239,2.622-1.65.8-3.222,1.472-4.661,2.076-1.427.631-2.758,1.1-3.914,1.549s-2.163.8-2.993,1.063l-1.91.62a3.806,3.806,0,0,1-.675.184,3.712,3.712,0,0,1,.644-.278l1.877-.706c.819-.294,1.817-.664,2.959-1.14s2.461-.962,3.875-1.612c1.426-.621,2.985-1.308,4.622-2.124,1.659-.768,3.378-1.7,5.2-2.652,3.6-1.978,7.484-4.3,11.4-6.985,3.9-2.706,7.45-5.5,10.579-8.169,1.538-1.363,3.018-2.638,4.327-3.916,1.345-1.24,2.54-2.453,3.628-3.564,1.111-1.09,2.04-2.148,2.885-3.05s1.552-1.7,2.118-2.359l1.327-1.5A3.738,3.738,0,0,1,313.52,265.978Z" transform="translate(-257.591 -265.978)" fill="#263238"/>
        </g>
        <g id="Group_1280" data-name="Group 1280" transform="translate(127.45 201.561)">
          <path id="Path_2380" data-name="Path 2380" d="M256.331,374.295c-.136,0-.246-15.17-.246-33.879s.11-33.882.246-33.882.246,15.167.246,33.882S256.466,374.295,256.331,374.295Z" transform="translate(-256.084 -306.534)" fill="#263238"/>
        </g>
        <g id="Group_1281" data-name="Group 1281" transform="translate(129.53 299.042)">
          <path id="Path_2381" data-name="Path 2381" d="M258.533,457.3c-.136,0-.246-10.646-.246-23.774s.111-23.777.246-23.777.246,10.643.246,23.777S258.669,457.3,258.533,457.3Z" transform="translate(-258.287 -409.752)" fill="#263238"/>
        </g>
      </g>
    </g>
    <g id="Character" transform="translate(295.114 70.24)">
      <g id="Group_1497" data-name="Group 1497">
        <g id="Group_1299" data-name="Group 1299" transform="translate(0 60.458)">
          <path id="Path_2382" data-name="Path 2382" d="M315.39,193.125c-.953,1.9,2.576,3.435,4.613,4.051a18.449,18.449,0,0,0,6.332.436c2.814-.152,5.731-.415,8.179-1.813a13,13,0,0,0,4.929-5.529,38.738,38.738,0,0,0,2.5-7.072S319.632,184.659,315.39,193.125Z" transform="translate(-311.011 -138.62)" fill="#e8505b"/>
          <g id="Group_1283" data-name="Group 1283" transform="translate(4.219 44.578)" opacity="0.4">
            <path id="Path_2383" data-name="Path 2383" d="M315.39,193.125c-.953,1.9,2.576,3.435,4.613,4.051a18.449,18.449,0,0,0,6.332.436c2.814-.152,5.731-.415,8.179-1.813a13,13,0,0,0,4.929-5.529,38.738,38.738,0,0,0,2.5-7.072S319.632,184.659,315.39,193.125Z" transform="translate(-315.23 -183.198)"/>
          </g>
          <g id="Group_1285" data-name="Group 1285" transform="translate(65.958 41.898)">
            <path id="Path_2384" data-name="Path 2384" d="M382.058,186.92a21.4,21.4,0,0,0,12.595,3.954,8.931,8.931,0,0,0,6-1.886c.728-.666,1.271-1.517,2.021-2.157.509-.434,1.105-.765,1.584-1.232a2.027,2.027,0,0,0,.7-1.792,3.738,3.738,0,0,0-1.3-2.085c-2.563-1.454-5.62-1.4-8.566-1.334a29.372,29.372,0,0,0-8.641,1.694c-2.285.769-4.679,1.854-5.837,3.967" transform="translate(-380.602 -180.36)" fill="#e8505b"/>
            <g id="Group_1284" data-name="Group 1284" transform="translate(0 0.013)" opacity="0.4">
              <path id="Path_2385" data-name="Path 2385" d="M404.95,183.807a3.956,3.956,0,0,0-1.675-1.9c-2.562-1.454-5.249-1.589-8.2-1.522a29.372,29.372,0,0,0-8.64,1.694c-2.285.769-4.679,1.854-5.837,3.967l1.456.873a21.4,21.4,0,0,0,12.595,3.954,8.931,8.931,0,0,0,6-1.886c.728-.666,1.271-1.517,2.021-2.157.509-.434,1.105-.765,1.584-1.232A2.027,2.027,0,0,0,404.95,183.807Z" transform="translate(-380.602 -180.374)"/>
            </g>
          </g>
          <path id="Path_2386" data-name="Path 2386" d="M334.616,218.356l47.08.617a.605.605,0,0,0,.584-.79l-5.522-17.227s.813-8.607,1.938-18.967c1.708-15.719,3.978-35.485,4.007-35.431C379.487,137.534,360.487,136,360.487,136l-21.656,1.287-.762-1.27-6.231,2.9a28.807,28.807,0,0,0-3.91,2.2c-4.112,2.756-14.036,9.066-15.844,16.11-4.181,16.284,2.9,34.465,2.9,34.465l4.545-3.554a31.911,31.911,0,0,1,3.609-2.411l9.124,24.446a4.311,4.311,0,0,0-1.979,3.138c-.08,1.981.982,4.369,4.333,5.047" transform="translate(-310.763 -135.996)" fill="#e8505b"/>
          <g id="Group_1286" data-name="Group 1286" transform="translate(37.894 29.131)" opacity="0.3">
            <path id="Path_2387" data-name="Path 2387" d="M357.029,191.245c1.493-8.025.7-16.278-.091-24.4-2.614,6.647-2.519,14.138-5.285,20.722a8.859,8.859,0,0,0-.737,2.182,2.437,2.437,0,0,0,.629,2.13c.752.688,1.873.317,2.884.2a11.02,11.02,0,0,0,2.6-.826" transform="translate(-350.887 -166.842)"/>
          </g>
          <g id="Group_1287" data-name="Group 1287" transform="translate(26.061 66.141)" opacity="0.4">
            <path id="Path_2388" data-name="Path 2388" d="M338.991,212c3.8,1.317,7.8-1.127,11.8-1.561,2.642-.286,5.288.319,7.911.745a59.146,59.146,0,0,0,16.056.394,6.143,6.143,0,0,0,2.362-.61,2.849,2.849,0,0,0,1.235-2.344c-8.891-.912-17.783-1.456-26.674-2.369a16.765,16.765,0,0,0-6.669.212c-2.688.833-4.759,2.944-6.653,5.024" transform="translate(-338.357 -206.03)"/>
          </g>
          <path id="Path_2389" data-name="Path 2389" d="M403.3,178.8c-3.849-8.654-17.4-32.606-17.4-32.606l-10.5,13.16,2.45,25.831s5.542-6.187,21.039-6.311a7.6,7.6,0,0,1,5.768,3.037Z" transform="translate(-314.356 -136.563)" fill="#e8505b"/>
          <g id="Group_1288" data-name="Group 1288" transform="translate(22.857 26.236)">
            <path id="Path_2390" data-name="Path 2390" d="M338.047,175.2a35.729,35.729,0,0,1-1.769-5.649,35.747,35.747,0,0,1-1.294-5.777,35.749,35.749,0,0,1,1.769,5.649A35.944,35.944,0,0,1,338.047,175.2Z" transform="translate(-334.965 -163.776)" fill="#263238"/>
          </g>
          <g id="Group_1289" data-name="Group 1289" transform="translate(60.254 21.034)">
            <path id="Path_2391" data-name="Path 2391" d="M374.566,158.269a6.363,6.363,0,0,1,.971.825,26.584,26.584,0,0,1,2.338,2.57,24.786,24.786,0,0,1,5.011,10.255,19.173,19.173,0,0,1,.3,6.327c-.244,1.932-.614,3.631-.851,5.07s-.4,2.6-.472,3.415a8.435,8.435,0,0,1-.131,1.263,5.054,5.054,0,0,1-.059-1.273,29.915,29.915,0,0,1,.32-3.458c.194-1.451.529-3.165.743-5.07a19.435,19.435,0,0,0-.331-6.171,25.962,25.962,0,0,0-4.805-10.144C375.854,159.551,374.493,158.341,374.566,158.269Z" transform="translate(-374.563 -158.268)" fill="#263238"/>
          </g>
          <g id="Group_1290" data-name="Group 1290" transform="translate(25.973 72.639)">
            <path id="Path_2392" data-name="Path 2392" d="M362.936,220.572a4.4,4.4,0,0,1-1.025.3,9.837,9.837,0,0,1-1.23.238,16.543,16.543,0,0,1-1.648.2,24.4,24.4,0,0,1-4.324-.025,25.681,25.681,0,0,1-10.068-3.126,24.338,24.338,0,0,1-3.577-2.429,16.456,16.456,0,0,1-1.245-1.1,9.853,9.853,0,0,1-.877-.892,4.414,4.414,0,0,1-.676-.826c.071-.068,1.084,1.066,3.014,2.544a27.159,27.159,0,0,0,3.579,2.3,27.145,27.145,0,0,0,9.9,3.073,27.152,27.152,0,0,0,4.255.128C361.438,220.836,362.916,220.477,362.936,220.572Z" transform="translate(-338.264 -212.91)" fill="#263238"/>
          </g>
          <g id="Group_1291" data-name="Group 1291" transform="translate(62.196 74.915)">
            <path id="Path_2393" data-name="Path 2393" d="M379.607,215.32a3.335,3.335,0,0,1,.364,1.379,8.509,8.509,0,0,1-.254,3.441,6,6,0,0,1-1.85,2.925,2.607,2.607,0,0,1-1.245.709c-.042-.071.417-.359,1.008-.963A6.692,6.692,0,0,0,379.245,220C379.96,217.505,379.422,215.331,379.607,215.32Z" transform="translate(-376.619 -215.32)" fill="#263238"/>
          </g>
          <g id="Group_1292" data-name="Group 1292" transform="translate(60.593 78.242)">
            <path id="Path_2394" data-name="Path 2394" d="M376.953,218.843a5.133,5.133,0,0,1-2.022,5.212c-.1-.1.777-1.042,1.324-2.485C376.823,220.137,376.806,218.849,376.953,218.843Z" transform="translate(-374.922 -218.843)" fill="#263238"/>
          </g>
          <g id="Group_1293" data-name="Group 1293" transform="translate(50.843 47.159)">
            <path id="Path_2395" data-name="Path 2395" d="M367.949,185.938a19.1,19.1,0,0,1-1.68,2.418,19.21,19.21,0,0,1-1.651,2.437,8.765,8.765,0,0,1,3.331-4.854Z" transform="translate(-364.598 -185.93)" fill="#263238"/>
          </g>
          <g id="Group_1294" data-name="Group 1294" transform="translate(6.157 18.34)">
            <path id="Path_2396" data-name="Path 2396" d="M333.008,161.371a23.8,23.8,0,0,1-2.088-1.384,26.889,26.889,0,0,0-11.154-4.164,23.865,23.865,0,0,1-2.484-.323,8.712,8.712,0,0,1,2.523-.023,22.587,22.587,0,0,1,11.312,4.223A8.749,8.749,0,0,1,333.008,161.371Z" transform="translate(-317.282 -155.416)" fill="#263238"/>
          </g>
          <g id="Group_1295" data-name="Group 1295" transform="translate(63.184 9.309)">
            <path id="Path_2397" data-name="Path 2397" d="M386.033,145.858a41,41,0,0,0-4.772,4.465,40.982,40.982,0,0,0-3.586,5.463,5.826,5.826,0,0,1,.658-1.832,18.72,18.72,0,0,1,6.007-7.135A5.835,5.835,0,0,1,386.033,145.858Z" transform="translate(-377.666 -145.853)" fill="#263238"/>
          </g>
          <g id="Group_1296" data-name="Group 1296" transform="translate(24.803 1.532)">
            <path id="Path_2398" data-name="Path 2398" d="M364.331,137.618a1.8,1.8,0,0,1,.212.436,8.113,8.113,0,0,1,.44,1.325,11.2,11.2,0,0,1-.018,5.114A12.57,12.57,0,0,1,361.113,151a13.062,13.062,0,0,1-8.69,3.095,14.7,14.7,0,0,1-8.773-2.932,16.779,16.779,0,0,1-4.828-5.852,17.848,17.848,0,0,1-1.608-4.86,12.966,12.966,0,0,1-.169-1.381,1.794,1.794,0,0,1-.009-.485c.05-.006.108.659.366,1.829a19.352,19.352,0,0,0,1.729,4.738,16.807,16.807,0,0,0,4.789,5.647,14.42,14.42,0,0,0,8.505,2.8,12.73,12.73,0,0,0,8.388-2.944,12.407,12.407,0,0,0,3.813-6.249,11.589,11.589,0,0,0,.169-4.992C364.563,138.248,364.273,137.64,364.331,137.618Z" transform="translate(-337.026 -137.618)" fill="#263238"/>
          </g>
          <g id="Group_1297" data-name="Group 1297" transform="translate(50.864 47.479)" opacity="0.3">
            <path id="Path_2399" data-name="Path 2399" d="M369.168,187.631c-.014-.472-.076-1.028-.485-1.264a.929.929,0,0,0-.856.014,2.4,2.4,0,0,0-.684.565,11.553,11.553,0,0,0-2.523,4.033l4.63-.4C369.219,189.6,369.2,188.607,369.168,187.631Z" transform="translate(-364.62 -186.269)"/>
          </g>
          <g id="Group_1298" data-name="Group 1298" transform="translate(67.424 31.928)" opacity="0.3">
            <path id="Path_2400" data-name="Path 2400" d="M385.511,176.977a15.153,15.153,0,0,0-3.356-7.174c1.994,6.536,1.327,10.224.2,14.7l.242-.626C383.888,181.262,385.866,179.624,385.511,176.977Z" transform="translate(-382.155 -169.803)"/>
          </g>
        </g>
        <g id="Group_1319" data-name="Group 1319" transform="translate(37.391 317.204)">
          <g id="Group_1300" data-name="Group 1300">
            <path id="Path_2401" data-name="Path 2401" d="M374.5,409.748l-2.825,42.361-18.417-.217-2.9-44.039Z" transform="translate(-350.355 -407.852)" fill="#ffbe9d"/>
          </g>
          <g id="Group_1318" data-name="Group 1318" transform="translate(1.592 38.241)">
            <g id="Group_1317" data-name="Group 1317">
              <g id="Group_1302" data-name="Group 1302">
                <g id="Group_1301" data-name="Group 1301">
                  <path id="Path_2402" data-name="Path 2402" d="M372.291,448.783l0,1.225s20.759,8.355,20.977,12.3l-41.232-.242.641-13.718A23.586,23.586,0,0,0,372.291,448.783Z" transform="translate(-352.04 -448.344)" fill="#e8505b"/>
                </g>
              </g>
              <g id="Group_1305" data-name="Group 1305" transform="translate(3.581 4.344)">
                <g id="Group_1304" data-name="Group 1304">
                  <g id="Group_1303" data-name="Group 1303">
                    <path id="Path_2403" data-name="Path 2403" d="M357.041,453.011a1.684,1.684,0,0,0-1.175,1.915,1.618,1.618,0,0,0,1.887,1.181,1.776,1.776,0,0,0,1.234-2.034,1.679,1.679,0,0,0-2.1-1.011" transform="translate(-355.832 -452.944)" fill="#fff"/>
                  </g>
                </g>
              </g>
              <g id="Group_1307" data-name="Group 1307" transform="translate(0 10.419)">
                <g id="Group_1306" data-name="Group 1306">
                  <path id="Path_2404" data-name="Path 2404" d="M352.04,462.675l.154-3.3,39.462,1.439s1.831.809,1.616,2.1Z" transform="translate(-352.04 -459.376)" fill="#263238"/>
                </g>
              </g>
              <g id="Group_1310" data-name="Group 1310" transform="translate(16.628 1.59)">
                <g id="Group_1309" data-name="Group 1309">
                  <g id="Group_1308" data-name="Group 1308">
                    <path id="Path_2405" data-name="Path 2405" d="M373.417,450.218c-.008.2-1.015.287-2.01.928-1.01.616-1.526,1.485-1.711,1.4-.185-.04.122-1.242,1.339-2S373.462,450.034,373.417,450.218Z" transform="translate(-369.646 -450.028)" fill="#263238"/>
                  </g>
                </g>
              </g>
              <g id="Group_1313" data-name="Group 1313" transform="translate(21.964 3.512)">
                <g id="Group_1312" data-name="Group 1312">
                  <g id="Group_1311" data-name="Group 1311">
                    <path id="Path_2406" data-name="Path 2406" d="M378.045,452.145c.045.2-.828.533-1.518,1.381-.714.826-.892,1.746-1.092,1.737-.19.03-.322-1.149.554-2.187S378.042,451.953,378.045,452.145Z" transform="translate(-375.296 -452.062)" fill="#263238"/>
                  </g>
                </g>
              </g>
              <g id="Group_1316" data-name="Group 1316" transform="translate(26.901 5.32)">
                <g id="Group_1315" data-name="Group 1315">
                  <g id="Group_1314" data-name="Group 1314">
                    <path id="Path_2407" data-name="Path 2407" d="M380.762,457.442c-.183.042-.457-.966.066-2.065s1.468-1.533,1.552-1.365c.113.166-.5.755-.918,1.663C381.025,456.574,380.962,457.423,380.762,457.442Z" transform="translate(-380.525 -453.977)" fill="#263238"/>
                  </g>
                </g>
              </g>
            </g>
          </g>
        </g>
        <g id="Group_1426" data-name="Group 1426" transform="translate(9.829)">
          <path id="Path_2408" data-name="Path 2408" d="M369.923,81.305c1.062-2.649-.225-5.852-2.524-7.542a10.962,10.962,0,0,0-8.181-1.609,32.56,32.56,0,0,0-8.067,2.787,9.107,9.107,0,0,0-15.458,5.048,5.788,5.788,0,0,0-6.857,7.6L341.6,92.074,355.541,116.6a11.153,11.153,0,0,0,16.413-14.829,9.569,9.569,0,0,0,1.959-2.422,9.772,9.772,0,0,0,4.512-6.041A10.317,10.317,0,0,0,369.923,81.305Z" transform="translate(-321.577 -71.979)" fill="#263238"/>
          <g id="Group_1420" data-name="Group 1420" transform="translate(0 6.646)">
            <g id="Group_1397" data-name="Group 1397" transform="translate(8.385)">
              <g id="Group_1396" data-name="Group 1396">
                <g id="Group_1394" data-name="Group 1394" transform="translate(0 2.424)">
                  <g id="Group_1393" data-name="Group 1393">
                    <g id="Group_1392" data-name="Group 1392">
                      <g id="Group_1391" data-name="Group 1391">
                        <g id="Group_1376" data-name="Group 1376">
                          <g id="Group_1375" data-name="Group 1375">
                            <g id="Group_1374" data-name="Group 1374">
                              <g id="Group_1326" data-name="Group 1326">
                                <g id="Group_1325" data-name="Group 1325">
                                  <g id="Group_1324" data-name="Group 1324">
                                    <g id="Group_1323" data-name="Group 1323">
                                      <g id="Group_1322" data-name="Group 1322">
                                        <g id="Group_1321" data-name="Group 1321">
                                          <g id="Group_1320" data-name="Group 1320">
                                            <path id="Path_2409" data-name="Path 2409" d="M361.559,132.972c-.792-3.992-1.345-6.726-1.337-6.7,0,0,7.527-2.931,7.009-13.445-.258-5.229-2.252-13.472-4.1-20.164C361.462,86.641,355.847,80,349.9,81.92L331.914,90.7c-1.807.583-2.123,2.28-1.7,4.13l.029.9,7,28.954,2.956,12.94a10.932,10.932,0,0,0,12.2,8.292h0A10.932,10.932,0,0,0,361.559,132.972Z" transform="translate(-330.048 -81.583)" fill="#ffbe9d"/>
                                          </g>
                                        </g>
                                      </g>
                                    </g>
                                  </g>
                                </g>
                              </g>
                              <g id="Group_1342" data-name="Group 1342" transform="translate(27.008 15.15)">
                                <g id="Group_1333" data-name="Group 1333" transform="translate(3.341 1.984)">
                                  <g id="Group_1332" data-name="Group 1332">
                                    <g id="Group_1331" data-name="Group 1331">
                                      <g id="Group_1330" data-name="Group 1330">
                                        <g id="Group_1329" data-name="Group 1329">
                                          <g id="Group_1328" data-name="Group 1328">
                                            <g id="Group_1327" data-name="Group 1327">
                                              <path id="Path_2410" data-name="Path 2410" d="M364.794,100.668a1.332,1.332,0,0,1-.982,1.58,1.275,1.275,0,0,1-1.592-.893,1.336,1.336,0,0,1,.98-1.582A1.278,1.278,0,0,1,364.794,100.668Z" transform="translate(-362.184 -99.726)" fill="#263238"/>
                                            </g>
                                          </g>
                                        </g>
                                      </g>
                                    </g>
                                  </g>
                                </g>
                                <g id="Group_1341" data-name="Group 1341">
                                  <g id="Group_1340" data-name="Group 1340">
                                    <g id="Group_1339" data-name="Group 1339">
                                      <g id="Group_1338" data-name="Group 1338">
                                        <g id="Group_1337" data-name="Group 1337">
                                          <g id="Group_1336" data-name="Group 1336">
                                            <g id="Group_1335" data-name="Group 1335">
                                              <g id="Group_1334" data-name="Group 1334">
                                                <path id="Path_2411" data-name="Path 2411" d="M363.822,98.54c-.127.2-1.268-.32-2.672-.022-1.406.278-2.286,1.216-2.473,1.077-.091-.06.009-.4.39-.824A3.654,3.654,0,0,1,361,97.7a3.513,3.513,0,0,1,2.17.229C363.675,98.17,363.886,98.448,363.822,98.54Z" transform="translate(-358.646 -97.625)" fill="#263238"/>
                                              </g>
                                            </g>
                                          </g>
                                        </g>
                                      </g>
                                    </g>
                                  </g>
                                </g>
                              </g>
                              <g id="Group_1358" data-name="Group 1358" transform="translate(13.429 18.48)">
                                <g id="Group_1349" data-name="Group 1349" transform="translate(3.255 1.788)">
                                  <g id="Group_1348" data-name="Group 1348">
                                    <g id="Group_1347" data-name="Group 1347">
                                      <g id="Group_1346" data-name="Group 1346">
                                        <g id="Group_1345" data-name="Group 1345">
                                          <g id="Group_1344" data-name="Group 1344">
                                            <g id="Group_1343" data-name="Group 1343">
                                              <path id="Path_2412" data-name="Path 2412" d="M350.324,103.985a1.333,1.333,0,0,1-.982,1.581,1.275,1.275,0,0,1-1.591-.894,1.333,1.333,0,0,1,.98-1.581A1.276,1.276,0,0,1,350.324,103.985Z" transform="translate(-347.715 -103.043)" fill="#263238"/>
                                            </g>
                                          </g>
                                        </g>
                                      </g>
                                    </g>
                                  </g>
                                </g>
                                <g id="Group_1357" data-name="Group 1357">
                                  <g id="Group_1356" data-name="Group 1356">
                                    <g id="Group_1355" data-name="Group 1355">
                                      <g id="Group_1354" data-name="Group 1354">
                                        <g id="Group_1353" data-name="Group 1353">
                                          <g id="Group_1352" data-name="Group 1352">
                                            <g id="Group_1351" data-name="Group 1351">
                                              <g id="Group_1350" data-name="Group 1350">
                                                <path id="Path_2413" data-name="Path 2413" d="M349.444,102.065c-.127.2-1.269-.319-2.672-.022-1.406.278-2.286,1.216-2.473,1.077-.091-.06.008-.4.39-.823a3.656,3.656,0,0,1,1.935-1.073,3.522,3.522,0,0,1,2.171.229C349.3,101.695,349.508,101.973,349.444,102.065Z" transform="translate(-344.268 -101.15)" fill="#263238"/>
                                              </g>
                                            </g>
                                          </g>
                                        </g>
                                      </g>
                                    </g>
                                  </g>
                                </g>
                              </g>
                              <g id="Group_1366" data-name="Group 1366" transform="translate(22.613 16.711)">
                                <g id="Group_1365" data-name="Group 1365">
                                  <g id="Group_1364" data-name="Group 1364">
                                    <g id="Group_1363" data-name="Group 1363">
                                      <g id="Group_1362" data-name="Group 1362">
                                        <g id="Group_1361" data-name="Group 1361">
                                          <g id="Group_1360" data-name="Group 1360">
                                            <g id="Group_1359" data-name="Group 1359">
                                              <path id="Path_2414" data-name="Path 2414" d="M357.1,110.844a9.487,9.487,0,0,1,2.195-.891c.35-.112.675-.254.684-.512a1.86,1.86,0,0,0-.462-1.012l-1.633-2.507c-2.288-3.578-4.025-6.551-3.88-6.642s2.116,2.735,4.4,6.313q.833,1.327,1.592,2.534a2.118,2.118,0,0,1,.481,1.368.92.92,0,0,1-.48.648,2.5,2.5,0,0,1-.591.213A9.367,9.367,0,0,1,357.1,110.844Z" transform="translate(-353.992 -99.278)" fill="#263238"/>
                                            </g>
                                          </g>
                                        </g>
                                      </g>
                                    </g>
                                  </g>
                                </g>
                              </g>
                              <g id="Group_1373" data-name="Group 1373" transform="translate(15.784 43.915)">
                                <g id="Group_1372" data-name="Group 1372">
                                  <g id="Group_1371" data-name="Group 1371">
                                    <g id="Group_1370" data-name="Group 1370">
                                      <g id="Group_1369" data-name="Group 1369">
                                        <g id="Group_1368" data-name="Group 1368">
                                          <g id="Group_1367" data-name="Group 1367">
                                            <path id="Path_2415" data-name="Path 2415" d="M361.15,128.858a26.446,26.446,0,0,1-14.389-.776s4.944,6.46,14.928,3.372Z" transform="translate(-346.761 -128.082)" fill="#eb996e"/>
                                          </g>
                                        </g>
                                      </g>
                                    </g>
                                  </g>
                                </g>
                              </g>
                            </g>
                          </g>
                        </g>
                        <g id="Group_1383" data-name="Group 1383" transform="translate(12.447 16.616)">
                          <g id="Group_1382" data-name="Group 1382">
                            <g id="Group_1381" data-name="Group 1381">
                              <g id="Group_1380" data-name="Group 1380">
                                <g id="Group_1379" data-name="Group 1379">
                                  <g id="Group_1378" data-name="Group 1378">
                                    <g id="Group_1377" data-name="Group 1377">
                                      <path id="Path_2416" data-name="Path 2416" d="M349.652,99.953c-.093.4-1.538.395-3.184.8-1.655.372-2.943,1.026-3.206.705-.119-.154.071-.547.57-.988a5.707,5.707,0,0,1,4.868-1.147C349.344,99.5,349.691,99.763,349.652,99.953Z" transform="translate(-343.228 -99.176)" fill="#263238"/>
                                    </g>
                                  </g>
                                </g>
                              </g>
                            </g>
                          </g>
                        </g>
                        <g id="Group_1390" data-name="Group 1390" transform="translate(25.935 10.643)">
                          <g id="Group_1389" data-name="Group 1389">
                            <g id="Group_1388" data-name="Group 1388">
                              <g id="Group_1387" data-name="Group 1387">
                                <g id="Group_1386" data-name="Group 1386">
                                  <g id="Group_1385" data-name="Group 1385">
                                    <g id="Group_1384" data-name="Group 1384">
                                      <path id="Path_2417" data-name="Path 2417" d="M363.226,93.809c-.225.38-1.438.289-2.818.563-1.387.232-2.5.747-2.835.469-.151-.137-.035-.495.412-.9a4.521,4.521,0,0,1,2.177-1,4.466,4.466,0,0,1,2.378.17C363.093,93.332,363.322,93.626,363.226,93.809Z" transform="translate(-357.51 -92.852)" fill="#263238"/>
                                    </g>
                                  </g>
                                </g>
                              </g>
                            </g>
                          </g>
                        </g>
                      </g>
                    </g>
                  </g>
                </g>
                <g id="Group_1395" data-name="Group 1395" transform="translate(5.743)">
                  <path id="Path_2418" data-name="Path 2418" d="M336.676,83.8a7.114,7.114,0,0,0,9.644,5.173c1.5-.607,3.037-1.747,4.556-1.2,1.6.578,2.1,2.7,3.579,3.529,2.117,1.185,4.668-.868,7.087-.665,1.867.157,3.315,1.61,4.777,2.782s3.492,2.154,5.143,1.266a21.071,21.071,0,0,0-1.672-4.548,7.087,7.087,0,0,0-3.459-3.271,26.584,26.584,0,0,1-2.522-.842c-1.7-.876-2.469-2.858-3.712-4.317a7.8,7.8,0,0,0-6.616-2.651c-2.045.211-3.984,1.24-6.038,1.152-1.519-.064-2.973-.739-4.493-.714-2.959.05-5.182,2.642-6.823,5.1" transform="translate(-336.129 -79.017)" fill="#263238"/>
                </g>
              </g>
            </g>
            <path id="Path_2419" data-name="Path 2419" d="M345.8,86.128c-1.352-.1-4.135-.385-5.049-1.351a7.968,7.968,0,0,0-7.6-2.491,6.575,6.575,0,0,0-4.74,6.292,9.452,9.452,0,0,0-6.894,6.772,10.959,10.959,0,0,0,2.359,9.921,19.632,19.632,0,0,1,1.55,2.245,16.05,16.05,0,0,0-1.68,2.547c-2.158,4.778,3.7,6.608,3.7,6.608.016,3.212,2.976,3.2,4.875,3.187,1.827-.008,2.95,5.055,4.428,4.858l-1.5-15.641a1.954,1.954,0,0,0,.692.126c3.581.063,2.646-6.709,1.487-8.461a20.29,20.29,0,0,0,2.684-4.321,14.639,14.639,0,0,0,.139-7.241C341.5,89,346.391,86.172,345.8,86.128Z" transform="translate(-321.17 -79.187)" fill="#263238"/>
            <g id="Group_1419" data-name="Group 1419" transform="translate(8.635 28.382)">
              <g id="Group_1407" data-name="Group 1407">
                <g id="Group_1406" data-name="Group 1406">
                  <g id="Group_1405" data-name="Group 1405">
                    <g id="Group_1404" data-name="Group 1404">
                      <g id="Group_1403" data-name="Group 1403">
                        <g id="Group_1402" data-name="Group 1402">
                          <g id="Group_1401" data-name="Group 1401">
                            <g id="Group_1400" data-name="Group 1400">
                              <g id="Group_1399" data-name="Group 1399">
                                <g id="Group_1398" data-name="Group 1398">
                                  <path id="Path_2420" data-name="Path 2420" d="M336.292,111.4a3.032,3.032,0,0,0-4.868-1.624c-.907.809-1.447,2.171-.875,4.451,1.525,6.079,7.315,3.294,7.281,3.118C337.809,117.239,336.946,113.915,336.292,111.4Z" transform="translate(-330.313 -109.069)" fill="#ffbe9d"/>
                                </g>
                              </g>
                            </g>
                          </g>
                        </g>
                      </g>
                    </g>
                  </g>
                </g>
              </g>
              <g id="Group_1418" data-name="Group 1418" transform="translate(1.685 1.891)">
                <g id="Group_1417" data-name="Group 1417">
                  <g id="Group_1416" data-name="Group 1416">
                    <g id="Group_1415" data-name="Group 1415">
                      <g id="Group_1414" data-name="Group 1414">
                        <g id="Group_1413" data-name="Group 1413">
                          <g id="Group_1412" data-name="Group 1412">
                            <g id="Group_1411" data-name="Group 1411">
                              <g id="Group_1410" data-name="Group 1410">
                                <g id="Group_1409" data-name="Group 1409">
                                  <g id="Group_1408" data-name="Group 1408">
                                    <path id="Path_2421" data-name="Path 2421" d="M335.494,115.622c-.032-.012-.088.1-.246.228a1.091,1.091,0,0,1-.788.215c-.7-.075-1.5-.959-1.8-2.047a3.619,3.619,0,0,1-.084-1.59,1.262,1.262,0,0,1,.593-1.012.557.557,0,0,1,.7.133c.124.149.116.28.15.283s.106-.135-.007-.374a.7.7,0,0,0-.334-.321.828.828,0,0,0-.625-.008,1.537,1.537,0,0,0-.87,1.22,3.722,3.722,0,0,0,.058,1.787c.347,1.215,1.262,2.2,2.2,2.237a1.165,1.165,0,0,0,.927-.4C335.52,115.772,335.518,115.628,335.494,115.622Z" transform="translate(-332.097 -111.071)" fill="#eb996e"/>
                                  </g>
                                </g>
                              </g>
                            </g>
                          </g>
                        </g>
                      </g>
                    </g>
                  </g>
                </g>
              </g>
            </g>
          </g>
          <g id="Group_1421" data-name="Group 1421" transform="translate(18.017 10.608)">
            <path id="Path_2422" data-name="Path 2422" d="M369.455,101.475c-.038-.046.55-.424,1.326-1.373a8.937,8.937,0,0,0,1.9-4.723,8.694,8.694,0,0,0-.339-3.5,7.517,7.517,0,0,0-2.159-3.356,8.876,8.876,0,0,0-8.681-1.69c-.284.092-.548.233-.817.345-.258.135-.5.286-.742.422l-.374.211-.006-.416a3.069,3.069,0,0,0-.764-1.984,4.879,4.879,0,0,0-1.744-1.247,6.437,6.437,0,0,0-4.054-.3c-2.607.591-4.817,1.783-6.906,2.023a6.678,6.678,0,0,1-4.711-.946,3.844,3.844,0,0,1-.924-.944,1.656,1.656,0,0,1-.21-.409,5.422,5.422,0,0,0,1.237,1.2,6.652,6.652,0,0,0,4.562.765,16.378,16.378,0,0,0,3.171-.915,28.627,28.627,0,0,1,3.687-1.208,8.182,8.182,0,0,1,2.134-.213,6.58,6.58,0,0,1,2.2.506,5.345,5.345,0,0,1,1.925,1.368,3.556,3.556,0,0,1,.886,2.3l-.38-.206c.257-.146.517-.308.792-.452.286-.119.568-.27.87-.367a9.281,9.281,0,0,1,9.151,1.816,7.881,7.881,0,0,1,2.245,3.572,8.937,8.937,0,0,1,.295,3.661,8.831,8.831,0,0,1-2.1,4.808,6.306,6.306,0,0,1-1.053.977A1.889,1.889,0,0,1,369.455,101.475Z" transform="translate(-340.247 -83.212)" fill="#455a64"/>
          </g>
          <g id="Group_1422" data-name="Group 1422" transform="translate(18.767 3.954)">
            <path id="Path_2423" data-name="Path 2423" d="M368.263,79.734a6.736,6.736,0,0,0-1.956-.671,5.155,5.155,0,0,0-2.325.211,4.589,4.589,0,0,0-2.393,1.74l-.231.334-.142-.378a7.105,7.105,0,0,0-5.761-4.278,9.175,9.175,0,0,0-5.538,1.6,24.544,24.544,0,0,1-4.39,2.271,6.9,6.9,0,0,1-3.322.39,4.184,4.184,0,0,1-.881-.242c-.193-.083-.289-.134-.282-.15.015-.044.421.126,1.187.2a7.217,7.217,0,0,0,3.182-.528,26.53,26.53,0,0,0,4.279-2.336,15.031,15.031,0,0,1,2.645-1.292,7.208,7.208,0,0,1,3.172-.406,7.45,7.45,0,0,1,6.106,4.615l-.373-.044a4.883,4.883,0,0,1,2.641-1.832,5.218,5.218,0,0,1,2.468-.123,4.427,4.427,0,0,1,1.48.565C368.133,79.587,368.275,79.719,368.263,79.734Z" transform="translate(-341.041 -76.166)" fill="#455a64"/>
          </g>
          <path id="Path_2424" data-name="Path 2424" d="M356.5,114.452a2.057,2.057,0,0,0-1.659-.482,2.43,2.43,0,0,0-1.591,1.162c-.008.011-.016.024-.025.036s-.039.05-.052.077l.023-.016a1.165,1.165,0,0,0-.178.713,1.714,1.714,0,0,0,.987,1.277,2.17,2.17,0,0,0,2.474-.358A1.772,1.772,0,0,0,356.5,114.452Z" transform="translate(-322.939 -74.312)" fill="#e8505b"/>
          <g id="Group_1423" data-name="Group 1423" transform="translate(29.761 40.528)">
            <path id="Path_2425" data-name="Path 2425" d="M356.951,117.441c-.073.014-.165-.28-.417-.675a2.962,2.962,0,0,0-3.066-1.395c-.464.071-.746.195-.784.13s.2-.294.7-.467a2.794,2.794,0,0,1,3.458,1.573C357.042,117.1,357.01,117.434,356.951,117.441Z" transform="translate(-352.682 -114.893)" fill="#263238"/>
          </g>
          <g id="Group_1424" data-name="Group 1424" transform="translate(11.093 42.818)">
            <path id="Path_2426" data-name="Path 2426" d="M336.577,118.744c.045-.029.27.472-.084,1.188a1.925,1.925,0,0,1-1.007.91,1.954,1.954,0,0,1-2.564-1.615,1.924,1.924,0,0,1,.385-1.3c.493-.628,1.043-.643,1.036-.588.032.074-.415.214-.747.783a1.7,1.7,0,0,0-.224,1.059,1.575,1.575,0,0,0,1.962,1.235,1.7,1.7,0,0,0,.858-.659C336.561,119.211,336.5,118.747,336.577,118.744Z" transform="translate(-332.916 -117.318)" fill="#e8505b"/>
          </g>
          <g id="Group_1425" data-name="Group 1425" transform="translate(9.413 42.118)">
            <path id="Path_2427" data-name="Path 2427" d="M333.288,118.339c.054.025-.028.322-.439.522a1.192,1.192,0,0,1-.785.077,1.258,1.258,0,0,1-.864-1.6,1.192,1.192,0,0,1,.494-.615c.393-.234.687-.14.678-.082,0,.074-.232.123-.467.358a.9.9,0,0,0,.828,1.531C333.06,118.466,333.23,118.295,333.288,118.339Z" transform="translate(-331.137 -116.577)" fill="#e8505b"/>
          </g>
        </g>
        <g id="Group_1435" data-name="Group 1435" transform="translate(10.674 48.878)">
          <path id="Path_2428" data-name="Path 2428" d="M344.409,205.783s23.383,1.356,37.2,1.484c10.706.1,15.477-2.745,17.618-9.624,1.8-5.775-2.065-16.85-2.065-16.85-7.239.037-11.707,1.034-16.366,3.218l1.242,5.064-37.7,3.251Z" transform="translate(-323.303 -126.906)" fill="#ffbe9d"/>
          <g id="Group_1427" data-name="Group 1427" transform="translate(58.519 62.025)">
            <path id="Path_2429" data-name="Path 2429" d="M392.108,194.957a13.635,13.635,0,0,0-8.08-5.509,3.334,3.334,0,0,1,1.5.13,10.005,10.005,0,0,1,5.911,4.03A3.35,3.35,0,0,1,392.108,194.957Z" transform="translate(-384.028 -189.41)" fill="#eb996e"/>
          </g>
          <g id="Group_1434" data-name="Group 1434">
            <path id="Path_2430" data-name="Path 2430" d="M334.609,182.259h0a45.229,45.229,0,0,0-12.544,5.286l5.648,15.36c1.887,5.04,7.667,7.518,12.244,4.9,7.111-4.063,9.62-15.927,9.62-15.927L357.393,158l-12.948-8.113-9.836,32.376" transform="translate(-322.065 -125.188)" fill="#ffbe9d"/>
            <g id="Group_1433" data-name="Group 1433" transform="translate(10.337)">
              <path id="Path_2431" data-name="Path 2431" d="M345.615,148.441l.523-11.143-2.892-11.287c-.161-.626-.239-1.405.267-1.786a1.373,1.373,0,0,1,1.745.055c.791.809,4.567,10.723,4.567,10.723s5.73-3.444,6.753-3.611,2.3,2.915,2.377,3.159a17.964,17.964,0,0,1,.01,2.071s3.543.106,3.861.592a12.168,12.168,0,0,1,.409,3.006s1.5.481,1.74,1.617.724,3.005.018,3.415-2.2,1.231-2.2,1.231-.6,5.782-.756,6.308a35.857,35.857,0,0,1-3.476,3.764Z" transform="translate(-333.573 -123.746)" fill="#ffbe9d"/>
              <g id="Group_1428" data-name="Group 1428">
                <path id="Path_2432" data-name="Path 2432" d="M333.011,206.586c.015-.031.352.2,1.085.439a7.389,7.389,0,0,0,3.339.264,9.313,9.313,0,0,0,4.833-2.229,22.409,22.409,0,0,0,4.494-5.689,25.535,25.535,0,0,0,1.75-3.9,39.975,39.975,0,0,0,1.212-4.527c.741-3.183,1.54-6.609,2.388-10.251,1.7-7.285,3.611-15.43,5.663-24.2l.015-.065.049-.048c.65-.637,1.3-1.294,1.95-1.968.322-.338.645-.681.953-1.033a6.648,6.648,0,0,0,.429-.534c.11-.113.114-.342.158-.583.256-1.891.455-3.845.665-5.812l.013-.125.11-.062,1.8-1.009c.137-.081.339-.18.424-.248a.522.522,0,0,0,.17-.316,3.016,3.016,0,0,0,.011-.978,14.691,14.691,0,0,0-.419-2.053,2.528,2.528,0,0,0-1.5-1.213l-.163-.06-.007-.164c-.024-.547-.06-1.11-.122-1.67-.032-.28-.068-.562-.126-.829a1.625,1.625,0,0,0-.109-.35c-.029-.061-.016-.015-.059-.055a.942.942,0,0,0-.159-.067,16.671,16.671,0,0,0-3.458-.39l-.246-.012.008-.243c.018-.583.042-1.233.016-1.845a1.943,1.943,0,0,0-.22-.633c-.1-.228-.211-.452-.324-.673a8.107,8.107,0,0,0-.773-1.248,2.087,2.087,0,0,0-.48-.47.459.459,0,0,0-.5-.058,12.241,12.241,0,0,0-1.332.61c-1.763.917-3.475,1.919-5.155,2.916l-.246.146-.1-.265q-1.34-3.355-2.644-6.621l-1.294-3.24a1.344,1.344,0,0,0-1.038-.972,1.051,1.051,0,0,0-1.229.451,1.1,1.1,0,0,0-.144.672c.027.211.131.529.193.787q.215.817.428,1.627.425,1.619.843,3.209l1.637,6.235.008.033,0,.034c-.188,3.878-.368,7.6-.539,11.143l0,.025-.008.025c-3.568,11.614-6.529,21.246-8.6,28-1.042,3.346-1.861,5.976-2.427,7.793q-.422,1.319-.654,2.044c-.151.461-.244.694-.244.694s.052-.246.183-.713l.6-2.061,2.321-7.825c2.034-6.764,4.937-16.413,8.437-28.047l-.009.049c.161-3.543.33-7.265.505-11.144l.007.066q-.807-3.051-1.651-6.23l-.85-3.208q-.214-.809-.431-1.625c-.067-.289-.153-.507-.207-.857a1.58,1.58,0,0,1,.2-.961,1.462,1.462,0,0,1,.765-.643,1.822,1.822,0,0,1,.977-.031,1.935,1.935,0,0,1,.865.441,1.91,1.91,0,0,1,.509.814q.643,1.608,1.3,3.239l2.651,6.62-.352-.119c1.688-1,3.4-2.005,5.182-2.935a12.54,12.54,0,0,1,1.4-.639,1.072,1.072,0,0,1,.476-.067,1.03,1.03,0,0,1,.448.178,2.567,2.567,0,0,1,.6.578,8.558,8.558,0,0,1,.824,1.328c.118.229.23.461.335.7a2.312,2.312,0,0,1,.263.8c.028.67,0,1.3-.015,1.9l-.239-.255a16.652,16.652,0,0,1,3.607.418,1.352,1.352,0,0,1,.244.106.606.606,0,0,1,.244.247,1.993,1.993,0,0,1,.156.479c.064.3.1.589.133.878.063.579.1,1.145.124,1.707l-.17-.224a2.985,2.985,0,0,1,1.8,1.492,14.273,14.273,0,0,1,.452,2.186,3.434,3.434,0,0,1-.023,1.147,1,1,0,0,1-.343.584,5.025,5.025,0,0,1-.482.286l-1.81,1.011.124-.186c-.213,1.973-.413,3.916-.674,5.831l-.06.366a.942.942,0,0,1-.175.412,6.442,6.442,0,0,1-.466.58c-.317.362-.643.707-.969,1.047-.654.679-1.31,1.335-1.965,1.977l.064-.113L352.5,180.783c-.865,3.637-1.679,7.06-2.436,10.238a39.947,39.947,0,0,1-1.249,4.555,25.8,25.8,0,0,1-1.8,3.937,22.418,22.418,0,0,1-4.6,5.716,9.394,9.394,0,0,1-4.962,2.214,7.277,7.277,0,0,1-3.384-.342,5,5,0,0,1-.8-.364A1.654,1.654,0,0,1,333.011,206.586Z" transform="translate(-333.011 -123.734)" fill="#eb996e"/>
              </g>
              <g id="Group_1429" data-name="Group 1429" transform="translate(20.503 12.587)">
                <path id="Path_2433" data-name="Path 2433" d="M359.61,137.332c0,.07-.32.1-.819.128a9.45,9.45,0,0,0-1.881.223,3.719,3.719,0,0,0-1.6.857c-.346.322-.5.6-.566.566s-.018-.362.306-.8a3.178,3.178,0,0,1,1.739-1.1,5.489,5.489,0,0,1,2.018-.094C359.311,137.179,359.614,137.266,359.61,137.332Z" transform="translate(-354.72 -137.062)" fill="#eb996e"/>
              </g>
              <g id="Group_1430" data-name="Group 1430" transform="translate(22.521 11.823)">
                <path id="Path_2434" data-name="Path 2434" d="M356.958,137.391c-.127-.048-.135-.34-.018-.652s.314-.527.442-.48.135.34.018.652S357.086,137.438,356.958,137.391Z" transform="translate(-356.857 -136.253)" fill="#eb996e"/>
              </g>
              <g id="Group_1431" data-name="Group 1431" transform="translate(25.051 16.242)">
                <path id="Path_2435" data-name="Path 2435" d="M364.3,141.08a8.866,8.866,0,0,1-2.8.388,1.915,1.915,0,0,0-1.56.751c-.249.385-.166.706-.238.726-.045.043-.3-.318-.073-.883a1.543,1.543,0,0,1,.675-.75,3,3,0,0,1,1.136-.332A7.976,7.976,0,0,1,364.3,141.08Z" transform="translate(-359.536 -140.932)" fill="#eb996e"/>
              </g>
              <g id="Group_1432" data-name="Group 1432" transform="translate(28.863 19.788)">
                <path id="Path_2436" data-name="Path 2436" d="M363.9,144.687c.136.006.214.7.176,1.559s-.179,1.543-.315,1.538-.214-.7-.176-1.56S363.762,144.68,363.9,144.687Z" transform="translate(-363.573 -144.687)" fill="#eb996e"/>
              </g>
            </g>
          </g>
        </g>
        <g id="Group_1437" data-name="Group 1437" transform="translate(54.126 88.671)">
          <path id="Path_2437" data-name="Path 2437" d="M368.074,171.3l.84-2.9a.791.791,0,0,1,1.324-.333l1.1,1.118.685-2.723a.791.791,0,0,1,1.48-.149l1.546,3.224Z" transform="translate(-368.074 -165.869)" fill="#fff"/>
          <g id="Group_1436" data-name="Group 1436" transform="translate(0.195 4.879)">
            <path id="Path_2438" data-name="Path 2438" d="M375.07,171.069a24.972,24.972,0,0,1-6.789,1.681,24.968,24.968,0,0,1,6.789-1.681Z" transform="translate(-368.28 -171.036)" fill="#fff"/>
          </g>
        </g>
        <g id="Group_1438" data-name="Group 1438" transform="translate(2.417 77.44)">
          <path id="Path_2439" data-name="Path 2439" d="M315.853,153.977c.023.019-.351.363-.84,1.122a9.6,9.6,0,0,0-1.281,3.566,25.769,25.769,0,0,0-.17,5.658c.1,2.138.277,4.485.538,6.941a121.816,121.816,0,0,0,1.993,12.485c.336,1.584.638,2.859.848,3.74l.243,1.014c.054.232.072.357.072.357s-.043-.118-.11-.347c-.079-.287-.172-.618-.28-1.006-.232-.875-.555-2.147-.909-3.729a110.639,110.639,0,0,1-2.053-12.495c-.262-2.46-.43-4.812-.524-6.953a25.225,25.225,0,0,1,.214-5.69,9.393,9.393,0,0,1,1.353-3.584A5.689,5.689,0,0,1,315.853,153.977Z" transform="translate(-313.322 -153.977)" fill="#fff"/>
        </g>
        <g id="Group_1439" data-name="Group 1439" transform="translate(4.948 64.6)">
          <path id="Path_2440" data-name="Path 2440" d="M335.876,140.382a1.2,1.2,0,0,1-.212.115l-.623.3c-.54.258-1.32.637-2.258,1.156a81.393,81.393,0,0,0-7.1,4.435c-2.7,1.854-5.088,3.606-6.833,4.853l-2.073,1.468-.571.39a1.147,1.147,0,0,1-.207.125,1.116,1.116,0,0,1,.183-.157l.55-.419,2.036-1.519c1.725-1.276,4.1-3.047,6.8-4.9a70.926,70.926,0,0,1,7.143-4.4c.948-.5,1.74-.866,2.292-1.1l.639-.263A1.035,1.035,0,0,1,335.876,140.382Z" transform="translate(-316.002 -140.381)" fill="#fff"/>
        </g>
        <g id="Group_1440" data-name="Group 1440" transform="translate(52.345 63.07)">
          <path id="Path_2441" data-name="Path 2441" d="M383.706,146.435a.769.769,0,0,1-.158-.119l-.425-.368a16.9,16.9,0,0,0-1.655-1.234,33.609,33.609,0,0,0-6.071-3.072,61.674,61.674,0,0,0-6.474-2.154c-.841-.233-1.528-.405-2-.522l-.546-.139a.745.745,0,0,1-.188-.062.762.762,0,0,1,.2.024l.554.1c.48.094,1.173.246,2.021.463a52.437,52.437,0,0,1,6.511,2.106,30.8,30.8,0,0,1,6.076,3.14A12,12,0,0,1,383.706,146.435Z" transform="translate(-366.188 -138.762)" fill="#fff"/>
        </g>
        <g id="Group_1441" data-name="Group 1441" transform="translate(21.599 134.768)">
          <path id="Path_2442" data-name="Path 2442" d="M337.124,222.744a1.335,1.335,0,0,1-.368-.127,6.234,6.234,0,0,1-.937-.5,4.557,4.557,0,0,1-2.054-2.781,5.445,5.445,0,0,1,.365-3.457,4.769,4.769,0,0,1,.547-.913,1.289,1.289,0,0,1,.263-.287,11.008,11.008,0,0,0-.682,1.256,5.593,5.593,0,0,0-.3,3.356A4.6,4.6,0,0,0,335.9,222C336.621,222.506,337.14,222.71,337.124,222.744Z" transform="translate(-333.633 -214.679)" fill="#fff"/>
        </g>
        <g id="Group_1442" data-name="Group 1442" transform="translate(22.071 132.608)">
          <path id="Path_2443" data-name="Path 2443" d="M334.145,212.392a8.177,8.177,0,0,1,.71,2.427,8.177,8.177,0,0,1-.71-2.427Z" transform="translate(-334.133 -212.392)" fill="#fff"/>
        </g>
        <g id="Group_1496" data-name="Group 1496" transform="translate(11.395 142.818)">
          <g id="Group_1443" data-name="Group 1443" transform="translate(0 0)">
            <path id="Path_2444" data-name="Path 2444" d="M346.285,424.737l28.809-.145-.522-99.6L374.3,223.687l-39.017-.484-7.013,13.224a47.483,47.483,0,0,0-5.4,17.138c-.49,4.577,2.939,19.5,4.137,23.3l10.74,34.057Z" transform="translate(-322.829 -223.203)" fill="#263238"/>
            <path id="Path_2445" data-name="Path 2445" d="M384.537,223.854l31.653,86.292a39.805,39.805,0,0,1-3.9,33.715l-36.751,71.733-20.664-25.852,30.75-64.261-27.109-43.919,4.562-57.617,12.769-.206Z" transform="translate(-324.61 -223.233)" fill="#263238"/>
          </g>
          <g id="Group_1444" data-name="Group 1444" transform="translate(48.837 29.53)">
            <path id="Path_2446" data-name="Path 2446" d="M374.547,254.471s.024.15.044.443c.02.314.047.745.082,1.3.062,1.166.152,2.848.266,5,.212,4.368.515,10.649.89,18.4.358,7.777.784,17.028,1.257,27.3.23,5.138.473,10.53.725,16.12.179,2.794.1,5.643.13,8.532q.013,4.335.026,8.789c.04,23.735.076,45.219.1,60.8-.01,7.762-.019,14.05-.026,18.423-.013,2.157-.025,3.841-.032,5.009-.008.555-.015.988-.02,1.3-.008.294-.025.444-.025.444s-.017-.15-.026-.444l-.027-1.3c-.014-1.168-.035-2.851-.06-5.008-.031-4.373-.077-10.66-.131-18.421-.063-15.574-.15-37.056-.246-60.787q-.013-4.451-.025-8.788c-.031-2.889.053-5.738-.124-8.532-.241-5.589-.474-10.981-.7-16.118-.433-10.27-.823-19.52-1.151-27.3-.309-7.755-.559-14.038-.733-18.408-.076-2.156-.134-3.838-.175-5.006-.014-.555-.025-.988-.033-1.3C374.536,254.622,374.547,254.471,374.547,254.471Z" transform="translate(-374.54 -254.471)" fill="#455a64"/>
          </g>
          <g id="Group_1445" data-name="Group 1445" transform="translate(48.099 2.324)">
            <path id="Path_2447" data-name="Path 2447" d="M373.782,225.664a3.59,3.59,0,0,1,.2.938c.1.607.215,1.489.341,2.582.253,2.184.518,5.213.671,8.566s.159,6.395.1,8.593c-.026,1.1-.064,1.989-.107,2.6a3.582,3.582,0,0,1-.115.952,29.315,29.315,0,0,1-.126-3.555c-.035-2.195-.1-5.225-.248-8.57s-.361-6.367-.524-8.556A29.222,29.222,0,0,1,373.782,225.664Z" transform="translate(-373.759 -225.664)" fill="#455a64"/>
          </g>
          <g id="Group_1446" data-name="Group 1446" transform="translate(40.73 4.019)">
            <path id="Path_2448" data-name="Path 2448" d="M367,227.707a2.316,2.316,0,0,0-.638,1.077,1.223,1.223,0,0,0,.366,1.151,1.257,1.257,0,0,0,2.147-.983,1.225,1.225,0,0,0-.633-1.029,2.3,2.3,0,0,0-1.232-.219c-.012-.025.091-.126.335-.2a1.612,1.612,0,0,1,1.982,1.421,1.69,1.69,0,0,1-2.913,1.334,1.612,1.612,0,0,1,.219-2.429C366.847,227.694,366.989,227.681,367,227.707Z" transform="translate(-365.956 -227.459)" fill="#455a64"/>
          </g>
          <g id="Group_1447" data-name="Group 1447" transform="translate(11.538 2.557)">
            <path id="Path_2449" data-name="Path 2449" d="M350.168,225.911a2.825,2.825,0,0,1,.259.9,8.953,8.953,0,0,1,.084,2.566,10.335,10.335,0,0,1-1.09,3.66,9.687,9.687,0,0,1-7.381,5.3,10.348,10.348,0,0,1-3.815-.138,8.96,8.96,0,0,1-2.405-.9,2.81,2.81,0,0,1-.773-.535,16.274,16.274,0,0,0,3.248,1.094,9.915,9.915,0,0,0,11.872-8.521A16.392,16.392,0,0,0,350.168,225.911Z" transform="translate(-335.045 -225.911)" fill="#455a64"/>
          </g>
          <g id="Group_1448" data-name="Group 1448" transform="translate(56.059 2.476)">
            <path id="Path_2450" data-name="Path 2450" d="M389.844,234.174a3.822,3.822,0,0,1-1.814-.214,8.431,8.431,0,0,1-5.725-6.308,3.822,3.822,0,0,1-.039-1.826c.088,0,.093.694.378,1.747a9.127,9.127,0,0,0,5.5,6.057C389.162,234.015,389.854,234.087,389.844,234.174Z" transform="translate(-382.187 -225.825)" fill="#455a64"/>
          </g>
          <g id="Group_1449" data-name="Group 1449" transform="translate(63.104 101.017)">
            <path id="Path_2451" data-name="Path 2451" d="M401.511,333a5.98,5.98,0,0,1-1.67,1.328,7.716,7.716,0,0,1-2.149.939,5.179,5.179,0,0,1-2.9-.077,8.437,8.437,0,0,1-4.036-3.211,7.488,7.488,0,0,1-1.107-1.817,11.637,11.637,0,0,1,1.381,1.6,8.952,8.952,0,0,0,3.911,2.957,6.056,6.056,0,0,0,4.727-.7A19.532,19.532,0,0,1,401.511,333Z" transform="translate(-389.647 -330.165)" fill="#455a64"/>
          </g>
          <g id="Group_1450" data-name="Group 1450" transform="translate(62.189 101.545)">
            <path id="Path_2452" data-name="Path 2452" d="M394.246,338.548a46.825,46.825,0,0,1-5.562-7.821,46.94,46.94,0,0,1,5.562,7.821Z" transform="translate(-388.677 -330.724)" fill="#455a64"/>
          </g>
          <g id="Group_1451" data-name="Group 1451" transform="translate(18.265 30.264)">
            <path id="Path_2453" data-name="Path 2453" d="M343.261,257.864c-.126.051-.462-.493-.751-1.215s-.42-1.347-.294-1.4.462.493.751,1.215S343.387,257.814,343.261,257.864Z" transform="translate(-342.168 -255.249)" fill="#fafafa"/>
          </g>
          <g id="Group_1452" data-name="Group 1452" transform="translate(37.397 33.402)">
            <path id="Path_2454" data-name="Path 2454" d="M362.674,260.661c-.136,0-.246-.467-.246-1.045s.111-1.045.246-1.045.246.468.246,1.045S362.81,260.661,362.674,260.661Z" transform="translate(-362.427 -258.571)" fill="#fafafa"/>
          </g>
          <g id="Group_1453" data-name="Group 1453" transform="translate(29.78 42.808)">
            <path id="Path_2455" data-name="Path 2455" d="M354.71,271.143c-.135.009-.285-.568-.334-1.289s.022-1.314.157-1.323.285.569.334,1.29S354.846,271.135,354.71,271.143Z" transform="translate(-354.361 -268.531)" fill="#fafafa"/>
          </g>
          <g id="Group_1454" data-name="Group 1454" transform="translate(14.478 51.285)">
            <path id="Path_2456" data-name="Path 2456" d="M340.077,278.955c-.112.083-.5-.264-1.008-.628s-.952-.633-.908-.765.625-.051,1.2.367S340.187,278.88,340.077,278.955Z" transform="translate(-338.159 -277.506)" fill="#fafafa"/>
          </g>
          <g id="Group_1455" data-name="Group 1455" transform="translate(40.566 60.385)">
            <path id="Path_2457" data-name="Path 2457" d="M365.821,288.721c-.113-.076.029-.487.317-.92s.614-.723.727-.648-.029.487-.318.921S365.933,288.8,365.821,288.721Z" transform="translate(-365.782 -287.142)" fill="#fafafa"/>
          </g>
          <g id="Group_1456" data-name="Group 1456" transform="translate(25.381 61.093)">
            <path id="Path_2458" data-name="Path 2458" d="M349.949,291.375c-.136,0-.246-.78-.246-1.742s.111-1.741.246-1.741.246.779.246,1.741S350.086,291.375,349.949,291.375Z" transform="translate(-349.703 -287.892)" fill="#fafafa"/>
          </g>
          <g id="Group_1457" data-name="Group 1457" transform="translate(18.845 73.75)">
            <path id="Path_2459" data-name="Path 2459" d="M344.71,302.713c-.079.111-.573-.112-1.1-.5s-.893-.786-.814-.9.573.112,1.1.5S344.79,302.6,344.71,302.713Z" transform="translate(-342.783 -301.293)" fill="#fafafa"/>
          </g>
          <g id="Group_1458" data-name="Group 1458" transform="translate(34.328 78.791)">
            <path id="Path_2460" data-name="Path 2460" d="M360.751,306.7c.055.125-.251.381-.684.573s-.829.247-.884.124.251-.381.684-.573S360.7,306.573,360.751,306.7Z" transform="translate(-359.177 -306.631)" fill="#fafafa"/>
          </g>
          <g id="Group_1459" data-name="Group 1459" transform="translate(23.858 92.612)">
            <path id="Path_2461" data-name="Path 2461" d="M349.86,324.753c-.122.06-.61-.671-1.091-1.632s-.773-1.791-.651-1.852.609.67,1.091,1.632S349.981,324.691,349.86,324.753Z" transform="translate(-348.091 -321.265)" fill="#fafafa"/>
          </g>
          <g id="Group_1460" data-name="Group 1460" transform="translate(42.313 91.914)">
            <path id="Path_2462" data-name="Path 2462" d="M367.665,323.144c-.12-.064.094-.7.48-1.422s.793-1.254.913-1.19-.1.7-.48,1.421S367.785,323.207,367.665,323.144Z" transform="translate(-367.632 -320.526)" fill="#fafafa"/>
          </g>
          <g id="Group_1461" data-name="Group 1461" transform="translate(34.473 105.847)">
            <path id="Path_2463" data-name="Path 2463" d="M359.889,338.593c-.14-.021-.128-.766-.274-1.653s-.375-1.593-.249-1.657.585.605.736,1.58S360.017,338.619,359.889,338.593Z" transform="translate(-359.331 -335.28)" fill="#fafafa"/>
          </g>
          <g id="Group_1462" data-name="Group 1462" transform="translate(25.434 115.59)">
            <path id="Path_2464" data-name="Path 2464" d="M351.519,347.525c-.1.092-.571-.263-1.052-.792s-.79-1.031-.689-1.123.572.264,1.053.792S351.62,347.435,351.519,347.525Z" transform="translate(-349.759 -345.596)" fill="#fafafa"/>
          </g>
          <g id="Group_1463" data-name="Group 1463" transform="translate(46.199 118.747)">
            <path id="Path_2465" data-name="Path 2465" d="M371.763,350.884c-.1-.094.25-.6.775-1.137s1.029-.888,1.126-.792-.25.6-.775,1.137S371.859,350.979,371.763,350.884Z" transform="translate(-371.747 -348.939)" fill="#fafafa"/>
          </g>
          <g id="Group_1464" data-name="Group 1464" transform="translate(35.173 130.063)">
            <path id="Path_2466" data-name="Path 2466" d="M360.174,364.062c-.134-.02-.136-.74,0-1.607s.348-1.555.482-1.534.136.74,0,1.607S360.308,364.083,360.174,364.062Z" transform="translate(-360.072 -360.921)" fill="#fafafa"/>
          </g>
          <g id="Group_1465" data-name="Group 1465" transform="translate(26.464 136.846)">
            <path id="Path_2467" data-name="Path 2467" d="M352.3,370.533c-.117.069-.53-.418-.922-1.087s-.614-1.267-.5-1.336.53.418.922,1.088S352.417,370.465,352.3,370.533Z" transform="translate(-350.85 -368.103)" fill="#fafafa"/>
          </g>
          <g id="Group_1466" data-name="Group 1466" transform="translate(43.203 146.919)">
            <path id="Path_2468" data-name="Path 2468" d="M371.019,378.792c.078.111-.4.59-1.076,1.072s-1.282.783-1.361.672.4-.59,1.075-1.072S370.94,378.681,371.019,378.792Z" transform="translate(-368.574 -378.769)" fill="#fafafa"/>
          </g>
          <g id="Group_1467" data-name="Group 1467" transform="translate(30.828 153.397)">
            <path id="Path_2469" data-name="Path 2469" d="M355.52,389.119c-.132-.047.037-.808.115-1.748s.055-1.717.193-1.741.39.772.3,1.785S355.642,389.169,355.52,389.119Z" transform="translate(-355.471 -385.628)" fill="#fafafa"/>
          </g>
          <g id="Group_1468" data-name="Group 1468" transform="translate(35.353 169.405)">
            <path id="Path_2470" data-name="Path 2470" d="M361.682,404.333c-.107.085-.5-.236-.889-.717s-.611-.94-.505-1.025.5.237.889.718S361.788,404.249,361.682,404.333Z" transform="translate(-360.262 -402.578)" fill="#fafafa"/>
          </g>
          <g id="Group_1469" data-name="Group 1469" transform="translate(28.392 177.945)">
            <path id="Path_2471" data-name="Path 2471" d="M354.829,414.415c-.112.077-.632-.484-1.161-1.254s-.867-1.455-.756-1.533.632.484,1.161,1.254S354.94,414.337,354.829,414.415Z" transform="translate(-352.891 -411.621)" fill="#fafafa"/>
          </g>
          <g id="Group_1470" data-name="Group 1470" transform="translate(48.006 167.324)">
            <path id="Path_2472" data-name="Path 2472" d="M373.747,401.773c-.128-.048-.113-.4.031-.783s.365-.658.491-.61.113.4-.03.783S373.874,401.82,373.747,401.773Z" transform="translate(-373.66 -400.374)" fill="#fafafa"/>
          </g>
          <g id="Group_1471" data-name="Group 1471" transform="translate(40.221 188.402)">
            <path id="Path_2473" data-name="Path 2473" d="M365.452,425.828c-.125-.065.112-.738.3-1.579s.261-1.549.4-1.555.285.748.079,1.662S365.565,425.893,365.452,425.828Z" transform="translate(-365.417 -422.693)" fill="#fafafa"/>
          </g>
          <g id="Group_1472" data-name="Group 1472" transform="translate(44.405 43.662)">
            <path id="Path_2474" data-name="Path 2474" d="M370.791,271.346c-.124.058-.423-.323-.669-.849s-.347-1-.224-1.057.423.322.669.848S370.914,271.289,370.791,271.346Z" transform="translate(-369.846 -269.435)" fill="#fafafa"/>
          </g>
          <g id="Group_1473" data-name="Group 1473" transform="translate(29.609 16.141)">
            <path id="Path_2475" data-name="Path 2475" d="M356.816,240.314c.075.12-.59.652-1.292,1.406s-1.2,1.447-1.32,1.381.2-.911.961-1.717S356.752,240.2,356.816,240.314Z" transform="translate(-354.18 -240.294)" fill="#fafafa"/>
          </g>
          <g id="Group_1474" data-name="Group 1474" transform="translate(42.674 13.362)">
            <path id="Path_2476" data-name="Path 2476" d="M369.253,239.8c-.136.028-.359-.533-.687-1.181s-.637-1.164-.532-1.257.616.321.972,1.037S369.383,239.78,369.253,239.8Z" transform="translate(-368.014 -237.352)" fill="#fafafa"/>
          </g>
          <g id="Group_1475" data-name="Group 1475" transform="translate(7.511 22.789)">
            <path id="Path_2477" data-name="Path 2477" d="M330.83,249.953c-.127-.049,0-.676.288-1.4s.62-1.267.746-1.217,0,.676-.289,1.4S330.956,250,330.83,249.953Z" transform="translate(-330.782 -247.334)" fill="#fafafa"/>
          </g>
          <g id="Group_1476" data-name="Group 1476" transform="translate(6.632 37.91)">
            <path id="Path_2478" data-name="Path 2478" d="M331.952,265.106c-.087.1-.625-.2-1.2-.682s-.975-.956-.888-1.06.625.2,1.2.682S332.039,265,331.952,265.106Z" transform="translate(-329.85 -263.344)" fill="#fafafa"/>
          </g>
          <g id="Group_1477" data-name="Group 1477" transform="translate(31.828 3.095)">
            <path id="Path_2479" data-name="Path 2479" d="M357.295,228.226c-.127.05-.384-.3-.577-.779s-.246-.912-.12-.962.384.3.577.779S357.421,228.175,357.295,228.226Z" transform="translate(-356.53 -226.48)" fill="#fafafa"/>
          </g>
          <g id="Group_1478" data-name="Group 1478" transform="translate(55.345 9.377)">
            <path id="Path_2480" data-name="Path 2480" d="M381.523,235.569c-.132-.029-.12-.6.027-1.27s.374-1.195.506-1.165.121.6-.026,1.27S381.656,235.6,381.523,235.569Z" transform="translate(-381.431 -233.132)" fill="#fafafa"/>
          </g>
          <g id="Group_1479" data-name="Group 1479" transform="translate(60.765 19.641)">
            <path id="Path_2481" data-name="Path 2481" d="M387.212,246.964c-.126-.052.045-.756.382-1.573s.712-1.438.838-1.387-.046.756-.382,1.574S387.337,247.016,387.212,246.964Z" transform="translate(-387.17 -244)" fill="#fafafa"/>
          </g>
          <g id="Group_1480" data-name="Group 1480" transform="translate(55.377 28.174)">
            <path id="Path_2482" data-name="Path 2482" d="M383.063,256.174c-.122.06-.571-.592-1-1.458s-.685-1.616-.564-1.677.571.592,1,1.457S383.184,256.113,383.063,256.174Z" transform="translate(-381.465 -253.035)" fill="#fafafa"/>
          </g>
          <g id="Group_1481" data-name="Group 1481" transform="translate(65.104 37.753)">
            <path id="Path_2483" data-name="Path 2483" d="M391.821,265.446c-.127-.049-.035-.6.206-1.22s.538-1.093.665-1.044.035.594-.206,1.22S391.947,265.494,391.821,265.446Z" transform="translate(-391.764 -263.178)" fill="#fafafa"/>
          </g>
          <g id="Group_1482" data-name="Group 1482" transform="translate(56.928 47.148)">
            <path id="Path_2484" data-name="Path 2484" d="M384.025,274.532c-.115.072-.4-.182-.644-.567s-.342-.755-.227-.827.4.182.644.567S384.14,274.46,384.025,274.532Z" transform="translate(-383.107 -273.126)" fill="#fafafa"/>
          </g>
          <g id="Group_1483" data-name="Group 1483" transform="translate(57.128 63.7)">
            <path id="Path_2485" data-name="Path 2485" d="M385.6,293.1c-.1.093-.688-.379-1.313-1.052s-1.051-1.294-.952-1.386.688.379,1.313,1.052S385.7,293.009,385.6,293.1Z" transform="translate(-383.319 -290.652)" fill="#fafafa"/>
          </g>
          <g id="Group_1484" data-name="Group 1484" transform="translate(67.056 53.595)">
            <path id="Path_2486" data-name="Path 2486" d="M395.767,282.4c-.107.084-.622-.394-1.151-1.067s-.872-1.287-.765-1.371.622.394,1.151,1.068S395.874,282.316,395.767,282.4Z" transform="translate(-393.831 -279.952)" fill="#fafafa"/>
          </g>
          <g id="Group_1485" data-name="Group 1485" transform="translate(74.216 67.031)">
            <path id="Path_2487" data-name="Path 2487" d="M401.447,297.14c-.123-.059.092-.768.479-1.584s.8-1.432.923-1.373-.092.767-.479,1.584S401.57,297.2,401.447,297.14Z" transform="translate(-401.412 -294.179)" fill="#fafafa"/>
          </g>
          <g id="Group_1486" data-name="Group 1486" transform="translate(60.802 79.349)">
            <path id="Path_2488" data-name="Path 2488" d="M389.477,309.342c-.12.073-.558-.451-1.166-1.008s-1.161-.957-1.1-1.081.768.106,1.431.721S389.593,309.279,389.477,309.342Z" transform="translate(-387.209 -307.222)" fill="#fafafa"/>
          </g>
          <g id="Group_1487" data-name="Group 1487" transform="translate(61.677 93.067)">
            <path id="Path_2489" data-name="Path 2489" d="M390.226,321.993c0,.136-.468.246-1.045.246s-1.045-.11-1.045-.246.467-.246,1.045-.246S390.226,321.857,390.226,321.993Z" transform="translate(-388.136 -321.747)" fill="#fafafa"/>
          </g>
          <g id="Group_1488" data-name="Group 1488" transform="translate(75.229 87.217)">
            <path id="Path_2490" data-name="Path 2490" d="M402.517,318.339c-.119-.074.124-.662.305-1.4s.252-1.373.392-1.382.294.675.085,1.5S402.626,318.414,402.517,318.339Z" transform="translate(-402.486 -315.553)" fill="#fafafa"/>
          </g>
          <g id="Group_1489" data-name="Group 1489" transform="translate(85.54 90.855)">
            <path id="Path_2491" data-name="Path 2491" d="M414.544,322.524c-.128.044-.477-.617-.779-1.478s-.443-1.6-.314-1.639.477.616.779,1.477S414.672,322.479,414.544,322.524Z" transform="translate(-413.403 -319.405)" fill="#fafafa"/>
          </g>
          <g id="Group_1490" data-name="Group 1490" transform="translate(84.835 106.9)">
            <path id="Path_2492" data-name="Path 2492" d="M412.683,339.711c-.121-.062.17-.856.65-1.77s.965-1.6,1.086-1.542-.171.856-.651,1.771S412.8,339.774,412.683,339.711Z" transform="translate(-412.656 -336.395)" fill="#fafafa"/>
          </g>
          <g id="Group_1491" data-name="Group 1491" transform="translate(73.123 116.65)">
            <path id="Path_2493" data-name="Path 2493" d="M401.572,349.832c-.126.052-.513-.6-.866-1.461s-.537-1.6-.411-1.65.513.6.866,1.463S401.7,349.781,401.572,349.832Z" transform="translate(-400.255 -346.718)" fill="#fafafa"/>
          </g>
          <g id="Group_1492" data-name="Group 1492" transform="translate(61.155 123.195)">
            <path id="Path_2494" data-name="Path 2494" d="M389.325,353.895c0,.136-.39.247-.871.247s-.871-.111-.871-.247.389-.246.871-.246S389.325,353.759,389.325,353.895Z" transform="translate(-387.583 -353.649)" fill="#fafafa"/>
          </g>
          <g id="Group_1493" data-name="Group 1493" transform="translate(68.744 135.979)">
            <path id="Path_2495" data-name="Path 2495" d="M396.389,369.8c-.131.036-.394-.521-.586-1.242s-.243-1.334-.111-1.37.394.521.586,1.244S396.52,369.764,396.389,369.8Z" transform="translate(-395.618 -367.184)" fill="#fafafa"/>
          </g>
          <g id="Group_1494" data-name="Group 1494" transform="translate(61.114 131.792)">
            <path id="Path_2496" data-name="Path 2496" d="M387.581,364.5c-.117-.07.023-.517.311-1s.618-.814.734-.744-.023.516-.312,1S387.7,364.572,387.581,364.5Z" transform="translate(-387.539 -362.751)" fill="#fafafa"/>
          </g>
          <g id="Group_1495" data-name="Group 1495" transform="translate(60.506 147.301)">
            <path id="Path_2497" data-name="Path 2497" d="M387.37,382.134c-.135.016-.322-.635-.418-1.452s-.064-1.493.07-1.509.322.634.418,1.452S387.505,382.118,387.37,382.134Z" transform="translate(-386.896 -379.173)" fill="#fafafa"/>
          </g>
        </g>
      </g>
    </g>
  </g>
</svg>
