<svg xmlns="http://www.w3.org/2000/svg" width="122.326" height="46.527" viewBox="0 0 122.326 46.527">
  <g id="Group_7681" data-name="Group 7681" transform="translate(-3525 -7353)">
    <path id="Path_3705" data-name="Path 3705" d="M22.355,8.1a3.525,3.525,0,0,0,2.375-.838A2.865,2.865,0,0,0,25.708,5.1a3.013,3.013,0,0,0-.978-2.236,3.4,3.4,0,0,0-2.375-.838,3.106,3.106,0,0,0-2.305.908A2.9,2.9,0,0,0,19.142,5.1a2.9,2.9,0,0,0,.908,2.166A3.346,3.346,0,0,0,22.355,8.1Z" transform="translate(3525 7353)" opacity="0.3"/>
    <path id="Path_3706" data-name="Path 3706" d="M42.475,0V14.321h-.14a6.077,6.077,0,0,0-.908-1.048A7.662,7.662,0,0,0,39.96,12.3,10.386,10.386,0,0,0,38,11.527a9.573,9.573,0,0,0-2.515-.279,9.238,9.238,0,0,0-3.982.838,10.162,10.162,0,0,0-3.144,2.305,11.106,11.106,0,0,0-2.026,3.423,12,12,0,0,0-.7,4.192,11.738,11.738,0,0,0,.7,4.192,8.919,8.919,0,0,0,2.026,3.423,10.16,10.16,0,0,0,3.144,2.305,10.309,10.309,0,0,0,4.261.838,9.784,9.784,0,0,0,4.052-.838,6.636,6.636,0,0,0,3-2.725h.07v2.934h4.82V0Zm-.21,24.242A6.113,6.113,0,0,1,41.078,26.2a5.8,5.8,0,0,1-1.886,1.327,6.712,6.712,0,0,1-5.03,0A5.4,5.4,0,0,1,32.275,26.2a5.085,5.085,0,0,1-1.188-1.956,6.419,6.419,0,0,1-.419-2.305,6.706,6.706,0,0,1,.419-2.305,6.113,6.113,0,0,1,1.188-1.956,5.8,5.8,0,0,1,1.886-1.327,6.712,6.712,0,0,1,5.03,0,5.394,5.394,0,0,1,1.886,1.327,5.085,5.085,0,0,1,1.188,1.956,6.549,6.549,0,0,1,0,4.611Z" transform="translate(3525 7353)" opacity="0.3"/>
    <path id="Path_3707" data-name="Path 3707" d="M82.645,13.833l-5.03,5.03v9.291h-.14a6.708,6.708,0,0,0-.978-1.048,7.662,7.662,0,0,0-1.467-.978,10.379,10.379,0,0,0-1.956-.768,11.429,11.429,0,0,0-1.746-.28L60.778,35.769a12.006,12.006,0,0,0,.7,4.192,9.436,9.436,0,0,0,5.17,5.659,10.21,10.21,0,0,0,4.192.838,9.786,9.786,0,0,0,4.052-.838,6.156,6.156,0,0,0,2.934-2.725h.07v3.074h4.82V13.833ZM77.405,38a6.114,6.114,0,0,1-1.188,1.956,5.143,5.143,0,0,1-1.886,1.327,5.777,5.777,0,0,1-2.515.489,5.988,5.988,0,0,1-2.515-.489,5.394,5.394,0,0,1-1.886-1.327A6.116,6.116,0,0,1,66.227,38a6.422,6.422,0,0,1-.419-2.305,6.708,6.708,0,0,1,.419-2.305,6.115,6.115,0,0,1,1.188-1.956A4.625,4.625,0,0,1,69.3,30.11a5.777,5.777,0,0,1,2.515-.489,5.988,5.988,0,0,1,2.515.489,5.392,5.392,0,0,1,1.886,1.327,6.113,6.113,0,0,1,1.188,1.956,6.708,6.708,0,0,1,.419,2.305A6.154,6.154,0,0,1,77.405,38Z" transform="translate(3525 7353)"/>
    <path id="Path_3708" data-name="Path 3708" d="M104.721,31.368a9.742,9.742,0,0,0-2.375-3.353,10.523,10.523,0,0,0-3.493-2.166,12.542,12.542,0,0,0-4.331-.768,12.844,12.844,0,0,0-4.331.768A10.52,10.52,0,0,0,86.7,28.014a10.767,10.767,0,0,0-2.375,3.353,11.973,11.973,0,0,0,0,8.8A9.74,9.74,0,0,0,86.7,43.523a10.52,10.52,0,0,0,3.493,2.166,12.542,12.542,0,0,0,4.331.768,12.844,12.844,0,0,0,4.331-.768,10.523,10.523,0,0,0,3.493-2.166,10.771,10.771,0,0,0,2.375-3.353,11.229,11.229,0,0,0,.838-4.4A9.188,9.188,0,0,0,104.721,31.368ZM100.11,38a6.109,6.109,0,0,1-1.188,1.956,4.625,4.625,0,0,1-1.886,1.327,5.777,5.777,0,0,1-2.515.489,5.987,5.987,0,0,1-2.515-.489A5.394,5.394,0,0,1,90.12,39.96,6.113,6.113,0,0,1,88.933,38a6.421,6.421,0,0,1-.419-2.305,6.708,6.708,0,0,1,.419-2.305,5.085,5.085,0,0,1,1.188-1.956,4.626,4.626,0,0,1,1.886-1.327,5.777,5.777,0,0,1,2.515-.489,5.988,5.988,0,0,1,2.515.489,5.393,5.393,0,0,1,1.886,1.327,6.109,6.109,0,0,1,1.188,1.956,6.694,6.694,0,0,1,.419,2.305A6.142,6.142,0,0,1,100.11,38Z" transform="translate(3525 7353)"/>
    <path id="Path_3709" data-name="Path 3709" d="M121.418,36.747a5.613,5.613,0,0,0-2.026-1.816,10.932,10.932,0,0,0-2.655-.978c-.908-.209-1.746-.419-2.654-.629a9.675,9.675,0,0,1-2.026-.7,1.438,1.438,0,0,1-.839-1.327,1.807,1.807,0,0,1,.978-1.677,4.137,4.137,0,0,1,2.026-.489,4.614,4.614,0,0,1,3.982,2.1l3.423-3.074a6.4,6.4,0,0,0-3.213-2.375,11.506,11.506,0,0,0-4.052-.7,14.135,14.135,0,0,0-3,.349,8.342,8.342,0,0,0-2.655,1.188,6.244,6.244,0,0,0-1.816,2.026,5.7,5.7,0,0,0-.7,2.934,5.019,5.019,0,0,0,.839,3.074,5.414,5.414,0,0,0,2.026,1.746,10.808,10.808,0,0,0,2.654.908,24.737,24.737,0,0,1,2.655.629,6.806,6.806,0,0,1,2.026.838,1.675,1.675,0,0,1,.838,1.537,1.713,1.713,0,0,1-.349,1.048,2.986,2.986,0,0,1-.838.769,3.092,3.092,0,0,1-1.118.419,6.967,6.967,0,0,1-1.118.14,4.947,4.947,0,0,1-2.724-.7,8.5,8.5,0,0,1-2.1-1.816l-3.423,3.214a8,8,0,0,0,3.562,2.445,14.537,14.537,0,0,0,4.4.7,15.035,15.035,0,0,0,3-.279l5.8-5.8V40.03A5.926,5.926,0,0,0,121.418,36.747Z" transform="translate(3525 7353)"/>
    <path id="Path_3710" data-name="Path 3710" d="M14.81,12.016,9.361,26.128h-.07L3.912,12.016,0,15.928,6.637,32.136h5.379l7.755-19.561V32.136h5.1V12.016Z" transform="translate(3525 7353)" opacity="0.3"/>
    <path id="Path_3711" data-name="Path 3711" d="M67.066,23.962V20.469A14.616,14.616,0,0,0,67,18.792a9.437,9.437,0,0,0-.279-1.956,8.017,8.017,0,0,0-.769-2.026,5.147,5.147,0,0,0-1.537-1.747,8.888,8.888,0,0,0-2.445-1.257,11.152,11.152,0,0,0-3.633-.489,15.278,15.278,0,0,0-4.681.768A9.231,9.231,0,0,0,49.671,14.6l2.655,2.655a7.284,7.284,0,0,1,2.445-1.537,8.5,8.5,0,0,1,3-.559,5.764,5.764,0,0,1,3.353.978A3.251,3.251,0,0,1,62.455,19v.559H61.2c-.838,0-1.746,0-2.724.07s-1.886.14-2.864.279a15.534,15.534,0,0,0-2.725.7,6.127,6.127,0,0,0-2.305,1.257,5.5,5.5,0,0,0-1.607,1.956,5.884,5.884,0,0,0-.559,2.794,5.331,5.331,0,0,0,.629,2.655,5.456,5.456,0,0,0,1.677,1.886,6.777,6.777,0,0,0,2.375,1.118,9.127,9.127,0,0,0,2.725.349,8.864,8.864,0,0,0,3.074-.489Zm-4.89.21a4.589,4.589,0,0,1-1.257,3.423,5.263,5.263,0,0,1-3.912,1.257,7.694,7.694,0,0,1-1.257-.14,2.726,2.726,0,0,1-1.118-.489,2.409,2.409,0,0,1-.838-.838,2.165,2.165,0,0,1-.349-1.188,2.032,2.032,0,0,1,.838-1.747,5.616,5.616,0,0,1,1.956-.908,13.749,13.749,0,0,1,2.445-.419c.908-.07,1.677-.07,2.375-.07h1.048v1.118Z" transform="translate(3525 7353)" opacity="0.3"/>
  </g>
</svg>
