<svg xmlns="http://www.w3.org/2000/svg" xmlns:xlink="http://www.w3.org/1999/xlink" width="300" height="174.667" viewBox="0 0 300 174.667">
  <defs>
    <clipPath id="clip-path">
      <rect id="Rectangle_3073" data-name="Rectangle 3073" width="300" height="174.667" fill="none"/>
    </clipPath>
    <clipPath id="clip-path-4">
      <rect id="Rectangle_3066" data-name="Rectangle 3066" width="9.954" height="13.181" fill="none"/>
    </clipPath>
    <clipPath id="clip-path-5">
      <rect id="Rectangle_3067" data-name="Rectangle 3067" width="21.502" height="9.101" fill="none"/>
    </clipPath>
    <clipPath id="clip-path-6">
      <rect id="Rectangle_3068" data-name="Rectangle 3068" width="98.521" height="61.406" fill="none"/>
    </clipPath>
    <clipPath id="clip-path-7">
      <rect id="Rectangle_3069" data-name="Rectangle 3069" width="32.668" height="27.747" fill="none"/>
    </clipPath>
  </defs>
  <g id="Group_7905" data-name="Group 7905" transform="translate(-959 -2880)">
    <g id="Group_7904" data-name="Group 7904" transform="translate(959 2880)">
      <g id="Group_7903" data-name="Group 7903" clip-path="url(#clip-path)">
        <g id="Group_7884" data-name="Group 7884">
          <g id="Group_7883" data-name="Group 7883" clip-path="url(#clip-path)">
            <path id="Path_3974" data-name="Path 3974" d="M591.37,150.244H564.7a3.305,3.305,0,0,1-3.337-3.273v-36.2A3.305,3.305,0,0,1,564.7,107.5h16.913l13.093,13.234v26.241a3.305,3.305,0,0,1-3.337,3.273" transform="translate(-313.972 -61.034)" fill="#ebebeb"/>
            <path id="Path_3975" data-name="Path 3975" d="M607.314,107.5v10.189a3.074,3.074,0,0,0,3.1,3.044h9.989Z" transform="translate(-339.672 -61.034)" fill="#f5f5f5"/>
            <path id="Path_3976" data-name="Path 3976" d="M607.622,133.138a3.388,3.388,0,0,0,2.737,3.284,3.274,3.274,0,0,0,.328.073c1.3.229,9.891,1.727,9.891,1.533V135.29h-9.989s-2.494-.084-2.967-2.152" transform="translate(-339.844 -75.593)" fill="#e0e0e0"/>
            <path id="Path_3977" data-name="Path 3977" d="M591.223,150.1c0-.016.2,0,.576-.067a3.372,3.372,0,0,0,1.513-.692,3.215,3.215,0,0,0,1.194-2.308c.017-1.055,0-2.28,0-3.648-.01-5.482-.023-13.324-.04-22.8l.027.065-13.1-13.225.079.033-9.76,0h-6.4a8.7,8.7,0,0,0-1.281.046,3.233,3.233,0,0,0-2.092,1.28,3.079,3.079,0,0,0-.59,1.609c-.024.58-.007,1.186-.012,1.776q0,1.778,0,3.531,0,3.506,0,6.9c0,4.526,0,8.892-.007,13.051q0,3.119,0,6.078,0,1.478,0,2.911,0,.717,0,1.422a7.364,7.364,0,0,0,.062,1.377,3.191,3.191,0,0,0,1.51,2.1,3.257,3.257,0,0,0,1.23.426,12.6,12.6,0,0,0,1.312.034l5.034.007,15.191.036,4.13.021,1.074.011c.242,0,.366.012.366.012s-.124.008-.366.012l-1.074.011-4.13.021-15.191.036-5.034.007a12.571,12.571,0,0,1-1.337-.032,3.445,3.445,0,0,1-1.3-.447,3.377,3.377,0,0,1-1.6-2.222,7.512,7.512,0,0,1-.068-1.413q0-.705,0-1.422,0-1.433,0-2.911,0-2.956,0-6.078c0-4.159,0-8.525-.007-13.051q0-3.4,0-6.9,0-1.753,0-3.531c.005-.6-.012-1.18.012-1.791a3.307,3.307,0,0,1,.632-1.724,3.463,3.463,0,0,1,2.242-1.371,8.888,8.888,0,0,1,1.318-.049h6.4l9.76,0h.047l.032.033,13.083,13.244.027.028v.038c-.017,9.475-.031,17.317-.041,22.8-.009,1.37,0,2.587-.023,3.653a3.272,3.272,0,0,1-1.243,2.347,3.342,3.342,0,0,1-1.545.676,2.549,2.549,0,0,1-.434.038c-.1,0-.147,0-.147,0" transform="translate(-313.825 -60.886)" fill="#e0e0e0"/>
            <path id="Path_3978" data-name="Path 3978" d="M620.26,120.73a1.121,1.121,0,0,1-.256.022l-.736.021-2.706.035-4.013.023-2.373,0a3.234,3.234,0,0,1-2.32-1.068,3.135,3.135,0,0,1-.654-1.134,3.586,3.586,0,0,1-.147-1.25c0-.805,0-1.583.007-2.324.009-1.474.017-2.806.024-3.936.015-1.1.028-2,.037-2.654.009-.293.016-.532.022-.721a1.04,1.04,0,0,1,.023-.252,1.055,1.055,0,0,1,.023.252c.006.19.013.428.022.721.009.657.021,1.556.037,2.654.007,1.13.015,2.462.025,3.936,0,.742,0,1.519.007,2.324a2.985,2.985,0,0,0,2.9,3.231l2.366.011,4.013.025,2.706.036.736.021a1.13,1.13,0,0,1,.256.023" transform="translate(-339.526 -61.034)" fill="#e0e0e0"/>
            <path id="Path_3979" data-name="Path 3979" d="M588.314,128.384c0,.062-3.15.113-7.035.113s-7.036-.051-7.036-.113,3.149-.112,7.036-.112,7.035.05,7.035.112" transform="translate(-321.176 -72.831)" fill="#e0e0e0"/>
            <path id="Path_3980" data-name="Path 3980" d="M594.989,140.143c0,.062-4.645.112-10.373.112s-10.374-.05-10.374-.112,4.644-.112,10.374-.112,10.373.05,10.373.112" transform="translate(-321.176 -79.507)" fill="#e0e0e0"/>
            <path id="Path_3981" data-name="Path 3981" d="M594.989,151.9c0,.062-4.645.112-10.373.112s-10.374-.05-10.374-.112,4.644-.112,10.374-.112,10.373.05,10.373.112" transform="translate(-321.176 -86.184)" fill="#e0e0e0"/>
            <path id="Path_3982" data-name="Path 3982" d="M594.989,163.663c0,.062-4.645.112-10.373.112s-10.374-.05-10.374-.112,4.644-.112,10.374-.112,10.373.05,10.373.112" transform="translate(-321.176 -92.861)" fill="#e0e0e0"/>
            <path id="Path_3983" data-name="Path 3983" d="M594.989,175.422c0,.062-4.645.112-10.373.112s-10.374-.05-10.374-.112,4.644-.112,10.374-.112,10.373.05,10.373.112" transform="translate(-321.176 -99.538)" fill="#e0e0e0"/>
            <path id="Path_3984" data-name="Path 3984" d="M594.989,189.926c0,.062-4.645.112-10.373.112s-10.374-.05-10.374-.112,4.644-.112,10.374-.112,10.373.05,10.373.112" transform="translate(-321.176 -107.773)" fill="#e0e0e0"/>
            <path id="Path_3985" data-name="Path 3985" d="M568.585,176.961H549.655a1.843,1.843,0,0,1-1.861-1.824V168.8a1.843,1.843,0,0,1,1.861-1.825h18.931a1.843,1.843,0,0,1,1.86,1.824v6.333a1.843,1.843,0,0,1-1.86,1.825" transform="translate(-306.383 -94.808)" fill="#e0e0e0"/>
            <path id="Path_3986" data-name="Path 3986" d="M553.749,174.511H555.5a1.9,1.9,0,1,1,0,3.772h-1.747Zm1.7,3.055a1.173,1.173,0,1,0,0-2.338h-.813v2.338Z" transform="translate(-309.713 -99.084)" fill="#fff"/>
            <path id="Path_3987" data-name="Path 3987" d="M563.495,176.312a2.11,2.11,0,1,1,2.1,1.951,1.974,1.974,0,0,1-2.1-1.951m3.307,0a1.2,1.2,0,1,0-1.2,1.207,1.161,1.161,0,0,0,1.2-1.207" transform="translate(-315.164 -98.999)" fill="#fff"/>
            <path id="Path_3988" data-name="Path 3988" d="M574.015,176.312a1.959,1.959,0,0,1,2.088-1.951,2,2,0,0,1,1.582.668l-.571.517a1.247,1.247,0,0,0-.967-.442,1.207,1.207,0,1,0,0,2.414,1.236,1.236,0,0,0,.967-.447l.571.517a1.993,1.993,0,0,1-1.587.674,1.957,1.957,0,0,1-2.082-1.951" transform="translate(-321.048 -98.999)" fill="#fff"/>
            <path id="Path_3989" data-name="Path 3989" d="M585.39,178.282l-.929-1.309-.912,1.309h-1.022l1.423-1.919L582.6,174.51h1.011l.885,1.224.868-1.224h.961l-1.34,1.821,1.434,1.951Z" transform="translate(-325.809 -99.084)" fill="#fff"/>
            <path id="Path_3990" data-name="Path 3990" d="M478.263,313.1l-20.195,34.639-39.955.565a2.4,2.4,0,0,0-2.38,2.242l40.632.112,1.527-.051,50.876.1,10.281-17.389,13.133-18.46a1.82,1.82,0,0,0-1.531-2.864l-50.784.19a1.863,1.863,0,0,0-1.605.917" transform="translate(-232.521 -177.143)" fill="#ebebeb"/>
            <path id="Path_3991" data-name="Path 3991" d="M588.507,314.693a.9.9,0,0,1-.243.025l-.715.025-2.747.047-10.1.078-33.332.073H538.94a2.015,2.015,0,0,0-1.85.857l-2.262,4-4.289,7.592-7.287,12.842-4.951,8.636-1.368,2.336-.367.6a.868.868,0,0,1-.14.2.842.842,0,0,1,.1-.221l.323-.625,1.286-2.382,4.812-8.713,7.193-12.893,4.263-7.606,2.274-4.033a2.528,2.528,0,0,1,2.268-1.08h2.426l33.332.073,10.1.079,2.747.046.715.024a.906.906,0,0,1,.243.026" transform="translate(-288.837 -178.533)" fill="#e0e0e0"/>
            <path id="Path_3992" data-name="Path 3992" d="M597.877,354.19a2.219,2.219,0,0,0-.048,3.167,2.325,2.325,0,0,0,3.207-.372,2.219,2.219,0,0,0,.047-3.167,2.324,2.324,0,0,0-3.207.372" transform="translate(-334.009 -200.616)" fill="#fff"/>
            <path id="Path_3993" data-name="Path 3993" d="M10.827,316.063v20.715H7.3v2.248h3.526v13.865h65.92V340.275H71.864v-2.748h4.883v-4.122h2.17v-1.874H76.34V316.063Z" transform="translate(-4.083 -179.455)" fill="#f5f5f5"/>
            <path id="Path_3994" data-name="Path 3994" d="M125.161,316.123V352.66h17.505V340.044h-4.883v-2.517l4.883.085v-4.122l2.212,0-.042-2.13-2.577-.062V316.063Z" transform="translate(-70.003 -179.455)" fill="#e0e0e0"/>
            <path id="Path_3995" data-name="Path 3995" d="M60.37,368.2c0,.127-11.928.229-26.639.229s-26.642-.1-26.642-.229,11.926-.23,26.642-.23,26.639.1,26.639.23" transform="translate(-3.965 -208.929)" fill="#e0e0e0"/>
            <path id="Path_3996" data-name="Path 3996" d="M60.37,363.333c0,.127-11.928.229-26.639.229s-26.642-.1-26.642-.229,11.926-.229,26.642-.229,26.639.1,26.639.229" transform="translate(-3.965 -206.164)" fill="#e0e0e0"/>
            <path id="Path_3997" data-name="Path 3997" d="M68.135,350.232c0,.127-11.928.229-26.639.229s-26.642-.1-26.642-.229S26.78,350,41.5,350s26.639.1,26.639.229" transform="translate(-8.308 -198.725)" fill="#e0e0e0"/>
            <path id="Path_3998" data-name="Path 3998" d="M68.881,385.935c0,.127-11.928.23-26.639.23s-26.642-.1-26.642-.23,11.926-.229,26.642-.229,26.639.1,26.639.229" transform="translate(-8.725 -218.997)" fill="#e0e0e0"/>
            <path id="Path_3999" data-name="Path 3999" d="M477.243,57.192H451.191a3.228,3.228,0,0,1-3.259-3.2V18.63a3.229,3.229,0,0,1,3.26-3.2h16.522L480.5,28.36V53.995a3.229,3.229,0,0,1-3.26,3.2" transform="translate(-250.529 -8.762)" fill="#ebebeb"/>
            <path id="Path_4000" data-name="Path 4000" d="M492.819,15.433v9.954a3,3,0,0,0,3.032,2.974h9.758Z" transform="translate(-275.635 -8.763)" fill="#f5f5f5"/>
            <path id="Path_4001" data-name="Path 4001" d="M493.12,40.482a3.31,3.31,0,0,0,2.674,3.207,3.146,3.146,0,0,0,.321.071c1.274.223,9.662,1.687,9.662,1.5V42.583h-9.758s-2.436-.082-2.9-2.1" transform="translate(-275.803 -22.985)" fill="#e0e0e0"/>
            <path id="Path_4002" data-name="Path 4002" d="M477.1,57.043c0-.015.2,0,.563-.066a3.287,3.287,0,0,0,1.478-.676,3.141,3.141,0,0,0,1.167-2.254c.016-1.031,0-2.228,0-3.564-.01-5.355-.024-13.016-.041-22.272l.027.065-12.8-12.919.079.033-9.534,0H451.78a8.456,8.456,0,0,0-1.25.045,3.156,3.156,0,0,0-2.043,1.249,3.008,3.008,0,0,0-.576,1.571c-.023.566-.007,1.159-.012,1.734q0,1.737,0,3.45,0,3.425,0,6.744c0,4.422,0,8.687-.007,12.75q0,3.047,0,5.937,0,1.444,0,2.844,0,.7,0,1.389a7.176,7.176,0,0,0,.06,1.344,3.117,3.117,0,0,0,1.474,2.054,3.188,3.188,0,0,0,1.2.416,12.247,12.247,0,0,0,1.282.033l4.918.007,14.84.036,4.035.021,1.049.011c.236,0,.357.012.357.012s-.121.008-.357.012l-1.049.011-4.035.021-14.84.036-4.918.007a12.337,12.337,0,0,1-1.306-.032,3.371,3.371,0,0,1-1.271-.437,3.3,3.3,0,0,1-1.566-2.172,7.351,7.351,0,0,1-.067-1.381q0-.689,0-1.389,0-1.4,0-2.844,0-2.887,0-5.937c0-4.063,0-8.328-.007-12.75q0-3.316,0-6.744,0-1.713,0-3.45c.005-.582-.012-1.152.012-1.75a3.229,3.229,0,0,1,.618-1.685,3.384,3.384,0,0,1,2.192-1.341,8.715,8.715,0,0,1,1.288-.048h6.253l9.534,0h.047l.033.033,12.779,12.938.027.028v.038c-.017,9.255-.031,16.917-.041,22.272-.009,1.338,0,2.527-.023,3.569a3.2,3.2,0,0,1-1.214,2.293,3.263,3.263,0,0,1-1.509.66,2.467,2.467,0,0,1-.424.038c-.1,0-.144,0-.144,0" transform="translate(-250.382 -8.614)" fill="#e0e0e0"/>
            <path id="Path_4003" data-name="Path 4003" d="M505.463,28.36a1.042,1.042,0,0,1-.251.022l-.719.021-2.643.035-3.92.023-2.318,0a3.159,3.159,0,0,1-2.268-1.044,3.057,3.057,0,0,1-.64-1.109,3.511,3.511,0,0,1-.143-1.221c0-.787,0-1.546.007-2.271.009-1.44.017-2.741.024-3.845.015-1.071.028-1.949.037-2.592.009-.286.016-.519.022-.7a.994.994,0,0,1,.023-.246,1.042,1.042,0,0,1,.023.246c.006.186.013.419.022.7.009.644.021,1.521.037,2.592.007,1.1.015,2.405.024,3.845,0,.725,0,1.484.007,2.271a2.914,2.914,0,0,0,2.832,3.153l2.312.012,3.92.025,2.643.036.719.022a1.071,1.071,0,0,1,.251.022" transform="translate(-275.489 -8.762)" fill="#e0e0e0"/>
            <path id="Path_4004" data-name="Path 4004" d="M474.257,35.834c0,.062-3.077.112-6.872.112s-6.873-.05-6.873-.112,3.077-.112,6.873-.112,6.872.05,6.872.112" transform="translate(-257.565 -20.282)" fill="#e0e0e0"/>
            <path id="Path_4005" data-name="Path 4005" d="M480.779,47.321c0,.062-4.537.112-10.133.112s-10.134-.05-10.134-.112,4.537-.112,10.134-.112,10.133.05,10.133.112" transform="translate(-257.565 -26.804)" fill="#e0e0e0"/>
            <path id="Path_4006" data-name="Path 4006" d="M480.779,58.809c0,.062-4.537.112-10.133.112s-10.134-.05-10.134-.112,4.537-.112,10.134-.112,10.133.05,10.133.112" transform="translate(-257.565 -33.327)" fill="#e0e0e0"/>
            <path id="Path_4007" data-name="Path 4007" d="M480.779,70.3c0,.062-4.537.112-10.133.112s-10.134-.05-10.134-.112,4.537-.112,10.134-.112,10.133.05,10.133.112" transform="translate(-257.565 -39.85)" fill="#e0e0e0"/>
            <path id="Path_4008" data-name="Path 4008" d="M480.779,81.785c0,.062-4.537.112-10.133.112s-10.134-.05-10.134-.112,4.537-.112,10.134-.112,10.133.05,10.133.112" transform="translate(-257.565 -46.373)" fill="#e0e0e0"/>
            <path id="Path_4009" data-name="Path 4009" d="M480.779,95.953c0,.062-4.537.112-10.133.112s-10.134-.05-10.134-.112,4.537-.112,10.134-.112,10.133.05,10.133.112" transform="translate(-257.565 -54.417)" fill="#e0e0e0"/>
            <path id="Path_4010" data-name="Path 4010" d="M454.943,83.291H436.536a1.843,1.843,0,0,1-1.86-1.824v-6.1a1.843,1.843,0,0,1,1.86-1.825h18.407a1.843,1.843,0,0,1,1.86,1.824v6.1a1.843,1.843,0,0,1-1.86,1.825" transform="translate(-243.115 -41.755)" fill="#e0e0e0"/>
            <path id="Path_4011" data-name="Path 4011" d="M450.172,82.236c0,.821-.628,1.332-1.631,1.332h-.757v1.016h-.869V80.9h1.626c1,0,1.631.51,1.631,1.337m-.88,0c0-.4-.268-.642-.8-.642h-.708v1.278h.708c.531,0,.8-.237.8-.637" transform="translate(-249.961 -45.933)" fill="#fff"/>
            <path id="Path_4012" data-name="Path 4012" d="M455.706,80.9h1.707a1.855,1.855,0,1,1,0,3.684h-1.707Zm1.664,2.984a1.146,1.146,0,1,0,0-2.284h-.794v2.284Z" transform="translate(-254.878 -45.933)" fill="#fff"/>
            <path id="Path_4013" data-name="Path 4013" d="M466.633,81.583v.974h1.739v.684h-1.739v1.342h-.87V80.9H468.6v.684Z" transform="translate(-260.503 -45.933)" fill="#fff"/>
            <rect id="Rectangle_3054" data-name="Rectangle 3054" width="14.075" height="23.79" transform="translate(95.13 9.143)" fill="#ebebeb"/>
            <rect id="Rectangle_3055" data-name="Rectangle 3055" width="11.114" height="29.698" transform="translate(55.867 3.614)" fill="#ebebeb"/>
            <path id="Path_4014" data-name="Path 4014" d="M126.478,13.108a48.746,48.746,0,0,1,5.676-.166,48.744,48.744,0,0,1,5.676.166,48.859,48.859,0,0,1-5.676.166,48.861,48.861,0,0,1-5.676-.166" transform="translate(-70.739 -7.348)" fill="#fafafa"/>
            <path id="Path_4015" data-name="Path 4015" d="M127.874,16.366a43.721,43.721,0,0,1,5.368-.166,43.715,43.715,0,0,1,5.368.166,43.612,43.612,0,0,1-5.368.166,43.618,43.618,0,0,1-5.368-.166" transform="translate(-71.52 -9.198)" fill="#fafafa"/>
            <path id="Path_4016" data-name="Path 4016" d="M138.445,40.44c-.093,0-.169-3.934-.169-8.785s.075-8.787.169-8.787.169,3.933.169,8.787-.075,8.785-.169,8.785" transform="translate(-77.338 -12.984)" fill="#fafafa"/>
            <path id="Path_4017" data-name="Path 4017" d="M126.77,69.591a44.8,44.8,0,0,1,5.44-.166,44.793,44.793,0,0,1,5.441.166,44.9,44.9,0,0,1-5.441.166,44.9,44.9,0,0,1-5.44-.166" transform="translate(-70.903 -39.418)" fill="#fafafa"/>
            <path id="Path_4018" data-name="Path 4018" d="M126.77,72.54a47.073,47.073,0,0,1,5.577-.166,47.076,47.076,0,0,1,5.578.166,47.075,47.075,0,0,1-5.578.166,47.072,47.072,0,0,1-5.577-.166" transform="translate(-70.903 -41.093)" fill="#fafafa"/>
            <rect id="Rectangle_3056" data-name="Rectangle 3056" width="8.929" height="32.909" transform="translate(66.974 0.402)" fill="#e0e0e0"/>
            <path id="Path_4019" data-name="Path 4019" d="M151.844,35.9a8.681,8.681,0,0,1,1.381.938l3.221,2.4,3.217,2.4a8.521,8.521,0,0,1,1.29,1.055,8.043,8.043,0,0,1-1.431-.865c-.857-.572-2.021-1.39-3.281-2.33s-2.374-1.82-3.166-2.477a7.915,7.915,0,0,1-1.233-1.121" transform="translate(-84.926 -20.38)" fill="#fafafa"/>
            <path id="Path_4020" data-name="Path 4020" d="M151.755,23.976a51.111,51.111,0,0,1,4.569,3.622,50.818,50.818,0,0,1,4.349,3.874,51.132,51.132,0,0,1-4.569-3.622,50.8,50.8,0,0,1-4.349-3.873" transform="translate(-84.876 -13.612)" fill="#fafafa"/>
            <rect id="Rectangle_3057" data-name="Rectangle 3057" width="4.27" height="31.351" transform="translate(28.172 1.984)" fill="#ebebeb"/>
            <path id="Path_4021" data-name="Path 4021" d="M64.328,14.214a5.247,5.247,0,0,0,2,.2,5.249,5.249,0,0,0,2-.2,5.249,5.249,0,0,0-2-.2,5.247,5.247,0,0,0-2,.2" transform="translate(-35.979 -7.959)" fill="#fafafa"/>
            <path id="Path_4022" data-name="Path 4022" d="M64.13,12.635a5.248,5.248,0,0,0,2,.2,5.248,5.248,0,0,0,2-.2,5.248,5.248,0,0,0-2-.2,5.248,5.248,0,0,0-2,.2" transform="translate(-35.868 -7.062)" fill="#fafafa"/>
            <path id="Path_4023" data-name="Path 4023" d="M64.328,71.258a5.246,5.246,0,0,0,2,.2,5.249,5.249,0,0,0,2-.2,5.249,5.249,0,0,0-2-.2,5.247,5.247,0,0,0-2,.2" transform="translate(-35.979 -40.347)" fill="#fafafa"/>
            <path id="Path_4024" data-name="Path 4024" d="M64.13,69.679a5.248,5.248,0,0,0,2,.2,5.248,5.248,0,0,0,2-.2,5.248,5.248,0,0,0-2-.2,5.248,5.248,0,0,0-2,.2" transform="translate(-35.868 -39.451)" fill="#fafafa"/>
            <path id="Path_4025" data-name="Path 4025" d="M68.81,39.395a80.157,80.157,0,0,0,.2-8.019,80.146,80.146,0,0,0-.2-8.02,80.148,80.148,0,0,0-.2,8.02,80.158,80.158,0,0,0,.2,8.019" transform="translate(-38.373 -13.261)" fill="#fafafa"/>
            <rect id="Rectangle_3058" data-name="Rectangle 3058" width="8.541" height="31.351" transform="translate(47.309 1.783)" fill="#e0e0e0"/>
            <path id="Path_4026" data-name="Path 4026" d="M114.4,35.982a.7.7,0,0,0,.1-.17c.061-.115.143-.29.244-.522a8.98,8.98,0,0,0,.62-2.126,5.442,5.442,0,0,0-.5-3.449,4.624,4.624,0,0,0-1.514-1.638,3.57,3.57,0,0,0-2.46-.57,2.615,2.615,0,0,0-1.272.576,1.637,1.637,0,0,0-.612,1.322,1.891,1.891,0,0,0,.731,1.329,2.679,2.679,0,0,0,1.457.606,3.922,3.922,0,0,0,3.027-1.081,4.738,4.738,0,0,0,1.5-3.013,7.859,7.859,0,0,0-.442-3.5,6.447,6.447,0,0,0-2.094-3.056,3.475,3.475,0,0,0-1.844-.712,2.422,2.422,0,0,0-1.918.667,1.515,1.515,0,0,0-.439.981,1.769,1.769,0,0,0,.294,1.025A2.774,2.774,0,0,0,111,23.808a4.069,4.069,0,0,0,3.762-1.236,6.1,6.1,0,0,0,1.465-3.529,8.528,8.528,0,0,0-.368-3.659,5.07,5.07,0,0,0-2.206-2.783,3.845,3.845,0,0,0-3.393-.349,1.759,1.759,0,0,0-1.1,1.279,1.993,1.993,0,0,0,.389,1.579,2.7,2.7,0,0,0,2.877.747,4.973,4.973,0,0,0,2.27-1.581,7.036,7.036,0,0,0,1.7-4.3,6.878,6.878,0,0,0-2.132-5.183,5.142,5.142,0,0,0-.444-.375.712.712,0,0,0-.165-.111,8,8,0,0,1,1.812,2.331,6.715,6.715,0,0,1,.7,3.328,6.84,6.84,0,0,1-1.694,4.127,4.7,4.7,0,0,1-2.142,1.47,2.385,2.385,0,0,1-2.523-.652,1.668,1.668,0,0,1-.317-1.318,1.412,1.412,0,0,1,.907-1.026,3.485,3.485,0,0,1,3.061.343,4.7,4.7,0,0,1,2.034,2.594,8.192,8.192,0,0,1,.339,3.5,5.729,5.729,0,0,1-1.369,3.307,3.672,3.672,0,0,1-3.376,1.116,2.378,2.378,0,0,1-1.473-.977,1.183,1.183,0,0,1,.095-1.529,2.026,2.026,0,0,1,1.6-.548A3.069,3.069,0,0,1,112.95,21a6.088,6.088,0,0,1,1.968,2.869,7.521,7.521,0,0,1,.438,3.333,4.387,4.387,0,0,1-1.375,2.8,3.58,3.58,0,0,1-2.75,1.01,2.028,2.028,0,0,1-1.914-1.626,1.341,1.341,0,0,1,.5-1.088,2.333,2.333,0,0,1,1.122-.52,3.309,3.309,0,0,1,2.274.506,4.408,4.408,0,0,1,1.456,1.534,5.339,5.339,0,0,1,.541,3.322,9.809,9.809,0,0,1-.541,2.117c-.175.472-.283.714-.268.721" transform="translate(-60.956 -2.446)" fill="#fafafa"/>
            <rect id="Rectangle_3059" data-name="Rectangle 3059" width="14.818" height="28.551" transform="translate(32.374 4.596)" fill="#fafafa"/>
            <path id="Path_4027" data-name="Path 4027" d="M74.615,21.351a65.39,65.39,0,0,0,7.171.2,65.394,65.394,0,0,0,7.172-.2,65.394,65.394,0,0,0-7.172-.2,65.39,65.39,0,0,0-7.171.2" transform="translate(-41.732 -12.011)" fill="#e0e0e0"/>
            <path id="Path_4028" data-name="Path 4028" d="M74.2,26.358a63.665,63.665,0,0,0,7.08.2,63.652,63.652,0,0,0,7.08-.2,63.722,63.722,0,0,0-7.08-.2,63.735,63.735,0,0,0-7.08.2" transform="translate(-41.499 -14.854)" fill="#e0e0e0"/>
            <path id="Path_4029" data-name="Path 4029" d="M73.118,68.965a70.658,70.658,0,0,0,7.455.2,70.655,70.655,0,0,0,7.456-.2,70.656,70.656,0,0,0-7.456-.2,70.66,70.66,0,0,0-7.455.2" transform="translate(-40.895 -39.045)" fill="#e0e0e0"/>
            <path id="Path_4030" data-name="Path 4030" d="M73.572,63.079a67.008,67.008,0,0,0,7.264.2,67.006,67.006,0,0,0,7.264-.2,67.076,67.076,0,0,0-7.264-.2,67.078,67.078,0,0,0-7.264.2" transform="translate(-41.149 -35.703)" fill="#e0e0e0"/>
            <rect id="Rectangle_3060" data-name="Rectangle 3060" width="8.541" height="31.35" transform="translate(75.896 1.582)" fill="#ebebeb"/>
            <path id="Path_4031" data-name="Path 4031" d="M179.269,35.517a.72.72,0,0,0,.1-.17c.061-.115.143-.29.243-.522a8.937,8.937,0,0,0,.62-2.126,5.442,5.442,0,0,0-.5-3.449,4.624,4.624,0,0,0-1.514-1.638,3.57,3.57,0,0,0-2.46-.57,2.615,2.615,0,0,0-1.272.576,1.636,1.636,0,0,0-.612,1.322,1.888,1.888,0,0,0,.731,1.329,2.673,2.673,0,0,0,1.456.607,3.922,3.922,0,0,0,3.027-1.081,4.738,4.738,0,0,0,1.5-3.013,7.865,7.865,0,0,0-.442-3.5,6.449,6.449,0,0,0-2.094-3.056,3.465,3.465,0,0,0-1.844-.712,2.422,2.422,0,0,0-1.919.668,1.512,1.512,0,0,0-.438.981,1.766,1.766,0,0,0,.294,1.025,2.774,2.774,0,0,0,1.723,1.154,4.07,4.07,0,0,0,3.762-1.236,6.107,6.107,0,0,0,1.465-3.529,8.535,8.535,0,0,0-.368-3.659,5.072,5.072,0,0,0-2.206-2.783,3.844,3.844,0,0,0-3.393-.349,1.759,1.759,0,0,0-1.1,1.279,1.993,1.993,0,0,0,.389,1.579,2.7,2.7,0,0,0,2.877.747,4.97,4.97,0,0,0,2.27-1.581,7.033,7.033,0,0,0,1.7-4.3,6.876,6.876,0,0,0-2.131-5.182,5.226,5.226,0,0,0-.444-.375.723.723,0,0,0-.165-.111,8,8,0,0,1,1.812,2.331,6.715,6.715,0,0,1,.7,3.328,6.843,6.843,0,0,1-1.695,4.127,4.7,4.7,0,0,1-2.142,1.47,2.386,2.386,0,0,1-2.523-.652,1.67,1.67,0,0,1-.317-1.318,1.412,1.412,0,0,1,.907-1.026,3.485,3.485,0,0,1,3.061.343,4.7,4.7,0,0,1,2.034,2.594,8.192,8.192,0,0,1,.339,3.5,5.735,5.735,0,0,1-1.369,3.307,3.673,3.673,0,0,1-3.376,1.116,2.378,2.378,0,0,1-1.473-.977,1.184,1.184,0,0,1,.095-1.529,2.027,2.027,0,0,1,1.6-.547,3.069,3.069,0,0,1,1.633.631,6.086,6.086,0,0,1,1.968,2.869,7.527,7.527,0,0,1,.438,3.333,4.387,4.387,0,0,1-1.375,2.8,3.58,3.58,0,0,1-2.75,1.01,2.028,2.028,0,0,1-1.913-1.626,1.339,1.339,0,0,1,.5-1.088,2.331,2.331,0,0,1,1.122-.52,3.31,3.31,0,0,1,2.273.505,4.411,4.411,0,0,1,1.456,1.534,5.339,5.339,0,0,1,.541,3.322,9.787,9.787,0,0,1-.54,2.117c-.175.472-.283.714-.267.721" transform="translate(-97.235 -2.182)" fill="#fafafa"/>
            <rect id="Rectangle_3061" data-name="Rectangle 3061" width="11.868" height="32.933" transform="translate(16.304)" fill="#e0e0e0"/>
            <rect id="Rectangle_3062" data-name="Rectangle 3062" width="11.1" height="29.319" transform="translate(84.436 3.614)" fill="#e0e0e0"/>
            <path id="Path_4032" data-name="Path 4032" d="M217.416,42.015a9.293,9.293,0,0,0,1.765,1.231,6.245,6.245,0,0,0,2.233.608,5.865,5.865,0,0,0,2.771-.473c.936-.392,1.8-.9,2.665-1.191a4.271,4.271,0,0,1,2.419-.217,2.591,2.591,0,0,1,1.4.834.992.992,0,0,1,.275.524c-.028.014-.111-.181-.373-.438a2.641,2.641,0,0,0-1.356-.691,4.173,4.173,0,0,0-2.26.275c-.828.3-1.67.8-2.64,1.209a5.988,5.988,0,0,1-2.93.472,6.118,6.118,0,0,1-2.316-.7,5.094,5.094,0,0,1-1.294-.972,1.57,1.57,0,0,1-.36-.466" transform="translate(-121.6 -23.779)" fill="#fafafa"/>
            <path id="Path_4033" data-name="Path 4033" d="M216.849,48.728a9.27,9.27,0,0,0,1.765,1.231,6.245,6.245,0,0,0,2.233.608,5.864,5.864,0,0,0,2.771-.472c.936-.393,1.8-.9,2.665-1.191a4.267,4.267,0,0,1,2.419-.217,2.588,2.588,0,0,1,1.4.833.992.992,0,0,1,.275.524c-.028.014-.112-.181-.373-.438a2.644,2.644,0,0,0-1.356-.691,4.177,4.177,0,0,0-2.26.275c-.828.3-1.67.8-2.64,1.21a5.992,5.992,0,0,1-2.93.471,6.118,6.118,0,0,1-2.316-.7,5.084,5.084,0,0,1-1.294-.972,1.565,1.565,0,0,1-.361-.466" transform="translate(-121.283 -27.591)" fill="#fafafa"/>
            <path id="Path_4034" data-name="Path 4034" d="M217.267,26.961c0-.091,3.056-.166,6.826-.166s6.826.074,6.826.166-3.056.166-6.826.166-6.826-.074-6.826-.166" transform="translate(-121.518 -15.214)" fill="#fafafa"/>
            <path id="Path_4035" data-name="Path 4035" d="M203.183,18.857a1.638,1.638,0,0,0-.966-.08,1.162,1.162,0,0,0-.751.611.959.959,0,0,0,.283,1.063,1,1,0,0,0,1.095.237,1.148,1.148,0,0,0,.593-.759,1.556,1.556,0,0,0-.119-.944c.011-.012.11.04.213.2a1.168,1.168,0,0,1,.14.785,1.339,1.339,0,0,1-.69.988,1.3,1.3,0,0,1-1.466-.272,1.244,1.244,0,0,1-.334-1.426,1.366,1.366,0,0,1,.981-.714,1.23,1.23,0,0,1,.805.107c.17.095.227.189.215.2" transform="translate(-112.462 -10.52)" fill="#fafafa"/>
            <path id="Path_4036" data-name="Path 4036" d="M204.014,45.29c-.093,0-.169-4.11-.169-9.179s.075-9.179.169-9.179.169,4.109.169,9.179-.075,9.179-.169,9.179" transform="translate(-114.011 -15.292)" fill="#fafafa"/>
            <rect id="Rectangle_3063" data-name="Rectangle 3063" width="114.881" height="6.431" transform="translate(5.919 32.766)" fill="#ebebeb"/>
            <rect id="Rectangle_3064" data-name="Rectangle 3064" width="10.03" height="6.431" transform="translate(110.77 32.766)" fill="#e0e0e0"/>
          </g>
        </g>
        <g id="Group_7898" data-name="Group 7898">
          <g id="Group_7897" data-name="Group 7897" clip-path="url(#clip-path)">
            <path id="Path_4037" data-name="Path 4037" d="M286.507,46.7l-.561,44.264c-.1,7.527,1.333,18.6,13.474,18.209,10.508-1.122,13.3-10.878,13.377-17.9.038-3.332.078-6.111.1-6.453,0,0,11.5-.92,12.474-12.063.469-5.385.515-16.553.437-26.657a21.005,21.005,0,0,0-19.7-20.606l-1.1-.079c-11.882-.17-18.666,9.632-18.51,21.286" transform="translate(-159.928 -14.431)" fill="#ffbe9d"/>
            <path id="Path_4038" data-name="Path 4038" d="M328.734,155.828a27.908,27.908,0,0,1-14.487-5.353s3.006,8.4,14.427,8.213Z" transform="translate(-175.759 -85.437)" fill="#eb996e"/>
            <path id="Path_4039" data-name="Path 4039" d="M323.47,81.253c-.226.226-1.538-.81-3.442-.861-1.9-.078-3.325.866-3.525.625-.1-.107.137-.519.757-.946a4.832,4.832,0,0,1,2.83-.787,4.65,4.65,0,0,1,2.731.974c.572.469.759.894.649.994" transform="translate(-177.009 -45.015)" fill="#263238"/>
            <path id="Path_4040" data-name="Path 4040" d="M327.522,90.841a1.529,1.529,0,0,1-1.594,1.414,1.458,1.458,0,0,1-1.482-1.472,1.53,1.53,0,0,1,1.593-1.415,1.46,1.46,0,0,1,1.483,1.473" transform="translate(-181.463 -50.741)" fill="#263238"/>
            <path id="Path_4041" data-name="Path 4041" d="M343.158,95.053a11.8,11.8,0,0,1,2.876-.3c.45-.013.878-.07.976-.363a2.195,2.195,0,0,0-.2-1.319q-.511-1.633-1.071-3.427c-1.479-4.876-2.516-8.872-2.315-8.929s1.563,3.85,3.042,8.726q.532,1.8,1.015,3.443a2.5,2.5,0,0,1,.1,1.734,1.12,1.12,0,0,1-.781.587,3.1,3.1,0,0,1-.766.049,11.614,11.614,0,0,1-2.877-.2" transform="translate(-191.929 -45.829)" fill="#263238"/>
            <path id="Path_4042" data-name="Path 4042" d="M321.508,65.763c-.184.414-1.708.1-3.533.194-1.826.054-3.325.487-3.536.089-.093-.19.19-.572.811-.941a6.08,6.08,0,0,1,5.385-.215c.643.319.953.676.873.874" transform="translate(-175.857 -36.544)" fill="#263238"/>
            <path id="Path_4043" data-name="Path 4043" d="M362.66,73.7c-.2.338-1.685-.037-3.485-.092-1.8-.086-3.294.172-3.484-.181-.083-.168.214-.471.841-.739a6.4,6.4,0,0,1,2.663-.431,6.593,6.593,0,0,1,2.647.639c.619.317.907.643.819.8" transform="translate(-198.931 -41.025)" fill="#263238"/>
            <path id="Path_4044" data-name="Path 4044" d="M277.816,93.206c-.188-.1-7.645-2.826-7.964,4.816s7.57,6.381,7.593,6.162.372-10.978.372-10.978" transform="translate(-150.924 -52.608)" fill="#ffbe9d"/>
            <path id="Path_4045" data-name="Path 4045" d="M277.7,104.388c-.034-.026-.14.088-.373.182a1.382,1.382,0,0,1-1.016-.02,3.277,3.277,0,0,1-1.431-3.018,4.339,4.339,0,0,1,.46-1.891,1.559,1.559,0,0,1,1.064-.981.7.7,0,0,1,.786.4c.1.218.04.368.08.383.021.02.173-.121.123-.44a.844.844,0,0,0-.286-.491,1.039,1.039,0,0,0-.743-.224,1.9,1.9,0,0,0-1.468,1.128,4.456,4.456,0,0,0-.56,2.111c-.015,1.542.729,3.015,1.843,3.38a1.479,1.479,0,0,0,1.25-.152c.249-.179.3-.349.271-.364" transform="translate(-153.435 -55.803)" fill="#eb996e"/>
            <path id="Path_4046" data-name="Path 4046" d="M333.752,119.667c.085-.193-1.441-.641-2.515-2.046a8.508,8.508,0,0,1-1.078-2c-.227-.555-.4-.9-.484-.877s-.059.4.066,1a5.587,5.587,0,0,0,1,2.235,4.651,4.651,0,0,0,1.991,1.495c.595.236,1,.251,1.018.186" transform="translate(-184.362 -65.151)" fill="#263238"/>
            <path id="Path_4047" data-name="Path 4047" d="M328.168,27.292a1.813,1.813,0,0,0-.864-1.054,5.762,5.762,0,0,0-2.9-.462,16.64,16.64,0,0,1-8.544-2.547,37.652,37.652,0,0,0-3.976-4.726c-3.444-3.483-6.278-5.853-9.209-7.01-3.791-1.5-10.132-2.1-14.085-1.087s-7.5,4.163-8.053,8.135c-2.217-1.838-5.545-1.823-8.245-.758l-.068-.029c-3.007,1.051-4.716,4.167-5.6,7.175s-1.266,6.223-2.89,8.919c-.339.564-.743,1.239-.446,1.825a1.278,1.278,0,0,0,1.328.567,3.752,3.752,0,0,0,1.4-.621L265,37.982a7.241,7.241,0,0,0,3.271-.214,67.328,67.328,0,0,0,2.139,7.931,4.7,4.7,0,0,1,3.183.768c1.053.929,1.524,2.676,3.274,2.013.891-.338,1.7-2.17,2-3.06a42.7,42.7,0,0,0,1.92-18.409,14.244,14.244,0,0,1,4.4-3.115l-.134.119c3.175-1.082,6.767-2.146,9.78-.684,2.337,1.134,3.711,3.512,5.458,5.41a17.987,17.987,0,0,0,12.714,5.76c.168,3.137-.1,7.572.067,10.71l2.691-5.026,0,.025c.22-.368.4-.739.579-1.11l.06-.113v-.014a19.309,19.309,0,0,1,.9-1.785l.03.027c1.734,1.5,4.288-.794,2.921-2.622a4.465,4.465,0,0,0-.966-.952,3.206,3.206,0,0,0,3.012.766A2.437,2.437,0,0,0,324.06,32a2.074,2.074,0,0,0-1.258-1.66,7.243,7.243,0,0,0,4.053-.876c.8-.448,1.585-1.184,1.314-2.171" transform="translate(-147.196 -5.623)" fill="#263238"/>
            <path id="Path_4048" data-name="Path 4048" d="M289.507,32.849a9.717,9.717,0,0,0-1.14,1.023,7.928,7.928,0,0,0-1.744,3.7,13.764,13.764,0,0,0-.29,2.833c0,1.027.079,2.126.16,3.284a28.824,28.824,0,0,1,.085,3.655,12.642,12.642,0,0,1-.256,1.928,3.981,3.981,0,0,1-.8,1.871,1.734,1.734,0,0,1-1.6.529,2.564,2.564,0,0,1-1.443-.8,5.716,5.716,0,0,1-1.1-2.834l.239.028a9.289,9.289,0,0,1-1.383,2.335,3.4,3.4,0,0,1-2.211,1.181,2.223,2.223,0,0,1-1.172-.2,1.913,1.913,0,0,1-1.037-1.757,1.375,1.375,0,0,1,.365-.867l.121.105a7.325,7.325,0,0,1-2.441,1.8,6.629,6.629,0,0,1-.757.288,1.28,1.28,0,0,1-.271.066,1.386,1.386,0,0,1,.256-.107c.169-.068.42-.167.733-.324a7.532,7.532,0,0,0,2.356-1.823l.121.105a1.406,1.406,0,0,0-.075,1.656,1.69,1.69,0,0,0,.72.681,2.015,2.015,0,0,0,1.062.169,3.19,3.19,0,0,0,2.052-1.122,9.153,9.153,0,0,0,1.331-2.285l.164-.357.075.386a5.524,5.524,0,0,0,1.043,2.708,2.308,2.308,0,0,0,1.292.715,1.464,1.464,0,0,0,1.364-.448,3.768,3.768,0,0,0,.74-1.75,12.551,12.551,0,0,0,.255-1.889,29.256,29.256,0,0,0-.07-3.625c-.073-1.158-.15-2.262-.135-3.3a13.72,13.72,0,0,1,.327-2.869,7.829,7.829,0,0,1,1.851-3.73,4.6,4.6,0,0,1,1.217-.955" transform="translate(-152.593 -18.651)" fill="#455a64"/>
            <path id="Path_4049" data-name="Path 4049" d="M346.325,35.475s-.028.029-.091.076l-.284.2a3.817,3.817,0,0,1-.482.3,6.061,6.061,0,0,1-.691.357,10.246,10.246,0,0,1-4.864.858,13.035,13.035,0,0,1-6.859-2.484,22.02,22.02,0,0,1-5.893-6.661c-.827-1.35-1.5-2.733-2.243-4.011a14.8,14.8,0,0,0-2.54-3.393,7.786,7.786,0,0,0-3.275-1.949,5.663,5.663,0,0,0-1.727-.195,6.219,6.219,0,0,0-1.581.3,6.591,6.591,0,0,0-2.37,1.4,6.419,6.419,0,0,0-1.282,1.632,7.669,7.669,0,0,0-.587,1.671.394.394,0,0,1,.009-.117c.015-.092.033-.2.054-.341a5.518,5.518,0,0,1,.431-1.259,6.357,6.357,0,0,1,1.272-1.692,6.673,6.673,0,0,1,2.411-1.467,6.362,6.362,0,0,1,1.632-.325,5.862,5.862,0,0,1,1.8.188,7.981,7.981,0,0,1,3.386,1.985,14.917,14.917,0,0,1,2.6,3.44c.752,1.287,1.426,2.667,2.245,4a22.018,22.018,0,0,0,5.808,6.6,12.951,12.951,0,0,0,6.727,2.495,10.414,10.414,0,0,0,4.81-.767,16.128,16.128,0,0,0,1.59-.847" transform="translate(-174.253 -10.431)" fill="#455a64"/>
            <path id="Path_4050" data-name="Path 4050" d="M377.514,46.605a1.776,1.776,0,0,1-.408.278,8.855,8.855,0,0,1-1.207.6,11.92,11.92,0,0,1-1.911.615,12.611,12.611,0,0,1-4.9.154,11.969,11.969,0,0,1-1.947-.494,8.9,8.9,0,0,1-1.244-.524,1.79,1.79,0,0,1-.425-.252c.022-.044.65.272,1.727.6a13.689,13.689,0,0,0,1.927.432,13.529,13.529,0,0,0,4.811-.151,13.6,13.6,0,0,0,1.895-.552c1.054-.4,1.66-.751,1.685-.708" transform="translate(-204.408 -26.46)" fill="#455a64"/>
            <path id="Path_4051" data-name="Path 4051" d="M362.848,82.879c-.226.226-1.538-.81-3.441-.861-1.9-.078-3.325.866-3.525.625-.1-.107.137-.519.757-.946a4.835,4.835,0,0,1,2.83-.787,4.653,4.653,0,0,1,2.731.975c.572.469.759.893.648.994" transform="translate(-199.033 -45.938)" fill="#263238"/>
            <path id="Path_4052" data-name="Path 4052" d="M363.407,92.1a1.53,1.53,0,0,1-1.595,1.414,1.458,1.458,0,0,1-1.482-1.472,1.53,1.53,0,0,1,1.593-1.415,1.46,1.46,0,0,1,1.484,1.473" transform="translate(-201.533 -51.454)" fill="#263238"/>
            <path id="Path_4053" data-name="Path 4053" d="M496.96,182.639A3.116,3.116,0,0,0,493.8,179.4a2.227,2.227,0,0,0-2.554-.985l-5.108,3.379c-.751,1.267-5.708,6.054-5.708,6.054-1.352-.985-1.352-2.956-2.973-5.35s-5.29-2.112-5.29-2.112,2.854,6.335,3.155,10.277-2.194,14.937-2.194,14.937l14.44,3.98s.911-6.032,2.53-6.519c1.947-.586,3.031-3.4,3.031-3.4,2.105-4.183,6.38-10.261,6.981-13.359s-3.155-3.66-3.155-3.66" transform="translate(-264.087 -101.244)" fill="#ffbe9d"/>
            <path id="Path_4054" data-name="Path 4054" d="M252.313,172.12c9.2,5.669,18.467,7.8,27.855,4.13l14.112,3.535,13.885,90.979-81.407.693,4.011-21.131,10.092-75.922Z" transform="translate(-126.826 -97.727)" fill="#455a64"/>
            <path id="Path_4055" data-name="Path 4055" d="M379.977,189.855s10.976,4.47,15.165,12.3,10.922,29.81,10.922,29.81l12.4-22.339,23.018,5.771s-17.133,46.35-21.435,50.57c-4.709,4.62-17.542,9.278-23.826,5.683s-7.562-17.24-7.562-17.24Z" transform="translate(-212.522 -107.796)" fill="#455a64"/>
            <path id="Path_4056" data-name="Path 4056" d="M381.549,254.184c-.063,0-.115-4.041-.115-9.025s.051-9.026.115-9.026.115,4.04.115,9.026-.051,9.025-.115,9.025" transform="translate(-213.337 -134.073)" fill="#263238"/>
            <path id="Path_4057" data-name="Path 4057" d="M387.317,201.883a13.258,13.258,0,0,1-.535,1.49c-.345.914-.8,2.182-1.253,3.6s-.8,2.721-1.04,3.666a13.223,13.223,0,0,1-.417,1.526,1.532,1.532,0,0,1,.043-.424c.041-.27.115-.659.216-1.138.2-.957.53-2.27.979-3.7s.936-2.691,1.321-3.593c.193-.451.356-.812.478-1.059a1.555,1.555,0,0,1,.209-.373" transform="translate(-214.809 -114.625)" fill="#263238"/>
            <path id="Path_4058" data-name="Path 4058" d="M197.111,211.2l2.547-34.28s-19.162,1.744-25.5,15c-5.343,11.173-20.093,44.788-21.672,49.387-4.633,13.494,2.6,32.046,32.441,30.971l3.4-18.345Z" transform="translate(-84.566 -100.451)" fill="#455a64"/>
            <path id="Path_4059" data-name="Path 4059" d="M206.694,354.414a2.179,2.179,0,0,1,.156-.329l.487-.923,1.828-3.373.611-1.116a3.313,3.313,0,0,1,.876-1.1,2.416,2.416,0,0,1,1.474-.416,6.828,6.828,0,0,1,1.588.252,16.49,16.49,0,0,1,3.207,1.189,8.525,8.525,0,0,1,1.539.962l.177.151a.564.564,0,0,1,.151.232,1.922,1.922,0,0,1,.1.472,7.217,7.217,0,0,1,.021.931c-.046,1.239-.2,2.433-.36,3.585s-.341,2.257-.52,3.309c-.361,2.1-.721,3.992-1.031,5.576l-.749,3.748-.2,1.018a2.846,2.846,0,0,1-.077.355,1.736,1.736,0,0,1,.031-.362c.032-.236.086-.582.163-1.027l.677-3.761c.289-1.587.633-3.477.981-5.581.174-1.052.348-2.157.506-3.305s.308-2.341.354-3.562a7.035,7.035,0,0,0-.02-.9,1.715,1.715,0,0,0-.083-.416.334.334,0,0,0-.091-.146l-.169-.144a8.351,8.351,0,0,0-1.5-.938,16.5,16.5,0,0,0-3.158-1.185,6.667,6.667,0,0,0-1.537-.255,2.225,2.225,0,0,0-1.358.368,3.159,3.159,0,0,0-.835,1.039l-.623,1.108-1.892,3.338-.524.9a2.166,2.166,0,0,1-.2.307" transform="translate(-115.604 -197.107)" fill="#263238"/>
            <path id="Path_4060" data-name="Path 4060" d="M175.255,326.264a.849.849,0,0,1,.225-.007l.643.024c.558.027,1.365.073,2.361.164a31.225,31.225,0,0,1,3.48.5,18.055,18.055,0,0,1,4.093,1.33,16.085,16.085,0,0,1,3.6,2.33,9.464,9.464,0,0,1,2.186,2.709,5.914,5.914,0,0,1,.662,2.236,3.894,3.894,0,0,1,.012.634.787.787,0,0,1-.019.22c-.025,0-.016-.305-.083-.844a6.208,6.208,0,0,0-.718-2.172,9.591,9.591,0,0,0-2.182-2.627,16.373,16.373,0,0,0-3.56-2.282,18.515,18.515,0,0,0-4.037-1.33,34.465,34.465,0,0,0-3.452-.541c-.991-.11-1.8-.181-2.351-.235l-.64-.067a.844.844,0,0,1-.222-.038" transform="translate(-98.021 -185.243)" fill="#263238"/>
            <path id="Path_4061" data-name="Path 4061" d="M216.8,322.27a8.026,8.026,0,0,1-.476,1.349c-.328.821-.817,1.94-1.378,3.165l-1.438,3.135a9.915,9.915,0,0,1-.626,1.288,7.993,7.993,0,0,1,.476-1.349c.328-.821.817-1.94,1.379-3.166l1.438-3.135a9.86,9.86,0,0,1,.626-1.287" transform="translate(-119.063 -182.979)" fill="#263238"/>
            <path id="Path_4062" data-name="Path 4062" d="M245.694,247.1c-.063,0-.115-2.173-.115-4.853s.051-4.853.115-4.853.115,2.172.115,4.853-.051,4.853-.115,4.853" transform="translate(-137.353 -134.787)" fill="#263238"/>
            <g id="Group_7887" data-name="Group 7887" transform="translate(84.526 151.157)" opacity="0.3">
              <g id="Group_7886" data-name="Group 7886">
                <g id="Group_7885" data-name="Group 7885" clip-path="url(#clip-path-4)">
                  <path id="Path_4063" data-name="Path 4063" d="M201.753,349.725c-5.041,1.725-8.448,6.211-9.824,11.269a1.718,1.718,0,0,0,.121,1.576,1.288,1.288,0,0,0,1.583.127,3.652,3.652,0,0,0,1.122-1.268,129.389,129.389,0,0,0,7-11.7" transform="translate(-191.8 -349.725)"/>
                </g>
              </g>
            </g>
            <g id="Group_7890" data-name="Group 7890" transform="translate(72.316 139.126)" opacity="0.3">
              <g id="Group_7889" data-name="Group 7889">
                <g id="Group_7888" data-name="Group 7888" clip-path="url(#clip-path-5)">
                  <path id="Path_4064" data-name="Path 4064" d="M180,324.14a20.636,20.636,0,0,0-8.677-2.232,13.428,13.428,0,0,0-3.508.3c-1.573.324-3.382,1.1-3.726,2.212,3.618-1.111,8.944-.379,12.647.414a13.583,13.583,0,0,1,8.855,6.154A12.435,12.435,0,0,0,180,324.14" transform="translate(-164.094 -321.889)"/>
                </g>
              </g>
            </g>
            <path id="Path_4065" data-name="Path 4065" d="M230.141,210.027a2.757,2.757,0,0,1-.175-.541c-.094-.352-.248-.857-.456-1.474a24.106,24.106,0,0,0-2.13-4.613,24.369,24.369,0,0,0-3.077-4.067c-.449-.478-.824-.855-1.092-1.106a2.788,2.788,0,0,1-.4-.413,2.8,2.8,0,0,1,.457.349c.287.233.683.594,1.15,1.062a21.59,21.59,0,0,1,3.157,4.062,21.349,21.349,0,0,1,2.087,4.679,15.428,15.428,0,0,1,.388,1.5,2.693,2.693,0,0,1,.089.561" transform="translate(-124.62 -112.314)" fill="#263238"/>
            <path id="Path_4066" data-name="Path 4066" d="M227.888,321.253,206.537,270.73c-.974-2.305.248-4.174,2.73-4.174h4.3c1.753,0,2.947-.947,3.06-2.426l.142-1.858c.114-1.478,1.31-2.425,3.065-2.425h20.412a7.211,7.211,0,0,1,4.726,2.051l1.657,1.575a7.208,7.208,0,0,0,4.723,2.051h26a7.255,7.255,0,0,1,6.209,4.175l21.167,51.555Z" transform="translate(-115.329 -147.537)" fill="#ff725e"/>
            <g id="Group_7893" data-name="Group 7893" transform="translate(90.872 112.31)" opacity="0.3">
              <g id="Group_7892" data-name="Group 7892">
                <g id="Group_7891" data-name="Group 7891" clip-path="url(#clip-path-6)">
                  <path id="Path_4067" data-name="Path 4067" d="M227.888,321.253,206.537,270.73c-.974-2.305.248-4.174,2.73-4.174h4.3c1.753,0,2.947-.947,3.06-2.426l.142-1.858c.114-1.478,1.31-2.425,3.065-2.425h20.412a7.211,7.211,0,0,1,4.726,2.051l1.657,1.575a7.208,7.208,0,0,0,4.723,2.051h26a7.255,7.255,0,0,1,6.209,4.175l21.167,51.555Z" transform="translate(-206.201 -259.847)"/>
                </g>
              </g>
            </g>
            <path id="Path_4068" data-name="Path 4068" d="M237.036,316.817l-8.053-30.536a3.087,3.087,0,0,1,2.681-4.028h63.12a2.863,2.863,0,0,1,2.688,2.274l11.722,45.961c.515,2.018-.308,3.229-2.179,3.205l-63.508.019a2.865,2.865,0,0,1-2.653-2.256Z" transform="translate(-128.005 -160.258)" fill="#e0e0e0"/>
            <path id="Path_4069" data-name="Path 4069" d="M252.939,331.408l-3.43-48.087a2.974,2.974,0,0,1,3-3.155h65.4v51.242Z" transform="translate(-139.547 -159.073)" fill="#ebebeb"/>
            <path id="Path_4070" data-name="Path 4070" d="M255.642,332.509l7.781-49.574a3.607,3.607,0,0,1,3.556-2.769h66.159a3.515,3.515,0,0,1,3.34,4.886L322.192,330.42Z" transform="translate(-142.981 -159.073)" fill="#fafafa"/>
            <path id="Path_4071" data-name="Path 4071" d="M255.412,336.636l16.045-46.43a4.741,4.741,0,0,1,4.462-3.228h68.2a3.277,3.277,0,0,1,3.046,4.337l-14.924,45.342Z" transform="translate(-142.853 -162.942)" fill="#ff725e"/>
            <g id="Group_7896" data-name="Group 7896" transform="translate(113.95 145.97)" opacity="0.3">
              <g id="Group_7895" data-name="Group 7895">
                <g id="Group_7894" data-name="Group 7894" clip-path="url(#clip-path-7)">
                  <path id="Path_4072" data-name="Path 4072" d="M290.154,357.675s-2.575.115-3.762.195a35.654,35.654,0,0,1-16.572-2.883c-1.6-.7-3.3-1.691-3.787-3.347-.544-1.855.681-3.785,2.174-5.042s3.309-2.152,4.605-3.6,1.91-3.8.633-5.27l-.353.253c-.923,2.292-3.492,3.4-5.62,4.71a19.5,19.5,0,0,0-8.329,10.676c-.749,2.4-.949,5.207.537,7.255a9.232,9.232,0,0,0,4.485,2.9c5.16,1.877,10.675,1.947,16.178,1.953,1.739,0,7.075-.07,7.075-.07,1.678-.448,2.231-1.3,3.241-2.692.927-1.275.725-4.034-.505-5.033" transform="translate(-258.568 -337.724)"/>
                </g>
              </g>
            </g>
            <path id="Path_4073" data-name="Path 4073" d="M273.542,356.222,255.753,353.6l-6.907-3.9a3.052,3.052,0,0,1-1.587-2.461c0-.019,0-.039,0-.058a3.09,3.09,0,0,1,1.954-2.952c2.191-.905,5.662-2.11,7.142-4.653,2.127-3.655,0-4.413,0-4.413L241.5,340.988l-10.515,7.019-2.116,11.7,14.672,4.7s16.349.9,20.861.408,4.511-2.557,4.511-2.557c.837-.257,2.531-1.715,2.53-3.075,2.189-2.014,2.1-2.965,2.1-2.965" transform="translate(-128.006 -190.3)" fill="#ffbe9d"/>
            <path id="Path_4074" data-name="Path 4074" d="M278.611,395.533a3.582,3.582,0,0,1,.733.137c.465.111,1.141.257,1.979.421a42.627,42.627,0,0,0,13.276.508c.848-.1,1.534-.194,2.007-.269a3.62,3.62,0,0,1,.741-.081,3.512,3.512,0,0,1-.72.195c-.467.11-1.15.237-2,.363a36.832,36.832,0,0,1-13.35-.511c-.836-.191-1.508-.37-1.965-.515a3.6,3.6,0,0,1-.7-.249" transform="translate(-155.828 -224.575)" fill="#eb996e"/>
            <path id="Path_4075" data-name="Path 4075" d="M282.3,389.293a3.746,3.746,0,0,1,.744.139c.472.112,1.159.258,2.01.419a44,44,0,0,0,6.724.729,46.534,46.534,0,0,0,6.761-.3c.861-.1,1.557-.2,2.036-.275a3.735,3.735,0,0,1,.752-.083,3.685,3.685,0,0,1-.731.2c-.474.112-1.167.241-2.029.37a39.006,39.006,0,0,1-6.8.393,37.22,37.22,0,0,1-6.759-.82c-.851-.188-1.533-.366-2-.513a3.642,3.642,0,0,1-.714-.251" transform="translate(-157.889 -221.031)" fill="#eb996e"/>
            <path id="Path_4076" data-name="Path 4076" d="M463.177,176.383l-31.607,6.122a4.028,4.028,0,0,1-4.735-3.112l-8.641-42.906a3.957,3.957,0,0,1,3.173-4.645l20.045-3.883,18.675,12.679,6.263,31.1a3.957,3.957,0,0,1-3.173,4.645" transform="translate(-233.854 -72.653)" fill="#ebebeb"/>
            <path id="Path_4077" data-name="Path 4077" d="M470.978,127.96l2.432,12.075a3.747,3.747,0,0,0,4.4,2.9l11.839-2.292Z" transform="translate(-263.419 -72.653)" fill="#f5f5f5"/>
            <path id="Path_4078" data-name="Path 4078" d="M477.347,157.72a4.132,4.132,0,0,0,4.028,3.263,3.98,3.98,0,0,0,.406.01c1.6-.028,12.134-.224,12.088-.453l-.654-3.245-11.838,2.293s-2.976.474-4.03-1.868" transform="translate(-266.981 -89.31)" fill="#e0e0e0"/>
            <path id="Path_4079" data-name="Path 4079" d="M463.035,176.233s.057-.019.171-.049a3.487,3.487,0,0,0,.5-.159,4.026,4.026,0,0,0,1.632-1.166,3.863,3.863,0,0,0,.869-3.015c-.231-1.256-.546-2.7-.871-4.324l-5.481-27.012.039.059L441.208,127.9l.084.017-11.566,2.244-6.05,1.173-1.535.3a10.469,10.469,0,0,0-1.511.35,3.888,3.888,0,0,0-2.188,2.01,3.727,3.727,0,0,0-.317,2.055c.112.7.276,1.409.41,2.108q.424,2.107.842,4.185l1.646,8.183,3.109,15.469q.742,3.7,1.446,7.2l.692,3.451q.171.849.338,1.686a8.947,8.947,0,0,0,.4,1.621,3.917,3.917,0,0,0,2.3,2.156,3.978,3.978,0,0,0,1.568.223,15.3,15.3,0,0,0,1.566-.262l5.967-1.148,18.011-3.453,4.9-.928,1.275-.236c.287-.052.436-.073.436-.073s-.145.036-.431.1l-1.271.258-4.891.969-18,3.523-5.965,1.163a15.23,15.23,0,0,1-1.589.268,4.163,4.163,0,0,1-1.641-.23,4.1,4.1,0,0,1-2.417-2.255,9.058,9.058,0,0,1-.416-1.655l-.341-1.685q-.343-1.7-.7-3.45-.707-3.5-1.455-7.2L420.8,150.563l-1.65-8.182q-.418-2.077-.844-4.185c-.135-.707-.3-1.4-.412-2.124a3.947,3.947,0,0,1,.336-2.176,4.116,4.116,0,0,1,2.317-2.127,10.638,10.638,0,0,1,1.546-.36l1.535-.3,6.051-1.171,11.567-2.237.046-.009.038.026L460,140.412l.032.022.007.037c2.245,11.234,4.1,20.532,5.4,27.028.317,1.625.622,3.066.847,4.334a3.917,3.917,0,0,1-.908,3.062,4,4,0,0,1-1.666,1.157,3.038,3.038,0,0,1-.5.146c-.115.026-.174.035-.174.035" transform="translate(-233.711 -72.503)" fill="#263238"/>
            <path id="Path_4080" data-name="Path 4080" d="M489.65,140.639a1.593,1.593,0,0,1-.3.081l-.868.189-3.2.656-4.752.944-2.811.545a3.909,3.909,0,0,1-2.985-.729,3.8,3.8,0,0,1-1.04-1.186,4.329,4.329,0,0,1-.47-1.44l-.548-2.756-.915-4.67c-.249-1.312-.451-2.382-.6-3.152l-.151-.859a1.5,1.5,0,0,1-.037-.3,1.475,1.475,0,0,1,.082.293l.193.851c.163.767.391,1.832.669,3.138.276,1.334.6,2.912.964,4.661.179.878.367,1.8.561,2.754a4.113,4.113,0,0,0,.449,1.376,3.59,3.59,0,0,0,.979,1.115,3.691,3.691,0,0,0,2.809.69l2.808-.531,4.761-.9,3.214-.586.876-.148a1.588,1.588,0,0,1,.309-.037" transform="translate(-263.416 -72.653)" fill="#263238"/>
            <path id="Path_4081" data-name="Path 4081" d="M453.384,153.153c.012.061-3.711.834-8.315,1.725s-8.348,1.566-8.36,1.5,3.71-.833,8.316-1.726,8.347-1.566,8.36-1.5" transform="translate(-244.252 -86.955)" fill="#263238"/>
            <path id="Path_4082" data-name="Path 4082" d="M464.047,163.546c.012.061-5.482,1.177-12.271,2.492s-12.3,2.332-12.317,2.271,5.481-1.177,12.272-2.492,12.3-2.332,12.315-2.271" transform="translate(-245.791 -92.857)" fill="#263238"/>
            <path id="Path_4083" data-name="Path 4083" d="M466.8,177.483c.012.061-5.482,1.177-12.271,2.492s-12.3,2.332-12.317,2.271,5.481-1.176,12.272-2.492,12.3-2.332,12.315-2.271" transform="translate(-247.331 -100.77)" fill="#263238"/>
            <path id="Path_4084" data-name="Path 4084" d="M444.965,196.183c-.012-.061,5.482-1.177,12.271-2.492s12.3-2.332,12.317-2.271-5.481,1.176-12.272,2.492-12.3,2.332-12.315,2.271" transform="translate(-248.87 -108.683)" fill="#263238"/>
            <path id="Path_4085" data-name="Path 4085" d="M472.305,205.357c.012.061-5.482,1.177-12.271,2.492s-12.3,2.332-12.317,2.271,5.481-1.176,12.272-2.492,12.3-2.332,12.315-2.271" transform="translate(-250.41 -116.596)" fill="#263238"/>
            <path id="Path_4086" data-name="Path 4086" d="M475.058,219.294c.012.061-5.482,1.177-12.271,2.492s-12.3,2.332-12.317,2.271,5.481-1.176,12.272-2.492,12.3-2.332,12.315-2.271" transform="translate(-251.95 -124.51)" fill="#263238"/>
            <path id="Path_4087" data-name="Path 4087" d="M442.176,212.959l-23.2,4.493a1.859,1.859,0,0,1-2.185-1.436l-1.661-8.25a1.827,1.827,0,0,1,1.464-2.144l23.2-4.493a1.859,1.859,0,0,1,2.185,1.437l1.662,8.25a1.827,1.827,0,0,1-1.465,2.144" transform="translate(-232.165 -114.178)" fill="#ff725e"/>
            <path id="Path_4088" data-name="Path 4088" d="M431.049,217.733l2.07-.4a2.318,2.318,0,0,1,2.963,1.747,2.279,2.279,0,0,1-2.063,2.723l-2.07.4Zm2.748,3.23a1.363,1.363,0,0,0,1.219-1.676,1.387,1.387,0,0,0-1.777-1.1l-.963.187.558,2.771Z" transform="translate(-241.087 -123.36)" fill="#fff"/>
            <path id="Path_4089" data-name="Path 4089" d="M443.558,217.49a2.364,2.364,0,0,1,2.029-2.795,2.4,2.4,0,0,1,2.96,1.828,2.363,2.363,0,0,1-2.029,2.795,2.4,2.4,0,0,1-2.96-1.828m3.92-.759a1.416,1.416,0,0,0-1.714-1.154,1.392,1.392,0,0,0-1.138,1.707,1.416,1.416,0,0,0,1.715,1.154,1.391,1.391,0,0,0,1.138-1.706" transform="translate(-248.056 -121.868)" fill="#fff"/>
            <path id="Path_4090" data-name="Path 4090" d="M456.026,215.03a2.346,2.346,0,0,1,2.009-2.791,2.435,2.435,0,0,1,2.035.428l-.554.744a1.517,1.517,0,0,0-1.252-.3,1.4,1.4,0,0,0-1.171,1.712,1.425,1.425,0,0,0,1.747,1.148,1.48,1.48,0,0,0,1.039-.752l.8.481a2.574,2.574,0,0,1-4.655-.671" transform="translate(-255.029 -120.473)" fill="#fff"/>
            <path id="Path_4091" data-name="Path 4091" d="M503.732,163.8s2.334-2.9,4.132-1.278,1.279,2.455-.43,5.017c0,0,3.816-.2,2.592,3.647,0,0,3.8-.412,3.437,2.733,0,0,2.871,2.755,1.378,4.532s-6.908,4.982-8.276,4.431-1.378-2.451-1.378-2.451a5.322,5.322,0,0,1-2.076-1.559c-.45-.841.322-2.019.322-2.019s-1.372-1.374-1.712-1.758.186-2.167.186-2.167l2.19-2.084s-3.015,1.285-3.644.8-1.337-.914-.664-1.808a30.282,30.282,0,0,1,3.065-2.895Z" transform="translate(-279.381 -91.997)" fill="#ffbe9d"/>
            <path id="Path_4092" data-name="Path 4092" d="M513.071,196.266a10.242,10.242,0,0,1,.988-1.177,11.459,11.459,0,0,1,2.786-2.5,26.941,26.941,0,0,0,3.131-1.974,14.609,14.609,0,0,0,1.067-1.077,2.723,2.723,0,0,1-.9,1.265,18.512,18.512,0,0,1-3.108,2.088,13.933,13.933,0,0,0-2.79,2.371,4.884,4.884,0,0,1-1.177,1.007" transform="translate(-286.961 -107.614)" fill="#eb996e"/>
            <path id="Path_4093" data-name="Path 4093" d="M508.278,189.427a28.964,28.964,0,0,1,3.129-3.315c.9-.867,1.678-1.709,2.345-2.225a2.838,2.838,0,0,1,1.174-.68c.026.048-.411.309-1,.87s-1.344,1.411-2.257,2.288a29.1,29.1,0,0,1-3.386,3.062" transform="translate(-284.28 -104.019)" fill="#eb996e"/>
            <path id="Path_4094" data-name="Path 4094" d="M509.9,177.861a13.337,13.337,0,0,1,1.754-1.661,22.428,22.428,0,0,0,1.546-1.809,3.571,3.571,0,0,1-1.292,2.064,6.13,6.13,0,0,1-2.009,1.406" transform="translate(-285.188 -99.016)" fill="#eb996e"/>
            <path id="Path_4095" data-name="Path 4095" d="M503.583,163.677a.93.93,0,0,1-.039.214c-.039.16-.089.361-.15.611-.148.561-.353,1.34-.614,2.331l-.006.022-.019.016c-.44.38-.935.816-1.47,1.31a12.874,12.874,0,0,0-1.628,1.706.881.881,0,0,0-.166.542.853.853,0,0,0,.294.505,5.883,5.883,0,0,0,.537.435.825.825,0,0,0,.608.118,11.841,11.841,0,0,0,2.958-.9l.706-.286-.545.522-2.182,2.091.033-.046a2.683,2.683,0,0,0-.112,2.175,6.129,6.129,0,0,0,1.727,1.726l.148.109-.119.138c-.476.552-.814,1.425-.191,1.964a8.113,8.113,0,0,0,2.068,1.387l-.256.14,0-.042s0-.019,0-.012v0c.045.052-.1-.124.1.152.492-.228.142-.094.25-.131v0l0,.082,0,.175a3.252,3.252,0,0,0,.033.352,2.706,2.706,0,0,0,.19.678,1.791,1.791,0,0,0,.387.569,1.089,1.089,0,0,0,.566.319,3.5,3.5,0,0,0,1.442-.279,12.949,12.949,0,0,0,1.433-.631,23.687,23.687,0,0,0,2.549-1.512,14.8,14.8,0,0,0,2.23-1.795,1.759,1.759,0,0,0,.579-1.125,2.691,2.691,0,0,0-.235-1.259,7.159,7.159,0,0,0-1.5-2.139l-.054-.056,0-.083a2.643,2.643,0,0,0-.129-1.229,1.834,1.834,0,0,0-.768-.891,4.178,4.178,0,0,0-2.353-.442l-.219.014.052-.212c.058-.234.126-.464.175-.694a3.813,3.813,0,0,0,.055-.688,1.885,1.885,0,0,0-.393-1.217,2.891,2.891,0,0,0-2.271-.872h-.256l.137-.2a20.736,20.736,0,0,0,1.229-1.966,2.849,2.849,0,0,0,.312-.973,1.571,1.571,0,0,0-.2-.906,4.077,4.077,0,0,0-1.2-1.279,1.793,1.793,0,0,0-1.427-.143,4.788,4.788,0,0,0-1.775,1.09c-.18.161-.308.294-.4.381a.859.859,0,0,1-.138.129.6.6,0,0,1,.108-.155,5.187,5.187,0,0,1,.372-.41,5.768,5.768,0,0,1,.684-.592,3.656,3.656,0,0,1,1.1-.583,1.95,1.95,0,0,1,1.562.129l.365.262.331.31a3.716,3.716,0,0,1,.6.761,1.779,1.779,0,0,1,.235,1.023,3.048,3.048,0,0,1-.321,1.059,20.543,20.543,0,0,1-1.222,2.007l-.119-.2a4.06,4.06,0,0,1,1.33.186,2.462,2.462,0,0,1,1.186.771,2.173,2.173,0,0,1,.467,1.387,4.09,4.09,0,0,1-.054.746c-.05.245-.119.487-.179.734l-.167-.2a4.468,4.468,0,0,1,2.559.472,2.164,2.164,0,0,1,.908,1.045,2.966,2.966,0,0,1,.156,1.387l-.05-.138a7.452,7.452,0,0,1,1.586,2.247,3.018,3.018,0,0,1,.264,1.424,2.174,2.174,0,0,1-.212.731,3.2,3.2,0,0,1-.459.6,15.053,15.053,0,0,1-2.285,1.847,23.878,23.878,0,0,1-2.589,1.537,13.3,13.3,0,0,1-1.474.649,3.774,3.774,0,0,1-1.621.3,1.788,1.788,0,0,1-1.231-1.1,3.024,3.024,0,0,1-.213-.766,3.5,3.5,0,0,1-.036-.39l0-.2.005-.1,0-.02v-.006c.107-.038-.242.094.251-.134.207.274.06.1.1.153v.015l0,.035,0,.05-.024.261-.233-.121a8.384,8.384,0,0,1-2.168-1.47,1.664,1.664,0,0,1-.371-.583,1.352,1.352,0,0,1-.03-.691,2.635,2.635,0,0,1,.6-1.144l.029.247a6.367,6.367,0,0,1-1.823-1.852,2.235,2.235,0,0,1-.2-1.269,3.965,3.965,0,0,1,.321-1.184l.011-.025.022-.022,2.2-2.076.161.236a11.925,11.925,0,0,1-3.055.895,1.089,1.089,0,0,1-.787-.179,6.108,6.108,0,0,1-.555-.462,1.087,1.087,0,0,1-.357-.655,1.1,1.1,0,0,1,.209-.686,12.615,12.615,0,0,1,1.691-1.726c.546-.487,1.05-.914,1.5-1.286l-.025.038.691-2.323.188-.6a.8.8,0,0,1,.076-.2" transform="translate(-279.231 -91.886)" fill="#eb996e"/>
          </g>
        </g>
        <g id="Group_7900" data-name="Group 7900">
          <g id="Group_7899" data-name="Group 7899" clip-path="url(#clip-path)">
            <path id="Path_4096" data-name="Path 4096" d="M106.061,162.786H78.868a3.37,3.37,0,0,1-3.4-3.337V122.536a3.37,3.37,0,0,1,3.4-3.337H96.114l13.349,13.494v26.756a3.37,3.37,0,0,1-3.4,3.337" transform="translate(-42.208 -67.679)" fill="#ebebeb"/>
            <path id="Path_4097" data-name="Path 4097" d="M122.318,119.2v10.389a3.134,3.134,0,0,0,3.164,3.1l10.185,0Z" transform="translate(-68.413 -67.679)" fill="#f5f5f5"/>
            <path id="Path_4098" data-name="Path 4098" d="M122.633,145.345a3.454,3.454,0,0,0,2.791,3.348,3.279,3.279,0,0,0,.334.074c1.33.233,10.085,1.761,10.085,1.563v-2.792H125.658s-2.543-.085-3.025-2.193" transform="translate(-68.588 -82.524)" fill="#e0e0e0"/>
            <path id="Path_4099" data-name="Path 4099" d="M105.913,162.638c0-.016.2,0,.588-.068a3.442,3.442,0,0,0,1.543-.7,3.28,3.28,0,0,0,1.218-2.354c.018-1.076,0-2.325,0-3.719-.01-5.589-.024-13.586-.041-23.247l.027.066L95.887,119.125l.079.033-9.951,0H79.489a8.915,8.915,0,0,0-1.306.047,3.3,3.3,0,0,0-2.136,1.306,3.146,3.146,0,0,0-.6,1.642c-.024.592-.007,1.21-.012,1.811q0,1.812,0,3.6,0,3.575,0,7.04c0,4.615,0,9.067-.007,13.308q0,3.181,0,6.2,0,1.507,0,2.969v1.45a7.549,7.549,0,0,0,.063,1.4,3.257,3.257,0,0,0,1.541,2.146,3.328,3.328,0,0,0,1.255.435,12.854,12.854,0,0,0,1.338.035l5.133.007,15.489.036,4.211.021,1.1.011c.247,0,.373.012.373.012s-.126.008-.373.012l-1.1.011-4.211.021-15.489.036-5.133.007a12.838,12.838,0,0,1-1.363-.033,3.508,3.508,0,0,1-1.326-.456,3.439,3.439,0,0,1-1.632-2.264,7.654,7.654,0,0,1-.07-1.441v-1.45q0-1.462,0-2.969,0-3.013,0-6.2c0-4.241,0-8.692-.007-13.308q0-3.461,0-7.04,0-1.787,0-3.6c.005-.608-.013-1.2.012-1.827a3.362,3.362,0,0,1,.644-1.757,3.526,3.526,0,0,1,2.285-1.4,9,9,0,0,1,1.344-.05h6.526l9.951,0h.047l.032.033,13.339,13.5.027.027v.038c-.017,9.661-.031,17.658-.041,23.247-.009,1.4,0,2.638-.024,3.725a3.337,3.337,0,0,1-1.267,2.393,3.412,3.412,0,0,1-1.575.689,2.588,2.588,0,0,1-.443.039c-.1,0-.15,0-.15,0" transform="translate(-42.061 -67.53)" fill="#263238"/>
            <path id="Path_4100" data-name="Path 4100" d="M135.522,132.693a1.131,1.131,0,0,1-.262.022l-.75.021-2.759.035-4.092.023-2.419,0a3.3,3.3,0,0,1-2.363-1.088,3.194,3.194,0,0,1-.667-1.156,3.638,3.638,0,0,1-.149-1.273c0-.821,0-1.614.007-2.37.009-1.5.017-2.862.024-4.013.015-1.12.028-2.037.037-2.706.009-.3.016-.543.022-.736a1.076,1.076,0,0,1,.023-.256,1.1,1.1,0,0,1,.023.256c.006.193.013.437.022.736.009.669.021,1.586.037,2.706.007,1.151.015,2.51.025,4.013,0,.756,0,1.549.007,2.37a3.45,3.45,0,0,0,.142,1.206,2.981,2.981,0,0,0,.622,1.074,3.079,3.079,0,0,0,2.2,1.016l2.413.011,4.092.025,2.759.036.75.021a1.142,1.142,0,0,1,.262.023" transform="translate(-68.267 -67.679)" fill="#263238"/>
            <path id="Path_4101" data-name="Path 4101" d="M102.944,140.5c0,.062-3.212.112-7.173.112s-7.174-.05-7.174-.112,3.211-.112,7.174-.112,7.173.05,7.173.112" transform="translate(-49.553 -79.71)" fill="#263238"/>
            <path id="Path_4102" data-name="Path 4102" d="M109.751,152.49c0,.062-4.736.112-10.576.112s-10.577-.05-10.577-.112,4.735-.112,10.577-.112,10.576.05,10.576.112" transform="translate(-49.553 -86.518)" fill="#263238"/>
            <path id="Path_4103" data-name="Path 4103" d="M109.751,164.481c0,.062-4.736.112-10.576.112s-10.577-.05-10.577-.112,4.735-.112,10.577-.112,10.576.05,10.576.112" transform="translate(-49.553 -93.326)" fill="#263238"/>
            <path id="Path_4104" data-name="Path 4104" d="M109.751,176.471c0,.062-4.736.112-10.576.112s-10.577-.05-10.577-.112,4.735-.112,10.577-.112,10.576.05,10.576.112" transform="translate(-49.553 -100.134)" fill="#263238"/>
            <path id="Path_4105" data-name="Path 4105" d="M109.751,188.462c0,.062-4.736.112-10.576.112s-10.577-.05-10.577-.112,4.735-.112,10.577-.112,10.576.05,10.576.112" transform="translate(-49.553 -106.942)" fill="#263238"/>
            <path id="Path_4106" data-name="Path 4106" d="M109.751,200.452c0,.062-4.736.112-10.576.112s-10.577-.05-10.577-.112,4.735-.112,10.577-.112,10.576.05,10.576.112" transform="translate(-49.553 -113.75)" fill="#263238"/>
            <path id="Path_4107" data-name="Path 4107" d="M82.865,190.028H63.49a1.843,1.843,0,0,1-1.861-1.824v-6.529a1.843,1.843,0,0,1,1.861-1.824H82.865a1.843,1.843,0,0,1,1.86,1.824V188.2a1.843,1.843,0,0,1-1.861,1.825" transform="translate(-34.469 -102.116)" fill="#ff725e"/>
            <path id="Path_4108" data-name="Path 4108" d="M77.834,188.913c0,.857-.655,1.39-1.7,1.39h-.79v1.06h-.907v-3.845h1.7c1.048,0,1.7.533,1.7,1.4m-.919,0c0-.423-.28-.67-.835-.67h-.739v1.335h.739c.555,0,.835-.247.835-.665" transform="translate(-41.631 -106.469)" fill="#fff"/>
            <path id="Path_4109" data-name="Path 4109" d="M83.61,187.518h1.781a1.936,1.936,0,1,1,0,3.845H83.61Zm1.736,3.115a1.2,1.2,0,1,0,0-2.384h-.829v2.384Z" transform="translate(-46.763 -106.47)" fill="#fff"/>
            <path id="Path_4110" data-name="Path 4110" d="M95.014,188.231v1.017h1.815v.714H95.014v1.4h-.907v-3.845H97.07v.714Z" transform="translate(-52.634 -106.469)" fill="#fff"/>
            <path id="Path_4111" data-name="Path 4111" d="M67.174,304.127h-26.9a3.334,3.334,0,0,1-3.366-3.3V264.306a3.334,3.334,0,0,1,3.366-3.3H57.333l13.207,13.35v26.471a3.334,3.334,0,0,1-3.366,3.3" transform="translate(-20.642 -148.194)" fill="#ebebeb"/>
            <path id="Path_4112" data-name="Path 4112" d="M83.257,261v10.278a3.1,3.1,0,0,0,3.13,3.07l10.077,0Z" transform="translate(-46.566 -148.194)" fill="#f5f5f5"/>
            <path id="Path_4113" data-name="Path 4113" d="M83.569,286.871a3.417,3.417,0,0,0,2.761,3.312,3.182,3.182,0,0,0,.331.073c1.315.231,9.977,1.742,9.977,1.546v-2.762H86.562s-2.516-.084-2.993-2.17" transform="translate(-46.74 -162.88)" fill="#e0e0e0"/>
            <path id="Path_4114" data-name="Path 4114" d="M67.027,303.978c0-.016.2,0,.581-.067a3.4,3.4,0,0,0,1.527-.7,3.243,3.243,0,0,0,1.2-2.328c.017-1.065,0-2.3,0-3.68-.01-5.529-.024-13.441-.041-23l.027.066L57.107,260.931l.079.033-9.845,0H40.885a8.782,8.782,0,0,0-1.292.046,3.263,3.263,0,0,0-2.112,1.292,3.109,3.109,0,0,0-.6,1.623c-.024.585-.007,1.2-.012,1.791q0,1.794,0,3.562,0,3.537,0,6.964c0,4.566,0,8.97-.007,13.166q0,3.146,0,6.131,0,1.491,0,2.937,0,.723,0,1.435a7.423,7.423,0,0,0,.062,1.389,3.221,3.221,0,0,0,1.523,2.123,3.293,3.293,0,0,0,1.241.43,12.7,12.7,0,0,0,1.324.035l5.078.007,15.324.036,4.166.021,1.083.011c.244,0,.369.012.369.012s-.125.008-.369.012L65.574,304l-4.166.021-15.324.036-5.078.007a12.783,12.783,0,0,1-1.348-.033,3.468,3.468,0,0,1-1.312-.451,3.4,3.4,0,0,1-1.616-2.241,7.6,7.6,0,0,1-.069-1.425q0-.712,0-1.435,0-1.446,0-2.937,0-2.981,0-6.131c0-4.2,0-8.6-.007-13.166q0-3.424,0-6.964,0-1.769,0-3.562c.005-.6-.013-1.19.012-1.807a3.336,3.336,0,0,1,.638-1.738,3.493,3.493,0,0,1,2.261-1.383,8.865,8.865,0,0,1,1.33-.049h6.456l9.845,0h.047l.032.033,13.2,13.36.027.027v.038c-.017,9.558-.03,17.469-.041,23-.009,1.382,0,2.61-.023,3.685a3.3,3.3,0,0,1-1.253,2.367,3.371,3.371,0,0,1-1.558.682,2.572,2.572,0,0,1-.438.039c-.1,0-.149,0-.149,0" transform="translate(-20.494 -148.045)" fill="#263238"/>
            <path id="Path_4115" data-name="Path 4115" d="M96.319,274.354a1.1,1.1,0,0,1-.259.022l-.742.021-2.73.035-4.048.023-2.393,0a3.262,3.262,0,0,1-2.339-1.077,3.16,3.16,0,0,1-.66-1.144,3.617,3.617,0,0,1-.148-1.26c0-.812,0-1.6.007-2.345.009-1.487.018-2.831.025-3.971.015-1.107.027-2.014.036-2.677.009-.3.016-.537.022-.728a1.055,1.055,0,0,1,.023-.254,1.075,1.075,0,0,1,.023.254c.006.191.013.432.022.728.009.663.022,1.569.037,2.677.007,1.14.015,2.484.025,3.971,0,.748,0,1.533.007,2.345a3.409,3.409,0,0,0,.141,1.193,2.954,2.954,0,0,0,.615,1.062,3.044,3.044,0,0,0,2.174,1l2.387.011,4.048.025,2.73.036.742.022a1.141,1.141,0,0,1,.259.022" transform="translate(-46.42 -148.194)" fill="#263238"/>
            <path id="Path_4116" data-name="Path 4116" d="M64.091,282.076c0,.062-3.177.112-7.1.112s-7.1-.05-7.1-.112,3.177-.112,7.1-.112,7.1.05,7.1.112" transform="translate(-27.908 -160.094)" fill="#263238"/>
            <path id="Path_4117" data-name="Path 4117" d="M70.825,293.938c0,.062-4.685.112-10.463.112S49.9,294,49.9,293.938s4.684-.112,10.464-.112,10.463.05,10.463.112" transform="translate(-27.908 -166.829)" fill="#263238"/>
            <path id="Path_4118" data-name="Path 4118" d="M70.825,305.8c0,.062-4.685.112-10.463.112S49.9,305.864,49.9,305.8s4.684-.112,10.464-.112,10.463.05,10.463.112" transform="translate(-27.908 -173.565)" fill="#263238"/>
            <path id="Path_4119" data-name="Path 4119" d="M70.825,317.664c0,.062-4.685.112-10.463.112s-10.464-.05-10.464-.112,4.684-.112,10.464-.112,10.463.05,10.463.112" transform="translate(-27.908 -180.301)" fill="#263238"/>
            <path id="Path_4120" data-name="Path 4120" d="M70.825,329.526c0,.062-4.685.112-10.463.112s-10.464-.05-10.464-.112,4.684-.112,10.464-.112,10.463.05,10.463.112" transform="translate(-27.908 -187.036)" fill="#263238"/>
            <path id="Path_4121" data-name="Path 4121" d="M70.825,341.388c0,.062-4.685.112-10.463.112s-10.464-.05-10.464-.112,4.684-.112,10.464-.112,10.463.05,10.463.112" transform="translate(-27.908 -193.771)" fill="#263238"/>
            <path id="Path_4122" data-name="Path 4122" d="M44.206,331.077H25.077a1.843,1.843,0,0,1-1.86-1.825v-6.42a1.843,1.843,0,0,1,1.86-1.825H44.206a1.843,1.843,0,0,1,1.86,1.825v6.42a1.843,1.843,0,0,1-1.86,1.825" transform="translate(-12.985 -182.263)" fill="#ff725e"/>
            <path id="Path_4123" data-name="Path 4123" d="M39.245,329.979c0,.848-.649,1.375-1.685,1.375h-.781V332.4h-.9v-3.8H37.56c1.036,0,1.685.526,1.685,1.38m-.909,0c0-.419-.277-.663-.825-.663h-.732v1.32h.732c.549,0,.825-.245.825-.657" transform="translate(-20.068 -186.573)" fill="#fff"/>
            <path id="Path_4124" data-name="Path 4124" d="M48.322,329.979c0,.848-.648,1.375-1.684,1.375h-.781V332.4h-.9v-3.8h1.679c1.037,0,1.684.526,1.684,1.38m-.908,0c0-.419-.277-.663-.826-.663h-.731v1.32h.731c.549,0,.826-.245.826-.657" transform="translate(-25.146 -186.573)" fill="#fff"/>
            <path id="Path_4125" data-name="Path 4125" d="M54.046,329.316H52.805V328.6h3.38v.717H54.944V332.4h-.9Z" transform="translate(-29.534 -186.573)" fill="#fff"/>
            <path id="Path_4126" data-name="Path 4126" d="M187.449,63.12H160.718a3.313,3.313,0,0,1-3.344-3.28V23.553a3.313,3.313,0,0,1,3.344-3.28h16.952l13.123,13.265v26.3a3.313,3.313,0,0,1-3.344,3.28" transform="translate(-88.02 -11.511)" fill="#ebebeb"/>
            <path id="Path_4127" data-name="Path 4127" d="M203.43,20.273V30.485a3.081,3.081,0,0,0,3.11,3.051l10.012,0Z" transform="translate(-113.779 -11.511)" fill="#f5f5f5"/>
            <path id="Path_4128" data-name="Path 4128" d="M203.739,45.975a3.4,3.4,0,0,0,2.743,3.291,3.283,3.283,0,0,0,.329.073c1.307.229,9.913,1.731,9.913,1.537V48.131H206.713s-2.5-.084-2.974-2.156" transform="translate(-113.951 -26.104)" fill="#e0e0e0"/>
            <path id="Path_4129" data-name="Path 4129" d="M187.3,62.972c0-.016.2,0,.578-.067a3.381,3.381,0,0,0,1.516-.693,3.224,3.224,0,0,0,1.2-2.314c.017-1.058,0-2.286,0-3.656-.01-5.494-.024-13.355-.041-22.852l.027.065L177.445,20.2l.079.033-9.782,0h-6.415a8.731,8.731,0,0,0-1.284.046,3.241,3.241,0,0,0-2.1,1.283,3.086,3.086,0,0,0-.591,1.613c-.024.581-.007,1.189-.012,1.779q0,1.782,0,3.539,0,3.514,0,6.92c0,4.537,0,8.913-.007,13.082q0,3.126,0,6.092,0,1.481,0,2.918,0,.718,0,1.425a7.366,7.366,0,0,0,.062,1.38,3.2,3.2,0,0,0,1.513,2.109,3.272,3.272,0,0,0,1.234.427,12.653,12.653,0,0,0,1.315.034l5.046.007,15.226.036,4.14.021,1.077.011c.242,0,.367.012.367.012s-.124.008-.367.012l-1.077.011-4.14.021-15.226.036-5.046.007a12.738,12.738,0,0,1-1.339-.032,3.452,3.452,0,0,1-1.3-.448,3.383,3.383,0,0,1-1.605-2.227,7.509,7.509,0,0,1-.068-1.416V57.51q0-1.437,0-2.918,0-2.962,0-6.092c0-4.169,0-8.545-.007-13.082q0-3.4,0-6.92,0-1.758,0-3.539c.005-.6-.012-1.183.012-1.8a3.311,3.311,0,0,1,.634-1.728,3.472,3.472,0,0,1,2.247-1.374,8.87,8.87,0,0,1,1.321-.049h6.415l9.782,0h.047l.033.033,13.112,13.275.027.028v.038c-.017,9.5-.031,17.357-.041,22.852-.009,1.373,0,2.593-.024,3.661a3.278,3.278,0,0,1-1.245,2.353,3.349,3.349,0,0,1-1.548.678,2.524,2.524,0,0,1-.435.038c-.1,0-.148,0-.148,0" transform="translate(-87.873 -11.362)" fill="#263238"/>
            <path id="Path_4130" data-name="Path 4130" d="M216.407,33.538a1.124,1.124,0,0,1-.257.022l-.738.021-2.712.035-4.022.023-2.378,0a3.24,3.24,0,0,1-2.325-1.07,3.141,3.141,0,0,1-.656-1.137,3.581,3.581,0,0,1-.147-1.252c0-.807,0-1.586.007-2.33.009-1.478.018-2.813.025-3.945.015-1.1.027-2,.037-2.66.009-.293.016-.533.022-.723a1.065,1.065,0,0,1,.023-.252,1.035,1.035,0,0,1,.023.252c.006.19.013.429.022.723.009.659.022,1.56.037,2.66.007,1.132.015,2.468.025,3.945,0,.744,0,1.523.007,2.33a3.4,3.4,0,0,0,.14,1.185,2.93,2.93,0,0,0,.611,1.055,3.024,3.024,0,0,0,2.159,1l2.372.011,4.022.025,2.712.036.738.022a1.124,1.124,0,0,1,.257.022" transform="translate(-113.633 -11.511)" fill="#263238"/>
            <path id="Path_4131" data-name="Path 4131" d="M184.385,41.209c0,.062-3.157.112-7.051.112s-7.052-.05-7.052-.112,3.157-.112,7.052-.112,7.051.05,7.051.112" transform="translate(-95.239 -23.334)" fill="#263238"/>
            <path id="Path_4132" data-name="Path 4132" d="M191.076,53c0,.062-4.656.112-10.4.112s-10.4-.05-10.4-.112,4.654-.112,10.4-.112,10.4.05,10.4.112" transform="translate(-95.239 -30.027)" fill="#263238"/>
            <path id="Path_4133" data-name="Path 4133" d="M191.076,64.783c0,.062-4.656.112-10.4.112s-10.4-.05-10.4-.112,4.654-.112,10.4-.112,10.4.05,10.4.112" transform="translate(-95.239 -36.719)" fill="#263238"/>
            <path id="Path_4134" data-name="Path 4134" d="M191.076,76.57c0,.062-4.655.112-10.4.112s-10.4-.05-10.4-.112,4.654-.112,10.4-.112,10.4.05,10.4.112" transform="translate(-95.239 -43.412)" fill="#263238"/>
            <path id="Path_4135" data-name="Path 4135" d="M191.076,88.357c0,.062-4.655.112-10.4.112s-10.4-.05-10.4-.112,4.654-.112,10.4-.112,10.4.05,10.4.112" transform="translate(-95.239 -50.104)" fill="#263238"/>
            <path id="Path_4136" data-name="Path 4136" d="M191.076,100.144c0,.062-4.656.112-10.4.112s-10.4-.05-10.4-.112,4.654-.112,10.4-.112,10.4.05,10.4.112" transform="translate(-95.239 -56.796)" fill="#263238"/>
            <path id="Path_4137" data-name="Path 4137" d="M164.616,89.9H145.633a1.843,1.843,0,0,1-1.861-1.824V81.718a1.843,1.843,0,0,1,1.861-1.824h18.983a1.843,1.843,0,0,1,1.861,1.824v6.356a1.843,1.843,0,0,1-1.861,1.824" transform="translate(-80.412 -45.362)" fill="#ff725e"/>
            <path id="Path_4138" data-name="Path 4138" d="M158.235,91.2l-.931-1.313-.914,1.313h-1.025l1.427-1.923-1.355-1.858h1.013l.887,1.226.87-1.226h.964l-1.344,1.826,1.438,1.955Z" transform="translate(-86.897 -49.636)" fill="#fff"/>
            <path id="Path_4139" data-name="Path 4139" d="M165.011,87.421h.892v3.068h1.933V91.2h-2.825Z" transform="translate(-92.291 -49.636)" fill="#fff"/>
            <path id="Path_4140" data-name="Path 4140" d="M171.819,90.744l.3-.659a2.3,2.3,0,0,0,1.272.394c.528,0,.743-.173.743-.405,0-.708-2.241-.221-2.241-1.626,0-.643.529-1.178,1.624-1.178a2.627,2.627,0,0,1,1.338.335l-.275.664a2.21,2.21,0,0,0-1.068-.3c-.529,0-.732.194-.732.432,0,.7,2.241.216,2.241,1.6,0,.632-.534,1.172-1.635,1.172a2.785,2.785,0,0,1-1.57-.437" transform="translate(-96.099 -49.551)" fill="#fff"/>
            <path id="Path_4141" data-name="Path 4141" d="M562.019,315.444H534.863a3.366,3.366,0,0,1-3.4-3.332V275.247a3.366,3.366,0,0,1,3.4-3.333h17.222l13.332,13.477v26.721a3.366,3.366,0,0,1-3.4,3.332" transform="translate(-297.25 -154.388)" fill="#ebebeb"/>
            <path id="Path_4142" data-name="Path 4142" d="M578.256,271.914v10.375a3.13,3.13,0,0,0,3.16,3.1l10.172,0Z" transform="translate(-323.42 -154.388)" fill="#f5f5f5"/>
            <path id="Path_4143" data-name="Path 4143" d="M578.57,298.025a3.45,3.45,0,0,0,2.787,3.344,3.267,3.267,0,0,0,.334.074c1.328.233,10.072,1.758,10.072,1.561v-2.788H581.591s-2.54-.085-3.021-2.191" transform="translate(-323.595 -169.213)" fill="#e0e0e0"/>
            <path id="Path_4144" data-name="Path 4144" d="M561.872,315.3c0-.016.2,0,.587-.068a3.428,3.428,0,0,0,1.541-.7,3.274,3.274,0,0,0,1.217-2.351c.017-1.075,0-2.322,0-3.715-.01-5.581-.024-13.568-.041-23.216l.027.065L551.859,271.84l.079.032-9.938,0h-6.518a8.835,8.835,0,0,0-1.3.047,3.3,3.3,0,0,0-2.133,1.3,3.144,3.144,0,0,0-.6,1.639c-.024.591-.007,1.208-.012,1.808q0,1.81,0,3.6,0,3.57,0,7.03c0,4.609,0,9.055-.007,13.29q0,3.176,0,6.189,0,1.5,0,2.965,0,.729,0,1.448a7.527,7.527,0,0,0,.063,1.4,3.253,3.253,0,0,0,1.539,2.143,3.324,3.324,0,0,0,1.253.434,12.816,12.816,0,0,0,1.336.035l5.126.007,15.469.036,4.206.021,1.093.011c.247,0,.373.012.373.012s-.126.008-.373.012l-1.093.011-4.206.021-15.469.036-5.126.007a12.909,12.909,0,0,1-1.36-.033,3.508,3.508,0,0,1-1.324-.455,3.436,3.436,0,0,1-1.63-2.261,7.594,7.594,0,0,1-.069-1.438q0-.718,0-1.448,0-1.46,0-2.965,0-3.01,0-6.189c0-4.235,0-8.681-.007-13.29q0-3.457,0-7.03,0-1.786,0-3.6c.005-.607-.013-1.2.012-1.823a3.362,3.362,0,0,1,.643-1.755,3.525,3.525,0,0,1,2.281-1.4,9.036,9.036,0,0,1,1.342-.05H542l9.938,0h.047l.033.033,13.321,13.486.027.028v.038c-.017,9.648-.03,17.634-.04,23.216-.009,1.4,0,2.635-.024,3.72a3.333,3.333,0,0,1-1.265,2.39,3.4,3.4,0,0,1-1.573.689,2.584,2.584,0,0,1-.442.039c-.1,0-.15,0-.15,0" transform="translate(-297.103 -154.239)" fill="#263238"/>
            <path id="Path_4145" data-name="Path 4145" d="M591.441,285.391a1.137,1.137,0,0,1-.261.023l-.749.021-2.755.035-4.087.023-2.416,0a3.293,3.293,0,0,1-2.36-1.087,3.2,3.2,0,0,1-.666-1.154,3.654,3.654,0,0,1-.149-1.272c0-.82,0-1.612.007-2.367.009-1.5.018-2.858.025-4.008.015-1.118.028-2.034.037-2.7.009-.3.016-.542.022-.735a1.094,1.094,0,0,1,.023-.256,1.077,1.077,0,0,1,.023.256c.006.192.013.436.022.735.009.668.021,1.584.036,2.7.008,1.15.015,2.507.025,4.008,0,.755,0,1.547.007,2.367a3.436,3.436,0,0,0,.142,1.2,2.979,2.979,0,0,0,.621,1.073,3.076,3.076,0,0,0,2.195,1.015l2.41.011,4.087.025,2.755.036.749.022a1.162,1.162,0,0,1,.261.022" transform="translate(-323.273 -154.388)" fill="#263238"/>
            <path id="Path_4146" data-name="Path 4146" d="M558.908,293.186c0,.062-3.208.112-7.164.112s-7.164-.05-7.164-.112,3.207-.112,7.164-.112,7.164.05,7.164.112" transform="translate(-304.585 -166.402)" fill="#263238"/>
            <path id="Path_4147" data-name="Path 4147" d="M565.706,305.161c0,.062-4.73.112-10.562.112s-10.564-.05-10.564-.112,4.729-.112,10.564-.112,10.562.05,10.562.112" transform="translate(-304.585 -173.202)" fill="#263238"/>
            <path id="Path_4148" data-name="Path 4148" d="M565.706,317.135c0,.062-4.73.112-10.562.112s-10.564-.05-10.564-.112,4.729-.112,10.564-.112,10.562.05,10.562.112" transform="translate(-304.585 -180)" fill="#263238"/>
            <path id="Path_4149" data-name="Path 4149" d="M565.706,329.11c0,.062-4.73.112-10.562.112s-10.564-.05-10.564-.112,4.729-.112,10.564-.112,10.562.05,10.562.112" transform="translate(-304.585 -186.799)" fill="#263238"/>
            <path id="Path_4150" data-name="Path 4150" d="M565.706,341.085c0,.062-4.73.112-10.562.112s-10.564-.05-10.564-.112,4.729-.112,10.564-.112,10.562.05,10.562.112" transform="translate(-304.585 -193.599)" fill="#263238"/>
            <path id="Path_4151" data-name="Path 4151" d="M565.706,355.854c0,.062-4.73.112-10.562.112s-10.564-.05-10.564-.112,4.729-.112,10.564-.112,10.562.05,10.562.112" transform="translate(-304.585 -201.984)" fill="#263238"/>
            <path id="Path_4152" data-name="Path 4152" d="M538.853,342.649H519.508a1.843,1.843,0,0,1-1.861-1.824v-6.516a1.843,1.843,0,0,1,1.861-1.824h19.345a1.843,1.843,0,0,1,1.86,1.824v6.515a1.843,1.843,0,0,1-1.86,1.825" transform="translate(-289.521 -188.779)" fill="#ff725e"/>
            <path id="Path_4153" data-name="Path 4153" d="M523.711,340.153h1.779a1.934,1.934,0,1,1,0,3.841h-1.779Zm1.734,3.111a1.194,1.194,0,1,0,0-2.382h-.828v2.382Z" transform="translate(-292.913 -193.133)" fill="#fff"/>
            <path id="Path_4154" data-name="Path 4154" d="M533.635,341.987a2.149,2.149,0,1,1,2.143,1.986,2.01,2.01,0,0,1-2.143-1.986m3.368,0a1.225,1.225,0,1,0-1.225,1.229A1.183,1.183,0,0,0,537,341.987" transform="translate(-298.463 -193.047)" fill="#fff"/>
            <path id="Path_4155" data-name="Path 4155" d="M544.348,341.987A2,2,0,0,1,546.474,340a2.039,2.039,0,0,1,1.611.681l-.582.526a1.271,1.271,0,0,0-.984-.45,1.229,1.229,0,1,0,0,2.458,1.259,1.259,0,0,0,.984-.456l.582.527a2.03,2.03,0,0,1-1.617.686,1.993,1.993,0,0,1-2.12-1.986" transform="translate(-304.455 -193.047)" fill="#fff"/>
            <path id="Path_4156" data-name="Path 4156" d="M555.932,343.994l-.946-1.333-.929,1.333h-1.04l1.449-1.954-1.376-1.888h1.029l.9,1.246.884-1.246h.979l-1.365,1.855,1.46,1.986Z" transform="translate(-309.304 -193.133)" fill="#fff"/>
          </g>
        </g>
        <g id="Group_7902" data-name="Group 7902">
          <g id="Group_7901" data-name="Group 7901" clip-path="url(#clip-path)">
            <path id="Path_4157" data-name="Path 4157" d="M294.264,401.772c0,.062-65.879.112-147.125.112C65.864,401.885,0,401.835,0,401.772s65.864-.112,147.139-.112c81.247,0,147.125.05,147.125.112" transform="translate(0 -228.056)" fill="#263238"/>
          </g>
        </g>
      </g>
    </g>
  </g>
</svg>
