<svg xmlns="http://www.w3.org/2000/svg" xmlns:xlink="http://www.w3.org/1999/xlink" width="300" height="300" viewBox="0 0 300 300">
  <defs>
    <clipPath id="clip-path">
      <rect id="Rectangle_3048" data-name="Rectangle 3048" width="300" height="300" fill="none"/>
    </clipPath>
  </defs>
  <g id="Group_7881" data-name="Group 7881" transform="translate(-1140 -2984)">
    <g id="Group_7872" data-name="Group 7872" transform="translate(1140 2984)">
      <g id="Group_7871" data-name="Group 7871" clip-path="url(#clip-path)">
        <path id="Path_3897" data-name="Path 3897" d="M672.017,2051.752H482.456a1.315,1.315,0,0,1,0-2.629H672.017a1.315,1.315,0,0,1,0,2.629" transform="translate(-423.335 -1802.936)" fill="#003c99"/>
      </g>
    </g>
    <g id="Group_7874" data-name="Group 7874" transform="translate(1140 2984)">
      <g id="Group_7873" data-name="Group 7873" clip-path="url(#clip-path)">
        <path id="Path_3898" data-name="Path 3898" d="M428.17,850.453c.01-.124.016-.248.016-.374a4.775,4.775,0,0,0-9.549,0c0,.126.007.25.016.374Z" transform="translate(-368.341 -743.747)" fill="#80b2ff"/>
        <path id="Path_3899" data-name="Path 3899" d="M558.731,850.453c.01-.124.016-.248.016-.374a4.775,4.775,0,0,0-9.549,0c0,.126.006.25.016.374Z" transform="translate(-483.215 -743.747)" fill="#80b2ff"/>
        <path id="Path_3900" data-name="Path 3900" d="M613.063,860.694a3.376,3.376,0,1,0-6.71,0Z" transform="translate(-533.486 -753.988)" fill="#80b2ff"/>
        <path id="Path_3901" data-name="Path 3901" d="M480.8,830.416a6.995,6.995,0,1,0-13.877,0Z" transform="translate(-410.773 -723.71)" fill="#80b2ff"/>
        <path id="Path_3902" data-name="Path 3902" d="M1407.373,396.372c.01-.124.016-.248.016-.374a4.775,4.775,0,1,0-9.549,0c0,.126.006.25.016.374Z" transform="translate(-1229.9 -344.22)" fill="#80b2ff"/>
        <path id="Path_3903" data-name="Path 3903" d="M1537.934,396.372c.01-.124.016-.248.016-.374a4.775,4.775,0,1,0-9.549,0c0,.126.006.25.016.374Z" transform="translate(-1344.775 -344.22)" fill="#80b2ff"/>
        <path id="Path_3904" data-name="Path 3904" d="M1460,376.335a7.089,7.089,0,0,0,.056-.89,6.995,6.995,0,1,0-13.989,0,7.066,7.066,0,0,0,.056.89Z" transform="translate(-1272.332 -324.183)" fill="#80b2ff"/>
        <path id="Path_3905" data-name="Path 3905" d="M796.661,619.119h-1.72a.23.23,0,0,1,0-.461h1.72a.23.23,0,0,1,0,.461m-3.44,0H791.5a.23.23,0,0,1,0-.461h1.72a.23.23,0,1,1,0,.461m-3.44,0h-1.72a.23.23,0,0,1,0-.461h1.72a.23.23,0,0,1,0,.461m-3.44,0h-1.72a.23.23,0,1,1,0-.461h1.72a.23.23,0,0,1,0,.461m-3.44,0h-1.72a.23.23,0,1,1,0-.461h1.72a.23.23,0,0,1,0,.461m-3.44,0h-1.72a.23.23,0,0,1,0-.461h1.72a.23.23,0,1,1,0,.461m-3.44,0H774.3a.23.23,0,1,1,0-.461h1.72a.23.23,0,1,1,0,.461m-3.44,0h-1.72a.23.23,0,0,1,0-.461h1.72a.23.23,0,0,1,0,.461m-3.44,0h-1.72a.23.23,0,1,1,0-.461h1.72a.23.23,0,0,1,0,.461m-3.44,0h-1.72a.23.23,0,1,1,0-.461h1.72a.23.23,0,1,1,0,.461m-3.44,0h-1.72a.23.23,0,0,1,0-.461h1.72a.23.23,0,0,1,0,.461m-3.44,0H757.1a.23.23,0,1,1,0-.461h1.72a.23.23,0,1,1,0,.461m-3.44,0h-1.72a.23.23,0,0,1,0-.461h1.72a.23.23,0,0,1,0,.461m-3.44,0h-1.72a.23.23,0,0,1,0-.461h1.72a.23.23,0,0,1,0,.461m-3.44,0h-1.72a.23.23,0,1,1,0-.461h1.72a.23.23,0,1,1,0,.461m-3.44,0h-1.72a.23.23,0,0,1,0-.461h1.72a.23.23,0,1,1,0,.461m-3.44,0H739.9a.23.23,0,0,1,0-.461h1.72a.23.23,0,1,1,0,.461m-3.44,0h-1.72a.23.23,0,1,1,0-.461h1.72a.23.23,0,0,1,0,.461m-3.44,0h-.281a2.262,2.262,0,0,1-1.474-.54.23.23,0,0,1,.3-.35,1.8,1.8,0,0,0,1.173.429h.281a.23.23,0,0,1,0,.461m63.557-.408a.23.23,0,0,1-.139-.414,1.623,1.623,0,0,0,.66-1.3.23.23,0,0,1,.23-.23h0a.23.23,0,0,1,.23.231,2.08,2.08,0,0,1-.843,1.662.229.229,0,0,1-.139.047m-65.818-1.6a.23.23,0,0,1-.23-.23v-1.72a.23.23,0,1,1,.461,0v1.72a.23.23,0,0,1-.23.23m66.569-1.6a.23.23,0,0,1-.23-.23v-1.72a.23.23,0,1,1,.461,0v1.72a.23.23,0,0,1-.23.23m-66.569-1.842a.23.23,0,0,1-.23-.23v-1.72a.23.23,0,0,1,.461,0v1.72a.23.23,0,0,1-.23.23m66.569-1.6a.23.23,0,0,1-.23-.23v-1.72a.23.23,0,1,1,.461,0v1.72a.23.23,0,0,1-.23.23m-66.569-1.842a.23.23,0,0,1-.23-.23v-1.72a.23.23,0,0,1,.461,0V610a.23.23,0,0,1-.23.23m66.569-1.6a.23.23,0,0,1-.23-.23v-1.72a.23.23,0,0,1,.461,0v1.72a.23.23,0,0,1-.23.23m-66.569-1.842a.23.23,0,0,1-.23-.23v-1.72a.23.23,0,1,1,.461,0v1.72a.23.23,0,0,1-.23.23m66.569-1.6a.23.23,0,0,1-.23-.23v-1.72a.23.23,0,0,1,.461,0v1.72a.23.23,0,0,1-.23.23m-66.569-1.842a.23.23,0,0,1-.23-.23V601.4a.23.23,0,0,1,.461,0v1.72a.23.23,0,0,1-.23.23m66.569-1.6a.23.23,0,0,1-.23-.23V599.8a.23.23,0,1,1,.461,0v1.72a.23.23,0,0,1-.23.23m-66.569-1.842a.23.23,0,0,1-.23-.23v-1.72a.23.23,0,1,1,.461,0v1.72a.23.23,0,0,1-.23.23m66.569-1.6a.23.23,0,0,1-.23-.23v-1.72a.23.23,0,1,1,.461,0v1.72a.23.23,0,0,1-.23.23m-66.569-1.842a.23.23,0,0,1-.23-.23v-1.72a.23.23,0,1,1,.461,0v1.72a.23.23,0,0,1-.23.23m66.569-1.6a.23.23,0,0,1-.23-.23v-1.72a.23.23,0,1,1,.461,0v1.72a.23.23,0,0,1-.23.23m-66.569-1.842a.23.23,0,0,1-.23-.23v-1.72a.23.23,0,0,1,.461,0v1.72a.23.23,0,0,1-.23.23m66.569-1.6a.23.23,0,0,1-.23-.23v-1.72a.23.23,0,1,1,.461,0v1.72a.23.23,0,0,1-.23.23m-66.569-1.842a.23.23,0,0,1-.23-.23v-1.72a.23.23,0,0,1,.461,0v1.72a.23.23,0,0,1-.23.23m66.569-1.6a.23.23,0,0,1-.23-.23v-1.72a.23.23,0,1,1,.461,0v1.72a.23.23,0,0,1-.23.23m-66.569-1.842a.23.23,0,0,1-.23-.23V584.2a.234.234,0,0,1,.23-.234.227.227,0,0,1,.23.226v1.728a.23.23,0,0,1-.23.23m66.569-1.6a.23.23,0,0,1-.23-.23V584.2a1.627,1.627,0,0,0-.574-1.229.23.23,0,1,1,.3-.349,2.087,2.087,0,0,1,.733,1.578v.122a.23.23,0,0,1-.23.23m-65.814-1.607a.231.231,0,0,1-.139-.415,2.248,2.248,0,0,1,1.364-.451h.407a.23.23,0,0,1,0,.461h-.407a1.791,1.791,0,0,0-1.087.359.23.23,0,0,1-.138.046m63.558-.405h-1.72a.23.23,0,0,1,0-.461h1.72a.23.23,0,0,1,0,.461m-3.44,0h-1.72a.23.23,0,1,1,0-.461h1.72a.23.23,0,0,1,0,.461m-3.44,0h-1.72a.23.23,0,0,1,0-.461h1.72a.23.23,0,1,1,0,.461m-3.44,0h-1.72a.23.23,0,0,1,0-.461h1.72a.23.23,0,1,1,0,.461m-3.44,0h-1.72a.23.23,0,1,1,0-.461h1.72a.23.23,0,0,1,0,.461m-3.44,0h-1.72a.23.23,0,1,1,0-.461h1.72a.23.23,0,1,1,0,.461m-3.44,0h-1.72a.23.23,0,0,1,0-.461h1.72a.23.23,0,0,1,0,.461m-3.44,0h-1.72a.23.23,0,0,1,0-.461h1.72a.23.23,0,0,1,0,.461m-3.44,0h-1.72a.23.23,0,1,1,0-.461h1.72a.23.23,0,1,1,0,.461m-3.44,0H764.1a.23.23,0,1,1,0-.461h1.72a.23.23,0,1,1,0,.461m-3.44,0h-1.72a.23.23,0,1,1,0-.461h1.72a.23.23,0,1,1,0,.461m-3.44,0h-1.72a.23.23,0,1,1,0-.461h1.72a.23.23,0,0,1,0,.461m-3.44,0h-1.72a.23.23,0,0,1,0-.461h1.72a.23.23,0,1,1,0,.461m-3.44,0h-1.72a.23.23,0,0,1,0-.461h1.72a.23.23,0,0,1,0,.461m-3.44,0H746.9a.23.23,0,1,1,0-.461h1.72a.23.23,0,0,1,0,.461m-3.44,0h-1.72a.23.23,0,1,1,0-.461h1.72a.23.23,0,0,1,0,.461m-3.44,0h-1.72a.23.23,0,0,1,0-.461h1.72a.23.23,0,1,1,0,.461m-3.44,0h-1.72a.23.23,0,0,1,0-.461h1.72a.23.23,0,0,1,0,.461" transform="translate(-644.27 -512.144)" fill="#c0daff"/>
        <path id="Path_3906" data-name="Path 3906" d="M843.239,555.686H782.081a2.331,2.331,0,0,1-2.331-2.331v-34.7a2.331,2.331,0,0,1,2.331-2.331h61.158a2.331,2.331,0,0,1,2.331,2.331v34.7a2.331,2.331,0,0,1-2.331,2.331" transform="translate(-686.069 -454.291)" fill="#66a2ff"/>
        <rect id="Rectangle_3049" data-name="Rectangle 3049" width="65.82" height="6.792" transform="translate(93.681 69.466)" fill="#0046b3"/>
        <path id="Path_3907" data-name="Path 3907" d="M826.208,781.1H816.53a1.114,1.114,0,1,0,0,2.228h9.678a1.114,1.114,0,1,0,0-2.228" transform="translate(-717.45 -687.256)" fill="#d1f5ff"/>
        <path id="Path_3908" data-name="Path 3908" d="M950.079,781.1H940.4a1.114,1.114,0,1,0,0,2.228h9.678a1.114,1.114,0,1,0,0-2.228" transform="translate(-826.439 -687.256)" fill="#d1f5ff"/>
        <path id="Path_3909" data-name="Path 3909" d="M1073.952,781.1h-9.677a1.114,1.114,0,1,0,0,2.228h9.677a1.114,1.114,0,1,0,0-2.228" transform="translate(-935.43 -687.256)" fill="#d1f5ff"/>
        <path id="Path_3910" data-name="Path 3910" d="M1197.824,781.1h-9.678a1.114,1.114,0,0,0,0,2.228h9.678a1.114,1.114,0,1,0,0-2.228" transform="translate(-1044.42 -687.256)" fill="#d1f5ff"/>
        <path id="Path_3911" data-name="Path 3911" d="M811.972,532.952h0a1.229,1.229,0,0,0-1.229,1.229v.432a1.229,1.229,0,1,0,2.459,0v-.432a1.229,1.229,0,0,0-1.229-1.229" transform="translate(-713.338 -468.922)" fill="#d1f5ff"/>
        <path id="Path_3912" data-name="Path 3912" d="M843.021,534.4h0a1.445,1.445,0,0,0,1.445,1.445h5.123a1.445,1.445,0,0,0,0-2.891h-5.123a1.445,1.445,0,0,0-1.445,1.445" transform="translate(-741.738 -468.922)" fill="#d1f5ff"/>
        <path id="Path_3913" data-name="Path 3913" d="M823.367,665.147h6.616a1.92,1.92,0,0,1,1.92,1.92v5.7a1.92,1.92,0,0,1-1.92,1.92h-6.616a1.92,1.92,0,0,1-1.92-1.92v-5.7a1.92,1.92,0,0,1,1.92-1.92" transform="translate(-722.756 -585.234)" fill="#ff9f34"/>
        <path id="Path_3914" data-name="Path 3914" d="M1556.278,548.251a22.968,22.968,0,0,0,.458-9.059l.932-.14,1.841-.275.023-.005a25.712,25.712,0,0,0-3.366-9.43l-2.424,1.444a22.985,22.985,0,0,0-6.088-6.722l1.683-2.274a25.6,25.6,0,0,0-9.049-4.3l-.7,2.745a22.927,22.927,0,0,0-9.059-.458l-.421-2.8a25.878,25.878,0,0,0-9.43,3.366l1.444,2.425a22.981,22.981,0,0,0-6.723,6.088l-2.274-1.683a25.609,25.609,0,0,0-4.3,9.049l2.746.7a22.923,22.923,0,0,0-.458,9.059l-1.979.3-.807.128-.011,0a25.88,25.88,0,0,0,3.366,9.43l2.425-1.444a23.021,23.021,0,0,0,6.1,6.725l-1.683,2.274a25.553,25.553,0,0,0,9.039,4.294l.7-2.746a22.985,22.985,0,0,0,9.069.461l.323,2.174.1.622a25.833,25.833,0,0,0,9.42-3.368l-1.444-2.424a23.218,23.218,0,0,0,6.735-6.1l2.274,1.683a25.745,25.745,0,0,0,4.283-9.042Zm-25.425,6.473a12.515,12.515,0,1,1,15.2-9.064A12.513,12.513,0,0,1,1530.854,554.724Z" transform="translate(-1327.111 -454.872)" fill="none" stroke="#b3d1ff" stroke-linejoin="round" stroke-width="4"/>
        <path id="Path_3915" data-name="Path 3915" d="M1828.545,942.4a12.093,12.093,0,0,0-3.651-3.079l.238-.435.471-.859.005-.011a13.533,13.533,0,0,0-5.025-1.594l-.167,1.476a12.1,12.1,0,0,0-4.757.41l-.417-1.43a13.481,13.481,0,0,0-4.684,2.424l.929,1.166a12.071,12.071,0,0,0-3.079,3.651l-1.306-.715a13.627,13.627,0,0,0-1.594,5.025l1.476.167a12.093,12.093,0,0,0,.41,4.758l-1.43.417a13.483,13.483,0,0,0,2.424,4.684l1.167-.929a12.069,12.069,0,0,0,3.651,3.079l-.506.923-.2.379,0,0a13.625,13.625,0,0,0,5.025,1.594l.167-1.477a12.116,12.116,0,0,0,4.762-.413l.417,1.43a13.451,13.451,0,0,0,4.68-2.42l-.929-1.167a12.1,12.1,0,0,0,3.083-3.654l1.014.557.292.158a13.607,13.607,0,0,0,1.59-5.022l-1.476-.167a12.223,12.223,0,0,0-.409-4.765l1.43-.417a13.554,13.554,0,0,0-2.425-4.676Zm-5.388,12.719a6.589,6.589,0,1,1,1.045-9.26A6.589,6.589,0,0,1,1823.157,955.12Z" transform="translate(-1588.589 -823.918)" fill="none" stroke="#b3d1ff" stroke-linejoin="round" stroke-width="4"/>
        <path id="Path_3916" data-name="Path 3916" d="M926.518,1501.411a13.957,13.957,0,0,0-4.213-3.553l.275-.5.544-.992.006-.013a15.624,15.624,0,0,0-5.8-1.84l-.193,1.7a13.96,13.96,0,0,0-5.49.473l-.481-1.65a15.559,15.559,0,0,0-5.405,2.8l1.072,1.346a13.928,13.928,0,0,0-3.553,4.213l-1.507-.825a15.724,15.724,0,0,0-1.84,5.8l1.7.193a13.96,13.96,0,0,0,.473,5.49l-1.65.481a15.555,15.555,0,0,0,2.8,5.406l1.346-1.072a13.929,13.929,0,0,0,4.213,3.553l-.585,1.066-.235.437-.005,0a15.725,15.725,0,0,0,5.8,1.84l.193-1.7a13.989,13.989,0,0,0,5.5-.477l.481,1.65a15.529,15.529,0,0,0,5.4-2.793l-1.072-1.346a13.97,13.97,0,0,0,3.558-4.217l1.17.643.337.182a15.7,15.7,0,0,0,1.835-5.795l-1.7-.193a14.114,14.114,0,0,0-.472-5.5l1.65-.481a15.644,15.644,0,0,0-2.8-5.4Zm-6.218,14.678a7.6,7.6,0,1,1,1.205-10.685A7.6,7.6,0,0,1,920.3,1516.089Z" transform="translate(-791.814 -1314.957)" fill="none" stroke="#003880" stroke-width="4"/>
      </g>
    </g>
    <g id="Group_7876" data-name="Group 7876" transform="translate(1140 2984)">
      <g id="Group_7875" data-name="Group 7875" clip-path="url(#clip-path)">
        <path id="Path_3917" data-name="Path 3917" d="M1162.677,664.145c-1.334-7.9-13.505-11.471-13.267-6.313l-55.794.327c-3.864.023-7,3.5-7,7.769l-.116,146.739c0,4.423,3.184,8.04,7.123,8.074l56.957.489a4.559,4.559,0,0,0,2.058,1.982c6.532.139,9.665-3.087,10.809-6.733a8.784,8.784,0,0,0,.566-3.2c-.228-1.91-.923-147.278-1.335-149.131" transform="translate(-955.964 -576.673)" fill="#66a2ff"/>
        <path id="Path_3918" data-name="Path 3918" d="M1099.139,823.387l-65.378-.421c-4.08-.026-7.38-3.741-7.372-8.292l.245-150.908c.007-4.389,3.255-7.954,7.256-7.967l64.108-.208c4.033-.013,7.33,3.547,7.364,7.956l1.162,151.605c.035,4.573-3.272,8.262-7.385,8.235" transform="translate(-903.075 -576.826)" fill="#fff"/>
        <path id="Path_3919" data-name="Path 3919" d="M1108.124,829.657a5.88,5.88,0,0,1-.826.052l-65.358-.494c-3.506-.027-6.371-3.283-6.365-7.256l.226-150.742c.006-3.832,2.826-6.958,6.265-6.973l64.1-.279c.1,0,.2,0,.3.006a6.066,6.066,0,0,1,4.248,2.067,7.244,7.244,0,0,1,1.806,4.8L1113.67,822.6c.027,3.6-2.349,6.632-5.546,7.061" transform="translate(-911.158 -584.194)"/>
        <path id="Path_3920" data-name="Path 3920" d="M1126.2,727.521l1.1,151.231-73.629-.441.188-150.79Z" transform="translate(-927.083 -640.114)" fill="#0050cc"/>
        <path id="Path_3921" data-name="Path 3921" d="M1277.563,1316.512h-19.711a3.032,3.032,0,0,1,0-6.065h19.711a3.032,3.032,0,1,1,0,6.065" transform="translate(-1104.062 -1153.006)" fill="#ff9f34"/>
        <path id="Path_3922" data-name="Path 3922" d="M1173.472,1129.14h-50.967a3.032,3.032,0,0,1,0-6.065h50.967a3.032,3.032,0,1,1,0,6.065" transform="translate(-984.977 -988.146)" fill="#fff"/>
        <path id="Path_3923" data-name="Path 3923" d="M1173.472,1210.433h-50.967a3.032,3.032,0,1,1,0-6.065h50.967a3.032,3.032,0,1,1,0,6.065" transform="translate(-984.977 -1059.672)" fill="#fff"/>
        <path id="Path_3924" data-name="Path 3924" d="M1208.289,1224.026a1.068,1.068,0,1,1-1.068-1.068,1.068,1.068,0,0,1,1.068,1.068" transform="translate(-1061.243 -1076.029)" fill="#80b2ff"/>
        <path id="Path_3925" data-name="Path 3925" d="M1238.756,1224.026a1.068,1.068,0,1,1-1.068-1.068,1.068,1.068,0,0,1,1.068,1.068" transform="translate(-1088.05 -1076.029)" fill="#80b2ff"/>
        <path id="Path_3926" data-name="Path 3926" d="M1269.223,1224.026a1.068,1.068,0,1,1-1.068-1.068,1.068,1.068,0,0,1,1.068,1.068" transform="translate(-1114.857 -1076.029)" fill="#80b2ff"/>
        <path id="Path_3927" data-name="Path 3927" d="M1299.689,1224.026a1.068,1.068,0,1,1-1.068-1.068,1.068,1.068,0,0,1,1.068,1.068" transform="translate(-1141.662 -1076.029)" fill="#80b2ff"/>
        <path id="Path_3928" data-name="Path 3928" d="M1330.156,1224.026a1.068,1.068,0,1,1-1.068-1.068,1.068,1.068,0,0,1,1.068,1.068" transform="translate(-1168.469 -1076.029)" fill="#80b2ff"/>
        <path id="Path_3929" data-name="Path 3929" d="M1360.623,1224.026a1.068,1.068,0,1,1-1.068-1.068,1.068,1.068,0,0,1,1.068,1.068" transform="translate(-1195.276 -1076.029)" fill="#80b2ff"/>
        <path id="Path_3930" data-name="Path 3930" d="M1391.09,1224.026a1.068,1.068,0,1,1-1.068-1.068,1.068,1.068,0,0,1,1.068,1.068" transform="translate(-1222.082 -1076.029)" fill="#80b2ff"/>
        <path id="Path_3931" data-name="Path 3931" d="M1421.557,1224.026a1.068,1.068,0,1,1-1.068-1.068,1.068,1.068,0,0,1,1.068,1.068" transform="translate(-1248.889 -1076.029)" fill="#80b2ff"/>
        <path id="Path_3932" data-name="Path 3932" d="M1452.023,1224.026a1.068,1.068,0,1,1-1.068-1.068,1.068,1.068,0,0,1,1.068,1.068" transform="translate(-1275.695 -1076.029)" fill="#80b2ff"/>
        <path id="Path_3933" data-name="Path 3933" d="M1282.88,869.128a11.716,11.716,0,1,1-11.716-11.716,11.716,11.716,0,0,1,11.716,11.716" transform="translate(-1108.135 -754.4)" fill="#fff"/>
        <path id="Path_3934" data-name="Path 3934" d="M1330.04,896.874a3.7,3.7,0,0,0,2.874-1.408,3.608,3.608,0,0,0,.792-2.288,3.681,3.681,0,1,0-7.362,0,3.6,3.6,0,0,0,.792,2.288,3.714,3.714,0,0,0,2.9,1.408" transform="translate(-1166.994 -782.617)" fill="#005cea"/>
        <path id="Path_3935" data-name="Path 3935" d="M1315.777,965.075c0,2.332-13.024,2.332-13.024,0l0-2.718c.515-3.715,11.961-3.871,13.022,0Z" transform="translate(-1146.237 -844.233)" fill="#005cea"/>
        <path id="Path_3936" data-name="Path 3936" d="M1146.95,1215.025v-.163a1.193,1.193,0,1,0-2.386,0v.163h-.181v2.15c0,.372,2.756.372,2.756,0v-2.15Zm-1.961-.163a.772.772,0,1,1,1.544,0v.163h-1.544Zm.971,1.246v.621a.2.2,0,0,1-.207.191.184.184,0,0,1-.191-.191v-.621a.362.362,0,0,1-.191-.319.382.382,0,0,1,.765,0,.384.384,0,0,1-.175.319" transform="translate(-1006.894 -1067.856)" fill="#4d4d4d"/>
        <path id="Path_3937" data-name="Path 3937" d="M1150.135,1135.061a.781.781,0,0,0,.607-.3.761.761,0,0,0,.167-.483.777.777,0,1,0-1.554,0,.759.759,0,0,0,.167.483.783.783,0,0,0,.613.3" transform="translate(-1011.268 -997.319)" fill="#4d4d4d"/>
        <path id="Path_3938" data-name="Path 3938" d="M1147.022,1149.453c0,.492-2.762.492-2.762,0l.015-.574c.109-.784,2.524-.817,2.748,0Z" transform="translate(-1006.786 -1010.322)" fill="#4d4d4d"/>
        <path id="Path_3939" data-name="Path 3939" d="M1216.127,1142.687h-11.169a.89.89,0,0,1,0-1.78h11.169a.89.89,0,1,1,0,1.78" transform="translate(-1059.408 -1003.835)" fill="#80b2ff"/>
        <path id="Path_3940" data-name="Path 3940" d="M1338.739,1142.687H1327.57a.89.89,0,1,1,0-1.78h11.169a.89.89,0,1,1,0,1.78" transform="translate(-1167.289 -1003.835)" fill="#80b2ff"/>
        <path id="Path_3941" data-name="Path 3941" d="M1231.8,1621.327v22.094c0,2.455,30.041,2.455,30.041,0v-22.094Z" transform="translate(-1083.807 -1426.536)" fill="#fff"/>
        <path id="Path_3942" data-name="Path 3942" d="M1333.37,1663.625a3.709,3.709,0,1,1-3.709-3.709,3.709,3.709,0,0,1,3.709,3.709" transform="translate(-1166.649 -1460.489)" fill="#005cea"/>
        <path id="Path_3943" data-name="Path 3943" d="M1345.69,1710.326h0a1.52,1.52,0,0,1-1.52-1.52V1700.3h3.041v8.507a1.52,1.52,0,0,1-1.52,1.52" transform="translate(-1182.678 -1496.02)" fill="#005cea"/>
        <path id="Path_3944" data-name="Path 3944" d="M1278.49,1506.6h-3.041v-1.488a9.347,9.347,0,1,0-18.695,0v1.488h-3.04v-1.488a12.388,12.388,0,1,1,24.776,0Z" transform="translate(-1103.09 -1313.389)" fill="#fff"/>
      </g>
    </g>
    <g id="Group_7878" data-name="Group 7878" transform="translate(1140 2984)">
      <g id="Group_7877" data-name="Group 7877" clip-path="url(#clip-path)">
        <path id="Path_3945" data-name="Path 3945" d="M1565.927,1398.228h0c0-.117,0-.169,0-.181,0,.021,0,.181,0,.181" transform="translate(-1377.792 -1230.082)" fill="#d9ffff"/>
        <path id="Path_3946" data-name="Path 3946" d="M1565.927,1398.228h0c0-.117,0-.169,0-.181,0,.021,0,.181,0,.181" transform="translate(-1377.792 -1230.082)" fill="#d9ffff"/>
        <path id="Path_3947" data-name="Path 3947" d="M2148.3,1400.831s0-.159,0-.181c0,.012,0,.063,0,.181" transform="translate(-1890.194 -1232.372)" fill="#d9ffff"/>
        <path id="Path_3948" data-name="Path 3948" d="M2148.3,1400.831s0-.159,0-.181c0,.012,0,.063,0,.181" transform="translate(-1890.194 -1232.372)" fill="#d9ffff"/>
        <path id="Path_3949" data-name="Path 3949" d="M1613.179,1262.7c-7.745,8.3-20.1,15.1-33.328,17.993,0,.883-.026,5.777-.127,28.332-.135,30.088,28.5,44.792,32.946,47.048,4.308-1.983,33.3-16.663,33.438-46.751.1-22.555.122-27.449.127-28.332-13.2-3.015-25.385-9.924-33.056-18.289" transform="translate(-1389.931 -1110.999)" fill="#fff"/>
        <path id="Path_3950" data-name="Path 3950" d="M1628.168,1289.864c-7.984,7.324-19.046,13.081-31.21,16.219l-.12,26.837c-.055,12.28,4.824,23.389,14.5,33.019a69.365,69.365,0,0,0,16.435,12.017c.146-.074.306-.157.463-.24v-87.791l-.069-.062" transform="translate(-1404.99 -1134.896)" fill="#80b2ff"/>
        <path id="Path_3951" data-name="Path 3951" d="M1858.19,1290.385v87.791a69.4,69.4,0,0,0,16.079-11.63c9.762-9.544,14.739-20.608,14.794-32.888l.12-26.837c-12.1-3.237-23.08-9.069-30.993-16.435" transform="translate(-1634.942 -1135.355)" fill="#4d93ff"/>
        <path id="Path_3952" data-name="Path 3952" d="M1720.427,1514.283c-9.26,1.428-21.87,9.874-29.825,20.029-1.116-4.788-6.125-9.16-8.746-10.115l-7.94,7.98c4.958,2.234,10.375,8.564,11.093,15.045l7.932,1.229c3.344-6.605,11.981-22.406,29.163-30.9a13.015,13.015,0,0,0-1.677-3.266" transform="translate(-1472.808 -1332.353)" fill="#0046b3"/>
      </g>
    </g>
    <g id="Group_7880" data-name="Group 7880" transform="translate(1140 2984)">
      <g id="Group_7879" data-name="Group 7879" clip-path="url(#clip-path)">
        <path id="Path_3953" data-name="Path 3953" d="M731.5,1104.6l-1.4,5.613-.254,1.043c-.282,1.326-9.04.762-8.42-.789l.522-1.143,2.694-5.909Z" transform="translate(-634.729 -970.846)" fill="#f7a58e"/>
        <path id="Path_3954" data-name="Path 3954" d="M730.83,981.837c.089,6.086-2.736,11.036-7.158,11.014s-8.7-3.773-8.854-11.092a8.157,8.157,0,0,1,8.046-8.406c4.421.021,7.9,3.82,7.965,8.484" transform="translate(-628.937 -856.412)" fill="#f7a58e"/>
        <path id="Path_3955" data-name="Path 3955" d="M686.81,959.424s8.81.435,9.543,7.107c.978,5.856-3.415,1.551-5.209,5.481-2.055,4.5.039,7.8,2.71,8.69-2.374,3.315-15.948,3.2-19.442-2.62-2.393-7.295.992-18.253,12.4-18.658" transform="translate(-592.749 -844.156)"/>
        <path id="Path_3956" data-name="Path 3956" d="M810.33,1051.149a1.641,1.641,0,1,1-1.769-1.5,1.641,1.641,0,0,1,1.769,1.5" transform="translate(-710.091 -923.534)" fill="#f7a58e"/>
        <path id="Path_3957" data-name="Path 3957" d="M821.89,2002.421c.413-.437,2.361-.444,2.539.2s-.165,1.109.657,2.134a8.331,8.331,0,0,1-2.665,0c-.514-.149-.944-1.9-.531-2.337" transform="translate(-723 -1761.573)" fill="#fff"/>
        <path id="Path_3958" data-name="Path 3958" d="M726.745,1471.728h4.747c.444-20.088.359-41.955.2-58.424-.057-5.9-.22-8.881-1.289-12.422-2.161-7.15-12.318-4.949-13.039,1.532-.3,3.6-.52,10.613,6.128,34.453-2.879,10.5,2.144,23.082,3.254,34.861" transform="translate(-631.074 -1228.669)" fill="#00050d"/>
        <path id="Path_3959" data-name="Path 3959" d="M795.581,2015.018a5.155,5.155,0,0,1-2.64-1.175,2.891,2.891,0,0,1-2.539.477c-1.347-.2-1.525-.827-2.491-.744-.408,1.133-1.4,3.675-.442,4.264h9.981c.891-.814.868-2.55-1.868-2.823" transform="translate(-692.505 -1771.653)" fill="#fff"/>
        <path id="Path_3960" data-name="Path 3960" d="M620.919,2007.013c.347-.368,1.984-.373,2.134.17s-.139.932.552,1.794a7.009,7.009,0,0,1-2.239,0c-.432-.125-.793-1.6-.446-1.964" transform="translate(-546.198 -1765.656)" fill="#fff"/>
        <path id="Path_3961" data-name="Path 3961" d="M611.975,1405.862c-.971-7.406-14.146-6.645-15.022-.179-.317,3.48-1.283,8.717,1.193,34.562-5.223,9.863-3.747,24.015-5.307,34.433-.172,1.585,4.318,1.966,4.667.553,4.785-19.328,11.471-41.013,13.957-57.093.9-5.829.993-8.608.513-12.276" transform="translate(-521.609 -1232.3)" fill="#00050d"/>
        <path id="Path_3962" data-name="Path 3962" d="M593.956,2012.742a3.673,3.673,0,0,1-2.038-1.412,2.8,2.8,0,0,1-2.46,1.02c-1.347-.2-1.525-.827-2.491-.743-.408,1.132-1.4,3.674-.442,4.264h9.708c.891-.814.46-2.856-2.276-3.129" transform="translate(-515.703 -1769.683)" fill="#fff"/>
        <path id="Path_3963" data-name="Path 3963" d="M918.846,1118.357l-2.457.545c.056,1.293-.1,3.358,0,5.638l4.133-.544c-.629-2.3-1.236-4.308-1.676-5.639" transform="translate(-806.261 -983.995)" fill="#f7a58e"/>
        <path id="Path_3964" data-name="Path 3964" d="M785.216,1165.837c-.092,4.519-.212,6.455-.25,8.235l-12.262-7.864c-3.737-1.134-8.094,6.262-3.369,9.6,0,0,16.33,9.221,20,6.564,1.987-1.437,1.472-11.744.01-17.078Z" transform="translate(-675.088 -1025.292)" fill="#fff"/>
        <path id="Path_3965" data-name="Path 3965" d="M918.377,1091.478c-1.135-1.332-3.629-.867-3.818-.831l.24,3.683c.056,1.818,2.311,1.88,3.23.313,0,0,1.331-1.853.348-3.164" transform="translate(-804.682 -959.519)" fill="#f7a58e"/>
        <path id="Path_3966" data-name="Path 3966" d="M912.425,1068.713c-.827-4.012-1.663-3.474-1.663-3.474s.134,1.417.508,3.919c.28,1.417,1.257.562,1.155-.445" transform="translate(-801.341 -937.237)" fill="#f7a58e"/>
        <path id="Path_3967" data-name="Path 3967" d="M652.289,1169.824c.833-4.052,1.279-8.053-2.9-10.569-2.476-1.491-10.436-2.557-14.157-1.325-3.75,1.676-2.939,8.986-3.642,20.528-2.584,5.76-3.708,7.653-4.473,13.264,0,0,1.383,4.227,11.122,4.233,4.423,0,10.936-.391,13.9-2.646-.3-3.826-1.9-7.513-2.562-12.929,0,0,2.649-10.09,2.71-10.555" transform="translate(-551.776 -1018.339)" fill="#fff"/>
        <path id="Path_3968" data-name="Path 3968" d="M541.042,1161.47a62.668,62.668,0,0,0-11.138,11.893c-2.107,2.914-7.565,14.628-7.565,14.628l3.474,2.561,9.4-12.8,11.479-9.415c3.983-4.065-1.193-10.263-5.646-6.864" transform="translate(-459.584 -1021.064)" fill="#fff"/>
        <path id="Path_3969" data-name="Path 3969" d="M510.224,1380.056l2.252-4.652c.53,1.4,3.107,2.675,3.848,2.649,0,0-2.421,3.484-3.013,4.076s-3.037-.41-3.086-2.072" transform="translate(-448.924 -1210.159)" fill="#f7a58e"/>
        <path id="Path_3970" data-name="Path 3970" d="M500.378,1411.687c-.009.035,0,.082-.008.116a3.342,3.342,0,0,1-1.766,2.684.2.2,0,0,1-.091.036c1.224-.245,1.59,1.395.968,1.773-1.8,1.219-4.368-.458-4.586-1.475-.22-1.033,1.831-4.449,1.831-4.449,1.047-.845,3.725-.714,3.651,1.315" transform="translate(-435.423 -1240.495)" fill="#f7a58e"/>
        <path id="Path_3971" data-name="Path 3971" d="M510.127,1422.666a3.227,3.227,0,0,1-1.828,2.707c-1.009-.028-1.368-.089-2.331-.086a2.221,2.221,0,0,0,1.418-2.7,2.721,2.721,0,0,1,2.741.084" transform="translate(-445.18 -1251.358)" fill="#e6856a"/>
        <path id="Path_3972" data-name="Path 3972" d="M518.629,1411.212a11.67,11.67,0,0,1-.222,4.82s-.968.051-.878-1.778c.024-.476-.045-1.51-.516-1.854-1.45-.958-1.683-1.837-1.151-2.557.709-.961,2.711.014,2.767,1.369" transform="translate(-453.656 -1240.121)" fill="#f7a58e"/>
        <path id="Path_3973" data-name="Path 3973" d="M501.892,1452.925c.786.545,2.868,1.6,3.2,1.342s-1.336-2.033-2.411-2.267-1.189.646-.786.926" transform="translate(-441.405 -1277.518)" fill="#f7a58e"/>
      </g>
    </g>
  </g>
</svg>
