<svg xmlns="http://www.w3.org/2000/svg" xmlns:xlink="http://www.w3.org/1999/xlink" width="140" height="46.457" viewBox="0 0 140 46.457">
  <defs>
    <clipPath id="clip-path">
      <rect id="Rectangle_523" data-name="Rectangle 523" width="140" height="46.457" transform="translate(0 0.035)" fill="#101010"/>
    </clipPath>
  </defs>
  <g id="layar-white" transform="translate(0 -0.035)" clip-path="url(#clip-path)">
    <path id="Path_3700" data-name="Path 3700" d="M121.067,23.229c0,.978.35,14.671-4.121,19.072-4.471,4.471-19.072,4.122-19.072,4.122S83.2,46.772,78.8,42.3C74.331,37.83,74.68,24.137,74.68,23.229c0-.978-.349-14.671,4.122-19.072C83.273-.314,97.874.035,97.874.035s14.67-.349,19.072,4.122C121.417,8.628,121.067,22.321,121.067,23.229Z" fill="rgba(94,81,81,0.3)"/>
    <path id="Path_3701" data-name="Path 3701" d="M23.613,29.167V6.742a2.24,2.24,0,0,0-2.305-2.305,2.3,2.3,0,0,0-2.375,2.305V29.237a4.681,4.681,0,0,0,4.681,4.681,2.24,2.24,0,0,0,2.305-2.305A2.359,2.359,0,0,0,23.613,29.167Z"/>
    <path id="Path_3702" data-name="Path 3702" d="M45.9,12.82a2.18,2.18,0,0,0-2.166,1.886,9.768,9.768,0,0,0-5.589-1.886,9.439,9.439,0,0,0-7.126,3.144,10.644,10.644,0,0,0-2.864,7.405,10.77,10.77,0,0,0,2.864,7.405,9.672,9.672,0,0,0,12.715,1.257A2.375,2.375,0,0,0,45.9,33.848a2.251,2.251,0,0,0,2.236-2.236V15.055A2.251,2.251,0,0,0,45.9,12.82ZM41.986,27.7a5.441,5.441,0,0,1-3.912,1.677A5.074,5.074,0,0,1,34.161,27.7a6.468,6.468,0,0,1-1.607-4.331,6.023,6.023,0,0,1,1.607-4.331,5.134,5.134,0,0,1,3.912-1.747,5.007,5.007,0,0,1,3.912,1.747,6.381,6.381,0,0,1,1.677,4.331A6.069,6.069,0,0,1,41.986,27.7Z"/>
    <path id="Path_3703" data-name="Path 3703" d="M67.9,12.82a2.149,2.149,0,0,0-2.166,2.236v9.92a4.249,4.249,0,0,1-4.331,4.261,4.354,4.354,0,0,1-4.4-4.261v-9.92A2.165,2.165,0,0,0,54.77,12.82,2.238,2.238,0,0,0,52.6,15.055v9.92a8.916,8.916,0,0,0,8.8,8.872,8.606,8.606,0,0,0,3.982-.978,5.677,5.677,0,0,1-5.24,3.842,5.956,5.956,0,0,1-2.445-.559,2.36,2.36,0,0,0-3,.908,2.227,2.227,0,0,0,1.118,3,9.947,9.947,0,0,0,14.391-9.012v-16A2.36,2.36,0,0,0,67.9,12.82Z"/>
    <path id="Path_3704" data-name="Path 3704" d="M114.291,17.361c-3.213,0-6.148,3.772-6.148,6.986v7.2a2.305,2.305,0,1,1-4.61,0V15.125a2.305,2.305,0,1,1,4.61,0v.14a7.552,7.552,0,0,1,5.589-2.445h.489a2.326,2.326,0,0,1,2.306,2.305A2.166,2.166,0,0,1,114.291,17.361ZM96.9,12.82a2.18,2.18,0,0,0-2.166,1.886,9.768,9.768,0,0,0-5.589-1.886,9.439,9.439,0,0,0-7.126,3.144,10.645,10.645,0,0,0-2.864,7.405,10.77,10.77,0,0,0,2.864,7.405A9.672,9.672,0,0,0,94.73,32.031,2.375,2.375,0,0,0,96.9,33.848a2.251,2.251,0,0,0,2.236-2.236V15.055A2.207,2.207,0,0,0,96.9,12.82ZM93.054,27.7a5.441,5.441,0,0,1-3.912,1.677A5.074,5.074,0,0,1,85.229,27.7a6.468,6.468,0,0,1-1.607-4.331,6.023,6.023,0,0,1,1.607-4.331,5.134,5.134,0,0,1,3.912-1.747,5.007,5.007,0,0,1,3.912,1.747,6.381,6.381,0,0,1,1.677,4.331A6.731,6.731,0,0,1,93.054,27.7Z"/>
  </g>
</svg>
