<svg id="Page-1" xmlns="http://www.w3.org/2000/svg" width="142" height="44" viewBox="0 0 142 44">
  <g id="New-to-MacAppStudio" transform="translate(-884 -4122)">
    <g id="airbnb" transform="translate(884 4122)">
      <path id="Shape" d="M74.839,11.056a2.884,2.884,0,1,1-2.884-2.863,2.868,2.868,0,0,1,2.884,2.863Zm-11.889,5.77v.7a5.555,5.555,0,0,0-4.3-1.763,8.461,8.461,0,0,0-8.606,8.721,8.461,8.461,0,0,0,8.606,8.721,5.4,5.4,0,0,0,4.3-1.806v.748a.6.6,0,0,0,.621.616h3.593V16.207H63.571a.635.635,0,0,0-.621.619Zm0,10.614a4.416,4.416,0,0,1-3.593,1.806c-2.839,0-5.013-1.762-5.013-4.757s2.174-4.757,5.013-4.757a4.538,4.538,0,0,1,3.593,1.806Zm6.876-11.231h4.258V32.769H69.826V16.208Zm63.613-.441a5.559,5.559,0,0,0-4.3,1.763V8.237h-4.258V32.769h3.594a.631.631,0,0,0,.62-.617V31.4a5.509,5.509,0,0,0,4.3,1.806A8.485,8.485,0,0,0,142,24.49a8.478,8.478,0,0,0-8.561-8.722Zm-.71,13.434a4.353,4.353,0,0,1-3.594-1.806v-5.9a4.828,4.828,0,0,1,3.594-1.806c2.839,0,5.013,1.762,5.013,4.757S135.568,29.2,132.729,29.2ZM122.66,22.948v9.866H118.4V23.432c0-2.73-.887-3.832-3.281-3.832a4.78,4.78,0,0,0-3.461,1.63V32.77H107.4V16.209h3.37a.633.633,0,0,1,.622.617v.7a6.133,6.133,0,0,1,4.524-1.763,6.943,6.943,0,0,1,4.659,1.586c1.507,1.233,2.085,2.819,2.085,5.594Zm-25.6-7.18a5.557,5.557,0,0,0-4.3,1.763V8.237H88.5V32.769h3.593a.632.632,0,0,0,.621-.617V31.4a5.508,5.508,0,0,0,4.3,1.806,8.485,8.485,0,0,0,8.606-8.72,8.425,8.425,0,0,0-8.561-8.722ZM96.353,29.2A4.352,4.352,0,0,1,92.76,27.4v-5.9a4.825,4.825,0,0,1,3.593-1.806c2.84,0,5.013,1.762,5.013,4.757S99.192,29.2,96.353,29.2ZM84.819,15.767a6.819,6.819,0,0,1,1.952.221v3.919S83.222,18.719,81,21.23V32.813H76.745v-16.6h3.594a.632.632,0,0,1,.621.617v.7a5.848,5.848,0,0,1,3.86-1.763Zm-44.227,15.5c-.222-.528-.444-1.1-.665-1.586-.355-.793-.71-1.542-1.02-2.246l-.044-.044c-3.061-6.607-6.343-13.3-9.8-19.907l-.133-.265Q28.38,6.2,27.862,5.154a12.666,12.666,0,0,0-1.6-2.423A7.184,7.184,0,0,0,20.631,0a7.466,7.466,0,0,0-5.678,2.643,15.1,15.1,0,0,0-1.6,2.423q-.519,1.041-1.064,2.07l-.133.265c-3.416,6.606-6.743,13.3-9.8,19.907l-.045.087C2,28.1,1.645,28.849,1.29,29.641q-.332.727-.665,1.586a9.816,9.816,0,0,0-.532,4.757A9.372,9.372,0,0,0,5.86,43.3a9.161,9.161,0,0,0,3.593.7,10.093,10.093,0,0,0,1.154-.088,11.774,11.774,0,0,0,4.436-1.5,22.429,22.429,0,0,0,5.5-4.58,23.272,23.272,0,0,0,5.5,4.58,11.777,11.777,0,0,0,4.436,1.5A10,10,0,0,0,31.634,44a9,9,0,0,0,3.593-.7,9.355,9.355,0,0,0,5.767-7.311,8.289,8.289,0,0,0-.4-4.712Zm-20.006,2.29a21.667,21.667,0,0,1-4.48-8.191,7.054,7.054,0,0,1-.133-2.687,4.249,4.249,0,0,1,.71-1.85,4.722,4.722,0,0,1,3.9-1.938,4.554,4.554,0,0,1,3.9,1.938,4.267,4.267,0,0,1,.71,1.85,7.039,7.039,0,0,1-.133,2.687A22.373,22.373,0,0,1,20.586,33.562Zm17.7,2.07a6.553,6.553,0,0,1-4.036,5.154,6.762,6.762,0,0,1-3.371.44,8.779,8.779,0,0,1-3.371-1.145,20.7,20.7,0,0,1-5.057-4.273c2.927-3.567,4.7-6.827,5.368-9.733a10.943,10.943,0,0,0,.222-3.744,7.112,7.112,0,0,0-1.2-3,7.493,7.493,0,0,0-6.255-3.127,7.607,7.607,0,0,0-6.254,3.127,7.119,7.119,0,0,0-1.2,3,9.085,9.085,0,0,0,.222,3.744c.665,2.906,2.484,6.21,5.367,9.777a19.894,19.894,0,0,1-5.057,4.273,8.751,8.751,0,0,1-3.371,1.145,7.144,7.144,0,0,1-3.372-.44,6.553,6.553,0,0,1-4.036-5.154,7.237,7.237,0,0,1,.4-3.435c.133-.441.355-.881.577-1.409.311-.7.665-1.454,1.02-2.2l.045-.088c3.06-6.563,6.343-13.257,9.759-19.775l.133-.265c.355-.66.71-1.365,1.065-2.026a9.661,9.661,0,0,1,1.242-1.939,4.68,4.68,0,0,1,7.1,0,9.741,9.741,0,0,1,1.242,1.939c.355.661.71,1.366,1.064,2.026l.133.265q5.046,9.818,9.715,19.819v.044c.355.706.666,1.5,1.021,2.2.222.528.444.968.576,1.408a7.393,7.393,0,0,1,.309,3.391Z" fill="rgba(0,0,0,0.85)"/>
    </g>
  </g>
</svg>
