<svg id="Page-1" xmlns="http://www.w3.org/2000/svg" width="151" height="44" viewBox="0 0 151 44">
  <g id="New-to-MacAppStudio" transform="translate(-884 -4213)">
    <g id="swiggy-logo" transform="translate(884 4213)">
      <path id="Shape" d="M14.9,44a.523.523,0,0,1-.091-.078A115.448,115.448,0,0,1,7.672,33.892c-1-1.676-1.649-2.99-1.528-3.327.326-.88,6.143-1.362,7.936-.566.544.241.531.561.531.747,0,.808-.042,2.965-.042,2.965a.809.809,0,1,0,1.619-.006l-.006-5.389c0-.47-.507-.585-.6-.6-.936-.006-2.833-.012-4.874-.012-4.5,0-5.5.187-6.269-.313C2.774,26.316.068,19.01,0,14.9a14.887,14.887,0,0,1,29.68-1.682v.018c.151,1.8-9.748,2.182-11.705,1.657a.535.535,0,0,1-.375-.518c0-1.368-.012-5.214-.012-5.214a.809.809,0,1,0-1.619.006l.018,7.088a.6.6,0,0,0,.489.585h6.143c3.28,0,4.657.38,5.569,1.079a2.476,2.476,0,0,1,.64,2.513C26.994,30.716,15.343,43.464,14.9,44ZM46.491,19.981c2.941,1.26,4.759,2.658,4.759,5.732,0,3.134-2.374,5.159-6.046,5.159a6.993,6.993,0,0,1-6.553-3.7l-.193-.38,3.5-2.031.229.374a3.212,3.212,0,0,0,2.947,1.838c1.1,0,1.842-.488,1.842-1.218,0-.808-.538-1.109-2.193-1.832l-.84-.362c-2.247-.958-4.325-2.29-4.325-5.515,0-2.9,2.217-4.918,5.394-4.918a5.457,5.457,0,0,1,5.194,2.935l.211.374-3.388,2.182-.236-.416c-.568-1.013-1.1-1.217-1.776-1.217-.707,0-1.166.392-1.166,1,0,.7.338,1.007,1.806,1.639Zm24.77.591,2.47-6.9h4.24L71.69,31.156h-.942L66.936,22.97c-.175-.374-.362-.838-.52-1.266-.163.428-.35.892-.526,1.272l-3.962,8.185h-.936L54.609,13.682h4.53l2.495,6.9c.157.44.32.977.465,1.471a13.854,13.854,0,0,1,.586-1.513l3.28-7h.906l3.328,7a13.854,13.854,0,0,1,.586,1.513c.151-.5.32-1.037.477-1.477ZM82.912,30.655V13.321h4.276V30.655Zm18.307-5.829V20.951h7.942v7.769l-.163.133a10.977,10.977,0,0,1-6.583,2.013c-5.509,0-9.35-3.653-9.35-8.884a8.55,8.55,0,0,1,8.824-8.86c2.809,0,4.875.8,6.3,2.423l.278.319-2.917,2.893-.315-.325a4.106,4.106,0,0,0-3.34-1.362c-2.615,0-4.445,2.019-4.445,4.912a4.655,4.655,0,0,0,4.977,4.961,8.161,8.161,0,0,0,2.76-.452v-1.67Zm21.683,0V20.951h7.943v7.769l-.163.133a11,11,0,0,1-6.584,2.013c-5.508,0-9.35-3.653-9.35-8.884a8.549,8.549,0,0,1,8.819-8.86c2.814,0,4.874.8,6.3,2.423l.278.319-2.917,2.893-.32-.325a4.112,4.112,0,0,0-3.346-1.362c-2.616,0-4.446,2.019-4.446,4.912a4.655,4.655,0,0,0,4.977,4.961,8.157,8.157,0,0,0,2.76-.452v-1.67ZM146.53,13.321H151l-6.137,11.536v5.8h-4.3V25.1l-6.541-11.777h4.771l3.02,5.527a21.385,21.385,0,0,1,.924,2.043,19.77,19.77,0,0,1,.894-2.037Z" fill="rgba(0,0,0,0.85)"/>
    </g>
  </g>
</svg>
