<svg id="documents" xmlns="http://www.w3.org/2000/svg" width="64" height="64" viewBox="0 0 64 64">
  <circle id="Ellipse_1382" data-name="Ellipse 1382" cx="32" cy="32" r="32" fill="#2494c3"/>
  <path id="Path_10800" data-name="Path 10800" d="M48.4,21V45.7a1.255,1.255,0,0,1-.6,1.1.844.844,0,0,1-.7.2H15.6a.749.749,0,0,1-.5-.1,1.3,1.3,0,0,1-.8-1.2V21a1.324,1.324,0,0,1,1.3-1.3H31.3a1.525,1.525,0,0,0,1.2-.7l.7-1.3a1.387,1.387,0,0,1,1.2-.7H41a1.324,1.324,0,0,1,1.3,1.3,1.415,1.415,0,0,0,1.3,1.4H47A1.236,1.236,0,0,1,48.4,21Z" fill="#fdc97c"/>
  <rect id="Rectangle_4102" data-name="Rectangle 4102" width="30.4" height="13.3" transform="translate(16.3 24.6)" fill="#dadde0"/>
  <rect id="Rectangle_4103" data-name="Rectangle 4103" width="30.4" height="12.6" transform="translate(16.3 25.3)" fill="#eaeaea"/>
  <path id="Path_10801" data-name="Path 10801" d="M52,28.3l-1.4,7.4H12.2l-.2-.9a.854.854,0,0,1,0-.7,1.287,1.287,0,0,1,1.2-1.2H27.4a1.525,1.525,0,0,0,1.2-.7L32,27a1.561,1.561,0,0,1,1.3-.8H50.7A1.416,1.416,0,0,1,52,27.6C52,27.8,52,28.1,52,28.3Z" fill="#ffe5ac"/>
  <path id="Path_10802" data-name="Path 10802" d="M52,28.8,48.8,45.7a1.594,1.594,0,0,1-.9,1.2,2.2,2.2,0,0,1-.8.1H15.6a.749.749,0,0,1-.5-.1A1.82,1.82,0,0,1,14,45.6L12,35.2v-.7a1.287,1.287,0,0,1,1.2-1.2H27.4a1.525,1.525,0,0,0,1.2-.7L32,27.3a1.561,1.561,0,0,1,1.3-.8H50.7A1.416,1.416,0,0,1,52,27.9Q52,28.35,52,28.8Z" fill="#fad784"/>
</svg>
