<svg id="Iconly_Light-outline_Document" data-name="Iconly/Light-outline/Document" xmlns="http://www.w3.org/2000/svg" width="24" height="24" viewBox="0 0 24 24">
  <rect id="Iconly_Light-outline_Document_Background_" data-name="Iconly/Light-outline/Document (Background)" width="24" height="24" fill="none"/>
  <g id="Document" transform="translate(3 2)">
    <path id="Document-2" data-name="Document" d="M12.863,20H5.138a6.972,6.972,0,0,1-1.171-.094l-.218-.041A4.445,4.445,0,0,1,.985,18.179,5.549,5.549,0,0,1,0,14.791V5.209a7.356,7.356,0,0,1,.06-.96C.411,1.549,2.261,0,5.138,0h7.725C16.05,0,17.97,1.918,18,5.132v9.659C18,18.053,16.08,20,12.863,20ZM5.138,1.457c-2.456,0-3.7,1.262-3.7,3.752v9.581c0,2.49,1.245,3.752,3.7,3.752h7.716c2.45,0,3.692-1.262,3.692-3.752V5.209c0-2.49-1.242-3.752-3.692-3.752Zm7.455,13.5H5.382a.724.724,0,0,1,0-1.448h7.211a.724.724,0,0,1,0,1.448Zm.079-4.225a.714.714,0,0,1-.079,0H5.382a.735.735,0,0,1,0-1.458h7.211a.719.719,0,0,1,.077,0,.729.729,0,0,1,.614.343.742.742,0,0,1,0,.78A.727.727,0,0,1,12.671,10.733ZM8.134,6.5H5.391a.734.734,0,0,1,0-1.457H8.134a.734.734,0,0,1,0,1.457Z" fill="#200e32"/>
  </g>
</svg>
