<svg id="Iconly_Light-outline_Paper" data-name="Iconly/Light-outline/Paper" xmlns="http://www.w3.org/2000/svg" width="24" height="24" viewBox="0 0 24 24">
  <rect id="Iconly_Light-outline_Paper_Background_" data-name="Iconly/Light-outline/Paper (Background)" width="24" height="24" fill="none"/>
  <g id="Paper" transform="translate(3.5 2)">
    <path id="Paper-2" data-name="Paper" d="M4.584,19.865A4.574,4.574,0,0,1,0,15.2V4.491A4.388,4.388,0,0,1,1.359,1.328,4.607,4.607,0,0,1,4.584.012h6.258a.756.756,0,0,1,.265,0h.131a.755.755,0,0,1,.541.23l5.064,5.276a.752.752,0,0,1,.21.52V15.2a4.634,4.634,0,0,1-4.479,4.661Zm0-18.353A3.073,3.073,0,0,0,1.5,4.491V15.2a3.09,3.09,0,0,0,3.083,3.161h7.989A3.155,3.155,0,0,0,15.552,15.2V6.983l-.876,0-1.135,0a3.324,3.324,0,0,1-3.311-3.137l-.005-.188V1.511Zm7.141,2.147a1.824,1.824,0,0,0,1.82,1.824H14.73L11.724,2.353ZM5.387,14.307a.75.75,0,0,1-.1-1.493l.1-.006h5.4a.75.75,0,0,1,.1,1.493l-.1.006Zm0-4.952a.75.75,0,0,1-.1-1.493l.1-.007H8.743a.75.75,0,0,1,.1,1.493l-.1.007Z"/>
  </g>
</svg>
