<svg id="Iconly_Light-outline_Ticket" data-name="Iconly/Light-outline/Ticket" xmlns="http://www.w3.org/2000/svg" width="24" height="24" viewBox="0 0 24 24">
  <rect id="Iconly_Light-outline_Ticket_Background_" data-name="Iconly/Light-outline/Ticket (Background)" width="24" height="24" fill="none"/>
  <g id="Ticket" transform="translate(1 3)">
    <path id="Ticket-2" data-name="Ticket" d="M4.142,18A4.136,4.136,0,0,1,0,13.879V11.212a.77.77,0,0,1,.768-.771A1.452,1.452,0,0,0,2.227,9,1.379,1.379,0,0,0,.768,7.647l-.1-.007A.774.774,0,0,1,0,6.875V4.121A4.136,4.136,0,0,1,4.143,0H17.857A4.136,4.136,0,0,1,22,4.121V6.789a.768.768,0,0,1-.767.771,1.441,1.441,0,1,0,0,2.881.77.77,0,0,1,.767.771v2.667A4.136,4.136,0,0,1,17.858,18Zm13.716-1.543a2.6,2.6,0,0,0,2.607-2.579V11.885l-.084-.023a2.984,2.984,0,0,1-2.138-2.685L18.238,9a2.963,2.963,0,0,1,2.144-2.862l.083-.022v-2a2.6,2.6,0,0,0-2.435-2.573l-.172-.005h-4.2V3.518a.767.767,0,0,1-1.528.1l-.007-.1V1.543H4.143A2.6,2.6,0,0,0,1.536,4.122l0,2.075.087.022A2.858,2.858,0,0,1,3.758,8.826l0,.175a2.96,2.96,0,0,1-2.144,2.861l-.084.021v2A2.6,2.6,0,0,0,3.97,16.452l.172.005h7.983V14.925a.767.767,0,0,1,1.528-.1l.007.1v1.533ZM12.132,11.5l-.007-.1V6.432a.767.767,0,0,1,1.528-.1l.007.1v4.959a.767.767,0,0,1-1.528.1Z" fill="#200e32"/>
  </g>
</svg>
