<svg id="Iconly_Light-outline_Show" data-name="Iconly/Light-outline/Show" xmlns="http://www.w3.org/2000/svg" width="24" height="24" viewBox="0 0 24 24">
  <rect id="Iconly_Light-outline_Show_Background_" data-name="Iconly/Light-outline/Show (Background)" width="24" height="24" fill="none"/>
  <g id="Show" transform="translate(2 4)">
    <path id="Show-2" data-name="Show" d="M9.712,15.995C5.807,15.865,2.253,13.107.2,8.617L.061,8.294a.743.743,0,0,1,0-.589A14.272,14.272,0,0,1,4.254,2.059,9.337,9.337,0,0,1,10,0l.286,0c3.9.131,7.459,2.89,9.509,7.381l.139.313a.746.746,0,0,1,0,.6,14.282,14.282,0,0,1-4.194,5.647A9.337,9.337,0,0,1,10,16ZM1.726,7.666,1.571,8l.168.361c1.787,3.675,4.609,5.909,7.742,6.132l.266.014.257,0,.255,0c3.307-.12,6.358-2.543,8.16-6.482L18.429,8c-1.75-3.837-4.71-6.263-7.915-6.491l-.266-.014-.239-.005C6.694,1.49,3.6,3.8,1.726,7.666ZM6.089,8A3.911,3.911,0,1,1,10,11.885,3.9,3.9,0,0,1,6.089,8Zm1.5,0A2.412,2.412,0,1,0,10,5.6,2.405,2.405,0,0,0,7.589,8Z" fill="#200e32"/>
  </g>
</svg>
