<svg xmlns="http://www.w3.org/2000/svg" width="90.667" height="90.667" viewBox="0 0 90.667 90.667">
  <path id="category" d="M76.909,48.92a13.945,13.945,0,0,1,13.758,14h0v13.7A13.988,13.988,0,0,1,76.909,90.667H63.488A13.947,13.947,0,0,1,49.772,76.622h0v-13.7a13.861,13.861,0,0,1,13.716-14H76.909Zm-57.64,0A3.678,3.678,0,0,1,22.8,50.673a3.847,3.847,0,0,1,0,4.01,3.678,3.678,0,0,1-3.533,1.753H13.758a6.462,6.462,0,0,0-6.4,6.485h0V76.451a6.59,6.59,0,0,0,6.4,6.485H27.263a6.287,6.287,0,0,0,4.519-1.885,6.554,6.554,0,0,0,1.876-4.6h0V56.136L33.6,55.63a3.8,3.8,0,0,1,1.716-3.373,3.64,3.64,0,0,1,4.143.123,3.82,3.82,0,0,1,1.435,3.97h0V76.58A13.9,13.9,0,0,1,27.137,90.624H13.758A14.2,14.2,0,0,1,0,76.58H0V62.922a14.15,14.15,0,0,1,4.032-9.916,13.574,13.574,0,0,1,9.726-4.086h5.512Zm57.64,7.516H63.488a6.42,6.42,0,0,0-6.353,6.485h0v13.7a6.513,6.513,0,0,0,1.849,4.6,6.245,6.245,0,0,0,4.5,1.887H76.909a6.246,6.246,0,0,0,4.5-1.887,6.512,6.512,0,0,0,1.848-4.6h0v-13.7A6.555,6.555,0,0,0,81.4,58.336a6.287,6.287,0,0,0-4.492-1.9ZM76.909,0A14.2,14.2,0,0,1,90.625,14.045h0V27.7a14.159,14.159,0,0,1-3.9,9.951,13.583,13.583,0,0,1-9.65,4.222H71.524a3.789,3.789,0,0,1,0-7.516h5.385A6.332,6.332,0,0,0,81.434,32.4a6.6,6.6,0,0,0,1.828-4.657h0v-13.7a6.505,6.505,0,0,0-6.353-6.485H63.488a6.42,6.42,0,0,0-6.353,6.485h0V34.532L57.091,35a3.769,3.769,0,0,1-3.743,3.223,3.628,3.628,0,0,1-2.579-1.17,3.781,3.781,0,0,1-1-2.7h0V14.045a14.153,14.153,0,0,1,4-9.928A13.575,13.575,0,0,1,63.488,0H76.909ZM27.179,0A13.946,13.946,0,0,1,40.937,14.045h0v13.7A14.151,14.151,0,0,1,36.9,37.661a13.575,13.575,0,0,1-9.726,4.086H13.758A13.945,13.945,0,0,1,0,27.746H0v-13.7A13.988,13.988,0,0,1,13.758,0H27.179Zm0,7.559H13.758A6.284,6.284,0,0,0,9.184,9.413a6.553,6.553,0,0,0-1.905,4.632h0v13.7a6.557,6.557,0,0,0,1.859,4.716,6.286,6.286,0,0,0,4.62,1.9H27.179A6.332,6.332,0,0,0,31.7,32.4a6.6,6.6,0,0,0,1.828-4.657h0v-13.7a6.463,6.463,0,0,0-6.353-6.485Z" fill="#200e32"/>
</svg>
