<svg xmlns="http://www.w3.org/2000/svg" width="89.339" height="89.333" viewBox="0 0 89.339 89.333">
  <g id="client" transform="translate(0 -0.001)">
    <path id="Path_11160" data-name="Path 11160" d="M70.3,77.916a43.274,43.274,0,1,0-53.045,0" transform="translate(0.896 0.896)" fill="#cbaad0"/>
    <path id="Path_11161" data-name="Path 11161" d="M25.455,28.761V20.592H13.95v8.169" transform="translate(24.996 36.896)" fill="#eadded"/>
    <path id="Path_11162" data-name="Path 11162" d="M29.34,16.1V13.8h-13.8v2.3L12.43,19.974l-.006-.02v4.277a10.014,10.014,0,1,0,20.029,0V19.968Z" transform="translate(22.262 24.727)" fill="#eadded"/>
    <path id="Path_11163" data-name="Path 11163" d="M39.368,23.395,47.18,28.08a6.617,6.617,0,0,1,3.211,5.67V46.023H8.513V33.75a6.609,6.609,0,0,1,3.211-5.67l7.809-4.685" transform="translate(15.254 41.918)" fill="#b386bc"/>
    <path id="Path_11164" data-name="Path 11164" d="M13.659,46.534l4.406,5.511,5.511-5.511-6.943-3.306Zm19.836,0-4.408,5.511-5.511-5.511,6.943-3.306ZM31.6,12.365,20.755,10.556A4.509,4.509,0,0,0,15.5,15v.123a3.724,3.724,0,0,0-3.641,4.5L13.58,25.9l3.107-3.872v-2.3h13.8v2.3L33.609,25.9l1.764-8.172A4.6,4.6,0,0,0,31.6,12.365Z" transform="translate(21.108 18.802)" fill="#9868ac"/>
    <path id="Path_11165" data-name="Path 11165" d="M17.76,33.318l-.075,0a1.4,1.4,0,0,1-1.013-.522l-4.406-5.511a1.4,1.4,0,0,1,.053-1.806l2.973-3.306a1.4,1.4,0,0,1,1.639-.324l6.943,3.306a1.4,1.4,0,0,1,.385,2.245l-5.514,5.511a1.39,1.39,0,0,1-.986.41Zm-2.577-6.851,2.694,3.364,3.01-3.007-4.218-2.01-1.485,1.653Z" transform="translate(21.432 38.899)" fill="#8e5ba5"/>
    <path id="Path_11166" data-name="Path 11166" d="M28.862,44.353a1.41,1.41,0,0,1-.988-.408l-5.511-5.511a1.4,1.4,0,0,1,.385-2.245l6.941-3.306a1.4,1.4,0,0,1,1.639.324L34.3,36.513a1.4,1.4,0,0,1,.053,1.806l-4.406,5.511a1.4,1.4,0,0,1-1.013.522Zm-3.124-6.494,3.007,3.007L31.439,37.5l-1.485-1.65Zm-2.412-5.332a11.421,11.421,0,0,1-11.41-11.41V15.552h2.792v5.564a8.618,8.618,0,1,0,17.237,0V15.552h2.792v5.564A11.421,11.421,0,0,1,23.326,32.526Z" transform="translate(21.352 27.865)" fill="#8e5ba5"/>
    <path id="Path_11167" data-name="Path 11167" d="M23.2,39.587H26v4.528H23.2Zm11.5,0H37.5v4.528H34.707ZM40.372,28.2a1.4,1.4,0,0,1-1.089-.522l-3.116-3.869a1.4,1.4,0,0,1-.307-.874v-.9H24.849v.9a1.4,1.4,0,0,1-.307.874l-3.107,3.869a1.362,1.362,0,0,1-1.371.491,1.4,1.4,0,0,1-1.064-1L17.283,20.9a5.122,5.122,0,0,1,3.708-6.1,5.886,5.886,0,0,1,6.759-4.713L38.6,11.89a6,6,0,0,1,4.914,6.988l-1.778,8.216a1.4,1.4,0,0,1-1.365,1.1Zm-13.6-15.405a3.12,3.12,0,0,0-3.113,3.116,1.507,1.507,0,0,1-1.4,1.519,2.32,2.32,0,0,0-2.273,2.814l.977,3.557,1.089-1.354V20.631a1.4,1.4,0,0,1,1.4-1.4h13.8a1.4,1.4,0,0,1,1.4,1.4v1.806l.974,1.212,1.15-5.313a3.21,3.21,0,0,0-2.635-3.694L27.289,12.836a3.255,3.255,0,0,0-.516-.045ZM9.391,71.412a1.4,1.4,0,0,1-1.4-1.4V57.768A8.057,8.057,0,0,1,11.881,50.9L19.7,46.215a1.4,1.4,0,0,1,1.435,2.4L13.316,53.3a5.249,5.249,0,0,0-2.529,4.475V70.018A1.4,1.4,0,0,1,9.391,71.412Zm41.905,0a1.4,1.4,0,0,1-1.4-1.4V57.768a5.252,5.252,0,0,0-2.532-4.475L39.56,48.608a1.4,1.4,0,0,1,1.435-2.4L48.806,50.9A8.06,8.06,0,0,1,52.7,57.765V70.013A1.4,1.4,0,0,1,51.3,71.412Z" transform="translate(14.326 17.923)" fill="#8e5ba5"/>
    <path id="Path_11168" data-name="Path 11168" d="M14.385,48.344a1.4,1.4,0,0,1-1.4-1.4V40.493a5.221,5.221,0,0,0-1.365-3.521l-1.376-1.507a1.4,1.4,0,0,1,2.06-1.882l1.376,1.508a8,8,0,0,1,2.1,5.4v6.455A1.4,1.4,0,0,1,14.385,48.344Zm25.154,0a1.4,1.4,0,0,1-1.4-1.4V40.493a8,8,0,0,1,2.1-5.4l1.376-1.508a1.4,1.4,0,1,1,2.06,1.882L42.3,36.973a5.221,5.221,0,0,0-1.365,3.521v6.455A1.4,1.4,0,0,1,39.539,48.344Zm-12.591,0a1.4,1.4,0,0,1-1.4-1.4V24.273a1.4,1.4,0,1,1,2.792,0V46.948a1.4,1.4,0,0,1-1.4,1.4Z" transform="translate(17.707 40.99)" fill="#8e5ba5"/>
    <path id="Path_11169" data-name="Path 11169" d="M14.417,58.065a1.39,1.39,0,0,1-.771-.232C4.972,52.088,0,44.025,0,35.711,0,18.779,20.04,5,44.669,5s44.669,13.778,44.669,30.71c0,8.3-4.953,16.346-13.593,22.086A1.394,1.394,0,0,1,74.2,55.475c7.842-5.215,12.343-12.418,12.343-19.763,0-15.394-18.786-27.918-41.878-27.918S2.792,20.317,2.792,35.711c0,7.362,4.517,14.576,12.4,19.794a1.4,1.4,0,0,1-.771,2.56Z" transform="translate(0 8.959)" fill="#8e5ba5"/>
    <path id="Path_11170" data-name="Path 11170" d="M26.525,37a1.055,1.055,0,0,1-.187-.014C9.844,34.773,0,30,0,24.214S9.844,13.655,26.338,11.439a1.377,1.377,0,0,1,1.569,1.2,1.4,1.4,0,0,1-1.2,1.569C10.277,16.414,2.792,20.942,2.792,24.214s7.485,7.8,23.915,10.012A1.4,1.4,0,0,1,26.525,37Zm36.288,0a1.4,1.4,0,0,1-.181-2.781c16.43-2.208,23.915-6.737,23.915-10.009s-7.485-7.8-23.915-10.012a1.4,1.4,0,0,1-1.2-1.569A1.371,1.371,0,0,1,63,11.436c16.491,2.22,26.335,7,26.335,12.778S79.495,34.773,63,36.989a1.055,1.055,0,0,1-.187.014Z" transform="translate(0 20.456)" fill="#8e5ba5"/>
    <path id="Path_11171" data-name="Path 11171" d="M60.837,68.27a1.39,1.39,0,0,1-1.29-1.921A58.131,58.131,0,0,0,63.629,44.67C63.629,21.579,51.1,2.793,35.71,2.793S7.792,21.579,7.792,44.67a58.077,58.077,0,0,0,4.084,21.679A1.4,1.4,0,1,1,9.294,67.4,60.813,60.813,0,0,1,5,44.67C5,20.041,18.778,0,35.71,0S66.42,20.041,66.42,44.67A60.856,60.856,0,0,1,62.129,67.4,1.4,1.4,0,0,1,60.837,68.27Z" transform="translate(8.959 0)" fill="#8e5ba5"/>
    <path id="Path_11172" data-name="Path 11172" d="M35.6,27.919a1.4,1.4,0,0,1-1.379-1.212C32.01,10.278,27.481,2.793,24.209,2.793s-7.8,7.485-10.012,23.915a1.4,1.4,0,1,1-2.767-.371C13.651,9.845,18.427,0,24.209,0S34.768,9.845,36.985,26.339a1.4,1.4,0,0,1-1.385,1.58Z" transform="translate(20.46 0)" fill="#8e5ba5"/>
    <path id="Path_11173" data-name="Path 11173" d="M71.192,80.208a1.4,1.4,0,0,1-.857-2.5A41.861,41.861,0,1,0,2.792,44.67,41.625,41.625,0,0,0,19,77.712a1.4,1.4,0,1,1-1.711,2.2A44.652,44.652,0,1,1,89.339,44.67a44.4,44.4,0,0,1-17.29,35.244,1.39,1.39,0,0,1-.857.293Z" transform="translate(0 0)" fill="#8e5ba5"/>
  </g>
</svg>
