<svg xmlns="http://www.w3.org/2000/svg" xmlns:xlink="http://www.w3.org/1999/xlink" width="90.183" height="91" viewBox="0 0 90.183 91">
  <defs>
    <linearGradient id="linear-gradient" x1="0.5" y1="1.01" x2="0.5" y2="-0.088" gradientUnits="objectBoundingBox">
      <stop offset="0" stop-color="#00efd1"/>
      <stop offset="1" stop-color="#00acea"/>
    </linearGradient>
    <linearGradient id="linear-gradient-2" x1="0.5" y1="8.532" x2="0.5" y2="-12.349" xlink:href="#linear-gradient"/>
    <linearGradient id="linear-gradient-3" x1="0.5" y1="10.773" x2="0.5" y2="-11.425" xlink:href="#linear-gradient"/>
    <linearGradient id="linear-gradient-4" x1="0.5" y1="5.471" x2="0.5" y2="-14.808" xlink:href="#linear-gradient"/>
    <linearGradient id="linear-gradient-5" x1="0.5" y1="6.817" x2="0.5" y2="-13.463" xlink:href="#linear-gradient"/>
    <linearGradient id="linear-gradient-6" x1="0.5" y1="17.84" x2="0.5" y2="-14.369" xlink:href="#linear-gradient"/>
    <linearGradient id="linear-gradient-7" x1="0.5" y1="1.538" x2="0.5" y2="-6.15" xlink:href="#linear-gradient"/>
    <linearGradient id="linear-gradient-8" x1="0.5" y1="2.036" x2="0.5" y2="0.006" xlink:href="#linear-gradient"/>
    <linearGradient id="linear-gradient-9" x1="0.5" y1="1.909" x2="0.5" y2="-2.292" xlink:href="#linear-gradient"/>
  </defs>
  <g id="freelancer" transform="translate(-13.3 -11.157)">
    <path id="Path_11151" data-name="Path 11151" d="M121.681,90.678c.111-1.189.186-2.378.186-3.585A35.083,35.083,0,1,0,86.793,122.2c1.04,0,2.081-.056,3.121-.13a23.445,23.445,0,0,0,6.632,8.248v.037H96.6a23.543,23.543,0,0,0,29.148,0h.037v-.037a23.611,23.611,0,0,0-4.106-39.644ZM61.75,107.788a32.347,32.347,0,0,1-7.431-19.395h11.89a47.229,47.229,0,0,0,2.4,13.989,34.873,34.873,0,0,0-6.855,5.406ZM68.605,71.8a46.638,46.638,0,0,0-2.4,13.989H54.319A32.393,32.393,0,0,1,61.75,66.4,33.546,33.546,0,0,0,68.605,71.8Zm43.118-5.48a32.4,32.4,0,0,1,7.505,19.469h-11.89a47.029,47.029,0,0,0-2.415-14.063A34.533,34.533,0,0,0,111.723,66.323Zm-6.985,19.488H88.074V76.782A34.876,34.876,0,0,0,102.6,73.03a44.25,44.25,0,0,1,2.136,12.781ZM88.074,74.163V55.01a30.088,30.088,0,0,1,13.617,15.568A32.319,32.319,0,0,1,88.074,74.163Zm-2.6,0a32.641,32.641,0,0,1-13.636-3.548A30.093,30.093,0,0,1,85.474,54.991Zm0,2.619v9.029H68.81a43.975,43.975,0,0,1,2.118-12.725,35.475,35.475,0,0,0,14.546,3.7ZM68.81,88.412H85.474V97.44a35.4,35.4,0,0,0-14.546,3.7A45.5,45.5,0,0,1,68.81,88.412Zm19.265,28.33a21.325,21.325,0,0,0,.576,2.136c-.186.111-.372.2-.576.316Zm-2.6-16.7v19.172a30.013,30.013,0,0,1-13.636-15.624,32.713,32.713,0,0,1,13.636-3.548Zm2.6,6.781v-6.781c.836.037,1.672.093,2.508.186A23.474,23.474,0,0,0,88.074,106.822Zm4.9-10.088c-.223.26-.427.52-.632.78-.074.093-.13.186-.2.279a37.223,37.223,0,0,0-4.068-.39V88.412h16.664c0,.223-.019.464-.019.687-.037,0-.056.019-.093.019a23.393,23.393,0,0,0-11.648,7.617Zm14.36-8.323h.743l-.743.111Zm11.89,0c-.019.39-.037.8-.074,1.189a22.4,22.4,0,0,0-4.923-1.189Zm-9.252-24.021a31.307,31.307,0,0,1-6,4.867,33.563,33.563,0,0,0-10.608-13.97,32.523,32.523,0,0,1,16.608,9.1Zm-29.78-9.1A33.6,33.6,0,0,0,69.553,69.333,32.28,32.28,0,0,1,63.5,64.484a32.455,32.455,0,0,1,16.7-9.2ZM63.5,109.72a31.551,31.551,0,0,1,6.056-4.849A33.451,33.451,0,0,0,80.2,118.916a32.323,32.323,0,0,1-16.7-9.2ZM99.2,129.04a10.09,10.09,0,0,1,9.995-8.787h3.9a10.09,10.09,0,0,1,9.995,8.787A20.974,20.974,0,0,1,99.2,129.04Zm26.175-1.821a12.694,12.694,0,0,0-12.28-9.549h-3.9a12.694,12.694,0,0,0-12.28,9.549,20.97,20.97,0,0,1-4.812-6.576,16.6,16.6,0,0,1-.65-1.579c-.074-.186-.13-.39-.2-.576a20.968,20.968,0,0,1,3.177-19.376c.186-.241.372-.464.557-.706a20.987,20.987,0,1,1,30.393,28.813Z" transform="translate(-31.266 -33.256)" fill="url(#linear-gradient)"/>
    <path id="Path_11152" data-name="Path 11152" d="M27.471,304,25,304.8c.39,1.208.836,2.415,1.338,3.585l2.4-1.022C28.251,306.266,27.842,305.133,27.471,304Z" transform="translate(-9.526 -238.441)" fill="url(#linear-gradient-2)"/>
    <path id="Path_11153" data-name="Path 11153" d="M17.964,266.2l-2.564.39c.167,1.133.427,2.359.743,3.734l2.527-.594C18.354,268.429,18.131,267.259,17.964,266.2Z" transform="translate(-1.71 -207.663)" fill="url(#linear-gradient-3)"/>
    <path id="Path_11154" data-name="Path 11154" d="M63.1,373.979c.78,1.022,1.6,2.006,2.452,2.935l1.932-1.746c-.8-.892-1.579-1.821-2.3-2.768Z" transform="translate(-40.548 -294.134)" fill="url(#linear-gradient-4)"/>
    <path id="Path_11155" data-name="Path 11155" d="M43.3,339.7,41,340.908c.594,1.133,1.226,2.229,1.913,3.307l2.192-1.393C44.455,341.818,43.861,340.759,43.3,339.7Z" transform="translate(-22.554 -267.509)" fill="url(#linear-gradient-5)"/>
    <path id="Path_11156" data-name="Path 11156" d="M15.9,234.258c0-.557.019-1.133.056-1.709l-2.6-.149c-.037.632-.056,1.245-.056,1.858,0,.334,0,.65.019.985l2.6-.074C15.9,234.852,15.9,234.555,15.9,234.258Z" transform="translate(0 -180.142)" fill="url(#linear-gradient-6)"/>
    <path id="Path_11157" data-name="Path 11157" d="M122.419,416.033a39.236,39.236,0,0,1-12.41-2.712,37.058,37.058,0,0,1-4.886-2.378c-.557-.316-1.115-.669-1.653-1.022-.279-.167-.539-.353-.8-.539a41.649,41.649,0,0,1-3.381-2.582L97.6,408.769a39.288,39.288,0,0,0,3.6,2.749c.279.186.576.39.855.576.576.372,1.17.743,1.783,1.077a42.326,42.326,0,0,0,5.22,2.545,41.611,41.611,0,0,0,13.227,2.9c.855.056,2.1.093,3.121.093h.52l-.037-2.6C124.816,416.126,123.367,416.089,122.419,416.033Z" transform="translate(-68.639 -322.143)" fill="url(#linear-gradient-7)"/>
    <path id="Path_11158" data-name="Path 11158" d="M54.3,30.95h5.982v-2.6H57.477C64.221,20.714,76.24,13,90.619,13.821c22.627,1.263,36.988,20.714,37.8,38.79.056,1.17.037,2.359-.019,3.493l2.6.149a36.4,36.4,0,0,0,.019-3.771,44.863,44.863,0,0,0-11.2-27.179A41.092,41.092,0,0,0,90.768,11.221a42.123,42.123,0,0,0-22,4.96A47.791,47.791,0,0,0,55.6,26.528V23.612H53v6.038a1.292,1.292,0,0,0,1.3,1.3Z" transform="translate(-32.325 0)" fill="url(#linear-gradient-8)"/>
    <path id="Path_11159" data-name="Path 11159" d="M339.037,287.233a4.475,4.475,0,0,0,.3-1.56,4.273,4.273,0,1,0-8.546,0,4.857,4.857,0,0,0,.186,1.282,8.559,8.559,0,0,0-4.774,7.691,1.3,1.3,0,0,0,1.6,1.263l8.471-1.988a7.692,7.692,0,0,0,3.14,4.421,5.94,5.94,0,0,1-9.9-.91,5.786,5.786,0,0,1-.39-.929l-2.471.817a7.088,7.088,0,0,0,.576,1.338,8.564,8.564,0,0,0,15.308-.39,8.382,8.382,0,0,0,.8-3.623A8.724,8.724,0,0,0,339.037,287.233Zm-5.666-1.579a1.672,1.672,0,1,1,3.344,0,1.707,1.707,0,0,1-.111.613,8.934,8.934,0,0,0-1.876-.2,9.456,9.456,0,0,0-1.282.093A1.492,1.492,0,0,1,333.371,285.654Zm7.171,10.273a5.783,5.783,0,0,1-1.988-3.734,1.277,1.277,0,0,0-.539-.929,1.241,1.241,0,0,0-.762-.241,1.627,1.627,0,0,0-.3.037l-7.914,1.858c.056-.167.111-.353.186-.52a5.945,5.945,0,0,1,11.462,2.211A7.753,7.753,0,0,1,340.542,295.927Z" transform="translate(-254.771 -220.039)" fill="url(#linear-gradient-9)"/>
  </g>
</svg>
