<svg xmlns="http://www.w3.org/2000/svg" xmlns:xlink="http://www.w3.org/1999/xlink" width="90.327" height="90.333" viewBox="0 0 90.327 90.333">
  <defs>
    <linearGradient id="linear-gradient" y1="0.5" x2="0.933" y2="0.5" gradientUnits="objectBoundingBox">
      <stop offset="0" stop-color="#000092"/>
      <stop offset="1" stop-color="#ff00f3"/>
    </linearGradient>
  </defs>
  <path id="rocket" d="M89.776,1a1.506,1.506,0,0,0-.235.029A59.726,59.726,0,0,0,66.623,5.693q-.06.021-.117.047c-.065.027-.135.043-.2.071a1.506,1.506,0,0,0-.359.218c-.569.27-1.2.592-1.864.959q-.06.024-.118.053c-.072.037-.14.081-.212.118-.29.161-.459.245-.735.4A80.885,80.885,0,0,0,38.289,28.134a15.044,15.044,0,0,0-3.958-1.106v.006c-5.079-.626-10.6,1.211-15.737,4.8C11.748,36.631,5.41,44.585,1.122,54.622A1.506,1.506,0,0,0,3.427,56.4c6.213-4.819,11.045-7.417,14.426-8.027a6.473,6.473,0,0,1,4.058.365A6.259,6.259,0,0,1,24.4,51.064c-.194.45-.433.9-.617,1.353a1.506,1.506,0,0,0,.329,1.641l3.234,3.234c-2.808,4.232-5.7,9.05-8.827,14.449-.005,0-.012,0-.018.03s-.024.043-.035.065l-.018.041-.012.029q-.026.058-.047.118l-.012.03q-.017.055-.029.112-.018.073-.029.147-.007.044-.012.088t-.006.059q0,.018,0,.035a1.506,1.506,0,0,0,.006.153q0,.059.012.118l.006.03a1.505,1.505,0,0,0,.035.147q.02.069.047.135t.047.112q.029.063.065.123h.006l.018.03q.033.048.071.094l.018.03q.039.049.082.094t.076.07l.029.035.024.03q.046.037.094.07l.024.03q.051.037.106.07a1.5,1.5,0,0,0,.135.071l.071.029.065.03h.029q.058.017.118.03t.106.029h.071q.062,0,.123,0h.024a1.506,1.506,0,0,0,.3-.029q.071-.014.141-.036a1.416,1.416,0,0,0,.312-.135.537.537,0,0,1,.094-.059c5.372-3.117,10.172-6,14.391-8.8l3.123,3.123a1.506,1.506,0,0,0,1.641.329c.44-.181.888-.416,1.329-.606,2.421,1.585,3.284,3.438,2.746,6.592-.581,3.413-3.141,8.27-7.957,14.479a1.506,1.506,0,0,0,1.782,2.305C47.749,86.924,55.7,80.587,60.5,73.741c4.573-6.533,6.244-13.687,3.676-19.76A80.615,80.615,0,0,0,84.689,29.722c.209-.366.337-.61.565-1.006.474-.826.889-1.6,1.229-2.317a1.507,1.507,0,0,0,.129-.241c0-.006,0-.012.006-.018.025-.056.077-.133.1-.188a1.506,1.506,0,0,0,.1-.353,60.377,60.377,0,0,0,4.51-23.094A1.506,1.506,0,0,0,89.817,1h-.041ZM88.153,4.182a57.133,57.133,0,0,1-3.54,18.331l-14.7-14.7A56.3,56.3,0,0,1,88.153,4.182ZM66.641,9.075,83.378,25.847c-.133.257-.292.546-.441.823l-.006.006a1.506,1.506,0,0,0-.135.223c-.257.508-.547.994-.817,1.494-.288.5-.618,1.065-.817,1.458a1.507,1.507,0,0,0-.076.182c-9.641,16.7-26.121,28.646-41.549,35.185l-1.97-1.97a73.072,73.072,0,0,0,6.828-5.281c5.657-5.092,8.865-10.507,8.151-16.684a1.506,1.506,0,0,0-.07-.323l-.03-.071A1.506,1.506,0,0,0,51.8,40.1l-.117-.071a1.506,1.506,0,0,0-.606-.212v-.029c-6.177-.715-11.6,2.5-16.7,8.151a72.964,72.964,0,0,0-5.293,6.84l-2.082-2.082c6.532-15.4,18.448-31.624,35.138-41.243a1.505,1.505,0,0,0,.194-.082C63.455,10.8,65.348,9.741,66.641,9.075ZM62.836,22.06A7.43,7.43,0,1,0,68.1,24.23,7.433,7.433,0,0,0,62.836,22.06Zm0,2.993a4.437,4.437,0,1,1-3.14,1.306A4.416,4.416,0,0,1,62.836,25.053ZM31.261,30.028a16.259,16.259,0,0,1,4.71.941c-.493.671-.969,1.379-1.453,2.07-.037.052-.069.107-.106.159-1.176,1.689-2.328,3.429-3.435,5.245-.932,1.51-1.784,3.026-2.617,4.552-.147.272-.3.536-.441.811-.816,1.53-1.578,3.051-2.294,4.581a8.932,8.932,0,0,0-2.423-2.37,9.6,9.6,0,0,0-5.887-.606c-2.926.528-6.4,2.392-10.2,4.858,3.807-6.752,8.3-12.533,13.2-15.967a23.849,23.849,0,0,1,9.262-4.134A8.887,8.887,0,0,1,31.261,30.028ZM49.274,43.06c-.039,4.363-2.137,8.358-6.9,12.644-4.271,3.844-10.706,7.933-18.1,12.344,4.408-7.394,8.492-13.832,12.338-18.1C40.908,45.186,44.908,43.1,49.274,43.06ZM61.365,56.333c1.477,4.677.559,10.116-3.334,15.678-3.439,4.913-9.236,9.41-16,13.22,2.467-3.833,4.324-7.34,4.828-10.3A9,9,0,0,0,43.8,66.619c1.581-.736,3.156-1.521,4.74-2.364.078-.041.151-.083.229-.123,1.4-.748,2.794-1.474,4.181-2.305A99.368,99.368,0,0,0,61.365,56.333ZM21.54,63.649,9.8,75.4l1.423,1.429L17.447,70.6C18.85,68.179,20.212,65.853,21.54,63.649Zm7.028,7.239c-2.206,1.33-4.531,2.694-6.951,4.1l-7.545,7.545L15.5,83.956ZM17.076,73.823l-8.71,8.71L9.8,83.956l8.71-8.71a.285.285,0,0,1-.112-.047l-.035-.03c-.048-.03-.095-.058-.141-.088l.018.03c-.056-.033-.111-.073-.165-.112s-.127-.1-.188-.147l-.035-.035q-.036-.031-.071-.065h-.024l-.018-.029c-.021-.03-.044-.029-.065-.059l-.024-.035c-.025-.03-.052-.04-.076-.07-.045-.048-.088-.1-.129-.147l-.012-.036c-.053-.066-.094-.139-.141-.212a1.506,1.506,0,0,1-.182-.288A.266.266,0,0,0,17.076,73.823Zm-8.71,3.005L6.938,78.252l1.429,1.429L9.79,78.252ZM6.938,83.956,5.515,85.385l1.423,1.423,1.429-1.423Zm5.7,0-1.423,1.429,1.423,1.423,1.429-1.423Z" transform="translate(-1.001 -1)" fill-rule="evenodd" fill="url(#linear-gradient)"/>
</svg>
