<svg xmlns="http://www.w3.org/2000/svg" width="120.501" height="82.568" viewBox="0 0 120.501 82.568">
  <g id="support-team" transform="translate(-0.5 -5.359)">
    <path id="Path_11174" data-name="Path 11174" d="M36.971,10.1A14.765,14.765,0,0,0,22.2,24.871v12.05a3.3,3.3,0,0,0,2.721,3.11H25.7a26.248,26.248,0,0,0,5.442.777H43.19c1.944-.389,3.5-.389,5.442-.777h.777a3.3,3.3,0,0,0,2.721-3.11V24.871A15.362,15.362,0,0,0,36.971,10.1Z" transform="translate(62.651 13.689)" fill="#8a6845"/>
    <path id="Path_11175" data-name="Path 11175" d="M45.134,26.426v5.053a7.971,7.971,0,0,1-8.163,8.163V41.2H42.8c1.944-.389,3.5-.389,5.442-.777h.777a3.3,3.3,0,0,0,2.721-3.11v-10.5H45.134ZM36.971,10.1A14.765,14.765,0,0,0,22.2,24.871v12.05a3.3,3.3,0,0,0,2.721,3.11H25.7a2.337,2.337,0,0,1,1.555.389V24.871A14.631,14.631,0,0,1,39.692,10.489c-1.166,0-1.944-.389-2.721-.389Z" transform="translate(62.651 13.689)" fill="#745539"/>
    <path id="Path_11176" data-name="Path 11176" d="M28.953,19.353V14.3H23.9v5.053a7.971,7.971,0,0,0,8.163,8.163,4.93,4.93,0,0,0,2.332-.389c-3.11-.777-5.442-3.887-5.442-7.774Z" transform="translate(67.559 25.815)" fill="#e2b698"/>
    <path id="Path_11177" data-name="Path 11177" d="M29.51,26.361H27.955a1.555,1.555,0,1,1,0-3.11H29.51a3.066,3.066,0,0,0,3.11-3.11V16.255a1.555,1.555,0,1,1,3.11,0v3.887c.389,3.11-2.332,6.219-6.219,6.219Z" transform="translate(74.777 26.97)" fill="#004463"/>
    <path id="Path_11178" data-name="Path 11178" d="M27.6,19.742h2.721a2.721,2.721,0,0,0,0-5.442H27.6Z" transform="translate(78.241 25.815)" fill="#607d95"/>
    <path id="Path_11179" data-name="Path 11179" d="M39.049,24.286V16.9H27v7l-3.5,1.166c.777,4.665,9.329,8.552,9.329,8.552s8.552-3.887,9.329-8.552l-3.11-.777Z" transform="translate(66.404 33.322)" fill="#f0c9ae"/>
    <path id="Path_11180" data-name="Path 11180" d="M36.45,16.9H24.4v3.887a10.122,10.122,0,0,0,5.831,1.555,12.877,12.877,0,0,0,5.831-1.555V16.9Z" transform="translate(69.002 33.322)" fill="#e2b698"/>
    <path id="Path_11181" data-name="Path 11181" d="M57.428,21.044,51.208,19.1c-.777,4.665-9.329,8.552-9.329,8.552S33.328,23.765,32.55,19.1l-6.219,1.944A8.4,8.4,0,0,0,20.5,29.207v7.386H63.258V29.207A8.4,8.4,0,0,0,57.428,21.044Z" transform="translate(57.743 39.673)" fill="#ae89bf"/>
    <path id="Path_11182" data-name="Path 11182" d="M39.007,32.261V24.876A7.836,7.836,0,0,0,37.84,20.6,10.411,10.411,0,0,0,28.9,30.707v1.555H39.007Z" transform="translate(81.994 44.004)" fill="#9675b4"/>
    <path id="Path_11183" data-name="Path 11183" d="M30.5,20.787V16.9H27v7.386l-3.5,1.166C24.277,30.116,32.829,34,32.829,34c.389,0,.777-.389,1.555-.777a24.976,24.976,0,0,1-6.608-5.053.745.745,0,0,1,.389-1.166h.389c.777-.389,1.166-.777,1.166-1.555V20.787Z" transform="translate(66.404 33.322)" fill="#e2b698"/>
    <path id="Path_11184" data-name="Path 11184" d="M40.226,14.3v5.053a7.971,7.971,0,0,1-8.163,8.163A7.971,7.971,0,0,1,23.9,19.353V14.3" transform="translate(67.559 25.815)" fill="#f0c9ae"/>
    <path id="Path_11185" data-name="Path 11185" d="M28.953,19.353V14.3H23.9v5.053a7.971,7.971,0,0,0,8.163,8.163,4.93,4.93,0,0,0,2.332-.389c-3.11-.777-5.442-3.887-5.442-7.774Z" transform="translate(67.559 25.815)" fill="#e2b698"/>
    <path id="Path_11186" data-name="Path 11186" d="M39.937,16.61H31.774a3.066,3.066,0,0,1-3.11-3.11,3.066,3.066,0,0,1-3.11,3.11H24v5.053a7.971,7.971,0,0,0,8.163,8.163,7.971,7.971,0,0,0,8.163-8.163Z" transform="translate(67.848 23.505)" fill="#f0c9ae"/>
    <path id="Path_11187" data-name="Path 11187" d="M27.01,19.642V14.2a2.337,2.337,0,0,1-1.555.389H23.9v5.053A7.971,7.971,0,0,0,32.063,27.8h1.555A8.739,8.739,0,0,1,27.01,19.642Z" transform="translate(67.559 25.526)" fill="#e2b698"/>
    <path id="Path_11188" data-name="Path 11188" d="M32.619,16.2a3.386,3.386,0,0,1-3.11,2.332H27.955A1.672,1.672,0,0,0,26.4,20.087a1.672,1.672,0,0,0,1.555,1.555H29.51A7.018,7.018,0,0,0,36.118,16.2Z" transform="translate(74.777 31.301)" fill="#004463"/>
    <path id="Path_11189" data-name="Path 11189" d="M37.992,26.874a11.983,11.983,0,0,0,3.887.389,5.537,5.537,0,0,1-1.555-.777,37.4,37.4,0,0,1-6.608-5.053L32.55,19.1l-6.219,1.944a2.947,2.947,0,0,0-1.555.777h-.389l-1.166,1.166A9.173,9.173,0,0,0,20.5,29.207v7.386H24v-7a6.8,6.8,0,0,1,2.721-5.442h.389c.777.389,1.166.389,1.555.777s1.166.389,1.555.777a13.45,13.45,0,0,1,5.831,10.884h6.219a13.918,13.918,0,0,0-4.276-9.718Z" transform="translate(57.743 39.673)" fill="#9675b4"/>
    <path id="Path_11190" data-name="Path 11190" d="M62.763,12.5v5.442a5.978,5.978,0,0,1-5.831,5.831H49.158a1.944,1.944,0,0,0,0,3.887h7.774a10.086,10.086,0,0,0,9.718-9.329V12.889H62.763ZM13.008,31.158H7.955a1.555,1.555,0,1,1,0-3.11h5.053a3.066,3.066,0,0,0,3.11-3.11V21.052A1.672,1.672,0,0,1,17.673,19.5a1.672,1.672,0,0,1,1.555,1.555v3.887c.389,3.11-2.721,6.219-6.219,6.219Z" transform="translate(17.034 20.618)" fill="#004463"/>
    <path id="Path_11191" data-name="Path 11191" d="M7.642,19.631H4.921a2.721,2.721,0,1,1,0-5.442H7.642Zm19.047-.389H29.41a2.721,2.721,0,1,0,0-5.442H26.689Z" transform="translate(4.908 24.371)" fill="#607d95"/>
    <path id="Path_11192" data-name="Path 11192" d="M16.049,18.8,6.331,21.91A8.4,8.4,0,0,0,.5,30.073v7.386H43.258V30.073a8.769,8.769,0,0,0-5.831-8.163L27.71,18.8Z" transform="translate(0 38.807)" fill="#ae89bf"/>
    <path id="Path_11193" data-name="Path 11193" d="M21.1,18.7H16.049L6.331,22.2A8.922,8.922,0,0,0,.5,30.361v7.386H4V30.361a6.235,6.235,0,0,1,4.276-5.442l3.887-1.166a5.141,5.141,0,0,1,4.665.777,2.947,2.947,0,0,0,1.555.777,2.915,2.915,0,0,0,3.5,0c1.555-1.166,3.887-3.11,3.887-5.053l-.389-1.166H21.1ZM43.258,37.747V30.361a7.836,7.836,0,0,0-1.166-4.276,10.411,10.411,0,0,0-8.94,10.107v1.555Z" transform="translate(0 38.518)" fill="#9675b4"/>
    <path id="Path_11194" data-name="Path 11194" d="M.5,32.261V24.876A7.836,7.836,0,0,1,1.666,20.6a10.411,10.411,0,0,1,8.94,10.107v1.555Z" transform="translate(0 44.004)" fill="#9675b4"/>
    <path id="Path_11195" data-name="Path 11195" d="M4,24.876a4.414,4.414,0,0,1,1.166-3.11L1.666,20.6A7.836,7.836,0,0,0,.5,24.876v7.386H4V24.876Z" transform="translate(0 44.004)" fill="#8d6daf"/>
    <path id="Path_11196" data-name="Path 11196" d="M4.5,17v7c0,3.5,5.831,5.831,5.831,5.831S16.161,27.107,16.161,24V17Z" transform="translate(11.549 33.61)" fill="#f0c9ae"/>
    <path id="Path_11197" data-name="Path 11197" d="M4.5,20.5a10.474,10.474,0,0,0,5.831,1.944A9.548,9.548,0,0,0,16.161,20.5V17H4.5Z" transform="translate(11.549 33.61)" fill="#e2b698"/>
    <path id="Path_11198" data-name="Path 11198" d="M7.61,21.976V17.7H4.5v4.276c0,3.5,5.831,5.831,5.831,5.831l1.555-.777C10.331,25.863,7.61,23.919,7.61,21.976Z" transform="translate(11.549 35.631)" fill="#e2b698"/>
    <path id="Path_11199" data-name="Path 11199" d="M3,12.3v9.718A11.7,11.7,0,0,0,14.661,33.679,11.453,11.453,0,0,0,26.323,22.018V12.3H3Z" transform="translate(7.218 20.041)" fill="#f0c9ae"/>
    <path id="Path_11200" data-name="Path 11200" d="M8.053,22.018V12.3H3v9.718A11.7,11.7,0,0,0,14.661,33.679a4.93,4.93,0,0,0,2.332-.389,11.669,11.669,0,0,1-8.94-11.273Z" transform="translate(7.218 20.041)" fill="#e2b698"/>
    <path id="Path_11201" data-name="Path 11201" d="M27.894,26.037l1.944-5.831a4.31,4.31,0,0,0-4.276-5.053A5.076,5.076,0,0,0,19.342,10.1L6.9,12.043a4.892,4.892,0,0,0-4.276,6.219l1.944,7.774,4.276-3.5c.777-.389,1.166-.777,1.944-.777H21.674a2.969,2.969,0,0,1,1.944.777Z" transform="translate(5.647 13.301)" fill="#8a6845"/>
    <path id="Path_11202" data-name="Path 11202" d="M7.392,18.452a5.389,5.389,0,0,1,4.276-6.219l10.5-1.944A6.615,6.615,0,0,0,19.442,9.9L7,11.844a4.892,4.892,0,0,0-4.276,6.219l1.555,8.163,4.276-3.5L7.392,18.452Z" transform="translate(5.936 13.112)" fill="#745539"/>
    <path id="Path_11203" data-name="Path 11203" d="M16.118,15.8a3.386,3.386,0,0,1-3.11,2.332H7.955A1.672,1.672,0,0,0,6.4,19.687a1.672,1.672,0,0,0,1.555,1.555h5.053A7.018,7.018,0,0,0,19.616,15.8h-3.5Z" transform="translate(17.034 30.146)" fill="#004463"/>
    <path id="Path_11204" data-name="Path 11204" d="M18.363,19.663H12.921A2.657,2.657,0,0,1,10.2,16.942V14.221A2.657,2.657,0,0,1,12.921,11.5h5.442Zm29.153,0h5.442a2.657,2.657,0,0,0,2.721-2.721V14.221A2.657,2.657,0,0,0,52.958,11.5H47.516Z" transform="translate(28.005 17.731)" fill="#607d95"/>
    <path id="Path_11205" data-name="Path 11205" d="M31.311,19.1,16.54,24.153A13.315,13.315,0,0,0,7.6,36.592V48.253H73.681V36.592a12.607,12.607,0,0,0-8.94-12.439L49.97,19.1Z" transform="translate(20.499 39.673)" fill="#ae89bf"/>
    <path id="Path_11206" data-name="Path 11206" d="M38.986,19H31.211L16.44,24.053A14.046,14.046,0,0,0,7.5,36.492v12.05h5.442V36.881a8.752,8.752,0,0,1,6.219-8.163l6.219-1.944a7.537,7.537,0,0,1,7,1.166c.389.389,1.944,1.166,2.332,1.555a4.67,4.67,0,0,0,5.442,0c2.721-1.555,6.608-4.665,6.608-7.774L45.983,19h-7Zm34.6,29.542V36.881a13.1,13.1,0,0,0-1.944-6.608A15.907,15.907,0,0,0,57.644,45.821v2.721Z" transform="translate(20.21 39.385)" fill="#9675b4"/>
    <path id="Path_11207" data-name="Path 11207" d="M7.5,40.169V28.508A13.1,13.1,0,0,1,9.444,21.9,15.907,15.907,0,0,1,23.437,37.449v2.721Z" transform="translate(20.21 47.757)" fill="#9675b4"/>
    <path id="Path_11208" data-name="Path 11208" d="M12.942,28.8a8.187,8.187,0,0,1,1.944-5.053A15.324,15.324,0,0,0,9.444,21.8,13.1,13.1,0,0,0,7.5,28.408V40.069h5.442V28.8Z" transform="translate(20.21 47.468)" fill="#8d6daf"/>
    <path id="Path_11209" data-name="Path 11209" d="M13.6,16.4V26.9c0,5.053,9.329,9.329,9.329,9.329s9.329-4.276,9.329-9.329V16.4H13.6Z" transform="translate(37.821 31.878)" fill="#f0c9ae"/>
    <path id="Path_11210" data-name="Path 11210" d="M13.6,21.453a18.715,18.715,0,0,0,9.329,2.721,18.715,18.715,0,0,0,9.329-2.721V16.4H13.6v5.053Z" transform="translate(37.821 31.878)" fill="#e2b698"/>
    <path id="Path_11211" data-name="Path 11211" d="M19.042,24.008V17.4H13.6v6.608c0,5.053,9.329,9.329,9.329,9.329a10.757,10.757,0,0,0,2.721-1.555c-2.721-1.555-6.608-4.665-6.608-7.774Z" transform="translate(37.821 34.765)" fill="#e2b698"/>
    <path id="Path_11212" data-name="Path 11212" d="M11.4,9.1V24.26A17.833,17.833,0,0,0,29.281,42.141,17.593,17.593,0,0,0,47.162,24.26V9.1Z" transform="translate(31.47 10.802)" fill="#f0c9ae"/>
    <path id="Path_11213" data-name="Path 11213" d="M19.174,23.871V9.1H11.4V24.26A17.833,17.833,0,0,0,29.281,42.141a13.224,13.224,0,0,0,3.887-.389C25,39.42,19.174,32.423,19.174,23.871Z" transform="translate(31.47 10.802)" fill="#e2b698"/>
    <path id="Path_11214" data-name="Path 11214" d="M49.569,30.532l3.11-8.94a6.8,6.8,0,0,0-6.608-8.163c0-5.053-4.665-8.94-9.329-7.774L17.306,8.764c-4.665.777-7.386,5.053-6.608,9.718l3.11,12.439,6.219-5.442a4.414,4.414,0,0,1,3.11-1.166H39.851a4.414,4.414,0,0,1,3.11,1.166Z" transform="translate(29.062 0.254)" fill="#8a6845"/>
    <path id="Path_11215" data-name="Path 11215" d="M18.083,18.347a8.423,8.423,0,0,1,6.608-9.718L41.017,5.908a7.721,7.721,0,0,0-4.276-.389L17.306,8.629c-4.665.777-7.386,5.053-6.608,9.718l3.11,12.439,6.219-5.053-1.944-7.386Z" transform="translate(29.062 0)" fill="#745539"/>
    <path id="Path_11216" data-name="Path 11216" d="M28.442,19.742H25.721a2.721,2.721,0,1,1,0-5.442h2.721Z" transform="translate(64.96 25.815)" fill="#607d95"/>
    <path id="Path_11217" data-name="Path 11217" d="M24.947,21.544a8.464,8.464,0,0,0-3.11-1.944l-7.774,3.5A12.642,12.642,0,0,0,5.9,35.149h6.219A13.45,13.45,0,0,1,17.95,24.265a2.947,2.947,0,0,1,1.555-.777c.389-.389,1.166-.389,1.555-.777l3.887-1.166Z" transform="translate(15.59 41.117)" fill="#9675b4"/>
    <path id="Path_11218" data-name="Path 11218" d="M34.781,14.9H30.894a5.569,5.569,0,0,1-4.276,1.944H18.844A1.836,1.836,0,0,0,16.9,18.787a1.836,1.836,0,0,0,1.944,1.944h7.774a9.821,9.821,0,0,0,8.94-5.831h-.777Z" transform="translate(47.349 27.547)" fill="#004463"/>
  </g>
</svg>
