<svg id="post_add_black_24dp" xmlns="http://www.w3.org/2000/svg" width="24" height="24" viewBox="0 0 24 24">
  <g id="Group_10197" data-name="Group 10197">
    <rect id="Rectangle_3957" data-name="Rectangle 3957" width="24" height="24" fill="none"/>
  </g>
  <g id="Group_10199" data-name="Group 10199">
    <g id="Group_10198" data-name="Group 10198">
      <path id="Path_10778" data-name="Path 10778" d="M17,19.22H5V7h7V5H5A2.006,2.006,0,0,0,3,7V19a2.006,2.006,0,0,0,2,2H17a2.006,2.006,0,0,0,2-2V12H17Z" fill="#064c89"/>
      <path id="Path_10779" data-name="Path 10779" d="M19,2H17V5H14c.01.01,0,2,0,2h3V9.99c.01.01,2,0,2,0V7h3V5H19Z" fill="#064c89"/>
      <rect id="Rectangle_3958" data-name="Rectangle 3958" width="8" height="2" transform="translate(7 9)" fill="#064c89"/>
      <path id="Path_10780" data-name="Path 10780" d="M7,12v2h8V12H7Z" fill="#064c89"/>
      <rect id="Rectangle_3959" data-name="Rectangle 3959" width="8" height="2" transform="translate(7 15)" fill="#064c89"/>
    </g>
  </g>
</svg>
