<svg xmlns="http://www.w3.org/2000/svg" width="92.048" height="105" viewBox="0 0 92.048 105">
  <g id="awards-and-certifications" transform="translate(-13 -0.757)">
    <path id="Path_10679" data-name="Path 10679" d="M47.36,155.337l12.474-2.285,10.707,5.608L79.979,116.4,56.8,113.08Z" transform="translate(-16.183 -52.903)" fill="#eeb21c"/>
    <path id="Path_10680" data-name="Path 10680" d="M90.98,116.4l9.438,42.258,10.707-5.608,12.474,2.285-9.438-42.257Z" transform="translate(-36.728 -52.903)" fill="#eeb21c"/>
    <path id="Path_10681" data-name="Path 10681" d="M97.926,113.08l-18.4,2.64-18.4-2.64-4.6,20.573c3.163,2.962,4.692,9.364,8.776,10.686,3.994,1.3,9.051-3.074,13.537-3.5l.688-3.074.688,3.074c4.486.428,9.543,4.8,13.537,3.5,4.084-1.323,5.613-7.724,8.776-10.686Z" transform="translate(-20.497 -52.903)" fill="#e2a61e"/>
    <path id="Path_10682" data-name="Path 10682" d="M105.048,44.783c0,4.655-6.38,8.242-7.745,12.437-1.412,4.354,1.592,11-1.042,14.617-2.661,3.661-9.93,2.841-13.585,5.5-3.624,2.634-5.073,9.813-9.422,11.226-4.2,1.365-9.575-3.544-14.225-3.544S49,89.929,44.8,88.564c-4.348-1.412-5.8-8.591-9.427-11.226-3.655-2.661-10.924-1.841-13.585-5.5-2.634-3.624.37-10.268-1.042-14.617C19.38,53.02,13,49.433,13,44.783s6.38-8.242,7.745-12.442c1.412-4.354-1.592-11,1.042-14.617,2.661-3.655,9.93-2.841,13.585-5.5C39,9.588,40.445,2.409,44.794,1c4.2-1.365,9.575,3.544,14.225,3.544S69.049-.368,73.244,1c4.348,1.412,5.8,8.591,9.422,11.226,3.655,2.661,10.924,1.841,13.585,5.5,2.634,3.624-.37,10.268,1.042,14.617,1.375,4.2,7.755,7.787,7.755,12.442" transform="translate(0 0)" fill="#fbbf1b"/>
    <path id="Path_10683" data-name="Path 10683" d="M103.65,54.355A33.275,33.275,0,1,1,70.375,21.08,33.274,33.274,0,0,1,103.65,54.355" transform="translate(-11.351 -9.572)" fill="#eeb21c"/>
    <path id="Path_10684" data-name="Path 10684" d="M65.65,51.862,67.168,41.8h1.809L70.5,51.862H69.062l-.275-2.053H67.364l-.275,2.053Zm2.508-6.793-.042-.259h-.079l-.042.259-.423,3.174h1.016Z" transform="translate(-24.798 -19.331)" fill="#fff"/>
    <path id="Path_10685" data-name="Path 10685" d="M79.258,51.862H78.1L76.75,41.8h1.37l.587,5.227.032.328h.106l.042-.328.63-5.227h1.069l.63,5.227.042.328h.106l.026-.328.593-5.227h1.37l-1.36,10.062H80.845L80.162,47.1l-.085-.587h-.053l-.085.587Z" transform="translate(-30.026 -19.331)" fill="#fff"/>
    <path id="Path_10686" data-name="Path 10686" d="M91.73,51.862,93.248,41.8h1.809l1.518,10.062H95.137l-.275-2.053H93.439l-.275,2.053Zm2.508-6.793L94.2,44.81h-.085l-.042.259-.423,3.174h1.01Z" transform="translate(-37.081 -19.331)" fill="#fff"/>
    <path id="Path_10687" data-name="Path 10687" d="M106.77,51.862,106,47.619h-.4v4.243H104.13V41.8h1.476c1.767,0,2.518,1,2.518,2.9a2.77,2.77,0,0,1-.82,2.285l.947,4.872Zm-1.164-5.613a1.034,1.034,0,0,0,.7-.217,1.616,1.616,0,0,0,.4-1.275,1.645,1.645,0,0,0-.4-1.285,1.013,1.013,0,0,0-.7-.206Z" transform="translate(-42.921 -19.331)" fill="#fff"/>
    <path id="Path_10688" data-name="Path 10688" d="M115.41,51.862V41.8h1.164c1.37,0,2.111.275,2.508,1.042a10.188,10.188,0,0,1,.439,4,10,10,0,0,1-.439,3.983c-.4.767-1.137,1.042-2.508,1.042H115.41Zm1.476-1.481c.508,0,.794-.053.947-.545a4.483,4.483,0,0,0,.138-1.069c.016-.481.016-1.122.016-1.947s0-1.465-.016-1.941a4.741,4.741,0,0,0-.138-1.069c-.148-.481-.439-.534-.947-.534Z" transform="translate(-48.234 -19.331)" fill="#fff"/>
    <path id="Path_10689" data-name="Path 10689" d="M129.151,44.4a3.141,3.141,0,0,0-.111-.984c-.1-.275-.249-.466-.481-.466-.381.016-.508.413-.508,1a2.217,2.217,0,0,0,.37,1.079c.217.386.508.783.794,1.206a16.05,16.05,0,0,1,.947,1.534,3.468,3.468,0,0,1,.439,1.576,3.187,3.187,0,0,1-.423,1.767,2.158,2.158,0,0,1-3.407-.138,4.3,4.3,0,0,1-.37-2.026l1.45-.138a3.916,3.916,0,0,0,.122,1.164c.1.328.259.55.577.55.439,0,.6-.466.6-1.111a2.479,2.479,0,0,0-.386-1.111c-.122-.19-.243-.4-.381-.6-.286-.413-.6-.878-.931-1.381a5.853,5.853,0,0,1-.725-1.561,2.611,2.611,0,0,1-.122-.809,2.779,2.779,0,0,1,.439-1.587,1.793,1.793,0,0,1,1.492-.767,1.741,1.741,0,0,1,1.7.889,3.936,3.936,0,0,1,.37,1.777Z" transform="translate(-53.41 -19.236)" fill="#fff"/>
    <path id="Path_10690" data-name="Path 10690" d="M87.09,74.507h-.751a.32.32,0,0,1-.206-.063.4.4,0,0,1-.122-.159l-.391-1.069H83.455l-.391,1.069a.42.42,0,0,1-.111.153.334.334,0,0,1-.206.069H81.99l2.058-5.227h.989ZM85.37,72.533l-.635-1.74c-.032-.079-.063-.169-.1-.275s-.069-.222-.1-.344c-.032.122-.063.238-.1.344s-.069.2-.1.28l-.63,1.73H85.37Z" transform="translate(-32.493 -32.274)" fill="#fff"/>
    <path id="Path_10691" data-name="Path 10691" d="M99.787,69.29v5.227h-.5a.432.432,0,0,1-.2-.037.464.464,0,0,1-.148-.127l-2.73-3.481c.016.159.021.307.021.439v3.211H95.38V69.3h.508a.61.61,0,0,1,.106.005.287.287,0,0,1,.079.021.407.407,0,0,1,.069.048c.021.021.042.048.074.079l2.74,3.5c-.005-.085-.011-.169-.016-.249s-.005-.159-.005-.227V69.3h.852Z" transform="translate(-38.8 -32.278)" fill="#fff"/>
    <path id="Path_10692" data-name="Path 10692" d="M113.285,71.9a2.8,2.8,0,0,1-.19,1.053,2.4,2.4,0,0,1-.54.831,2.373,2.373,0,0,1-.836.54,2.974,2.974,0,0,1-1.084.19H108.64V69.29h1.994a2.974,2.974,0,0,1,1.084.19,2.373,2.373,0,0,1,.836.54,2.538,2.538,0,0,1,.54.825,2.852,2.852,0,0,1,.19,1.058m-1,0a2.346,2.346,0,0,0-.116-.772,1.58,1.58,0,0,0-.328-.577,1.417,1.417,0,0,0-.524-.365,1.771,1.771,0,0,0-.688-.127h-1.016v3.682h1.016a1.771,1.771,0,0,0,.688-.127,1.51,1.51,0,0,0,.524-.365,1.581,1.581,0,0,0,.328-.577,2.493,2.493,0,0,0,.116-.772" transform="translate(-45.045 -32.278)" fill="#fff"/>
    <path id="Path_10693" data-name="Path 10693" d="M51.94,95.278v1.307a2.575,2.575,0,0,1-.233,1.037,1.744,1.744,0,0,1-.555.7,1.666,1.666,0,0,1-1.074.323,1.714,1.714,0,0,1-1.09-.323,1.751,1.751,0,0,1-.545-.7,2.534,2.534,0,0,1-.233-1.037v-5.6a2.518,2.518,0,0,1,.233-1.021,1.745,1.745,0,0,1,.545-.709,1.78,1.78,0,0,1,1.09-.323,1.73,1.73,0,0,1,1.074.323,1.81,1.81,0,0,1,.555.709,2.518,2.518,0,0,1,.233,1.021v1.307H50.633V90.983a.823.823,0,0,0-.206-.6.461.461,0,0,0-.323-.106.466.466,0,0,0-.429.349,1.413,1.413,0,0,0-.063.349v5.6a.88.88,0,0,0,.222.6.37.37,0,0,0,.27.106.456.456,0,0,0,.481-.349.932.932,0,0,0,.053-.349V95.278Z" transform="translate(-16.583 -41.529)" fill="#fff"/>
    <path id="Path_10694" data-name="Path 10694" d="M56.85,89.12h3.2v1.434h-1.8v2.5h1.291v1.529H58.247v2.613h1.8v1.439h-3.2Z" transform="translate(-20.653 -41.618)" fill="#fff"/>
    <path id="Path_10695" data-name="Path 10695" d="M66.847,98.632l-.725-4.01h-.376v4.01h-1.4V89.12h1.4c1.672,0,2.381.947,2.381,2.74a2.634,2.634,0,0,1-.778,2.164l.894,4.608Zm-1.1-5.306a.976.976,0,0,0,.661-.206,1.522,1.522,0,0,0,.376-1.206,1.559,1.559,0,0,0-.376-1.217.963.963,0,0,0-.661-.2Z" transform="translate(-24.185 -41.618)" fill="#fff"/>
    <path id="Path_10696" data-name="Path 10696" d="M72.25,90.554V89.12h4.042v1.434H74.969v8.078h-1.4V90.554Z" transform="translate(-27.906 -41.618)" fill="#fff"/>
    <rect id="Rectangle_3770" data-name="Rectangle 3770" width="1.397" height="9.512" transform="translate(48.925 47.497)" fill="#fff"/>
    <path id="Path_10697" data-name="Path 10697" d="M88.837,90.554H86.907v2.5h1.3v1.439h-1.3v4.142h-1.4V89.12h3.327Z" transform="translate(-34.151 -41.618)" fill="#fff"/>
    <rect id="Rectangle_3771" data-name="Rectangle 3771" width="1.397" height="9.512" transform="translate(55.252 47.497)" fill="#fff"/>
    <path id="Path_10698" data-name="Path 10698" d="M101.02,95.278v1.307a2.575,2.575,0,0,1-.233,1.037,1.744,1.744,0,0,1-.555.7,1.666,1.666,0,0,1-1.074.323,1.714,1.714,0,0,1-1.09-.323,1.751,1.751,0,0,1-.545-.7,2.534,2.534,0,0,1-.233-1.037v-5.6a2.518,2.518,0,0,1,.233-1.021,1.745,1.745,0,0,1,.545-.709,1.78,1.78,0,0,1,1.09-.323,1.73,1.73,0,0,1,1.074.323,1.81,1.81,0,0,1,.555.709,2.518,2.518,0,0,1,.233,1.021v1.307H99.713V90.983a.823.823,0,0,0-.206-.6.461.461,0,0,0-.323-.106.466.466,0,0,0-.428.349,1.412,1.412,0,0,0-.064.349v5.6a.88.88,0,0,0,.222.6.37.37,0,0,0,.27.106.456.456,0,0,0,.481-.349.932.932,0,0,0,.053-.349V95.278Z" transform="translate(-39.7 -41.529)" fill="#fff"/>
    <path id="Path_10699" data-name="Path 10699" d="M105.2,98.632l1.439-9.512h1.709l1.439,9.512h-1.36l-.259-1.941h-1.344l-.259,1.941Zm2.365-6.422-.037-.243h-.079l-.037.243-.4,3h.958Z" transform="translate(-43.425 -41.618)" fill="#fff"/>
    <path id="Path_10700" data-name="Path 10700" d="M113.61,90.554V89.12h4.042v1.434h-1.323v8.078h-1.4V90.554Z" transform="translate(-47.386 -41.618)" fill="#fff"/>
    <rect id="Rectangle_3772" data-name="Rectangle 3772" width="1.397" height="9.512" transform="translate(70.805 47.497)" fill="#fff"/>
    <path id="Path_10701" data-name="Path 10701" d="M130.42,96.575a2.577,2.577,0,0,1-.233,1.037,1.744,1.744,0,0,1-.555.7,1.666,1.666,0,0,1-1.074.323,1.714,1.714,0,0,1-1.09-.323,1.751,1.751,0,0,1-.545-.7,2.535,2.535,0,0,1-.233-1.037V90.968a2.519,2.519,0,0,1,.233-1.021,1.64,1.64,0,0,1,1.635-1.037,1.73,1.73,0,0,1,1.074.323,1.825,1.825,0,0,1,.555.714,2.52,2.52,0,0,1,.233,1.021Zm-1.4-5.6a.887.887,0,0,0-.18-.6.42.42,0,0,0-.286-.106.433.433,0,0,0-.413.349,1.051,1.051,0,0,0-.053.349v5.607a.831.831,0,0,0,.2.6.37.37,0,0,0,.27.106.4.4,0,0,0,.413-.349.932.932,0,0,0,.053-.349Z" transform="translate(-53.547 -41.519)" fill="#fff"/>
    <path id="Path_10702" data-name="Path 10702" d="M137.006,93.675l-.116-.439h-.079v5.4h-1.28V89.12h1.243l1.36,4.957.116.439h.074v-5.4h1.285v9.512h-1.243Z" transform="translate(-57.71 -41.618)" fill="#fff"/>
    <path id="Path_10703" data-name="Path 10703" d="M147.248,91.575a2.963,2.963,0,0,0-.106-.931c-.09-.259-.233-.439-.455-.439-.36.011-.481.386-.481.947a2.142,2.142,0,0,0,.349,1.021c.206.365.476.741.751,1.137a15.346,15.346,0,0,1,.894,1.449,3.273,3.273,0,0,1,.413,1.487,3.018,3.018,0,0,1-.4,1.672,2.04,2.04,0,0,1-3.222-.132,4.043,4.043,0,0,1-.349-1.915l1.37-.127a3.515,3.515,0,0,0,.116,1.1c.09.312.243.518.545.518.413,0,.571-.439.571-1.047a2.374,2.374,0,0,0-.365-1.047c-.116-.18-.233-.376-.36-.566-.275-.391-.571-.831-.878-1.307a5.4,5.4,0,0,1-.688-1.476,2.464,2.464,0,0,1-.116-.762,2.672,2.672,0,0,1,.413-1.5,1.694,1.694,0,0,1,1.412-.725,1.637,1.637,0,0,1,1.6.841,3.744,3.744,0,0,1,.349,1.682Z" transform="translate(-62.001 -41.528)" fill="#fff"/>
    <rect id="Rectangle_3773" data-name="Rectangle 3773" width="12.072" height="0.719" transform="translate(71.641 39.853)" fill="#fff"/>
    <rect id="Rectangle_3774" data-name="Rectangle 3774" width="12.072" height="0.719" transform="translate(34.335 39.853)" fill="#fff"/>
    <path id="Path_10704" data-name="Path 10704" d="M114.536,121.91l.735,1.5,1.656.238-1.2,1.169.28,1.645-1.476-.778-1.481.778.28-1.645-1.2-1.169,1.656-.238Z" transform="translate(-46.694 -57.062)" fill="#fff"/>
    <path id="Path_10705" data-name="Path 10705" d="M97.871,121.91l.741,1.5,1.651.238-1.2,1.169.286,1.645-1.481-.778-1.481.778.286-1.645-1.2-1.169,1.651-.238Z" transform="translate(-38.847 -57.062)" fill="#fff"/>
    <path id="Path_10706" data-name="Path 10706" d="M81.2,121.91l.741,1.5,1.656.238-1.2,1.169.28,1.645-1.481-.778-1.476.778.28-1.645-1.2-1.169,1.656-.238Z" transform="translate(-30.996 -57.062)" fill="#fff"/>
  </g>
</svg>
