<svg id="Group_9726" data-name="Group 9726" xmlns="http://www.w3.org/2000/svg" width="101" height="101" viewBox="0 0 101 101">
  <g id="Ellipse_1338" data-name="Ellipse 1338" fill="#e4e4e4" stroke="#e4e4e4" stroke-linecap="round" stroke-width="2" stroke-dasharray="187">
    <circle cx="50.5" cy="50.5" r="50.5" stroke="none"/>
    <circle cx="50.5" cy="50.5" r="49.5" fill="none"/>
  </g>
  <g id="Ellipse_1336" data-name="Ellipse 1336" fill="none" stroke="#064c87" stroke-linecap="round" stroke-width="4" stroke-dasharray="227">
    <circle cx="50.5" cy="50.5" r="50.5" stroke="none"/>
    <circle cx="50.5" cy="50.5" r="48.5" fill="none"/>
  </g>
  <g id="Group_9615" data-name="Group 9615" transform="translate(3 3)">
    <circle id="Ellipse_1335" data-name="Ellipse 1335" cx="47.5" cy="47.5" r="47.5" fill="#fff" opacity="0.6"/>
    <g id="badges" transform="translate(13.834 13.834)">
      <path id="Path_10672" data-name="Path 10672" d="M60.986,31.893c0,2.452-3.687,4.386-4.291,6.647-.625,2.339,1.582,5.855.4,7.9-1.2,2.078-5.361,1.915-7.047,3.6s-1.524,5.845-3.6,7.047c-2.048,1.185-5.563-1.022-7.9-.4-2.261.6-4.2,4.291-6.647,4.291s-4.386-3.687-6.647-4.291c-2.339-.625-5.855,1.582-7.9.4-2.078-1.2-1.915-5.361-3.6-7.047S7.9,48.52,6.694,46.442c-1.185-2.048,1.022-5.563.4-7.9-.6-2.261-4.291-4.2-4.291-6.647s3.687-4.386,4.291-6.647c.625-2.339-1.582-5.855-.4-7.9,1.2-2.078,5.361-1.915,7.047-3.6s1.524-5.845,3.6-7.047c2.048-1.185,5.563,1.022,7.9.4,2.261-.6,4.2-4.291,6.647-4.291s4.386,3.687,6.647,4.291c2.339.625,5.855-1.582,7.9-.4,2.078,1.2,1.915,5.361,3.6,7.047s5.845,1.524,7.047,3.6c1.185,2.048-1.022,5.563-.4,7.9C57.3,27.507,60.986,29.441,60.986,31.893Z" transform="translate(-1.658 -1.658)" fill="#f39600"/>
      <circle id="Ellipse_1337" data-name="Ellipse 1337" cx="19.946" cy="19.946" r="19.946" transform="translate(10.289 10.289)" fill="#fff"/>
      <path id="Path_10673" data-name="Path 10673" d="M28.459,34.043l4.874,1.7a.594.594,0,0,0,.795-.567l-.142-5.08a.578.578,0,0,1,.123-.373L37.263,25.7a.581.581,0,0,0-.3-.918L32,23.343a.6.6,0,0,1-.323-.23L28.751,18.92a.6.6,0,0,0-.982,0l-2.924,4.192a.6.6,0,0,1-.323.23L19.56,24.78a.581.581,0,0,0-.3.918l3.154,4.028a.578.578,0,0,1,.123.373l-.142,5.08a.594.594,0,0,0,.795.567l4.874-1.7a.605.605,0,0,1,.4,0Z" transform="translate(1.975 1.871)" fill="#333"/>
      <path id="Path_10674" data-name="Path 10674" d="M62.952,46.409c0,2.088-2.61,3.643-3.363,5.459-.781,1.882-.063,4.82-1.482,6.239s-4.356.7-6.239,1.482c-1.816.753-3.37,3.363-5.459,3.363s-3.643-2.61-5.459-3.363c-1.882-.781-4.82-.063-6.239-1.482s-.7-4.356-1.482-6.239c-.753-1.816-3.363-3.37-3.363-5.459s2.61-3.643,3.363-5.459c.781-1.882.063-4.82,1.482-6.239s4.356-.7,6.239-1.482c1.816-.753,3.37-3.363,5.459-3.363s3.643,2.61,5.459,3.363c1.882.781,4.82.063,6.239,1.482s.7,4.356,1.482,6.239C60.341,42.766,62.952,44.32,62.952,46.409Z" transform="translate(4.363 4.362)" fill="#fff"/>
      <path id="Path_10675" data-name="Path 10675" d="M38.5,44.125l3.993,3.993,7.986-7.986" transform="translate(6.283 6.646)" fill="#fff"/>
      <path id="Path_10676" data-name="Path 10676" d="M37.485,23.853l-4.777-1.383-2.814-4.034a1.809,1.809,0,0,0-2.854,0l-2.813,4.034-4.778,1.383a1.722,1.722,0,0,0-.884,2.717l3.03,3.868-.136,4.876a1.72,1.72,0,0,0,.707,1.439,1.739,1.739,0,0,0,1.6.237l4.7-1.641,4.7,1.641a1.746,1.746,0,0,0,1.605-.237,1.72,1.72,0,0,0,.707-1.438l-.136-4.877,3.031-3.869a1.734,1.734,0,0,0-.885-2.717Zm-4.068,5.34a1.723,1.723,0,0,0-.364,1.106l.12,4.278-4.13-1.442a1.746,1.746,0,0,0-1.151,0l-4.13,1.442.12-4.277a1.723,1.723,0,0,0-.365-1.109l-2.643-3.375,4.173-1.208a1.739,1.739,0,0,0,.941-.674l2.48-3.555,2.48,3.556a1.738,1.738,0,0,0,.94.673l4.174,1.208Z" transform="translate(1.768 1.665)" fill="#333"/>
      <path id="Path_10677" data-name="Path 10677" d="M51.493,39.5a1.14,1.14,0,0,0-1.613,0l-7.18,7.18L39.513,43.5A1.141,1.141,0,1,0,37.9,45.109L41.893,49.1a1.141,1.141,0,0,0,1.613,0l7.986-7.986A1.14,1.14,0,0,0,51.493,39.5Z" transform="translate(6.075 6.432)" fill="#f39600"/>
      <path id="Path_10678" data-name="Path 10678" d="M68.2,48.552a5.175,5.175,0,0,1-1.7-4.141c-.036-3.863-1.767-5.6-5.636-5.636a6.762,6.762,0,0,1-2.5-.457c3.354-4.069,6.243-5.96,1.426-10.725a7.394,7.394,0,0,1-1.78-2.43c-.444-2.392,1.745-5.849.274-8.18-1.332-2.476-5.364-2.292-7.222-3.845C49.5,11.282,49.7,7.249,47.217,5.917c-2.328-1.464-5.789.7-8.18.285-2.256-.884-4.115-4.42-6.937-4.335-2.818-.083-4.685,3.447-6.936,4.335-2.388.423-5.863-1.763-8.18-.285-2.476,1.333-2.292,5.363-3.845,7.222-1.857,1.557-5.89,1.367-7.222,3.845-1.464,2.317.7,5.794.285,8.18-.884,2.253-4.42,4.117-4.335,6.937-.089,2.818,3.456,4.68,4.324,6.937.441,2.389-1.744,5.851-.274,8.18,1.333,2.477,5.363,2.291,7.222,3.845,1.557,1.854,1.367,5.891,3.845,7.222,2.33,1.465,5.788-.7,8.18-.285a7.622,7.622,0,0,1,2.43,1.791c4.741,4.787,6.627,1.972,10.724-1.426.869,2.02-.008,5.012,1.814,6.777,1.693,1.755,4.623,1.021,6.606,1.734,1.891.936,3.42,3.486,5.9,3.446,2.477.041,4.009-2.509,5.9-3.446,1.988-.713,4.9.021,6.606-1.734,1.756-1.707,1.021-4.617,1.734-6.606A7.619,7.619,0,0,1,68.2,56.721C70.979,53.9,71,51.384,68.2,48.552ZM35.044,58.136c-2.521,2.488-3.353,2.514-5.887,0A8.766,8.766,0,0,0,25.746,55.8a8.949,8.949,0,0,0-4.233.319c-1.312.3-2.67.616-3.388.194-.753-.434-1.152-1.78-1.552-3.08a9.012,9.012,0,0,0-1.814-3.788,9.012,9.012,0,0,0-3.788-1.814c-3.347-.938-3.77-1.53-2.886-4.94A9.011,9.011,0,0,0,8.4,38.455a8.764,8.764,0,0,0-2.339-3.411C5.13,34.04,4.149,33,4.149,32.1c.275-2.136,3.784-4.072,4.255-6.355.748-2.2-1.291-5.66-.513-7.621,1.318-1.681,5.315-1.616,6.868-3.366,1.747-1.552,1.684-5.555,3.366-6.868,1.966-.774,5.418,1.263,7.621.513,2.29-.472,4.218-3.984,6.355-4.256,2.136.276,4.065,3.784,6.355,4.256,2.2.748,5.657-1.291,7.621-.513,1.678,1.318,1.619,5.315,3.366,6.868C51,16.506,55,16.443,56.311,18.125c.77,1.966-1.26,5.418-.513,7.621.475,2.29,3.982,4.218,4.256,6.355-.1,1.59-2.582,3.326-3.5,4.826-2.75-2.715-5.322-2.509-8,.149A7.853,7.853,0,0,1,46.738,38.4c-1.99.714-4.9-.021-6.606,1.734-1.755,1.707-1.021,4.617-1.734,6.606a7.617,7.617,0,0,1-1.323,1.814c-2.651,2.656-2.864,5.264-.148,8a15.236,15.236,0,0,0-1.882,1.586Zm31.443-2.921a7.429,7.429,0,0,0-2.27,5.488,4.876,4.876,0,0,1-.685,2.829c-1.305,1.039-4.236.422-5.876,1.232-1.722.607-3.326,3.142-5.02,3.274-1.7-.134-3.3-2.669-5.02-3.274a9.776,9.776,0,0,0-3.046-.548c-2.86-.089-3.429-.644-3.514-3.514a7.409,7.409,0,0,0-2.271-5.488c-2.012-2.116-2.021-3.037,0-5.157a7.43,7.43,0,0,0,2.27-5.488,4.876,4.876,0,0,1,.685-2.829c1.305-1.04,4.237-.422,5.876-1.232,1.722-.606,3.326-3.143,5.02-3.274.932-.028,2.113,1.157,3.035,1.951A7.112,7.112,0,0,0,60.7,41.057c2.859.089,3.429.645,3.514,3.514a7.43,7.43,0,0,0,2.271,5.488C68.5,52.173,68.509,53.1,66.487,55.215Z" transform="translate(-1.865 -1.865)" fill="#333"/>
    </g>
  </g>
</svg>
