<svg id="Group_9726" data-name="Group 9726" xmlns="http://www.w3.org/2000/svg" width="45.606" height="45.606" viewBox="0 0 45.606 45.606">
  <g id="Ellipse_1338" data-name="Ellipse 1338" fill="#e4e4e4" stroke="#e4e4e4" stroke-linecap="round" stroke-width="2" stroke-dasharray="187">
    <circle cx="22.803" cy="22.803" r="22.803" stroke="none"/>
    <circle cx="22.803" cy="22.803" r="21.803" fill="none"/>
  </g>
  <g id="Ellipse_1336" data-name="Ellipse 1336" fill="none" stroke="#064c87" stroke-linecap="round" stroke-width="4" stroke-dasharray="227">
    <circle cx="22.803" cy="22.803" r="22.803" stroke="none"/>
    <circle cx="22.803" cy="22.803" r="20.803" fill="none"/>
  </g>
  <g id="Group_9615" data-name="Group 9615" transform="translate(1.355 1.355)">
    <circle id="Ellipse_1335" data-name="Ellipse 1335" cx="21.448" cy="21.448" r="21.448" fill="#fff" opacity="0.6"/>
    <g id="badges" transform="translate(6.247 6.247)">
      <path id="Path_10672" data-name="Path 10672" d="M29.073,15.937c0,1.107-1.665,1.981-1.938,3-.282,1.056.714,2.644.179,3.568s-2.421.865-3.182,1.626-.688,2.639-1.626,3.182-2.512-.462-3.568-.179c-1.021.273-1.894,1.938-3,1.938s-1.981-1.665-3-1.938c-1.056-.282-2.644.714-3.568.179S8.5,24.894,7.74,24.133,5.1,23.445,4.558,22.506s.462-2.512.179-3.568c-.273-1.021-1.938-1.894-1.938-3s1.665-1.981,1.938-3c.282-1.056-.714-2.644-.179-3.568S6.979,8.5,7.741,7.74,8.429,5.1,9.367,4.558s2.512.462,3.568.179c1.021-.273,1.894-1.938,3-1.938s1.981,1.665,3,1.938c1.056.282,2.644-.714,3.568-.179s.865,2.421,1.626,3.182,2.639.688,3.182,1.626-.462,2.512-.179,3.568C27.409,13.956,29.073,14.83,29.073,15.937Z" transform="translate(-2.284 -2.284)" fill="#f39600"/>
      <circle id="Ellipse_1337" data-name="Ellipse 1337" cx="9.007" cy="9.007" r="9.007" transform="translate(4.646 4.646)" fill="#fff"/>
      <path id="Path_10673" data-name="Path 10673" d="M23.345,25.609l2.2.769a.268.268,0,0,0,.359-.256l-.064-2.294a.261.261,0,0,1,.056-.168l1.424-1.819a.263.263,0,0,0-.137-.414l-2.24-.649a.269.269,0,0,1-.146-.1l-1.32-1.893a.272.272,0,0,0-.444,0l-1.32,1.893a.269.269,0,0,1-.146.1l-2.24.649a.263.263,0,0,0-.137.414l1.424,1.819a.261.261,0,0,1,.056.168L20.6,26.122a.268.268,0,0,0,.359.256l2.2-.769a.273.273,0,0,1,.18,0Z" transform="translate(-9.602 -9.393)" fill="#333"/>
      <path id="Path_10674" data-name="Path 10674" d="M44.806,37.336c0,.943-1.179,1.645-1.519,2.465-.352.85-.029,2.177-.669,2.817s-1.967.317-2.817.669c-.82.34-1.522,1.519-2.465,1.519s-1.645-1.179-2.465-1.519c-.85-.352-2.177-.029-2.817-.669s-.317-1.967-.669-2.817c-.34-.82-1.519-1.522-1.519-2.465s1.179-1.645,1.519-2.465c.352-.85.029-2.177.669-2.817s1.967-.317,2.817-.669c.82-.34,1.522-1.519,2.465-1.519s1.645,1.179,2.465,1.519c.85.352,2.177.029,2.817.669s.317,1.967.669,2.817C43.627,35.691,44.806,36.393,44.806,37.336Z" transform="translate(-14.41 -14.41)" fill="#fff"/>
      <path id="Path_10675" data-name="Path 10675" d="M38.5,41.935l1.8,1.8,3.606-3.606" transform="translate(-18.278 -19.01)" fill="#fff"/>
      <path id="Path_10676" data-name="Path 10676" d="M26.908,20.5l-2.157-.625L23.48,18.053a.817.817,0,0,0-1.289,0l-1.27,1.821-2.157.625a.778.778,0,0,0-.4,1.227l1.368,1.747-.062,2.2a.777.777,0,0,0,.319.65.785.785,0,0,0,.724.107l2.121-.741,2.12.741a.788.788,0,0,0,.725-.107A.777.777,0,0,0,26,25.675l-.062-2.2,1.368-1.747a.783.783,0,0,0-.4-1.227ZM25.071,22.91a.778.778,0,0,0-.164.5l.054,1.932L23.1,24.691a.788.788,0,0,0-.52,0l-1.865.651.054-1.931a.778.778,0,0,0-.165-.5l-1.194-1.524,1.884-.546a.785.785,0,0,0,.425-.3l1.12-1.605,1.12,1.606a.785.785,0,0,0,.425.3l1.885.546Z" transform="translate(-9.184 -8.977)" fill="#333"/>
      <path id="Path_10677" data-name="Path 10677" d="M43.854,39.319a.515.515,0,0,0-.728,0l-3.242,3.242-1.439-1.439a.515.515,0,1,0-.729.729l1.8,1.8a.515.515,0,0,0,.728,0l3.606-3.606A.515.515,0,0,0,43.854,39.319Z" transform="translate(-17.86 -18.578)" fill="#f39600"/>
      <path id="Path_10678" data-name="Path 10678" d="M31.818,22.947a2.337,2.337,0,0,1-.768-1.87c-.016-1.744-.8-2.53-2.545-2.545a3.053,3.053,0,0,1-1.128-.206c1.515-1.837,2.819-2.691.644-4.843a3.339,3.339,0,0,1-.8-1.1c-.2-1.08.788-2.641.124-3.694-.6-1.118-2.422-1.035-3.261-1.736-.7-.838-.616-2.66-1.736-3.261-1.051-.661-2.614.316-3.694.129-1.019-.4-1.858-2-3.132-1.958-1.273-.038-2.115,1.556-3.132,1.958-1.078.191-2.647-.8-3.694-.129-1.118.6-1.035,2.422-1.736,3.261-.838.7-2.66.617-3.261,1.736-.661,1.046.316,2.616.129,3.694-.4,1.018-2,1.859-1.958,3.132-.04,1.272,1.56,2.113,1.952,3.132.2,1.079-.787,2.642-.124,3.694.6,1.118,2.422,1.034,3.261,1.736.7.837.617,2.66,1.736,3.261,1.052.661,2.614-.316,3.694-.129a3.442,3.442,0,0,1,1.1.809c2.141,2.162,2.992.89,4.843-.644.392.912,0,2.263.819,3.06.765.793,2.087.461,2.983.783.854.423,1.544,1.574,2.663,1.556,1.119.018,1.81-1.133,2.663-1.556.9-.322,2.212.01,2.983-.783.793-.771.461-2.085.783-2.983a3.44,3.44,0,0,1,.6-.819C33.073,25.364,33.082,24.225,31.818,22.947ZM16.847,27.274c-1.138,1.123-1.514,1.135-2.658,0a3.958,3.958,0,0,0-1.54-1.056,4.041,4.041,0,0,0-1.911.144,2.546,2.546,0,0,1-1.53.088c-.34-.2-.52-.8-.7-1.391a4.07,4.07,0,0,0-.819-1.71,4.069,4.069,0,0,0-1.71-.819c-1.511-.423-1.7-.691-1.3-2.231a4.069,4.069,0,0,0,.144-1.911,3.958,3.958,0,0,0-1.056-1.54c-.422-.453-.865-.922-.865-1.329.124-.965,1.708-1.839,1.922-2.87.338-.994-.583-2.556-.232-3.441.6-.759,2.4-.73,3.1-1.52.789-.7.76-2.508,1.52-3.1.888-.349,2.447.57,3.441.232,1.034-.213,1.9-1.8,2.869-1.922.965.125,1.836,1.709,2.87,1.922,1,.338,2.555-.583,3.441-.232.758.6.731,2.4,1.52,3.1.7.789,2.507.76,3.1,1.52.348.888-.569,2.447-.232,3.441.215,1.034,1.8,1.9,1.922,2.869-.046.718-1.166,1.5-1.582,2.179-1.242-1.226-2.4-1.133-3.611.067a3.546,3.546,0,0,1-.819.6c-.9.322-2.211-.01-2.983.783-.793.771-.461,2.085-.783,2.983a3.439,3.439,0,0,1-.6.819c-1.2,1.2-1.293,2.377-.067,3.611a6.88,6.88,0,0,0-.85.716Zm14.2-1.319a3.355,3.355,0,0,0-1.025,2.478,2.2,2.2,0,0,1-.309,1.278c-.589.469-1.913.19-2.653.556-.778.274-1.5,1.419-2.267,1.479-.766-.06-1.488-1.205-2.267-1.479a4.414,4.414,0,0,0-1.376-.247c-1.292-.04-1.548-.291-1.587-1.587a3.345,3.345,0,0,0-1.025-2.478c-.909-.956-.913-1.371,0-2.329a3.355,3.355,0,0,0,1.025-2.478,2.2,2.2,0,0,1,.309-1.278c.589-.469,1.913-.19,2.653-.556.778-.274,1.5-1.419,2.267-1.479.421-.013.954.523,1.37.881a3.211,3.211,0,0,0,2.272.845c1.291.04,1.548.291,1.587,1.587a3.355,3.355,0,0,0,1.025,2.478C31.953,24.582,31.958,25,31.045,25.955Z" transform="translate(-1.865 -1.865)" fill="#333"/>
    </g>
  </g>
</svg>
