<svg id="Group_791" data-name="Group 791" xmlns="http://www.w3.org/2000/svg" width="40" height="40" viewBox="0 0 40 40">
  <rect id="Rectangle_207" data-name="Rectangle 207" width="40" height="40" rx="4" fill="#064c87"/>
  <g id="team" transform="translate(8 9)">
    <path id="Path_1975" data-name="Path 1975" d="M43.1,17.118c3.079,1.3,5.045,3.932,5.045,6.826a6.852,6.852,0,0,1-.482,2.449,4.284,4.284,0,0,0,2.6-3.71c0-1.892-1.484-3.524-3.747-4.118l-.594-.148.482-.371a2.745,2.745,0,0,0,1.15-2.263A2.8,2.8,0,0,0,44.769,13a3.267,3.267,0,0,0-.631.074,4.731,4.731,0,0,1,.037.742A4.794,4.794,0,0,1,43.1,17.118Z" transform="translate(-27.11 -9.03)" fill="#fff"/>
    <path id="Path_1976" data-name="Path 1976" d="M52.552,21.839a5,5,0,0,0-3.636-4.526A3.358,3.358,0,0,0,46.542,11.6a4.567,4.567,0,0,0-.742.074l.111.556a3.267,3.267,0,0,1,.631-.074,2.8,2.8,0,0,1,2.782,2.782,2.846,2.846,0,0,1-1.15,2.263l-.482.371.594.148c2.226.594,3.747,2.263,3.747,4.118a4.284,4.284,0,0,1-2.6,3.71,7.414,7.414,0,0,1-.371.779A5,5,0,0,0,52.552,21.839Z" transform="translate(-28.809 -8.15)" fill="#ffa7a7"/>
    <path id="Path_1977" data-name="Path 1977" d="M4.171,15.757a2.846,2.846,0,0,0,1.15,2.263l.482.371-.556.111C3.021,19.1,1.5,20.765,1.5,22.62a4.154,4.154,0,0,0,2.337,3.562,6.235,6.235,0,0,1-.445-2.337c0-2.894,1.966-5.528,5.045-6.826a5.331,5.331,0,0,1-1.15-3.3,5.535,5.535,0,0,1,.074-.779,1.806,1.806,0,0,0-.445-.037A2.887,2.887,0,0,0,4.171,15.757Z" transform="translate(-0.944 -8.968)" fill="#fff"/>
    <path id="Path_1978" data-name="Path 1978" d="M2.931,25.4A4.154,4.154,0,0,1,.594,21.839c0-1.892,1.484-3.524,3.747-4.118l.594-.148L4.452,17.2A2.745,2.745,0,0,1,3.3,14.939a2.8,2.8,0,0,1,2.782-2.782,1.806,1.806,0,0,1,.445.037l.111-.556a2.808,2.808,0,0,0-.556-.037,3.381,3.381,0,0,0-3.376,3.339,3.5,3.5,0,0,0,.965,2.374A4.951,4.951,0,0,0,0,21.839a4.888,4.888,0,0,0,3.3,4.378A5.462,5.462,0,0,1,2.931,25.4Z" transform="translate(0 -8.15)" fill="#ffa7a7"/>
    <path id="Path_1979" data-name="Path 1979" d="M21.3,17.2c-.037.111-.111.185-.148.3A2.187,2.187,0,0,1,21.3,17.2Zm4.266,7.123a.223.223,0,0,0,.037.148A.223.223,0,0,1,25.562,24.326Zm-4.118-7.568a2.556,2.556,0,0,1-.111.3A2.556,2.556,0,0,0,21.444,16.758Zm.148-.445c-.037.111-.037.223-.074.334C21.556,16.536,21.556,16.424,21.593,16.313Zm4.044,8.5c0,.185.037.334.037.519A2.282,2.282,0,0,1,25.637,24.809Zm-3.9-9.609a2.115,2.115,0,0,1-.037.482C21.7,15.534,21.741,15.385,21.741,15.2Zm-.074.631c0,.111-.037.223-.037.334C21.63,16.053,21.667,15.942,21.667,15.831Zm.408,3.784c.074.037.111.074.185.111A.811.811,0,0,0,22.075,19.615Zm1.039.7.037.037C23.114,20.357,23.114,20.357,23.114,20.32Zm-.482-.371c.037.037.074.037.111.074C22.669,20.023,22.669,19.986,22.632,19.949Zm-1.558-2.3a1.127,1.127,0,0,1-.185.26C20.962,17.834,21,17.723,21.073,17.649Zm4.378,6.158Zm-3.932-4.489.223.111A.6.6,0,0,0,21.519,19.318Zm-.742-1.261a.665.665,0,0,0-.185.26C20.665,18.205,20.739,18.131,20.777,18.057Zm.185,1c.111.037.185.074.3.111A2.557,2.557,0,0,1,20.962,19.058ZM8.274,24.475a.223.223,0,0,1,.037-.148C8.311,24.363,8.274,24.438,8.274,24.475Zm2.449-4.118.037-.037A.036.036,0,0,1,10.723,20.357Zm-2.3,3.487ZM8.2,25.328a2.449,2.449,0,0,1,.037-.519C8.237,24.994,8.2,25.18,8.2,25.328Zm2.931-5.305c.037-.037.074-.037.111-.074C11.205,19.986,11.168,20.023,11.131,20.023Zm1.855-2.115c-.074-.074-.111-.185-.185-.26A1.127,1.127,0,0,0,12.986,17.908Zm-.631-1.261a1.083,1.083,0,0,1-.074-.334A1.083,1.083,0,0,0,12.355,16.647Zm-.111-.482a1.027,1.027,0,0,1-.037-.334A1.027,1.027,0,0,0,12.244,16.165Zm-.631,3.562c.074-.037.111-.074.185-.111A.811.811,0,0,0,11.613,19.726Zm.556-4.044c0-.148-.037-.334-.037-.482A1.96,1.96,0,0,0,12.17,15.682Zm.334,1.41c-.037-.111-.074-.185-.111-.3A2.556,2.556,0,0,1,12.5,17.092Zm.111,2.078c.111-.037.185-.074.3-.111C12.8,19.1,12.726,19.132,12.615,19.17Zm-.519.26.223-.111Zm.631-1.929c-.037-.111-.111-.185-.148-.3A.746.746,0,0,0,12.726,17.5Zm.519.779a.665.665,0,0,1-.185-.26C13.134,18.131,13.208,18.205,13.245,18.279Z" transform="translate(-5.158 -10.414)" fill="#ffd76c"/>
    <path id="Path_1980" data-name="Path 1980" d="M25.961,18.22c0-2.82-2.263-5.305-5.6-6.2l-.594-.148.482-.371A4.2,4.2,0,0,0,17.8,3.9a4.224,4.224,0,0,0-2.486,7.642l.482.371-.594.148c-3.339.89-5.6,3.376-5.6,6.2,0,3.6,3.636,6.529,8.162,6.529C22.288,24.75,25.961,21.819,25.961,18.22Z" transform="translate(-6.038 -3.306)" fill="#fff"/>
    <path id="Path_1981" data-name="Path 1981" d="M25.637,17.214a2.449,2.449,0,0,0-.037-.519c0-.111-.037-.223-.037-.334a.223.223,0,0,0-.037-.148l-.111-.445V15.73a6.716,6.716,0,0,0-2.3-3.45l-.037-.037c-.111-.111-.26-.185-.371-.3-.037-.037-.074-.037-.111-.074a3.263,3.263,0,0,0-.371-.223.811.811,0,0,0-.185-.111c-.111-.074-.223-.111-.334-.185l-.223-.111c-.111-.037-.185-.111-.3-.148s-.185-.074-.3-.111c-.074-.037-.185-.074-.26-.111-.185-.074-.334-.111-.519-.185l.334-.334.111-.111a.665.665,0,0,0,.185-.26.512.512,0,0,0,.111-.148c.074-.074.111-.185.185-.26.037-.037.037-.074.074-.148.037-.111.111-.185.148-.3.037-.037.037-.074.074-.148.037-.111.074-.185.111-.3,0-.037.037-.111.037-.148a1.083,1.083,0,0,0,.074-.334c0-.037.037-.111.037-.148a1.027,1.027,0,0,0,.037-.334.28.28,0,0,1,.037-.148c0-.148.037-.334.037-.482a4.786,4.786,0,1,0-9.572,0,2.115,2.115,0,0,0,.037.482.28.28,0,0,0,.037.148c0,.111.037.223.037.334,0,.037.037.111.037.148.037.111.037.223.074.334,0,.037.037.111.037.148a2.556,2.556,0,0,0,.111.3c.037.037.037.111.074.148.037.111.111.185.148.3.037.037.037.111.074.148a1.127,1.127,0,0,0,.185.26c.037.037.074.111.111.148a1.571,1.571,0,0,1,.185.26l.111.111.334.334c-.185.074-.334.111-.519.185a1.809,1.809,0,0,0-.26.111c-.111.037-.185.074-.3.111s-.185.111-.3.148l-.223.111c-.111.074-.223.111-.334.185-.074.037-.111.074-.185.111a3.262,3.262,0,0,1-.371.223c-.037.037-.074.037-.111.074a3.244,3.244,0,0,0-.371.3l-.037.037a6.868,6.868,0,0,0-2.3,3.45v.037l-.111.445a.223.223,0,0,1-.037.148c0,.111-.037.223-.037.334,0,.185-.037.334-.037.519,0,3.9,3.9,7.086,8.718,7.086C21.741,24.337,25.637,21.146,25.637,17.214Zm-16.843,0c0-2.82,2.263-5.305,5.6-6.2l.594-.148-.482-.371a4.168,4.168,0,0,1-1.744-3.413A4.192,4.192,0,1,1,19.4,10.5l-.482.371.594.148c3.339.89,5.6,3.376,5.6,6.2,0,3.6-3.636,6.529-8.162,6.529S8.794,20.812,8.794,17.214Z" transform="translate(-5.158 -2.3)" fill="#ffa7a7"/>
  </g>
</svg>
