<svg id="Group_790" data-name="Group 790" xmlns="http://www.w3.org/2000/svg" width="40" height="40" viewBox="0 0 40 40">
  <rect id="Rectangle_204" data-name="Rectangle 204" width="40" height="40" rx="4" fill="#064c87"/>
  <g id="job_1_" data-name="job (1)" transform="translate(8 8)">
    <path id="Path_1920" data-name="Path 1920" d="M28.028,58.19H15.778a1.267,1.267,0,0,1-1.267-1.267V56.5H29.3v.422A1.267,1.267,0,0,1,28.028,58.19Z" transform="translate(-9.653 -33.901)" fill="#dbe7f6"/>
    <path id="Path_1921" data-name="Path 1921" d="M29.544,58.19h7.167a1.267,1.267,0,0,0,1.267-1.267V56.5H31.234Z" transform="translate(-18.336 -33.901)" fill="#b4cbea"/>
    <rect id="Rectangle_205" data-name="Rectangle 205" width="2.957" height="0.845" transform="translate(10.772 22.599)" fill="#b4cbea"/>
    <path id="Path_1922" data-name="Path 1922" d="M33.22,57.345V56.5h-.831l-.845.845Z" transform="translate(-19.491 -33.901)" fill="#79a1d5"/>
    <path id="Path_1923" data-name="Path 1923" d="M24.946,37.5H28.76a.845.845,0,0,1,.845.845v7.181H16.51V38.345a.845.845,0,0,1,.845-.845h3.813" transform="translate(-10.807 -22.927)" fill="#b4cbea"/>
    <path id="Path_1924" data-name="Path 1924" d="M31.717,37.5H29.654l-8.026,8.026H32.561V38.345A.845.845,0,0,0,31.717,37.5Z" transform="translate(-13.764 -22.927)" fill="#79a1d5"/>
    <path id="Path_1925" data-name="Path 1925" d="M25.894,39.5h4.022v6.336H18.511V39.5h4.121" transform="translate(-11.963 -24.082)" fill="#f4f8f8"/>
    <path id="Path_1926" data-name="Path 1926" d="M29.963,39.5l-6.336,6.336h9.244V39.5Z" transform="translate(-14.918 -24.082)" fill="#fff"/>
    <path id="Path_1927" data-name="Path 1927" d="M30.755,35.745a1.9,1.9,0,0,1-2.828-2.532,2.033,2.033,0,0,1,.14-.157,1.9,1.9,0,1,1,2.688,2.688Z" transform="translate(-17.161 -20.039)" fill="#f4f8f8"/>
    <path id="Path_1928" data-name="Path 1928" d="M31.512,33.814l0,0L28.821,36.5l0,0a1.9,1.9,0,0,0,2.688-2.688Z" transform="translate(-17.918 -20.796)" fill="#dbe7f6"/>
    <path id="Path_1929" data-name="Path 1929" d="M41.3,24.393,43.394,22.3a.422.422,0,0,0,0-.6L42.2,20.51a.422.422,0,0,0-.6,0L39.511,22.6a.422.422,0,0,0,0,.6l1.195,1.195A.422.422,0,0,0,41.3,24.393Z" transform="translate(-24.021 -13.042)" fill="#f4f8f8"/>
    <path id="Path_1930" data-name="Path 1930" d="M39.509,22.6,41.6,20.51a.421.421,0,0,1,.336-.122.318.318,0,0,1,.033.009l-.006.039-.343,1.519a.8.8,0,0,1-.6.6l-1.58.357-.051.011h0A.421.421,0,0,1,39.509,22.6Z" transform="translate(-24.02 -13.042)" fill="#dbe7f6"/>
    <path id="Path_1931" data-name="Path 1931" d="M42,20.5l-.343,1.519a.8.8,0,0,1-.6.6l-1.58.357-.051.011" transform="translate(-24.042 -13.109)" fill="#dbe7f6"/>
    <path id="Path_1932" data-name="Path 1932" d="M31.544,23.889V20.932a.423.423,0,0,0-.422-.422h-1.69a.422.422,0,0,0-.422.422v2.957a.423.423,0,0,0,.422.422h1.69A.422.422,0,0,0,31.544,23.889Z" transform="translate(-18.027 -13.114)" fill="#f4f8f8"/>
    <path id="Path_1933" data-name="Path 1933" d="M29.01,23.32v.786a.423.423,0,0,0,.422.422h1.69a.423.423,0,0,0,.422-.422V21.15a.415.415,0,0,0-.1-.264Z" transform="translate(-18.027 -13.331)" fill="#dbe7f6"/>
    <path id="Path_1934" data-name="Path 1934" d="M29.215,20.735l-.023-.032c-.009.007-.021.01-.03.017a.421.421,0,0,0-.151.324V24a.42.42,0,0,0,.142.316h0l.028-.044.865-1.369a.8.8,0,0,0,0-.852Z" transform="translate(-18.028 -13.225)" fill="#dbe7f6"/>
    <path id="Path_1935" data-name="Path 1935" d="M29.01,25.179v.786a.42.42,0,0,0,.142.316h0l.028-.044.865-1.369a.793.793,0,0,0,.04-.764Z" transform="translate(-18.027 -15.189)" fill="#b4cbea"/>
    <path id="Path_1936" data-name="Path 1936" d="M16.6,24.393,14.51,22.3a.422.422,0,0,1,0-.6L15.7,20.51a.422.422,0,0,1,.6,0L18.392,22.6a.422.422,0,0,1,0,.6L17.2,24.393A.422.422,0,0,1,16.6,24.393Z" transform="translate(-9.58 -13.042)" fill="#f4f8f8"/>
    <path id="Path_1937" data-name="Path 1937" d="M18.684,22.892l-1.792,1.792,1.156,1.156a.422.422,0,0,0,.6,0l1.195-1.195a.422.422,0,0,0,0-.6Z" transform="translate(-11.028 -14.489)" fill="#dbe7f6"/>
    <path id="Path_1938" data-name="Path 1938" d="M18.062,20.5l.343,1.519a.8.8,0,0,0,.6.6l1.58.357.051.011" transform="translate(-11.704 -13.109)" fill="#dbe7f6"/>
    <path id="Path_1939" data-name="Path 1939" d="M20.508,22.6,18.417,20.51a.421.421,0,0,0-.336-.122.318.318,0,0,0-.033.009l.006.039.343,1.519a.8.8,0,0,0,.6.6l1.58.357.051.011h0A.421.421,0,0,0,20.508,22.6Z" transform="translate(-11.696 -13.042)" fill="#dbe7f6"/>
    <path id="Path_1940" data-name="Path 1940" d="M20.029,22.892l-.808.809a.79.79,0,0,0,.456.3l1.58.357.051.011h0a.422.422,0,0,0-.123-.324Z" transform="translate(-12.373 -14.489)" fill="#b4cbea"/>
    <path id="Path_1941" data-name="Path 1941" d="M40.667,22.892l1.792,1.792L41.3,25.84a.422.422,0,0,1-.6,0l-1.195-1.195a.422.422,0,0,1,0-.6Z" transform="translate(-24.021 -14.489)" fill="#dbe7f6"/>
    <path id="Path_1942" data-name="Path 1942" d="M19.945,14l.809.808a.79.79,0,0,1-.456.3l-1.58.357-.051.011h0a.422.422,0,0,1,.123-.324ZM7.477,11.466A2.323,2.323,0,0,1,4.02,8.372a2.353,2.353,0,0,1,.171-.191,2.323,2.323,0,1,1,3.286,3.286Z" transform="translate(-3.299 -5.599)" fill="#b4cbea"/>
    <path id="Path_1943" data-name="Path 1943" d="M8.4,9.107l0,0L5.115,12.389l0,0A2.323,2.323,0,0,0,8.4,9.107Z" transform="translate(-4.226 -6.526)" fill="#79a1d5"/>
    <path id="Path_1944" data-name="Path 1944" d="M8.432,10.942A.845.845,0,0,1,7.175,9.816a.878.878,0,0,1,.063-.07.845.845,0,1,1,1.195,1.2Z" transform="translate(-5.309 -6.754)" fill="#dbe7f6"/>
    <path id="Path_1945" data-name="Path 1945" d="M8.777,10.094,7.583,11.288a.844.844,0,0,0,1.194-1.194Z" transform="translate(-5.651 -7.097)" fill="#b4cbea"/>
    <path id="Path_1946" data-name="Path 1946" d="M8.291,14.821a1.459,1.459,0,0,0-.7-1.984.835.835,0,0,1-1.248,0,1.475,1.475,0,0,0-.855,1.336,1.491,1.491,0,0,0,.009.163,1.468,1.468,0,0,0,.129.45,2.9,2.9,0,0,0,1.349.442A2.4,2.4,0,0,0,8.291,14.821Z" transform="translate(-4.442 -8.682)" fill="#dbe7f6"/>
    <path id="Path_1947" data-name="Path 1947" d="M8.253,7.554,6.3,9.509a2.559,2.559,0,0,0,1.146.327,2.392,2.392,0,0,0,1.314-.408,1.454,1.454,0,0,0-.505-1.874Zm10.541-.088a2.323,2.323,0,0,1-3.457-3.094,2.353,2.353,0,0,1,.172-.191,2.323,2.323,0,1,1,3.286,3.286Z" transform="translate(-4.909 -3.289)" fill="#b4cbea"/>
    <path id="Path_1948" data-name="Path 1948" d="M31.382,5.107l0,0L28.094,8.389l0,0a2.323,2.323,0,0,0,3.286-3.286Z" transform="translate(-17.498 -4.215)" fill="#79a1d5"/>
    <path id="Path_1949" data-name="Path 1949" d="M31.411,6.942a.845.845,0,0,1-1.257-1.125.878.878,0,0,1,.063-.07.845.845,0,1,1,1.195,1.2Z" transform="translate(-18.581 -4.444)" fill="#dbe7f6"/>
    <path id="Path_1950" data-name="Path 1950" d="M31.757,6.094,30.563,7.288a.844.844,0,0,0,1.194-1.194Z" transform="translate(-18.924 -4.787)" fill="#b4cbea"/>
    <path id="Path_1951" data-name="Path 1951" d="M31.27,10.821a1.459,1.459,0,0,0-.7-1.984.835.835,0,0,1-1.248,0,1.475,1.475,0,0,0-.855,1.336,1.491,1.491,0,0,0,.009.163,1.468,1.468,0,0,0,.129.45,2.9,2.9,0,0,0,1.349.442A2.4,2.4,0,0,0,31.27,10.821Z" transform="translate(-17.715 -6.371)" fill="#dbe7f6"/>
    <path id="Path_1952" data-name="Path 1952" d="M31.232,8.175,29.277,10.13a2.559,2.559,0,0,0,1.146.327,2.392,2.392,0,0,0,1.314-.408,1.455,1.455,0,0,0-.506-1.874Zm10.55,3.291a2.323,2.323,0,0,1-3.457-3.094,2.354,2.354,0,0,1,.171-.191,2.323,2.323,0,1,1,3.286,3.286Z" transform="translate(-18.181 -5.599)" fill="#b4cbea"/>
    <path id="Path_1953" data-name="Path 1953" d="M54.382,9.107l0,0-3.285,3.285,0,0a2.323,2.323,0,0,0,3.286-3.286Z" transform="translate(-30.783 -6.526)" fill="#79a1d5"/>
    <path id="Path_1954" data-name="Path 1954" d="M54.411,10.942a.845.845,0,0,1-1.257-1.125.879.879,0,0,1,.063-.07.845.845,0,0,1,1.195,1.2Z" transform="translate(-31.866 -6.754)" fill="#dbe7f6"/>
    <path id="Path_1955" data-name="Path 1955" d="M54.757,10.094l-1.194,1.194a.844.844,0,0,0,1.194-1.194Z" transform="translate(-32.209 -7.097)" fill="#b4cbea"/>
    <path id="Path_1956" data-name="Path 1956" d="M54.27,14.821a1.459,1.459,0,0,0-.7-1.984.835.835,0,0,1-1.248,0,1.458,1.458,0,0,0-.716,1.95,2.9,2.9,0,0,0,1.349.442A2.4,2.4,0,0,0,54.27,14.821Z" transform="translate(-30.999 -8.682)" fill="#dbe7f6"/>
    <path id="Path_1957" data-name="Path 1957" d="M54.232,13.1l-1.955,1.955a2.559,2.559,0,0,0,1.146.327,2.392,2.392,0,0,0,1.314-.408,1.455,1.455,0,0,0-.506-1.874Z" transform="translate(-31.466 -8.832)" fill="#b4cbea"/>
    <path id="Path_1958" data-name="Path 1958" d="M31,42.345,30.99,41.5h.845l.009.845Z" transform="translate(-19.171 -25.237)" fill="#dbe7f6"/>
    <line id="Line_197" data-name="Line 197" x1="0.008" y1="0.792" transform="translate(11.819 16.263)" fill="#dbe7f6"/>
    <line id="Line_198" data-name="Line 198" x2="0.008" y2="0.792" transform="translate(12.664 16.263)" fill="#dbe7f6"/>
    <path id="Path_1959" data-name="Path 1959" d="M31.144,46.457h0a.634.634,0,0,1-.634-.634V43.5h1.267v2.323A.634.634,0,0,1,31.144,46.457Z" transform="translate(-18.894 -26.392)" fill="#dbe7f6"/>
    <path id="Path_1960" data-name="Path 1960" d="M31.144,47.1a.634.634,0,0,0,.634-.634V44.617L30.51,45.884v.584A.634.634,0,0,0,31.144,47.1Z" transform="translate(-18.894 -27.037)" fill="#b4cbea"/>
    <line id="Line_199" data-name="Line 199" x1="0.896" y2="0.896" transform="translate(20.29 7.462)" fill="#dbe7f6"/>
    <line id="Line_200" data-name="Line 200" x1="0.597" y2="0.597" transform="translate(19.693 7.163)" fill="#dbe7f6"/>
    <path id="Path_1961" data-name="Path 1961" d="M16.611,24.439a.63.63,0,0,1-.448-.185l-2.091-2.091a.635.635,0,0,1,0-.9l1.2-1.2a.634.634,0,0,1,.9,0l2.091,2.091a.633.633,0,0,1,0,.9l-1.195,1.195A.63.63,0,0,1,16.611,24.439Zm-.9-4.13H15.7a.208.208,0,0,0-.131.061l-1.195,1.195a.211.211,0,0,0,0,.3l2.091,2.091h0a.216.216,0,0,0,.3,0l1.195-1.195a.211.211,0,0,0,.062-.137.208.208,0,0,0-.062-.162L15.864,20.37A.209.209,0,0,0,15.715,20.309Z" transform="translate(-9.292 -12.753)" fill="#437abe"/>
    <path id="Path_1962" data-name="Path 1962" d="M19.454,22.916a.221.221,0,0,1-.047-.005l-1.631-.368a1.014,1.014,0,0,1-.762-.762l-.343-1.519a.211.211,0,1,1,.412-.093l.343,1.519a.588.588,0,0,0,.443.443L19.5,22.5a.211.211,0,0,1-.046.417ZM29.528,35.632H16.011V28.239a1.058,1.058,0,0,1,1.056-1.056H20.88v.422H17.067a.634.634,0,0,0-.634.634v6.97H29.106v-6.97a.634.634,0,0,0-.634-.634H24.659v-.422h3.814a1.058,1.058,0,0,1,1.056,1.056Z" transform="translate(-10.519 -12.821)" fill="#fff"/>
    <path id="Path_1963" data-name="Path 1963" d="M27.317,45.759H15.912a.211.211,0,0,1-.211-.211V39.211A.211.211,0,0,1,15.912,39h4.122a.211.211,0,0,1,0,.422H16.123v5.914H27.106V39.422H23.3a.211.211,0,1,1,0-.422h4.022a.211.211,0,0,1,.211.211v6.336A.211.211,0,0,1,27.317,45.759Zm.422,2.534H15.489a1.48,1.48,0,0,1-1.478-1.478v-.422a.211.211,0,0,1,.211-.211H29.007a.211.211,0,0,1,.211.211v.422A1.48,1.48,0,0,1,27.739,48.293ZM14.433,46.6v.211a1.058,1.058,0,0,0,1.056,1.056h12.25A1.058,1.058,0,0,0,28.8,46.815V46.6Z" transform="translate(-9.364 -23.793)" fill="#437abe"/>
    <path id="Path_1964" data-name="Path 1964" d="M30.6,43.405H27.644a.211.211,0,0,1-.211-.211v-.845a.211.211,0,0,1,.211-.211H30.6a.211.211,0,0,1,.211.211v.845A.211.211,0,0,1,30.6,43.405Zm-2.746-.422H30.39V42.56H27.855v.422Zm1.267-6.759a2.112,2.112,0,1,1,2.112-2.112A2.108,2.108,0,0,1,29.122,36.224Zm0-3.8a1.69,1.69,0,1,0,1.69,1.69A1.691,1.691,0,0,0,29.122,32.422Z" transform="translate(-16.872 -19.75)" fill="#437abe"/>
    <path id="Path_1965" data-name="Path 1965" d="M27.495,17.69a.212.212,0,0,1-.21-.189,1.268,1.268,0,0,1,1.26-1.407.211.211,0,1,1,0,.422.846.846,0,0,0-.845.845.874.874,0,0,0,.005.094.211.211,0,0,1-.188.232Zm1.05-9.621a2.53,2.53,0,0,1-2.519-2.254,2.535,2.535,0,1,1,2.519,2.254Zm0-4.647a2.112,2.112,0,1,0,2.112,2.112A2.114,2.114,0,0,0,28.544,3.422Z" transform="translate(-16.294 -3)" fill="#437abe"/>
    <path id="Path_1966" data-name="Path 1966" d="M30.546,7.112a1.054,1.054,0,0,1-1.05-.939,1.073,1.073,0,0,1-.006-.117,1.056,1.056,0,1,1,1.056,1.056Zm0-1.69a.634.634,0,0,0-.634.634.654.654,0,0,0,0,.071.634.634,0,1,0,.63-.7Zm-.414,16a.211.211,0,0,1-.211-.209l-.009-.792a.211.211,0,0,1,.209-.213.216.216,0,0,1,.213.209l.009.792a.211.211,0,0,1-.209.213Zm.845,0a.211.211,0,0,1-.211-.209l-.009-.792a.211.211,0,0,1,.209-.213.216.216,0,0,1,.213.209l.009.792a.211.211,0,0,1-.209.213Z" transform="translate(-18.304 -4.155)" fill="#437abe"/>
    <path id="Path_1967" data-name="Path 1967" d="M19.252,32.782a.846.846,0,0,1-.845-.845V29.614a.211.211,0,0,1,.211-.211h1.267a.211.211,0,0,1,.211.211v2.323A.846.846,0,0,1,19.252,32.782Zm-.422-2.957v2.112a.422.422,0,0,0,.845,0V29.825Zm-7.8-8.75a.212.212,0,0,1-.15-.062l-.9-.9a.211.211,0,1,1,.3-.3l.9.9a.211.211,0,0,1-.149.36Zm.6-.6a.212.212,0,0,1-.15-.062l-.6-.6a.211.211,0,0,1,.3-.3l.6.6a.211.211,0,0,1-.149.36ZM24,24.191a.633.633,0,0,1-.448-.185l-1.2-1.195a.633.633,0,0,1,0-.9l2.091-2.091a.628.628,0,0,1,.5-.183.634.634,0,0,1,.392.183l1.2,1.2a.634.634,0,0,1,0,.9l-2.091,2.091A.633.633,0,0,1,24,24.191Zm.9-4.13a.212.212,0,0,0-.15.062l-2.091,2.091a.211.211,0,0,0,0,.3l1.195,1.195a.212.212,0,0,0,.3,0l2.091-2.091a.209.209,0,0,0,.062-.15.212.212,0,0,0-.062-.15l-1.195-1.2a.208.208,0,0,0-.131-.061Z" transform="translate(-7.002 -12.506)" fill="#437abe"/>
    <path id="Path_1968" data-name="Path 1968" d="M33.12,22.6a.211.211,0,0,1-.046-.417l1.631-.368a.588.588,0,0,0,.443-.443l.343-1.519a.211.211,0,1,1,.412.093l-.343,1.519a1.014,1.014,0,0,1-.762.762l-1.631.368A.217.217,0,0,1,33.12,22.6Zm4.908-1.525a.211.211,0,0,1-.15-.36l.9-.9a.211.211,0,1,1,.3.3l-.9.9A.21.21,0,0,1,38.028,21.075Zm-.6-.6a.211.211,0,0,1-.15-.36l.6-.6a.211.211,0,0,1,.3.3l-.6.6A.21.21,0,0,1,37.431,20.477Zm-6.6,3.438h-1.69a.634.634,0,0,1-.634-.634V20.325a.634.634,0,0,1,.634-.634h1.69a.634.634,0,0,1,.634.634v2.957A.634.634,0,0,1,30.833,23.915Zm-1.69-3.8a.208.208,0,0,0-.136.049.211.211,0,0,0-.076.162v2.957A.214.214,0,0,0,29,23.44a.21.21,0,0,0,.14.053h1.69a.211.211,0,0,0,.211-.211V20.325a.211.211,0,0,0-.211-.211Z" transform="translate(-17.738 -12.506)" fill="#437abe"/>
    <path id="Path_1969" data-name="Path 1969" d="M14.136,14.3a.211.211,0,0,1-.178-.324l.893-1.414a.59.59,0,0,0,0-.626l-.832-1.316a.211.211,0,0,1,.357-.226l.832,1.316a1.014,1.014,0,0,1,0,1.078L14.314,14.2A.212.212,0,0,1,14.136,14.3Zm2.392-4.549a.211.211,0,0,1-.211-.211V8.7a.211.211,0,1,1,.422,0v.845A.211.211,0,0,1,16.527,9.754Zm-2.534,0a.211.211,0,0,1-.211-.211V8.7a.211.211,0,1,1,.422,0v.845A.211.211,0,0,1,13.993,9.754Zm.845,0a.211.211,0,0,1-.211-.211V9.121a.211.211,0,1,1,.422,0v.422A.211.211,0,0,1,14.838,9.754Zm.845,0a.211.211,0,0,1-.211-.211V9.121a.211.211,0,1,1,.422,0v.422A.211.211,0,0,1,15.682,9.754Zm.892-2.093a.211.211,0,0,1-.19-.3,1.256,1.256,0,0,0,.134-.555,1.271,1.271,0,0,0-.609-1.078,1.075,1.075,0,0,1-1.316,0,1.261,1.261,0,0,0-.6,1.218,1.236,1.236,0,0,0,.112.386.211.211,0,0,1-.315.26,2.532,2.532,0,0,1-1.047-1.773,2.363,2.363,0,0,1-.016-.28,2.534,2.534,0,1,1,3.969,2.089A.214.214,0,0,1,16.575,7.661Zm-.7-2.406a.216.216,0,0,1,.09.02A1.7,1.7,0,0,1,16.941,6.8v.01a2.112,2.112,0,1,0-3.793-1.277,2.13,2.13,0,0,0,.013.234,2.077,2.077,0,0,0,.4,1.012,1.7,1.7,0,0,1,.976-1.505.211.211,0,0,1,.246.049.638.638,0,0,0,.935,0A.213.213,0,0,1,15.875,5.254ZM5.544,9.759A2.53,2.53,0,0,1,3.025,7.5,2.535,2.535,0,1,1,5.544,9.759Zm0-4.647A2.112,2.112,0,1,0,7.657,7.224,2.114,2.114,0,0,0,5.544,5.112Z" transform="translate(-3.01 -3)" fill="#437abe"/>
    <path id="Path_1970" data-name="Path 1970" d="M7.546,11.112a1.054,1.054,0,0,1-1.05-.939,1.072,1.072,0,0,1-.006-.117,1.056,1.056,0,1,1,1.056,1.056Zm0-1.69a.634.634,0,0,0-.634.634.654.654,0,0,0,0,.071.634.634,0,1,0,.63-.7Z" transform="translate(-5.02 -6.466)" fill="#437abe"/>
    <path id="Path_1971" data-name="Path 1971" d="M6.859,11.661a.211.211,0,0,1-.19-.3A1.256,1.256,0,0,0,6.8,10.8a1.271,1.271,0,0,0-.609-1.078,1.075,1.075,0,0,1-1.316,0,1.261,1.261,0,0,0-.6,1.218,1.236,1.236,0,0,0,.112.386.211.211,0,0,1-.315.26A2.532,2.532,0,0,1,3.026,9.815a2.363,2.363,0,0,1-.016-.28,2.534,2.534,0,1,1,3.969,2.089A.214.214,0,0,1,6.859,11.661Zm-.7-2.406a.216.216,0,0,1,.09.02A1.7,1.7,0,0,1,7.226,10.8v.01a2.111,2.111,0,1,0-3.78-1.044,2.077,2.077,0,0,0,.4,1.012,1.7,1.7,0,0,1,.976-1.505.212.212,0,0,1,.246.049.638.638,0,0,0,.935,0A.212.212,0,0,1,6.16,9.254Z" transform="translate(-3.01 -5.31)" fill="#437abe"/>
    <g id="Group_786" data-name="Group 786" transform="translate(19.423 1.69)">
      <path id="Path_1972" data-name="Path 1972" d="M51.524,12.069a2.53,2.53,0,0,1-2.519-2.254,2.535,2.535,0,1,1,2.519,2.254Zm0-4.647a2.112,2.112,0,1,0,2.112,2.112A2.114,2.114,0,0,0,51.524,7.422Z" transform="translate(-48.99 -7)" fill="#437abe"/>
      <path id="Path_1973" data-name="Path 1973" d="M53.525,11.112a1.056,1.056,0,1,1,1.056-1.056A1.054,1.054,0,0,1,53.525,11.112Zm0-1.69a.634.634,0,1,0,.634.634A.634.634,0,0,0,53.525,9.422Z" transform="translate(-50.999 -8.155)" fill="#437abe"/>
      <path id="Path_1974" data-name="Path 1974" d="M52.839,11.661a.211.211,0,0,1-.19-.3,1.253,1.253,0,0,0,.134-.555,1.271,1.271,0,0,0-.609-1.078,1.075,1.075,0,0,1-1.315,0,1.27,1.27,0,0,0-.61,1.078,1.283,1.283,0,0,0,.008.141,1.243,1.243,0,0,0,.112.385.211.211,0,0,1-.315.26,2.535,2.535,0,0,1-1.047-1.773,2.363,2.363,0,0,1-.016-.28,2.534,2.534,0,1,1,3.968,2.089A.214.214,0,0,1,52.839,11.661Zm-.7-2.406a.209.209,0,0,1,.09.02,1.7,1.7,0,0,1,.976,1.527v.011a2.112,2.112,0,1,0-3.793-1.278,2.13,2.13,0,0,0,.013.234,2.081,2.081,0,0,0,.4,1.012A1.7,1.7,0,0,1,50.8,9.274a.211.211,0,0,1,.246.049.638.638,0,0,0,.935,0A.213.213,0,0,1,52.14,9.254Z" transform="translate(-48.99 -7)" fill="#437abe"/>
    </g>
  </g>
</svg>
