<svg width="30" height="26" viewBox="0 0 30 26" fill="none" xmlns="http://www.w3.org/2000/svg">
<path d="M13.2344 5.1875H9.625C10.1836 5.875 10.5703 6.69141 10.8281 7.59375H13.2344C13.3633 7.59375 13.4922 7.67969 13.5781 7.76562C13.6641 7.85156 13.75 7.98047 13.75 8.10938V9.14062C13.75 9.3125 13.6641 9.44141 13.5781 9.52734C13.4922 9.61328 13.3633 9.65625 13.2344 9.65625H11C10.9141 11.418 10.3125 12.8359 9.19531 13.9102C8.07812 14.9844 6.66016 15.5 4.94141 15.5H4.38281L11.3008 21.4727C11.4727 21.6445 11.5586 21.8164 11.4727 22.0312C11.3867 22.2891 11.2148 22.375 10.957 22.375H8.33594C8.20703 22.375 8.07812 22.332 7.99219 22.2461L0.171875 15.5C0.0429688 15.4141 0 15.2852 0 15.1133V13.6094C0 13.4805 0.0429688 13.3516 0.128906 13.2656C0.214844 13.1797 0.34375 13.0938 0.515625 13.0938H4.51172C5.58594 13.0938 6.44531 12.793 7.13281 12.1914C7.77734 11.5898 8.16406 10.7305 8.25 9.65625H0.515625C0.34375 9.65625 0.214844 9.61328 0.128906 9.52734C0.0429688 9.44141 0 9.3125 0 9.14062V8.10938C0 7.98047 0.0429688 7.85156 0.128906 7.76562C0.214844 7.67969 0.34375 7.59375 0.515625 7.59375H7.94922C7.69141 6.94922 7.26172 6.43359 6.66016 6.08984C6.05859 5.74609 5.37109 5.53125 4.55469 5.53125H0.515625C0.34375 5.53125 0.214844 5.48828 0.128906 5.40234C0.0429688 5.31641 0 5.1875 0 5.01562V3.64062C0 3.51172 0.0429688 3.38281 0.128906 3.29688C0.214844 3.21094 0.34375 3.125 0.515625 3.125H13.2344C13.3633 3.125 13.4922 3.21094 13.5781 3.29688C13.6641 3.38281 13.75 3.51172 13.75 3.64062V4.67188C13.75 4.84375 13.6641 4.97266 13.5781 5.05859C13.4922 5.14453 13.3633 5.1875 13.2344 5.1875Z" fill="black"/>
<path d="M19.5 14.7082V8.2915" stroke="black" stroke-width="1.5" stroke-linecap="round" stroke-linejoin="round"/>
<path d="M16.293 11.4998L19.5013 8.2915L22.7096 11.4998" stroke="black" stroke-width="1.5" stroke-linecap="round" stroke-linejoin="round"/>
<path d="M24.5 15.2918V21.7085" stroke="black" stroke-width="1.5" stroke-linecap="round" stroke-linejoin="round"/>
<path d="M21.293 18.5002L24.5013 21.7085L27.7096 18.5002" stroke="black" stroke-width="1.5" stroke-linecap="round" stroke-linejoin="round"/>
</svg>
