<svg width="146" height="22" viewBox="0 0 146 22" fill="none" xmlns="http://www.w3.org/2000/svg">
<path d="M5.24 18.39C6.2 18.39 6.9 18.28 7.34 18.06C7.78 17.82 8 17.42 8 16.86C8 16.34 7.76 15.91 7.28 15.57C6.82 15.23 6.05 14.86 4.97 14.46C4.31 14.22 3.7 13.97 3.14 13.71C2.6 13.43 2.13 13.11 1.73 12.75C1.33 12.39 1.01 11.96 0.77 11.46C0.55 10.94 0.44 10.31 0.44 9.57C0.44 8.13 0.97 7 2.03 6.18C3.09 5.34 4.53 4.92 6.35 4.92C7.27 4.92 8.15 5.01 8.99 5.19C9.83 5.35 10.46 5.51 10.88 5.67L10.22 8.61C9.82 8.43 9.31 8.27 8.69 8.13C8.07 7.97 7.35 7.89 6.53 7.89C5.79 7.89 5.19 8.02 4.73 8.28C4.27 8.52 4.04 8.9 4.04 9.42C4.04 9.68 4.08 9.91 4.16 10.11C4.26 10.31 4.42 10.5 4.64 10.68C4.86 10.84 5.15 11.01 5.51 11.19C5.87 11.35 6.31 11.52 6.83 11.7C7.69 12.02 8.42 12.34 9.02 12.66C9.62 12.96 10.11 13.31 10.49 13.71C10.89 14.09 11.18 14.53 11.36 15.03C11.54 15.53 11.63 16.13 11.63 16.83C11.63 18.33 11.07 19.47 9.95 20.25C8.85 21.01 7.27 21.39 5.21 21.39C3.83 21.39 2.72 21.27 1.88 21.03C1.04 20.81 0.45 20.63 0.11 20.49L0.74 17.46C1.28 17.68 1.92 17.89 2.66 18.09C3.42 18.29 4.28 18.39 5.24 18.39ZM14.8409 1.17L18.4709 0.569998V5.31H24.0509V8.34H18.4709V14.73C18.4709 15.99 18.6709 16.89 19.0709 17.43C19.4709 17.97 20.1509 18.24 21.1109 18.24C21.7709 18.24 22.3509 18.17 22.8509 18.03C23.3709 17.89 23.7809 17.76 24.0809 17.64L24.6809 20.52C24.2609 20.7 23.7109 20.88 23.0309 21.06C22.3509 21.26 21.5509 21.36 20.6309 21.36C19.5109 21.36 18.5709 21.21 17.8109 20.91C17.0709 20.61 16.4809 20.18 16.0409 19.62C15.6009 19.04 15.2909 18.35 15.1109 17.55C14.9309 16.73 14.8409 15.8 14.8409 14.76V1.17ZM41.3984 13.14C41.3984 14.38 41.2184 15.51 40.8584 16.53C40.4984 17.55 39.9884 18.42 39.3284 19.14C38.6684 19.86 37.8684 20.42 36.9284 20.82C36.0084 21.22 34.9884 21.42 33.8684 21.42C32.7484 21.42 31.7284 21.22 30.8084 20.82C29.8884 20.42 29.0984 19.86 28.4384 19.14C27.7784 18.42 27.2584 17.55 26.8784 16.53C26.5184 15.51 26.3384 14.38 26.3384 13.14C26.3384 11.9 26.5184 10.78 26.8784 9.78C27.2584 8.76 27.7784 7.89 28.4384 7.17C29.1184 6.45 29.9184 5.9 30.8384 5.52C31.7584 5.12 32.7684 4.92 33.8684 4.92C34.9684 4.92 35.9784 5.12 36.8984 5.52C37.8384 5.9 38.6384 6.45 39.2984 7.17C39.9584 7.89 40.4684 8.76 40.8284 9.78C41.2084 10.78 41.3984 11.9 41.3984 13.14ZM37.6784 13.14C37.6784 11.58 37.3384 10.35 36.6584 9.45C35.9984 8.53 35.0684 8.07 33.8684 8.07C32.6684 8.07 31.7284 8.53 31.0484 9.45C30.3884 10.35 30.0584 11.58 30.0584 13.14C30.0584 14.72 30.3884 15.97 31.0484 16.89C31.7284 17.81 32.6684 18.27 33.8684 18.27C35.0684 18.27 35.9984 17.81 36.6584 16.89C37.3384 15.97 37.6784 14.72 37.6784 13.14ZM54.0781 8.58C53.7781 8.48 53.3581 8.38 52.8181 8.28C52.2981 8.16 51.6881 8.1 50.9881 8.1C50.5881 8.1 50.1581 8.14 49.6981 8.22C49.2581 8.3 48.9481 8.37 48.7681 8.43V21H45.1381V6.06C45.8381 5.8 46.7081 5.56 47.7481 5.34C48.8081 5.1 49.9781 4.98 51.2581 4.98C51.4981 4.98 51.7781 5 52.0981 5.04C52.4181 5.06 52.7381 5.1 53.0581 5.16C53.3781 5.2 53.6881 5.26 53.9881 5.34C54.2881 5.4 54.5281 5.46 54.7081 5.52L54.0781 8.58ZM56.3677 13.23C56.3677 11.85 56.5677 10.64 56.9677 9.6C57.3877 8.56 57.9377 7.7 58.6177 7.02C59.2977 6.32 60.0777 5.8 60.9577 5.46C61.8377 5.1 62.7377 4.92 63.6577 4.92C65.8177 4.92 67.4977 5.59 68.6977 6.93C69.9177 8.27 70.5277 10.27 70.5277 12.93C70.5277 13.13 70.5177 13.36 70.4977 13.62C70.4977 13.86 70.4877 14.08 70.4677 14.28H60.1177C60.2177 15.54 60.6577 16.52 61.4377 17.22C62.2377 17.9 63.3877 18.24 64.8877 18.24C65.7677 18.24 66.5677 18.16 67.2877 18C68.0277 17.84 68.6077 17.67 69.0277 17.49L69.5077 20.46C69.3077 20.56 69.0277 20.67 68.6677 20.79C68.3277 20.89 67.9277 20.98 67.4677 21.06C67.0277 21.16 66.5477 21.24 66.0277 21.3C65.5077 21.36 64.9777 21.39 64.4377 21.39C63.0577 21.39 61.8577 21.19 60.8377 20.79C59.8177 20.37 58.9777 19.8 58.3177 19.08C57.6577 18.34 57.1677 17.48 56.8477 16.5C56.5277 15.5 56.3677 14.41 56.3677 13.23ZM66.8977 11.61C66.8977 11.11 66.8277 10.64 66.6877 10.2C66.5477 9.74 66.3377 9.35 66.0577 9.03C65.7977 8.69 65.4677 8.43 65.0677 8.25C64.6877 8.05 64.2277 7.95 63.6877 7.95C63.1277 7.95 62.6377 8.06 62.2177 8.28C61.7977 8.48 61.4377 8.75 61.1377 9.09C60.8577 9.43 60.6377 9.82 60.4777 10.26C60.3177 10.7 60.2077 11.15 60.1477 11.61H66.8977Z" fill="#FF0303"/>
<path d="M74.3764 5.82C75.0764 5.62 75.9864 5.43 77.1064 5.25C78.2264 5.07 79.4664 4.98 80.8264 4.98C82.1064 4.98 83.1764 5.16 84.0364 5.52C84.8964 5.86 85.5764 6.35 86.0764 6.99C86.5964 7.61 86.9564 8.37 87.1564 9.27C87.3764 10.15 87.4864 11.12 87.4864 12.18V21H83.8564V12.75C83.8564 11.91 83.7964 11.2 83.6764 10.62C83.5764 10.02 83.3964 9.54 83.1364 9.18C82.8964 8.8 82.5564 8.53 82.1164 8.37C81.6964 8.19 81.1764 8.1 80.5564 8.1C80.0964 8.1 79.6164 8.13 79.1164 8.19C78.6164 8.25 78.2464 8.3 78.0064 8.34V21H74.3764V5.82ZM97.4452 18.45C98.5652 18.45 99.4152 18.39 99.9952 18.27V14.25C99.7952 14.19 99.5052 14.13 99.1252 14.07C98.7452 14.01 98.3252 13.98 97.8652 13.98C97.4652 13.98 97.0552 14.01 96.6352 14.07C96.2352 14.13 95.8652 14.24 95.5252 14.4C95.2052 14.56 94.9452 14.79 94.7452 15.09C94.5452 15.37 94.4452 15.73 94.4452 16.17C94.4452 17.03 94.7152 17.63 95.2552 17.97C95.7952 18.29 96.5252 18.45 97.4452 18.45ZM97.1452 4.92C98.3452 4.92 99.3552 5.07 100.175 5.37C100.995 5.67 101.645 6.09 102.125 6.63C102.625 7.17 102.975 7.83 103.175 8.61C103.395 9.37 103.505 10.21 103.505 11.13V20.64C102.945 20.76 102.095 20.9 100.955 21.06C99.8352 21.24 98.5652 21.33 97.1452 21.33C96.2052 21.33 95.3452 21.24 94.5652 21.06C93.7852 20.88 93.1152 20.59 92.5552 20.19C92.0152 19.79 91.5852 19.27 91.2652 18.63C90.9652 17.99 90.8152 17.2 90.8152 16.26C90.8152 15.36 90.9852 14.6 91.3252 13.98C91.6852 13.36 92.1652 12.86 92.7652 12.48C93.3652 12.08 94.0552 11.8 94.8352 11.64C95.6352 11.46 96.4652 11.37 97.3252 11.37C97.7252 11.37 98.1452 11.4 98.5852 11.46C99.0252 11.5 99.4952 11.58 99.9952 11.7V11.1C99.9952 10.68 99.9452 10.28 99.8452 9.9C99.7452 9.52 99.5652 9.19 99.3052 8.91C99.0652 8.61 98.7352 8.38 98.3152 8.22C97.9152 8.06 97.4052 7.98 96.7852 7.98C95.9452 7.98 95.1752 8.04 94.4752 8.16C93.7752 8.28 93.2052 8.42 92.7652 8.58L92.3152 5.64C92.7752 5.48 93.4452 5.32 94.3252 5.16C95.2052 5 96.1452 4.92 97.1452 4.92ZM116.891 12.75C116.891 11.11 116.681 9.93 116.261 9.21C115.861 8.47 115.101 8.1 113.981 8.1C113.581 8.1 113.141 8.13 112.661 8.19C112.181 8.25 111.821 8.3 111.581 8.34V21H107.951V5.82C108.651 5.62 109.561 5.43 110.681 5.25C111.821 5.07 113.021 4.98 114.281 4.98C115.361 4.98 116.241 5.12 116.921 5.4C117.621 5.68 118.201 6.05 118.661 6.51C118.881 6.35 119.161 6.18 119.501 6C119.841 5.82 120.221 5.66 120.641 5.52C121.061 5.36 121.501 5.23 121.961 5.13C122.441 5.03 122.921 4.98 123.401 4.98C124.621 4.98 125.621 5.16 126.401 5.52C127.201 5.86 127.821 6.35 128.261 6.99C128.721 7.61 129.031 8.37 129.191 9.27C129.371 10.15 129.461 11.12 129.461 12.18V21H125.831V12.75C125.831 11.11 125.631 9.93 125.231 9.21C124.831 8.47 124.061 8.1 122.921 8.1C122.341 8.1 121.791 8.2 121.271 8.4C120.751 8.58 120.361 8.76 120.101 8.94C120.261 9.44 120.371 9.97 120.431 10.53C120.491 11.09 120.521 11.69 120.521 12.33V21H116.891V12.75ZM139.428 18.45C140.548 18.45 141.398 18.39 141.978 18.27V14.25C141.778 14.19 141.488 14.13 141.108 14.07C140.728 14.01 140.308 13.98 139.848 13.98C139.448 13.98 139.038 14.01 138.618 14.07C138.218 14.13 137.848 14.24 137.508 14.4C137.188 14.56 136.928 14.79 136.728 15.09C136.528 15.37 136.428 15.73 136.428 16.17C136.428 17.03 136.698 17.63 137.238 17.97C137.778 18.29 138.508 18.45 139.428 18.45ZM139.128 4.92C140.328 4.92 141.338 5.07 142.158 5.37C142.978 5.67 143.628 6.09 144.108 6.63C144.608 7.17 144.958 7.83 145.158 8.61C145.378 9.37 145.488 10.21 145.488 11.13V20.64C144.928 20.76 144.078 20.9 142.938 21.06C141.818 21.24 140.548 21.33 139.128 21.33C138.188 21.33 137.328 21.24 136.548 21.06C135.768 20.88 135.098 20.59 134.538 20.19C133.998 19.79 133.568 19.27 133.248 18.63C132.948 17.99 132.798 17.2 132.798 16.26C132.798 15.36 132.968 14.6 133.308 13.98C133.668 13.36 134.148 12.86 134.748 12.48C135.348 12.08 136.038 11.8 136.818 11.64C137.618 11.46 138.448 11.37 139.308 11.37C139.708 11.37 140.128 11.4 140.568 11.46C141.008 11.5 141.478 11.58 141.978 11.7V11.1C141.978 10.68 141.928 10.28 141.828 9.9C141.728 9.52 141.548 9.19 141.288 8.91C141.048 8.61 140.718 8.38 140.298 8.22C139.898 8.06 139.388 7.98 138.768 7.98C137.928 7.98 137.158 8.04 136.458 8.16C135.758 8.28 135.188 8.42 134.748 8.58L134.298 5.64C134.758 5.48 135.428 5.32 136.308 5.16C137.188 5 138.128 4.92 139.128 4.92Z" fill="black"/>
</svg>
