<svg id="Iconly_Light-outline_Paper_Plus" data-name="Iconly/Light-outline/Paper Plus" xmlns="http://www.w3.org/2000/svg" width="24" height="24" viewBox="0 0 24 24">
  <rect id="Iconly_Light-outline_Paper_Plus_Background_" data-name="Iconly/Light-outline/Paper Plus (Background)" width="24" height="24" fill="none"/>
  <g id="Paper_Plus" data-name="Paper Plus" transform="translate(3.5 2)">
    <path id="Paper_Plus-2" data-name="Paper Plus" d="M4.584,19.865A4.455,4.455,0,0,1,0,15.34V4.491A4.388,4.388,0,0,1,1.359,1.328,4.607,4.607,0,0,1,4.584.012h6.257a.756.756,0,0,1,.265,0h.13a.758.758,0,0,1,.542.23l5.065,5.276a.752.752,0,0,1,.21.52v9.3a4.508,4.508,0,0,1-4.48,4.525Zm0-18.353A3.073,3.073,0,0,0,1.5,4.491V15.34a2.954,2.954,0,0,0,3.083,3.025h7.988a3.006,3.006,0,0,0,2.98-3.025V6.983l-.877,0-1.135,0a3.324,3.324,0,0,1-3.312-3.137l-.005-.188V1.511Zm7.14,2.147a1.824,1.824,0,0,0,1.821,1.824h1.187L11.723,2.352ZM7.6,13.467l-.007-.1v-1.7h-1.7a.75.75,0,0,1-.1-1.493l.1-.007h1.7v-1.7a.75.75,0,0,1,1.493-.1l.007.1v1.7h1.7a.75.75,0,0,1,.1,1.493l-.1.007h-1.7v1.7a.75.75,0,0,1-1.493.1Z" fill="#200e32"/>
  </g>
</svg>
