<svg id="Iconly_Light_Paper_Upload" data-name="Iconly/Light/Paper Upload" xmlns="http://www.w3.org/2000/svg" width="24" height="24" viewBox="0 0 24 24">
  <rect id="Iconly_Light_Paper_Upload_Background_" data-name="Iconly/Light/Paper Upload (Background)" width="24" height="24" fill="none"/>
  <g id="Paper_Upload" data-name="Paper Upload" transform="translate(4.25 2.75)">
    <path id="Stroke_1" data-name="Stroke 1" d="M3.834,0A3.82,3.82,0,0,0,0,3.729V14.466a3.806,3.806,0,0,0,3.834,3.887h7.988a3.867,3.867,0,0,0,3.73-3.887V5.276L10.486,0Z" transform="translate(0 0.012)" fill="none" stroke="#200e32" stroke-linecap="round" stroke-linejoin="round" stroke-width="1.5" stroke-dasharray="0 0"/>
    <path id="Stroke_3" data-name="Stroke 3" d="M0,0V2.909A2.575,2.575,0,0,0,2.569,5.484c1.316,0,2.663,0,2.754,0" transform="translate(10.223)" fill="none" stroke="#200e32" stroke-linecap="round" stroke-linejoin="round" stroke-width="1.5" stroke-dasharray="0 0"/>
    <path id="Stroke_5" data-name="Stroke 5" d="M.5,0V6.573" transform="translate(6.89 6.69)" fill="none" stroke="#200e32" stroke-linecap="round" stroke-linejoin="round" stroke-width="1.5" stroke-dasharray="0 0"/>
    <path id="Stroke_7" data-name="Stroke 7" d="M0,2.851,2.838,0,5.677,2.851" transform="translate(4.552 6.69)" fill="none" stroke="#200e32" stroke-linecap="round" stroke-linejoin="round" stroke-width="1.5" stroke-dasharray="0 0"/>
  </g>
</svg>
