<svg xmlns="http://www.w3.org/2000/svg" width="44.906" height="38" viewBox="0 0 44.906 38">
  <g id="add" transform="translate(-4 -9.838)">
    <path id="Path_6116" data-name="Path 6116" d="M31.34,15.527c0,2.694-2.185,7.405-4.887,7.405s-4.887-4.7-4.887-7.405a4.887,4.887,0,0,1,9.765,0ZM16.394,36.663a10.059,10.059,0,1,1,20.118,0m7.016-17.9c0,2.28-1.851,6.357-4.132,6.357s-4.132-4.108-4.132-6.357a4.136,4.136,0,1,1,8.271,0Zm-9.28,11.227a8.518,8.518,0,0,1,13.659,6.794M9.378,18.761c0,2.28,1.851,6.357,4.132,6.357s4.132-4.108,4.132-6.357a4.136,4.136,0,0,0-8.271,0Zm9.28,11.227A8.518,8.518,0,0,0,5,36.782m11.791,2.789a10.067,10.067,0,0,0,19.34,0" transform="translate(0)" fill="none" stroke="#37a849" stroke-linecap="round" stroke-linejoin="round" stroke-width="2"/>
    <line id="Line_202" data-name="Line 202" y2="9.535" transform="translate(26.453 32.42)" fill="none" stroke="#37a849" stroke-linecap="round" stroke-linejoin="round" stroke-width="2"/>
    <line id="Line_203" data-name="Line 203" x2="9.535" transform="translate(21.686 37.187)" fill="none" stroke="#37a849" stroke-linecap="round" stroke-linejoin="round" stroke-width="2"/>
  </g>
</svg>
