<svg xmlns="http://www.w3.org/2000/svg" xmlns:xlink="http://www.w3.org/1999/xlink" width="40.309" height="43" viewBox="0 0 40.309 43">
  <defs>
    <linearGradient id="linear-gradient" x1="0.06" y1="0.893" x2="0.868" y2="0.136" gradientUnits="objectBoundingBox">
      <stop offset="0" stop-color="#fcc60e"/>
      <stop offset="1" stop-color="#e92e29"/>
    </linearGradient>
  </defs>
  <path id="customer-loyalty" d="M32.025,4.134l1.641,1.319-.552,2.032A.85.85,0,0,0,34.4,8.42l1.761-1.153L37.925,8.42a.851.851,0,0,0,1.288-.936L38.66,5.453,40.3,4.134A.851.851,0,0,0,39.81,2.62l-2.1-.1L36.959.549h0a.852.852,0,0,0-1.592,0L34.62,2.518l-2.1.1a.851.851,0,0,0-.492,1.514Zm2.982-.29a.851.851,0,0,0,.755-.548l.4-1.057.4,1.058a.851.851,0,0,0,.754.548l1.13.055-.882.709a.851.851,0,0,0-.288.887l.3,1.091-.946-.619a.851.851,0,0,0-.933,0l-.946.619.3-1.092a.851.851,0,0,0-.288-.887L33.877,3.9ZM41.5,5.95l1.641,1.319L42.585,9.3a.85.85,0,0,0,1.288.936l1.762-1.153L47.4,10.237A.851.851,0,0,0,48.684,9.3l-.552-2.032L49.772,5.95a.851.851,0,0,0-.492-1.514l-2.1-.1L46.43,2.366h0a.852.852,0,0,0-1.592,0l-.747,1.968-2.1.1A.851.851,0,0,0,41.5,5.95Zm2.982-.29a.851.851,0,0,0,.755-.548l.4-1.057.4,1.058a.851.851,0,0,0,.754.548l1.13.055-.882.709a.851.851,0,0,0-.288.887l.3,1.091L46.1,7.783a.851.851,0,0,0-.933,0l-.946.619.3-1.092a.851.851,0,0,0-.288-.887l-.882-.709Zm-21.924.29L24.2,7.269,23.643,9.3a.85.85,0,0,0,1.288.936l1.762-1.153,1.762,1.153A.851.851,0,0,0,29.742,9.3l-.552-2.032L30.831,5.95a.851.851,0,0,0-.492-1.514l-2.1-.1-.747-1.968h0a.851.851,0,0,0-1.592,0l-.747,1.968-2.1.1a.851.851,0,0,0-.492,1.514Zm2.982-.29a.851.851,0,0,0,.755-.548l.4-1.057.4,1.057a.851.851,0,0,0,.754.548l1.13.055-.882.709a.852.852,0,0,0-.288.887L28.1,8.4l-.946-.619a.851.851,0,0,0-.933,0l-.946.619.3-1.092a.851.851,0,0,0-.288-.887l-.882-.709ZM29.3,16.346a2.916,2.916,0,1,0-4.2,0A5.085,5.085,0,0,0,22.314,19.5a1.684,1.684,0,0,0,1.611,2.185h5.667v.527a2.26,2.26,0,0,0,2.258,2.258h8.627a2.26,2.26,0,0,0,2.258-2.258v-.527H48.4A1.683,1.683,0,0,0,50.013,19.5a5.085,5.085,0,0,0-2.782-3.151,2.916,2.916,0,1,0-4.2,0,5.053,5.053,0,0,0-1.671,1.213,6.6,6.6,0,0,0-2.793-2.069,3.672,3.672,0,1,0-4.8,0A6.6,6.6,0,0,0,30.97,17.56,5.052,5.052,0,0,0,29.3,16.346Zm-2.1-3.592a1.573,1.573,0,1,1-1.573,1.573A1.574,1.574,0,0,1,27.2,12.754ZM23.647,20.2a.337.337,0,0,1-.05-.306,3.767,3.767,0,0,1,6.621-1.132,6.575,6.575,0,0,0-.53,1.577H23.925A.336.336,0,0,1,23.647,20.2Zm19.909-5.873A1.573,1.573,0,1,1,45.129,15.9,1.574,1.574,0,0,1,43.557,14.327Zm1.573,2.916a3.749,3.749,0,0,1,3.6,2.651.34.34,0,0,1-.328.444H42.638a6.581,6.581,0,0,0-.53-1.577A3.736,3.736,0,0,1,45.129,17.244Zm-8.966-6.856a2.328,2.328,0,1,1-2.328,2.328A2.331,2.331,0,0,1,36.163,10.387Zm0,6a5.249,5.249,0,0,1,5.228,4.66V22.21a.915.915,0,0,1-.914.914H31.85a.915.915,0,0,1-.914-.914V21.048A5.249,5.249,0,0,1,36.163,16.388ZM55.9,27.347c-.385-.643-1.965-2.553-6.126-.129l-7.3,4.254a4.021,4.021,0,0,1-1.065.438,2.925,2.925,0,0,0,.307-.739,2.791,2.791,0,0,0-1.9-3.341.706.706,0,0,0-.088-.022A36.568,36.568,0,0,1,33.9,26.079c-.579-.209-1.125-.407-1.59-.558a6.045,6.045,0,0,0-4.986.961l-5.413,3.134-.582-1.028a1.75,1.75,0,0,0-2.381-.66l-2.049,1.16a1.749,1.749,0,0,0-.66,2.381l6.024,10.645a1.748,1.748,0,0,0,2.381.66l2.049-1.16a1.75,1.75,0,0,0,.66-2.381l-.528-.933,1.21-.7,9.345,2.5a6.015,6.015,0,0,0,1.561.213,5.456,5.456,0,0,0,2.9-.845L55.09,31.312A3.007,3.007,0,0,0,55.9,27.347ZM26.216,40.2a.4.4,0,0,1-.189.244L23.978,41.6a.407.407,0,0,1-.55-.152L17.4,30.807a.407.407,0,0,1,.152-.55l2.049-1.16a.4.4,0,0,1,.2-.052.411.411,0,0,1,.11.015.4.4,0,0,1,.244.189l5.17,9.135h0l.853,1.507A.4.4,0,0,1,26.216,40.2Zm28.17-10.033L41.132,38.329a4.2,4.2,0,0,1-3.41.478l-9.613-2.576a.672.672,0,0,0-.51.067l-1.441.832-3.591-6.345,5.424-3.14a4.8,4.8,0,0,1,3.9-.845c.444.144.955.329,1.548.543a37.885,37.885,0,0,0,6,1.778,1.428,1.428,0,0,1,.978,1.7,1.366,1.366,0,0,1-1.66.985c-1.075-.221-2.1-.513-3.177-.821-.513-.147-1.044-.3-1.589-.444a.672.672,0,1,0-.348,1.3c.535.143,1.06.293,1.568.438,1.115.318,2.168.619,3.3.851l.013,0,.014,0,.908.148a5.383,5.383,0,0,0,3.7-.65l7.3-4.254c2.09-1.217,3.7-1.345,4.3-.341A1.68,1.68,0,0,1,54.386,30.168ZM20.269,31.277a.732.732,0,1,1-.83-.618A.732.732,0,0,1,20.269,31.277Z" transform="translate(-16.008)" fill-rule="evenodd" fill="url(#linear-gradient)"/>
</svg>
