<svg xmlns="http://www.w3.org/2000/svg" width="44" height="39.509" viewBox="0 0 44 39.509">
  <g id="employment" transform="translate(0 -3.27)">
    <path id="Path_6114" data-name="Path 6114" d="M36.285,32.449a12.447,12.447,0,0,0,2.523-7.521c0-.261-.007-.536-.028-.8a11.5,11.5,0,0,0-.151-1.286A12.341,12.341,0,0,0,35.15,16.1c-.158-.158-.323-.316-.488-.461-.351-.309-.7-.591-1.066-.859a12.527,12.527,0,0,0-14.554,0c-.364.261-.722.557-1.066.859-.158.151-.323.3-.481.454a12.421,12.421,0,0,0-3.486,6.744c-.069.426-.124.859-.151,1.286A12.486,12.486,0,0,0,33.844,34.9l8.333,9.783a2.76,2.76,0,1,0,3.891-3.891Zm-2.86-.412a10.041,10.041,0,1,1,0-14.211A10.062,10.062,0,0,1,33.425,32.037Z" transform="translate(-4.323 -2.869)" fill="#292f64"/>
    <path id="Path_6115" data-name="Path 6115" d="M24.173,20.966l-.124-.014L22.406,23.3a.484.484,0,0,1-.406.192.489.489,0,0,1-.4-.192l-1.643-2.344-.124.014A5.165,5.165,0,0,0,15.311,26.1v2.255h1.547l-.124-2.3a.522.522,0,0,1,.523-.529.492.492,0,0,1,.461.474l.131,2.358h8.305L26.283,26a.5.5,0,0,1,.516-.467h.007a.493.493,0,0,1,.461.522l-.124,2.3h1.547V26.1A5.186,5.186,0,0,0,24.173,20.966ZM22,20.451a3.1,3.1,0,1,0-3.1-3.1A3.106,3.106,0,0,0,22,20.451ZM13.028,12.07l.213-.192-.248-.144a6.186,6.186,0,0,0-2.372-.777l-.124-.014L8.511,13.8a.512.512,0,0,1-.406.193.462.462,0,0,1-.4-.193l-2-2.86-.137.021A6.256,6.256,0,0,0,0,17.206V20H2.042l-.151-2.853a.5.5,0,0,1,.516-.516.492.492,0,0,1,.467.468L3.032,20h5.7l.028-.179a13.3,13.3,0,0,1,3.747-7.253C12.678,12.393,12.849,12.235,13.028,12.07ZM8.092,10.447A3.589,3.589,0,1,0,4.5,6.859,3.591,3.591,0,0,0,8.092,10.447Zm30.332.509-.124-.014L36.307,13.8a.474.474,0,0,1-.4.206A.512.512,0,0,1,35.5,13.8l-2-2.86-.124.014a6.252,6.252,0,0,0-2.372.77l-.254.144.22.2c.179.158.351.323.522.495a13.228,13.228,0,0,1,3.733,7.253l.028.179h5.7l.165-2.908a.5.5,0,0,1,.509-.461h.007a.491.491,0,0,1,.461.516l-.151,2.853H44V17.2A6.28,6.28,0,0,0,38.424,10.956ZM35.9,10.447a3.589,3.589,0,1,0-3.589-3.589A3.591,3.591,0,0,0,35.9,10.447Z" fill="#292f64"/>
  </g>
</svg>
