<svg xmlns="http://www.w3.org/2000/svg" xmlns:xlink="http://www.w3.org/1999/xlink" width="40.632" height="41" viewBox="0 0 40.632 41">
  <defs>
    <linearGradient id="linear-gradient" x1="0.5" y1="1.01" x2="0.5" y2="-0.088" gradientUnits="objectBoundingBox">
      <stop offset="0" stop-color="#00efd1"/>
      <stop offset="1" stop-color="#00acea"/>
    </linearGradient>
    <linearGradient id="linear-gradient-2" x1="0.5" y1="8.532" x2="0.5" y2="-12.349" xlink:href="#linear-gradient"/>
    <linearGradient id="linear-gradient-3" x1="0.5" y1="10.773" x2="0.5" y2="-11.425" xlink:href="#linear-gradient"/>
    <linearGradient id="linear-gradient-4" x1="0.5" y1="5.471" x2="0.5" y2="-14.808" xlink:href="#linear-gradient"/>
    <linearGradient id="linear-gradient-5" x1="0.5" y1="6.817" x2="0.5" y2="-13.463" xlink:href="#linear-gradient"/>
    <linearGradient id="linear-gradient-6" x1="0.5" y1="17.84" x2="0.5" y2="-14.369" xlink:href="#linear-gradient"/>
    <linearGradient id="linear-gradient-7" x1="0.5" y1="1.538" x2="0.5" y2="-6.15" xlink:href="#linear-gradient"/>
    <linearGradient id="linear-gradient-8" x1="0.5" y1="2.036" x2="0.5" y2="0.006" xlink:href="#linear-gradient"/>
    <linearGradient id="linear-gradient-9" x1="0.5" y1="1.909" x2="0.5" y2="-2.292" xlink:href="#linear-gradient"/>
  </defs>
  <g id="freelancer" transform="translate(-13.3 -11.157)">
    <path id="Path_6105" data-name="Path 6105" d="M83.23,69.427c.05-.536.084-1.071.084-1.615a15.807,15.807,0,1,0-15.8,15.82c.469,0,.937-.025,1.406-.059a10.563,10.563,0,0,0,2.988,3.716v.017h.025a10.608,10.608,0,0,0,13.133,0h.017v-.017a10.638,10.638,0,0,0-1.85-17.862Zm-27,7.709A14.574,14.574,0,0,1,52.88,68.4h5.357a21.279,21.279,0,0,0,1.08,6.3,15.712,15.712,0,0,0-3.089,2.436Zm3.089-16.213a21.013,21.013,0,0,0-1.08,6.3H52.88a14.6,14.6,0,0,1,3.348-8.738,15.115,15.115,0,0,0,3.089,2.436Zm19.427-2.469a14.6,14.6,0,0,1,3.382,8.772H76.768a21.189,21.189,0,0,0-1.088-6.336A15.559,15.559,0,0,0,78.744,58.453ZM75.6,67.234H68.089V63.166a15.714,15.714,0,0,0,6.545-1.691A19.937,19.937,0,0,1,75.6,67.234Zm-7.508-5.248v-8.63a13.556,13.556,0,0,1,6.135,7.014A14.561,14.561,0,0,1,68.089,61.986Zm-1.172,0a14.706,14.706,0,0,1-6.144-1.6,13.558,13.558,0,0,1,6.144-7.039Zm0,1.18v4.068H59.409a19.813,19.813,0,0,1,.954-5.734A15.983,15.983,0,0,0,66.917,63.166Zm-7.508,5.24h7.508v4.068a15.95,15.95,0,0,0-6.554,1.666A20.5,20.5,0,0,1,59.409,68.405Zm8.68,12.764a9.609,9.609,0,0,0,.259.963c-.084.05-.167.092-.259.142Zm-1.172-7.525v8.638a13.522,13.522,0,0,1-6.144-7.039A14.739,14.739,0,0,1,66.917,73.645ZM68.089,76.7V73.645c.377.017.753.042,1.13.084A10.576,10.576,0,0,0,68.089,76.7Zm2.21-4.545c-.1.117-.193.234-.285.352-.033.042-.059.084-.092.126a16.772,16.772,0,0,0-1.833-.176V68.405H75.6c0,.1-.008.209-.008.31-.017,0-.025.008-.042.008A10.54,10.54,0,0,0,70.3,72.155Zm6.47-3.75H77.1l-.335.05Zm5.357,0c-.008.176-.017.36-.033.536a10.091,10.091,0,0,0-2.218-.536ZM77.957,57.583a14.105,14.105,0,0,1-2.7,2.193,15.122,15.122,0,0,0-4.779-6.294,14.654,14.654,0,0,1,7.483,4.1Zm-13.417-4.1a15.14,15.14,0,0,0-4.8,6.328,14.544,14.544,0,0,1-2.729-2.185,14.623,14.623,0,0,1,7.525-4.143ZM57.015,78.006a14.215,14.215,0,0,1,2.729-2.185,15.072,15.072,0,0,0,4.8,6.328,14.563,14.563,0,0,1-7.525-4.143Zm16.087,8.7a4.546,4.546,0,0,1,4.5-3.959h1.758a4.546,4.546,0,0,1,4.5,3.959A9.45,9.45,0,0,1,73.1,86.711Zm11.793-.82a5.719,5.719,0,0,0-5.533-4.3H77.605a5.719,5.719,0,0,0-5.533,4.3A9.449,9.449,0,0,1,69.9,82.928a7.478,7.478,0,0,1-.293-.711c-.033-.084-.059-.176-.092-.259a9.447,9.447,0,0,1,1.431-8.73c.084-.109.167-.209.251-.318A9.456,9.456,0,1,1,84.9,85.891Z" transform="translate(-35.186 -37.425)" fill="url(#linear-gradient)"/>
    <path id="Path_6106" data-name="Path 6106" d="M26.113,304,25,304.36c.176.544.377,1.088.6,1.615l1.08-.46C26.465,305.021,26.281,304.511,26.113,304Z" transform="translate(-10.721 -268.332)" fill="url(#linear-gradient-2)"/>
    <path id="Path_6107" data-name="Path 6107" d="M16.555,266.2l-1.155.176c.075.511.193,1.063.335,1.682l1.138-.268C16.731,267.2,16.63,266.677,16.555,266.2Z" transform="translate(-1.924 -233.696)" fill="url(#linear-gradient-3)"/>
    <path id="Path_6108" data-name="Path 6108" d="M63.1,373.111c.352.46.72.9,1.1,1.323l.87-.787c-.36-.4-.711-.82-1.038-1.247Z" transform="translate(-45.632 -331.007)" fill="url(#linear-gradient-4)"/>
    <path id="Path_6109" data-name="Path 6109" d="M42.038,339.7,41,340.244c.268.511.552,1,.862,1.49l.988-.628C42.557,340.654,42.289,340.177,42.038,339.7Z" transform="translate(-25.381 -301.044)" fill="url(#linear-gradient-5)"/>
    <path id="Path_6110" data-name="Path 6110" d="M14.472,233.237c0-.251.008-.511.025-.77l-1.172-.067c-.017.285-.025.561-.025.837,0,.151,0,.293.008.444l1.172-.033C14.472,233.5,14.472,233.371,14.472,233.237Z" transform="translate(0 -202.725)" fill="url(#linear-gradient-6)"/>
    <path id="Path_6111" data-name="Path 6111" d="M108.782,410.96a17.679,17.679,0,0,1-5.591-1.222,16.7,16.7,0,0,1-2.2-1.071c-.251-.142-.5-.3-.745-.46-.126-.075-.243-.159-.36-.243a18.77,18.77,0,0,1-1.523-1.163l-.762.887a17.7,17.7,0,0,0,1.624,1.239l.385.259c.259.167.527.335.8.485a19.07,19.07,0,0,0,2.352,1.147,18.748,18.748,0,0,0,5.96,1.306c.385.025.946.042,1.406.042h.234l-.017-1.172C109.862,411,109.209,410.985,108.782,410.96Z" transform="translate(-77.244 -362.527)" fill="url(#linear-gradient-7)"/>
    <path id="Path_6112" data-name="Path 6112" d="M53.586,20.075h2.7V18.9H55.017a19.019,19.019,0,0,1,14.932-6.545c10.195.569,16.665,9.333,17.033,17.477.025.527.017,1.063-.008,1.574l1.172.067a16.4,16.4,0,0,0,.008-1.7A20.213,20.213,0,0,0,83.107,17.53a18.514,18.514,0,0,0-13.091-6.345,18.979,18.979,0,0,0-9.91,2.235,21.533,21.533,0,0,0-5.934,4.662V16.768H53v2.72a.582.582,0,0,0,.586.586Z" transform="translate(-36.377)" fill="url(#linear-gradient-8)"/>
    <path id="Path_6113" data-name="Path 6113" d="M331.984,284.028a2.017,2.017,0,0,0,.134-.7,1.925,1.925,0,0,0-3.85,0,2.19,2.19,0,0,0,.084.578,3.856,3.856,0,0,0-2.151,3.465.587.587,0,0,0,.72.569l3.817-.9a3.466,3.466,0,0,0,1.415,1.992,2.676,2.676,0,0,1-4.461-.41,2.607,2.607,0,0,1-.176-.419l-1.113.368a3.19,3.19,0,0,0,.259.6,3.859,3.859,0,0,0,6.9-.176,3.777,3.777,0,0,0,.36-1.632A3.931,3.931,0,0,0,331.984,284.028Zm-2.553-.711a.753.753,0,0,1,1.507,0,.77.77,0,0,1-.05.276,4.024,4.024,0,0,0-.845-.092,4.262,4.262,0,0,0-.578.042A.672.672,0,0,1,329.431,283.317Zm3.231,4.629a2.606,2.606,0,0,1-.9-1.682.575.575,0,0,0-.243-.419.559.559,0,0,0-.343-.109.733.733,0,0,0-.134.017l-3.566.837c.025-.075.05-.159.084-.234a2.678,2.678,0,0,1,5.164,1A3.491,3.491,0,0,1,332.662,287.945Z" transform="translate(-286.71 -247.624)" fill="url(#linear-gradient-9)"/>
  </g>
</svg>
