<svg xmlns="http://www.w3.org/2000/svg" xmlns:xlink="http://www.w3.org/1999/xlink" width="41" height="39.618" viewBox="0 0 41 39.618">
  <defs>
    <linearGradient id="linear-gradient" y1="0.5" x2="0.931" y2="0.5" gradientUnits="objectBoundingBox">
      <stop offset="0" stop-color="#000092"/>
      <stop offset="1" stop-color="#ff00f3"/>
    </linearGradient>
  </defs>
  <path id="user" d="M15.85,2A7.782,7.782,0,1,0,23.6,9.782,7.778,7.778,0,0,0,15.85,2Zm0,1.415A6.367,6.367,0,1,1,9.511,9.782,6.342,6.342,0,0,1,15.85,3.415Zm18.567,6.693a.707.707,0,0,0-.707.707v.724a5.606,5.606,0,0,0-.6.243l-.511-.508a.707.707,0,0,0-1,0l-1.5,1.5a.707.707,0,0,0,0,1l.511.511a5.456,5.456,0,0,0-.249.6h-.721a.707.707,0,0,0-.707.707v2.122a.707.707,0,0,0,.707.707h.724a5.459,5.459,0,0,0,.243.6l-.508.511a.707.707,0,0,0,0,1l1.5,1.5a.707.707,0,0,0,1,0l.511-.511a5.357,5.357,0,0,0,.6.246v.724a.707.707,0,0,0,.707.707h2.122a.707.707,0,0,0,.707-.707v-.724a5.594,5.594,0,0,0,.6-.246l.511.511a.707.707,0,0,0,1,0l1.5-1.5a.707.707,0,0,0,0-1l-.511-.511a5.466,5.466,0,0,0,.249-.6h.721a.707.707,0,0,0,.707-.707V15.59a.707.707,0,0,0-.707-.707H40.59a5.478,5.478,0,0,0-.246-.6l.511-.511a.707.707,0,0,0,0-1l-1.5-1.5a.707.707,0,0,0-1,0l-.511.511a5.375,5.375,0,0,0-.6-.249v-.721a.707.707,0,0,0-.707-.707Zm.707,1.415h.707V12a.707.707,0,0,0,.55.691,4.077,4.077,0,0,1,1.26.52.707.707,0,0,0,.876-.1l.337-.337.5.5-.337.334a.707.707,0,0,0-.1.876,4.066,4.066,0,0,1,.52,1.26.707.707,0,0,0,.688.553h.481v.707h-.478a.707.707,0,0,0-.691.55,4.071,4.071,0,0,1-.52,1.26.707.707,0,0,0,.1.876l.337.337-.5.5-.334-.337a.707.707,0,0,0-.876-.1,4.064,4.064,0,0,1-1.26.517.707.707,0,0,0-.553.691v.481h-.707V21.3a.707.707,0,0,0-.55-.691,4.077,4.077,0,0,1-1.26-.52.707.707,0,0,0-.876.1l-.337.337-.5-.5.337-.337a.707.707,0,0,0,.1-.873,4.066,4.066,0,0,1-.52-1.26A.707.707,0,0,0,30.83,17h-.481v-.707h.478a.707.707,0,0,0,.691-.55,4.071,4.071,0,0,1,.52-1.26.707.707,0,0,0-.1-.876l-.337-.337.5-.5.334.334a.707.707,0,0,0,.876.1,4.07,4.07,0,0,1,1.26-.52A.707.707,0,0,0,35.124,12Zm.354,2.8a2.33,2.33,0,1,0,2.33,2.33A2.341,2.341,0,0,0,35.478,14.322Zm0,1.415a.915.915,0,1,1-.915.915A.915.915,0,0,1,35.478,15.737ZM11.633,18.978A10.625,10.625,0,0,0,1.021,29.631V36.02a.707.707,0,0,0,.707.707H7.181a.708.708,0,0,0,.415,0h11.96a2.219,2.219,0,0,1,.387-.716,2.221,2.221,0,0,1-1.4-.7H8.1v-5.69a.708.708,0,1,0-1.415,0v5.69H2.436V29.631a9.182,9.182,0,0,1,9.2-9.238h8.489a9.142,9.142,0,0,1,5.629,1.926,1.97,1.97,0,0,1,1.315-.511h.246a10.536,10.536,0,0,0-7.19-2.83Zm15.433,4.247a.707.707,0,0,0-.707.707V25.2a7.62,7.62,0,0,0-1.268.522l-.89-.89a.707.707,0,0,0-1,0l-2.183,2.183a.707.707,0,0,0,0,1l.89.89a7.615,7.615,0,0,0-.525,1.268h-1.26a.707.707,0,0,0-.707.707v3.087a.707.707,0,0,0,.707.707h1.263a7.617,7.617,0,0,0,.52,1.271l-.887.89a.707.707,0,0,0,0,1L23.2,40.016a.707.707,0,0,0,1,0l.89-.892a7.6,7.6,0,0,0,1.268.525v1.263a.707.707,0,0,0,.707.707h3.087a.707.707,0,0,0,.707-.707V39.645a7.655,7.655,0,0,0,1.271-.52l.89.89a.707.707,0,0,0,1,0L36.2,37.833a.707.707,0,0,0,0-1l-.893-.892a7.6,7.6,0,0,0,.525-1.268H37.1a.707.707,0,0,0,.707-.707V30.877a.707.707,0,0,0-.707-.707H35.834a7.614,7.614,0,0,0-.52-1.268l.89-.89a.707.707,0,0,0,0-1l-2.183-2.183a.707.707,0,0,0-1,0l-.893.892a7.61,7.61,0,0,0-1.268-.528v-1.26a.707.707,0,0,0-.707-.707Zm.707,1.415h1.672v1.017a.707.707,0,0,0,.55.688,6.244,6.244,0,0,1,1.932.8.707.707,0,0,0,.876-.1l.718-.718L34.7,27.511l-.716.713a.707.707,0,0,0-.1.876,6.23,6.23,0,0,1,.793,1.932.707.707,0,0,0,.691.553h1.02v1.672H35.376a.707.707,0,0,0-.691.55,6.244,6.244,0,0,1-.8,1.932.707.707,0,0,0,.1.876l.718.719-1.183,1.183-.716-.716a.707.707,0,0,0-.873-.1A6.248,6.248,0,0,1,30,38.493a.707.707,0,0,0-.553.691V40.2H27.774V39.187a.707.707,0,0,0-.55-.691,6.243,6.243,0,0,1-1.932-.8.707.707,0,0,0-.876.1l-.716.718-1.183-1.183.713-.716a.707.707,0,0,0,.1-.873,6.242,6.242,0,0,1-.793-1.934.707.707,0,0,0-.691-.553h-1.02V31.585h1.017a.708.708,0,0,0,.688-.55,6.242,6.242,0,0,1,.8-1.932.707.707,0,0,0-.1-.876l-.719-.716L23.7,26.329l.713.713a.707.707,0,0,0,.876.1,6.227,6.227,0,0,1,1.932-.793.707.707,0,0,0,.553-.691Zm.837,4.245a3.537,3.537,0,1,0,3.534,3.534A3.55,3.55,0,0,0,28.611,28.885Zm0,1.415a2.122,2.122,0,1,1-2.122,2.119A2.122,2.122,0,0,1,28.611,30.3Z" transform="translate(-1.021 -2)" fill-rule="evenodd" fill="url(#linear-gradient)"/>
</svg>
