<svg xmlns="http://www.w3.org/2000/svg" xmlns:xlink="http://www.w3.org/1999/xlink" width="286.167" height="314.967" viewBox="0 0 286.167 314.967">
  <defs>
    <clipPath id="clip-path">
      <rect id="Rectangle_3078" data-name="Rectangle 3078" width="286" height="290" fill="none"/>
    </clipPath>
    <clipPath id="clip-path-2">
      <rect id="Rectangle_3079" data-name="Rectangle 3079" width="286.167" height="314.966" fill="none"/>
    </clipPath>
    <clipPath id="clip-path-3">
      <path id="Path_4220" data-name="Path 4220" d="M114.845,29.147,78.877,35.433S72.39,61.176,74.159,72.85c.806,5.314,6.133,12.738,11.7,19.249A98.143,98.143,0,0,0,73.572,123.27a16.335,16.335,0,0,0-5.308,1.366c-2.948,1.8-11.2,14.967-13.267,21.852s2.359,23.049,7.076,28.437c2.509,2.867,9.361,2.767,15.223,2.047,13.468,37.573,48.956,64.406,90.619,64.406,35.058,0,65.742-19,82.616-47.411l53.3,1.314-2.948-89.5L257.472,107.2c-14.2-36.089-48.944-61.589-89.558-61.589A95.344,95.344,0,0,0,147.571,47.8V28.548Z" transform="translate(-54.475 -28.548)" fill="none"/>
    </clipPath>
  </defs>
  <g id="Group_7912" data-name="Group 7912" transform="translate(-3406 -3533)">
    <g id="Group_7907" data-name="Group 7907" transform="translate(3406 3533)">
      <g id="Group_7906" data-name="Group 7906" transform="translate(0 0)" clip-path="url(#clip-path)">
        <path id="Path_4158" data-name="Path 4158" d="M180.886,253.736c-53.348,0-96.6-43.824-96.6-97.884s43.248-97.884,96.6-97.884,96.6,43.824,96.6,97.884-43.248,97.884-96.6,97.884" transform="translate(-36.048 -24.348)" fill="#f9f9fc"/>
        <path id="Path_4159" data-name="Path 4159" d="M88.684,158.077c0-52.83,42.264-95.657,94.4-95.657,51.768,0,93.8,42.228,94.385,94.544,0-.371.014-.741.014-1.114,0-54.06-43.248-97.884-96.6-97.884s-96.6,43.824-96.6,97.884,43.248,97.884,96.6,97.884c.367,0,.732-.01,1.1-.014-51.628-.6-93.3-43.185-93.3-95.643" transform="translate(-36.048 -24.347)" fill="#aaa5ba"/>
        <path id="Path_5514" data-name="Path 5514" d="M.1.175,28.116,0l-.1,16.319L0,16.494Z" transform="matrix(0.578, -0.816, 0.816, 0.578, 62.528, 236.628)" fill="#aaa5ba"/>
        <path id="Path_4160" data-name="Path 4160" d="M132.876,372.371a109.57,109.57,0,0,0,11.53,11.986l4.464-6.38-13.253-9.523Z" transform="translate(-56.826 -154.761)" fill="#001552"/>
        <path id="Path_5515" data-name="Path 5515" d="M.229.479,77.01,0l-.229,36.5L0,36.978Z" transform="translate(9.99 293.578) rotate(-54.66)" fill="#3919a4"/>
        <path id="Path_5516" data-name="Path 5516" d="M.077.479,76.858,0l-.077,12.235L0,12.714Z" transform="matrix(0.578, -0.816, 0.816, 0.578, 29.783, 307.612)" fill="#001552"/>
        <path id="Path_4161" data-name="Path 4161" d="M172.277,37.839C112.566,37.839,64.161,86.89,64.161,147.4s48.405,109.558,108.116,109.558S280.394,207.9,280.394,147.4,231.988,37.839,172.277,37.839m0,207.442c-53.348,0-96.6-43.824-96.6-97.884s43.248-97.884,96.6-97.884,96.6,43.824,96.6,97.884-43.248,97.884-96.6,97.884" transform="translate(-27.439 -15.893)" fill="#c0c0de"/>
        <path id="Path_4162" data-name="Path 4162" d="M85.48,420.5a.848.848,0,0,1-.508-.169.878.878,0,0,1-.184-1.216l6.336-8.74a.851.851,0,0,1,1.2-.186.877.877,0,0,1,.184,1.216l-6.336,8.741a.854.854,0,0,1-.693.355" transform="translate(-36.19 -172.219)" fill="#fff"/>
        <path id="Path_4163" data-name="Path 4163" d="M28.681,477.346a.848.848,0,0,1-.508-.169.878.878,0,0,1-.184-1.216l26.825-37a.851.851,0,0,1,1.2-.187.878.878,0,0,1,.184,1.216l-26.825,37a.854.854,0,0,1-.693.355" transform="translate(-11.899 -184.227)" fill="#fff"/>
      </g>
    </g>
    <g id="Group_7909" data-name="Group 7909" transform="translate(3406 3533)">
      <g id="Group_7908" data-name="Group 7908" clip-path="url(#clip-path-2)">
        <path id="Path_4164" data-name="Path 4164" d="M271.715,35.231a.855.855,0,0,1-.3-.057A112.389,112.389,0,0,0,203.2,31.313a.858.858,0,0,1-1.045-.628.872.872,0,0,1,.62-1.058,114.086,114.086,0,0,1,69.243,3.92.873.873,0,0,1,.5,1.122.859.859,0,0,1-.8.561" transform="translate(-86.444 -10.928)" fill="#e2353f"/>
        <path id="Path_4165" data-name="Path 4165" d="M392.281,356.837a.849.849,0,0,1-.611-.259.878.878,0,0,1,.009-1.23,115.144,115.144,0,0,0,13.673-16.482.851.851,0,0,1,1.194-.22.878.878,0,0,1,.217,1.21,116.928,116.928,0,0,1-13.88,16.73.85.85,0,0,1-.6.251" transform="translate(-167.398 -142.177)" fill="#e2353f"/>
        <path id="Path_4166" data-name="Path 4166" d="M244.628,410.03c-3.5,0-7.037-.161-10.509-.48a.87.87,0,0,1,.155-1.733c3.42.314,6.9.473,10.354.473a111.3,111.3,0,0,0,66.891-22.168.851.851,0,0,1,1.2.187.877.877,0,0,1-.184,1.216,112.986,112.986,0,0,1-67.906,22.505" transform="translate(-99.791 -162.113)" fill="#e2353f"/>
        <path id="Path_4167" data-name="Path 4167" d="M51.382,264.147a.858.858,0,0,1-.78-.506,124.261,124.261,0,0,1-11.166-51.8A126.8,126.8,0,0,1,41,192a.857.857,0,0,1,.984-.721.868.868,0,0,1,.711,1,125.16,125.16,0,0,0-1.537,19.565,122.511,122.511,0,0,0,11.008,51.072.874.874,0,0,1-.42,1.154.845.845,0,0,1-.359.08" transform="translate(-16.865 -80.338)" fill="#e2353f"/>
        <path id="Path_4168" data-name="Path 4168" d="M311.523,424.219a.861.861,0,0,1-.824-.628.871.871,0,0,1,.586-1.077,119.194,119.194,0,0,0,22.1-8.981.854.854,0,0,1,1.158.369.875.875,0,0,1-.365,1.173,120.853,120.853,0,0,1-22.413,9.108.83.83,0,0,1-.239.035" transform="translate(-132.861 -173.655)" fill="#e2353f"/>
        <path id="Path_4169" data-name="Path 4169" d="M364.548,99.23l42.095-38.166,12.85,21.1Z" transform="translate(-155.905 -25.649)" fill="#ffcd4c"/>
        <path id="Path_4170" data-name="Path 4170" d="M291.041,99.486l8.617-31.324,13.167,8.5Z" transform="translate(-124.469 -28.63)" fill="#e2353f"/>
        <path id="Path_4171" data-name="Path 4171" d="M385.345,393.356l13.59,33.554,18.142-18.451Z" transform="translate(-164.799 -165.222)" fill="#e2353f"/>
        <path id="Path_4172" data-name="Path 4172" d="M81.867,319.4,36.5,332.673,45.388,350Z" transform="translate(-15.61 -134.158)" fill="#ffcd4c"/>
        <path id="Path_4173" data-name="Path 4173" d="M67.083,154.957l-29.245-7.483,8.271-14.668Z" transform="translate(-16.182 -55.782)" fill="#e2353f"/>
        <path id="Path_4174" data-name="Path 4174" d="M216.51,459.377a5.465,5.465,0,1,1-5.465-5.538A5.5,5.5,0,0,1,216.51,459.377Z" transform="translate(-87.92 -190.626)" fill="none" stroke="#3919a4" stroke-width="2"/>
        <ellipse id="Ellipse_163" data-name="Ellipse 163" cx="6.499" cy="6.586" rx="6.499" ry="6.586" transform="translate(252.953 197.358)" fill="none" stroke="#3919a4" stroke-width="2"/>
        <path id="Path_4175" data-name="Path 4175" d="M33.5,286.292A3.25,3.25,0,1,1,30.25,283a3.271,3.271,0,0,1,3.249,3.292" transform="translate(-11.547 -118.869)" fill="#3919a4"/>
        <path id="Path_4176" data-name="Path 4176" d="M54.079,57.394a6.056,6.056,0,1,1-6.056-6.137A6.1,6.1,0,0,1,54.079,57.394Z" transform="translate(-17.948 -21.53)" fill="none" stroke="#3919a4" stroke-width="2"/>
        <path id="Path_4177" data-name="Path 4177" d="M273.866,453.436a2.659,2.659,0,1,1-2.658-2.694,2.677,2.677,0,0,1,2.658,2.694" transform="translate(-114.849 -189.325)" fill="#3919a4"/>
        <path id="Path_4178" data-name="Path 4178" d="M376.5,29.911a2.363,2.363,0,1,1-2.363-2.395,2.379,2.379,0,0,1,2.363,2.395" transform="translate(-158.995 -11.558)" fill="#3919a4"/>
      </g>
    </g>
    <g id="Group_7911" data-name="Group 7911" transform="translate(3437.594 3549.558)">
      <g id="Group_7910" data-name="Group 7910" transform="translate(0 0)" clip-path="url(#clip-path-3)">
        <path id="Path_4179" data-name="Path 4179" d="M232.957,380.78l-44.224,5.388-8.4-20.653-7.077,16.61-3.187-1.293-.8-.325L133.45,365.962l3.542-16.837S216.814,334.76,218.8,337.9s14.155,42.877,14.155,42.877" transform="translate(-88.338 -158.298)" fill="#3919a4"/>
        <path id="Path_4180" data-name="Path 4180" d="M225.387,348.528a93.1,93.1,0,0,0-3.928-10.629c-1.99-3.143-81.814,11.225-81.814,11.225s61.195,3.189,85.742-.6" transform="translate(-90.994 -158.296)" fill="#001552"/>
        <path id="Path_4181" data-name="Path 4181" d="M203.639,378.7l-6.689,19.214-.8-.325,6.678-19.18a.434.434,0,0,1,.548-.267.444.444,0,0,1,.263.557" transform="translate(-115.222 -175.379)" fill="#001552"/>
        <path id="Path_4182" data-name="Path 4182" d="M194.42,392.6a.427.427,0,0,1-.093-.01.435.435,0,0,1-.326-.518l1.916-8.831a.428.428,0,0,1,.511-.331.435.435,0,0,1,.326.518l-1.916,8.83a.429.429,0,0,1-.418.342" transform="translate(-114.296 -177.385)" fill="#001552"/>
        <path id="Path_4183" data-name="Path 4183" d="M217.452,139.645s12.161,4.939,17.911,8.756,15.257,16.613,15.257,16.613L231.6,171.075Z" transform="translate(-124.356 -75.212)" fill="#e2353f"/>
        <path id="Path_4184" data-name="Path 4184" d="M132.163,149.074s-15.7,9.2-18.353,12.348,9.287,50.289,11.277,57.922,3.317,46.472,3.317,46.472,63.019-2.245,85.794-9.878c0,0-7.076-18.409-9.066-28.287s-15.036-57.473-16.8-62.412-11.277-24.471-15.478-25.818-23.438,2.021-26.977,3.817-13.709,5.837-13.709,5.837" transform="translate(-79.752 -74.987)" fill="#e2353f"/>
        <path id="Path_4185" data-name="Path 4185" d="M183.4,235.258s-38.293,8.64-54.644,12.936c1.325,5.4,2.414,9.661,2.9,11.535a73.245,73.245,0,0,1,1.288,9.683c16.4-5.511,59.3-25.847,59.3-25.847Z" transform="translate(-86.326 -115.373)" fill="#3d0b34"/>
        <path id="Path_4186" data-name="Path 4186" d="M142.728,149.666s-1.986,1.165-4.659,2.8c.916,2.833,5.268,13.166,19.548,10.966,15.422-2.377,14.9-18.593,13.557-22.916-6.26.9-12.814,2.333-14.736,3.309-3.538,1.8-13.709,5.837-13.709,5.837" transform="translate(-90.318 -75.58)" fill="#eaada9"/>
        <path id="Path_4187" data-name="Path 4187" d="M165.612,181.062a29.789,29.789,0,0,1-6.059-.6.436.436,0,0,1-.325-.519.429.429,0,0,1,.511-.33c.131.03,13.191,2.878,19.142-4.674a30.938,30.938,0,0,0,3.335-5.176.425.425,0,0,1,.576-.189.438.438,0,0,1,.186.585,31.76,31.76,0,0,1-3.429,5.323c-3.609,4.581-9.484,5.585-13.937,5.585" transform="translate(-99.386 -87.761)" fill="#fff"/>
        <path id="Path_4188" data-name="Path 4188" d="M202.537,160.346a.428.428,0,0,1-.125-.019.437.437,0,0,1-.285-.543,13.523,13.523,0,0,0,.69-4.543.429.429,0,1,1,.853-.081,14.062,14.062,0,0,1-.724,4.877.429.429,0,0,1-.41.309" transform="translate(-117.777 -81.564)" fill="#fff"/>
        <path id="Path_4189" data-name="Path 4189" d="M237.421,170.708a.428.428,0,0,1-.406-.293c-2.39-7.058-10.493-20.659-10.575-20.795a.438.438,0,0,1,.144-.6.424.424,0,0,1,.588.146c.082.137,8.234,13.817,10.653,20.963a.437.437,0,0,1-.266.553.418.418,0,0,1-.139.024" transform="translate(-128.183 -79.124)" fill="#3d0b34"/>
        <path id="Path_4190" data-name="Path 4190" d="M109.081,73.845s-1.657.078-2.438,2.362-1.195,7.81-.4,10.582,5.731,11.643,5.731,11.643l-.421-14.139Z" transform="translate(-76.487 -47.574)" fill="#591808"/>
        <path id="Path_4191" data-name="Path 4191" d="M111.786,100.436S108.349,98.2,107.2,101.6s1.412,10.374,6.448,11.59c0,0,1.068-6.805-1.859-12.758" transform="translate(-76.964 -58.44)" fill="#fe656d"/>
        <path id="Path_4192" data-name="Path 4192" d="M179.005,95.962s2.664-3.257,4.521-.894S184.7,105.819,178.6,108Z" transform="translate(-107.698 -56.127)" fill="#fe656d"/>
        <path id="Path_4193" data-name="Path 4193" d="M157.657,132.1s3.35,6.316,8.295,9.717c0,0-9.252,11.175-19.78,11.5,0,0-3.35-8.1-3.988-12.146,0,0,13.24-5.669,15.473-9.07" transform="translate(-92.083 -72.041)" fill="#eaada9"/>
        <path id="Path_4194" data-name="Path 4194" d="M156.858,141.975a21.823,21.823,0,0,0,3.122-6.253,33.745,33.745,0,0,1-2.325-3.627c-2.233,3.4-15.473,9.07-15.473,9.07A40.787,40.787,0,0,0,143.9,147.3c4.163-.929,11-2.789,12.957-5.326" transform="translate(-92.082 -72.041)" fill="#fe656d"/>
        <path id="Path_4195" data-name="Path 4195" d="M150.974,71.122c.58,7.219.859,16.935.408,19.8-.71,4.487-5.206,14.927-10.07,18.937-3.886,3.21-6.065,3.7-6.731,3.754s-11.3-1.789-15.083-8.477c-2.091-3.725-3.2-6.026-3.64-8.408,0,0-2.031-15.62-2.456-17.6s-3.035-12.124,4.014-16.722,20.923-3.527,24.3-2.723,6.827,1.072,8.062,3.266a2.213,2.213,0,0,1,.1.229,43.386,43.386,0,0,1,1.1,7.942" transform="translate(-79.392 -41.328)" fill="#eaada9"/>
        <path id="Path_4196" data-name="Path 4196" d="M175.928,77.069s.35,2.83.726,4.611a69.537,69.537,0,0,1,.715,7.607c.068,1.5.182,7.258.859,7.526s1.517-8.836,1.522-10.334,1.2-10.844,1.2-10.844Z" transform="translate(-106.551 -48.326)" fill="#360700"/>
        <path id="Path_4197" data-name="Path 4197" d="M148.817,129.069a7.421,7.421,0,0,1-.353.931,5.275,5.275,0,0,1-4.794,3.323,4.767,4.767,0,0,1-4.438-2.747,4.355,4.355,0,0,1-.343-.9,25.11,25.11,0,0,0,9.928-.6" transform="translate(-90.67 -70.77)" fill="#e2353f"/>
        <path id="Path_4198" data-name="Path 4198" d="M158.812,103.039c.1,1.309-.3,2.408-.887,2.454s-1.149-.977-1.25-2.286.3-2.407.887-2.454,1.15.977,1.25,2.286" transform="translate(-98.29 -58.876)" fill="#591808"/>
        <path id="Path_4199" data-name="Path 4199" d="M138.889,129.672a4.37,4.37,0,0,0,.343.9,5.291,5.291,0,0,0,.276.5l.767-.354c2.03.236,5.562.412,8.189-.717a7.534,7.534,0,0,0,.353-.931,25.109,25.109,0,0,1-9.928.6" transform="translate(-90.67 -70.77)" fill="#fff"/>
        <path id="Path_4200" data-name="Path 4200" d="M136.177,104.8c.1,1.309-.3,2.408-.887,2.454s-1.149-.977-1.249-2.286.3-2.408.887-2.454,1.149.977,1.25,2.286" transform="translate(-88.584 -59.615)" fill="#591808"/>
        <path id="Path_4201" data-name="Path 4201" d="M144.359,120.358a6.985,6.985,0,0,0,2.08.275c1.031-.048,2.6-.308,2.6-.308a7.269,7.269,0,0,1-2.708,1.058,4.222,4.222,0,0,1-1.976-1.025" transform="translate(-93.015 -67.097)" fill="#fe656d"/>
        <path id="Path_4202" data-name="Path 4202" d="M160.1,93.121a1.907,1.907,0,0,0-.2-.121.123.123,0,0,0-.016-.019,3.383,3.383,0,0,0-1.439-.576,5.406,5.406,0,0,0-1.632-.058c-.029,0-.058.012-.087.015a4.526,4.526,0,0,0-1.422.338c-.023.008-.048.013-.071.021a2.7,2.7,0,0,0-1.325.8.092.092,0,0,0,.084.133,2.506,2.506,0,0,0,.623-.241c.219-.09.436-.188.658-.272a6.336,6.336,0,0,1,1.515-.376,3.72,3.72,0,0,1,1.745.168c.481.14.9.405,1.374.56.2.066.356-.242.19-.37" transform="translate(-97.104 -55.33)" fill="#591808"/>
        <path id="Path_4203" data-name="Path 4203" d="M129.59,94.546a1.979,1.979,0,0,1,.185-.139c.006-.006.008-.014.014-.02a3.4,3.4,0,0,1,1.381-.708,5.4,5.4,0,0,1,1.619-.211c.029,0,.058.006.087.007a4.523,4.523,0,0,1,1.447.2c.024.006.049.008.073.014a2.69,2.69,0,0,1,1.391.669.091.091,0,0,1-.071.14,2.506,2.506,0,0,1-.642-.182c-.226-.07-.451-.146-.68-.209a6.353,6.353,0,0,0-1.543-.233,5.881,5.881,0,0,0-.647.026,6.087,6.087,0,0,0-1.076.305c-.466.184-.864.488-1.317.687-.192.084-.377-.208-.223-.351" transform="translate(-86.658 -55.816)" fill="#591808"/>
        <path id="Path_4204" data-name="Path 4204" d="M114.025,86.253s-.131,3.6.759,3.71-.063-14.38-.063-14.38,1.253,1.589,1.654.671-.895-6.7-.895-6.7a26.883,26.883,0,0,1,8.4-3.54c4.243-.8,16.436-.395,19.7-.1s9.808-1.733,13.97-4.325c3.521-2.193,6.321-10.948,7.31-14.872a.779.779,0,0,0-1.078-.911c-1.546.734-3.915,1.85-4.855,2.234-4.251,1.738-14.216,2.163-13.794,1.695s.681-1.231.233-1.359S137.294,49.5,131.1,49.495c0,0-9.5-.417-13.605,1.8s-7.56,9.006-6.467,13.563A89.959,89.959,0,0,1,112.84,78.03c-.028,1.028,1.185,8.222,1.185,8.222" transform="translate(-78.634 -35.766)" fill="#591808"/>
        <path id="Path_4205" data-name="Path 4205" d="M148.952,73.363c-3.5,0-6.244-.136-6.488-.148a.432.432,0,0,1-.406-.456.438.438,0,0,1,.449-.412c.131.007,13.165.652,19.222-.886.276-.07.546-.142.809-.215a.428.428,0,0,1,.526.3.437.437,0,0,1-.3.535q-.4.112-.827.219c-3.386.86-8.743,1.059-12.985,1.059" transform="translate(-92.028 -46.476)" fill="#fff"/>
        <path id="Path_4206" data-name="Path 4206" d="M184.35,67.707a.43.43,0,0,1-.392-.259.438.438,0,0,1,.219-.574,18.351,18.351,0,0,0,3.488-1.953.424.424,0,0,1,.6.078.439.439,0,0,1-.075.61,18.749,18.749,0,0,1-3.668,2.061.429.429,0,0,1-.173.037" transform="translate(-109.979 -43.788)" fill="#fff"/>
        <path id="Path_4207" data-name="Path 4207" d="M272.475,180.226s-4.917-.985-4.518-5.346c0,0,1.462-.7,1.994-.422s5.713,1.407,6.644,1.829,3.189,3.8,3.189,3.8-6.112.844-7.308.14" transform="translate(-146.001 -89.807)" fill="#eaada9"/>
        <rect id="Rectangle_3080" data-name="Rectangle 3080" width="146.528" height="71.243" transform="translate(95.16 88.305)" fill="#3919a4"/>
        <path id="Path_4208" data-name="Path 4208" d="M318.926,174.544s2.1-1.122,3.427-.561,1.658,2.806,1.437,3.929-2.543,7.857-4.2,7.184-1.879-5.725-1.879-5.725Z" transform="translate(-167.344 -89.569)" fill="#eaada9"/>
        <path id="Path_4209" data-name="Path 4209" d="M308.226,173.133S311.1,171,312.427,171s2.653,2.581,2.874,3.255-1.105,9.654-1.327,10.552-1.547,2.806-2.543,2.806-3.1-3.817-3.1-5.052-.111-9.429-.111-9.429" transform="translate(-163.278 -88.382)" fill="#eaada9"/>
        <path id="Path_4210" data-name="Path 4210" d="M295.507,173.783s2.432-3.062,3.98-3.174,2.432,1.684,3.1,2.358-.11,6.511-.221,8.194-1.658,7.857-3.1,8.307-3.206-1.235-3.317-2.469-.884-8.98-.884-8.98Z" transform="translate(-157.634 -88.216)" fill="#eaada9"/>
        <path id="Path_4211" data-name="Path 4211" d="M284.566,181.772s-1.106-5.982-.774-7.254,2.542-2.164,3.869-2.164,2.986,2.164,2.986,2.164-.11,8.145-.553,10.054-2.433,2.927-3.1,2.672-1.991-1.655-2.432-5.473" transform="translate(-152.774 -88.951)" fill="#eaada9"/>
        <text id="JOIN_US_" data-name="JOIN US!" transform="translate(117.102 129.915) rotate(0.72)" fill="#f9f9fc" font-size="21" font-family="Montserrat-SemiBold, Montserrat" font-weight="600"><tspan x="0" y="0">JOIN US!</tspan></text>
        <path id="Path_4212" data-name="Path 4212" d="M76.161,226.215s.774,6.221,6.965,6.815,6.413-8.911,6.413-8.911-8.292-2.732-13.377,2.1" transform="translate(-63.774 -110.371)" fill="#3d0b34"/>
        <path id="Path_4213" data-name="Path 4213" d="M103.222,215.421c-.885-.449-11.351-14.518-17.248-4.64a70.561,70.561,0,0,0-4.46,9.353h0s-5.416,12.2-6.3,15.493a18.819,18.819,0,0,0-.737,5.538l30.22-10.776.148-4.64s-.738-9.878-1.622-10.327" transform="translate(-63.047 -103.618)" fill="#eaada9"/>
        <path id="Path_4214" data-name="Path 4214" d="M97.831,177.58s-16.142,15.94-21.67,29.41A35.2,35.2,0,0,1,105.57,213.8s3.538-16.918,2.653-21.857S97.831,177.58,97.831,177.58" transform="translate(-63.774 -91.146)" fill="#e2353f"/>
        <path id="Path_4215" data-name="Path 4215" d="M128.872,221.338a.408.408,0,0,1-.119-.017.436.436,0,0,1-.292-.538c.032-.113,3.221-11.382,2.932-17.82a.428.428,0,1,1,.856-.039c.295,6.581-2.832,17.633-2.965,18.1a.429.429,0,0,1-.411.314" transform="translate(-86.191 -101.617)" fill="#3d0b34"/>
        <path id="Path_4216" data-name="Path 4216" d="M131.453,221.545a.424.424,0,0,1-.267-.1.44.44,0,0,1-.067-.612l3.538-4.49a.424.424,0,0,1,.6-.068.439.439,0,0,1,.066.611l-3.538,4.49a.425.425,0,0,1-.335.163" transform="translate(-87.298 -107.361)" fill="#3d0b34"/>
        <path id="Path_4217" data-name="Path 4217" d="M74.484,251.4s5.307,4.939,8.255,5.837,46.582-5.837,69.726-14.967L150.7,231.645s-27.419,3.592-32.283,3.891-22.554.15-30.514,4.34S74.484,248.707,74.484,251.4" transform="translate(-63.055 -113.855)" fill="#eaada9"/>
        <path id="Path_4218" data-name="Path 4218" d="M79.973,250.2a.424.424,0,0,1-.309-.133.44.44,0,0,1,.012-.615,41.259,41.259,0,0,1,24.1-10.158.435.435,0,0,1,.051.868,40.362,40.362,0,0,0-23.558,9.917.423.423,0,0,1-.3.121" transform="translate(-65.225 -117.067)" fill="#fe656d"/>
        <path id="Path_4219" data-name="Path 4219" d="M207.024,218.827a36.278,36.278,0,0,1,5.379-5.917c2.391-1.821,6.276-7.283,6.874-9.1s.6-2.731,1.345-2.882a2.749,2.749,0,0,1,2.54,2.124c.3,1.365-.747,4.248-1.046,5.462a3.353,3.353,0,0,0,.15,2.124s13.448-2.428,16.736-3.186,6.575-1.365,7.322-.455.9,1.821,0,2.428-10.012,3.49-10.012,3.49,1.494,2.731,1.046,3.641a15.845,15.845,0,0,1-1.793,2.428s1.494,1.517.747,2.882a6.4,6.4,0,0,1-1.943,2.124s0,2.731-1.046,3.642-1.943,1.213-5.23,1.821-16.587.3-19.277.151-1.793-10.772-1.793-10.772" transform="translate(-119.823 -100.944)" fill="#eaada9"/>
      </g>
    </g>
  </g>
</svg>
