<svg xmlns="http://www.w3.org/2000/svg" width="24.132" height="28.49" viewBox="0 0 24.132 28.49">
  <g id="Group_9471" data-name="Group 9471" transform="translate(-336.075 -835.51)">
    <path id="Path_9912" data-name="Path 9912" d="M56.2,96.1H44V90.61a.612.612,0,0,1,.61-.61H55.591a.612.612,0,0,1,.61.61Z" transform="translate(298.041 766.984)" fill="#0cafe8"/>
    <path id="Path_9913" data-name="Path 9913" d="M55.032,110.915H41l.305-.915H54.727Z" transform="translate(300.125 753.085)" fill="#0b90d3"/>
    <path id="Path_9914" data-name="Path 9914" d="M58.1,98.355H53.22A1.224,1.224,0,0,1,52,97.135V96.22A1.224,1.224,0,0,1,53.22,95H58.1a1.224,1.224,0,0,1,1.22,1.22v.915A1.224,1.224,0,0,1,58.1,98.355Z" transform="translate(292.481 763.509)" fill="#fff"/>
    <rect id="Rectangle_3670" data-name="Rectangle 3670" width="3.203" height="5.033" transform="translate(346.555 850.427)" fill="#f9a74e"/>
    <rect id="Rectangle_3671" data-name="Rectangle 3671" width="0.915" height="5.033" transform="translate(348.813 850.427)" fill="#382673" opacity="0.2"/>
    <path id="Path_9915" data-name="Path 9915" d="M56.321,84H50.83A1.836,1.836,0,0,0,49,85.83h9.151A1.836,1.836,0,0,0,56.321,84Z" transform="translate(294.566 771.154)" fill="#ffde39"/>
    <path id="Path_9916" data-name="Path 9916" d="M69.525,84H68a1.836,1.836,0,0,1,1.83,1.83h1.525A1.836,1.836,0,0,0,69.525,84Z" transform="translate(281.361 771.154)" fill="#fec632"/>
    <path id="Path_9917" data-name="Path 9917" d="M58.606,72.83H55.495A1.5,1.5,0,0,1,54,71.336V71h6.1v.336A1.5,1.5,0,0,1,58.606,72.83Z" transform="translate(291.091 780.189)" fill="#ffde39"/>
    <path id="Path_9918" data-name="Path 9918" d="M67.29,71v.336c0,.824-.366,1.495-1.19,1.495h.915a1.5,1.5,0,0,0,1.495-1.495V71Z" transform="translate(282.682 780.189)" fill="#fec632"/>
    <path id="Path_9919" data-name="Path 9919" d="M57.371,88.61H47a.612.612,0,0,1,.61-.61h9.151a.612.612,0,0,1,.61.61Z" transform="translate(295.956 768.375)" fill="#f9a74e"/>
    <path id="Path_9920" data-name="Path 9920" d="M75.525,88H74a.612.612,0,0,1,.61.61h1.525A.612.612,0,0,0,75.525,88Z" transform="translate(277.192 768.375)" fill="#382673" opacity="0.2"/>
    <path id="Path_9921" data-name="Path 9921" d="M59.321,69H52v.915a.612.612,0,0,0,.61.61h6.1a.612.612,0,0,0,.61-.61Z" transform="translate(292.481 781.579)" fill="#f9a74e"/>
    <path id="Path_9922" data-name="Path 9922" d="M59.321,69H52v.915a.612.612,0,0,0,.61.61h6.1a.612.612,0,0,0,.61-.61Z" transform="translate(292.481 781.579)" fill="#f9a74e"/>
    <path id="Path_9923" data-name="Path 9923" d="M69.61,69l-.61.915c.305,0,.336.61,0,.61h1.525a.612.612,0,0,0,.61-.61V69Z" transform="translate(280.666 781.579)" fill="#382673" opacity="0.2"/>
    <path id="Path_9924" data-name="Path 9924" d="M78,37h5.8v.305A5.793,5.793,0,0,1,78,43.1h0" transform="translate(274.412 803.817)" fill="none" stroke="#f9a74e" stroke-linecap="round" stroke-linejoin="round" stroke-width="4"/>
    <path id="Path_9925" data-name="Path 9925" d="M36.8,37H31v.305a5.793,5.793,0,0,0,5.8,5.8h0" transform="translate(307.075 803.817)" fill="none" stroke="#fec632" stroke-linecap="round" stroke-linejoin="round" stroke-width="4"/>
    <path id="Path_9926" data-name="Path 9926" d="M52.694,42.117H47.508A3.489,3.489,0,0,1,44,38.609V29H56.2v9.609A3.489,3.489,0,0,1,52.694,42.117Z" transform="translate(298.041 809.377)" fill="#ffde39"/>
    <path id="Path_9927" data-name="Path 9927" d="M50,32v6.1" transform="translate(293.871 807.292)" fill="none" stroke="#fff" stroke-linecap="round" stroke-linejoin="round" stroke-width="2" opacity="0.3"/>
    <path id="Path_9928" data-name="Path 9928" d="M71.008,29v9.609A3.489,3.489,0,0,1,67.5,42.117h1.525a3.489,3.489,0,0,0,3.508-3.508V29Z" transform="translate(281.709 809.377)" fill="#fec632"/>
    <path id="Path_9929" data-name="Path 9929" d="M55.032,29H41l.915.915h12.2Z" transform="translate(300.125 809.377)" fill="#f9a74e"/>
    <path id="Path_9930" data-name="Path 9930" d="M79.61,29l-.61.915h1.525L81.44,29Z" transform="translate(273.717 809.377)" fill="#382673" opacity="0.2"/>
    <path id="Path_9931" data-name="Path 9931" d="M53.252,25H38.61a.612.612,0,0,0-.61.61h0a.612.612,0,0,0,.61.61H53.252a.612.612,0,0,0,.61-.61h0A.612.612,0,0,0,53.252,25Z" transform="translate(302.21 812.157)" fill="#ffde39"/>
    <path id="Path_9932" data-name="Path 9932" d="M83.83,25H82a.61.61,0,0,1,0,1.22h1.83a.61.61,0,0,0,0-1.22Z" transform="translate(271.632 812.157)" fill="#fec632"/>
    <line id="Line_204" data-name="Line 204" y2="0.702" transform="translate(343.871 846.735)" fill="none" stroke="#fff" stroke-linecap="round" stroke-linejoin="round" stroke-width="2" opacity="0.3"/>
    <path id="Path_9933" data-name="Path 9933" d="M45.842,20.149l.183-.458c.061-.122.244-.122.275,0l.183.458a1.445,1.445,0,0,0,.793.793l.458.183c.122.061.122.244,0,.275l-.458.183a1.445,1.445,0,0,0-.793.793l-.183.458c-.061.122-.244.122-.275,0l-.183-.458a1.445,1.445,0,0,0-.793-.793l-.458-.183c-.122-.061-.122-.244,0-.275l.458-.183A1.444,1.444,0,0,0,45.842,20.149Z" transform="translate(297.693 815.91)" fill="#fff"/>
    <path id="Path_9934" data-name="Path 9934" d="M58.059,44.805l1.312.7a.278.278,0,0,0,.4-.275l-.275-1.495L60.561,42.7a.273.273,0,0,0-.153-.458l-1.464-.214-.671-1.342a.259.259,0,0,0-.458,0l-.671,1.342-1.464.214a.273.273,0,0,0-.153.458L56.6,43.738,56.351,45.2a.272.272,0,0,0,.4.275Z" transform="translate(290.082 801.351)" fill="#fec632"/>
  </g>
</svg>
