<svg id="Iconly_Light-outline_Location" data-name="Iconly/Light-outline/Location" xmlns="http://www.w3.org/2000/svg" width="16" height="16" viewBox="0 0 16 16">
  <rect id="Iconly_Light-outline_Location_Background_" data-name="Iconly/Light-outline/Location (Background)" width="16" height="16" fill="none"/>
  <g id="Location" transform="translate(2.333 1.333)">
    <path id="Location-2" data-name="Location" d="M5.009,13.122l-.04-.032L4.694,12.9a13.839,13.839,0,0,1-3.023-2.837L1.46,9.792A7.133,7.133,0,0,1,0,5.684l0-.19A5.675,5.675,0,0,1,5.666,0h.019l.17,0a5.677,5.677,0,0,1,5.477,5.7V5.77a8.059,8.059,0,0,1-2.48,5.261,14.114,14.114,0,0,1-2.5,2.063l-.033.028a1.126,1.126,0,0,1-1.315,0ZM5.522,1.014A4.645,4.645,0,0,0,1.009,5.666l.013.238A6.119,6.119,0,0,0,2.264,9.181a12.8,12.8,0,0,0,3.268,3.07l.055.041a.12.12,0,0,0,.159,0L5.8,12.25a13.079,13.079,0,0,0,2.322-1.917,7.066,7.066,0,0,0,2.2-4.572l0-.221a4.644,4.644,0,0,0-4.64-4.528ZM3.508,5.766A2.159,2.159,0,1,1,5.666,7.931,2.165,2.165,0,0,1,3.508,5.766Zm1.009,0a1.15,1.15,0,1,0,1.15-1.154A1.153,1.153,0,0,0,4.516,5.766Z" transform="translate(0 0)" fill="#200e32"/>
  </g>
</svg>
