<svg xmlns="http://www.w3.org/2000/svg" width="236" height="223.092" viewBox="0 0 236 223.092">
  <g id="Mobile_Marketing-pana" data-name="Mobile Marketing-pana" transform="translate(-27.5 -49.84)">
    <g id="freepik--Floor--inject-2" transform="translate(27.5 272.406)">
      <path id="Path_9838" data-name="Path 9838" d="M262.675,469.2c0,.08-52.65.138-117.58.138s-117.6-.058-117.6-.138,52.639-.138,117.6-.138S262.675,469.124,262.675,469.2Z" transform="translate(-27.5 -469.06)" fill="#263238"/>
    </g>
    <g id="freepik--Icons--inject-2" transform="translate(38.522 79.639)">
      <path id="Path_9839" data-name="Path 9839" d="M366.031,146.945h0a21.576,21.576,0,0,1-28.833-9.965h0a21.576,21.576,0,0,1,9.965-28.833h0A21.571,21.571,0,0,1,376,118.111h0a21.571,21.571,0,0,1-9.965,28.833Z" transform="translate(-182.778 -105.968)" fill="#ff725e"/>
      <path id="Path_9840" data-name="Path 9840" d="M360.345,140.077a.531.531,0,0,0,.5-.653c-.053-.26-.2-.918-.25-1.189a.721.721,0,0,0-.531-.648,4.247,4.247,0,0,1-2.124-2.171,6.967,6.967,0,0,1,3.435-9.5c3.552-1.731,6.562-.531,7.964,2.389,1.853,3.817,1.731,7.857-.775,9.078a2.278,2.278,0,0,1-3.329-1.534c-.414-1.869-.531-4.051-1.115-5.261a1.988,1.988,0,0,0-2.75-1.12c-1.418.69-1.842,2.708-.887,4.667a5.671,5.671,0,0,0,1.439,1.89s1.54,6.838,1.805,8.038a16.78,16.78,0,0,0,2.405,5.049.2.2,0,0,0,.356-.08,15.636,15.636,0,0,0,.281-5.49c-.122-.669-.839-4.093-.839-4.093a4.218,4.218,0,0,0,4.035.08c4.247-2.071,5.256-7.353,2.729-12.545-1.906-3.923-7.013-5.962-12.062-3.5-6.291,3.058-7.268,9.105-5.442,12.864C356.3,138.617,358.131,140.242,360.345,140.077Z" transform="translate(-191.857 -113.68)" fill="#fff"/>
      <path id="Path_9841" data-name="Path 9841" d="M425.545,272.331h0a14.865,14.865,0,0,1-8.585-19.208h0a14.865,14.865,0,0,1,19.2-8.59h0a14.865,14.865,0,0,1,8.585,19.208h0a14.865,14.865,0,0,1-19.2,8.59Z" transform="translate(-220.754 -170.508)" fill="#ff725e"/>
      <path id="Path_9842" data-name="Path 9842" d="M442.47,266.981a8.011,8.011,0,0,0-14.9-5.84c-.048.106-.09.218-.133.324a7.868,7.868,0,0,0-.393,4.247l-2.872,3.467,4.651.265a8.011,8.011,0,0,0,13.581-2.262,1.919,1.919,0,0,0,.069-.2Zm-9.939,3.573a6.69,6.69,0,0,1-3.063-2.357l-2.713-.154,1.672-2.017a6.621,6.621,0,0,1,.2-4.12c.08-.2.17-.4.265-.595a6.737,6.737,0,0,1,12.487,4.906c-.048.17-.1.334-.165.5A6.716,6.716,0,0,1,432.532,270.554Z" transform="translate(-224.597 -176.53)" fill="#fff" fill-rule="evenodd"/>
      <path id="Path_9843" data-name="Path 9843" d="M444.478,270.243c-.154-.159-.881-.945-1.03-1.062s-.255-.2-.446-.064-.706.409-.855.488-.265.053-.414-.106a5.356,5.356,0,0,1-1.131-1.471,5.84,5.84,0,0,1-.531-1.646c-.032-.223.1-.287.223-.34s.265-.143.4-.212l.1-.064a1.877,1.877,0,0,0,.2-.175.345.345,0,0,0,.111-.324c0-.106-.037-1.147-.053-1.566s-.191-.419-.3-.462-.223-.106-.345-.149a.727.727,0,0,0-.579.037,2.209,2.209,0,0,0-1.221,1.279,2.476,2.476,0,0,0-.143.653,4.386,4.386,0,0,0,.175,1.513,8.1,8.1,0,0,0,2.081,3.945c1.582,1.444,1.683,1.2,2.033,1.3a1.948,1.948,0,0,0,1.593-.393,1.593,1.593,0,0,0,.441-.823A2.4,2.4,0,0,0,444.478,270.243Z" transform="translate(-231.299 -179.654)" fill="#fff" fill-rule="evenodd"/>
      <path id="Path_9844" data-name="Path 9844" d="M59.605,148.191h0A11.345,11.345,0,0,1,48.26,136.845h0A11.345,11.345,0,0,1,59.605,125.5h0a11.345,11.345,0,0,1,11.345,11.345h0a11.345,11.345,0,0,1-11.345,11.345Z" transform="translate(-48.26 -115.131)" fill="#ff725e"/>
      <path id="Path_9845" data-name="Path 9845" d="M58.25,146.31A7.061,7.061,0,0,0,69.1,140.046a5.086,5.086,0,0,0,1.226-1.269,5.123,5.123,0,0,1-1.428.393,2.5,2.5,0,0,0,1.1-1.354,4.853,4.853,0,0,1-1.593.6,2.485,2.485,0,0,0-4.247,2.267,7.056,7.056,0,0,1-5.113-2.6,2.49,2.49,0,0,0,.77,3.313,2.442,2.442,0,0,1-1.126-.308,2.485,2.485,0,0,0,1.991,2.463,2.48,2.48,0,0,1-1.12.042,2.485,2.485,0,0,0,2.315,1.72A4.985,4.985,0,0,1,58.25,146.31Z" transform="translate(-52.946 -120.81)" fill="#fff"/>
      <path id="Path_9846" data-name="Path 9846" d="M86.748,373.544h0a19.537,19.537,0,0,1-23.519-14.478h0a19.537,19.537,0,0,1,14.494-23.54h0A19.537,19.537,0,0,1,101.258,350h0a19.537,19.537,0,0,1-14.51,23.54Z" transform="translate(-55.032 -213.401)" fill="#455a64"/>
      <path id="Path_9847" data-name="Path 9847" d="M87.27,353.076c2.782-.664,3.116-.733,4.247-.945a5.936,5.936,0,0,1,2.017-.1,3.34,3.34,0,0,1,1.386.494,3.414,3.414,0,0,1,1.062,1.014,5.957,5.957,0,0,1,.818,1.848c.313,1.088.4,1.418,1.062,4.2s.727,3.116.94,4.247a5.8,5.8,0,0,1,.1,2.017,3.185,3.185,0,0,1-.494,1.386A3.339,3.339,0,0,1,97.4,368.3a6,6,0,0,1-1.853.818c-1.062.313-1.412.4-4.194,1.062s-3.116.733-4.247.945a5.84,5.84,0,0,1-2.023.1,3.292,3.292,0,0,1-1.386-.494,3.228,3.228,0,0,1-1.03-1.046,5.872,5.872,0,0,1-.823-1.848c-.308-1.088-.4-1.412-1.062-4.194s-.733-3.116-.945-4.247a6.116,6.116,0,0,1-.1-2.023,3.525,3.525,0,0,1,1.508-2.447,5.93,5.93,0,0,1,1.848-.823c1.062-.308,1.418-.4,4.2-1.062m-.446-1.879c-2.83.674-3.185.77-4.284,1.088a7.76,7.76,0,0,0-2.416,1.062,5.5,5.5,0,0,0-2.32,3.769,7.884,7.884,0,0,0,.117,2.655c.218,1.12.287,1.481.961,4.311s.77,3.185,1.062,4.279a7.7,7.7,0,0,0,1.062,2.416,5.261,5.261,0,0,0,1.672,1.6,5.2,5.2,0,0,0,2.124.759,7.853,7.853,0,0,0,2.655-.117c1.12-.212,1.481-.287,4.311-.961s3.185-.77,4.279-1.062a7.964,7.964,0,0,0,2.416-1.062,5.261,5.261,0,0,0,1.561-1.641,5.346,5.346,0,0,0,.765-2.124,7.879,7.879,0,0,0-.122-2.655c-.212-1.125-.287-1.481-.961-4.311s-.77-3.185-1.062-4.284a8.017,8.017,0,0,0-1.062-2.416,5.246,5.246,0,0,0-1.641-1.556,5.166,5.166,0,0,0-2.124-.764,7.852,7.852,0,0,0-2.655.117c-1.126.218-1.481.287-4.311.961" transform="translate(-62.1 -220.481)" fill="#fff"/>
      <path id="Path_9848" data-name="Path 9848" d="M93.366,361.6a5.5,5.5,0,1,0,6.626,4.077,5.5,5.5,0,0,0-6.626-4.077m2.124,8.829a3.573,3.573,0,1,1,2.22-1.6,3.573,3.573,0,0,1-2.22,1.6" transform="translate(-67.436 -225.812)" fill="#fff"/>
      <path id="Path_9849" data-name="Path 9849" d="M107.6,357.4a1.279,1.279,0,1,1-.575-.8,1.285,1.285,0,0,1,.575.8" transform="translate(-74.906 -223.45)" fill="#fff"/>
      <path id="Path_9850" data-name="Path 9850" d="M378.756,359.121h0a9.11,9.11,0,0,1-9.116-9.11h0a9.11,9.11,0,0,1,9.116-9.11h0a9.11,9.11,0,0,1,9.126,9.11h0a9.11,9.11,0,0,1-9.126,9.11Z" transform="translate(-199.018 -216.173)" fill="#455a64"/>
      <path id="Path_9851" data-name="Path 9851" d="M383.163,358.71h2.219v-5.537h1.545l.17-1.858h-1.715v-1.062c0-.435.09-.611.531-.611h1.205V347.71h-1.54c-1.651,0-2.394.727-2.394,2.124v1.487H382v1.853h1.152Z" transform="translate(-204.816 -219.368)" fill="#fff"/>
    </g>
    <g id="freepik--Device--inject-2" transform="translate(98.047 57.527)">
      <path id="Path_9852" data-name="Path 9852" d="M249.514,279.724l-73.207-.027a15.927,15.927,0,0,1-15.927-15.927l.032-183.523A15.927,15.927,0,0,1,176.371,64.32l73.2.042A15.927,15.927,0,0,1,265.5,80.29l-.032,183.481a15.927,15.927,0,0,1-15.954,15.954Z" transform="translate(-160.38 -64.32)" fill="#263238"/>
      <path id="Path_9853" data-name="Path 9853" d="M253.766,76.487h-14.2a3.531,3.531,0,0,0-3.446,3.589v2.575a3.52,3.52,0,0,1-3.446,3.6H205.013a3.525,3.525,0,0,1-3.446-3.6V80.055a3.536,3.536,0,0,0-3.446-3.6H180.7A11.149,11.149,0,0,0,169.527,87.6l-.037,179.133a11.149,11.149,0,0,0,11.149,11.149l73.063.042a11.149,11.149,0,0,0,11.149-11.149l.037-179.138A11.149,11.149,0,0,0,253.766,76.487Z" transform="translate(-164.653 -70.01)" fill="#fff"/>
      <path id="Path_9854" data-name="Path 9854" d="M322.955,103.878c0,.048-1.848.1-4.12.117s-4.125,0-4.125-.048,1.842-.106,4.12-.122S322.955,103.831,322.955,103.878Z" transform="translate(-232.775 -82.849)" fill="#263238"/>
      <path id="Path_9855" data-name="Path 9855" d="M322.985,107.847c0,.048-1.842.1-4.12.122s-4.125,0-4.125-.053,1.848-.1,4.125-.122S322.985,107.8,322.985,107.847Z" transform="translate(-232.789 -84.71)" fill="#263238"/>
      <path id="Path_9856" data-name="Path 9856" d="M323.02,111.817c0,.048-1.848.106-4.125.122s-4.12,0-4.125-.053,1.848-.1,4.125-.122S323.02,111.769,323.02,111.817Z" transform="translate(-232.803 -86.572)" fill="#263238"/>
      <path id="Path_9857" data-name="Path 9857" d="M184,108.185h.818l2.219-.053-.064.058c0-.488,0-1.025-.027-1.593v-.924a.855.855,0,0,1,.743-.685h1.062a.865.865,0,0,1,.727.855c0,.754,0,1.534.027,2.347l-.1-.1h2.8l-.106.106c0-1.126,0-2.294-.032-3.488v-.887a.887.887,0,0,0-.393-.658l-1.221-1.21-1.184-1.163-.568-.563c-.2-.191-.35-.388-.579-.435a.759.759,0,0,0-.642.122c-.17.143-.35.345-.531.531l-1.009,1.014c-.632.653-1.29,1.253-1.768,1.821a2,2,0,0,0-.138,1.062v3.589a2.946,2.946,0,0,1,0,.366,3.023,3.023,0,0,1,0-.334v-1c0-.4,0-.993-.037-1.593v-1.54a1.158,1.158,0,0,1,.154-.584c.531-.632,1.136-1.195,1.773-1.869l1-1.025c.181-.175.324-.35.531-.531a.95.95,0,0,1,.812-.165,1.556,1.556,0,0,1,.674.483l.573.563,1.184,1.163,1.226,1.2a2.447,2.447,0,0,1,.313.34.918.918,0,0,1,.149.473q0,.446,0,.892c0,1.195,0,2.363.027,3.488v.106h-3.1v-2.447a.674.674,0,0,0-.563-.68h-1.019a.685.685,0,0,0-.6.531v2.548h-2.909a1.216,1.216,0,0,1-.218-.127Z" transform="translate(-171.455 -80.881)" fill="#263238"/>
      <path id="Path_9858" data-name="Path 9858" d="M257.747,379.288a4.435,4.435,0,0,1-.77.053l-2.092.042c-1.763.027-4.2.042-6.9.042s-5.139,0-6.9-.042l-2.092-.042a4.508,4.508,0,0,1-.77-.053,3.909,3.909,0,0,1,.77-.053l2.092-.048c1.763,0,4.2-.037,6.9-.037s5.134,0,6.9.037l2.092.048A3.851,3.851,0,0,1,257.747,379.288Z" transform="translate(-196.894 -212.005)" fill="#455a64"/>
      <path id="Path_9859" data-name="Path 9859" d="M288.412,388.328c0,.08-11.239.138-25.1.138s-25.1-.058-25.1-.138,11.239-.138,25.1-.138S288.412,388.254,288.412,388.328Z" transform="translate(-196.89 -216.246)" fill="#455a64"/>
      <path id="Path_9860" data-name="Path 9860" d="M272.724,396.878c0,.08-7.725.138-17.254.138s-17.26-.058-17.26-.138,7.725-.138,17.26-.138S272.724,396.782,272.724,396.878Z" transform="translate(-196.89 -220.256)" fill="#455a64"/>
      <path id="Path_9861" data-name="Path 9861" d="M331.947,409.5l-1.561-1.566-1.487,1.481V404.93h3.042Zm-1.561-1.763.048.048,1.375,1.38v-4.088h-2.766v4.008Z" transform="translate(-239.432 -224.098)" fill="#263238"/>
      <path id="Path_9862" data-name="Path 9862" d="M254.105,409.794l-.531-.244a1.407,1.407,0,1,1,.425-.308Zm-1.279-2.984a1.428,1.428,0,0,0,.027,2.851,1.519,1.519,0,0,0,.685-.218h0l.409.18-.1-.4h0a1.423,1.423,0,0,0-1.062-2.384Z" transform="translate(-203.122 -224.98)" fill="#263238"/>
      <path id="Path_9863" data-name="Path 9863" d="M261.47,409.7l-.626-1.54L259.66,407.1h2.867Zm-1.545-2.511,1.009.924.531,1.311.9-2.256Z" transform="translate(-206.952 -225.116)" fill="#263238"/>
      <rect id="Rectangle_3662" data-name="Rectangle 3662" width="1.869" height="0.106" transform="translate(53.948 182.967) rotate(-33.05)" fill="#263238"/>
      <path id="Path_9864" data-name="Path 9864" d="M244.8,407.034a1.962,1.962,0,0,1-2.609-.708.887.887,0,0,0-.89.735,1.205,1.205,0,0,0,.218.865,3.5,3.5,0,0,0,.626.658c.324.281.616.531.934.828.319-.287.584-.557.9-.844a3.5,3.5,0,0,0,.616-.669A1.179,1.179,0,0,0,244.8,407.034Z" transform="translate(-198.334 -224.753)" fill="#ff725e"/>
      <path id="Path_9865" data-name="Path 9865" d="M265.558,395.749v-1.954c0-1.279,0-3.185-.027-5.606,0-4.879-.027-11.977-.048-20.881l.09.09-84.9.048h0l.138-.138v28.441l-.133-.133,60.752.058,17.732.037h.08l-17.706.037-60.842.064h-.138V367.17h.149l84.9.048h.09v.09c0,8.925-.037,16.044-.048,20.939v7.019A1.026,1.026,0,0,1,265.558,395.749Z" transform="translate(-169.846 -206.385)" fill="#263238"/>
      <rect id="Rectangle_3663" data-name="Rectangle 3663" width="18.805" height="23.519" transform="matrix(0.006, -1, 1, 0.006, 14.237, 184.483)" fill="#ebebeb"/>
      <path id="Path_9866" data-name="Path 9866" d="M210.628,376.357h-6.562l-16.989-.037.127-.122c-.027,5.6-.058,12.014-.09,18.8.027.037-.26-.26-.138-.138h6.4l6.105.037,11.011.08-.111.117c.053-5.649.1-10.331.138-13.623,0-1.635.037-2.92.048-3.817V395.2h-.117l-11.011-.042-6.105-.032h-6.4l-.143-.143c.048-6.79.085-13.2.122-18.8v-.127h.127l17.042.154,4.778.064h1.577Z" transform="translate(-172.769 -210.555)" fill="#263238"/>
      <rect id="Rectangle_3664" data-name="Rectangle 3664" width="16.437" height="21.868" transform="matrix(0.006, -1, 1, 0.006, 15.056, 183.304)" fill="#e0e0e0"/>
      <path id="Path_9867" data-name="Path 9867" d="M188.72,400.572l7.7-10.172,4.693,6.419,3.228-3.4,6.249,7.279Z" transform="translate(-173.674 -217.282)" fill="#f5f5f5"/>
      <path id="Path_9868" data-name="Path 9868" d="M212.881,386.591a1.72,1.72,0,1,1-.5-1.221A1.725,1.725,0,0,1,212.881,386.591Z" transform="translate(-183.389 -214.683)" fill="#f5f5f5"/>
      <path id="Path_9869" data-name="Path 9869" d="M240.24,146.771a.765.765,0,0,1-.255,0l-.717.027-2.655.048c-2.235,0-5.309.037-8.739.037s-6.5,0-8.739-.037l-2.655-.048-.722-.027a.712.712,0,0,1-.25,0,.924.924,0,0,1,.25-.027h.722l2.655-.042c2.235-.027,5.309-.042,8.739-.042s6.5,0,8.739.042l2.655.042h.717a.993.993,0,0,1,.255.027Z" transform="translate(-186.241 -102.945)" fill="#263238"/>
      <path id="Path_9870" data-name="Path 9870" d="M323.529,336.66l-2.315-2.325-2.214,2.2V329.88h4.523Zm-2.315-2.612.069.069,2.044,2.049v-6.074h-4.12v5.957Z" transform="translate(-234.788 -188.893)" fill="#263238"/>
      <path id="Path_9871" data-name="Path 9871" d="M211.977,336.146l-1.062-.483a2.74,2.74,0,1,1,.834-.6Zm-2.532-5.867a2.8,2.8,0,0,0,.048,5.606,2.915,2.915,0,0,0,1.348-.425l.048-.027.8.356L211.5,335l.037-.037a2.8,2.8,0,0,0-2.1-4.688Z" transform="translate(-182.092 -189.08)" fill="#263238"/>
      <path id="Path_9872" data-name="Path 9872" d="M226.638,335.868l-1.242-3.031-2.325-2.124,5.649-.042Zm-3.042-4.953,1.986,1.821,1.062,2.58,1.773-4.438Z" transform="translate(-189.788 -189.263)" fill="#263238"/>
      <rect id="Rectangle_3665" data-name="Rectangle 3665" width="3.674" height="0.207" transform="translate(35.739 143.4) rotate(-33.05)" fill="#263238"/>
      <path id="Path_9873" data-name="Path 9873" d="M193.823,330.755a1.747,1.747,0,0,0-3.446.112,1.747,1.747,0,0,0-3.446-.058,2.363,2.363,0,0,0,.43,1.7,7.173,7.173,0,0,0,1.237,1.3c.632.531,1.21,1.062,1.842,1.63.616-.563,1.147-1.094,1.768-1.662a7.151,7.151,0,0,0,1.216-1.317A2.368,2.368,0,0,0,193.823,330.755Z" transform="translate(-172.826 -188.643)" fill="#ff725e"/>
      <circle id="Ellipse_1327" data-name="Ellipse 1327" cx="3.833" cy="3.833" r="3.833" transform="translate(16.649 39.993)" fill="#ebebeb"/>
      <path id="Path_9874" data-name="Path 9874" d="M261.4,301.128c0,.08-16.065.143-35.879.143s-35.884-.064-35.884-.143,16.065-.138,35.884-.138S261.4,301.054,261.4,301.128Z" transform="translate(-174.106 -175.341)" fill="#455a64"/>
      <path id="Path_9875" data-name="Path 9875" d="M261.4,289.878c0,.074-16.065.138-35.879.138s-35.884-.064-35.884-.138,16.065-.138,35.884-.138S261.4,289.8,261.4,289.878Z" transform="translate(-174.106 -170.063)" fill="#455a64"/>
      <path id="Path_9876" data-name="Path 9876" d="M228.7,312.538c0,.074-8.744.138-19.527.138s-19.532-.064-19.532-.138,8.744-.138,19.532-.138S228.7,312.464,228.7,312.538Z" transform="translate(-174.106 -180.693)" fill="#455a64"/>
      <path id="Path_9877" data-name="Path 9877" d="M251.438,433.916a1.534,1.534,0,1,1-.436-1.093A1.529,1.529,0,0,1,251.438,433.916Z" transform="translate(-201.66 -236.965)" fill="#263238"/>
      <path id="Path_9878" data-name="Path 9878" d="M260.308,433.956a1.529,1.529,0,1,1-.435-1.095,1.524,1.524,0,0,1,.435,1.095Z" transform="translate(-205.826 -236.984)" fill="#263238"/>
      <path id="Path_9879" data-name="Path 9879" d="M269.238,434a1.534,1.534,0,1,1-.436-1.093A1.524,1.524,0,0,1,269.238,434Z" transform="translate(-210.015 -237.003)" fill="#263238"/>
      <rect id="Rectangle_3666" data-name="Rectangle 3666" width="84.908" height="51.923" transform="translate(11.314 51.408)" fill="#e0e0e0"/>
      <path id="Path_9880" data-name="Path 9880" d="M196.46,230.206l24.326-32.566,15.088,20.366,10.22-10.894,20.052,23.073Z" transform="translate(-177.305 -126.86)" fill="#f5f5f5"/>
      <path id="Path_9881" data-name="Path 9881" d="M273.039,185.264a5.49,5.49,0,1,1-5.49-5.484,5.49,5.49,0,0,1,5.49,5.484Z" transform="translate(-208.078 -118.482)" fill="#f5f5f5"/>
      <path id="Path_9882" data-name="Path 9882" d="M266.074,245.936c0-1.11-.053-48.015-.127-117.458l.127.127h-84.9l.138-.138V245.926l-.117-.111,84.908.111-84.908.117h-.111v-.117c0-32.879,0-73.53-.027-117.458v-.138h85.173v.122c-.027,34.758-.048,64.133-.064,84.828,0,10.331-.027,18.491-.032,24.077v8.006A2.093,2.093,0,0,1,266.074,245.936Z" transform="translate(-170.081 -94.347)" fill="#263238"/>
    </g>
    <g id="freepik--Megaphone--inject-2" transform="translate(63.356 88.714)">
      <path id="Path_9883" data-name="Path 9883" d="M235.626,351.825l1.879-6.312c.329-1.37.765-2.984,1.349-4.826a13.086,13.086,0,0,1,3.111-4.651c1.917-1.948,2.83-1.959,4.115-2.994.117-.074.25-.186.361-.244a2.023,2.023,0,0,0,.626-.531c1.11-1.2.042-3.063-2.214-2.883-1.694.133-4.465.616-8.967,5.261-.058.074-.117.133-.17.2-2.363,3.074-4.582-5.7-4.985-8.962a3.414,3.414,0,0,0-4.624-2.655l-10.969,5.129a5.134,5.134,0,0,0-3.185.106,3.27,3.27,0,0,0-2.092,3.87l4.454,17.738L201.25,393.554h28.165Z" transform="translate(-144.862 -216.849)" fill="#ffbe9d"/>
      <path id="Path_9884" data-name="Path 9884" d="M263.132,296.676l-8.707,17.063-4.353-1.21L228.2,330.33a4.428,4.428,0,0,1-6.153-.531l-8.335-9.678s16.8-7.236,19.909-13.225-.483-7.353-.483-7.353l7.905-8.983Z" transform="translate(-150.707 -201.635)" fill="#ff725e"/>
      <path id="Path_9885" data-name="Path 9885" d="M196.171,183.255s-12.742-2.819-30.681-20.063-26.359-40.163-28.531-40.036-11.781-4.338-30.012,35.316-11.048,48.843-7.433,48.79,28.255-6.939,43.64-5.192,35.162,9.769,35.162,9.769Z" transform="translate(-95.038 -123.063)" fill="#ff725e"/>
      <path id="Path_9886" data-name="Path 9886" d="M294.4,251.462l-4.348,8.266-1.948,3.716a10.788,10.788,0,0,1-14.064,4.778L246.72,258.7l15.927-36.314,27.289,14.542a10.788,10.788,0,0,1,4.46,14.531Z" transform="translate(-166.191 -169.657)" fill="#ff725e"/>
      <g id="Group_9466" data-name="Group 9466" transform="translate(80.529 52.733)" opacity="0.4">
        <path id="Path_9887" data-name="Path 9887" d="M294.4,251.462l-4.348,8.266-1.948,3.716a10.788,10.788,0,0,1-14.064,4.778L246.72,258.7l15.927-36.314,27.289,14.542a10.788,10.788,0,0,1,4.46,14.531Z" transform="translate(-246.72 -222.39)"/>
      </g>
      <path id="Path_9888" data-name="Path 9888" d="M110.5,159.988c-9.7,21.48-13.74,40.625-9.025,42.754s16.41-13.554,26.11-35.04,13.74-40.62,9.025-42.754S120.2,138.508,110.5,159.988Z" transform="translate(-97.132 -123.856)" fill="#ff725e"/>
      <g id="Group_9467" data-name="Group 9467" transform="translate(2.369 0.898)" opacity="0.5">
        <path id="Path_9889" data-name="Path 9889" d="M110.5,159.988c-9.7,21.48-13.74,40.625-9.025,42.754s16.41-13.554,26.11-35.04,13.74-40.62,9.025-42.754S120.2,138.508,110.5,159.988Z" transform="translate(-99.501 -124.754)"/>
      </g>
      <path id="Path_9890" data-name="Path 9890" d="M334.4,289.9l-7.406-2.325,4.582-8.707,5.553,3.451Z" transform="translate(-203.845 -196.151)" fill="#ff725e"/>
      <g id="Group_9468" data-name="Group 9468" transform="translate(123.145 82.719)" opacity="0.6">
        <path id="Path_9891" data-name="Path 9891" d="M331.572,278.87l-4.582,8.707,1.524.478,3.722-8.776Z" transform="translate(-326.99 -278.87)"/>
      </g>
      <path id="Path_9892" data-name="Path 9892" d="M311.761,276.21c-.106.239-3.8-1.195-8.25-3.185s-7.964-3.838-7.863-4.077,3.8,1.2,8.256,3.212S311.873,275.971,311.761,276.21Z" transform="translate(-189.142 -191.484)" fill="#ff725e"/>
      <path id="Path_9893" data-name="Path 9893" d="M317.472,266.538c-.117.234-3.461-1.173-7.47-3.148s-7.162-3.764-7.045-4,3.456,1.173,7.465,3.148S317.589,266.3,317.472,266.538Z" transform="translate(-192.57 -186.999)" fill="#ff725e"/>
      <path id="Path_9894" data-name="Path 9894" d="M307.618,287.091c-.037.127-.918-.074-2.32-.531-.7-.218-1.534-.494-2.453-.807s-1.858-.812-2.872-1.274c-4.051-1.879-7.146-3.716-7.045-3.939s3.43,1.216,7.433,3.079c1.009.457,1.943.956,2.824,1.322s1.672.69,2.336.987C306.848,286.539,307.655,286.964,307.618,287.091Z" transform="translate(-187.866 -196.924)" fill="#ff725e"/>
      <path id="Path_9895" data-name="Path 9895" d="M140.779,180.739s-11.075-6.87-17.132,8.1,5.59,17.424,5.59,17.424a99.614,99.614,0,0,0,11.542-25.521Z" transform="translate(-107.639 -149.38)" fill="#ff725e"/>
      <g id="Group_9469" data-name="Group 9469" transform="translate(13.162 13.521)" opacity="0.5">
        <path id="Path_9896" data-name="Path 9896" d="M151.589,148.53a16.2,16.2,0,0,1-.43,2.862c-.34,1.832-.849,4.481-1.561,7.741l-1.54,5.24q-.419,1.407-.865,2.915l-.451,1.524c-.165.531-.382,1.014-.573,1.529l-2.5,6.456c-.218.563-.441,1.126-.658,1.694s-.531,1.11-.78,1.672l-1.646,3.4-1.651,3.392c-.281.531-.531,1.126-.834,1.646s-.621,1.062-.924,1.566l-3.531,5.962c-.287.467-.531.95-.849,1.4l-.918,1.3-1.763,2.485-3.185,4.444c-2.124,2.564-3.9,4.587-5.118,5.994a17.4,17.4,0,0,1-1.98,2.124,17.154,17.154,0,0,1,1.7-2.347c1.179-1.5,2.84-3.6,4.879-6.19l3.053-4.476,1.71-2.49c.3-.425.595-.86.9-1.3s.531-.924.823-1.4l3.488-5.957.908-1.561c.313-.531.531-1.062.823-1.635l1.635-3.371c.531-1.141,1.1-2.262,1.64-3.371.255-.531.563-1.094.775-1.656l.664-1.678,2.538-6.371c.2-.531.419-1,.589-1.513s.313-1.009.467-1.508l.9-2.883,1.63-5.176,1.842-7.645a17.136,17.136,0,0,1,.8-2.814Z" transform="translate(-119.83 -148.53)"/>
      </g>
      <g id="Group_9470" data-name="Group 9470" transform="translate(65.647 102.099)" opacity="0.4">
        <path id="Path_9897" data-name="Path 9897" d="M218.69,330.571a21.417,21.417,0,0,0,3.536,5.166A7.292,7.292,0,0,0,227.88,338a4.428,4.428,0,0,0,4.083-4.035,2.61,2.61,0,0,0,3.361-.595,5.863,5.863,0,0,0,1.195-3.488,3.291,3.291,0,0,0,4.157-1.12,5.383,5.383,0,0,0,.531-4.545,16.018,16.018,0,0,0-2.182-4.178,5.77,5.77,0,0,0,3.09-.313,1.974,1.974,0,0,0,1.025-2.607,2.564,2.564,0,0,0-1.524-.972,9.623,9.623,0,0,0-4.5-.727c-.393,0,.685,4.5-10.024,10.65C220.739,329.711,218.69,330.571,218.69,330.571Z" transform="translate(-218.69 -315.373)"/>
      </g>
      <path id="Path_9898" data-name="Path 9898" d="M254.5,355.974c0,.048-.717-.09-1.874-.058a10.618,10.618,0,0,0-7.868,3.775c-.749.881-1.062,1.524-1.131,1.5a1.635,1.635,0,0,1,.207-.467,9.293,9.293,0,0,1,.77-1.157,10.087,10.087,0,0,1,8.022-3.844,8.088,8.088,0,0,1,1.38.127,1.451,1.451,0,0,1,.494.127Z" transform="translate(-164.742 -232.201)" fill="#eb996e"/>
      <path id="Path_9899" data-name="Path 9899" d="M220,330.259c1.725,1.656,2.9,3.488,4.714,5.155.823.759,2.124,2.193,3.185,2.384s1.805.048,2.24-.982c.356-.834-.281-1.975-.717-2.655-1.152-1.81-2.256-3.223-3.116-4.629-.409-.658.117-.8.308-.488.828.86,2.071,1.593,2.814,2.543,1.019,1.279,1.2,2.984,3.865,2.442a2.325,2.325,0,0,0,.987-.409,2.668,2.668,0,0,0,.626-3.185,8.664,8.664,0,0,0-1.487-2.24c1.136,1.279,2.373,2.655,4.178,2.771a2.479,2.479,0,0,0,2.522-1.364c.531-1.21-.228-2.384-1-3.329a34.87,34.87,0,0,0-4.529-4.63,3.467,3.467,0,0,0-2.2-.812,3.14,3.14,0,0,0-2.655.977,3.637,3.637,0,0,0-.727,2.777s-2.336-1.184-4.215.053a5.978,5.978,0,0,0-2.347,3.377Z" transform="translate(-153.657 -215.834)" fill="#ffbe9d"/>
      <path id="Path_9900" data-name="Path 9900" d="M242.85,315.385a2.8,2.8,0,0,1-.329-3.185c.4-.78.9-1.54,1.407-1.71,2.224-.749,11.951.934,11.86,3.09s-.8,3.185-6.074,2.426c-.929-.133-2.384-.313-2.384-.313l-1.274,1.911Z" transform="translate(-164.057 -210.899)" fill="#ffbe9d"/>
      <path id="Path_9901" data-name="Path 9901" d="M242,332.6a12.683,12.683,0,0,0-5.357-4.858,3.09,3.09,0,0,1,1.03.361,9.243,9.243,0,0,1,3.865,3.5,2.967,2.967,0,0,1,.462.993Z" transform="translate(-161.463 -219.076)" fill="#eb996e"/>
      <path id="Path_9902" data-name="Path 9902" d="M246.981,322.722c-.048.042-.69-.478-1.566-1.014a11.394,11.394,0,0,0-1.136-.632c-.3-.138-.5-.175-.5-.218s.228-.064.563.037a5.15,5.15,0,0,1,1.221.579A3.688,3.688,0,0,1,246.981,322.722Z" transform="translate(-164.812 -215.831)" fill="#eb996e"/>
      <path id="Path_9903" data-name="Path 9903" d="M249.861,319.471a4.157,4.157,0,0,1-1.874-.212,3.462,3.462,0,0,1-1.2-.648c-.265-.228-.377-.414-.35-.441a7.963,7.963,0,0,0,1.63.807,13.965,13.965,0,0,1,1.794.494Z" transform="translate(-166.057 -214.587)" fill="#eb996e"/>
      <path id="Path_9904" data-name="Path 9904" d="M228.265,337.647a6.9,6.9,0,0,1-.887-1.152,10.316,10.316,0,0,0-2.267-2.58,4.56,4.56,0,0,0-3.217-.849,5.458,5.458,0,0,0-1.354.43,1.4,1.4,0,0,1,.313-.244,2.963,2.963,0,0,1,1.009-.382,4.534,4.534,0,0,1,3.408.823,9.2,9.2,0,0,1,2.272,2.692A8.643,8.643,0,0,1,228.265,337.647Z" transform="translate(-153.91 -221.454)" fill="#eb996e"/>
      <path id="Path_9905" data-name="Path 9905" d="M242.049,382.42a29.722,29.722,0,0,1-3.971.568,28.789,28.789,0,0,1-4.008.3,59.245,59.245,0,0,1,7.98-.865Z" transform="translate(-160.257 -244.726)" fill="#eb996e"/>
    </g>
    <g id="freepik--Stars--inject-2" transform="translate(38.761 49.84)">
      <path id="Path_9906" data-name="Path 9906" d="M405.134,49.84l.6,1.1,1.094.6-1.094.6-.6,1.094-.6-1.094-1.094-.6,1.094-.6Z" transform="translate(-215.112 -49.84)" fill="#ff725e"/>
      <path id="Path_9907" data-name="Path 9907" d="M428.739,101.01l.6,1.1,1.094.6-1.094.6-.6,1.094-.6-1.094-1.1-.6,1.1-.6Z" transform="translate(-226.182 -73.844)" fill="#ff725e"/>
      <path id="Path_9908" data-name="Path 9908" d="M50.4,237.53l.6,1.1,1.1.6-1.1.595-.6,1.1-.6-1.1-1.094-.595,1.094-.6Z" transform="translate(-48.71 -137.884)" fill="#ff725e"/>
      <path id="Path_9909" data-name="Path 9909" d="M372.2,62.56l1.386,2.532,2.532,1.386-2.532,1.38L372.2,70.391l-1.38-2.532-2.532-1.38,2.532-1.386Z" transform="translate(-198.623 -55.807)" fill="#ff725e"/>
      <path id="Path_9910" data-name="Path 9910" d="M69.607,205.1l1.38,2.522L73.515,209l-2.527,1.386-1.38,2.522-1.38-2.522L65.7,209l2.527-1.38Z" transform="translate(-56.68 -122.672)" fill="#ff725e"/>
      <path id="Path_9911" data-name="Path 9911" d="M433.207,318.56l1.38,2.527,2.522,1.38-2.522,1.38-1.38,2.527-1.38-2.527-2.527-1.38,2.527-1.38Z" transform="translate(-227.243 -175.895)" fill="#ff725e"/>
    </g>
  </g>
</svg>
