<svg id="Iconly_Light_Delete" data-name="Iconly/Light/Delete" xmlns="http://www.w3.org/2000/svg" width="24" height="24" viewBox="0 0 24 24">
  <rect id="Iconly_Light_Delete_Background_" data-name="Iconly/Light/Delete (Background)" width="24" height="24" fill="none"/>
  <g id="Delete" transform="translate(3.75 2.751)">
    <path id="Stroke_1" data-name="Stroke 1" d="M14.191,0s-.543,6.735-.858,9.572a2.238,2.238,0,0,1-2.358,2.174c-2.609.047-5.221.05-7.829-.005A2.214,2.214,0,0,1,.857,9.579C.54,6.717,0,0,0,0" transform="translate(1.384 6.718)" fill="none" stroke="#200e32" stroke-linecap="round" stroke-linejoin="round" stroke-width="1.5" stroke-dasharray="0 0"/>
    <path id="Stroke_3" data-name="Stroke 3" d="M16.958.5H0" transform="translate(0 2.989)" fill="none" stroke="#200e32" stroke-linecap="round" stroke-linejoin="round" stroke-width="1.5" stroke-dasharray="0 0"/>
    <path id="Stroke_5" data-name="Stroke 5" d="M10.423,3.489A1.648,1.648,0,0,1,8.808,2.165L8.565.949A1.28,1.28,0,0,0,7.328,0H3.1A1.28,1.28,0,0,0,1.858.949L1.615,2.165A1.648,1.648,0,0,1,0,3.489" transform="translate(3.267 0)" fill="none" stroke="#200e32" stroke-linecap="round" stroke-linejoin="round" stroke-width="1.5" stroke-dasharray="0 0"/>
  </g>
</svg>
