<svg id="Iconly_Light-outline_Delete" data-name="Iconly/Light-outline/Delete" xmlns="http://www.w3.org/2000/svg" width="24" height="24" viewBox="0 0 24 24">
  <rect id="Iconly_Light-outline_Delete_Background_" data-name="Iconly/Light-outline/Delete (Background)" width="24" height="24" fill="none"/>
  <g id="Delete" transform="translate(3 2)">
    <path id="Delete-2" data-name="Delete" d="M5.134,19.959A2.916,2.916,0,0,1,2.19,17.13l-.128-1.26L1.84,13.427l-.228-2.681-.26-3.218a.744.744,0,0,1,.67-.807.735.735,0,0,1,.773.587l.03.294.245,3.018.266,3.127c.121,1.354.224,2.45.307,3.219a1.453,1.453,0,0,0,1.521,1.494c2.452.053,4.977.054,7.606.005a1.477,1.477,0,0,0,1.586-1.508l.127-1.253c.037-.385.076-.812.119-1.275l.267-3.075.321-3.947a.742.742,0,0,1,.688-.688l.1,0a.741.741,0,0,1,.671.706l-.01.206-.314,3.851L16,15.241c-.069.75-.132,1.383-.185,1.881A2.939,2.939,0,0,1,12.8,19.964Q10.863,20,9,20,7.034,20,5.134,19.959ZM14.082,4.99H.732A.752.752,0,0,1,.632,3.5l.1-.006H3.918a.878.878,0,0,0,.829-.61l.029-.111.247-1.263A1.993,1.993,0,0,1,6.779.006L6.936,0h4.127a1.989,1.989,0,0,1,1.876,1.391l.048.162.238,1.215a.884.884,0,0,0,.745.715l.113.007h3.186a.751.751,0,0,1,.1,1.493l-.1.007Zm-2.168-1.5a2.441,2.441,0,0,1-.086-.262l-.038-.166-.227-1.169a.521.521,0,0,0-.413-.385L11.064,1.5H6.936a.525.525,0,0,0-.464.278l-.026.067L6.21,3.063a2.449,2.449,0,0,1-.124.427Z" fill="#200e32"/>
  </g>
</svg>
