<svg id="Iconly_Light-outline_3_User" data-name="Iconly/Light-outline/3 User" xmlns="http://www.w3.org/2000/svg" width="24" height="24" viewBox="0 0 24 24">
  <rect id="Iconly_Light-outline_3_User_Background_" data-name="Iconly/Light-outline/3 User (Background)" width="24" height="24" fill="none"/>
  <g id="_3_User" data-name="3 User" transform="translate(0.938 3.438)">
    <path id="_3_User-2" data-name="3 User" d="M4.229,13.747A2.588,2.588,0,0,1,6,11.24a12.975,12.975,0,0,1,5-.718l.305,0c4.472.042,6.466,1.03,6.466,3.206a2.544,2.544,0,0,1-1.61,2.433,11.321,11.321,0,0,1-4.559.787l-.6.005C6.318,16.954,4.229,15.965,4.229,13.747Zm1.5,0c0,1.118,1.823,1.708,5.27,1.708s5.27-.6,5.27-1.725S14.448,12.022,11,12.022,5.729,12.619,5.729,13.747Zm12.95.4a.75.75,0,0,1,.583-.886c.653-.134,1.081-.348,1.186-.571a.634.634,0,0,0,0-.54c-.107-.224-.538-.439-1.2-.57A8.692,8.692,0,0,0,17.94,11.4a.75.75,0,0,1,.1-1.5,10,10,0,0,1,1.515.219A2.869,2.869,0,0,1,21.8,11.509a2.127,2.127,0,0,1,0,1.829,2.875,2.875,0,0,1-2.238,1.4.749.749,0,0,1-.886-.583Zm-16.235.583A2.876,2.876,0,0,1,.207,13.339a2.123,2.123,0,0,1,0-1.83,2.711,2.711,0,0,1,2.018-1.344l.206-.044A10.212,10.212,0,0,1,3.966,9.9a.75.75,0,1,1,.1,1.5,8.7,8.7,0,0,0-1,.125l-.333.068c-.641.126-1.072.341-1.179.566a.625.625,0,0,0,0,.539c.105.222.533.437,1.185.571a.75.75,0,1,1-.3,1.469ZM7.738,7.871a4.627,4.627,0,0,1,0-6.526,4.608,4.608,0,0,1,7.871,3.263A4.613,4.613,0,0,1,7.738,7.871Zm.154-3.263A3.108,3.108,0,1,0,11,1.5,3.112,3.112,0,0,0,7.892,4.608Zm8.015,2.886a.75.75,0,0,1,.75-.75,2.151,2.151,0,1,0,0-4.3.75.75,0,0,1,0-1.5,3.651,3.651,0,1,1,0,7.3A.75.75,0,0,1,15.908,7.494ZM1.7,4.593A3.651,3.651,0,0,1,5.352.942a.75.75,0,1,1,0,1.5,2.151,2.151,0,1,0,0,4.3.75.75,0,1,1,0,1.5A3.652,3.652,0,0,1,1.7,4.593Z" fill="#200e32"/>
  </g>
</svg>
