<svg id="Iconly_Light-outline_Edit" data-name="Iconly/Light-outline/Edit" xmlns="http://www.w3.org/2000/svg" width="24" height="24" viewBox="0 0 24 24">
  <rect id="Iconly_Light-outline_Edit_Background_" data-name="Iconly/Light-outline/Edit (Background)" width="24" height="24" fill="none"/>
  <g id="Edit" transform="translate(3 3.5)">
    <path id="Edit-2" data-name="Edit" d="M10.471,17a.645.645,0,0,1-.089-1.285l.089-.006h6.871a.645.645,0,0,1,.09,1.285l-.09.006ZM.659,17a.658.658,0,0,1-.476-.2A.63.63,0,0,1,0,16.339L.1,12.4a2.866,2.866,0,0,1,.868-1.982L10.66.916a3.24,3.24,0,0,1,4.515,0l1.294,1.269a3.087,3.087,0,0,1,0,4.427L6.741,16.149a2.98,2.98,0,0,1-2.1.851ZM1.9,11.328a1.6,1.6,0,0,0-.482,1.1l-.084,3.278H4.643A1.673,1.673,0,0,0,5.7,15.332l.107-.1,8.046-7.886L9.907,3.48ZM14.786,6.437l.753-.738a1.814,1.814,0,0,0,0-2.6l-1.3-1.269a1.9,1.9,0,0,0-2.653,0l-.752.737Z" fill="#200e32"/>
  </g>
</svg>
