<svg xmlns="http://www.w3.org/2000/svg" width="300.656" height="335" viewBox="0 0 300.656 335">
  <g id="Completed-pana_1_" data-name="Completed-pana (1)" transform="translate(-47.882 -24.52)">
    <g id="freepik--background-complete--inject-2" transform="translate(47.882 96.634)">
      <path id="Path_5754" data-name="Path 5754" d="M372.021,230.808l-54.11-20.459a7.232,7.232,0,0,1-4.2-9.33l28.316-74.889a7.239,7.239,0,0,1,9.33-4.211l34.32,12.975,16.2,37.422-20.526,54.311a7.239,7.239,0,0,1-9.33,4.181Z" transform="translate(-115.818 -121.449)" fill="#f5f5f5"/>
      <path id="Path_5755" data-name="Path 5755" d="M407.7,139.52,399.729,160.6a6.733,6.733,0,0,0,3.913,8.682l20.266,7.663Z" transform="translate(-137.849 -126.076)" fill="#ebebeb"/>
      <path id="Path_5756" data-name="Path 5756" d="M399.151,170.48s-2.195,5.014,2.976,8.928a6.152,6.152,0,0,0,.61.4c2.47,1.488,18.719,11.16,18.867,10.765l2.143-5.669-20.266-7.663S398.5,175.122,399.151,170.48Z" transform="translate(-137.695 -134.002)" fill="#e0e0e0"/>
      <path id="Path_5757" data-name="Path 5757" d="M385.607,161.131c-.1.275-5.788-1.629-12.7-4.241s-12.432-4.955-12.328-5.208,5.788,1.629,12.7,4.241S385.711,160.841,385.607,161.131Z" transform="translate(-127.938 -129.184)" fill="#e0e0e0"/>
      <path id="Path_5758" data-name="Path 5758" d="M395.714,183.261c-.1.268-9.4-2.976-20.779-7.3s-20.519-8.013-20.415-8.288,9.4,2.976,20.787,7.306S395.8,182.986,395.714,183.261Z" transform="translate(-126.387 -133.28)" fill="#e0e0e0"/>
      <path id="Path_5759" data-name="Path 5759" d="M394.366,198.04c-.1.268-10.237-3.311-22.639-8.005s-22.372-8.712-22.267-8.98,10.237,3.311,22.639,8.005S394.5,197.765,394.366,198.04Z" transform="translate(-125.091 -136.706)" fill="#e0e0e0"/>
      <path id="Path_5760" data-name="Path 5760" d="M389.6,210.661c-.1.268-10.237-3.311-22.639-8.005s-22.372-8.742-22.267-8.98,10.237,3.311,22.639,8S389.7,210.386,389.6,210.661Z" transform="translate(-123.87 -139.938)" fill="#e0e0e0"/>
      <path id="Path_5761" data-name="Path 5761" d="M384.824,223.28c-.1.268-10.245-3.311-22.639-8.005s-22.372-8.712-22.275-8.98,10.237,3.311,22.647,8S384.921,223,384.824,223.28Z" transform="translate(-122.646 -143.168)" fill="#e0e0e0"/>
      <path id="Path_5762" data-name="Path 5762" d="M380.046,235.9c-.1.268-10.237-3.318-22.632-8.005s-22.379-8.712-22.275-8.98,10.237,3.311,22.639,8S380.151,235.625,380.046,235.9Z" transform="translate(-121.425 -146.399)" fill="#e0e0e0"/>
      <rect id="Rectangle_3428" data-name="Rectangle 3428" width="85.045" height="117.75" rx="6.36" transform="matrix(0.944, -0.331, 0.331, 0.944, 0, 58.155)" fill="#ebebeb"/>
      <rect id="Rectangle_3429" data-name="Rectangle 3429" width="73.111" height="107.327" transform="matrix(0.944, -0.331, 0.331, 0.944, 7.712, 62.127)" fill="#e0e0e0"/>
      <rect id="Rectangle_3430" data-name="Rectangle 3430" width="73.111" height="105.281" transform="matrix(0.944, -0.331, 0.331, 0.944, 6.477, 61.65)" fill="#fafafa"/>
      <path id="Path_5763" data-name="Path 5763" d="M160.347,271.173l-34.885-99.329.126.06L56.6,196.076h0l.067-.134c13,37.318,25.109,71.787,34.774,99.366l-.112-.052,69.027-24.083L91.38,295.434H91.3v-.082C81.627,267.773,69.559,233.3,56.48,195.994v-.1h.1l69-24.15h.1v.089Z" transform="translate(-50.083 -134.325)" fill="#e0e0e0"/>
      <path id="Path_5764" data-name="Path 5764" d="M163.2,307.806s15.363-12.96,18.027-26.456a19.53,19.53,0,0,1-13.139,7.923S167.783,303.409,163.2,307.806Z" transform="translate(-77.406 -162.387)" fill="#e0e0e0"/>
      <rect id="Rectangle_3431" data-name="Rectangle 3431" width="8.935" height="8.935" rx="3.42" transform="matrix(0.944, -0.331, 0.331, 0.944, 24.026, 85.903)" fill="#ebebeb"/>
      <path id="Path_5765" data-name="Path 5765" d="M87.032,240.994h0a.178.178,0,0,1-.164,0l-1.667-.967a.208.208,0,0,1,.208-.357l1.488.848,1.756-3.72a.223.223,0,0,1,.283-.1.208.208,0,0,1,.1.283l-1.853,3.958A.193.193,0,0,1,87.032,240.994Z" transform="translate(-57.416 -150.95)" fill="#fff"/>
      <path id="Path_5766" data-name="Path 5766" d="M137.933,213.4c0,.06-8.928,3.251-20.006,7.127S97.84,227.5,97.84,227.446s8.928-3.251,20.013-7.127S137.918,213.348,137.933,213.4Z" transform="translate(-60.672 -144.99)" fill="#e0e0e0"/>
      <path id="Path_5767" data-name="Path 5767" d="M117.651,232.62s-.231.1-.647.268l-1.8.67c-1.488.551-3.631,1.3-5.952,2.12s-4.464,1.547-5.952,2.061l-1.823.6a4.8,4.8,0,0,1-.677.193,4.392,4.392,0,0,1,.647-.275l1.8-.662c1.488-.558,3.631-1.309,5.952-2.128s4.464-1.54,5.952-2.061l1.823-.6A4.077,4.077,0,0,1,117.651,232.62Z" transform="translate(-61.43 -149.911)" fill="#e0e0e0"/>
      <path id="Path_5768" data-name="Path 5768" d="M139.2,217.08c0,.052-8.928,3.244-20.013,7.12S99.1,231.178,99.1,231.119s8.928-3.244,20.021-7.12S139.2,217.02,139.2,217.08Z" transform="translate(-60.995 -145.932)" fill="#e0e0e0"/>
      <rect id="Rectangle_3432" data-name="Rectangle 3432" width="8.935" height="8.935" rx="3.42" transform="matrix(0.944, -0.331, 0.331, 0.944, 29.208, 100.707)" fill="#ebebeb"/>
      <path id="Path_5769" data-name="Path 5769" d="M93.994,260.882h0a.193.193,0,0,1-.171,0l-1.659-.967a.207.207,0,1,1,.208-.357l1.488.848,1.756-3.757a.216.216,0,0,1,.275-.1.208.208,0,0,1,.1.275l-1.853,3.965A.216.216,0,0,1,93.994,260.882Z" transform="translate(-59.192 -156.032)" fill="#fff"/>
      <path id="Path_5770" data-name="Path 5770" d="M144.9,233.3c0,.06-8.928,3.244-20.013,7.127S104.8,247.4,104.8,247.346s8.928-3.251,20.013-7.127S144.886,233.248,144.9,233.3Z" transform="translate(-62.454 -150.085)" fill="#e0e0e0"/>
      <path id="Path_5771" data-name="Path 5771" d="M124.621,252.52s-.231.1-.655.268l-1.793.67c-1.488.551-3.631,1.3-5.952,2.12s-4.464,1.547-5.952,2.061l-1.823.6a4.805,4.805,0,0,1-.677.193,3.955,3.955,0,0,1,.647-.275l1.8-.662c1.488-.558,3.631-1.309,5.952-2.128s4.464-1.54,5.952-2.061l1.823-.6a4.08,4.08,0,0,1,.677-.186Z" transform="translate(-63.215 -155.006)" fill="#e0e0e0"/>
      <path id="Path_5772" data-name="Path 5772" d="M146.2,237c0,.052-8.928,3.244-20.013,7.12S106.1,251.1,106.1,251.038s8.928-3.244,20.013-7.12S146.2,236.925,146.2,237Z" transform="translate(-62.787 -151.032)" fill="#e0e0e0"/>
      <rect id="Rectangle_3433" data-name="Rectangle 3433" width="8.935" height="8.935" rx="3.42" transform="matrix(0.944, -0.331, 0.331, 0.944, 34.398, 115.511)" fill="#ebebeb"/>
      <path id="Path_5773" data-name="Path 5773" d="M100.954,280.783h0a.193.193,0,0,1-.171,0l-1.667-.952a.208.208,0,1,1,.208-.357l1.488.848,1.756-3.757a.208.208,0,1,1,.379.171L101.1,280.7a.246.246,0,0,1-.141.082Z" transform="translate(-60.967 -161.128)" fill="#fff"/>
      <path id="Path_5774" data-name="Path 5774" d="M151.871,253.2c0,.06-8.928,3.244-20.013,7.127s-20.088,6.971-20.088,6.912,8.928-3.244,20.021-7.12S151.848,253.148,151.871,253.2Z" transform="translate(-64.239 -155.18)" fill="#e0e0e0"/>
      <path id="Path_5775" data-name="Path 5775" d="M131.589,272.41a4.8,4.8,0,0,1-.655.275l-1.8.67c-1.488.551-3.623,1.3-5.952,2.12s-4.464,1.54-5.952,2.061l-1.823.6a5.156,5.156,0,0,1-.677.193,3.958,3.958,0,0,1,.647-.275l1.8-.67c1.488-.551,3.631-1.3,5.952-2.12s4.464-1.54,5.952-2.061l1.815-.6a6.348,6.348,0,0,1,.692-.193Z" transform="translate(-64.996 -160.098)" fill="#e0e0e0"/>
      <path id="Path_5776" data-name="Path 5776" d="M153.2,256.88c0,.052-8.928,3.244-20.013,7.12s-20.088,6.979-20.088,6.919,8.928-3.244,20.013-7.127S153.149,256.82,153.2,256.88Z" transform="translate(-64.579 -156.122)" fill="#e0e0e0"/>
      <rect id="Rectangle_3434" data-name="Rectangle 3434" width="8.935" height="8.935" rx="3.42" transform="matrix(0.944, -0.331, 0.331, 0.944, 39.58, 130.315)" fill="#ebebeb"/>
      <path id="Path_5777" data-name="Path 5777" d="M107.926,300.694h0a.208.208,0,0,1-.164,0l-1.667-.967a.209.209,0,0,1,.216-.357l1.488.848,1.756-3.72a.208.208,0,0,1,.275-.1.216.216,0,0,1,.1.275l-1.86,3.965A.216.216,0,0,1,107.926,300.694Z" transform="translate(-62.76 -166.234)" fill="#fff"/>
      <path id="Path_5778" data-name="Path 5778" d="M158.841,273.1c0,.06-8.928,3.244-20.013,7.12s-20.088,6.979-20.088,6.919,8.928-3.244,20.013-7.12S158.818,273.025,158.841,273.1Z" transform="translate(-66.023 -160.274)" fill="#e0e0e0"/>
      <path id="Path_5779" data-name="Path 5779" d="M138.551,292.31a3.958,3.958,0,0,1-.647.275l-1.8.67c-1.488.551-3.631,1.3-5.952,2.12s-4.464,1.54-5.952,2.061l-1.823.6c-.432.134-.677.2-.677.193a3.959,3.959,0,0,1,.647-.275l1.8-.67c1.488-.551,3.631-1.3,5.952-2.12s4.464-1.54,5.952-2.061l1.823-.6a5.152,5.152,0,0,1,.677-.193Z" transform="translate(-66.781 -165.193)" fill="#e0e0e0"/>
      <path id="Path_5780" data-name="Path 5780" d="M160.131,276.78c0,.052-8.928,3.244-20.013,7.12s-20.088,6.971-20.088,6.919,8.928-3.244,20.013-7.127S160.108,276.72,160.131,276.78Z" transform="translate(-66.353 -161.217)" fill="#e0e0e0"/>
      <path id="Path_5781" data-name="Path 5781" d="M67.09,185.378l1.815,5.208a5.8,5.8,0,0,0,7.38,3.556l38.166-13.392A5.781,5.781,0,0,0,118,173.378l-1.815-5.208Z" transform="translate(-52.8 -133.411)" fill="#e0e0e0"/>
      <path id="Path_5782" data-name="Path 5782" d="M98.28,178.188a5.431,5.431,0,1,1,3.326-6.912A5.431,5.431,0,0,1,98.28,178.188Zm-2.9-8.281a3.348,3.348,0,1,0,4.263,2.053,3.348,3.348,0,0,0-4.263-2.053Z" transform="translate(-58.933 -133.273)" fill="#e0e0e0"/>
      <path id="Path_5783" data-name="Path 5783" d="M126.258,200c0,.1-10.029,3.72-22.476,8.072s-22.565,7.812-22.6,7.715,10.029-3.72,22.476-8.072S126.221,199.872,126.258,200Z" transform="translate(-56.407 -141.559)" fill="#e0e0e0"/>
      <path id="Path_5784" data-name="Path 5784" d="M117.589,202.448c0,.1-4.389,1.741-9.888,3.668s-9.984,3.437-10.021,3.3,4.4-1.741,9.895-3.668S117.559,202.352,117.589,202.448Z" transform="translate(-60.631 -142.185)" fill="#e0e0e0"/>
    </g>
    <g id="freepik--Plants--inject-2" transform="translate(73.354 271.594)">
      <path id="Path_5785" data-name="Path 5785" d="M389.887,404.619a14.135,14.135,0,0,1,8.786-1.064,7.3,7.3,0,0,1,4.337,1.934c1.079,1.19,1.295,3.3.045,4.33a4.129,4.129,0,0,1-2.753.692c-2.329,0-4.9-.439-6.755.96-1.064.8-1.763,2.12-3.028,2.515a2.976,2.976,0,0,1-3.3-1.488,5.126,5.126,0,0,1-.372-3.772,5.758,5.758,0,0,1,3.035-4.107Z" transform="translate(-160.086 -368.564)" fill="#ff725e"/>
      <path id="Path_5786" data-name="Path 5786" d="M382.19,380.877c1.637,2.329,4.814,1.562,6.287.134s2.091-3.489,2.656-5.453c1.295-4.5,2.6-9.218,1.644-13.8a7.693,7.693,0,0,0-1.763-3.72,4.01,4.01,0,0,0-3.794-1.265c-1.607.424-2.6,1.994-3.318,3.482a32.906,32.906,0,0,0-3.251,14.136,11.512,11.512,0,0,0,1.54,6.54" transform="translate(-158.549 -356.637)" fill="#ff725e"/>
      <path id="Path_5787" data-name="Path 5787" d="M370.221,386.8a8.489,8.489,0,0,0,1.324-7.819,15.074,15.074,0,0,0-4.628-6.7,24.916,24.916,0,0,0-8.288-4.888,8.816,8.816,0,0,0-3.72-.632,3.9,3.9,0,0,0-3.125,1.89c-.878,1.666,0,3.683.863,5.327a62.408,62.408,0,0,0,5.446,8.288c1.629,2.105,3.5,4.181,5.989,5.133s5.066.833,6.383-.885" transform="translate(-151.066 -359.213)" fill="#ff725e"/>
      <path id="Path_5788" data-name="Path 5788" d="M382.565,429.127a5.418,5.418,0,0,0,.141-1.056c.082-.744.171-1.741.283-2.894a40.5,40.5,0,0,1,.655-4.248,32.542,32.542,0,0,1,1.54-5.007,18.5,18.5,0,0,1,2.559-4.531,9.568,9.568,0,0,1,3.236-2.693,9,9,0,0,1,2.723-.848,5.116,5.116,0,0,0,1.056-.149,5.035,5.035,0,0,0-1.079,0,8.362,8.362,0,0,0-2.835.744,9.515,9.515,0,0,0-3.415,2.708,18.184,18.184,0,0,0-2.649,4.628,30.071,30.071,0,0,0-1.533,5.089,36.339,36.339,0,0,0-.565,4.3c-.1,1.228-.126,2.232-.141,2.909a4.465,4.465,0,0,0,.022,1.049Z" transform="translate(-159.028 -369.688)" fill="#263238"/>
      <path id="Path_5789" data-name="Path 5789" d="M382.766,417.053a1.817,1.817,0,0,0,0-.491v-1.384c0-1.22,0-2.976.06-5.208.112-4.367.484-9.062,1.213-15.683.684-6.227,1.607-13.474,2.582-18.183.208-1.071.417-2.039.617-2.879s.35-1.577.506-2.165.238-1.012.327-1.369a3.712,3.712,0,0,0,.089-.491,2.132,2.132,0,0,0-.171.461c-.112.357-.245.8-.409,1.354s-.372,1.309-.58,2.15-.454,1.8-.684,2.872a161.73,161.73,0,0,0-2.686,16.888,166.417,166.417,0,0,0-1.079,17.052c0,2.187,0,3.958.074,5.208,0,.573.06,1.042.082,1.406A2.644,2.644,0,0,0,382.766,417.053Z" transform="translate(-159.036 -359.839)" fill="#263238"/>
      <path id="Path_5790" data-name="Path 5790" d="M377.509,406.631a8.926,8.926,0,0,0,0-1.488,39.818,39.818,0,0,0-.454-3.98,51.333,51.333,0,0,0-1.295-5.8,46.974,46.974,0,0,0-2.425-6.867,36.656,36.656,0,0,0-7.12-11.093,18.145,18.145,0,0,0-1.681-1.555,6.865,6.865,0,0,0-.744-.61l-.647-.446A8.307,8.307,0,0,0,361.9,374a41.814,41.814,0,0,1,4.055,3.616,38.241,38.241,0,0,1,6.949,11.056,53.883,53.883,0,0,1,2.44,6.8,55.851,55.851,0,0,1,1.376,5.744c.305,1.659.484,2.976.588,3.943a10.129,10.129,0,0,0,.2,1.473Z" transform="translate(-153.749 -361.068)" fill="#263238"/>
      <path id="Path_5791" data-name="Path 5791" d="M367.74,445.49l1.168,16h20.556l1.161-16Z" transform="translate(-155.244 -379.37)" fill="#263238"/>
      <rect id="Rectangle_3435" data-name="Rectangle 3435" width="27.326" height="6.309" transform="translate(210.517 59.811)" fill="#263238"/>
      <path id="Path_5792" data-name="Path 5792" d="M365.08,466.17v1.741h26.865V466.17Z" transform="translate(-154.563 -384.665)" fill="#455a64"/>
      <path id="Path_5793" data-name="Path 5793" d="M368.057,471.59l-1.257-3.08h24.611l-1.473,3.08Z" transform="translate(-155.003 -385.264)" fill="#455a64"/>
      <path id="Path_5794" data-name="Path 5794" d="M390.378,451.742s0,.06-.1.149l-.305.409-1.2,1.533-.052.067-.052-.074-2.939-4.062h.179l-2.9,4.1-.089.126-.1-.119-3.43-4.092h.193l-.186.238-3.073,3.846-.1.134-.1-.134c-1.042-1.488-2.016-2.857-2.9-4.1h.171l-3.564,4.062-.067.074-.052-.082c-.469-.789-.841-1.421-1.116-1.875l-.283-.5a.745.745,0,0,1-.089-.179,1.127,1.127,0,0,1,.119.156l.32.484,1.168,1.838h-.112l3.512-4.114.089-.1.082.112,2.924,4.084h-.2l3.087-3.846.193-.238.1-.126.1.119,3.43,4.1h-.193l2.924-4.084.082-.119.089.119c1.153,1.659,2.143,3.065,2.879,4.114H388.7l1.25-1.488.335-.387Z" transform="translate(-155.369 -380.4)" fill="#e0e0e0"/>
      <path id="Path_5795" data-name="Path 5795" d="M390.974,445.3c0,.074-5.148.134-11.5.134s-11.5-.06-11.5-.134,5.148-.126,11.5-.126S390.974,445.23,390.974,445.3Z" transform="translate(-155.303 -379.289)" fill="#455a64"/>
      <path id="Path_5796" data-name="Path 5796" d="M391.688,468.7c0,.067-5.6.126-12.5.126s-12.5-.06-12.5-.126,5.595-.134,12.5-.134S391.688,468.63,391.688,468.7Z" transform="translate(-154.975 -385.279)" fill="#263238"/>
      <path id="Path_5797" data-name="Path 5797" d="M127.148,399.624c-.06.067-.528-.216-1.049-.632s-.9-.811-.841-.885.521.216,1.042.632S127.2,399.549,127.148,399.624Z" transform="translate(-93.163 -367.236)" fill="#263238"/>
      <path id="Path_5798" data-name="Path 5798" d="M141.726,368.054a16.279,16.279,0,0,0-.484-5.915,5.833,5.833,0,0,0-4.032-4.04c-2.232-.461-4.509.945-5.758,2.849a16.448,16.448,0,0,0-2.046,6.45,227.956,227.956,0,0,0-2.79,46.834l9.106,1.28C139.687,399.167,140.982,384.876,141.726,368.054Z" transform="translate(-93.456 -356.974)" fill="#455a64"/>
      <path id="Path_5799" data-name="Path 5799" d="M136.9,358l-.045.149-.149.409-.61,1.577c-.126.342-.3.744-.432,1.138l-.439,1.376-.513,1.585-.469,1.808a78.862,78.862,0,0,0-1.763,9.069c-.491,3.422-.811,7.217-1.071,11.2-.461,7.983-.536,15.229-.744,20.467-.1,2.626-.186,4.747-.283,6.2-.052.744-.089,1.272-.119,1.689v-.007c0-.409,0-.975.052-1.689.06-1.488.112-3.579.179-6.2.149-5.208.186-12.484.655-20.474.253-4,.588-7.8,1.094-11.234a74.967,74.967,0,0,1,1.838-9.032l.491-1.808q.29-.833.536-1.585l.476-1.376c.141-.417.32-.789.454-1.131l.67-1.547q.1-.245.179-.4A.565.565,0,0,1,136.9,358Z" transform="translate(-94.445 -356.971)" fill="#263238"/>
      <path id="Path_5800" data-name="Path 5800" d="M139.588,358.05a6.569,6.569,0,0,1,1.116,1.882,13.934,13.934,0,0,1,.826,5.892c-.238,5.037-.692,11.971-1.287,19.634s-1.272,14.582-1.808,19.589c-.275,2.5-.506,4.523-.677,5.952-.089.677-.156,1.213-.208,1.607l-.06.417a.963.963,0,0,1,0,.141V412.6c0-.394.082-.93.141-1.614.141-1.428.335-3.445.573-5.952.476-5.014,1.109-11.9,1.711-19.6S141,370.846,141.3,365.825a14.225,14.225,0,0,0-.744-5.84A12.217,12.217,0,0,0,139.588,358.05Z" transform="translate(-96.296 -356.984)" fill="#263238"/>
      <path id="Path_5801" data-name="Path 5801" d="M147.65,389.33a4.962,4.962,0,0,1-1.726-.446,5.045,5.045,0,0,1-1.614-.744,4.769,4.769,0,0,1,1.726.446A4.963,4.963,0,0,1,147.65,389.33Z" transform="translate(-98.042 -364.688)" fill="#263238"/>
      <path id="Path_5802" data-name="Path 5802" d="M149.1,377.26a5.685,5.685,0,0,1-1.644.915,5.514,5.514,0,0,1-1.778.617A10.854,10.854,0,0,1,149.1,377.26Z" transform="translate(-98.393 -361.902)" fill="#263238"/>
      <path id="Path_5803" data-name="Path 5803" d="M148.583,366.966a5.506,5.506,0,0,1-2.693-.186,5.772,5.772,0,0,1,2.693.186Z" transform="translate(-98.446 -359.19)" fill="#263238"/>
      <path id="Path_5804" data-name="Path 5804" d="M136.353,359.725c-.074.045-.476-.454-.885-1.109a3.281,3.281,0,0,1-.618-1.287c.074-.045.476.446.893,1.109S136.45,359.673,136.353,359.725Z" transform="translate(-95.62 -356.799)" fill="#263238"/>
      <path id="Path_5805" data-name="Path 5805" d="M131.812,366.634a2.716,2.716,0,0,1-1.295.134,2.686,2.686,0,0,1-1.287-.193,2.716,2.716,0,0,1,1.295-.134A2.686,2.686,0,0,1,131.812,366.634Z" transform="translate(-94.181 -359.126)" fill="#263238"/>
      <path id="Path_5806" data-name="Path 5806" d="M128.8,378.639a3.139,3.139,0,0,1-1.361-.372,3.214,3.214,0,0,1-1.242-.677,3.139,3.139,0,0,1,1.361.372,3.214,3.214,0,0,1,1.242.677Z" transform="translate(-93.405 -361.987)" fill="#263238"/>
      <path id="Path_5807" data-name="Path 5807" d="M128.558,389.378a2.45,2.45,0,0,1-1.161.409c-.662.134-1.205.186-1.228.1s.506-.275,1.161-.409A2.515,2.515,0,0,1,128.558,389.378Z" transform="translate(-93.397 -364.996)" fill="#263238"/>
      <path id="Path_5808" data-name="Path 5808" d="M127.132,406.333a2.763,2.763,0,0,1-1.235.387,2.679,2.679,0,0,1-1.287.06,2.723,2.723,0,0,1,1.235-.379A2.626,2.626,0,0,1,127.132,406.333Z" transform="translate(-92.998 -369.333)" fill="#263238"/>
      <path id="Path_5809" data-name="Path 5809" d="M126.241,415.7c.045.074-.417.4-1.027.744s-1.138.521-1.175.439.417-.4,1.027-.744S126.241,415.621,126.241,415.7Z" transform="translate(-92.852 -371.739)" fill="#263238"/>
      <path id="Path_5810" data-name="Path 5810" d="M134.153,425.423c-.074.045-.476-.506-.893-1.235a3.586,3.586,0,0,1-.61-1.4c.074-.045.476.506.893,1.235A3.585,3.585,0,0,1,134.153,425.423Z" transform="translate(-95.057 -373.558)" fill="#263238"/>
      <path id="Path_5811" data-name="Path 5811" d="M136.112,408.678c.06.06-.387.6-1,1.205s-1.161,1.034-1.228.967.387-.6,1-1.205S136.045,408.611,136.112,408.678Z" transform="translate(-95.372 -369.944)" fill="#263238"/>
      <path id="Path_5812" data-name="Path 5812" d="M135.834,398.814c-.067.067-.476-.275-.923-.744s-.744-.923-.684-.982.476.275.923.744S135.9,398.754,135.834,398.814Z" transform="translate(-95.459 -366.977)" fill="#263238"/>
      <path id="Path_5813" data-name="Path 5813" d="M137.252,387.578c.067.06-.305.588-.833,1.168s-1,1.019-1.071.96.305-.588.826-1.175S137.185,387.519,137.252,387.578Z" transform="translate(-95.745 -364.542)" fill="#263238"/>
      <path id="Path_5814" data-name="Path 5814" d="M138.039,378.291c-.067.067-.58-.342-1.161-.908s-.989-1.079-.93-1.146.58.342,1.161.915S138.1,378.224,138.039,378.291Z" transform="translate(-95.899 -361.639)" fill="#263238"/>
      <path id="Path_5815" data-name="Path 5815" d="M139.939,367.379a3.266,3.266,0,0,1-.588,1.294c-.394.67-.781,1.175-.856,1.131a3.184,3.184,0,0,1,.58-1.295C139.478,367.84,139.857,367.334,139.939,367.379Z" transform="translate(-96.55 -359.372)" fill="#263238"/>
      <path id="Path_5816" data-name="Path 5816" d="M143.137,356.619c.082.045-.149.625-.513,1.295a3.54,3.54,0,0,1-.8,1.146,3.1,3.1,0,0,1,.513-1.294C142.7,357.088,143.055,356.582,143.137,356.619Z" transform="translate(-97.404 -356.617)" fill="#263238"/>
      <path id="Path_5817" data-name="Path 5817" d="M146.56,361.5c.037.082-.327.335-.818.573s-.915.357-.952.275.327-.335.818-.573S146.523,361.419,146.56,361.5Z" transform="translate(-98.164 -357.861)" fill="#263238"/>
      <path id="Path_5818" data-name="Path 5818" d="M146.106,399.661a5.565,5.565,0,0,1-3.326-1.421,9.255,9.255,0,0,1,1.674.692A8.832,8.832,0,0,1,146.106,399.661Z" transform="translate(-97.65 -367.274)" fill="#263238"/>
      <path id="Path_5819" data-name="Path 5819" d="M144.925,408.313a2.728,2.728,0,0,1-1.228.4,2.642,2.642,0,0,1-1.287.082,2.79,2.79,0,0,1,1.228-.4C144.337,408.261,144.91,408.224,144.925,408.313Z" transform="translate(-97.555 -369.84)" fill="#263238"/>
      <path id="Path_5820" data-name="Path 5820" d="M143.224,421.382c-.052.074-.744-.409-1.384-1.213a3.623,3.623,0,0,1-.87-1.629,10.307,10.307,0,0,1,1.123,1.428,9.84,9.84,0,0,1,1.131,1.414Z" transform="translate(-97.187 -372.471)" fill="#263238"/>
      <path id="Path_5821" data-name="Path 5821" d="M124.308,428.228c-.06-.067.312-.484.826-.923s.982-.744,1.042-.67-.312.476-.826.923S124.367,428.3,124.308,428.228Z" transform="translate(-92.919 -374.541)" fill="#263238"/>
      <path id="Path_5822" data-name="Path 5822" d="M116.2,396.77c-.6-1.853-1.7-4.01-3.646-4.04a3.229,3.229,0,0,0-2.738,1.83,6.7,6.7,0,0,0-.744,3.348,87.463,87.463,0,0,0,4.174,24.269h7.12A84.717,84.717,0,0,0,116.2,396.77Z" transform="translate(-89.018 -365.863)" fill="#455a64"/>
      <path id="Path_5823" data-name="Path 5823" d="M97.141,380.314a7.9,7.9,0,0,0-7.44-6.324c-3.147.551-4.367,3.645-4.739,6.815s.61,6.324,1.585,9.367q4.672,14.642,9.359,29.291l8.853-.967C101.992,405.416,100.385,393.289,97.141,380.314Z" transform="translate(-82.827 -361.065)" fill="#455a64"/>
      <path id="Path_5824" data-name="Path 5824" d="M113.325,392.73a6.636,6.636,0,0,0-.6,1,6.554,6.554,0,0,0-.335,3.147c.134,1.354.29,2.976.521,4.761s.551,3.72.952,5.788c.8,4.092,1.711,7.752,2.284,10.416.29,1.332.513,2.418.647,3.169.06.35.112.632.149.87s.045.305,0,.305a1.643,1.643,0,0,1-.089-.29l-.208-.856c-.193-.8-.446-1.86-.744-3.147-.632-2.663-1.577-6.316-2.381-10.416-.4-2.053-.744-4.017-.93-5.818-.119-.893-.193-1.756-.268-2.552s-.149-1.547-.186-2.232a6.458,6.458,0,0,1,.446-3.214,2.782,2.782,0,0,1,.744-.937Z" transform="translate(-89.793 -365.863)" fill="#263238"/>
      <path id="Path_5825" data-name="Path 5825" d="M90.665,373.65a11.316,11.316,0,0,0-1.071,1.436,10.155,10.155,0,0,0-1.347,4.635,21.575,21.575,0,0,0,1.094,7.12c.744,2.634,1.629,5.528,2.53,8.556,1.763,6.071,3.355,11.561,4.523,15.572l1.339,4.732c.149.536.26.96.35,1.287a2.134,2.134,0,0,1,.1.454,2.411,2.411,0,0,1-.164-.432c-.1-.327-.238-.744-.4-1.28-.35-1.138-.841-2.738-1.436-4.695l-4.62-15.549c-.893-3.043-1.733-5.952-2.507-8.571a21.248,21.248,0,0,1-1.034-7.217,9.947,9.947,0,0,1,1.488-4.687A5.438,5.438,0,0,1,90.665,373.65Z" transform="translate(-83.627 -360.978)" fill="#263238"/>
      <path id="Path_5826" data-name="Path 5826" d="M104.385,417.525a4.149,4.149,0,0,1-.2-.424c-.112-.29-.3-.7-.5-1.25a42.543,42.543,0,0,1-1.488-4.695c-.521-2.009-1.116-4.464-1.652-7.142s-1.071-5.677-1.667-8.8a85.316,85.316,0,0,0-2.091-8.69,49.232,49.232,0,0,0-2.582-6.822,36.672,36.672,0,0,0-2.388-4.3c-.305-.491-.58-.856-.744-1.109a2.748,2.748,0,0,1-.246-.4,2.749,2.749,0,0,1,.3.357c.186.253.476.6.8,1.086a31.633,31.633,0,0,1,2.492,4.27,45.592,45.592,0,0,1,2.656,6.83,86.146,86.146,0,0,1,2.068,8.719c.588,3.117,1.138,6.093,1.644,8.809s1.042,5.119,1.577,7.135,1.034,3.616,1.421,4.709c.179.558.35.975.446,1.265a2.135,2.135,0,0,1,.156.454Z" transform="translate(-84.35 -361.04)" fill="#263238"/>
      <path id="Path_5827" data-name="Path 5827" d="M86.614,393.765a2.368,2.368,0,0,1-1.079.424c-.618.149-1.131.2-1.146.112s.454-.275,1.071-.424S86.592,393.676,86.614,393.765Z" transform="translate(-82.701 -366.117)" fill="#263238"/>
      <path id="Path_5828" data-name="Path 5828" d="M85.1,385.593a4.567,4.567,0,0,1-1.488.164,4.4,4.4,0,0,1-1.488-.045,5.083,5.083,0,0,1,2.976-.119Z" transform="translate(-82.12 -363.986)" fill="#263238"/>
      <path id="Path_5829" data-name="Path 5829" d="M86.792,377.674c-.06.074-.543-.238-1.071-.692s-.923-.878-.863-.945.536.238,1.071.692S86.852,377.607,86.792,377.674Z" transform="translate(-82.819 -361.587)" fill="#263238"/>
      <path id="Path_5830" data-name="Path 5830" d="M90.995,371.38c.089,0,.06.454.052.967s0,.952-.112.967-.231-.417-.216-.975S90.928,371.357,90.995,371.38Z" transform="translate(-84.321 -360.397)" fill="#263238"/>
      <path id="Path_5831" data-name="Path 5831" d="M98.073,374.608c.074.052-.141.491-.484.975s-.677.841-.744.789.141-.484.476-.975S98,374.556,98.073,374.608Z" transform="translate(-85.887 -361.222)" fill="#263238"/>
      <path id="Path_5832" data-name="Path 5832" d="M102.565,382.989a2.453,2.453,0,0,1-1.019.6c-.6.246-1.116.372-1.146.29s.424-.35,1.019-.588S102.535,382.885,102.565,382.989Z" transform="translate(-86.8 -363.361)" fill="#263238"/>
      <path id="Path_5833" data-name="Path 5833" d="M105.221,391.57a2.6,2.6,0,0,1-1.4.617,2.783,2.783,0,0,1-1.533.052,5.8,5.8,0,0,1,1.488-.372,6.071,6.071,0,0,1,1.443-.3Z" transform="translate(-87.284 -365.566)" fill="#263238"/>
      <path id="Path_5834" data-name="Path 5834" d="M92.819,388.484c-.082,0,0-.469.141-.99s.365-.915.446-.885,0,.469-.141.99S92.945,388.514,92.819,388.484Z" transform="translate(-84.851 -364.296)" fill="#263238"/>
      <path id="Path_5835" data-name="Path 5835" d="M94.7,399.059a3.065,3.065,0,0,1,.4-1.332c.305-.7.618-1.235.7-1.2a3.065,3.065,0,0,1-.4,1.332C95.094,398.56,94.782,399.111,94.7,399.059Z" transform="translate(-85.341 -366.835)" fill="#263238"/>
      <path id="Path_5836" data-name="Path 5836" d="M89.227,402.614a3.37,3.37,0,0,1-1.272-.283c-.677-.216-1.228-.409-1.205-.5a2.47,2.47,0,0,1,1.3.186C88.744,402.235,89.264,402.532,89.227,402.614Z" transform="translate(-83.305 -368.188)" fill="#263238"/>
      <path id="Path_5837" data-name="Path 5837" d="M92.091,411.685c.052.074-.327.431-.841.8s-.99.61-1.042.543.327-.439.848-.811S92.039,411.611,92.091,411.685Z" transform="translate(-84.19 -370.712)" fill="#263238"/>
      <path id="Path_5838" data-name="Path 5838" d="M94.132,420.454a2.2,2.2,0,0,1-1.049.417c-.6.141-1.1.193-1.123.112s.446-.275,1.049-.424S94.11,420.365,94.132,420.454Z" transform="translate(-84.639 -372.949)" fill="#263238"/>
      <path id="Path_5839" data-name="Path 5839" d="M105.763,398.9c.045.074-.357.394-.937.61s-1.1.246-1.116.164.446-.253,1-.469S105.719,398.821,105.763,398.9Z" transform="translate(-87.647 -367.438)" fill="#263238"/>
      <path id="Path_5840" data-name="Path 5840" d="M107.433,412.23c-.037.082-.513-.06-1.064-.32s-.967-.536-.93-.617.521.067,1.071.32S107.478,412.148,107.433,412.23Z" transform="translate(-88.09 -370.609)" fill="#263238"/>
      <path id="Path_5841" data-name="Path 5841" d="M110.12,421.974a3.482,3.482,0,0,1-1.414-.379c-.744-.29-1.317-.6-1.287-.684a3.459,3.459,0,0,1,1.406.379C109.57,421.58,110.15,421.885,110.12,421.974Z" transform="translate(-88.597 -373.078)" fill="#263238"/>
      <path id="Path_5842" data-name="Path 5842" d="M95.349,429.332c-.045-.082.536-.469,1.205-1s1.19-1,1.257-.937-.357.64-1.056,1.19A2.864,2.864,0,0,1,95.349,429.332Z" transform="translate(-85.506 -374.737)" fill="#263238"/>
      <path id="Path_5843" data-name="Path 5843" d="M102.786,424.271c-.089,0-.216-.476-.439-1.042s-.446-1.019-.372-1.071.446.335.677.952S102.875,424.271,102.786,424.271Z" transform="translate(-87.2 -373.396)" fill="#263238"/>
      <path id="Path_5844" data-name="Path 5844" d="M100.491,412.9c-.052.074-.424-.1-.833-.394s-.692-.588-.64-.662.424.1.833.394S100.565,412.826,100.491,412.9Z" transform="translate(-86.445 -370.752)" fill="#263238"/>
      <path id="Path_5845" data-name="Path 5845" d="M118.376,394.845c.052.074-.312.432-.811.8s-.945.61-1,.536.305-.424.8-.8S118.376,394.771,118.376,394.845Z" transform="translate(-90.938 -366.401)" fill="#263238"/>
      <path id="Path_5846" data-name="Path 5846" d="M120.9,402.169c0,.089-.558.208-1.257.134s-1.228-.312-1.205-.394a3.86,3.86,0,0,1,1.242.067C120.352,402.042,120.895,402.079,120.9,402.169Z" transform="translate(-91.418 -368.204)" fill="#263238"/>
      <path id="Path_5847" data-name="Path 5847" d="M109.256,403.921a2.043,2.043,0,0,1-1.183.313c-.684.045-1.22-.067-1.213-.156s.543-.119,1.2-.164S109.241,403.832,109.256,403.921Z" transform="translate(-88.454 -368.714)" fill="#263238"/>
      <path id="Path_5848" data-name="Path 5848" d="M110.409,396.6c0,.089-.536.1-1.116-.171s-.915-.67-.856-.744.461.208.99.446S110.417,396.512,110.409,396.6Z" transform="translate(-88.856 -366.617)" fill="#263238"/>
      <path id="Path_5849" data-name="Path 5849" d="M121.975,409.744c-.045.074-.588-.179-1.213-.573s-1.086-.744-1.034-.848.588.186,1.213.573S122.028,409.669,121.975,409.744Z" transform="translate(-91.747 -369.849)" fill="#263238"/>
      <rect id="Rectangle_3436" data-name="Rectangle 3436" width="46.313" height="8.206" transform="translate(5.096 55.384)" fill="#ff725e"/>
      <path id="Path_5850" data-name="Path 5850" d="M93.62,439.91l5.632,24.529h27.6l6.16-24.529Z" transform="translate(-85.064 -377.942)" fill="#ff725e"/>
      <path id="Path_5851" data-name="Path 5851" d="M135.133,442.054c0,.089-10.416.164-23.331.164s-23.331-.074-23.331-.164,10.416-.164,23.331-.164S135.133,441.972,135.133,442.054Z" transform="translate(-83.746 -378.449)" fill="#263238"/>
      <path id="Path_5852" data-name="Path 5852" d="M116.173,403.551c-.074.045-.394-.32-.707-.826s-.506-.952-.432-1,.394.32.707.826S116.247,403.5,116.173,403.551Z" transform="translate(-90.543 -368.166)" fill="#263238"/>
      <path id="Path_5853" data-name="Path 5853" d="M116.589,412.228a2.589,2.589,0,0,1,.246-1.242c.216-.662.469-1.175.551-1.146a2.6,2.6,0,0,1-.246,1.25C116.894,411.744,116.678,412.258,116.589,412.228Z" transform="translate(-90.944 -370.243)" fill="#263238"/>
      <path id="Path_5854" data-name="Path 5854" d="M119.21,421.471c-.082.045-.424-.513-.744-1.235a3.385,3.385,0,0,1-.476-1.376c.082-.045.424.513.744,1.235a3.385,3.385,0,0,1,.476,1.376Z" transform="translate(-91.303 -372.552)" fill="#263238"/>
      <path id="Path_5855" data-name="Path 5855" d="M113.057,429.281c-.067-.06.208-.484.618-.96s.789-.8.863-.744-.208.491-.618.96S113.124,429.378,113.057,429.281Z" transform="translate(-90.038 -374.783)" fill="#263238"/>
      <path id="Path_5856" data-name="Path 5856" d="M111.014,416.125c0,.089-.461.082-1,0s-.952-.238-.937-.327.461-.082.989,0S111.029,416.036,111.014,416.125Z" transform="translate(-89.022 -371.752)" fill="#263238"/>
    </g>
    <g id="freepik--Character--inject-2" transform="translate(133.748 106.636)">
      <rect id="Rectangle_3437" data-name="Rectangle 3437" width="109.827" height="87.582" transform="translate(12.896 163.934)" fill="#e0e0e0"/>
      <g id="Group_8806" data-name="Group 8806" transform="translate(20.894 163.807)" opacity="0.3">
        <path id="Path_5857" data-name="Path 5857" d="M191.38,355.375c12.93,4.613,27.193,5.6,41.068,5.863a37.891,37.891,0,0,1,8.571.744,10.87,10.87,0,0,1,6.9,4.776c1.555,2.716,1.391,6.116.506,9.114s-2.41,5.773-3.512,8.7a32.475,32.475,0,0,0-1.733,16.226,15.237,15.237,0,0,0,2.291,6.547,7.507,7.507,0,0,0,5.818,3.407c4.174.06,7.031-4.04,9.1-7.67,8.489-14.88,17.67-31.768,23.1-48.009Z" transform="translate(-191.38 -355.07)"/>
      </g>
      <path id="Path_5858" data-name="Path 5858" d="M230.863,442.491c-.112,0-.193-19.41-.193-43.352s.082-43.359.193-43.359.193,19.41.193,43.359S230.968,442.491,230.863,442.491Z" transform="translate(-180.545 -191.444)" fill="#455a64"/>
      <path id="Path_5859" data-name="Path 5859" d="M262.582,247.671c-.327-2.187-6.86-9.4-6.86-9.4s-3.259-13.1-4.241-16.963a12.751,12.751,0,0,0-1.421-3.169,25.481,25.481,0,0,0-9.523-9.188l-9.039-5.081-2.158-4.806L207.632,187.9l-5.885,10.416s-14.292,4.538-16.182,7.76.937,46.722.937,46.722-5.952,25.087-7.239,30.28.4,11.383.4,11.383l10.646-13.354c3.311-4.151,10.572-6.063,15.787-5.989l44.572.2-1.793-12.484,36.061,6.979s6.2-12.1,6.7-12.335S262.582,247.671,262.582,247.671Z" transform="translate(-167.26 -148.464)" fill="#ff725e"/>
      <path id="Path_5860" data-name="Path 5860" d="M216.312,207.347c-.312-.32,2.515,9.24,6.071,18.979a47.845,47.845,0,0,1,2.879,16.42v35.265l21.367-1.451-3.192-23.227s-2.6-14.984-3.333-20.683c-.67-5.208-2.976-19.344-2.976-19.344S225.262,216.461,216.312,207.347Z" transform="translate(-176.863 -153.441)" fill="#fff"/>
      <path id="Path_5861" data-name="Path 5861" d="M280.051,276.942a1.488,1.488,0,0,1,0-.543,7.808,7.808,0,0,1,.283-1.436,9.672,9.672,0,0,1,2.44-4.144,9.8,9.8,0,0,1,4.144-2.455,7.808,7.808,0,0,1,1.436-.283,1.429,1.429,0,0,1,.536,0c0,.067-.744.149-1.89.543a10.3,10.3,0,0,0-6.406,6.421C280.2,276.2,280.118,276.942,280.051,276.942Z" transform="translate(-193.181 -168.985)" fill="#263238"/>
      <path id="Path_5862" data-name="Path 5862" d="M281.54,268.293a6.89,6.89,0,0,1,3.266-.945,6.7,6.7,0,0,1,3.37.4c0,.119-1.488-.171-3.34,0S281.585,268.4,281.54,268.293Z" transform="translate(-193.569 -168.788)" fill="#263238"/>
      <g id="Group_8807" data-name="Group 8807" transform="translate(15.232 118.752)" opacity="0.3">
        <path id="Path_5863" data-name="Path 5863" d="M185.63,294.51l-1.86,2.1a15.028,15.028,0,0,0,7.529,4.985,38.331,38.331,0,0,0,9.084.818,12.939,12.939,0,0,0,3.675-.35,17.114,17.114,0,0,1,3.593-1.109,9.174,9.174,0,0,1,2.492.357,4.836,4.836,0,0,0,2.5.037,1.964,1.964,0,0,0,1.451-1.838A131.071,131.071,0,0,0,185.63,294.51Z" transform="translate(-183.77 -294.51)"/>
      </g>
      <path id="Path_5864" data-name="Path 5864" d="M255.305,295.281l-5.208-5.565L239.272,287s-9.88,2.976-10.118,2.976-8.6-2.291-8.6-2.291l-2.924,10.728,15.066,1.034,17.2-.692s.9-.833.365-1.406,2.879.967,3.281.982,1.175.327,1.711-.312A2.331,2.331,0,0,0,255.305,295.281Z" transform="translate(-177.207 -173.835)" fill="#ffbe9d"/>
      <path id="Path_5865" data-name="Path 5865" d="M257.453,299.818a9.6,9.6,0,0,1-1.711-.491c-1.042-.327-2.492-.744-4.107-1.19s-3.1-.744-4.181-.93a8.76,8.76,0,0,1-1.733-.409,7.524,7.524,0,0,1,1.778.134,38.5,38.5,0,0,1,4.226.833,35.851,35.851,0,0,1,4.107,1.309A7.018,7.018,0,0,1,257.453,299.818Z" transform="translate(-184.398 -176.342)" fill="#eb996e"/>
      <path id="Path_5866" data-name="Path 5866" d="M262.581,296.683a23.46,23.46,0,0,1-2.4-.744c-1.488-.491-3.519-1.1-5.8-1.733a34.33,34.33,0,0,0-5.848-1.443,13.8,13.8,0,0,0-2.485.1,2.024,2.024,0,0,1,.647-.223,7.032,7.032,0,0,1,1.853-.149,24.13,24.13,0,0,1,5.952,1.347c2.232.67,4.33,1.287,5.788,1.853.744.275,1.3.528,1.7.707a2.231,2.231,0,0,1,.588.29Z" transform="translate(-184.483 -175.238)" fill="#eb996e"/>
      <path id="Path_5867" data-name="Path 5867" d="M181.6,212.33s-7.775,5.409-9.672,13.191-10.088,39.587-8.407,44.341,34.372,9.426,34.372,9.426l3.876-16.368-16.606-4.546s.216-15.14.424-21.412S181.6,212.33,181.6,212.33Z" transform="translate(-163.296 -154.719)" fill="#ff725e"/>
      <path id="Path_5868" data-name="Path 5868" d="M213.655,283.64,219,284.957l-3.221,12.335-5.253-.841Z" transform="translate(-175.389 -172.975)" fill="#fff"/>
      <path id="Path_5869" data-name="Path 5869" d="M163.43,284.067a4.809,4.809,0,0,0,.082.744,3.623,3.623,0,0,0,1.138,1.853c1.421,1.324,4.137,2.425,7.574,3.043h0c1.57.521,3.363.93,5.275,1.361s3.98.87,6.153,1.309c4.352.893,9.166,1.83,14.27,2.782l-.223.141c.365-1.488.744-3.117,1.153-4.747.915-3.72,1.808-7.38,2.649-10.825l.134.223-14.723-4.174h0a14.671,14.671,0,0,0-6.435-1.131,14.262,14.262,0,0,0-4.858,1.146,16.284,16.284,0,0,0-2.79,1.547l-.677.491a1.442,1.442,0,0,1-.238.156,2.3,2.3,0,0,1,.208-.193c.141-.119.357-.305.655-.528a15.043,15.043,0,0,1,2.775-1.629,14.092,14.092,0,0,1,4.91-1.228,14.731,14.731,0,0,1,6.562,1.086h0l14.768,4.137.179.045-.045.179c-.841,3.445-1.726,7.075-2.634,10.832-.4,1.622-.789,3.229-1.161,4.739l-.045.179h-.179c-5.1-.96-9.91-1.912-14.262-2.82-2.172-.454-4.233-.908-6.153-1.354s-3.72-.87-5.3-1.414h0c-3.482-.662-6.2-1.808-7.633-3.2a3.593,3.593,0,0,1-1.116-1.942A2.268,2.268,0,0,1,163.43,284.067Z" transform="translate(-163.323 -170.604)" fill="#263238"/>
      <path id="Path_5870" data-name="Path 5870" d="M189.645,274.331c-.045.052-.6-.461-1.6-1.123a15.289,15.289,0,0,0-8.839-2.582c-1.205,0-1.942.164-1.957.1a6.139,6.139,0,0,1,1.942-.365,13.518,13.518,0,0,1,9.032,2.626A5.952,5.952,0,0,1,189.645,274.331Z" transform="translate(-166.869 -169.566)" fill="#263238"/>
      <path id="Path_5871" data-name="Path 5871" d="M195.168,239.91a6.082,6.082,0,0,1,0,1c0,.647-.067,1.57-.156,2.716-.186,2.284-.521,5.431-1.123,8.883a60.636,60.636,0,0,1-2.061,8.719c-.179.543-.372,1.034-.528,1.488l-.476,1.071a4.649,4.649,0,0,1-.513.863,5.044,5.044,0,0,1,.372-.923c.126-.32.26-.684.417-1.086s.305-.923.469-1.488a77.823,77.823,0,0,0,1.942-8.7c.6-3.437.975-6.569,1.228-8.846.112-1.079.208-1.979.283-2.693A4.225,4.225,0,0,1,195.168,239.91Z" transform="translate(-170.212 -161.78)" fill="#263238"/>
      <path id="Path_5872" data-name="Path 5872" d="M218.838,221.739a5.758,5.758,0,0,0-.253-.551,3.3,3.3,0,0,0-1.123-1.22,2.783,2.783,0,0,0-2.418-.357,3.11,3.11,0,0,0-2.039,2.314l-.1.528-.231-.491a51.672,51.672,0,0,1-2.269-5.744,30.2,30.2,0,0,1-1.681-10.148c0-.662.089-1.257.126-1.786a8.081,8.081,0,0,1,.238-1.324,6.943,6.943,0,0,1,.327-1.1,26.407,26.407,0,0,0-.424,4.211,32.46,32.46,0,0,0,1.778,10.029A57.474,57.474,0,0,0,213,221.814l-.335.045a3.415,3.415,0,0,1,2.3-2.522,2.976,2.976,0,0,1,2.626.454,3.229,3.229,0,0,1,1.1,1.347,1.933,1.933,0,0,1,.141.446C218.845,221.68,218.853,221.739,218.838,221.739Z" transform="translate(-174.925 -152.038)" fill="#263238"/>
      <path id="Path_5873" data-name="Path 5873" d="M246.579,223.679a5.861,5.861,0,0,1-.171-.885,9.4,9.4,0,0,1-.156-2.492,5.208,5.208,0,0,1,1.793-3.3,3.43,3.43,0,0,1,2.165-.781,2.976,2.976,0,0,1,2.277,1.019l-.327.193-.707-1.778c-1.391-3.5-2.626-6.7-3.5-8.995l-1.019-2.745a5.149,5.149,0,0,1-.32-1.019,5.833,5.833,0,0,1,.461.967c.3.744.677,1.614,1.138,2.7.945,2.284,2.232,5.446,3.608,8.928l.7,1.786.454,1.146-.744-.96a2.574,2.574,0,0,0-1.986-.893,3.088,3.088,0,0,0-1.949.677,5.066,5.066,0,0,0-1.748,3.058,10.559,10.559,0,0,0,.045,2.448,3.764,3.764,0,0,1-.007.923Z" transform="translate(-184.528 -152.304)" fill="#263238"/>
      <path id="Path_5874" data-name="Path 5874" d="M265.248,233.31c.1,0,1.786,11.294,3.757,25.258s3.474,25.3,3.37,25.3-1.786-11.294-3.757-25.3S265.144,233.325,265.248,233.31Z" transform="translate(-189.397 -160.09)" fill="#263238"/>
      <g id="Group_8808" data-name="Group 8808" transform="translate(35.699 64.3)" opacity="0.3">
        <path id="Path_5875" data-name="Path 5875" d="M211.28,221.32a23.324,23.324,0,0,0,1.853,8.407,5.906,5.906,0,0,1,2.976-2.358c1.533-.365,3.088.58,4.2,1.741a7.611,7.611,0,0,0-1.339-3.214,3.772,3.772,0,0,0-2.976-1.54,2.6,2.6,0,0,0-2.477,2.024l-2.135-5.007" transform="translate(-211.28 -221.32)"/>
      </g>
      <path id="Path_5876" data-name="Path 5876" d="M191.9,228.611c-.067,0-.045-.781-.268-1.994a12.239,12.239,0,0,0-1.808-4.427,13.348,13.348,0,0,0-1.7-2.016,11.443,11.443,0,0,0-1.7-1.332c-1.049-.662-1.786-.915-1.756-.982a1.555,1.555,0,0,1,.528.134,3.148,3.148,0,0,1,.6.231,5.7,5.7,0,0,1,.744.387,10.416,10.416,0,0,1,1.808,1.295,12.349,12.349,0,0,1,1.778,2.068,11.093,11.093,0,0,1,1.756,4.6,7.507,7.507,0,0,1,.074,1.488C191.951,228.417,191.928,228.611,191.9,228.611Z" transform="translate(-168.765 -156.134)" fill="#263238"/>
      <path id="Path_5877" data-name="Path 5877" d="M242.3,156.1a15.944,15.944,0,0,0-16.263-14.247h-.826c-8.891.744-13.221,8.712-12.224,17.573l2.44,31.173,1.034,1.265a16.665,16.665,0,0,0,19.79,4.665h0l-.684-10.029s8.526-1.547,8.407-10.1C243.926,172.24,243.123,163.744,242.3,156.1Z" transform="translate(-175.983 -136.673)" fill="#ffbe9d"/>
      <path id="Path_5878" data-name="Path 5878" d="M239.6,200.806a20.712,20.712,0,0,1-11.286-2.976s2.79,6.093,11.309,5.1Z" transform="translate(-179.941 -151.006)" fill="#eb996e"/>
      <path id="Path_5879" data-name="Path 5879" d="M247.963,170.089a1.235,1.235,0,0,1-1.146,1.265,1.176,1.176,0,0,1-1.287-1.071,1.228,1.228,0,0,1,1.146-1.265,1.168,1.168,0,0,1,1.287,1.071Z" transform="translate(-184.349 -143.628)" fill="#263238"/>
      <path id="Path_5880" data-name="Path 5880" d="M248.049,164.167c-.1.149-1.064.253-2.232.878s-1.853,1.406-2.009,1.391,0-.216.29-.565a5.617,5.617,0,0,1,1.562-1.213,5.089,5.089,0,0,1,1.815-.6C247.916,164.011,248.1,164.093,248.049,164.167Z" transform="translate(-183.893 -142.356)" fill="#263238"/>
      <path id="Path_5881" data-name="Path 5881" d="M231.363,170.959a1.213,1.213,0,0,1-1.146,1.265,1.168,1.168,0,0,1-1.287-1.071,1.228,1.228,0,0,1,1.146-1.265,1.168,1.168,0,0,1,1.287,1.071Z" transform="translate(-180.1 -143.851)" fill="#263238"/>
      <path id="Path_5882" data-name="Path 5882" d="M230.388,166.152a20.553,20.553,0,0,0-2.232-.811c-1.265-.312-2.314-.246-2.425-.35s.134-.149.588-.186a6.317,6.317,0,0,1,1.972.186,5.714,5.714,0,0,1,1.756.744C230.343,165.974,230.433,166.137,230.388,166.152Z" transform="translate(-179.274 -142.548)" fill="#263238"/>
      <path id="Path_5883" data-name="Path 5883" d="M238.573,176.589a9.165,9.165,0,0,1,2.128-.439c.335,0,.647-.119.7-.35a1.681,1.681,0,0,0-.246-.982l-1.064-2.537a41.334,41.334,0,0,1-2.4-6.621,40.09,40.09,0,0,1,2.924,6.413c.357.893.7,1.741,1.019,2.552a1.956,1.956,0,0,1,.208,1.309.848.848,0,0,1-.543.506,2.144,2.144,0,0,1-.565.1A8.444,8.444,0,0,1,238.573,176.589Z" transform="translate(-182.34 -142.77)" fill="#263238"/>
      <path id="Path_5884" data-name="Path 5884" d="M229.946,159.414c-.149.35-1.451.119-2.976.223s-2.82.476-2.976.141c-.089-.156.149-.484.662-.8a5.208,5.208,0,0,1,4.575-.283C229.722,158.953,229.99,159.243,229.946,159.414Z" transform="translate(-178.831 -140.884)" fill="#263238"/>
      <path id="Path_5885" data-name="Path 5885" d="M247.568,159.728c-.29.305-1.421,0-2.775,0s-2.507.231-2.775-.082c-.119-.149.06-.454.558-.744a4.83,4.83,0,0,1,4.464.067C247.531,159.275,247.694,159.587,247.568,159.728Z" transform="translate(-183.441 -140.908)" fill="#263238"/>
      <path id="Path_5886" data-name="Path 5886" d="M244.162,146.713a1.629,1.629,0,0,0-1.711-1.317,3.392,3.392,0,0,0,1.175-.6,1.183,1.183,0,0,0,.409-1.19c-.223-.662-1.071-.8-1.741-.989a4.464,4.464,0,0,1-2.232-1.488c-.811-1.027-1.123-2.366-1.83-3.474a5.677,5.677,0,0,0-8.794-.967,5.915,5.915,0,0,0-9.516,1.451,6.9,6.9,0,0,0-9.449,7.551l5.327,3.266a2.879,2.879,0,0,1,3.512-2.5c1.607.469,2.634,2.329,4.3,2.455,1.3.1,2.411-.908,3.668-1.242a6.211,6.211,0,0,1,4.516.975,18.023,18.023,0,0,0,4.226,2.128,8.771,8.771,0,0,0,5.424-.647,5.5,5.5,0,0,0,2.009-1.242A2.485,2.485,0,0,0,244.162,146.713Z" transform="translate(-175.348 -134.893)" fill="#263238"/>
      <path id="Path_5887" data-name="Path 5887" d="M216.325,147.709l24.4-.134a11.085,11.085,0,0,0-3.72-4.047,19.046,19.046,0,0,0-11.16-3.668c-3.98,0-11.941,5.111-14.746,7.931-2.232,2.232-2.172,4.159-2.172,4.159-.283,3.169,1.585,6.7,2.381,9.8.4,1.592,1.242,6.413,1.242,6.413h0c1.339-.037,1.808-1.123,1.57-2.448l-.394-5.208a7.879,7.879,0,0,0,2.15-9.255C215.544,150.789,214.741,148.639,216.325,147.709Z" transform="translate(-174.972 -136.165)" fill="#263238"/>
      <path id="Path_5888" data-name="Path 5888" d="M211.85,162.593c-1.242-4.315-2.388-8.928-1.064-13.243h-.744l-.3.216a3.415,3.415,0,0,0-3.839,5.26,2.976,2.976,0,0,0-2.976,2.582,5.52,5.52,0,0,0,.8,2.842,6.651,6.651,0,0,1,.93,2.827,2.12,2.12,0,0,1-1.622,2.195,2.433,2.433,0,0,0,2.76,1.347,4.858,4.858,0,0,1-1.674,2.113c1.592,1.086,3.772.744,5.5-.126a4.687,4.687,0,0,0,2.455-2.277A5.873,5.873,0,0,0,211.85,162.593Z" transform="translate(-173.443 -138.595)" fill="#263238"/>
      <path id="Path_5889" data-name="Path 5889" d="M212.452,173.843c-.149-.06-5.952-1.585-5.587,4.256S213,182.4,213,182.228,212.452,173.843,212.452,173.843Z" transform="translate(-174.446 -144.808)" fill="#ffbe9d"/>
      <path id="Path_5890" data-name="Path 5890" d="M212.31,180.763a1.987,1.987,0,0,1-.268.164,1,1,0,0,1-.744.06A2.519,2.519,0,0,1,210,178.791a3.393,3.393,0,0,1,.2-1.488,1.19,1.19,0,0,1,.744-.826.528.528,0,0,1,.618.246c.089.156.052.275.089.29s.119-.112.06-.35a.7.7,0,0,0-.826-.469,1.443,1.443,0,0,0-1.012.967,3.616,3.616,0,0,0-.26,1.652,2.628,2.628,0,0,0,1.637,2.44,1.1,1.1,0,0,0,.915-.208C212.31,180.9,212.332,180.77,212.31,180.763Z" transform="translate(-175.152 -145.464)" fill="#eb996e"/>
      <path id="Path_5891" data-name="Path 5891" d="M206.188,163.147a1.016,1.016,0,0,1-.112-.684,2.18,2.18,0,0,1,1.094-1.488,6.7,6.7,0,0,1,2.678-.647,3.3,3.3,0,0,0,2.664-1.354,4.858,4.858,0,0,0,.461-3.072c-.141-.982-.4-1.867-.528-2.634a4.322,4.322,0,0,1,.037-2.507,11.6,11.6,0,0,0,.275,2.44c.164.744.454,1.614.632,2.649a5.111,5.111,0,0,1-.491,3.363,2.85,2.85,0,0,1-1.391,1.175,6.025,6.025,0,0,1-1.614.357,6.971,6.971,0,0,0-2.567.506,2.172,2.172,0,0,0-1.079,1.28A4.706,4.706,0,0,0,206.188,163.147Z" transform="translate(-174.246 -138.956)" fill="#455a64"/>
      <path id="Path_5892" data-name="Path 5892" d="M204.263,160.38a1.194,1.194,0,0,1-.179-.528,2.492,2.492,0,0,1,.29-1.488,2.648,2.648,0,0,1,.692-.833,2.976,2.976,0,0,1,1.123-.521,3.3,3.3,0,0,0,1.109-.461,1.324,1.324,0,0,0,.439-1.071c0-.439-.052-.908-.037-1.376a6.882,6.882,0,0,1,.149-1.332,6.16,6.16,0,0,1,.841-2.083,1.607,1.607,0,0,1,1.287-.826c.387,0,.551.179.536.193a1.4,1.4,0,0,0-.521,0,1.488,1.488,0,0,0-1.034.818,6.785,6.785,0,0,0-.7,1.994,7.507,7.507,0,0,0-.112,1.25c0,.432.067.893.045,1.4a1.733,1.733,0,0,1-.617,1.4,3.348,3.348,0,0,1-1.272.513,2.418,2.418,0,0,0-1.652,1.116,3.274,3.274,0,0,0-.387,1.838Z" transform="translate(-173.734 -138.725)" fill="#455a64"/>
      <path id="Path_5893" data-name="Path 5893" d="M241.311,142.213a1.187,1.187,0,0,1-1.205-.037,3.512,3.512,0,0,1-1.109-.945,4.658,4.658,0,0,0-1.354-1.2,4.04,4.04,0,0,0-4.4.29c-.744.521-1.362,1.257-2.232,1.867a3.9,3.9,0,0,1-1.488.677,3.155,3.155,0,0,1-1.659-.156c-1.056-.379-1.89-1.027-2.8-1.354a7.507,7.507,0,0,0-2.745-.5,7.269,7.269,0,0,0-4.464,1.525,7.99,7.99,0,0,0-2.083,2.448c-.365.677-.5,1.094-.536,1.079s0-.112.06-.312a6.466,6.466,0,0,1,.312-.848,7.6,7.6,0,0,1,2.046-2.619,7.484,7.484,0,0,1,4.62-1.689,7.588,7.588,0,0,1,2.909.5c.982.357,1.83,1,2.79,1.339a2.7,2.7,0,0,0,1.428.141,3.437,3.437,0,0,0,1.287-.6c.781-.558,1.436-1.295,2.232-1.845a4.211,4.211,0,0,1,2.552-.841,4.509,4.509,0,0,1,2.232.61,5.066,5.066,0,0,1,1.391,1.317,3.355,3.355,0,0,0,.989.952A1.674,1.674,0,0,0,241.311,142.213Z" transform="translate(-176.59 -135.981)" fill="#455a64"/>
      <path id="Path_5894" data-name="Path 5894" d="M234.481,182.41c.186,0,.394,1.205,1.614,1.912s2.522.35,2.567.521-.26.3-.818.4a3.147,3.147,0,0,1-2.128-.357,2.8,2.8,0,0,1-1.28-1.622C234.3,182.752,234.392,182.417,234.481,182.41Z" transform="translate(-181.492 -147.059)" fill="#263238"/>
      <path id="Path_5895" data-name="Path 5895" d="M333.453,337.714a11.383,11.383,0,0,0-8.184-2.723l-5.029,15.973c3.683.164,7.358,2.061,10.914,1.086a7.789,7.789,0,0,0,5.424-6.4A9.248,9.248,0,0,0,333.453,337.714Z" transform="translate(-203.477 -186.115)" fill="#ff725e"/>
      <path id="Path_5896" data-name="Path 5896" d="M325.622,334.433c0-.127.543-.231,1.488-.223a12.424,12.424,0,0,1,4.114.781,11.16,11.16,0,0,1,5.014,3.891,10.365,10.365,0,0,1,1.674,3.467,9.122,9.122,0,0,1,.119,4.189,8.519,8.519,0,0,1-1.823,3.817,8.057,8.057,0,0,1-3.244,2.232,11.658,11.658,0,0,1-6.324.409,19.1,19.1,0,0,1-3.943-1.228c-.885-.379-1.354-.662-1.309-.789s.58-.089,1.488.067,2.284.446,3.921.6a11.346,11.346,0,0,0,5.468-.744,6.51,6.51,0,0,0,2.455-1.815,6.859,6.859,0,0,0,1.384-2.976,8.184,8.184,0,0,0-1.361-6.249,10.78,10.78,0,0,0-4.092-3.66,18.489,18.489,0,0,0-3.668-1.28C326.128,334.723,325.607,334.567,325.622,334.433Z" transform="translate(-203.77 -185.922)" fill="#f5f5f5"/>
      <path id="Path_5897" data-name="Path 5897" d="M260.687,415.06,249.75,445.7l38.055,13.8c1.1-3.72-15.944-18.153-15.944-18.153l7.812-19.344Z" transform="translate(-185.43 -206.621)" fill="#ff725e"/>
      <g id="Group_8809" data-name="Group 8809" transform="translate(73.539 228.785)" opacity="0.6">
        <path id="Path_5898" data-name="Path 5898" d="M263.866,442.439a1.652,1.652,0,0,0-1.719,1.384,1.585,1.585,0,0,0,1.354,1.711,1.741,1.741,0,0,0,1.815-1.488c0-.811-.8-1.741-1.607-1.629" transform="translate(-262.141 -442.408)" fill="#fff"/>
      </g>
      <path id="Path_5899" data-name="Path 5899" d="M249.75,455.188l1.109-3.088L287,466.518s1.428,1.347.8,2.47Z" transform="translate(-185.43 -216.104)" fill="#fff"/>
      <path id="Path_5900" data-name="Path 5900" d="M278.945,450.253c-.074.186-1.034-.067-2.165.2s-1.9.87-2.046.744.521-1.109,1.9-1.406S279.041,450.1,278.945,450.253Z" transform="translate(-191.821 -215.492)" fill="#263238"/>
      <path id="Path_5901" data-name="Path 5901" d="M283.8,454.524c0,.193-.945.216-1.86.744s-1.4,1.324-1.585,1.25.082-1.168,1.235-1.845S283.8,454.345,283.8,454.524Z" transform="translate(-193.251 -216.66)" fill="#263238"/>
      <path id="Path_5902" data-name="Path 5902" d="M285.643,461.2c-.179,0-.1-1.042.744-1.89s1.86-.93,1.882-.744-.707.528-1.391,1.235S285.836,461.247,285.643,461.2Z" transform="translate(-194.599 -217.737)" fill="#263238"/>
      <path id="Path_5903" data-name="Path 5903" d="M280.745,443.711c-.141.141-.9-.424-1.972-.744s-2.016-.275-2.053-.469.982-.573,2.232-.186S280.893,443.6,280.745,443.711Z" transform="translate(-192.335 -213.556)" fill="#263238"/>
      <path id="Path_5904" data-name="Path 5904" d="M281.376,436.061a3.854,3.854,0,0,1-1.9-.7,8.728,8.728,0,0,1-1.771-1.339,9.4,9.4,0,0,1-.885-.975,2.551,2.551,0,0,1-.417-.655.856.856,0,0,1,.275-1.019,1.094,1.094,0,0,1,.967-.134,2.731,2.731,0,0,1,.677.357,7.441,7.441,0,0,1,1.042.841,7.112,7.112,0,0,1,1.339,1.786,3.385,3.385,0,0,1,.558,1.957c-.1,0-.327-.707-.975-1.711a8.318,8.318,0,0,0-1.354-1.57,7.771,7.771,0,0,0-.975-.744c-.365-.253-.707-.379-.87-.238s-.082.082-.037.231a1.95,1.95,0,0,0,.305.484,9.081,9.081,0,0,0,.8.937,10.909,10.909,0,0,0,1.585,1.376C280.722,435.652,281.421,435.965,281.376,436.061Z" transform="translate(-192.237 -210.749)" fill="#263238"/>
      <path id="Path_5905" data-name="Path 5905" d="M282.629,436.09a3.274,3.274,0,0,1,.164-2.024,6.7,6.7,0,0,1,1.019-1.994,7.325,7.325,0,0,1,.9-.982,1.7,1.7,0,0,1,1.57-.521.96.96,0,0,1,.6.826,2.769,2.769,0,0,1-.06.744,4.612,4.612,0,0,1-1.994,2.976c-1.1.744-1.957.655-1.949.588a8.515,8.515,0,0,0,1.667-.982,4.7,4.7,0,0,0,1.25-1.57,4.182,4.182,0,0,0,.365-1.116c.089-.424.052-.811-.112-.818a1.139,1.139,0,0,0-.893.379,6.615,6.615,0,0,0-.848.863,7.074,7.074,0,0,0-1.056,1.763C282.793,435.346,282.741,436.09,282.629,436.09Z" transform="translate(-193.825 -210.584)" fill="#263238"/>
      <path id="Path_5906" data-name="Path 5906" d="M205.459,304.8c-5.773.134-11.249.945-15.229,5.133-5.275,5.558-11.792,13.466-12.164,18.949-.551,8.184,4.4,10.639,8.005,12.648a10.133,10.133,0,0,0,5.208,1.213l66.72-.506,2.091-11.3L216.938,320.3l1.793-16.241Z" transform="translate(-167.067 -178.203)" fill="#263238"/>
      <path id="Path_5907" data-name="Path 5907" d="M232.165,303.717l20.988-.967s36.262,2.016,43.992,9.106,6.77,15.147,4.189,22.877-25.3,57.2-25.3,57.2a8.557,8.557,0,0,1,.811,6.287,8.3,8.3,0,0,1-5.952,5.639l-20.177-7.44s-2.738-.967-.8-3.549,3.221-3.058,3.221-3.058v-5.156s7.09-12.893,7.73-14.664,7.44-28,7.44-28l4.516-7.76s-10.914-5.133-20.378-8.853l-22.1-5.446Z" transform="translate(-180.463 -177.868)" fill="#263238"/>
      <path id="Path_5908" data-name="Path 5908" d="M273.978,425.673a19.824,19.824,0,0,1-1.771-1.161,23.964,23.964,0,0,0-9.419-3.579,20.787,20.787,0,0,1-2.1-.312,8.049,8.049,0,0,1,2.128.037,20.087,20.087,0,0,1,9.545,3.631,8.094,8.094,0,0,1,1.615,1.384Z" transform="translate(-188.231 -208.031)" fill="#455a64"/>
      <path id="Path_5909" data-name="Path 5909" d="M289.74,419.462a6.733,6.733,0,0,1-1.168-1.235c-.684-.8-1.592-1.927-2.537-3.221s-1.763-2.492-2.321-3.378a7.611,7.611,0,0,1-.833-1.488,7.812,7.812,0,0,1,1.056,1.332l2.41,3.3c.9,1.22,1.726,2.321,2.44,3.281a7.8,7.8,0,0,1,.952,1.406Z" transform="translate(-193.912 -205.362)" fill="#455a64"/>
      <path id="Path_5910" data-name="Path 5910" d="M298.083,335.58c0,.06-.744.223-1.912.61a20.088,20.088,0,0,0-8.08,5.044,20.018,20.018,0,0,1-1.391,1.451,6.932,6.932,0,0,1,1.19-1.637,16.986,16.986,0,0,1,3.72-3.147,16.784,16.784,0,0,1,4.464-1.972,6.761,6.761,0,0,1,2.009-.35Z" transform="translate(-194.89 -186.273)" fill="#455a64"/>
      <path id="Path_5911" data-name="Path 5911" d="M274.3,369.324a1.769,1.769,0,0,1,.082-.439l.312-1.228,1.205-4.5,4.129-14.813c.841-2.894,1.555-5.647,2.366-8.147a17.014,17.014,0,0,1,3.8-5.8,21.783,21.783,0,0,1,3.6-2.976c.469-.3.833-.521,1.094-.655a2.368,2.368,0,0,1,.394-.2s-.506.342-1.4.975a24.166,24.166,0,0,0-3.5,3.043,17.014,17.014,0,0,0-3.66,5.729c-.744,2.463-1.488,5.253-2.329,8.132l-4.233,14.775c-.551,1.853-1,3.363-1.332,4.464-.156.491-.275.893-.379,1.205a1.7,1.7,0,0,1-.156.432Z" transform="translate(-191.715 -184.99)" fill="#455a64"/>
      <path id="Path_5912" data-name="Path 5912" d="M248.792,325.825c-.112,0-.551-3.913-.989-8.764a82.834,82.834,0,0,1-.6-8.8,85.157,85.157,0,0,1,.982,8.764C248.628,321.875,248.9,325.818,248.792,325.825Z" transform="translate(-184.769 -179.278)" fill="#455a64"/>
      <path id="Path_5913" data-name="Path 5913" d="M199.062,343.4c-.06,0-.379-.6-1.042-1.533a15.4,15.4,0,0,0-3.043-3.207,15.625,15.625,0,0,0-3.846-2.18c-1.064-.417-1.756-.573-1.741-.64a5.953,5.953,0,0,1,1.83.379,13.206,13.206,0,0,1,7.031,5.491A5.729,5.729,0,0,1,199.062,343.4Z" transform="translate(-169.977 -186.339)" fill="#455a64"/>
      <path id="Path_5914" data-name="Path 5914" d="M213.446,325.543c0,.06-.923-.506-2.463-1.213a23.242,23.242,0,0,0-12.916-1.845c-1.674.238-2.693.536-2.708.469a2.568,2.568,0,0,1,.692-.268,16.1,16.1,0,0,1,1.972-.476,21.218,21.218,0,0,1,13.064,1.875,15.756,15.756,0,0,1,1.756,1.012,2.7,2.7,0,0,1,.6.446Z" transform="translate(-171.505 -182.768)" fill="#455a64"/>
      <path id="Path_5915" data-name="Path 5915" d="M269.675,336.691a2.287,2.287,0,0,1-.528-.089l-1.488-.32-5.431-1.2c-4.59-1.027-10.944-2.41-17.989-3.8s-13.444-2.544-18.079-3.34l-5.5-.945-1.488-.26a2.127,2.127,0,0,1-.513-.126,4.7,4.7,0,0,1,.528.045l1.488.193c1.3.179,3.184.461,5.513.826,4.65.744,11.063,1.83,18.116,3.229s13.392,2.82,17.975,3.913c2.284.551,4.137,1.012,5.409,1.347l1.488.387a2.869,2.869,0,0,1,.5.141Z" transform="translate(-177.47 -183.976)" fill="#455a64"/>
      <path id="Path_5916" data-name="Path 5916" d="M226.4,324.92a20.63,20.63,0,0,0-.923-2.128,9.174,9.174,0,0,0-1.488-1.972,24.2,24.2,0,0,0-2.336-2.024,35.353,35.353,0,0,0-4.784-2.976,15.937,15.937,0,0,1-2.038-1.161,12.565,12.565,0,0,1,2.165.915,27.96,27.96,0,0,1,4.9,2.909,21.913,21.913,0,0,1,2.351,2.076,8.623,8.623,0,0,1,1.488,2.091,7.105,7.105,0,0,1,.6,1.637A1.726,1.726,0,0,1,226.4,324.92Z" transform="translate(-176.49 -180.917)" fill="#455a64"/>
      <path id="Path_5917" data-name="Path 5917" d="M329.179,342c.082.089-1.034,1.213-1.9,2.931s-1.153,3.266-1.265,3.244a6.756,6.756,0,0,1,.923-3.422A6.837,6.837,0,0,1,329.179,342Z" transform="translate(-204.954 -187.916)" fill="#263238"/>
      <g id="Group_8810" data-name="Group 8810" transform="translate(76.469 77.855)" opacity="0.3">
        <path id="Path_5918" data-name="Path 5918" d="M266.08,239.54l4.776,33.643.238.536a72.166,72.166,0,0,0-5.014-34.179Z" transform="translate(-266.08 -239.54)"/>
      </g>
      <path id="Path_5919" data-name="Path 5919" d="M282.107,265.218l-15.527,27.14-38.263.833-.1,1.733,37.05-.275,1.176-.045,39.119.082,7.909-13.637,10.1-14.478a1.428,1.428,0,0,0-1.183-2.232l-39.052.149A1.429,1.429,0,0,0,282.107,265.218Z" transform="translate(-179.918 -168.034)" fill="#e0e0e0"/>
      <path id="Path_5920" data-name="Path 5920" d="M338.44,286.83s2.009,1.845,1.7,3.407-.216,2.73-1.7,2.835a2.232,2.232,0,0,1-2.009,2.329,2.482,2.482,0,0,1-2.4,2.879s-.878,2.626-2.678,1.986a15.572,15.572,0,0,1-2.976-1.376l-.528-.952s-2.656-1-2-2.492c.4-.908,1.771-1.146,1.771-1.146a2.552,2.552,0,0,1,.171-2.321c.632-.856,2.7-.149,2.7-.149a2.931,2.931,0,0,1,.655-2.024c.744-.841,4,1.428,4,1.428l1.793-2.143Z" transform="translate(-204.885 -173.792)" fill="#ffbe9d"/>
      <path id="Path_5921" data-name="Path 5921" d="M334.678,300.85a18.6,18.6,0,0,1-3.3-1.823,18.1,18.1,0,0,1-3.095-2.158,18.977,18.977,0,0,1,3.3,1.83,18.719,18.719,0,0,1,3.1,2.15Z" transform="translate(-205.535 -176.362)" fill="#eb996e"/>
      <path id="Path_5922" data-name="Path 5922" d="M338.07,297.121A15.5,15.5,0,0,1,335,295.5a15.735,15.735,0,0,1-2.864-1.949,15.027,15.027,0,0,1,3.065,1.622A15.732,15.732,0,0,1,338.07,297.121Z" transform="translate(-206.523 -175.512)" fill="#eb996e"/>
      <path id="Path_5923" data-name="Path 5923" d="M335.71,291.106a10.236,10.236,0,0,1,2.716,1.443,24.319,24.319,0,0,1,2.552,1.7,8.247,8.247,0,0,1-2.76-1.369,14.575,14.575,0,0,1-2.507-1.771Z" transform="translate(-207.437 -174.883)" fill="#eb996e"/>
      <path id="Path_5924" data-name="Path 5924" d="M337.317,265.648a.588.588,0,0,1-.186,0h-2.663l-7.767.06-25.63.06H299.2a1.54,1.54,0,0,0-1.421.67q-.893,1.592-1.741,3.14l-3.3,5.952-5.6,10.066c-1.592,2.842-2.894,5.148-3.809,6.778-.439.744-.8,1.384-1.049,1.83l-.283.469-.1.156a.392.392,0,0,1,.067-.179l.253-.491.989-1.86,3.72-6.837,5.535-10.111c1.042-1.9,2.143-3.891,3.274-5.952l1.748-3.162a1.934,1.934,0,0,1,1.748-.848h1.867l25.63.052,7.767.067,2.113.037h.551A.587.587,0,0,1,337.317,265.648Z" transform="translate(-193.658 -168.301)" fill="#263238"/>
      <path id="Path_5925" data-name="Path 5925" d="M319.289,283.862a1.652,1.652,0,1,0,2.463-.29,1.763,1.763,0,0,0-2.463.29Z" transform="translate(-203.158 -172.862)" fill="#fff"/>
      <g id="Group_8811" data-name="Group 8811" transform="translate(6.803 99.585)" opacity="0.3">
        <path id="Path_5926" data-name="Path 5926" d="M173.147,269.679c-.327.134-.707.357-.707.744a.64.64,0,0,0,.543.58,6.913,6.913,0,0,0,1.592-.424c4.025-.885,7.336-.037,11.16,1.488l.126-.126C184.344,268.645,177.477,267.916,173.147,269.679Z" transform="translate(-172.44 -268.747)"/>
      </g>
    </g>
    <g id="freepik--Floor--inject-2" transform="translate(47.97 357.987)">
      <path id="Path_5927" data-name="Path 5927" d="M348.569,472.933c0,.1-67.293.193-150.284.193S48,473.008,48,472.933s67.278-.193,150.284-.193S348.569,472.792,348.569,472.933Z" transform="translate(-48 -472.74)" fill="#263238"/>
    </g>
    <g id="freepik--Ribbon--inject-2" transform="translate(113.79 61.852)">
      <path id="Path_5928" data-name="Path 5928" d="M143.129,143.831c.126.126,24.834-8.362,24.834-8.362l-9.523-21.8L136.47,122.1l12.1,6.949Z" transform="translate(-136.47 -84.676)" fill="#455a64"/>
      <path id="Path_5929" data-name="Path 5929" d="M161,110.254V80.577s34.082-6.235,58.641-5.863a404.474,404.474,0,0,1,49.847,4.4v28.494S192.515,100.732,161,110.254Z" transform="translate(-142.75 -74.698)" fill="#455a64"/>
      <path id="Path_5930" data-name="Path 5930" d="M160.76,121.608l13.392,15.333V118.93S162.955,120.269,160.76,121.608Z" transform="translate(-142.689 -86.023)" fill="#263238"/>
      <path id="Path_5931" data-name="Path 5931" d="M160.9,82.59c.112,0,.156,6.7.112,14.88s-.179,14.88-.283,14.88-.156-6.651-.112-14.88S160.786,82.59,160.9,82.59Z" transform="translate(-142.647 -76.719)" fill="#263238"/>
      <path id="Path_5932" data-name="Path 5932" d="M313.774,140.768c-.126.126-24.834-8.362-24.834-8.362l9.5-21.806,21.992,8.414-12.1,6.949Z" transform="translate(-175.505 -83.89)" fill="#455a64"/>
      <path id="Path_5933" data-name="Path 5933" d="M302.392,119,289,134.33V117.62A98.767,98.767,0,0,1,302.392,119Z" transform="translate(-175.521 -85.687)" fill="#263238"/>
      <path id="Path_5934" data-name="Path 5934" d="M306.752,80.63c.1,0,.223,6.465.26,14.448s0,14.448-.126,14.448-.223-6.465-.26-14.448S306.641,80.63,306.752,80.63Z" transform="translate(-180.03 -76.217)" fill="#263238"/>
      <path id="Path_5935" data-name="Path 5935" d="M186.822,98.467a4.36,4.36,0,0,1,7.12-3.72L192.9,96a2.574,2.574,0,0,0-2.1-.647,2.539,2.539,0,1,0,2.544,3.824l1.309.915a4.352,4.352,0,0,1-7.856-1.622Z" transform="translate(-149.355 -79.576)" fill="#fff"/>
      <path id="Path_5936" data-name="Path 5936" d="M197.721,96.857a4.345,4.345,0,1,1,4.732,3.631,4.107,4.107,0,0,1-4.732-3.631Zm6.778-.7a2.477,2.477,0,1,0-2.232,2.775,2.418,2.418,0,0,0,2.232-2.775Z" transform="translate(-152.137 -79.082)" fill="#fff"/>
      <path id="Path_5937" data-name="Path 5937" d="M218.67,99.163l-.32-4.747-2.076,4.062-.818.052-2.567-3.66.305,4.642-1.719.112L211,91.715l1.488-.1,3.274,4.724,2.6-5.1,1.488-.1.536,7.9Z" transform="translate(-155.551 -78.91)" fill="#fff"/>
      <path id="Path_5938" data-name="Path 5938" d="M232.686,93.675c.045,1.771-1.25,2.9-3.363,2.976l-1.6.045.067,2.187-1.838.052-.223-7.968,3.43-.1C231.28,90.84,232.627,91.9,232.686,93.675Zm-1.86.052c0-.87-.6-1.361-1.726-1.332l-1.488.045.082,2.753,1.488-.045C230.3,95.118,230.849,94.59,230.826,93.727Z" transform="translate(-159.322 -78.838)" fill="#fff"/>
      <path id="Path_5939" data-name="Path 5939" d="M237,90.77h1.83V97.2H242.8v1.488H237Z" transform="translate(-162.208 -78.813)" fill="#fff"/>
      <path id="Path_5940" data-name="Path 5940" d="M252.238,97.444v1.488l-6.138-.179.231-7.923,5.952.179-.045,1.488-4.166-.126-.045,1.726,3.675.1-.045,1.428-3.675-.112-.052,1.838Z" transform="translate(-164.537 -78.828)" fill="#fff"/>
      <path id="Path_5941" data-name="Path 5941" d="M258.04,92.737l-2.53-.149L255.6,91.1l6.889.417L262.4,93l-2.53-.156-.387,6.421-1.83-.112Z" transform="translate(-166.946 -78.898)" fill="#fff"/>
      <path id="Path_5942" data-name="Path 5942" d="M271.709,98.784l-.134,1.488-6.116-.565.744-7.886,5.952.551-.134,1.488-4.151-.417-.156,1.719,3.66.335-.126,1.421-3.668-.335-.164,1.823Z" transform="translate(-169.494 -79.082)" fill="#fff"/>
      <path id="Path_5943" data-name="Path 5943" d="M276.579,92.79l3.564.476c2.567.342,4.122,2.12,3.809,4.464s-2.291,3.72-4.858,3.348l-3.564-.476Zm2.626,6.822a2.455,2.455,0,1,0,.647-4.866l-1.659-.223-.647,4.866Z" transform="translate(-172.072 -79.33)" fill="#fff"/>
    </g>
    <g id="freepik--Confetti--inject-2" transform="translate(118.663 55.239)">
      <path id="Path_5944" data-name="Path 5944" d="M327.29,83.433l1.949,2.284,5.491-2.284-1.607-2.4Z" transform="translate(-190.197 -69.707)" fill="#455a64"/>
      <path id="Path_5945" data-name="Path 5945" d="M321.944,68.667a2.857,2.857,0,1,1-2.857-2.857A2.857,2.857,0,0,1,321.944,68.667Z" transform="translate(-187.365 -65.81)" fill="#ff725e"/>
      <path id="Path_5946" data-name="Path 5946" d="M236.907,126.436A1.428,1.428,0,1,1,235.5,125a1.428,1.428,0,0,1,1.406,1.436Z" transform="translate(-166.325 -80.964)" fill="#ff725e"/>
      <path id="Path_5947" data-name="Path 5947" d="M147.692,97.7a1.086,1.086,0,1,1-1.071-1.086A1.086,1.086,0,0,1,147.692,97.7Z" transform="translate(-143.66 -73.695)" fill="#ff725e"/>
      <path id="Path_5948" data-name="Path 5948" d="M143.02,79.9l3.2.193,1.518-6.294-2.991.126Z" transform="translate(-143.02 -67.856)" fill="#455a64"/>
      <path id="Path_5949" data-name="Path 5949" d="M277.42,149.271l1.079,3.021,6.383-1.071-1.287-2.7Z" transform="translate(-177.429 -86.985)" fill="#ff725e"/>
      <path id="Path_5950" data-name="Path 5950" d="M189.962,126.1l-1.972,2.53,4.323,4.814,1.592-2.537Z" transform="translate(-154.533 -81.245)" fill="#455a64"/>
    </g>
    <g id="freepik--Stars--inject-2" transform="translate(135.261 24.52)">
      <path id="Path_5951" data-name="Path 5951" d="M176.519,46.23l7.551,7.7L194.7,49.913l.424,2.641-4.605,9.426,4.248,7.038-.357,2.105L184.123,69.39l-6.086,6.674-1.428-1.079L175.351,66.5l-9.6-5-.424-1.942,9.664-2.641Z" transform="translate(-165.33 -30.078)" fill="#ff725e"/>
      <g id="Group_8812" data-name="Group 8812" transform="translate(0 16.152)" opacity="0.3">
        <path id="Path_5952" data-name="Path 5952" d="M176.519,46.23l7.551,7.7L194.7,49.913l.424,2.641-4.605,9.426,4.248,7.038-.357,2.105L184.123,69.39l-6.086,6.674-1.428-1.079L175.351,66.5l-9.6-5-.424-1.942,9.664-2.641Z" transform="translate(-165.33 -46.23)"/>
      </g>
      <path id="Path_5953" data-name="Path 5953" d="M176.519,43.32l7.551,7.708,10.632-1.86-4.992,9.568,5.059,9.538-10.646-1.786-7.514,7.752-1.585-10.676L165.33,58.81,174.994,54Z" transform="translate(-165.33 -29.333)" fill="#ff725e"/>
      <path id="Path_5954" data-name="Path 5954" d="M279.214,46.23l-7.559,7.7-10.632-4.018-.424,2.641,4.605,9.426-4.248,7.038.357,2.105L271.6,69.39l6.086,6.674,1.428-1.079,1.257-8.489,9.6-5,.424-1.942-9.664-2.641Z" transform="translate(-189.721 -30.078)" fill="#ff725e"/>
      <g id="Group_8813" data-name="Group 8813" transform="translate(70.879 16.152)" opacity="0.3">
        <path id="Path_5955" data-name="Path 5955" d="M279.214,46.23l-7.559,7.7-10.632-4.018-.424,2.641,4.605,9.426-4.248,7.038.357,2.105L271.6,69.39l6.086,6.674,1.428-1.079,1.257-8.489,9.6-5,.424-1.942-9.664-2.641Z" transform="translate(-260.6 -46.23)"/>
      </g>
      <path id="Path_5956" data-name="Path 5956" d="M279.337,43.32l-7.559,7.708-10.631-1.86,4.992,9.568-5.059,9.538,10.646-1.786,7.514,7.752,1.585-10.676,9.694-4.754L280.855,54Z" transform="translate(-189.844 -29.333)" fill="#ff725e"/>
      <path id="Path_5957" data-name="Path 5957" d="M226.139,28.06l6.287,12.283,14.5-.856-.491,3.378-9.21,9.754,2.492,10.2-1.228,2.433-11.9-6.034-9.962,5.833L215.3,63.183l1.7-10.84L207.19,42.59l.223-2.522,12.8.454Z" transform="translate(-176.047 -25.426)" fill="#ff725e"/>
      <g id="Group_8814" data-name="Group 8814" transform="translate(31.143 2.634)" opacity="0.3">
        <path id="Path_5958" data-name="Path 5958" d="M226.139,28.06l6.287,12.283,14.5-.856-.491,3.378-9.21,9.754,2.492,10.2-1.228,2.433-11.9-6.034-9.962,5.833L215.3,63.183l1.7-10.84L207.19,42.59l.223-2.522,12.8.454Z" transform="translate(-207.19 -28.06)"/>
      </g>
      <path id="Path_5959" data-name="Path 5959" d="M227.034,24.52,233.321,36.8,247,38.581l-9.739,9.776,2.53,13.555-12.3-6.235-12.119,6.6,2.135-13.63L207.49,39.162l13.622-2.187Z" transform="translate(-176.124 -24.52)" fill="#ff725e"/>
    </g>
    <g id="freepik--speech-bubble--inject-2" transform="translate(211.222 125.28)">
      <path id="Path_5960" data-name="Path 5960" d="M267.43,169.444l10.505,1.161a24.626,24.626,0,1,1-3.72,8.013h0Z" transform="translate(-267.43 -160.012)" fill="#fafafa"/>
      <path id="Path_5961" data-name="Path 5961" d="M267.43,169.385c.409.551,2.537,3.363,6.882,9.129h-.156a.089.089,0,0,1,.134-.037.1.1,0,0,1,.045.1,24.455,24.455,0,0,0,.164,12.7,21.45,21.45,0,0,0,1.361,3.616c.3.6.58,1.205.9,1.808l1.109,1.763a24.618,24.618,0,0,0,14.984,10.066,24.328,24.328,0,0,0,10.237.045,24.8,24.8,0,0,0,9.8-4.538,23.867,23.867,0,0,0,7.105-8.727,24.328,24.328,0,0,0,2.44-11.219,24.8,24.8,0,0,0-2.753-10.654,23.972,23.972,0,0,0-6.651-8.02,24.693,24.693,0,0,0-17.6-5.029,26.7,26.7,0,0,0-7.7,2.128,24.551,24.551,0,0,0-9.724,8.08.074.074,0,0,1-.082.037l-10.5-1.25,10.52,1.064-.089.045a24.425,24.425,0,0,1,9.761-8.184,26.389,26.389,0,0,1,7.76-2.217,24.961,24.961,0,0,1,17.856,5.044A24.2,24.2,0,0,1,320,173.268a24.99,24.99,0,0,1,2.8,10.817,24.708,24.708,0,0,1-2.47,11.4,24.268,24.268,0,0,1-7.224,8.861,25.2,25.2,0,0,1-9.954,4.6,24.552,24.552,0,0,1-10.416-.067,24.819,24.819,0,0,1-15.125-10.2L276.5,196.89c-.32-.61-.6-1.235-.908-1.838a21.84,21.84,0,0,1-1.354-3.66,24.5,24.5,0,0,1-.089-12.819l.179.067h0a.1.1,0,0,1-.134.037h0Z" transform="translate(-267.43 -159.953)" fill="#263238"/>
      <path id="Path_5962" data-name="Path 5962" d="M296.305,181.422a2.3,2.3,0,0,1,0,.342v.952c0,.863,0,2.061.045,3.579,0,3.088.052,7.44.089,12.648l-.171-.171h17.506c.045-.045-.365.365-.193.186h0V181.452l.164.171-12.648-.089-3.579-.037h-.067l3.534-.045,12.744-.082h.171v17.58h0c.179-.171-.231.246-.193.2H296.03v-.2c0-5.253.06-9.635.082-12.744,0-1.488,0-2.693.045-3.541v-.923A1.319,1.319,0,0,1,296.305,181.422Z" transform="translate(-274.752 -165.436)" fill="#263238"/>
      <path id="Path_5963" data-name="Path 5963" d="M313.157,185.327c.253.2-2.1,3.593-5.26,7.581-.625.8-1.242,1.555-1.815,2.232l-.372.454-.417-.379c-2.738-2.463-4.59-4.352-4.427-4.546s2.314,1.369,5.148,3.72l-.8.074c.543-.744,1.138-1.488,1.771-2.277C310.144,188.2,312.912,185.134,313.157,185.327Z" transform="translate(-275.988 -166.447)" fill="#ff725e"/>
    </g>
  </g>
</svg>
