<svg xmlns="http://www.w3.org/2000/svg" width="494.508" height="263.001" viewBox="0 0 494.508 263.001">
  <g id="Group_8868" data-name="Group 8868" transform="translate(-226.971 -352.534)">
    <g id="Group_8867" data-name="Group 8867" transform="translate(226.97 352.534)">
      <path id="Path_5965" data-name="Path 5965" d="M371.492,614.817s-67.59-71.831-20.2-138.836c17.685-25,62.835-39.043,104.338-27.653,24.515,6.728,61.694,5.735,98.022-53.567,49.541-80.873,255.2-44.1,215.053,97.594-16.909,59.685,46.115,62.4,14.9,122.59Z" transform="translate(-314.345 -352.534)" fill="#ebf3fa"/>
      <g id="Group_8844" data-name="Group 8844" transform="translate(30.653 59.838)">
        <g id="Group_8843" data-name="Group 8843" transform="translate(0 25.16)">
          <path id="Path_5966" data-name="Path 5966" d="M783.332,840.527,636.108,963.694l-77.461-65.988c-14.5,12.767-36.889,32.473-59.414,52.247-15.394,13.514-27.857,24.434-37.958,33.271l-70.356-.081c19.51-16.611,98.067-85.643,150.99-132.3l16.182-14.264,78.3,66.707,114.933-96.153Z" transform="translate(-390.918 -807.137)" fill="#d5e5fb"/>
        </g>
        <path id="Path_5967" data-name="Path 5967" d="M2218.861,682.584l70.118,70.332,19.807-80.344Z" transform="translate(-1877.09 -672.572)" fill="#d5e5fb"/>
      </g>
      <g id="Group_8858" data-name="Group 8858" transform="translate(115.187 161.529)">
        <g id="Group_8852" data-name="Group 8852" transform="translate(12.934)">
          <g id="Group_8850" data-name="Group 8850">
            <path id="Path_5968" data-name="Path 5968" d="M926.663,1394.822a130.049,130.049,0,0,0-1.5-15.949c-1.077-6.228-2.047-9.81-2.058-9.849-.142-.548-2.191-2.764-6.748-2.7s-4.124,2.975-4.124,2.975h0a.933.933,0,0,0,.032.258,139.494,139.494,0,0,1,4.046,34.9c0,.275-.033.75-.014,1.067,0,0,10.56.273,10.562,0C927.226,1403.816,927.046,1399.073,926.663,1394.822Z" transform="translate(-912.22 -1338.307)" fill="#b7d3f3"/>
            <path id="Path_5969" data-name="Path 5969" d="M933.115,1404.364c0,.273-.147.491-.323.491h0c-.176,0-.315-.223-.317-.491h-9.05c0,.273-.147.491-.323.491h0c-.179,0-.321-.23-.319-.506a136.66,136.66,0,0,0-.751-15.46,121.465,121.465,0,0,0-3.459-19.327.958.958,0,0,1-.033-.258s-.432-2.906,4.124-2.975,6.607,2.148,6.749,2.7c.008.029.557,2.058,1.287,5.7.242,1.208.5,2.594.771,4.143a130.186,130.186,0,0,1,1.5,15.949C933.348,1399.073,933.483,1402.653,933.115,1404.364Z" transform="translate(-917.344 -1338.307)" fill="#d2e3fc"/>
            <path id="Path_5970" data-name="Path 5970" d="M937.686,1559.8h35.479s-.826-3.344-21.373-2.846C937.251,1557.3,937.686,1559.8,937.686,1559.8Z" transform="translate(-932.923 -1493.248)" fill="#c5dcf8"/>
            <g id="Group_8845" data-name="Group 8845" transform="translate(1.875 67.066)">
              <path id="Path_5971" data-name="Path 5971" d="M922.247,1609.565c4.114-20.825,3.056-33.6,3.051-33.765-.01-.32.581-.612.9-.622s1.742-.095,1.906.18c.215.359,1.044,16.1-5.087,34.207Z" transform="translate(-922.247 -1575.16)" fill="#b7d3f3"/>
            </g>
            <g id="Group_8846" data-name="Group 8846" transform="translate(28.986 67.066)">
              <path id="Path_5972" data-name="Path 5972" d="M1073.267,1609.565c-4.114-20.825-3.056-33.6-3.051-33.765.01-.32-.581-.612-.9-.622s-1.742-.095-1.906.18c-.215.359-1.044,16.1,5.087,34.207Z" transform="translate(-1067.253 -1575.16)" fill="#b7d3f3"/>
            </g>
            <g id="Group_8847" data-name="Group 8847" transform="translate(35.551 67.066)">
              <path id="Path_5973" data-name="Path 5973" d="M1108.379,1609.565c-4.114-20.825-3.056-33.6-3.051-33.765.01-.32-.581-.612-.9-.622s-1.742-.095-1.906.18c-.215.359-1.044,16.1,5.087,34.207Z" transform="translate(-1102.365 -1575.16)" fill="#b7d3f3"/>
            </g>
            <g id="Group_8848" data-name="Group 8848" transform="translate(8.484 67.066)">
              <path id="Path_5974" data-name="Path 5974" d="M957.595,1609.565c4.114-20.825,3.056-33.6,3.051-33.765-.01-.32.581-.612.9-.622s1.742-.095,1.906.18c.215.359,1.044,16.1-5.087,34.207Z" transform="translate(-957.595 -1575.16)" fill="#b7d3f3"/>
            </g>
            <path id="Rectangle_3454" data-name="Rectangle 3454" d="M.965,0h35a.966.966,0,0,1,.966.966v0a.966.966,0,0,1-.966.966h-35A.966.966,0,0,1,0,.966v0A.965.965,0,0,1,.965,0Z" transform="translate(4.057 65.684)" fill="#b7d3f3"/>
            <g id="Group_8849" data-name="Group 8849" transform="translate(6.916)">
              <path id="Path_5975" data-name="Path 5975" d="M1112.032,1395.62l11.794-2.554.695,1.693s-13.013,7.743-14.232,7.364S1112.032,1395.62,1112.032,1395.62Z" transform="translate(-1079.932 -1360.046)" fill="#ffb27d"/>
              <path id="Path_5976" data-name="Path 5976" d="M1062.376,1651.12a1.048,1.048,0,0,0-.187,1.121.01.01,0,0,0,0,.006,6.968,6.968,0,0,0,2.2,2.414c.133.107.25.2.353.294.027.023.054.047.079.071l.061.055c.967.892.6,1.1,2.341,2.906,1.982,2.062,3.346,2.1,3.734,1.911.329-.16-.339-1.254-1.078-2.483-.036-.059-.071-.119-.108-.179-.1-.163-.2-.329-.294-.493-.866-1.479-.644-2.174-.439-4.375.167-1.789,2.783-9.995,2.783-9.995l-3.8-.654s-1.144,6.534-2.4,7.541c-.674.536-1.428.543-2.076.941q-.069.041-.135.085A4.988,4.988,0,0,0,1062.376,1651.12Z" transform="translate(-1040.998 -1562.208)" fill="#ffb27d"/>
              <path id="Path_5977" data-name="Path 5977" d="M1062.376,1688a1.048,1.048,0,0,0-.187,1.121.01.01,0,0,0,0,.006,8.07,8.07,0,0,0,2.2,2.407c.131.109.247.208.35.3.027.024.054.047.079.071l.061.055c.967.892.6,1.1,2.341,2.906,1.982,2.062,3.346,2.1,3.734,1.911.329-.16-.339-1.254-1.078-2.483a8.444,8.444,0,0,1-3.533-2.6c-1.193-1.523-1.989-3.479-2.8-4.613-.046.028-.091.056-.135.085A4.992,4.992,0,0,0,1062.376,1688Z" transform="translate(-1040.998 -1599.089)" fill="#1c468a"/>
              <path id="Path_5978" data-name="Path 5978" d="M1214.13,1643.723c.235,1.172,1.906.977,3.772.52s1.423.086,4.08-.208,3.462-1.285,3.543-1.68c.073-.351-1.24-.474-2.649-.636-.177-.02-.355-.042-.533-.064-1.59-.2-2.754-1.225-4.2-2.068-1.368-.8-3.409-4.05-3.409-4.05l-3.644.289s1.912,2.9,2.652,4.167a4.4,4.4,0,0,1,.358,2.483A4.688,4.688,0,0,0,1214.13,1643.723Z" transform="translate(-1162.128 -1557.183)" fill="#ffb27d"/>
              <path id="Path_5979" data-name="Path 5979" d="M1230.868,1671.123c1.867-.456,1.423.086,4.08-.208s3.462-1.285,3.543-1.68c.073-.351-1.24-.474-2.649-.636l-.013.027a7.491,7.491,0,0,1-3.805,1.183c-1.8.044-3.712-.473-4.957-.453a4.688,4.688,0,0,0,.028,1.247C1227.331,1671.775,1229,1671.579,1230.868,1671.123Z" transform="translate(-1175.095 -1584.063)" fill="#1c468a"/>
              <path id="Path_5980" data-name="Path 5980" d="M1183.973,1382.091s.868-2.127,1.823-2.214,3.994-.564,4.211-.13a3,3,0,0,1-.651,2.561c-.651.564-4.688,1.476-4.688,1.476Z" transform="translate(-1140.08 -1349.071)" fill="#ffb27d"/>
              <path id="Path_5981" data-name="Path 5981" d="M1098.292,1529.3l-7.853,21.135a7.189,7.189,0,0,1-2.363-.217,10.173,10.173,0,0,1-2.284-1.112s1.948-20.293,5.52-24.514S1098.292,1529.3,1098.292,1529.3Z" transform="translate(-1060.256 -1466.056)" fill="#163560"/>
              <path id="Path_5982" data-name="Path 5982" d="M967.618,1481.86s22.566-7.63,27.6-6.007,20.143,31.687,20.143,31.687a2.92,2.92,0,0,1-1.272.8,12.012,12.012,0,0,1-2.962.3s-13.637-11.689-15.26-15.1-2.273-6.656-3.9-6.332-20.943,7.955-25.326,3.409a12.652,12.652,0,0,1-3.237-10.452Z" transform="translate(-960.643 -1427.171)" fill="#1c468a"/>
              <path id="Path_5983" data-name="Path 5983" d="M973.874,1217.348a5.474,5.474,0,0,0-2.962-.567,1.384,1.384,0,0,1,.625-.3,4.587,4.587,0,0,0-1.639.427c-7.053-2.718-8.161,7.667-8.013,10.079s.165,5.189-3.356,7.353c-6.927,4.257-1.082,11.689-1.082,11.689.054.032,3.223,5.406,3.223,5.406-.178-1.95,8.817-12.238,13.51-15.319a13.567,13.567,0,0,0,1.579-4.887,12.823,12.823,0,0,1-.961,4.422C978.773,1232,976.459,1218.817,973.874,1217.348Z" transform="translate(-954.034 -1216.462)" fill="#b5453c"/>
              <path id="Path_5984" data-name="Path 5984" d="M1026.586,1292.211a6.5,6.5,0,0,1-3.988.728,5.176,5.176,0,0,1-2.656-2.547c.686-.136.884-1.079.869-5.13l.31.061,5.214,1.033s-.119,1.641-.122,3.187C1026.21,1290.842,1026.289,1292.073,1026.586,1292.211Z" transform="translate(-1006.718 -1272.399)" fill="#ffb27d"/>
              <path id="Path_5985" data-name="Path 5985" d="M1031.466,1286.622s-.119,1.641-.122,3.187c-2.918-.082-4.46-2.744-5.092-4.22Z" transform="translate(-1011.848 -1272.664)" fill="#ed975d"/>
              <path id="Path_5986" data-name="Path 5986" d="M1014.932,1235.964a15.332,15.332,0,0,1-1.9-4.482c-.262-1.475.489-6.942,5.983-6.155a7.462,7.462,0,0,1,3.1,1.17c1.193.806,2.914,2.545.989,7.316l-.5,1.612Z" transform="translate(-1001.066 -1223.607)" fill="#b5453c"/>
              <path id="Path_5987" data-name="Path 5987" d="M1028.974,1248.285s-6.9.114-6.908-4.187-.9-7.182,3.509-7.437,5.266,1.385,5.616,2.821S1030.77,1248.145,1028.974,1248.285Z" transform="translate(-1008.381 -1232.864)" fill="#ffb27d"/>
              <path id="Path_5988" data-name="Path 5988" d="M1019.066,1232.413s-1.89,5.045-4.791,5.791-4.159-.031-4.159-.031a8.215,8.215,0,0,0,2.687-4.853S1017.641,1230.012,1019.066,1232.413Z" transform="translate(-998.729 -1228.72)" fill="#b5453c"/>
              <path id="Path_5989" data-name="Path 5989" d="M1055.48,1234.827a6.1,6.1,0,0,1,1.756,2.221c.344,1.1.5,3.349,1.156,3.273,0,0,1.424-3.429-.176-5.369C1056.519,1232.9,1055.48,1234.827,1055.48,1234.827Z" transform="translate(-1035.611 -1230.725)" fill="#b5453c"/>
              <path id="Path_5990" data-name="Path 5990" d="M960.37,1333.078c-.681-2.855,1.635-8.4,4.053-12.983,2.194-4.157,4.471-7.53,4.676-7.409,5.786,3.434,6.309.579,6.309.579h0s5.256.7,6.744,3.259c1.846,3.179,3.84,12.061,5.821,13.742a3.73,3.73,0,0,0,.149,2.58q.1.371.229.7a13.568,13.568,0,0,0,.995,2.042c-1.007.612-2.952,1.775-4.384.939-2.184-1.278-3.888-5.17-4.847-6.72l-.011-.017c-2.085,11.8.75,14.487-.685,15.732-1.515,1.314-3.68-.626-8.442,1.438-3.124,1.355-7.458,3.314-10.377,3.655-1.531.18-2.672-.087-3.045-1.12C956.473,1346.5,961.669,1338.521,960.37,1333.078Z" transform="translate(-955.874 -1294.693)" fill="#1c468a"/>
              <path id="Path_5991" data-name="Path 5991" d="M1051.144,1283.48s.129.546,1.488.462c0,0,1.141-.071,1.106-.671A3.673,3.673,0,0,0,1051.144,1283.48Z" transform="translate(-1032.086 -1270.666)" fill="#fff"/>
              <path id="Path_5992" data-name="Path 5992" d="M957.556,1404.881c.372,1.034,1.514,1.3,3.045,1.12,2.02-.88,10.744-4.26,10.647-6.55-.145-3.391-1.678-3.5-.6-7.685.869-3.361-7.193-9.61-8.478-10.968-2.418,4.587-2.485,4.8-1.8,7.659C961.669,1393.9,956.473,1401.877,957.556,1404.881Z" transform="translate(-955.874 -1350.072)" fill="#163560"/>
              <path id="Path_5993" data-name="Path 5993" d="M949.908,1337.282a12.792,12.792,0,0,1,4.219-3.9c-.244-.629,6.508-8.907,6.508-10.19,0-1.3,1.8-10.5,1.8-10.5s-5.626.347-7.574,3.064C952.426,1319.158,947.367,1332.234,949.908,1337.282Z" transform="translate(-949.212 -1294.704)" fill="#1c468a"/>
              <path id="Path_5994" data-name="Path 5994" d="M956.835,1423.334l11.243,2.934-1.055,1.894s-13.683-.1-14.407-.928S956.835,1423.334,956.835,1423.334Z" transform="translate(-951.92 -1384.655)" fill="#ffb27d"/>
              <path id="Path_5995" data-name="Path 5995" d="M1078.862,1404.305c.959,1.55,2.663,5.441,4.847,6.719,1.433.837,3.377-.327,4.384-.939a13.568,13.568,0,0,1-.995-2.042c-.8.184-1.785.419-2.417.61C1083.452,1409.025,1078.862,1404.305,1078.862,1404.305Z" transform="translate(-1054.621 -1369.184)" fill="#163560"/>
              <path id="Path_5996" data-name="Path 5996" d="M1031.043,1435.542s3.531-1,4.372-.766,3.722,2.141,3.317,2.66-2.943-.31-4.111-.153-2.072.733-2.912.609a9.766,9.766,0,0,1-1.72-.455Z" transform="translate(-1014.885 -1393.929)" fill="#ffb27d"/>
              <path id="Path_5997" data-name="Path 5997" d="M1035.632,1432.792a13.246,13.246,0,0,0,2.219-1.393.137.137,0,0,1,.214.024c.132.208.255.609-.351,1.007A3.26,3.26,0,0,1,1035.632,1432.792Z" transform="translate(-1019.474 -1391.18)" fill="#ffb27d"/>
            </g>
          </g>
          <g id="Group_8851" data-name="Group 8851" transform="translate(22.919 28.64)">
            <path id="Path_5998" data-name="Path 5998" d="M1051.271,1459.883H1034.8a1.313,1.313,0,0,1,1.313-1.313h15.159Z" transform="translate(-1034.799 -1441.943)" fill="#ed7d2b"/>
            <path id="Path_5999" data-name="Path 5999" d="M1095.366,1369.642h25.467l-6.109,17.94h-25.633Z" transform="translate(-1078.941 -1369.642)" fill="#ed7d2b"/>
            <path id="Path_6000" data-name="Path 6000" d="M1122.841,1369.643l-6.109,17.939H1091.1l6.274-17.939Z" transform="translate(-1080.573 -1369.643)" fill="#f99746"/>
            <path id="Path_6001" data-name="Path 6001" d="M1176.491,1411.333a1.656,1.656,0,0,1-1.528,1.241.956.956,0,0,1-.954-1.241,1.656,1.656,0,0,1,1.528-1.241A.956.956,0,0,1,1176.491,1411.333Z" transform="translate(-1147.954 -1402.529)" fill="#f9ddbf"/>
            <path id="Path_6002" data-name="Path 6002" d="M1160.485,1369.643l-6.11,17.939H1137.4c11.245-3.838,14.238-15.54,14.74-17.939Z" transform="translate(-1118.217 -1369.643)" fill="#ed893e"/>
          </g>
        </g>
        <g id="Group_8857" data-name="Group 8857" transform="translate(0 46.576)">
          <g id="Group_8854" data-name="Group 8854" transform="translate(3.715 2.769)">
            <g id="Group_8853" data-name="Group 8853">
              <path id="Path_6003" data-name="Path 6003" d="M863.383,1532.51a.658.658,0,0,0,.653-.535l3.2-18.13,4.6-26.075,1.287-7.291-3.277-.094-.569,4.233-3.992,29.745-2.367,17.631A.462.462,0,0,0,863.383,1532.51Z" transform="translate(-862.914 -1480.384)" fill="#95c0f4"/>
            </g>
            <path id="Path_6004" data-name="Path 6004" d="M896.945,1484.617a4.7,4.7,0,0,1,2.559,3.152l1.287-7.291-3.277-.094Z" transform="translate(-890.582 -1480.384)" fill="#78acea"/>
          </g>
          <g id="Group_8856" data-name="Group 8856" transform="translate(75.955 2.769)">
            <g id="Group_8855" data-name="Group 8855">
              <path id="Path_6005" data-name="Path 6005" d="M1259.024,1532.51a.658.658,0,0,1-.653-.535l-3.2-18.13-4.6-26.075-1.286-7.291,3.277-.094.569,4.233,3.992,29.745,2.367,17.631A.462.462,0,0,1,1259.024,1532.51Z" transform="translate(-1249.285 -1480.384)" fill="#95c0f4"/>
            </g>
            <path id="Path_6006" data-name="Path 6006" d="M1253.131,1484.617a4.7,4.7,0,0,0-2.559,3.152l-1.286-7.291,3.277-.094Z" transform="translate(-1249.285 -1480.384)" fill="#78acea"/>
          </g>
          <path id="Rectangle_3455" data-name="Rectangle 3455" d="M2.863,0H85.054a2.863,2.863,0,0,1,2.863,2.863v0a2.863,2.863,0,0,1-2.863,2.863H2.863A2.863,2.863,0,0,1,0,2.863v0A2.863,2.863,0,0,1,2.863,0Z" transform="translate(87.916 5.725) rotate(180)" fill="#78acea"/>
        </g>
      </g>
      <path id="Rectangle_3456" data-name="Rectangle 3456" d="M.656,0h493.2a.656.656,0,0,1,.656.656v0a.656.656,0,0,1-.656.656H.656A.656.656,0,0,1,0,.656v0A.656.656,0,0,1,.656,0Z" transform="translate(0 261.516)" fill="#2e3552"/>
      <g id="Group_8860" data-name="Group 8860" transform="translate(312.931 152.499)">
        <path id="Path_6007" data-name="Path 6007" d="M1961.5,1449.255s-2.177,2.7-1.5,3.068,2.479,1.057,2.9.623.557-3.616.557-3.616Z" transform="translate(-1948.799 -1396.699)" fill="#ffb27d"/>
        <path id="Path_6008" data-name="Path 6008" d="M1959.466,1449.5a3.2,3.2,0,0,0-1.24.771c-.35.463-1.124,1.169-.935,1.365s1.3-.669,1.3-.669Z" transform="translate(-1946.679 -1396.896)" fill="#ffb27d"/>
        <path id="Path_6009" data-name="Path 6009" d="M1976.633,1256.425s-2.454,22.842-2.672,23.493c-.048.141-.24.864-.511,1.9-.386,1.486-.932,3.621-1.45,5.651-.781,3.067-1.5,5.9-1.5,5.9l-2.13-.7s-.11-11.1.437-13.656,2.3-18.261,3.187-20.375S1976.633,1256.425,1976.633,1256.425Z" transform="translate(-1955.705 -1239.923)" fill="#aec3ff"/>
        <g id="Group_8859" data-name="Group 8859" transform="translate(0 54.723)">
          <path id="Path_6010" data-name="Path 6010" d="M1916.487,1480.9l-13.382-3.51a3.284,3.284,0,0,1-2.336-4l1.521-5.8a3.283,3.283,0,0,1,4-2.336l13.382,3.51a3.283,3.283,0,0,1,2.336,4l-1.521,5.8A3.283,3.283,0,0,1,1916.487,1480.9Z" transform="translate(-1900.662 -1464.348)" fill="#a02e2e"/>
          <path id="Path_6011" data-name="Path 6011" d="M1911.654,1464.555l-1.538,5.866a3.293,3.293,0,0,0,.8,3.094,3.238,3.238,0,0,0,.879.662h0a3.21,3.21,0,0,0,.666.256l13.358,3.5a3.3,3.3,0,0,0,4.012-2.345l1.539-5.866a3.3,3.3,0,0,0-2.345-4.012l-4.6-1.206.328-1.251a1.086,1.086,0,0,0-.773-1.324l-.5-.132-2.8-.734-.7-.182a1.085,1.085,0,0,0-1.324.773l-.328,1.252-2.664-.7c-.106-.028-.21-.049-.315-.066h0a3.3,3.3,0,0,0-2.86.948h0A3.257,3.257,0,0,0,1911.654,1464.555Zm12.114-.22-4.78-1.253.329-1.251a.4.4,0,0,1,.494-.288l1.2.315,2.2.577.594.156a.416.416,0,0,1,.112.049.406.406,0,0,1,.177.446Z" transform="translate(-1908.261 -1460.849)" fill="#bc3f3f"/>
        </g>
        <path id="Path_6012" data-name="Path 6012" d="M1963.523,1461.82s.594-1,.372-1.351-1.025,1.038-1.025,1.038.547-1.191.343-1.387-1.043,1.173-1.043,1.173.522-1.157.339-1.2-.806.973-.806.973.323-.867.028-.825-.935.832-.935.832Z" transform="translate(-1949.553 -1405.514)" fill="#ffb27d"/>
        <path id="Path_6013" data-name="Path 6013" d="M1984.373,1345.894c-.386,1.486-.932,3.621-1.449,5.65a21.958,21.958,0,0,1-1.026-4.48c-.493-3.78,1.022-11.833,1.022-11.833Z" transform="translate(-1966.629 -1303.995)" fill="#9db0f4"/>
        <path id="Path_6014" data-name="Path 6014" d="M2139.612,1444.231a18.9,18.9,0,0,1,2.666,2.529,12.945,12.945,0,0,1,.991,3.549c-.039.718-1.818-1.644-2.34-1.835s.546.97.426,1.219-1.233-.564-1.657-.83-.723-2.068-1.355-3.049S2139.612,1444.231,2139.612,1444.231Z" transform="translate(-2093.798 -1392.615)" fill="#ffb27d"/>
        <path id="Path_6015" data-name="Path 6015" d="M1979.194,1724.627h11.828c.848-.575-.229-6.194-.229-6.194s-3.228-1.225-3.786,1.266-4.112,3.281-5.992,3.584A2.023,2.023,0,0,0,1979.194,1724.627Z" transform="translate(-1964.511 -1615.304)" fill="#233862"/>
        <path id="Path_6016" data-name="Path 6016" d="M2073.02,1724.627h11.829c.848-.575-.229-6.194-.229-6.194s-3.229-1.225-3.786,1.266-4.112,3.281-5.992,3.584A2.024,2.024,0,0,0,2073.02,1724.627Z" transform="translate(-2040.794 -1615.304)" fill="#233862"/>
        <path id="Path_6017" data-name="Path 6017" d="M1996.214,1442.283s.532,6.633,1.157,14.607c.849,10.831,3.14,37.686,3.14,37.686s1.5,1.281,4.828.581a105.141,105.141,0,0,0,3.678-19.839c.013-.173.026-.348.039-.523.788-10.764,2.012-33.431,2.012-33.431Z" transform="translate(-1978.349 -1390.284)" fill="#2b478b"/>
        <path id="Path_6018" data-name="Path 6018" d="M1995.245,1434.02s.713,8.925,1.338,16.9l11.646,18.428c.013-.173.026-.348.039-.523.788-10.764,2.012-33.431,2.012-33.431Z" transform="translate(-1977.561 -1384.313)" fill="#233862"/>
        <path id="Path_6019" data-name="Path 6019" d="M2013.4,1416.354s8.447,21.026,11.147,29c1.924,5.677,7.348,25.594,7.348,25.594a5.451,5.451,0,0,0,4.341-.67s2.018-20.348-2.058-26.085c-2.163-3.044-.537-31.642-9.307-31.887S2013.4,1416.354,2013.4,1416.354Z" transform="translate(-1992.321 -1366.647)" fill="#2b478b"/>
        <path id="Path_6020" data-name="Path 6020" d="M2008.675,1290.285c-3.522,1.987-18.611,1.943-19.31.383-1.561-3.483-1.953-21.18-1.216-26.609,0,0,.381-8.343,1.216-7.974,5.573-2.561,14.594-.235,14.594-.235,2.432.717,2.224,6.275,2.9,14.08.087,1.006.184,2.054.292,3.137.48,4.821,1.178,10.358,2.24,16.2C2009.465,1289.65,2009.2,1289.99,2008.675,1290.285Z" transform="translate(-1971.499 -1238.669)" fill="#aec3ff"/>
        <path id="Path_6021" data-name="Path 6021" d="M2025.8,1228.282c-.094,1.492-2.039,1.323-4.38.789s-1.492-1.913-1.492-1.913.034-1.06.182-2.331c.054-.462.122-.953.21-1.43.041-.233.087-.464.14-.686.306-1.313,4.674-.046,4.643.307C2025.015,1223.973,2025.7,1227.11,2025.8,1228.282Z" transform="translate(-1997.505 -1212.039)" fill="#ffb27d"/>
        <path id="Path_6022" data-name="Path 6022" d="M2024.351,1260l-.185-2.061,2.591.489-1,1.84Z" transform="translate(-2001.075 -1241.154)" fill="#233862"/>
        <path id="Path_6023" data-name="Path 6023" d="M2014.139,1243.833l-1.548,2.354a3.425,3.425,0,0,0,1.343,2.5l2.116-1.971S2014.682,1246.193,2014.139,1243.833Z" transform="translate(-1991.664 -1229.685)" fill="#9db0f4"/>
        <path id="Path_6024" data-name="Path 6024" d="M2031.094,1248.344a5.539,5.539,0,0,0,1.286,2.3s3.3-.888,4.092-2.581l-1.721-2.222S2034.668,1247.518,2031.094,1248.344Z" transform="translate(-2006.707 -1231.315)" fill="#9db0f4"/>
        <path id="Path_6025" data-name="Path 6025" d="M2026.566,1228.289a8.109,8.109,0,0,1-5.018,1.067c.054-.462.122-.953.21-1.43.575-.14,1.057-.227,1.057-.227Z" transform="translate(-1998.947 -1216.568)" fill="#e2915a"/>
        <path id="Path_6026" data-name="Path 6026" d="M2021.973,1187.072c-1.028,2.83-4.78,2.107-6.378,1.653-.45-.127-.728-.234-.728-.234-.494-.224-.647-1.086-.6-2.174a16.83,16.83,0,0,1,1.424-5.928c.734-1.1,1.959-2.224,5.6-.662S2023.291,1183.446,2021.973,1187.072Z" transform="translate(-1993.018 -1176.94)" fill="#ffb27d"/>
        <path id="Path_6027" data-name="Path 6027" d="M2026.864,1176.844c-1.149.937-3.617,2.671-3.617,2.671a4.479,4.479,0,0,0,.61-1.26,1.24,1.24,0,0,0,.045-.427,2.353,2.353,0,0,1,.337-1.307c.151-.244.2-.5.015-.677-.312-.3-.844-.024-1.193.215a.7.7,0,0,1-.769.02l0,0c-.981-.615.1-1.7-.7-2.6s-4.25-1.022-4.112-1.586c-1.178-.666-.436-3.123-.414-3.253a12.737,12.737,0,0,0,3.8-.378,5.626,5.626,0,0,1,4.2,1.124.959.959,0,0,0-.1-.419.89.89,0,0,1,.255.555c.026.026.038.044.03.049a1.141,1.141,0,0,1,.541.125s-.146-.046-.215.041a.111.111,0,0,1-.03.023C2027.851,1171.382,2027.817,1176.065,2026.864,1176.844Z" transform="translate(-1995.098 -1168.165)" fill="#233862"/>
        <path id="Path_6028" data-name="Path 6028" d="M2018.779,1217.546s-.185.357-1.112.061c0,0-.779-.248-.65-.658A2.624,2.624,0,0,1,2018.779,1217.546Z" transform="translate(-1995.25 -1207.823)" fill="#fff"/>
        <path id="Path_6029" data-name="Path 6029" d="M2016.293,1268.964s-2.067,26.117-2.038,28.293,2.29,4.477,2.29,4.477a9.572,9.572,0,0,0,2.154-4.054c.352-2.082-1-28.448-1-28.448Z" transform="translate(-1993.017 -1250.118)" fill="#2a4e96"/>
        <path id="Path_6030" data-name="Path 6030" d="M2074.277,1260.06s3.337.8,5.974,5.865,4.721,15.286,5.98,17.983,2.123,11.191,2.123,11.191l-1.994.979s-4.814-8.705-5.526-11.56c-.385-1.545-6.271-13.909-6.271-13.909Z" transform="translate(-2041.816 -1242.878)" fill="#aec3ff"/>
        <path id="Path_6031" data-name="Path 6031" d="M2079.444,1349.529h0c-6.281-.9-4.482-21.695-3.989-21.777s2.3,3.716,2.3,3.716l.173.843c.48,4.821,1.178,10.358,2.24,16.2C2080.234,1348.895,2079.967,1349.235,2079.444,1349.529Z" transform="translate(-2042.268 -1297.913)" fill="#9db0f4"/>
      </g>
      <g id="Group_8863" data-name="Group 8863" transform="translate(373.31 105.571)">
        <g id="Group_8861" data-name="Group 8861" transform="translate(7.71 68.311)">
          <path id="Path_6032" data-name="Path 6032" d="M2477.484,1682.224s2.615,2.387,2.105,4.083-2.871,2.827-3.19,4.9-1.595,3.2-2.743,3.2h-5.475s-.845-1.459,1.2-1.9,2.811-2.876,2.684-5.137a39.838,39.838,0,0,1,.191-5.276l4.338-1.005Z" transform="translate(-2430.021 -1606.574)" fill="#233862"/>
          <path id="Path_6033" data-name="Path 6033" d="M2280.209,1711.019s.469,5.432-.679,6l-14.7-.03s0-1.7,2.361-2.073,6.507-1.759,7.208-4.837S2280.209,1711.019,2280.209,1711.019Z" transform="translate(-2264.835 -1629.195)" fill="#233862"/>
          <path id="Path_6034" data-name="Path 6034" d="M2280.706,1304.008s.775,9.522,1.686,20.968c1.238,15.549,2.727,34.648,2.875,38.266.255,6.283,1.276,16.333,1.276,16.333s2.423,2.388,7.273,1.381a162.182,162.182,0,0,0,5.556-29.526c.019-.249.039-.5.057-.75,1.148-15.452,2.934-47.991,2.934-47.991Z" transform="translate(-2277.739 -1298.92)" fill="#2a4e96"/>
          <path id="Path_6035" data-name="Path 6035" d="M2280.706,1304.008s.775,9.522,1.686,20.968l16.979,26.454c.019-.249.039-.5.057-.75,1.148-15.452,2.934-47.991,2.934-47.991Z" transform="translate(-2277.739 -1298.92)" fill="#233862"/>
          <path id="Path_6036" data-name="Path 6036" d="M2299.637,1288.751s13.971,34.486,23.157,50.692,12.057,20.729,12.057,20.729,5.263-2.073,5.741-3.487c0,0-3.513-31.287-9.665-38.914-3.476-4.31-6.475-13.871-6.324-18.4.259-7.8-2.671-16.844-2.671-16.844Z" transform="translate(-2293.13 -1282.532)" fill="#2a4e96"/>
        </g>
        <path id="Path_6037" data-name="Path 6037" d="M2226.657,1318.5s-2.608,3.532-2.8,4.475a18.582,18.582,0,0,0-.105,5.293c.312.985,1.938-2.94,2.6-3.392s-.412,1.545-.155,1.848,1.513-1.227,2.008-1.75.263-3.137.791-4.728S2226.657,1318.5,2226.657,1318.5Z" transform="translate(-2223.597 -1243.466)" fill="#ffb27d"/>
        <path id="Path_6038" data-name="Path 6038" d="M2248.647,1043.971s-3.525,32.815-3.839,33.75c-.068.2-.345,1.242-.734,2.736-.555,2.135-1.339,5.2-2.083,8.118-1.122,4.406-2.334,8.216-2.334,8.216a3.089,3.089,0,0,1-1.816.235,1.92,1.92,0,0,1-1.348-.823s.129-16.111.915-19.783,3.306-26.235,4.578-29.271S2248.647,1043.971,2248.647,1043.971Z" transform="translate(-2234.082 -1020.264)" fill="#fff"/>
        <path id="Path_6039" data-name="Path 6039" d="M2260.958,1172.5c-.555,2.134-1.339,5.2-2.083,8.117a31.547,31.547,0,0,1-1.473-6.436c-.708-5.431,1.469-17,1.469-17Z" transform="translate(-2250.966 -1112.309)" fill="#dceaff"/>
        <path id="Path_6040" data-name="Path 6040" d="M2295.871,1092.613c-5.06,2.854-26.738,2.791-27.741.55-2.243-5-2.805-30.428-1.747-38.227,0,0,.548-11.985,1.747-11.456,8.006-3.679,20.967-.338,20.967-.338,3.494,1.03,3.194,9.015,4.17,20.228.125,1.445.264,2.952.42,4.508.689,6.925,1.693,14.88,3.218,23.271C2297.006,1091.7,2296.621,1092.191,2295.871,1092.613Z" transform="translate(-2257.963 -1018.461)" fill="#fff"/>
        <path id="Path_6041" data-name="Path 6041" d="M2320.468,1003.54c-.134,2.144-2.93,1.9-6.292,1.134s-2.144-2.748-2.144-2.748.05-1.523.262-3.348c.078-.664.175-1.37.3-2.054.059-.335.125-.666.2-.985.439-1.886,6.715-.066,6.67.442C2319.344,997.349,2320.335,1001.857,2320.468,1003.54Z" transform="translate(-2295.323 -980.206)" fill="#ffb27d"/>
        <path id="Path_6042" data-name="Path 6042" d="M2318.392,1049.107l-.265-2.961,3.722.7-1.432,2.644Z" transform="translate(-2300.452 -1022.032)" fill="#233862"/>
        <path id="Path_6043" data-name="Path 6043" d="M2303.721,1025.881l-2.224,3.382a4.92,4.92,0,0,0,1.93,3.59l3.04-2.831S2304.5,1029.271,2303.721,1025.881Z" transform="translate(-2286.932 -1005.556)" fill="#dceaff"/>
        <path id="Path_6044" data-name="Path 6044" d="M2328.079,1032.362a7.957,7.957,0,0,0,1.848,3.3s4.748-1.277,5.879-3.708l-2.473-3.192S2333.214,1031.174,2328.079,1032.362Z" transform="translate(-2308.544 -1007.897)" fill="#dceaff"/>
        <path id="Path_6045" data-name="Path 6045" d="M2321.574,1003.55a11.649,11.649,0,0,1-7.208,1.532c.078-.664.175-1.37.3-2.054.827-.2,1.518-.326,1.518-.326Z" transform="translate(-2297.395 -986.711)" fill="#e2915a"/>
        <path id="Path_6046" data-name="Path 6046" d="M2314.975,944.337c-1.477,4.065-6.867,3.027-9.162,2.375-.646-.183-1.046-.336-1.046-.336-.709-.322-.929-1.56-.867-3.123.122-3.094,1.344-7.463,2.045-8.515,1.055-1.584,2.815-3.194,8.043-.952S2316.869,939.128,2314.975,944.337Z" transform="translate(-2288.878 -929.781)" fill="#ffb27d"/>
        <path id="Path_6047" data-name="Path 6047" d="M2322,929.643c-1.65,1.346-5.2,3.837-5.2,3.837a6.429,6.429,0,0,0,.877-1.81,1.792,1.792,0,0,0,.065-.613,3.376,3.376,0,0,1,.485-1.878c.216-.351.294-.714.021-.972-.448-.424-1.213-.035-1.714.309a1.013,1.013,0,0,1-1.105.028l-.006,0c-1.409-.883.146-2.439-1-3.73s-6.106-1.469-5.908-2.278c-1.693-.956-.626-4.486-.595-4.673a18.3,18.3,0,0,0,5.464-.543c2.463-.619,5.178.963,6.037,1.615a1.379,1.379,0,0,0-.137-.6,1.277,1.277,0,0,1,.366.8c.038.038.054.064.042.071a1.636,1.636,0,0,1,.777.179s-.21-.066-.31.059a.145.145,0,0,1-.042.033C2323.419,921.8,2323.371,928.524,2322,929.643Z" transform="translate(-2291.866 -917.175)" fill="#bc3f3f"/>
        <path id="Path_6048" data-name="Path 6048" d="M2310.387,988.116s-.265.512-1.6.087c0,0-1.119-.356-.934-.946A3.771,3.771,0,0,1,2310.387,988.116Z" transform="translate(-2292.085 -974.148)" fill="#fff"/>
        <path id="Path_6049" data-name="Path 6049" d="M2306.815,1061.985s-2.968,37.52-2.927,40.646,3.29,6.432,3.29,6.432a13.749,13.749,0,0,0,3.094-5.824c.505-2.991-1.432-40.868-1.432-40.868Z" transform="translate(-2288.876 -1034.91)" fill="#2a4e96"/>
        <path id="Path_6050" data-name="Path 6050" d="M2397.538,1177.726h0c-9.024-1.3-6.439-31.167-5.73-31.285s3.3,5.338,3.3,5.338l.248,1.211c.689,6.925,1.693,14.88,3.218,23.271C2398.674,1176.815,2398.289,1177.3,2397.538,1177.726Z" transform="translate(-2359.631 -1103.574)" fill="#dceaff"/>
        <g id="Group_8862" data-name="Group 8862" transform="translate(36.929 77.352)">
          <path id="Path_6051" data-name="Path 6051" d="M2448.619,1356.727l-19.083,5.553a4.717,4.717,0,0,1-5.83-3.2l-2.407-8.27a4.717,4.717,0,0,1,3.2-5.83l19.084-5.553a4.717,4.717,0,0,1,5.83,3.2l2.407,8.27A4.717,4.717,0,0,1,2448.619,1356.727Z" transform="translate(-2421.112 -1337.677)" fill="#a02e2e"/>
          <path id="Path_6052" data-name="Path 6052" d="M2434.743,1343.283l2.435,8.365a4.73,4.73,0,0,0,3.267,3.225,4.649,4.649,0,0,0,1.573.167h0a4.6,4.6,0,0,0,1.01-.176l19.049-5.544a4.734,4.734,0,0,0,3.214-5.851l-2.434-8.367a4.736,4.736,0,0,0-5.852-3.213l-6.559,1.909-.519-1.785a1.56,1.56,0,0,0-1.931-1.06l-.719.209-3.99,1.161-.991.289a1.559,1.559,0,0,0-1.06,1.931l.519,1.785-3.8,1.1c-.151.044-.3.095-.437.151l0,0h0a4.738,4.738,0,0,0-2.825,3.279h0A4.681,4.681,0,0,0,2434.743,1343.283Zm14.767-9.215-6.816,1.985-.519-1.785a.582.582,0,0,1,.4-.72l1.712-.5,3.14-.915.847-.246a.585.585,0,0,1,.721.4Z" transform="translate(-2432.042 -1330.89)" fill="#bc3f3f"/>
        </g>
        <path id="Path_6053" data-name="Path 6053" d="M2483.273,1313.214s-.592,4.948.518,4.877,3.824-.6,4.009-1.455-2.079-4.828-2.079-4.828Z" transform="translate(-2434.593 -1238.023)" fill="#ffb27d"/>
        <path id="Path_6054" data-name="Path 6054" d="M2479.588,1319.256a4.6,4.6,0,0,0-.922,1.885c-.073.831-.478,2.281-.1,2.375s1.075-1.807,1.075-1.807Z" transform="translate(-2430.765 -1244.079)" fill="#ffb27d"/>
        <path id="Path_6055" data-name="Path 6055" d="M2390.116,1049.192s4.793,1.147,8.582,8.426,6.782,21.96,8.591,25.835,3.186,15.5,3.186,15.5a1.778,1.778,0,0,1-1.257.789,5.943,5.943,0,0,1-1.533.1s-7.126-11.414-8.149-15.515c-.553-2.219-9.009-19.982-9.009-19.982Z" transform="translate(-2358.982 -1024.509)" fill="#fff"/>
      </g>
      <g id="Group_8864" data-name="Group 8864" transform="translate(50.896 118.588)">
        <path id="Path_6056" data-name="Path 6056" d="M698.716,1693.531l-.718-5.172,3.017-2.521.95,6.848Z" transform="translate(-660.826 -1555.138)" fill="#ffb27d"/>
        <path id="Path_6057" data-name="Path 6057" d="M701.645,1723.22h-12.3a6.756,6.756,0,0,1,.348-3.3c.616-1.365,1.574-2.207,1.661-3.252a3.694,3.694,0,0,0,3.521,1.083,13.485,13.485,0,0,0,2.134,2.766C697.814,1721.1,701.4,1720.892,701.645,1723.22Z" transform="translate(-653.737 -1580.206)" fill="#233862"/>
        <path id="Path_6058" data-name="Path 6058" d="M675.908,1324.127c-.8,6.47-1.462,12.57-2,18.255-2.862,30.29-2.3,48.8-2.3,48.8s-.207.548-1.981.556a10.174,10.174,0,0,1-1.985-.214s-6.408-19.78-5.914-31.036a17.269,17.269,0,0,1,.5-3.643c1.537-5.759-5.689-27.783,2.166-35.985S676.278,1321.158,675.908,1324.127Z" transform="translate(-630.471 -1255.578)" fill="#f99746"/>
        <path id="Path_6059" data-name="Path 6059" d="M675.908,1324.127c-.8,6.47-1.462,12.57-2,18.255l-12.181,18.111a17.269,17.269,0,0,1,.5-3.643c1.537-5.759-5.689-27.783,2.166-35.985S676.278,1321.158,675.908,1324.127Z" transform="translate(-630.471 -1255.578)" fill="#ed7d2b"/>
        <path id="Path_6060" data-name="Path 6060" d="M791.169,993.63s-.3-1.478-.63-2.606c-.148-.5.882-3.778,1.594-4.181s2.568,1.8,2.043,3.5c-.27.871-.713,3.7-.713,3.7Z" transform="translate(-736.052 -986.795)" fill="#ffb27d"/>
        <path id="Path_6061" data-name="Path 6061" d="M786.5,1009.324s-.387-.857-.737-1-.724-1.54-.981-2.1c0,0,.248-.364.682.1.265.285.855,1.122.855,1.122Z" transform="translate(-731.382 -1002.488)" fill="#ffb27d"/>
        <path id="Path_6062" data-name="Path 6062" d="M503.53,1036.661c-.075.156-.18.434-.274.695q0-.107,0-.211c-.005-.521-1.949-3.354-2.748-3.531s-1.927,2.477-.929,3.944c.513.754,1.766,3.334,1.766,3.334l2.072-1.07s.119-.933.413-1.168.242-1.685.325-2.292C504.152,1036.362,503.808,1036.086,503.53,1036.661Z" transform="translate(-499.184 -1024.853)" fill="#ffb27d"/>
        <path id="Path_6063" data-name="Path 6063" d="M590.581,1689.092c-.174-1.658-.217-6.02-.217-6.02s4.445-1.421,4.281-.445a31.392,31.392,0,0,0-.586,7.17l-1.8,1.074Z" transform="translate(-573.316 -1552.249)" fill="#ffb27d"/>
        <path id="Path_6064" data-name="Path 6064" d="M610.663,1347.806s-17.17,47.065-20.55,67.481a3.422,3.422,0,0,1-2.244.36,2.509,2.509,0,0,1-2.111-1.353s-3.1-24.469,3.063-32.964c4.235-5.836-1.827-31.468,8.038-33.523S610.663,1347.806,610.663,1347.806Z" transform="translate(-568.938 -1279.565)" fill="#f99746"/>
        <path id="Path_6065" data-name="Path 6065" d="M584.141,1069.274v0a.38.38,0,0,0-.014-.061c-.1-.414-.21-.822-.328-1.227v0a27.637,27.637,0,0,0-1.248-3.456c-.266-.6-.541-1.15-.822-1.642-.043-.076-.085-.147-.125-.219l0,0a4.935,4.935,0,0,0-1.961-2.124,5.887,5.887,0,0,0-3.231-.134,1.485,1.485,0,0,1,.617-.412,4.912,4.912,0,0,0-1.671.711c-7.908-1.769-7.446,9.418-6.907,11.954s-2.01,3.767-5.6,6.362c-6.853,4.95-6.738,10.2-6.738,10.2.062.026.129.056.2.091.276-.679.861-1.964,1.474-2.236a26.613,26.613,0,0,0-.658,2.657c1.044.575,2.489,1.466,4.057,2.471h0c2.1,1.343,4.415,2.889,6.271,4.144a4.259,4.259,0,0,1-.046-1.651l.591,1.832.078.239c1.185.8,2.119,1.445,2.594,1.774.049.033.092.064.131.089l.213.147c-.158-.647.534-2.336,1.694-4.464.079-.149.164-.3.25-.452.375-.673.793-1.381,1.243-2.112.162-.264.326-.528.5-.8a0,0,0,0,1,0,0c.136-.217.274-.432.417-.651l0,0c.336-.52.684-1.043,1.039-1.567.919-1.358,1.893-2.706,2.854-3.942a34.578,34.578,0,0,1,3.914-4.389c.037-.077.073-.156.1-.237a7.822,7.822,0,0,0,.424-1.352c.033-.141.063-.284.089-.427a18.544,18.544,0,0,0,.288-3.354,18.983,18.983,0,0,1-.042,3.38c-.022.182-.046.35-.073.507v0a6.917,6.917,0,0,1-.208.889,4.621,4.621,0,0,0,.5-.768,5.439,5.439,0,0,0,.26-.575C585.192,1076.1,584.943,1072.579,584.141,1069.274Z" transform="translate(-545.465 -1046.307)" fill="#163560"/>
        <path id="Path_6066" data-name="Path 6066" d="M666.2,1142.162c.027.008-2.214,1.63-4.114,1.4-1.787-.213-3.241-2.273-3.218-2.282.706-.253.767-1.284.113-5.578l.338.016,5.693.272s.133,1.759.373,3.4C665.59,1140.768,665.867,1142.062,666.2,1142.162Z" transform="translate(-629.015 -1107.862)" fill="#ffb27d"/>
        <path id="Path_6067" data-name="Path 6067" d="M666.979,1136.062s.133,1.759.373,3.4c-3.107.373-5.163-2.207-6.066-3.671Z" transform="translate(-630.978 -1107.932)" fill="#ed975d"/>
        <path id="Path_6068" data-name="Path 6068" d="M645,1081.158a16.445,16.445,0,0,1-2.718-4.454c-.511-1.523-.576-7.439,5.374-7.471a8,8,0,0,1,3.468.753c1.392.666,3.492,2.239,2.2,7.6l-.276,1.788Z" transform="translate(-615.356 -1053.818)" fill="#163560"/>
        <path id="Path_6069" data-name="Path 6069" d="M640.079,1195.365a24.111,24.111,0,0,1-16.709,2.139c-.11-.027-7.659-1.232-7.659-1.232.13-.355,1.105-6.187,1.233-6.513,1.65-4.258,4.666-27.368,7.185-28.508a5.708,5.708,0,0,0,4.056,1.041c1.812-.16,2.419-.943,2.268-1.785,2.005.948,3.546,1.829,3.546,1.829C635.834,1165.082,640.079,1195.365,640.079,1195.365Z" transform="translate(-593.925 -1128.027)" fill="#fff"/>
        <path id="Path_6070" data-name="Path 6070" d="M660.528,1092.185s-7.3,1.21-7.987-3.35-2.086-7.475,2.548-8.44,5.8.639,6.4,2.105S662.41,1091.752,660.528,1092.185Z" transform="translate(-623.263 -1062.656)" fill="#ffb27d"/>
        <path id="Path_6071" data-name="Path 6071" d="M649.828,1075.415s-1.209,5.649-4.167,6.9-4.416.623-4.416.623a8.808,8.808,0,0,0,2.084-5.571S647.937,1073.093,649.828,1075.415Z" transform="translate(-614.684 -1058.283)" fill="#163560"/>
        <path id="Path_6072" data-name="Path 6072" d="M684.839,1076.45a6.535,6.535,0,0,1,2.212,2.079c.538,1.107,1.058,3.473,1.742,3.288,0,0,.969-3.861-1.034-5.666C685.636,1074.237,684.839,1076.45,684.839,1076.45Z" transform="translate(-650.127 -1058.81)" fill="#163560"/>
        <path id="Path_6073" data-name="Path 6073" d="M715.492,1022.13a4.668,4.668,0,0,0-1.306-.4,4.051,4.051,0,0,0-1.147.12s-2.061,12.809-2.214,13.487-8.838,10.462-11.18,10.423c-2.114-.036-4.619,1.6-5.084,1.911,0,0,4.924,10.412,5.17,12.369.267,2.128,2.816,34.9,2.816,34.9s-.152,1.525,2.7.705,3.561-1.5,3.561-1.5-2.617-25.8-3.166-33.827a15.374,15.374,0,0,0-.5-2.994,3.034,3.034,0,0,1,.49-2.578c3.6-4.944,9.289-12.955,9.606-14.657C715.7,1037.589,715.492,1022.13,715.492,1022.13Z" transform="translate(-658.031 -1015.189)" fill="#2b478b"/>
        <path id="Path_6074" data-name="Path 6074" d="M592.557,1723.22h-12.3a6.755,6.755,0,0,1,.348-3.3c.615-1.365,1.573-2.207,1.661-3.252a3.694,3.694,0,0,0,3.521,1.083,13.487,13.487,0,0,0,2.134,2.766C588.726,1721.1,592.31,1720.892,592.557,1723.22Z" transform="translate(-565.045 -1580.206)" fill="#233862"/>
        <path id="Path_6075" data-name="Path 6075" d="M544.529,1096.036c-.414-2.551-5.706-12.792-5.706-12.792s-3.346-1-5.547-.2-13.594-5.635-13.959-6.227-6.467-11.962-6.467-11.962a1.415,1.415,0,0,0-1.317.129,1.484,1.484,0,0,0-.806,1.234s4.709,14.315,5.962,16.53c.756,1.335,7.107,5.985,12.032,9.466a3.09,3.09,0,0,1,1.28,2.938c-.662,4.9-.83,7.652-1.592,16.052-.632,6.968-.874,20.459-.874,20.459a45.548,45.548,0,0,0,9.314,2.16c3.8.253,4.632-3.757,4.632-3.757S544.955,1098.658,544.529,1096.036Z" transform="translate(-508.569 -1050.177)" fill="#2b478b"/>
        <path id="Path_6076" data-name="Path 6076" d="M685.7,1129.782a3.26,3.26,0,0,0,1.935.364c.718-.108.881-.959.881-.959a2.825,2.825,0,0,0-1.295,0A5.523,5.523,0,0,0,685.7,1129.782Z" transform="translate(-650.823 -1102.508)" fill="#fff"/>
      </g>
      <g id="Group_8866" data-name="Group 8866" transform="translate(216.026 36.861)">
        <path id="Path_6077" data-name="Path 6077" d="M1926.748,633.689s-3.417-6.073,0-7.308,4.964-.1,5.126,1.287-1.3,6.835-1.3,6.835Z" transform="translate(-1823.731 -611.611)" fill="#ffb27d"/>
        <path id="Path_6078" data-name="Path 6078" d="M1735.183,699.926a110.459,110.459,0,0,1-17.13,1.759,95.5,95.5,0,0,1-13.167-.592q-1.553-.178-2.985-.4c-10.088-1.53-15.659-4.243-15.659-4.243s9.218-19.295,16.663-18.554c8.736.871,23.539,8.71,25.01,6.511,1.657-2.477,3.043-23.72,3.043-23.72,3.873-2.653,6.186.143,6.186.143S1744.71,698.208,1735.183,699.926Z" transform="translate(-1629.427 -639.007)" fill="#f99746"/>
        <path id="Path_6079" data-name="Path 6079" d="M1806.262,829.4a110.46,110.46,0,0,1-17.13,1.759,95.486,95.486,0,0,1-13.167-.593c-2.324-7.392-4-14.941.678-10.389C1784.889,828.209,1806.262,829.4,1806.262,829.4Z" transform="translate(-1700.506 -768.484)" fill="#ed7d2b"/>
        <path id="Path_6080" data-name="Path 6080" d="M1681.917,1695.82s-.663,7.67.958,8.469l20.75-.043s0-2.395-3.333-2.927-9.188-2.484-10.179-6.83S1681.917,1695.82,1681.917,1695.82Z" transform="translate(-1625.802 -1479.113)" fill="#233862"/>
        <path id="Path_6081" data-name="Path 6081" d="M1649.258,1107.723c-.1,5.016-.343,10.189-.815,14.839-2.241,22.063-3.029,48.72-3.351,53.859-.558,8.921-2.321,23.175-2.321,23.175s-3.5,3.318-10.31,1.735a231.972,231.972,0,0,1-6.907-42.144q-.029-.532-.057-1.068c-.146-2.858-.3-6.125-.456-9.649-1.038-23.6-2.166-58.661-2.166-58.661l26.039-6.114S1649.513,1095.22,1649.258,1107.723Z" transform="translate(-1577.909 -983.852)" fill="#2a4e96"/>
        <path id="Path_6082" data-name="Path 6082" d="M1649.258,1107.723c-6.6,11.385-19.177,32.361-24.216,40.747-1.038-23.6-2.166-58.661-2.166-58.661l26.039-6.114S1649.513,1095.22,1649.258,1107.723Z" transform="translate(-1577.909 -983.852)" fill="#233862"/>
        <path id="Path_6083" data-name="Path 6083" d="M1387.79,1094.245s-4.237,4.983-4.618,6.364-1.06,6.359-.7,7.855,3.181-4.171,4.205-4.776-.769,2.254-.419,2.731,2.374-1.669,3.162-2.395.711-4.634,1.658-6.945S1387.79,1094.245,1387.79,1094.245Z" transform="translate(-1382.372 -992.428)" fill="#ffb27d"/>
        <path id="Path_6084" data-name="Path 6084" d="M1392.7,1655.162s-3.693,3.37-2.973,5.765,4.053,3.991,4.5,6.918,2.252,4.523,3.873,4.523h7.73s1.193-2.059-1.689-2.681-3.969-4.06-3.789-7.253a56.259,56.259,0,0,0-.27-7.45l-6.125-1.419Z" transform="translate(-1388.279 -1447.172)" fill="#233862"/>
        <path id="Path_6085" data-name="Path 6085" d="M1468.513,1084.795s-24.375,52.153-37.346,75.037-17.025,29.27-17.025,29.27-7.432-2.927-8.107-4.923c0,0,4.96-44.178,13.647-54.947,4.908-6.085,10.674-24.347,10.944-30.733s5.965-21.628,5.965-21.628Z" transform="translate(-1401.611 -978.302)" fill="#2a4e96"/>
        <path id="Path_6086" data-name="Path 6086" d="M1589.1,803.445a42.241,42.241,0,0,1-23.412,5.879c-6.021-.263-17.964-1.97-19.891-6.758-.453-1.124-.12-2.551.558-4.741,1.762-5.692,5.869-16.53,4.629-40.56a39.438,39.438,0,0,1,.161-6.306c1.292-11.837,8.076-18.847,14.632-21.137,15.99-5.589,21.321,2.154,21.321,2.154s7.068,5.6,8.133,17.286C1597.365,772.636,1589.1,803.445,1589.1,803.445Z" transform="translate(-1515.076 -694.493)" fill="#f99746"/>
        <path id="Path_6087" data-name="Path 6087" d="M1678.627,667.038s7.337,4.462,15.295,3.2c0,0,1.573-.4.8-2.247a23.649,23.649,0,0,0,.706-2.464,37.189,37.189,0,0,0,.911-4.02l-4.516-4.747-4.277-4.536C1686.364,663.066,1678.627,667.038,1678.627,667.038Z" transform="translate(-1623.236 -633.053)" fill="#ffb27d"/>
        <path id="Path_6088" data-name="Path 6088" d="M1722.665,674.216s2.458,6.569,8.567,9.191c.7-2.549,1.152-5.216,1.152-5.216l-4.757-3.551Z" transform="translate(-1659.04 -650.932)" fill="#ed985f"/>
        <path id="Path_6089" data-name="Path 6089" d="M1730.617,601.079s-14,1.751-14.988-6.855-3.452-14.176,5.448-15.658,11.016,1.612,12.053,4.406S1734.235,600.4,1730.617,601.079Z" transform="translate(-1652.448 -572.854)" fill="#ffb27d"/>
        <path id="Path_6090" data-name="Path 6090" d="M1692.061,554c-.121-.15-.408-.278-1.055-.338a2.633,2.633,0,0,1,1.225-.3,3.264,3.264,0,0,1,2.277-2.8,1.947,1.947,0,0,0-1,1.368c1.868-1.778,5.771-2.977,16.406-1.732,14.016,1.641,9.043,10.467,7.182,11.471s-6.33-2.111-9.731-1.97-4.231,5.016-5.407,5.645-.679-.543-2.208-1.305-1.775,1.811-1.389,3.505-1.836,3.825-1.836,3.825l-2.073-2.409c-2.073-2.409-3.737-12.344-2.675-14.409C1691.872,554.368,1691.965,554.183,1692.061,554Z" transform="translate(-1633.3 -549.685)" fill="#2c3a64"/>
        <g id="Group_8865" data-name="Group 8865" transform="translate(76.415 6.922)">
          <path id="Path_6091" data-name="Path 6091" d="M1821.314,623.6l-23.775.212-.162-3.577,23.7-1.837Z" transform="translate(-1796.198 -612.473)" fill="#2a4e96"/>
          <path id="Path_6092" data-name="Path 6092" d="M1907.549,614.067l-25.885.374-.3-6.5,25.812-2Z" transform="translate(-1864.485 -602.342)" fill="#2a4e96"/>
          <path id="Path_6093" data-name="Path 6093" d="M2018.095,605.486l-21.828.027-.4-8.779,21.74-1.978Z" transform="translate(-1957.577 -593.251)" fill="#233862"/>
          <path id="Path_6094" data-name="Path 6094" d="M2108.641,600.422h0a1.22,1.22,0,0,0,1.164-1.275l-.512-11.277a1.22,1.22,0,0,0-1.275-1.164h0a1.22,1.22,0,0,0-1.164,1.275l.512,11.277A1.221,1.221,0,0,0,2108.641,600.422Z" transform="translate(-2047.812 -586.705)" fill="#233862"/>
          <path id="Path_6095" data-name="Path 6095" d="M1792.34,629.281h0a1.085,1.085,0,0,1-1.133-1.034l-.133-2.926a1.085,1.085,0,0,1,1.035-1.133h0a1.085,1.085,0,0,1,1.133,1.034l.133,2.926A1.085,1.085,0,0,1,1792.34,629.281Z" transform="translate(-1791.073 -617.178)" fill="#2a4e96"/>
        </g>
        <path id="Path_6096" data-name="Path 6096" d="M1549.69,898.44c1.762-5.692,5.869-16.53,4.629-40.56a39.439,39.439,0,0,1,.161-6.306h0c5.262-.452,13.306,5.237,13.306,5.237S1562.834,887.012,1549.69,898.44Z" transform="translate(-1518.406 -795.108)" fill="#ed7d2b"/>
        <path id="Path_6097" data-name="Path 6097" d="M1453.934,731.453s-13.493,2.319-20.531,10.911-18.358,20.706-21.034,24.948-10.107,33.112-10.107,33.112.49.928,2.54,1.468a4.833,4.833,0,0,0,3.385-.285s9.844-16.848,13.549-25.264c1.539-3.5,28.161-17.346,38.17-15.911C1463.836,761,1453.934,731.453,1453.934,731.453Z" transform="translate(-1398.543 -697.468)" fill="#f99746"/>
        <path id="Path_6098" data-name="Path 6098" d="M1924.649,608.773s2.9,1.775,4.638,1.024,1.583-1.439,1.583-1.439S1925.626,606.9,1924.649,608.773Z" transform="translate(-1823.259 -596.949)" fill="#ffb27d"/>
        <path id="Path_6099" data-name="Path 6099" d="M1520.309,778.917s-5.922,37.386-47.936,48.27l-4.577,9.03,8.04,1.361s47.831-13.857,47.187-59.322Z" transform="translate(-1451.825 -735.52)" fill="#bc3f3f"/>
        <path id="Path_6100" data-name="Path 6100" d="M1735.314,749.876l-1.939.19v2.807l2.857,2.97,2.717-.661v-3.9l-1.953-1.41Z" transform="translate(-1667.747 -712.446)" fill="#a02e2e"/>
        <path id="Path_6101" data-name="Path 6101" d="M1676.221,710.113s-1.877.424-6.169,3.99c0,0,4.268,9.06,13.273,10.144a30.1,30.1,0,0,1,.506-6.7S1676.694,714.993,1676.221,710.113Z" transform="translate(-1616.264 -680.118)" fill="#ed7d2b"/>
        <path id="Path_6102" data-name="Path 6102" d="M1743.747,739.043s4.394,2.333,4.72,5.967c0,0,1.68-2.661,1.193-4.5a15.023,15.023,0,0,0-1.993-3.955S1747.815,738.772,1743.747,739.043Z" transform="translate(-1676.181 -701.613)" fill="#ed7d2b"/>
      </g>
    </g>
  </g>
</svg>
