<svg xmlns="http://www.w3.org/2000/svg" width="492" height="417" viewBox="0 0 492 417">
  <g id="Group_8797" data-name="Group 8797" transform="translate(-25.201 -57.518)">
    <g id="Floor" transform="translate(25.201 191.548)">
      <path id="Floor-2" data-name="Floor" d="M445.148,420.86c-96.069,55.254-251.828,55.255-347.895,0s-96.07-144.837,0-200.091,251.827-55.253,347.9,0S541.218,365.607,445.148,420.86Z" transform="translate(-25.201 -179.331)" fill="#fafafa"/>
    </g>
    <g id="Shadows" transform="translate(55.749 204.337)">
      <path id="Shadow" d="M288.144,308.72c-20.211-11.67-52.978-11.67-73.189,0-17.132,9.891-19.735,24.99-7.822,36.468a8.55,8.55,0,0,0-1.926.783l-63.849,36.863c-2.71,1.565-2.71,4.1,0,5.667l4,2.307a10.082,10.082,0,0,0,9.65-.27l59.465-38.917a5.888,5.888,0,0,0,.682-.538c20.226,11.556,52.846,11.522,72.992-.109C308.354,339.306,308.354,320.387,288.144,308.72Z" transform="translate(-44.519 -180.021)" fill="#e6e6e6"/>
      <path id="Shadow-2" data-name="Shadow" d="M424.727,277.21l-81.334,47.065a7.225,7.225,0,0,1-6.54,0l-141.489-81.7c-1.807-1.043-1.807-2.734,0-3.777L276.7,191.736a7.228,7.228,0,0,1,6.541,0l141.488,81.7C426.534,274.477,426.534,276.167,424.727,277.21Z" transform="translate(-39.416 -190.954)" fill="#e6e6e6"/>
      <path id="Shadow-3" data-name="Shadow" d="M76.7,359.956,54.938,347.393c-2.631-1.518-2.631-3.982,0-5.5L206.309,254.5a10.528,10.528,0,0,1,9.529,0l21.757,12.561c2.632,1.518,2.632,3.982,0,5.5L86.224,359.956A10.528,10.528,0,0,1,76.7,359.956Z" transform="translate(-52.965 -184.695)" fill="#e6e6e6"/>
      <ellipse id="Shadow-4" data-name="Shadow" cx="40.194" cy="21.964" rx="40.194" ry="21.964" transform="translate(345.336 156.318)" fill="#e6e6e6"/>
    </g>
    <g id="Plants" transform="translate(26.42 302.385)">
      <g id="Plants-2" data-name="Plants" transform="translate(431.203 29.607)">
        <g id="Group_8701" data-name="Group 8701">
          <g id="Group_8699" data-name="Group 8699" transform="translate(1.253)">
            <path id="Path_5521" data-name="Path 5521" d="M419.888,335.783c.392-4.87,4.725-14.674,10.288-20.591s13.879-9.9,19.368-7.517c5.112,2.221,3.987,9.072-2.757,13.129s-16.795,9.027-20.234,16.7l-6.664,9.219Z" transform="translate(-419.888 -306.973)" fill="#27debf"/>
            <path id="Path_5522" data-name="Path 5522" d="M419.888,335.783c.392-4.87,4.725-14.674,10.288-20.591s13.879-9.9,19.368-7.517c5.112,2.221,3.987,9.072-2.757,13.129s-16.795,9.027-20.234,16.7l-6.664,9.219Z" transform="translate(-419.888 -306.973)" opacity="0.1"/>
          </g>
          <g id="Group_8700" data-name="Group 8700" transform="translate(0 3.352)">
            <path id="Path_5523" data-name="Path 5523" d="M419.107,342.113a.359.359,0,0,0,.344-.261c4.6-16.362,19.133-28.794,27.423-31.132a.357.357,0,0,0,.246-.44.353.353,0,0,0-.441-.246c-8.447,2.382-23.248,15.016-27.916,31.626a.355.355,0,0,0,.246.439A.334.334,0,0,0,419.107,342.113Z" transform="translate(-418.75 -310.02)" fill="#fff"/>
          </g>
        </g>
        <g id="Group_8704" data-name="Group 8704" transform="translate(0.666 20.713)">
          <g id="Group_8702" data-name="Group 8702" transform="translate(0.587)">
            <path id="Path_5524" data-name="Path 5524" d="M420.616,351.371c1-2.674,4.709-6.923,10.418-10.22,6.315-3.647,14.039-4.937,16.042-8.009,2.407-3.691-.553-7.6-6.76-7.331s-17.686,7.784-20.428,20.269Z" transform="translate(-419.888 -325.798)" fill="#27debf"/>
          </g>
          <g id="Group_8703" data-name="Group 8703" transform="translate(0 3.475)">
            <path id="Path_5525" data-name="Path 5525" d="M419.712,348.087a.357.357,0,0,0,.326-.211c6.243-13.832,17.511-17.957,22.6-18.205a.357.357,0,0,0,.339-.374.352.352,0,0,0-.374-.339c-5.623.275-16.84,4.507-23.213,18.625a.358.358,0,0,0,.326.505Z" transform="translate(-419.355 -328.957)" fill="#fff"/>
          </g>
        </g>
      </g>
      <g id="Plants-3" data-name="Plants">
        <g id="Group_8707" data-name="Group 8707" transform="translate(0.494)">
          <g id="Group_8705" data-name="Group 8705">
            <path id="Path_5526" data-name="Path 5526" d="M59.36,311.32s-1.15-10.115-6.181-17.965S41.235,280.606,34.784,280.1s-11.66,5.424-4.758,9.5,19.163,8.235,24.806,23.477Z" transform="translate(-26.758 -280.065)" fill="#27debf"/>
            <path id="Path_5527" data-name="Path 5527" d="M59.36,311.32s-1.15-10.115-6.181-17.965S41.235,280.606,34.784,280.1s-11.66,5.424-4.758,9.5,19.163,8.235,24.806,23.477Z" transform="translate(-26.758 -280.065)" opacity="0.1"/>
          </g>
          <g id="Group_8706" data-name="Group 8706" transform="translate(4.879 3.027)">
            <path id="Path_5528" data-name="Path 5528" d="M57.024,308.417a.3.3,0,0,0,.068-.02.343.343,0,0,0,.189-.449c-6.806-16.763-19.765-23.763-25.667-25.122a.344.344,0,1,0-.154.671c5.78,1.331,18.483,8.209,25.182,24.71A.344.344,0,0,0,57.024,308.417Z" transform="translate(-31.193 -282.816)" fill="#fff"/>
          </g>
        </g>
        <g id="Group_8712" data-name="Group 8712" transform="translate(0 19.335)">
          <g id="Group_8709" data-name="Group 8709">
            <g id="Group_8708" data-name="Group 8708">
              <path id="Path_5529" data-name="Path 5529" d="M26.58,306.865c.621,1.4,2.148,2.128,3.57,2.7s2.964,1.187,3.732,2.511c1.548,2.673-.992,6.432.669,9.035a4.786,4.786,0,0,0,3.269,1.9,31.879,31.879,0,0,0,3.212.287,12.9,12.9,0,0,0,1.527-.119,6.942,6.942,0,0,1,4.423.471c2.125,1.194,2.777,3.877,4.068,5.946a10.085,10.085,0,0,0,7.156,4.489,7.015,7.015,0,0,0,3.7-.244,1.584,1.584,0,0,0,.2-.128c.007,0,.012-.01.018-.018.133-.151.3-.342.373-.447a.167.167,0,0,0,.037-.063c.376-1.386-.238-2.829-.262-4.261a2.549,2.549,0,0,1,0-.26c.059-1.664.107-3.319.145-4.98q.117-4.582.091-9.174c-.021-1.986.218-4.159-.623-6.031-.93-2.058-3.244-2.1-4.118-4.121-.35-.805-.536-1.668-.875-2.481a7.112,7.112,0,0,0-6.058-4.228c-4.038-.206-7.664,3.064-11.7,2.767a30.428,30.428,0,0,1-3.092-.589c-3.272-.613-7.053.318-8.893,3.086A4.239,4.239,0,0,0,26.58,306.865Z" transform="translate(-26.309 -297.638)" fill="#27debf"/>
            </g>
          </g>
          <g id="Group_8710" data-name="Group 8710" transform="translate(3.708 5.133)">
            <path id="Path_5530" data-name="Path 5530" d="M62.533,326.352l.028-.007a.343.343,0,0,0,.243-.421c-5.581-20.94-27.643-23.966-32.8-23.592a.345.345,0,0,0,.05.688c5.049-.365,26.629,2.6,32.09,23.083A.343.343,0,0,0,62.533,326.352Z" transform="translate(-29.679 -302.303)" fill="#fff"/>
          </g>
          <g id="Group_8711" data-name="Group 8711" transform="translate(11.642 13.338)">
            <path id="Path_5531" data-name="Path 5531" d="M37.3,314.994a.346.346,0,0,0,.182-.1,18.341,18.341,0,0,1,15.015-4.23.345.345,0,0,0,.1-.682,19.042,19.042,0,0,0-15.6,4.426.345.345,0,0,0,.308.582Z" transform="translate(-36.889 -309.76)" fill="#fff"/>
          </g>
        </g>
      </g>
    </g>
    <g id="Device" transform="translate(213.43 192.006)">
      <g id="Device-2" data-name="Device">
        <g id="Group_8713" data-name="Group 8713" transform="translate(1.85)">
          <path id="Path_5532" data-name="Path 5532" d="M421.274,263.093l-78.59,45.477a6.983,6.983,0,0,1-6.32,0L199.649,229.63c-1.745-1.007-1.745-2.641,0-3.649L278.24,180.5a6.983,6.983,0,0,1,6.32,0l136.714,78.941C423.019,260.451,423.019,262.085,421.274,263.093Z" transform="translate(-198.341 -179.747)" fill="#37474f"/>
        </g>
        <g id="Group_8714" data-name="Group 8714" transform="translate(172.197 98.086)">
          <path id="Path_5533" data-name="Path 5533" d="M363.756,275.01a9.694,9.694,0,0,1-8.778,0c-2.424-1.4-2.424-3.667,0-5.068a9.7,9.7,0,0,1,8.778,0C366.18,271.342,366.18,273.611,363.756,275.01Z" transform="translate(-353.16 -268.892)" fill="#263238"/>
        </g>
        <g id="Group_8715" data-name="Group 8715" transform="translate(143.034 80.038)">
          <path id="Path_5534" data-name="Path 5534" d="M329.815,301.275,408.4,255.8c1.56-.9,1.722-2.3.491-3.309a7.062,7.062,0,0,1,2.669,5.133v2.971a6.982,6.982,0,0,1-3.16,5.473l-78.59,45.478a6.457,6.457,0,0,1-3.16.756V302.031A6.456,6.456,0,0,0,329.815,301.275Z" transform="translate(-326.655 -252.489)" fill="#455a64"/>
        </g>
        <g id="Group_8716" data-name="Group 8716" transform="translate(0 46.573)">
          <path id="Path_5535" data-name="Path 5535" d="M199.819,235.654a6.986,6.986,0,0,1-3.16-5.473v-2.972a7.065,7.065,0,0,1,2.672-5.134c-1.233,1.007-1.074,2.409.489,3.31l136.714,78.941a6.459,6.459,0,0,0,3.16.756V315.35a6.46,6.46,0,0,1-3.16-.756Z" transform="translate(-196.659 -222.075)" fill="#263238"/>
        </g>
        <g id="Group_8717" data-name="Group 8717" transform="translate(18.904 10.381)">
          <path id="Path_5536" data-name="Path 5536" d="M328.005,298.1l74.125-42.9a1.156,1.156,0,0,0,0-2.19L292.568,189.635a4.19,4.19,0,0,0-3.792,0l-74.151,42.9a1.156,1.156,0,0,0,0,2.19L324.214,298.1A4.186,4.186,0,0,0,328.005,298.1Z" transform="translate(-213.84 -189.181)" fill="#fafafa"/>
        </g>
        <g id="Group_8722" data-name="Group 8722" transform="translate(30.157 16.393)">
          <g id="Group_8718" data-name="Group 8718">
            <path id="Path_5537" data-name="Path 5537" d="M225.054,233.922,260.5,254.4a5.268,5.268,0,0,0,4.764,0l62.278-35.954c1.316-.759,1.316-1.992,0-2.751L292.1,195.216a5.264,5.264,0,0,0-4.764,0l-62.278,35.957C223.738,231.931,223.738,233.162,225.054,233.922Z" transform="translate(-224.067 -194.646)" fill="#ebebeb"/>
          </g>
          <g id="Group_8721" data-name="Group 8721" transform="translate(21.393 6.24)">
            <g id="Group_8719" data-name="Group 8719" transform="translate(0 21.344)">
              <path id="Path_5538" data-name="Path 5538" d="M249.141,221.618l9.1,1.781a3,3,0,0,0,1.692-.155l7.7-3.316c1.222-.527,2.961-.015,2.941.865l-.123,5.544c-.008.35.283.68.778.881l7.842,3.2c1.244.508.94,1.621-.517,1.883l-9.172,1.646a1.684,1.684,0,0,0-1.21.7l-2.851,5.295c-.453.841-2.38,1.017-3.261.3l-5.544-4.528a2.464,2.464,0,0,0-1.526-.449l-9.6.072c-1.525.011-2.411-.992-1.5-1.7l5.744-4.444a.722.722,0,0,0,.268-.976l-3.085-5.252C246.317,222.132,247.7,221.336,249.141,221.618Z" transform="translate(-243.51 -219.715)" fill="#fafafa"/>
            </g>
            <g id="Group_8720" data-name="Group 8720" transform="translate(25.166)">
              <path id="Path_5539" data-name="Path 5539" d="M267.077,211.969l19.49-11.252a2.86,2.86,0,0,1,2.552-.176c.621.359.483,1.019-.307,1.474l-19.488,11.252a2.865,2.865,0,0,1-2.553.176C266.151,213.085,266.287,212.425,267.077,211.969Z" transform="translate(-266.382 -200.316)" fill="#fafafa"/>
              <path id="Path_5540" data-name="Path 5540" d="M271.54,214.548,291.03,203.3a2.863,2.863,0,0,1,2.552-.176c.621.359.483,1.019-.307,1.474l-19.488,11.252a2.862,2.862,0,0,1-2.553.176C270.614,215.664,270.75,215,271.54,214.548Z" transform="translate(-265.935 -200.058)" fill="#fafafa"/>
              <path id="Path_5541" data-name="Path 5541" d="M276,217.127l19.49-11.252a2.863,2.863,0,0,1,2.552-.176c.619.359.483,1.019-.307,1.474l-19.488,11.253a2.865,2.865,0,0,1-2.553.175C275.077,218.244,275.213,217.584,276,217.127Z" transform="translate(-265.487 -199.799)" fill="#fafafa"/>
              <path id="Path_5542" data-name="Path 5542" d="M280.466,219.707l19.488-11.253a2.869,2.869,0,0,1,2.553-.176c.619.359.483,1.02-.307,1.476l-19.488,11.252a2.865,2.865,0,0,1-2.553.176C279.54,220.823,279.676,220.163,280.466,219.707Z" transform="translate(-265.039 -199.54)" fill="#fafafa"/>
              <path id="Path_5543" data-name="Path 5543" d="M284.929,222.286l19.488-11.252a2.862,2.862,0,0,1,2.553-.176c.619.359.483,1.019-.307,1.474l-19.488,11.252a2.865,2.865,0,0,1-2.553.176C284,223.4,284.139,222.742,284.929,222.286Z" transform="translate(-264.592 -199.282)" fill="#fafafa"/>
              <path id="Path_5544" data-name="Path 5544" d="M289.392,224.865l19.488-11.252a2.865,2.865,0,0,1,2.553-.176c.619.359.483,1.019-.307,1.474l-19.488,11.253a2.865,2.865,0,0,1-2.553.175C288.466,225.981,288.6,225.321,289.392,224.865Z" transform="translate(-264.144 -199.023)" fill="#fafafa"/>
            </g>
          </g>
          <path id="Path_5545" data-name="Path 5545" d="M264.76,255.448l1.615.932a3.16,3.16,0,0,0,2.859,0L306.6,234.8a.871.871,0,0,0,0-1.65l-1.613-.932a3.161,3.161,0,0,0-2.859,0L264.76,253.8A.871.871,0,0,0,264.76,255.448Z" transform="translate(-220.045 -190.911)" fill="#e0e0e0"/>
          <path id="Path_5546" data-name="Path 5546" d="M327.322,218.152l1.611.931a.871.871,0,0,1,0,1.65l-15.02,8.671a3.161,3.161,0,0,1-2.859,0l-1.612-.931a.871.871,0,0,1,0-1.65l15.021-8.671A3.161,3.161,0,0,1,327.322,218.152Z" transform="translate(-215.564 -192.322)" fill="#e0e0e0"/>
        </g>
        <g id="Group_8727" data-name="Group 8727" transform="translate(83.826 47.366)">
          <g id="Group_8723" data-name="Group 8723">
            <path id="Path_5547" data-name="Path 5547" d="M273.83,262.071l35.447,20.479a5.268,5.268,0,0,0,4.764,0L376.319,246.6c1.315-.759,1.315-1.99,0-2.751l-35.447-20.48a5.268,5.268,0,0,0-4.764,0L273.83,259.32C272.515,260.08,272.515,261.312,273.83,262.071Z" transform="translate(-272.844 -222.796)" fill="#ebebeb"/>
          </g>
          <g id="Group_8726" data-name="Group 8726" transform="translate(21.393 6.239)">
            <g id="Group_8724" data-name="Group 8724" transform="translate(0 21.344)">
              <path id="Path_5548" data-name="Path 5548" d="M297.918,249.769l9.1,1.78a3,3,0,0,0,1.692-.154l7.7-3.317c1.222-.527,2.96-.015,2.94.866l-.122,5.544c-.008.35.283.679.778.881l7.841,3.2c1.246.508.941,1.621-.516,1.883l-9.172,1.645a1.687,1.687,0,0,0-1.21.7l-2.851,5.295c-.453.842-2.38,1.018-3.261.3l-5.544-4.528a2.459,2.459,0,0,0-1.527-.449l-9.6.07c-1.526.012-2.411-.992-1.5-1.7l5.745-4.444a.722.722,0,0,0,.267-.977l-3.084-5.252C295.094,250.281,296.473,249.486,297.918,249.769Z" transform="translate(-292.287 -247.864)" fill="#fafafa"/>
            </g>
            <g id="Group_8725" data-name="Group 8725" transform="translate(25.167)">
              <path id="Path_5549" data-name="Path 5549" d="M315.854,240.118l19.488-11.252a2.865,2.865,0,0,1,2.553-.176c.619.359.483,1.019-.307,1.474L318.1,241.418a2.865,2.865,0,0,1-2.553.175C314.928,241.234,315.064,240.575,315.854,240.118Z" transform="translate(-315.159 -228.466)" fill="#fafafa"/>
              <path id="Path_5550" data-name="Path 5550" d="M320.317,242.7l19.488-11.253a2.865,2.865,0,0,1,2.553-.176c.619.359.483,1.019-.307,1.475L322.563,244a2.865,2.865,0,0,1-2.553.176C319.391,243.814,319.527,243.154,320.317,242.7Z" transform="translate(-314.712 -228.207)" fill="#fafafa"/>
              <path id="Path_5551" data-name="Path 5551" d="M324.78,245.277l19.488-11.252a2.862,2.862,0,0,1,2.553-.176c.62.359.483,1.019-.307,1.474l-19.488,11.252a2.865,2.865,0,0,1-2.553.176C323.853,246.393,323.99,245.733,324.78,245.277Z" transform="translate(-314.264 -227.948)" fill="#fafafa"/>
              <path id="Path_5552" data-name="Path 5552" d="M329.243,247.856,348.732,236.6a2.865,2.865,0,0,1,2.553-.176c.619.359.483,1.019-.307,1.474l-19.488,11.252a2.862,2.862,0,0,1-2.553.176C328.316,248.972,328.453,248.312,329.243,247.856Z" transform="translate(-313.816 -227.69)" fill="#fafafa"/>
              <path id="Path_5553" data-name="Path 5553" d="M333.705,250.435l19.49-11.252a2.865,2.865,0,0,1,2.553-.176c.619.359.482,1.019-.307,1.474l-19.488,11.253a2.865,2.865,0,0,1-2.553.175C332.779,251.552,332.916,250.892,333.705,250.435Z" transform="translate(-313.369 -227.431)" fill="#fafafa"/>
              <path id="Path_5554" data-name="Path 5554" d="M338.168,253.015l19.49-11.253a2.865,2.865,0,0,1,2.553-.175c.619.358.482,1.019-.307,1.474l-19.488,11.252a2.865,2.865,0,0,1-2.553.176C337.242,254.131,337.379,253.471,338.168,253.015Z" transform="translate(-312.921 -227.172)" fill="#fafafa"/>
            </g>
          </g>
          <path id="Path_5555" data-name="Path 5555" d="M313.537,283.6l1.615.933a3.157,3.157,0,0,0,2.859,0l37.363-21.575a.871.871,0,0,0,0-1.65l-1.614-.932a3.161,3.161,0,0,0-2.859,0l-37.365,21.576A.87.87,0,0,0,313.537,283.6Z" transform="translate(-268.822 -219.061)" fill="#e0e0e0"/>
          <path id="Path_5556" data-name="Path 5556" d="M376.1,246.3l1.612.93a.871.871,0,0,1,0,1.65l-15.02,8.671a3.157,3.157,0,0,1-2.859,0l-1.611-.931a.871.871,0,0,1,0-1.65l15.02-8.67A3.154,3.154,0,0,1,376.1,246.3Z" transform="translate(-264.341 -220.472)" fill="#e0e0e0"/>
        </g>
        <g id="Group_8728" data-name="Group 8728" transform="translate(46.761 25.547)">
          <path id="Path_5557" data-name="Path 5557" d="M241.5,204.315a2.137,2.137,0,0,1-1.937,0,.59.59,0,0,1,0-1.118,2.138,2.138,0,0,1,1.937,0A.59.59,0,0,1,241.5,204.315Z" transform="translate(-239.158 -202.965)" fill="#263238"/>
        </g>
        <g id="Group_8731" data-name="Group 8731" transform="translate(41.327 22.546)">
          <g id="Group_8729" data-name="Group 8729" transform="translate(0 10.435)">
            <path id="Path_5558" data-name="Path 5558" d="M238.9,212.422a4.284,4.284,0,0,1-3.874,0,1.18,1.18,0,0,1,0-2.237,4.277,4.277,0,0,1,3.874,0A1.181,1.181,0,0,1,238.9,212.422Z" transform="translate(-234.219 -209.721)" fill="#263238"/>
          </g>
          <g id="Group_8730" data-name="Group 8730" transform="translate(6.897)">
            <path id="Path_5559" data-name="Path 5559" d="M241,209.48c-.713-.413-.676-1.1.086-1.54l12.744-7.358a2.953,2.953,0,0,1,2.668-.05c.713.412.676,1.1-.085,1.54l-12.745,7.358A2.953,2.953,0,0,1,241,209.48Z" transform="translate(-240.488 -200.238)" fill="#263238"/>
          </g>
        </g>
      </g>
    </g>
    <g id="Newspaper" transform="translate(57.43 98.873)">
      <g id="News_Paper" data-name="News Paper">
        <path id="Path_5560" data-name="Path 5560" d="M228.395,112.182v2.586l-8.935,5.16h-.01l-13.4,7.746-118.293,68.3a4.914,4.914,0,0,0-1.682,1.773,4.809,4.809,0,0,0-.7,2.354V357.328c0,8.55-6.009,12.015-13.4,7.735S58.552,350.4,58.552,341.846V184.614a5.283,5.283,0,0,1,2.388-4.126l131.7-76.041,12.729-7.35a4.859,4.859,0,0,1,.682,2.367l.012,2.4L65.4,183.239a4.692,4.692,0,0,0-1.594,1.65,4.847,4.847,0,0,0-.781,2.476V344.432c0,5.7,4,12.62,8.944,15.471s8.935.539,8.935-5.161V197.51a5.229,5.229,0,0,1,2.388-4.126l144.447-83.4A4.594,4.594,0,0,1,228.395,112.182Z" transform="translate(-54.085 -94.904)" fill="#e0e0e0"/>
        <path id="Path_5561" data-name="Path 5561" d="M214.165,104.142v7.57L77.993,190.339a5.275,5.275,0,0,0-2.388,4.126V351.7c0,2.85-1.992,4.005-4.456,2.575a9.836,9.836,0,0,1-4.467-7.735V189.3a4.912,4.912,0,0,1,.694-2.354,5.1,5.1,0,0,1,1.682-1.773L213.5,101.787A4.945,4.945,0,0,1,214.165,104.142Z" transform="translate(-53.269 -94.433)" fill="#e0e0e0"/>
        <g id="Group_8732" data-name="Group 8732" transform="translate(0 84.781)">
          <path id="Path_5562" data-name="Path 5562" d="M90.935,192.8a4.83,4.83,0,0,0-.694,2.344V351.021a25.424,25.424,0,0,1-.219,3.389c-.045.3-.088.583-.132.858s-.1.517-.155.781c-.055.232-.109.462-.175.682s-.111.429-.176.638a11.027,11.027,0,0,1-4.8,6.448c-3.2,1.837-7.492,1.619-12.213-1.111-9.881-5.7-17.88-20.178-17.88-32.327V174.5a4.83,4.83,0,0,1,.694-2.344l4.478,2.576a4.8,4.8,0,0,0-.705,2.354V334.318c0,8.549,6.008,18.947,13.413,23.216s13.4.815,13.4-7.735V192.567a4.809,4.809,0,0,1,.7-2.354Z" transform="translate(-54.492 -172.157)" fill="#ebebeb"/>
          <path id="Path_5563" data-name="Path 5563" d="M81.185,187.164a4.873,4.873,0,0,0-.692,2.344V346.739c0,5.7-4.006,8.01-8.935,5.161s-8.944-9.771-8.944-15.471V179.363a4.847,4.847,0,0,1,.781-2.476l4.39,2.532a4.912,4.912,0,0,0-.694,2.354V339a9.836,9.836,0,0,0,4.467,7.735c2.465,1.43,4.456.275,4.456-2.575V186.933a4.818,4.818,0,0,1,.7-2.354Z" transform="translate(-53.678 -171.683)" fill="#ebebeb"/>
        </g>
        <g id="Group_8733" data-name="Group 8733" transform="translate(0.694)">
          <path id="Path_5564" data-name="Path 5564" d="M205.708,97.3l-12.729,7.35-131.7,76.041a4.844,4.844,0,0,0-1.682,1.773l-4.478-2.576a4.857,4.857,0,0,1,1.683-1.782c15.161-8.747,98.729-57.006,131.7-76.041l2.543-1.474,2.52-1.452,2.21-1.276,1.31-.759,2.432-1.4a5.107,5.107,0,0,1,4.621-.087A4.447,4.447,0,0,1,205.708,97.3Z" transform="translate(-55.123 -95.104)" fill="#fafafa"/>
          <path id="Path_5565" data-name="Path 5565" d="M234.138,113.707v.011l-12.732,7.351-22.346,12.894L89.714,197.1a4.974,4.974,0,0,0-1.694,1.782L83.563,196.3a4.914,4.914,0,0,1,1.682-1.773l118.293-68.3,13.4-7.746h.01l8.935-5.16,2.078-1.2.166-.1a5.1,5.1,0,0,1,4.4-.022c.021.011.032.011.043.022a2.5,2.5,0,0,1,.232.143A4.73,4.73,0,0,1,234.138,113.707Z" transform="translate(-52.271 -93.458)" fill="#fafafa"/>
          <path id="Path_5566" data-name="Path 5566" d="M213.832,101.987,69.4,185.378a5.1,5.1,0,0,0-1.682,1.773l-4.39-2.532a4.692,4.692,0,0,1,1.594-1.65L205.58,101.591l2.067-1.2a5.113,5.113,0,0,1,4.622-.088A4.567,4.567,0,0,1,213.832,101.987Z" transform="translate(-54.301 -94.633)" fill="#fafafa"/>
          <path id="Path_5567" data-name="Path 5567" d="M226.041,109.005l-144.447,83.4a4.906,4.906,0,0,0-1.7,1.782l-4.467-2.585a4.865,4.865,0,0,1,1.683-1.773l136.172-78.627,6.558-3.784a5.108,5.108,0,0,1,4.622-.078A4.421,4.421,0,0,1,226.041,109.005Z" transform="translate(-53.086 -93.928)" fill="#fafafa"/>
        </g>
        <g id="Group_8734" data-name="Group 8734" transform="translate(29.882 20.26)">
          <path id="Path_5568" data-name="Path 5568" d="M235.012,115.872V271.75c0,6.393-2.213,10.871-5.756,12.851L81.65,369.816a11.266,11.266,0,0,0,5.186-7.2c.066-.22.12-.45.175-.682.056-.264.1-.516.155-.781s.087-.56.132-.858a25.424,25.424,0,0,0,.219-3.389V201.023a4.83,4.83,0,0,1,.694-2.344,4.974,4.974,0,0,1,1.694-1.782l109.347-63.135L221.6,120.868l12.732-7.351A4.845,4.845,0,0,1,235.012,115.872Z" transform="translate(-81.65 -113.517)" fill="#f5f5f5"/>
        </g>
        <path id="Path_5569" data-name="Path 5569" d="M101.554,192.837,123.606,180.1c1.316-.759,2.382-.143,2.382,1.375V212.1a5.27,5.27,0,0,1-2.382,4.126l-22.053,12.732c-1.315.759-2.381.144-2.382-1.375V196.963A5.267,5.267,0,0,1,101.554,192.837Z" transform="translate(-50.011 -86.611)" fill="#455a64"/>
        <path id="Path_5570" data-name="Path 5570" d="M99.173,241.46l120.674-69.672v5.161L99.173,246.62Z" transform="translate(-50.011 -87.413)" fill="#27debf"/>
        <path id="Path_5571" data-name="Path 5571" d="M99.173,241.46l120.674-69.672v5.161L99.173,246.62Z" transform="translate(-50.011 -87.413)" fill="#fff" opacity="0.4"/>
        <g id="Group_8741" data-name="Group 8741" transform="translate(49.162 100.487)">
          <path id="Path_5572" data-name="Path 5572" d="M100.6,249.709l23.958-13.832c.789-.456,1.429-.087,1.429.825v48.307a3.159,3.159,0,0,1-1.429,2.476L100.6,301.317c-.79.457-1.429.087-1.429-.825V252.184A3.158,3.158,0,0,1,100.6,249.709Z" transform="translate(-99.173 -181.492)" fill="#f0f0f0"/>
          <path id="Path_5573" data-name="Path 5573" d="M100.6,301.3l23.958-13.832c.789-.456,1.429-.086,1.429.825v37.8L99.173,341.582v-37.8A3.16,3.16,0,0,1,100.6,301.3Z" transform="translate(-99.173 -176.317)" fill="#f0f0f0"/>
          <path id="Path_5574" data-name="Path 5574" d="M129.036,233.293l23.958-13.833c.79-.456,1.429-.086,1.429.825v63.791a3.156,3.156,0,0,1-1.429,2.476l-23.958,13.833c-.789.456-1.429.086-1.429-.825V235.768A3.159,3.159,0,0,1,129.036,233.293Z" transform="translate(-96.321 -183.138)" fill="#f0f0f0"/>
          <path id="Path_5575" data-name="Path 5575" d="M157.471,216.876l23.958-13.833c.789-.456,1.429-.086,1.429.825v48.31a3.163,3.163,0,0,1-1.429,2.476l-23.958,13.832c-.79.456-1.429.086-1.429-.825V219.351A3.156,3.156,0,0,1,157.471,216.876Z" transform="translate(-93.469 -184.785)" fill="#f0f0f0"/>
          <path id="Path_5576" data-name="Path 5576" d="M185.905,200.459l23.958-13.832c.79-.457,1.429-.087,1.429.825v63.792a3.158,3.158,0,0,1-1.429,2.476l-23.958,13.832c-.789.457-1.429.087-1.429-.825V202.934A3.159,3.159,0,0,1,185.905,200.459Z" transform="translate(-90.618 -186.431)" fill="#f0f0f0"/>
          <path id="Path_5577" data-name="Path 5577" d="M129.036,298.959l23.958-13.832c.79-.456,1.429-.086,1.429.825v22.319l-26.817,15.482V301.434A3.163,3.163,0,0,1,129.036,298.959Z" transform="translate(-96.321 -176.552)" fill="#f0f0f0"/>
          <path id="Path_5578" data-name="Path 5578" d="M156.041,270.947v37.8l26.816-15.482v-37.8c0-.911-.64-1.281-1.43-.825L157.47,268.472A3.159,3.159,0,0,0,156.041,270.947Z" transform="translate(-93.469 -179.61)" fill="#f0f0f0"/>
          <path id="Path_5579" data-name="Path 5579" d="M185.905,266.126l23.958-13.832c.789-.456,1.429-.086,1.429.825v22.32l-26.816,15.482V268.6A3.16,3.16,0,0,1,185.905,266.126Z" transform="translate(-90.618 -179.845)" fill="#f0f0f0"/>
          <path id="Path_5580" data-name="Path 5580" d="M133.1,300.847l15.019-8.671c.79-.457,1.429-.087,1.429.825v12.181a3.156,3.156,0,0,1-1.429,2.476l-15.02,8.671c-.789.456-1.429.087-1.429-.825V303.323A3.161,3.161,0,0,1,133.1,300.847Z" transform="translate(-95.914 -175.845)" fill="#e0e0e0"/>
          <path id="Path_5581" data-name="Path 5581" d="M189.967,268.015l15.02-8.673c.789-.456,1.429-.086,1.429.825V272.35a3.159,3.159,0,0,1-1.429,2.476l-15.02,8.671c-.79.456-1.429.087-1.429-.825V270.491A3.162,3.162,0,0,1,189.967,268.015Z" transform="translate(-90.21 -179.138)" fill="#e0e0e0"/>
          <g id="Group_8735" data-name="Group 8735" transform="translate(4.468 61.931)">
            <path id="Path_5582" data-name="Path 5582" d="M104.664,251.584l15.019-8.673c.789-.456,1.429-.086,1.429.825v12.182a3.161,3.161,0,0,1-1.429,2.476l-15.02,8.671c-.789.456-1.429.086-1.429-.825V254.06A3.159,3.159,0,0,1,104.664,251.584Z" transform="translate(-103.234 -242.717)" fill="#e0e0e0"/>
            <path id="Path_5583" data-name="Path 5583" d="M104.187,268.3l15.973-9.222c.526-.3.953-.057.953.55v.381a2.107,2.107,0,0,1-.953,1.65l-15.972,9.22c-.526.3-.953.058-.953-.55v-.38A2.106,2.106,0,0,1,104.187,268.3Z" transform="translate(-103.234 -241.089)" fill="#e0e0e0"/>
            <path id="Path_5584" data-name="Path 5584" d="M104.187,272.986l15.973-9.222c.526-.3.953-.057.953.55v.381a2.107,2.107,0,0,1-.953,1.65l-15.972,9.222c-.526.3-.953.057-.953-.55v-.381A2.106,2.106,0,0,1,104.187,272.986Z" transform="translate(-103.234 -240.619)" fill="#e0e0e0"/>
            <path id="Path_5585" data-name="Path 5585" d="M104.187,277.676l15.973-9.222c.526-.3.953-.057.953.55v.381a2.107,2.107,0,0,1-.953,1.65l-15.972,9.222c-.526.3-.953.057-.953-.55v-.381A2.108,2.108,0,0,1,104.187,277.676Z" transform="translate(-103.234 -240.148)" fill="#e0e0e0"/>
            <path id="Path_5586" data-name="Path 5586" d="M104.187,282.366l15.973-9.222c.526-.3.953-.057.953.55v.381a2.107,2.107,0,0,1-.953,1.65l-15.972,9.222c-.526.3-.953.057-.953-.55v-.381A2.108,2.108,0,0,1,104.187,282.366Z" transform="translate(-103.234 -239.678)" fill="#e0e0e0"/>
            <path id="Path_5587" data-name="Path 5587" d="M104.187,287.056l15.973-9.22c.526-.3.953-.058.953.55v.38a2.107,2.107,0,0,1-.953,1.65l-15.972,9.222c-.526.3-.953.057-.953-.55v-.381A2.108,2.108,0,0,1,104.187,287.056Z" transform="translate(-103.234 -239.208)" fill="#e0e0e0"/>
          </g>
          <g id="Group_8736" data-name="Group 8736" transform="translate(35.754 43.867)">
            <path id="Path_5588" data-name="Path 5588" d="M133.1,235.166l15.019-8.671c.79-.456,1.429-.086,1.429.825V239.5a3.158,3.158,0,0,1-1.429,2.476L133.1,250.65c-.789.456-1.429.086-1.429-.825V237.643A3.163,3.163,0,0,1,133.1,235.166Z" transform="translate(-131.668 -226.3)" fill="#e0e0e0"/>
            <path id="Path_5589" data-name="Path 5589" d="M132.621,251.879l15.973-9.222c.526-.3.953-.057.953.55v.381a2.109,2.109,0,0,1-.953,1.65l-15.972,9.22c-.526.3-.953.058-.953-.55v-.38A2.1,2.1,0,0,1,132.621,251.879Z" transform="translate(-131.668 -224.672)" fill="#e0e0e0"/>
            <path id="Path_5590" data-name="Path 5590" d="M132.621,256.569l15.973-9.222c.526-.3.953-.057.953.55v.381a2.109,2.109,0,0,1-.953,1.65l-15.972,9.221c-.526.3-.953.058-.953-.55v-.38A2.1,2.1,0,0,1,132.621,256.569Z" transform="translate(-131.668 -224.202)" fill="#e0e0e0"/>
            <path id="Path_5591" data-name="Path 5591" d="M132.621,261.259l15.973-9.222c.526-.3.953-.057.953.55v.381a2.107,2.107,0,0,1-.953,1.65l-15.972,9.22c-.526.3-.953.058-.953-.55v-.38A2.1,2.1,0,0,1,132.621,261.259Z" transform="translate(-131.668 -223.731)" fill="#e0e0e0"/>
            <path id="Path_5592" data-name="Path 5592" d="M132.621,265.949l15.973-9.222c.526-.3.953-.057.953.55v.381a2.107,2.107,0,0,1-.953,1.65l-15.972,9.222c-.526.3-.953.057-.953-.551v-.38A2.1,2.1,0,0,1,132.621,265.949Z" transform="translate(-131.668 -223.261)" fill="#e0e0e0"/>
            <path id="Path_5593" data-name="Path 5593" d="M132.621,270.639l15.973-9.222c.526-.3.953-.057.953.55v.381a2.107,2.107,0,0,1-.953,1.65l-15.972,9.22c-.526.3-.953.058-.953-.55v-.38A2.1,2.1,0,0,1,132.621,270.639Z" transform="translate(-131.668 -222.791)" fill="#e0e0e0"/>
            <path id="Path_5594" data-name="Path 5594" d="M132.621,275.331l15.973-9.222c.526-.3.953-.057.953.55v.381a2.107,2.107,0,0,1-.953,1.65l-15.972,9.222c-.526.3-.953.057-.953-.55v-.381A2.1,2.1,0,0,1,132.621,275.331Z" transform="translate(-131.668 -222.32)" fill="#e0e0e0"/>
            <path id="Path_5595" data-name="Path 5595" d="M132.621,280.021l15.973-9.222c.526-.3.953-.057.953.55v.381a2.107,2.107,0,0,1-.953,1.65L132.622,282.6c-.526.3-.953.057-.953-.55v-.381A2.1,2.1,0,0,1,132.621,280.021Z" transform="translate(-131.668 -221.85)" fill="#e0e0e0"/>
            <path id="Path_5596" data-name="Path 5596" d="M132.621,284.712l15.973-9.222c.526-.3.953-.058.953.55v.38a2.107,2.107,0,0,1-.953,1.65l-15.972,9.222c-.526.3-.953.057-.953-.55v-.381A2.1,2.1,0,0,1,132.621,284.712Z" transform="translate(-131.668 -221.379)" fill="#e0e0e0"/>
          </g>
          <g id="Group_8737" data-name="Group 8737" transform="translate(4.468 118.707)">
            <path id="Path_5597" data-name="Path 5597" d="M104.664,303.184l15.019-8.671c.789-.456,1.429-.086,1.429.825V307.52A3.161,3.161,0,0,1,119.683,310l-15.02,8.671c-.789.456-1.429.086-1.429-.825V305.66A3.163,3.163,0,0,1,104.664,303.184Z" transform="translate(-103.234 -294.318)" fill="#e0e0e0"/>
            <path id="Path_5598" data-name="Path 5598" d="M104.187,319.9l15.973-9.222c.526-.3.953-.057.953.55v.381a2.109,2.109,0,0,1-.953,1.65l-15.972,9.22c-.526.3-.953.057-.953-.55v-.38A2.106,2.106,0,0,1,104.187,319.9Z" transform="translate(-103.234 -292.69)" fill="#e0e0e0"/>
            <path id="Path_5599" data-name="Path 5599" d="M104.187,324.587l15.973-9.222c.526-.3.953-.057.953.55v.381a2.109,2.109,0,0,1-.953,1.65l-15.972,9.22c-.526.3-.953.057-.953-.55v-.38A2.106,2.106,0,0,1,104.187,324.587Z" transform="translate(-103.234 -292.22)" fill="#e0e0e0"/>
            <path id="Path_5600" data-name="Path 5600" d="M104.187,329.277l15.973-9.222c.526-.3.953-.057.953.55v.381a2.107,2.107,0,0,1-.953,1.65l-15.972,9.22c-.526.3-.953.058-.953-.55v-.38A2.106,2.106,0,0,1,104.187,329.277Z" transform="translate(-103.234 -291.749)" fill="#e0e0e0"/>
          </g>
          <g id="Group_8738" data-name="Group 8738" transform="translate(67.042 25.806)">
            <path id="Path_5601" data-name="Path 5601" d="M161.533,218.752l15.019-8.673c.79-.456,1.429-.086,1.429.825v12.182a3.158,3.158,0,0,1-1.429,2.476l-15.019,8.671c-.79.456-1.429.086-1.429-.825V221.228A3.159,3.159,0,0,1,161.533,218.752Z" transform="translate(-160.104 -209.885)" fill="#e0e0e0"/>
            <path id="Path_5602" data-name="Path 5602" d="M161.057,235.464l15.972-9.222c.527-.3.953-.057.953.55v.381a2.1,2.1,0,0,1-.953,1.65l-15.972,9.222c-.526.3-.953.057-.953-.551v-.38A2.1,2.1,0,0,1,161.057,235.464Z" transform="translate(-160.104 -208.257)" fill="#e0e0e0"/>
            <path id="Path_5603" data-name="Path 5603" d="M161.057,240.154l15.972-9.222c.527-.3.953-.057.953.55v.381a2.1,2.1,0,0,1-.953,1.65l-15.972,9.222c-.526.3-.953.057-.953-.55V241.8A2.1,2.1,0,0,1,161.057,240.154Z" transform="translate(-160.104 -207.787)" fill="#e0e0e0"/>
            <path id="Path_5604" data-name="Path 5604" d="M161.057,244.844l15.972-9.222c.527-.3.953-.057.953.55v.381a2.1,2.1,0,0,1-.953,1.65l-15.972,9.222c-.526.3-.953.057-.953-.55v-.381A2.106,2.106,0,0,1,161.057,244.844Z" transform="translate(-160.104 -207.316)" fill="#e0e0e0"/>
            <path id="Path_5605" data-name="Path 5605" d="M161.057,249.534l15.972-9.222c.527-.3.953-.057.953.55v.381a2.1,2.1,0,0,1-.953,1.65l-15.972,9.222c-.526.3-.953.057-.953-.55v-.381A2.1,2.1,0,0,1,161.057,249.534Z" transform="translate(-160.104 -206.846)" fill="#e0e0e0"/>
            <path id="Path_5606" data-name="Path 5606" d="M161.057,254.225,177.029,245c.527-.3.953-.058.953.55v.38a2.1,2.1,0,0,1-.953,1.65l-15.972,9.222c-.526.3-.953.057-.953-.55v-.38A2.1,2.1,0,0,1,161.057,254.225Z" transform="translate(-160.104 -206.376)" fill="#e0e0e0"/>
          </g>
          <g id="Group_8739" data-name="Group 8739" transform="translate(98.328 7.742)">
            <path id="Path_5607" data-name="Path 5607" d="M189.967,202.334l15.019-8.671c.79-.456,1.429-.086,1.429.825V206.67a3.158,3.158,0,0,1-1.429,2.476l-15.019,8.671c-.79.456-1.429.086-1.429-.825V204.81A3.163,3.163,0,0,1,189.967,202.334Z" transform="translate(-188.538 -193.468)" fill="#e0e0e0"/>
            <path id="Path_5608" data-name="Path 5608" d="M189.491,219.047l15.972-9.222c.527-.3.953-.057.953.55v.381a2.1,2.1,0,0,1-.953,1.649l-15.972,9.222c-.526.3-.953.057-.953-.55v-.38A2.107,2.107,0,0,1,189.491,219.047Z" transform="translate(-188.538 -191.84)" fill="#e0e0e0"/>
            <path id="Path_5609" data-name="Path 5609" d="M189.491,223.737l15.972-9.222c.527-.3.953-.057.953.55v.381a2.1,2.1,0,0,1-.953,1.65l-15.972,9.22c-.526.3-.953.058-.953-.55v-.38A2.107,2.107,0,0,1,189.491,223.737Z" transform="translate(-188.538 -191.37)" fill="#e0e0e0"/>
            <path id="Path_5610" data-name="Path 5610" d="M189.491,228.427l15.972-9.222c.527-.3.953-.057.953.55v.381a2.1,2.1,0,0,1-.953,1.65l-15.972,9.22c-.526.3-.953.058-.953-.55v-.38A2.107,2.107,0,0,1,189.491,228.427Z" transform="translate(-188.538 -190.899)" fill="#e0e0e0"/>
            <path id="Path_5611" data-name="Path 5611" d="M189.491,233.117l15.972-9.222c.527-.3.953-.057.953.55v.381a2.1,2.1,0,0,1-.953,1.65l-15.972,9.22c-.526.3-.953.058-.953-.55v-.38A2.107,2.107,0,0,1,189.491,233.117Z" transform="translate(-188.538 -190.429)" fill="#e0e0e0"/>
            <path id="Path_5612" data-name="Path 5612" d="M189.491,237.807l15.972-9.222c.527-.3.953-.057.953.55v.381a2.1,2.1,0,0,1-.953,1.65l-15.972,9.222c-.526.3-.953.057-.953-.55v-.381A2.107,2.107,0,0,1,189.491,237.807Z" transform="translate(-188.538 -189.959)" fill="#e0e0e0"/>
            <path id="Path_5613" data-name="Path 5613" d="M189.491,242.5l15.972-9.222c.527-.3.953-.057.953.55v.381a2.1,2.1,0,0,1-.953,1.65l-15.972,9.222c-.526.3-.953.057-.953-.55v-.381A2.107,2.107,0,0,1,189.491,242.5Z" transform="translate(-188.538 -189.488)" fill="#e0e0e0"/>
            <path id="Path_5614" data-name="Path 5614" d="M189.491,247.189l15.972-9.222c.527-.3.953-.057.953.55v.381a2.1,2.1,0,0,1-.953,1.65l-15.972,9.222c-.526.3-.953.057-.953-.55v-.381A2.109,2.109,0,0,1,189.491,247.189Z" transform="translate(-188.538 -189.018)" fill="#e0e0e0"/>
            <path id="Path_5615" data-name="Path 5615" d="M189.491,251.879l15.972-9.222c.527-.3.953-.057.953.55v.381a2.1,2.1,0,0,1-.953,1.65l-15.972,9.222c-.526.3-.953.057-.953-.55v-.381A2.109,2.109,0,0,1,189.491,251.879Z" transform="translate(-188.538 -188.547)" fill="#e0e0e0"/>
          </g>
          <g id="Group_8740" data-name="Group 8740" transform="translate(67.042 82.582)">
            <path id="Path_5616" data-name="Path 5616" d="M161.533,270.352l15.019-8.671c.79-.456,1.429-.087,1.429.825v12.182a3.16,3.16,0,0,1-1.429,2.476l-15.019,8.671c-.79.456-1.429.086-1.429-.825V272.828A3.163,3.163,0,0,1,161.533,270.352Z" transform="translate(-160.104 -261.486)" fill="#e0e0e0"/>
            <path id="Path_5617" data-name="Path 5617" d="M161.057,287.065l15.972-9.222c.527-.3.953-.057.953.55v.38a2.1,2.1,0,0,1-.953,1.65l-15.972,9.222c-.526.3-.953.057-.953-.55v-.38A2.1,2.1,0,0,1,161.057,287.065Z" transform="translate(-160.104 -259.858)" fill="#e0e0e0"/>
            <path id="Path_5618" data-name="Path 5618" d="M161.057,291.755l15.972-9.222c.527-.3.953-.057.953.55v.381a2.106,2.106,0,0,1-.953,1.65l-15.972,9.22c-.526.3-.953.058-.953-.55v-.38A2.1,2.1,0,0,1,161.057,291.755Z" transform="translate(-160.104 -259.388)" fill="#e0e0e0"/>
            <path id="Path_5619" data-name="Path 5619" d="M161.057,296.445l15.972-9.222c.527-.3.953-.057.953.55v.381a2.1,2.1,0,0,1-.953,1.65l-15.972,9.22c-.526.3-.953.057-.953-.55v-.38A2.1,2.1,0,0,1,161.057,296.445Z" transform="translate(-160.104 -258.917)" fill="#e0e0e0"/>
          </g>
        </g>
        <g id="Group_8742" data-name="Group 8742" transform="translate(85.279 43.403)">
          <path id="Path_5620" data-name="Path 5620" d="M132.329,207.728c-.22-.077-.331-.284-.331-.623a3.1,3.1,0,0,1,.2-.98l1.189-3.791a1.806,1.806,0,0,1,.5-.9.56.56,0,0,1,.528.051,3.943,3.943,0,0,0,3.769-.393,5.32,5.32,0,0,0,2.264-2.5,10.057,10.057,0,0,0,.71-4.05V172.3a4.525,4.525,0,0,1,.348-1.879,2.742,2.742,0,0,1,1.173-1.237l2.446-1.412q.827-.477,1.174-.12a2.228,2.228,0,0,1,.347,1.48v22.238a20.829,20.829,0,0,1-1.933,9.055,13.861,13.861,0,0,1-5.669,6.224Q135.073,208.942,132.329,207.728Z" transform="translate(-131.998 -131.245)" fill="#455a64"/>
          <path id="Path_5621" data-name="Path 5621" d="M150.578,195.371q-2.959-3.024-2.959-11.624a35.71,35.71,0,0,1,2.959-15.041,20.845,20.845,0,0,1,8.577-9.685q5.585-3.225,8.544-.2t2.959,11.625a35.722,35.722,0,0,1-2.959,15.04,20.792,20.792,0,0,1-8.544,9.665Q153.535,198.4,150.578,195.371ZM163.7,183.445a27.221,27.221,0,0,0,1.537-9.87q0-5.953-1.537-8.094t-4.544-.4a10.8,10.8,0,0,0-4.578,5.67,27.25,27.25,0,0,0-1.536,9.87q0,5.953,1.536,8.094t4.578.386A10.763,10.763,0,0,0,163.7,183.445Z" transform="translate(-130.431 -132.263)" fill="#455a64"/>
          <path id="Path_5622" data-name="Path 5622" d="M171.367,186.673a2.105,2.105,0,0,1-.347-1.452V155.043a4.529,4.529,0,0,1,.347-1.879,2.671,2.671,0,0,1,1.141-1.217l9.684-5.592q3.636-2.1,5.454-.58t1.818,6.051a15.261,15.261,0,0,1-.744,4.7,11.52,11.52,0,0,1-2.033,3.87q3.4-.234,3.4,5.719a19.439,19.439,0,0,1-.875,5.746,17.029,17.029,0,0,1-2.644,5.218,14.355,14.355,0,0,1-4.38,3.876l-9.684,5.592Q171.714,187.007,171.367,186.673Zm9.9-25.79a5.162,5.162,0,0,0,2.049-2.2,7.374,7.374,0,0,0,.727-3.372q0-2.084-.677-2.585t-2.1.32l-4.793,2.768v7.836Zm.529,14.146a5.133,5.133,0,0,0,2.164-2.445,8.647,8.647,0,0,0,.711-3.541q0-2.187-.826-2.806t-2.314.243l-5.057,2.919v8.7Z" transform="translate(-128.084 -133.488)" fill="#455a64"/>
          <path id="Path_5623" data-name="Path 5623" d="M193.207,174.549a5.941,5.941,0,0,1-3.818-.161.82.82,0,0,1-.5-.732,2.744,2.744,0,0,1,.164-.809l1.356-4.091a1.367,1.367,0,0,1,.43-.756.523.523,0,0,1,.5.019,6.321,6.321,0,0,0,2.809.108,9.37,9.37,0,0,0,3.206-1.188,7.924,7.924,0,0,0,2.843-2.585,6.47,6.47,0,0,0,.925-3.51,3.411,3.411,0,0,0-.446-1.982,2,2,0,0,0-1.323-.764,17.893,17.893,0,0,0-2.694-.175,13.044,13.044,0,0,1-3.586-.424,4.222,4.222,0,0,1-2.413-1.888,8.168,8.168,0,0,1-.942-4.367,16.914,16.914,0,0,1,2.28-8.722,16.441,16.441,0,0,1,6.016-6.043q4.923-2.842,7.536-1.5a.9.9,0,0,1,.5.732,2.745,2.745,0,0,1-.165.809l-1.356,4.089a1.351,1.351,0,0,1-.429.757.528.528,0,0,1-.5-.019q-2.015-.87-4.892.789a6.576,6.576,0,0,0-3.569,6.031,3.468,3.468,0,0,0,.414,1.924,1.823,1.823,0,0,0,1.14.767,12.027,12.027,0,0,0,2.281.184l.924.025a13.033,13.033,0,0,1,3.8.58,3.791,3.791,0,0,1,2.131,1.949,10.061,10.061,0,0,1,.744,4.406,16.722,16.722,0,0,1-2.165,8.3,16.37,16.37,0,0,1-6.263,6.236A17.573,17.573,0,0,1,193.207,174.549Z" transform="translate(-126.292 -134.55)" fill="#455a64"/>
        </g>
      </g>
    </g>
    <g id="Speech_Bubbles" data-name="Speech Bubbles" transform="translate(280.488 73.6)">
      <g id="Tab">
        <g id="Group_8743" data-name="Group 8743">
          <path id="Path_5624" data-name="Path 5624" d="M323.806,74.923h0l-.015-.009h0l-4.464-2.585h0a2,2,0,0,0-2.022.194L260.45,105.428a6.342,6.342,0,0,0-2.859,4.951V227.56a2.005,2.005,0,0,0,.835,1.843h0l.005,0h0l4.453,2.574.034.02.059.034v-.012a2.036,2.036,0,0,0,1.941-.224l15.021-8.673v9.026c0,1.6.253,2.524.667,2.777l0,.006,4.432,2.563.014.008.051.03v-.007c.506.271,1.243-.436,2.063-2.171L297.816,212.8l23.957-13.913a6.343,6.343,0,0,0,2.86-4.951V76.759A2.011,2.011,0,0,0,323.806,74.923Z" transform="translate(-257.591 -72.134)" fill="#27debf"/>
          <path id="Path_5625" data-name="Path 5625" d="M323.61,74.854a2.115,2.115,0,0,0-1.915.253l-56.863,32.91a5.731,5.731,0,0,0-1.981,2.08l-4.467-2.586a5.731,5.731,0,0,1,1.981-2.08l56.863-32.91a2.558,2.558,0,0,1,1.265-.385,1.509,1.509,0,0,1,.748.187Z" transform="translate(-257.511 -72.134)" fill="#fff" opacity="0.4"/>
          <path id="Path_5626" data-name="Path 5626" d="M278.565,221.408V221.4c-.407-.253-.66-1.177-.66-2.773V209.6l4.467-2.586V221.21c0,1.518.231,2.443.605,2.751Z" transform="translate(-255.554 -58.606)" opacity="0.2"/>
          <path id="Path_5627" data-name="Path 5627" d="M262.92,228.773c-.011,0-.022-.011-.033-.011l-4.456-2.575-.011-.011a2.012,2.012,0,0,1-.825-1.837V107.158a5.869,5.869,0,0,1,.869-2.872l4.467,2.586a5.87,5.87,0,0,0-.869,2.872V226.925A1.988,1.988,0,0,0,262.92,228.773Z" transform="translate(-257.591 -68.91)" opacity="0.1"/>
        </g>
        <g id="Group_8744" data-name="Group 8744" transform="translate(13.407 17.859)">
          <path id="Path_5628" data-name="Path 5628" d="M272.157,111.82l39.932-23.128c1.315-.761,2.38-.147,2.38,1.372v25.455a5.273,5.273,0,0,1-2.38,4.129l-39.932,23.129c-1.315.761-2.38.147-2.38-1.372V115.949A5.275,5.275,0,0,1,272.157,111.82Z" transform="translate(-269.776 -88.365)" fill="#455a64"/>
          <path id="Path_5629" data-name="Path 5629" d="M314.469,122.732a5.108,5.108,0,0,1-2.382,3.956l-39.928,23.053c-1.316.759-2.382.219-2.382-1.206a5.11,5.11,0,0,1,2.382-3.957l39.928-23.052C313.4,120.767,314.469,121.306,314.469,122.732Z" transform="translate(-269.776 -85.074)" fill="#455a64"/>
          <path id="Path_5630" data-name="Path 5630" d="M314.469,132.112a5.107,5.107,0,0,1-2.382,3.956l-39.928,23.053c-1.316.759-2.382.22-2.382-1.206a5.107,5.107,0,0,1,2.382-3.956l39.928-23.052C313.4,130.147,314.469,130.687,314.469,132.112Z" transform="translate(-269.776 -84.133)" fill="#455a64"/>
          <path id="Path_5631" data-name="Path 5631" d="M314.469,141.492a5.107,5.107,0,0,1-2.382,3.956L272.159,168.5c-1.316.759-2.382.22-2.382-1.206a5.107,5.107,0,0,1,2.382-3.956l39.928-23.052C313.4,139.527,314.469,140.067,314.469,141.492Z" transform="translate(-269.776 -83.192)" fill="#455a64"/>
          <path id="Path_5632" data-name="Path 5632" d="M314.469,150.872a5.107,5.107,0,0,1-2.382,3.956l-39.928,23.053c-1.316.759-2.382.22-2.382-1.206a5.107,5.107,0,0,1,2.382-3.956l39.928-23.052C313.4,148.907,314.469,149.447,314.469,150.872Z" transform="translate(-269.776 -82.251)" fill="#455a64"/>
          <path id="Path_5633" data-name="Path 5633" d="M269.776,184.178c0,1.425,1.066,1.964,2.382,1.2l4.174-2.41a5.113,5.113,0,0,0,2.383-3.957c0-1.425-1.066-1.964-2.382-1.2l-4.176,2.411A5.11,5.11,0,0,0,269.776,184.178Z" transform="translate(-269.776 -79.428)" fill="#455a64"/>
          <path id="Path_5634" data-name="Path 5634" d="M283.4,177.423c0,1.425,1.066,1.964,2.382,1.2l24.934-14.417a5.107,5.107,0,0,0,2.382-3.956c0-1.426-1.066-1.966-2.382-1.207l-24.935,14.419A5.1,5.1,0,0,0,283.4,177.423Z" transform="translate(-268.409 -81.31)" fill="#455a64"/>
          <path id="Path_5635" data-name="Path 5635" d="M269.776,193.559c0,1.425,1.066,1.964,2.382,1.2l4.174-2.411a5.111,5.111,0,0,0,2.383-3.956c0-1.425-1.066-1.964-2.382-1.2l-4.176,2.41A5.112,5.112,0,0,0,269.776,193.559Z" transform="translate(-269.776 -78.488)" fill="#455a64"/>
          <path id="Path_5636" data-name="Path 5636" d="M283.4,186.8c0,1.425,1.066,1.964,2.382,1.2l24.934-14.417a5.107,5.107,0,0,0,2.382-3.957c0-1.425-1.066-1.965-2.382-1.206l-24.935,14.419A5.1,5.1,0,0,0,283.4,186.8Z" transform="translate(-268.409 -80.369)" fill="#455a64"/>
          <path id="Path_5637" data-name="Path 5637" d="M269.776,202.939c0,1.426,1.066,1.965,2.382,1.206l4.174-2.411a5.111,5.111,0,0,0,2.383-3.956c0-1.425-1.066-1.965-2.382-1.2l-4.176,2.41A5.11,5.11,0,0,0,269.776,202.939Z" transform="translate(-269.776 -77.547)" fill="#455a64"/>
          <path id="Path_5638" data-name="Path 5638" d="M283.4,196.185c0,1.425,1.066,1.964,2.382,1.2l24.934-14.416a5.107,5.107,0,0,0,2.382-3.957c0-1.426-1.066-1.965-2.382-1.206l-24.935,14.418A5.106,5.106,0,0,0,283.4,196.185Z" transform="translate(-268.409 -79.429)" fill="#455a64"/>
        </g>
      </g>
      <g id="Tab-2" data-name="Tab" transform="translate(53.657 30.896)">
        <g id="Group_8745" data-name="Group 8745">
          <path id="Path_5639" data-name="Path 5639" d="M372.572,103h0l-.015-.009h0l-4.465-2.585h0a2,2,0,0,0-2.021.194l-56.856,32.907a6.342,6.342,0,0,0-2.859,4.951V255.64a2.006,2.006,0,0,0,.836,1.843h0l0,0h0l4.453,2.575.034.02.058.034V260.1a2.038,2.038,0,0,0,1.942-.224l15.021-8.673v9.026c0,1.6.252,2.525.667,2.777l0,.005,4.433,2.563.013.008.052.03v-.007c.505.271,1.242-.436,2.062-2.171l10.652-22.553,23.958-13.913a6.342,6.342,0,0,0,2.859-4.951V104.839A2.012,2.012,0,0,0,372.572,103Z" transform="translate(-306.357 -100.214)" fill="#27debf"/>
          <path id="Path_5640" data-name="Path 5640" d="M372.377,102.934a2.115,2.115,0,0,0-1.915.253L313.6,136.1a5.731,5.731,0,0,0-1.981,2.08l-4.467-2.586a5.731,5.731,0,0,1,1.981-2.08L366,100.6a2.558,2.558,0,0,1,1.265-.385,1.509,1.509,0,0,1,.748.187Z" transform="translate(-306.277 -100.214)" fill="#fff" opacity="0.4"/>
          <path id="Path_5641" data-name="Path 5641" d="M327.332,249.488v-.011c-.407-.253-.66-1.177-.66-2.773v-9.022l4.467-2.586V249.29c0,1.518.231,2.443.605,2.751Z" transform="translate(-304.32 -86.686)" opacity="0.2"/>
          <path id="Path_5642" data-name="Path 5642" d="M311.687,256.853c-.011,0-.022-.011-.033-.011l-4.456-2.575-.011-.011a2.012,2.012,0,0,1-.825-1.837V135.238a5.87,5.87,0,0,1,.869-2.872l4.467,2.586a5.869,5.869,0,0,0-.869,2.872V255A1.988,1.988,0,0,0,311.687,256.853Z" transform="translate(-306.357 -96.99)" opacity="0.1"/>
        </g>
        <g id="Group_8746" data-name="Group 8746" transform="translate(13.408 17.859)">
          <path id="Path_5643" data-name="Path 5643" d="M320.924,139.9l39.932-23.128c1.314-.761,2.38-.147,2.38,1.372V143.6a5.277,5.277,0,0,1-2.38,4.129l-39.932,23.129c-1.315.761-2.381.147-2.381-1.372V144.029A5.275,5.275,0,0,1,320.924,139.9Z" transform="translate(-318.543 -116.445)" fill="#455a64"/>
          <path id="Path_5644" data-name="Path 5644" d="M363.236,150.812a5.109,5.109,0,0,1-2.382,3.956l-39.927,23.053c-1.316.759-2.382.219-2.382-1.206a5.11,5.11,0,0,1,2.382-3.957l39.927-23.052C362.17,148.847,363.236,149.386,363.236,150.812Z" transform="translate(-318.543 -113.154)" fill="#455a64"/>
          <path id="Path_5645" data-name="Path 5645" d="M363.236,160.192a5.107,5.107,0,0,1-2.382,3.956L320.926,187.2c-1.316.759-2.382.22-2.382-1.206a5.107,5.107,0,0,1,2.382-3.956l39.927-23.052C362.17,158.227,363.236,158.767,363.236,160.192Z" transform="translate(-318.543 -112.213)" fill="#455a64"/>
          <path id="Path_5646" data-name="Path 5646" d="M363.236,169.572a5.107,5.107,0,0,1-2.382,3.956l-39.927,23.053c-1.316.759-2.382.22-2.382-1.206a5.107,5.107,0,0,1,2.382-3.956l39.927-23.052C362.17,167.607,363.236,168.147,363.236,169.572Z" transform="translate(-318.543 -111.272)" fill="#455a64"/>
          <path id="Path_5647" data-name="Path 5647" d="M363.236,178.952a5.107,5.107,0,0,1-2.382,3.956l-39.927,23.053c-1.316.759-2.382.22-2.382-1.206a5.107,5.107,0,0,1,2.382-3.956l39.927-23.052C362.17,176.987,363.236,177.527,363.236,178.952Z" transform="translate(-318.543 -110.331)" fill="#455a64"/>
          <path id="Path_5648" data-name="Path 5648" d="M318.543,212.258c0,1.425,1.066,1.964,2.382,1.2l4.175-2.41a5.108,5.108,0,0,0,2.382-3.956c0-1.426-1.066-1.965-2.381-1.206l-4.176,2.411A5.107,5.107,0,0,0,318.543,212.258Z" transform="translate(-318.543 -107.508)" fill="#455a64"/>
          <path id="Path_5649" data-name="Path 5649" d="M332.17,205.5c0,1.425,1.067,1.964,2.383,1.2l24.934-14.416a5.11,5.11,0,0,0,2.382-3.957c0-1.426-1.066-1.966-2.382-1.206l-24.935,14.418A5.107,5.107,0,0,0,332.17,205.5Z" transform="translate(-317.176 -109.39)" fill="#455a64"/>
          <path id="Path_5650" data-name="Path 5650" d="M318.543,221.639c0,1.425,1.066,1.964,2.382,1.2l4.175-2.411a5.107,5.107,0,0,0,2.382-3.956c0-1.425-1.066-1.964-2.381-1.2l-4.176,2.41A5.109,5.109,0,0,0,318.543,221.639Z" transform="translate(-318.543 -106.568)" fill="#455a64"/>
          <path id="Path_5651" data-name="Path 5651" d="M332.17,214.884c0,1.425,1.067,1.964,2.383,1.2l24.934-14.417a5.107,5.107,0,0,0,2.382-3.957c0-1.425-1.066-1.965-2.382-1.206l-24.935,14.419A5.107,5.107,0,0,0,332.17,214.884Z" transform="translate(-317.176 -108.449)" fill="#455a64"/>
          <path id="Path_5652" data-name="Path 5652" d="M318.543,231.019c0,1.426,1.066,1.965,2.382,1.206l4.175-2.411a5.107,5.107,0,0,0,2.382-3.956c0-1.425-1.066-1.965-2.381-1.2l-4.176,2.41A5.108,5.108,0,0,0,318.543,231.019Z" transform="translate(-318.543 -105.627)" fill="#455a64"/>
          <path id="Path_5653" data-name="Path 5653" d="M332.17,224.265c0,1.425,1.067,1.964,2.383,1.2l24.934-14.417a5.107,5.107,0,0,0,2.382-3.957c0-1.426-1.066-1.965-2.382-1.206L334.552,220.31A5.107,5.107,0,0,0,332.17,224.265Z" transform="translate(-317.176 -107.509)" fill="#455a64"/>
        </g>
      </g>
    </g>
    <g id="Icons" transform="translate(427.79 57.518)">
      <g id="Group_8753" data-name="Group 8753">
        <g id="Group_8751" data-name="Group 8751">
          <g id="Group_8749" data-name="Group 8749">
            <g id="Group_8748" data-name="Group 8748">
              <g id="Group_8747" data-name="Group 8747">
                <path id="Path_5654" data-name="Path 5654" d="M422.167,61.865l-5.877-3.39-.007,0-.054-.031-.005.009c-2.609-1.472-6.189-1.25-10.149,1.035-7.974,4.6-14.439,15.8-14.439,25.011,0,4.6,1.612,7.826,4.216,9.338v0l.012.007v0l5.347,3.052,1.277-2.137a14.629,14.629,0,0,0,4.142-1.611c7.975-4.6,14.44-15.8,14.441-25.011a15.524,15.524,0,0,0-.452-3.688Z" transform="translate(-391.636 -57.518)" fill="#27debf"/>
              </g>
            </g>
          </g>
          <g id="Group_8750" data-name="Group 8750" transform="translate(0.002 0.001)">
            <path id="Path_5655" data-name="Path 5655" d="M391.638,83.418c0,4.6,1.609,7.827,4.212,9.338v.006l.016.005,5.349,3.056,1.277-2.137a14.753,14.753,0,0,0,4.142-1.614c4.267-2.462,8.1-6.822,10.747-11.746L396.438,68.237A30.015,30.015,0,0,0,391.638,83.418Z" transform="translate(-391.638 -56.444)" fill="#263238"/>
            <path id="Path_5656" data-name="Path 5656" d="M421.731,61.865l-5.876-3.391h-.011l-.055-.033-.006.011c-2.609-1.473-6.185-1.255-10.148,1.032A28.85,28.85,0,0,0,396,69.312L416.943,81.4a28.923,28.923,0,0,0,3.7-13.263,15.364,15.364,0,0,0-.457-3.69Z" transform="translate(-391.201 -57.519)" fill="#455a64"/>
          </g>
          <path id="Path_5657" data-name="Path 5657" d="M411.15,62.4c-7.975,4.6-14.44,15.8-14.44,25.011s6.464,12.941,14.439,8.337,14.441-15.8,14.441-25.011S419.126,57.791,411.15,62.4Z" transform="translate(-391.127 -57.226)" fill="#37474f"/>
        </g>
        <g id="Group_8752" data-name="Group 8752" transform="translate(15.54 10.671)">
          <path id="Path_5658" data-name="Path 5658" d="M411.292,69.338a2.638,2.638,0,0,1,1.336-.089,2.02,2.02,0,0,1,.963.508,2.415,2.415,0,0,1,.591.914,3.742,3.742,0,0,1,.233,1.1,1.026,1.026,0,0,1-.117.534.833.833,0,0,1-.3.354l-1.087.628c-.176.1-.308.127-.4.074a.709.709,0,0,1-.241-.281,1.235,1.235,0,0,0-.706-.633,1.852,1.852,0,0,0-1.406.37,4.207,4.207,0,0,0-.769.575,4.3,4.3,0,0,0-.637.75,3.778,3.778,0,0,0-.427.857,2.74,2.74,0,0,0-.155.9,1.438,1.438,0,0,0,.171.8.7.7,0,0,0,.551.281,3.536,3.536,0,0,0,.979-.1c.4-.088.884-.2,1.452-.338a5.307,5.307,0,0,1,1.577-.18,1.8,1.8,0,0,1,1.056.4,1.948,1.948,0,0,1,.591,1.01,6.442,6.442,0,0,1,.178,1.644,7.86,7.86,0,0,1-.232,1.88,9.11,9.11,0,0,1-.677,1.848,9.2,9.2,0,0,1-1.079,1.7,8.724,8.724,0,0,1-1.445,1.433V87.9a1.222,1.222,0,0,1-.124.526.788.788,0,0,1-.295.362l-1.259.726a.225.225,0,0,1-.295-.02.511.511,0,0,1-.124-.383V87.486a3.417,3.417,0,0,1-1.314.195,2.127,2.127,0,0,1-1.072-.349,2.167,2.167,0,0,1-.737-.9,3.781,3.781,0,0,1-.311-1.483,1.011,1.011,0,0,1,.117-.534.835.835,0,0,1,.3-.355l1.088-.627c.176-.1.31-.132.4-.09a.518.518,0,0,1,.233.3,2.663,2.663,0,0,0,.264.47.8.8,0,0,0,.419.308,1.349,1.349,0,0,0,.66.012,3.261,3.261,0,0,0,.987-.414,6.525,6.525,0,0,0,.9-.627,4.544,4.544,0,0,0,.762-.8,4.367,4.367,0,0,0,.528-.926,2.686,2.686,0,0,0,.2-1.038,1,1,0,0,0-.218-.735.873.873,0,0,0-.66-.194,5.562,5.562,0,0,0-1.095.178q-.654.162-1.507.32a4.513,4.513,0,0,1-1.36.1,1.6,1.6,0,0,1-.963-.413,2.14,2.14,0,0,1-.567-1.023,6.707,6.707,0,0,1-.186-1.747,7.521,7.521,0,0,1,.233-1.856,9.854,9.854,0,0,1,.644-1.8,8.929,8.929,0,0,1,.987-1.621A8.731,8.731,0,0,1,409.2,70.5V68.876a1.212,1.212,0,0,1,.124-.527.787.787,0,0,1,.295-.362l1.259-.726a.225.225,0,0,1,.295.021.515.515,0,0,1,.124.383Z" transform="translate(-405.759 -67.217)" fill="#fafafa"/>
        </g>
      </g>
      <g id="Group_8765" data-name="Group 8765" transform="translate(0 107.668)">
        <g id="Group_8758" data-name="Group 8758">
          <g id="Group_8756" data-name="Group 8756">
            <g id="Group_8755" data-name="Group 8755">
              <g id="Group_8754" data-name="Group 8754">
                <path id="Path_5659" data-name="Path 5659" d="M422.167,159.719l-5.877-3.39-.007,0-.054-.031-.005.009c-2.609-1.472-6.189-1.25-10.149,1.035-7.974,4.6-14.439,15.8-14.439,25.011,0,4.6,1.612,7.826,4.216,9.338v0l.012.007v0l5.347,3.052,1.277-2.137A14.629,14.629,0,0,0,406.632,191c7.975-4.6,14.44-15.8,14.441-25.011a15.524,15.524,0,0,0-.452-3.688Z" transform="translate(-391.636 -155.372)" fill="#27debf"/>
              </g>
            </g>
          </g>
          <g id="Group_8757" data-name="Group 8757" transform="translate(0.002 0.001)">
            <path id="Path_5660" data-name="Path 5660" d="M391.638,181.273c0,4.6,1.609,7.826,4.212,9.338v0l.016.005,5.349,3.056,1.277-2.137a14.753,14.753,0,0,0,4.142-1.614c4.267-2.462,8.1-6.822,10.747-11.746l-20.943-12.089A30.015,30.015,0,0,0,391.638,181.273Z" transform="translate(-391.638 -154.298)" fill="#263238"/>
            <path id="Path_5661" data-name="Path 5661" d="M421.731,159.719l-5.876-3.391h-.011l-.055-.033-.006.011c-2.609-1.473-6.185-1.255-10.148,1.032A28.85,28.85,0,0,0,396,167.166l20.943,12.089a28.923,28.923,0,0,0,3.7-13.263,15.364,15.364,0,0,0-.457-3.69Z" transform="translate(-391.201 -155.373)" fill="#455a64"/>
          </g>
          <path id="Path_5662" data-name="Path 5662" d="M411.15,160.25c-7.975,4.6-14.44,15.8-14.44,25.011s6.464,12.941,14.439,8.337,14.441-15.8,14.441-25.011S419.126,155.645,411.15,160.25Z" transform="translate(-391.127 -155.08)" fill="#37474f"/>
        </g>
        <g id="Group_8764" data-name="Group 8764" transform="translate(12.368 10.039)">
          <g id="Group_8763" data-name="Group 8763">
            <g id="Group_8759" data-name="Group 8759" transform="translate(0 1.077)">
              <path id="Path_5663" data-name="Path 5663" d="M417.877,179.492l-14.691,8.481c-.171.1-.309-.034-.309-.3V174.644a.815.815,0,0,1,.309-.655l14.691-8.482c.171-.1.309.035.309.3v13.032A.817.817,0,0,1,417.877,179.492Z" transform="translate(-402.877 -165.475)" fill="#fafafa"/>
            </g>
            <g id="Group_8760" data-name="Group 8760" transform="translate(4.453 1.096)">
              <path id="Path_5664" data-name="Path 5664" d="M413.019,168.937c-.171.1-.309-.035-.309-.3v-1.986l-5.167,2.984v1.985a.817.817,0,0,1-.309.655c-.171.1-.309-.035-.309-.3v-2.461a.815.815,0,0,1,.309-.654l5.785-3.34c.171-.1.309.035.309.3v2.461A.815.815,0,0,1,413.019,168.937Z" transform="translate(-406.924 -165.492)" fill="#fafafa"/>
            </g>
            <g id="Group_8761" data-name="Group 8761" transform="translate(4.453)">
              <path id="Path_5665" data-name="Path 5665" d="M413.019,166.576l-5.785,3.34c-.171.1-.309-.035-.309-.3v-1.095a.815.815,0,0,1,.309-.655l5.785-3.34c.171-.1.309.035.309.3v1.095A.815.815,0,0,1,413.019,166.576Z" transform="translate(-406.924 -164.496)" fill="#fafafa"/>
            </g>
            <g id="Group_8762" data-name="Group 8762" transform="translate(5.33 8.701)">
              <path id="Path_5666" data-name="Path 5666" d="M412.146,173.914l-4.2,2.426c-.124.072-.224-.025-.224-.217v-.8a.588.588,0,0,1,.224-.474l4.2-2.426c.123-.072.224.025.224.217v.8A.591.591,0,0,1,412.146,173.914Z" transform="translate(-407.721 -172.404)" fill="#37474f"/>
            </g>
          </g>
        </g>
      </g>
      <g id="Group_8769" data-name="Group 8769" transform="translate(0 53.834)">
        <g id="Group_8767" data-name="Group 8767">
          <path id="Path_5667" data-name="Path 5667" d="M422.167,110.792l-5.877-3.39-.007,0-.054-.031-.005.009c-2.609-1.472-6.189-1.25-10.149,1.035-7.974,4.6-14.439,15.8-14.439,25.011,0,4.6,1.612,7.826,4.216,9.338v0l.012.007h0l5.347,3.053,1.277-2.137a14.662,14.662,0,0,0,4.142-1.611c7.975-4.6,14.44-15.8,14.441-25.011a15.524,15.524,0,0,0-.452-3.688Z" transform="translate(-391.636 -106.445)" fill="#27debf"/>
          <g id="Group_8766" data-name="Group 8766" transform="translate(0.002 0.001)">
            <path id="Path_5668" data-name="Path 5668" d="M391.638,132.346c0,4.6,1.609,7.826,4.212,9.338v0l.016.005,5.349,3.056,1.277-2.137A14.753,14.753,0,0,0,406.634,141c4.267-2.462,8.1-6.822,10.747-11.746l-20.943-12.089A30.016,30.016,0,0,0,391.638,132.346Z" transform="translate(-391.638 -105.371)" fill="#263238"/>
            <path id="Path_5669" data-name="Path 5669" d="M421.731,110.792l-5.876-3.391h-.011l-.055-.033-.006.011c-2.609-1.473-6.185-1.255-10.148,1.032A28.85,28.85,0,0,0,396,118.239l20.943,12.089a28.923,28.923,0,0,0,3.7-13.263,15.364,15.364,0,0,0-.457-3.69Z" transform="translate(-391.201 -106.446)" fill="#455a64"/>
          </g>
          <path id="Path_5670" data-name="Path 5670" d="M411.15,111.323c-7.975,4.6-14.44,15.8-14.44,25.011s6.464,12.941,14.439,8.337,14.441-15.8,14.441-25.011S419.126,106.718,411.15,111.323Z" transform="translate(-391.127 -106.153)" fill="#37474f"/>
        </g>
        <g id="Group_8768" data-name="Group 8768" transform="translate(12.516 8.069)">
          <path id="Path_5671" data-name="Path 5671" d="M405.023,124.961c0-2.095,1.1-4.43,2.464-5.215s2.464.275,2.464,2.37-1.1,4.43-2.464,5.215S405.023,127.055,405.023,124.961Z" transform="translate(-402.809 -113.206)" fill="#fff"/>
          <path id="Path_5672" data-name="Path 5672" d="M412.066,134.817l-9.055,5.228.483-6.022c.206-2.571,1.562-5.19,3.169-6.118l1.752-1.011c1.606-.928,2.963.124,3.169,2.458Z" transform="translate(-403.011 -112.496)" fill="#fff"/>
          <path id="Path_5673" data-name="Path 5673" d="M410.438,119.252c0-2.095,1.1-4.43,2.464-5.215s2.464.276,2.464,2.371-1.1,4.43-2.464,5.215S410.438,121.347,410.438,119.252Z" transform="translate(-402.266 -113.778)" fill="#fff"/>
          <path id="Path_5674" data-name="Path 5674" d="M417.4,129.107l-5.555,3.207-.253-2.883c-.18-2.025-1.094-3.246-2.313-3.337a7.083,7.083,0,0,1,2.717-3.9l1.752-1.01c1.608-.929,2.964.122,3.17,2.457Z" transform="translate(-402.383 -113.069)" fill="#fff"/>
        </g>
      </g>
    </g>
    <g id="Magnifying_glass" data-name="Magnifying glass" transform="translate(154.022 313.962)">
      <g id="Magnifying_glass-2" data-name="Magnifying glass">
        <g id="Group_8771" data-name="Group 8771" transform="translate(61.673)">
          <path id="Path_5675" data-name="Path 5675" d="M290.918,317.254c0-6.825-4.51-13.65-13.529-18.857-18.037-10.414-47.282-10.414-65.32,0-9.019,5.207-13.528,12.032-13.528,18.856h0v12.572c0,6.824,4.509,13.649,13.528,18.856,18.038,10.414,47.283,10.414,65.321,0,9.018-5.207,13.528-12.032,13.528-18.856V317.253ZM214.3,302.266c8.055-4.651,18.861-7.212,30.426-7.212s22.372,2.561,30.428,7.212c7.284,4.205,11.294,9.527,11.294,14.988s-4.012,10.782-11.294,14.987c-8.055,4.651-18.861,7.212-30.428,7.212s-22.37-2.561-30.426-7.212c-7.283-4.205-11.295-9.527-11.295-14.987S207.019,306.471,214.3,302.266Z" transform="translate(-198.538 -290.586)" fill="#27debf"/>
          <path id="Path_5676" data-name="Path 5676" d="M212.066,336.11c18.038,10.414,47.283,10.414,65.321,0s18.038-27.3,0-37.713-47.283-10.414-65.321,0S194.029,325.7,212.066,336.11Zm-9.061-18.856c0-5.461,4.011-10.783,11.295-14.988,8.055-4.651,18.861-7.212,30.428-7.212s22.371,2.561,30.426,7.212c7.284,4.205,11.294,9.527,11.294,14.988s-4.012,10.782-11.294,14.987c-8.056,4.651-18.862,7.212-30.426,7.212s-22.372-2.561-30.428-7.212C207.017,328.036,203.005,322.714,203.005,317.254Z" transform="translate(-198.538 -290.586)" fill="#fff" opacity="0.3"/>
          <g id="Group_8770" data-name="Group 8770" transform="translate(4.464 4.466)">
            <path id="Path_5677" data-name="Path 5677" d="M202.6,316.846a12.391,12.391,0,0,0,1.8,6.289c1.831-3.172,5.057-6.146,9.5-8.7,8.05-4.655,18.859-7.219,30.429-7.219s22.37,2.564,30.419,7.219c4.44,2.555,7.665,5.529,9.505,8.7a12.467,12.467,0,0,0,1.8-6.289c0-5.459-4.012-10.783-11.3-14.99-8.049-4.647-18.859-7.21-30.419-7.21s-22.379,2.564-30.429,7.21C206.607,306.063,202.6,311.387,202.6,316.846Z" transform="translate(-202.595 -294.645)" fill="#27debf"/>
            <path id="Path_5678" data-name="Path 5678" d="M202.6,316.846a12.391,12.391,0,0,0,1.8,6.289c1.831-3.172,5.057-6.146,9.5-8.7,8.05-4.655,18.859-7.219,30.429-7.219s22.37,2.564,30.419,7.219c4.44,2.555,7.665,5.529,9.505,8.7a12.467,12.467,0,0,0,1.8-6.289c0-5.459-4.012-10.783-11.3-14.99-8.049-4.647-18.859-7.21-30.419-7.21s-22.379,2.564-30.429,7.21C206.607,306.063,202.6,311.387,202.6,316.846Z" transform="translate(-202.595 -294.645)" opacity="0.1"/>
          </g>
          <path id="Path_5679" data-name="Path 5679" d="M213.859,307.031c8.055-4.651,18.861-7.212,30.428-7.212s22.371,2.561,30.426,7.212c6.01,3.469,9.785,7.7,10.923,12.142-1.138,4.441-4.913,8.673-10.923,12.142-8.056,4.651-18.862,7.212-30.426,7.212s-22.372-2.561-30.428-7.212c-6.01-3.469-9.784-7.7-10.923-12.142C204.075,314.732,207.849,310.5,213.859,307.031Z" transform="translate(-198.097 -289.66)" fill="#fff" opacity="0.4"/>
          <path id="Path_5680" data-name="Path 5680" d="M233.844,341.123v12.561a60.477,60.477,0,0,1-21.772-7.057c-9.022-5.209-13.535-12.034-13.535-18.859V315.2a15.862,15.862,0,0,1,.555-4.118h.009c-2.19,8.12,2.135,16.715,12.971,22.977A60.657,60.657,0,0,0,233.844,341.123Z" transform="translate(-198.538 -288.531)" opacity="0.1"/>
        </g>
        <g id="Group_8775" data-name="Group 8775" transform="translate(0 47.46)">
          <g id="Group_8772" data-name="Group 8772" transform="translate(54.565)">
            <path id="Path_5681" data-name="Path 5681" d="M214.09,339.786a7.154,7.154,0,0,0-3.214-5.618,2.278,2.278,0,0,0-2.278-.24h0l-.009,0h0l-15.548,8.874-.011.005,0,0h0a2.279,2.279,0,0,0-.95,2.085,7.156,7.156,0,0,0,3.214,5.619,2.275,2.275,0,0,0,2.288.235h0l15.546-8.872h0A2.266,2.266,0,0,0,214.09,339.786Z" transform="translate(-192.078 -333.721)" fill="#37474f"/>
            <path id="Path_5682" data-name="Path 5682" d="M213,341.549a2.266,2.266,0,0,0,.966-2.095,6.142,6.142,0,0,0-.549-2.422L193.363,348.5a6.132,6.132,0,0,0,1.8,1.688,2.275,2.275,0,0,0,2.288.235L213,341.55Z" transform="translate(-191.949 -333.388)" fill="#263238"/>
          </g>
          <path id="Path_5683" data-name="Path 5683" d="M202.736,349.665a9.309,9.309,0,0,0-4.181-7.313,2.978,2.978,0,0,0-2.929-.325l0-.005-.043.023h0l-51.562,27.538,7.693,13.6,49.777-30.792A2.955,2.955,0,0,0,202.736,349.665Z" transform="translate(-142.334 -332.913)" fill="#27debf"/>
          <path id="Path_5684" data-name="Path 5684" d="M151.368,382.867l49.777-30.792a2.955,2.955,0,0,0,1.251-2.724,8.755,8.755,0,0,0-1.4-4.439l-53.6,30.945Z" transform="translate(-141.994 -332.598)" opacity="0.1"/>
          <g id="Group_8773" data-name="Group 8773" transform="translate(0 36.336)">
            <path id="Path_5685" data-name="Path 5685" d="M147.971,380.269a12.205,12.205,0,0,1-5.484-9.59c.014-3.524,2.493-4.944,5.537-3.17a12.21,12.21,0,0,1,5.485,9.59C153.493,380.621,151.015,382.04,147.971,380.269Z" transform="translate(-142.487 -366.745)" fill="#27debf"/>
          </g>
          <g id="Group_8774" data-name="Group 8774" transform="translate(0 36.336)" opacity="0.2">
            <path id="Path_5686" data-name="Path 5686" d="M147.971,380.269a12.205,12.205,0,0,1-5.484-9.59c.014-3.524,2.493-4.944,5.537-3.17a12.21,12.21,0,0,1,5.485,9.59C153.493,380.621,151.015,382.04,147.971,380.269Z" transform="translate(-142.487 -366.745)"/>
          </g>
        </g>
      </g>
    </g>
    <g id="Character" transform="translate(391.109 229.156)">
      <g id="Character-2" data-name="Character">
        <g id="Group_8776" data-name="Group 8776" transform="translate(58.166 30.798)">
          <path id="Path_5687" data-name="Path 5687" d="M424.993,271.276c.563-20.926-1.115-25.942-6.685-29.775l-2.159,12.125s2.538,14.291,2.266,19.049c-.239,4.181-.646,9.412-1.635,12.791a2.542,2.542,0,0,1-1.108,1.434,14.619,14.619,0,0,0-3.059,2.918c-.837.876-1.549,1.094-1.439,1.372a1.376,1.376,0,0,0,1.764.625,9.642,9.642,0,0,0,2.012-1.091,12.782,12.782,0,0,1-2.061,3.543c-1.989,2.438-2.077,3.937,1.94,3.972,2.516.022,4.526-1.531,6.419-7.076a45.218,45.218,0,0,0,1.769-6.228C423.978,279.447,424.9,274.645,424.993,271.276Z" transform="translate(-411.162 -241.501)" fill="#ffa8a7"/>
        </g>
        <path id="Path_5688" data-name="Path 5688" d="M413.395,240.065a8.033,8.033,0,0,1,8.61,4.348c2.335,4.177,2.907,11.361,3.173,18.5,0,0-4.639,3.879-10.2,1.972Z" transform="translate(-352.772 -210.857)" fill="#27debf"/>
        <g id="Group_8796" data-name="Group 8796" transform="translate(30.696)">
          <g id="Group_8783" data-name="Group 8783" transform="translate(0 65.044)">
            <g id="Group_8777" data-name="Group 8777" transform="translate(25.614 71.758)">
              <path id="Path_5689" data-name="Path 5689" d="M421.612,345.348c.423.161.529.965.593,2.564.048,1.21.308,3.323-1.109,3.744s-3.495.207-4.4-.934c-1.133-1.424-1.9-2.677-3.518-4.414-1.4-1.506-2.922-2.914-3.489-5.026-.512-1.91-.086-2.739,1.217-3.294,1.792-.764,4.607,1.732,6.011,2.125C418.123,340.45,421.19,345.189,421.612,345.348Z" transform="translate(-409.476 -337.843)" fill="#263238"/>
            </g>
            <g id="Group_8778" data-name="Group 8778" transform="translate(32.274 77.072)">
              <path id="Path_5690" data-name="Path 5690" d="M421.005,343.383v1.964a4.807,4.807,0,0,1-4.962.134c-.086-.189-.515-2.809-.515-2.809Z" transform="translate(-415.528 -342.672)" fill="#ffa8a7"/>
            </g>
            <g id="Group_8779" data-name="Group 8779" transform="translate(0 90.58)">
              <path id="Path_5691" data-name="Path 5691" d="M408.046,354.949s.563,1.708.867,3.2c.241,1.187.586,3.172.171,4.064s-2.037,1.469-4.551,1.45c-1.628-.012-4.166,1.094-5.9,2.063A15.611,15.611,0,0,1,391.2,366.9c-2.237-.263-4.554-1.56-4.916-2.487s.119-1.888,5.39-4.134c.048-.021,7.328-2.388,9.878-5.2Z" transform="translate(-386.196 -354.949)" fill="#263238"/>
            </g>
            <g id="Group_8780" data-name="Group 8780" transform="translate(15.358 88.458)">
              <path id="Path_5692" data-name="Path 5692" d="M406.646,353.02s-.008,1.457,0,2.29-.977,2.074-3.522,1.983c-1.789-.064-3.037-.545-2.966-2.017v-2.124Z" transform="translate(-400.154 -353.02)" fill="#ffa8a7"/>
            </g>
            <g id="Group_8781" data-name="Group 8781" transform="translate(8.122)">
              <path id="Path_5693" data-name="Path 5693" d="M424.484,324.35a53.341,53.341,0,0,0-2.319-10.227s.7-8.823,1.038-17.189c.363-9.036-.019-20.4.153-22.648,0,0-29.158-5.9-29.678,4.545s1.151,37.036,1.5,41.625,1.138,8.647,2.086,16.085c.935,7.34,3.558,24.674,3.558,24.674a6.887,6.887,0,0,0,6.488-.132s2.051-20.887,1.836-26.181a45.235,45.235,0,0,0-2.008-11.557s.552-8.613,1.041-16.105,1.006-11.09,1.119-14.349l.627-.311s.639,12.925.984,17.514,1.075,8.988,2.4,17.512c1.151,7.394,4.582,23.039,4.582,23.039,3.331,1.8,5.318-.237,5.318-.237S425.383,330.766,424.484,324.35Z" transform="translate(-393.577 -272.625)" fill="#37474f"/>
            </g>
            <g id="Group_8782" data-name="Group 8782" transform="translate(23.838 13.636)">
              <path id="Path_5694" data-name="Path 5694" d="M407.861,291.647s7.073-3.486,10.613-6.629c0,0-3.288,4.631-7.6,6.685,0,0-1.535,16.056-1.527,15.736l-.886-15.817Z" transform="translate(-407.861 -285.018)" fill="#263238"/>
            </g>
          </g>
          <g id="Group_8785" data-name="Group 8785" transform="translate(17.542 24.005)">
            <g id="Group_8784" data-name="Group 8784">
              <path id="Path_5695" data-name="Path 5695" d="M402.139,237.222l1.725,9.5,8.578-.627-1.8-10.765Z" transform="translate(-402.139 -235.327)" fill="#ffa8a7"/>
            </g>
          </g>
          <g id="Group_8787" data-name="Group 8787" transform="translate(8.14 29.208)">
            <g id="Group_8786" data-name="Group 8786">
              <path id="Path_5696" data-name="Path 5696" d="M422.358,244.924c-.848-2.582-4.124-5.393-7.4-4.783a96.638,96.638,0,0,0-14.356,3.585c-3,1.072-5.735,3.665-5.983,13.537,0,0-1,23.014-1.022,27.464A36.389,36.389,0,0,0,413.3,286.67c9.018-1.971,10.106-5.712,10.106-5.712s.117-16.548-.154-23.7C423.021,251.19,422.941,246.7,422.358,244.924Z" transform="translate(-393.594 -240.056)" fill="#f5f5f5"/>
            </g>
          </g>
          <g id="Group_8790" data-name="Group 8790" transform="translate(8.99 4.212)">
            <g id="Group_8788" data-name="Group 8788" transform="translate(0 10.136)">
              <path id="Path_5697" data-name="Path 5697" d="M396.3,226.551s-2.175,3.468-1.911,3.8,1.928.6,1.928.6Z" transform="translate(-394.367 -226.551)" fill="#ffa8a7"/>
            </g>
            <g id="Group_8789" data-name="Group 8789" transform="translate(1.846)">
              <path id="Path_5698" data-name="Path 5698" d="M402.173,217.88c-4.537,1.064-5.807,3.1-6.074,10.347-.277,7.576.548,9.936,1.565,10.933.687.672,4.418.712,6.287.152,2.339-.7,7.616-2.708,10.023-6.569,2.829-4.543,3.463-10.629.268-13.047C409.748,216.293,404.019,217.448,402.173,217.88Z" transform="translate(-396.045 -217.339)" fill="#ffa8a7"/>
            </g>
          </g>
          <g id="Group_8795" data-name="Group 8795" transform="translate(10.043)">
            <g id="Group_8792" data-name="Group 8792">
              <g id="Group_8791" data-name="Group 8791">
                <path id="Path_5699" data-name="Path 5699" d="M396.221,220.15a9.249,9.249,0,0,0,4.221,3.369c.87.99.391,4.856,1.922,5.468,0,0,.657-2.812,3.021-2.514,2.381.3,2.769,3.317,1.316,5.188s-2.863,1.2-2.863,1.2.163,4,1.984,6.219a12.1,12.1,0,0,0,5.719-.267c2.268-.537,5.426-3.457,6.712-6.5,2.721-6.443,2.793-12.189-1.319-13.817-.506-2.929-2.851-4.194-5.5-4.741-5.709-1.177-9.389,2.385-13.783,2.076C395.132,215.649,394.662,217.48,396.221,220.15Z" transform="translate(-395.323 -213.51)" fill="#263238"/>
              </g>
            </g>
            <g id="Group_8794" data-name="Group 8794" transform="translate(21.465 3.545)">
              <g id="Group_8793" data-name="Group 8793">
                <path id="Path_5700" data-name="Path 5700" d="M415.07,219.15l2.691-1.669a1.583,1.583,0,0,0-2.691,1.669Z" transform="translate(-414.832 -216.733)" fill="#263238"/>
              </g>
            </g>
          </g>
        </g>
        <path id="Path_5701" data-name="Path 5701" d="M367.868,260.489c1.411.627,18.029,12.91,20.621,11.479s15.886-16.962,15.886-16.962a10.731,10.731,0,0,0,0-11.651,10.937,10.937,0,0,0-6.492,4.159c-2.229,3.372-11.864,15.456-11.864,15.456q-3.57-1.787-7.115-3.622c-1.948-1.008-3.9-2.016-5.805-3.1a7.153,7.153,0,0,1-1.5-.924c-.941-.93-.779-3.178-.761-4.4a16.816,16.816,0,0,1,.083-1.713c.081-.7.215-2.409-1.043-1.866a1.582,1.582,0,0,0-.6.505,2.831,2.831,0,0,0-.45.857c-.238.739-.162,1.549-.38,2.294a.646.646,0,0,1-.154.3.552.552,0,0,1-.4.121c-1.832-.055-3.565-2.622-4.406-3.984a3.735,3.735,0,0,0-1.39-1.584,2.481,2.481,0,0,0-2.852,1.1,5.8,5.8,0,0,0-.907,4.035,8.014,8.014,0,0,0,2.388,5.06A24.536,24.536,0,0,0,367.868,260.489Z" transform="translate(-358.298 -210.517)" fill="#ffa8a7"/>
        <path id="Path_5702" data-name="Path 5702" d="M402.99,242.9c-1.834.211-4.4-.129-7.994,3.728a112.273,112.273,0,0,0-8.083,10.4,10.184,10.184,0,0,0,8.038,7.567s6.289-6.443,8.039-9.991S405.149,245.293,402.99,242.9Z" transform="translate(-355.428 -210.563)" fill="#27debf"/>
      </g>
    </g>
  </g>
</svg>
