<svg xmlns="http://www.w3.org/2000/svg" width="367" height="358.258" viewBox="0 0 367 358.258">
  <g id="Secure_login-pana" data-name="Secure login-pana" transform="translate(-24.6 -34.24)">
    <g id="freepik--background-complete--inject-7" transform="translate(33.375 34.24)">
      <rect id="Rectangle_3191" data-name="Rectangle 3191" width="313.186" height="244.974" transform="translate(0.141 0.224)" fill="#fafafa"/>
      <path id="Path_5003" data-name="Path 5003" d="M348.507,279.438c0-1.485-.075-97.135-.182-244.974l.182.174L35.346,34.68h0l.216-.216V279.438l-.191-.191,313.186.191-313.186.191H35.18V34.24H348.756v.182C348.557,182.3,348.507,277.953,348.507,279.438Z" transform="translate(-35.18 -34.24)" fill="#e0e0e0"/>
      <path id="Path_5004" data-name="Path 5004" d="M86.127,100.613H67.656a2.314,2.314,0,0,1-2.306-2.339V72.744a2.314,2.314,0,0,1,2.306-2.314H79.367l9.066,9.348v18.5a2.314,2.314,0,0,1-2.306,2.339Z" transform="translate(-40.326 -40.413)" fill="#ebebeb"/>
      <path id="Path_5005" data-name="Path 5005" d="M82.25,70.43v7.2A2.148,2.148,0,0,0,84.4,79.778h6.917Z" transform="translate(-43.209 -40.413)" fill="#f5f5f5"/>
      <path id="Path_5006" data-name="Path 5006" d="M82.37,79.87a2.38,2.38,0,0,0,1.891,2.314,1.086,1.086,0,0,0,.224.05c.9.166,6.851,1.219,6.851,1.087V81.388H84.419S82.693,81.33,82.37,79.87Z" transform="translate(-43.229 -42.023)" fill="#e0e0e0"/>
      <path id="Path_5007" data-name="Path 5007" d="M86.114,100.6a2.438,2.438,0,0,0,.4-.05,2.339,2.339,0,0,0,1.045-.489,2.289,2.289,0,0,0,.829-1.659c0-.746,0-1.609,0-2.58V79.732h0L79.3,70.475H68.165a6.258,6.258,0,0,0-.887,0,2.215,2.215,0,0,0-1.4.962,2.173,2.173,0,0,0-.448,1.111V97.755a5.333,5.333,0,0,0,0,.97,2.239,2.239,0,0,0,1.9,1.783,6.553,6.553,0,0,0,.9,0h0a8.6,8.6,0,0,1-.921,0,2.239,2.239,0,0,1-.9-.323,2.372,2.372,0,0,1-1.111-1.568,4.977,4.977,0,0,1,0-1V72.557a2.339,2.339,0,0,1,.44-1.219,2.422,2.422,0,0,1,1.551-.962,4.852,4.852,0,0,1,.912,0H79.387l9.082,9.339h0V98.386a2.339,2.339,0,0,1-.829,1.659,2.414,2.414,0,0,1-1.07.481h-.3Z" transform="translate(-40.312 -40.4)" fill="#e0e0e0"/>
      <path id="Path_5008" data-name="Path 5008" d="M91.3,79.754h-7A2.256,2.256,0,0,1,82.686,79a2.331,2.331,0,0,1-.448-.829,2.488,2.488,0,0,1-.1-.879v-7a.473.473,0,0,1,0,.182V77.29a2.123,2.123,0,0,0,.514,1.576,2.09,2.09,0,0,0,1.493.705h6.826C91.237,79.737,91.3,79.746,91.3,79.754Z" transform="translate(-43.188 -40.389)" fill="#e0e0e0"/>
      <path id="Path_5009" data-name="Path 5009" d="M79.828,78.153c0,.05-2.181.083-4.869.083s-4.869,0-4.869-.083,2.173-.083,4.869-.083S79.828,78.111,79.828,78.153Z" transform="translate(-41.134 -41.716)" fill="#e0e0e0"/>
      <path id="Path_5010" data-name="Path 5010" d="M84.448,82.483s-3.21.083-7.175.083-7.183,0-7.183-.083,3.21-.083,7.183-.083S84.448,82.433,84.448,82.483Z" transform="translate(-41.134 -42.454)" fill="#e0e0e0"/>
      <path id="Path_5011" data-name="Path 5011" d="M84.448,86.8c0,.05-3.21.083-7.175.083s-7.183,0-7.183-.083,3.21-.075,7.183-.075S84.448,86.763,84.448,86.8Z" transform="translate(-41.134 -43.193)" fill="#e0e0e0"/>
      <path id="Path_5012" data-name="Path 5012" d="M84.448,91.133s-3.21.083-7.175.083-7.183,0-7.183-.083,3.21-.083,7.183-.083S84.448,91.091,84.448,91.133Z" transform="translate(-41.134 -43.93)" fill="#e0e0e0"/>
      <path id="Path_5013" data-name="Path 5013" d="M84.448,95.463s-3.21.075-7.175.075-7.183,0-7.183-.075,3.21-.083,7.183-.083S84.448,95.413,84.448,95.463Z" transform="translate(-41.134 -44.668)" fill="#e0e0e0"/>
      <path id="Path_5014" data-name="Path 5014" d="M84.448,100.793c0,.05-3.21.083-7.175.083s-7.183,0-7.183-.083,3.21-.083,7.183-.083S84.448,100.751,84.448,100.793Z" transform="translate(-41.134 -45.577)" fill="#e0e0e0"/>
      <path id="Path_5015" data-name="Path 5015" d="M88.344,116.006c0,.124-5.126.216-11.438.216s-11.446-.091-11.446-.216,5.126-.216,11.446-.216S88.344,115.89,88.344,116.006Z" transform="translate(-40.345 -48.15)" fill="#e0e0e0"/>
      <path id="Path_5016" data-name="Path 5016" d="M85.1,119.61a61.55,61.55,0,0,1-7.357.216,61.641,61.641,0,0,1-7.365-.216,63.812,63.812,0,0,1,7.365-.216,63.72,63.72,0,0,1,7.357.216Z" transform="translate(-41.184 -48.76)" fill="#e0e0e0"/>
      <path id="Path_5017" data-name="Path 5017" d="M86.127,179.385H67.656a2.314,2.314,0,0,1-2.306-2.314V151.524a2.314,2.314,0,0,1,2.306-2.314H79.367l9.066,9.348v18.513a2.314,2.314,0,0,1-2.306,2.314Z" transform="translate(-40.326 -53.85)" fill="#ebebeb"/>
      <path id="Path_5018" data-name="Path 5018" d="M82.25,149.2v7.2a2.148,2.148,0,0,0,2.148,2.148h6.917Z" transform="translate(-43.209 -53.848)" fill="#f5f5f5"/>
      <path id="Path_5019" data-name="Path 5019" d="M82.37,158.64a2.38,2.38,0,0,0,1.891,2.314l.224.05c.9.166,6.851,1.219,6.851,1.087v-1.933H84.419S82.693,160.1,82.37,158.64Z" transform="translate(-43.229 -55.458)" fill="#e0e0e0"/>
      <path id="Path_5020" data-name="Path 5020" d="M86.122,179.37a2.437,2.437,0,0,0,.4-.05,2.338,2.338,0,0,0,1.045-.489,2.289,2.289,0,0,0,.829-1.659c0-.746,0-1.609,0-2.58v-16.05l-9.091-9.3H68.173a6.251,6.251,0,0,0-.887,0,2.215,2.215,0,0,0-1.4.962,2.173,2.173,0,0,0-.406,1.136v25.182a5.334,5.334,0,0,0,0,.97,2.24,2.24,0,0,0,1.9,1.783,6.553,6.553,0,0,0,.9,0h0a8.611,8.611,0,0,1-.921,0,2.239,2.239,0,0,1-.9-.323,2.372,2.372,0,0,1-1.111-1.568,4.976,4.976,0,0,1,0-1V151.327a2.339,2.339,0,0,1,.44-1.219,2.422,2.422,0,0,1,1.551-.962,4.851,4.851,0,0,1,.912,0H79.4l9.057,9.348h0v18.671a2.339,2.339,0,0,1-.829,1.659,2.414,2.414,0,0,1-1.07.481h-.3Z" transform="translate(-40.321 -53.835)" fill="#e0e0e0"/>
      <path id="Path_5021" data-name="Path 5021" d="M91.3,158.524h-7a2.256,2.256,0,0,1-1.609-.755,2.331,2.331,0,0,1-.448-.829,2.488,2.488,0,0,1-.1-.879v-7a.473.473,0,0,1,0,.182v6.818a2.123,2.123,0,0,0,.514,1.576,2.09,2.09,0,0,0,1.493.705h6.826C91.237,158.507,91.3,158.516,91.3,158.524Z" transform="translate(-43.188 -53.824)" fill="#e0e0e0"/>
      <path id="Path_5022" data-name="Path 5022" d="M79.828,156.923c0,.05-2.181.083-4.869.083s-4.869,0-4.869-.083,2.173-.083,4.869-.083S79.828,156.881,79.828,156.923Z" transform="translate(-41.134 -55.151)" fill="#e0e0e0"/>
      <path id="Path_5023" data-name="Path 5023" d="M84.448,161.253s-3.21.083-7.175.083-7.183-.041-7.183-.083,3.21-.083,7.183-.083S84.448,161.2,84.448,161.253Z" transform="translate(-41.134 -55.89)" fill="#e0e0e0"/>
      <path id="Path_5024" data-name="Path 5024" d="M84.448,165.575c0,.05-3.21.083-7.175.083s-7.183,0-7.183-.083,3.21-.075,7.183-.075S84.448,165.533,84.448,165.575Z" transform="translate(-41.134 -56.628)" fill="#e0e0e0"/>
      <path id="Path_5025" data-name="Path 5025" d="M84.448,169.9c0,.041-3.21.083-7.175.083s-7.183-.041-7.183-.083,3.21-.083,7.183-.083S84.448,169.861,84.448,169.9Z" transform="translate(-41.134 -57.365)" fill="#e0e0e0"/>
      <path id="Path_5026" data-name="Path 5026" d="M84.448,174.233c0,.041-3.21.075-7.175.075s-7.183,0-7.183-.075,3.21-.083,7.183-.083S84.448,174.183,84.448,174.233Z" transform="translate(-41.134 -58.104)" fill="#e0e0e0"/>
      <path id="Path_5027" data-name="Path 5027" d="M84.448,179.563c0,.05-3.21.083-7.175.083s-7.183,0-7.183-.083,3.21-.083,7.183-.083S84.448,179.521,84.448,179.563Z" transform="translate(-41.134 -59.013)" fill="#e0e0e0"/>
      <path id="Path_5028" data-name="Path 5028" d="M88.344,194.776c0,.124-5.126.216-11.438.216s-11.446-.091-11.446-.216,5.126-.216,11.446-.216S88.344,194.66,88.344,194.776Z" transform="translate(-40.345 -61.585)" fill="#e0e0e0"/>
      <path id="Path_5029" data-name="Path 5029" d="M85.1,198.38a61.55,61.55,0,0,1-7.357.216,61.638,61.638,0,0,1-7.365-.216,63.815,63.815,0,0,1,7.365-.216,63.727,63.727,0,0,1,7.357.216Z" transform="translate(-41.184 -62.195)" fill="#e0e0e0"/>
      <path id="Path_5030" data-name="Path 5030" d="M84.6,276.013H66.126A2.314,2.314,0,0,1,63.82,273.7V248.144a2.314,2.314,0,0,1,2.306-2.314H77.837l9.066,9.348V273.7a2.314,2.314,0,0,1-2.306,2.314Z" transform="translate(-40.065 -70.33)" fill="#ebebeb"/>
      <path id="Path_5031" data-name="Path 5031" d="M80.72,245.83v7.191a2.148,2.148,0,0,0,2.148,2.148h6.917Z" transform="translate(-42.948 -70.33)" fill="#f5f5f5"/>
      <path id="Path_5032" data-name="Path 5032" d="M80.84,255.26a2.389,2.389,0,0,0,1.891,2.322,1.908,1.908,0,0,0,.232.05c.9.166,6.843,1.219,6.843,1.087v-1.933H82.889S81.163,256.7,80.84,255.26Z" transform="translate(-42.968 -71.938)" fill="#e0e0e0"/>
      <path id="Path_5033" data-name="Path 5033" d="M84.587,276a2.437,2.437,0,0,0,.4-.05,2.339,2.339,0,0,0,1.045-.489,2.289,2.289,0,0,0,.829-1.659c0-.746,0-1.617,0-2.58V255.129h0l-9.091-9.257H66.638a5.262,5.262,0,0,0-.887,0,2.215,2.215,0,0,0-1.443.9,2.173,2.173,0,0,0-.406,1.136c0,.406,0,.829,0,1.252v23.929a6.2,6.2,0,0,0,.058,1.062,2.239,2.239,0,0,0,1.9,1.783,8.16,8.16,0,0,0,.9,0h-.041a6.9,6.9,0,0,1-.921,0,2.38,2.38,0,0,1-2.016-1.783,5.027,5.027,0,0,1,0-1v-25.2a2.38,2.38,0,0,1,1.991-2.181,5.687,5.687,0,0,1,.912-.041H77.86l9.082,9.339h0v18.671a2.339,2.339,0,0,1-.829,1.659,2.255,2.255,0,0,1-1.07.473,1.654,1.654,0,0,1-.3,0Z" transform="translate(-40.055 -70.314)" fill="#e0e0e0"/>
      <path id="Path_5034" data-name="Path 5034" d="M89.765,255.154h-7a2.223,2.223,0,0,1-1.6-.755,2.3,2.3,0,0,1-.456-.829,2.489,2.489,0,0,1-.1-.879v-7a.473.473,0,0,1,0,.182v6.818a2.14,2.14,0,0,0,.514,1.576,2.049,2.049,0,0,0,1.493.7h6.826A3.576,3.576,0,0,0,89.765,255.154Z" transform="translate(-42.927 -70.306)" fill="#e0e0e0"/>
      <path id="Path_5035" data-name="Path 5035" d="M78.3,253.553c0,.041-2.181.083-4.869.083s-4.869,0-4.869-.083,2.181-.083,4.869-.083S78.3,253.511,78.3,253.553Z" transform="translate(-40.873 -71.633)" fill="#e0e0e0"/>
      <path id="Path_5036" data-name="Path 5036" d="M82.918,257.883c0,.041-3.21.075-7.175.075s-7.183,0-7.183-.075,3.21-.083,7.183-.083S82.918,257.833,82.918,257.883Z" transform="translate(-40.873 -72.372)" fill="#e0e0e0"/>
      <path id="Path_5037" data-name="Path 5037" d="M82.918,262.2c0,.05-3.21.083-7.175.083s-7.183,0-7.183-.083,3.21-.083,7.183-.083S82.918,262.161,82.918,262.2Z" transform="translate(-40.873 -73.108)" fill="#e0e0e0"/>
      <path id="Path_5038" data-name="Path 5038" d="M82.918,266.533c0,.041-3.21.083-7.175.083s-7.183,0-7.183-.083,3.21-.083,7.183-.083S82.918,266.483,82.918,266.533Z" transform="translate(-40.873 -73.847)" fill="#e0e0e0"/>
      <path id="Path_5039" data-name="Path 5039" d="M82.918,270.855c0,.05-3.21.083-7.175.083s-7.183,0-7.183-.083,3.21-.075,7.183-.075S82.918,270.813,82.918,270.855Z" transform="translate(-40.873 -74.585)" fill="#e0e0e0"/>
      <path id="Path_5040" data-name="Path 5040" d="M82.918,276.193c0,.041-3.21.083-7.175.083s-7.183-.041-7.183-.083,3.21-.083,7.183-.083S82.918,276.151,82.918,276.193Z" transform="translate(-40.873 -75.495)" fill="#e0e0e0"/>
      <path id="Path_5041" data-name="Path 5041" d="M86.816,291.406c0,.116-5.126.216-11.438.216s-11.438-.1-11.438-.216,5.118-.216,11.438-.216S86.816,291.29,86.816,291.406Z" transform="translate(-40.085 -78.067)" fill="#e0e0e0"/>
      <path id="Path_5042" data-name="Path 5042" d="M83.581,295.01a63.925,63.925,0,0,1-7.365.216,63.815,63.815,0,0,1-7.365-.216,63.8,63.8,0,0,1,7.365-.216A63.918,63.918,0,0,1,83.581,295.01Z" transform="translate(-40.923 -78.677)" fill="#e0e0e0"/>
      <path id="Path_5043" data-name="Path 5043" d="M231.006,273.8h-18.48a2.3,2.3,0,0,1-2.306-2.306V245.944a2.306,2.306,0,0,1,2.306-2.314h11.712l9.066,9.339V271.5A2.306,2.306,0,0,1,231.006,273.8Z" transform="translate(-65.036 -69.955)" fill="#ebebeb"/>
      <path id="Path_5044" data-name="Path 5044" d="M227.14,243.63v7.191a2.148,2.148,0,0,0,2.148,2.148h6.917Z" transform="translate(-67.922 -69.955)" fill="#f5f5f5"/>
      <path id="Path_5045" data-name="Path 5045" d="M227.25,253.06a2.389,2.389,0,0,0,1.9,2.322l.224.05c.9.158,6.851,1.219,6.851,1.078v-1.933h-6.917S227.582,254.52,227.25,253.06Z" transform="translate(-67.94 -71.563)" fill="#e0e0e0"/>
      <path id="Path_5046" data-name="Path 5046" d="M231,273.747a2.793,2.793,0,0,0,.4-.041,2.323,2.323,0,0,0,1.053-.489,2.281,2.281,0,0,0,.829-1.659V252.937l-9.091-9.3H213.061a5.236,5.236,0,0,0-.887,0,2.214,2.214,0,0,0-1.443.9,2.182,2.182,0,0,0-.415,1.128v25.2a5.329,5.329,0,0,0,.041.97,2.239,2.239,0,0,0,1.9,1.783h.929a8.626,8.626,0,0,1-.921,0,2.355,2.355,0,0,1-.9-.315,2.389,2.389,0,0,1-1.111-1.568,5.753,5.753,0,0,1-.05-1v-25.2a2.339,2.339,0,0,1,.44-1.219,2.4,2.4,0,0,1,1.551-.97,6.824,6.824,0,0,1,.912,0h11.222l9.057,9.356h0v18.679a2.356,2.356,0,0,1-.829,1.659,2.323,2.323,0,0,1-1.07.473,1.063,1.063,0,0,1-.3,0Z" transform="translate(-65.032 -69.905)" fill="#e0e0e0"/>
      <path id="Path_5047" data-name="Path 5047" d="M236.187,252.968H235.5l-1.858.091H229.2a2.206,2.206,0,0,1-2.057-1.559,2.721,2.721,0,0,1-.108-.879c0-.572,0-1.12,0-1.659v-5.167a.7.7,0,0,1,0-.174.7.7,0,0,1,0,.174v6.826a2.14,2.14,0,0,0,.514,1.576,2.048,2.048,0,0,0,1.493.7h6.826Z" transform="translate(-67.903 -69.953)" fill="#e0e0e0"/>
      <path id="Path_5048" data-name="Path 5048" d="M224.716,251.353s-2.181.083-4.869.083-4.877-.041-4.877-.083,2.181-.083,4.877-.083S224.716,251.3,224.716,251.353Z" transform="translate(-65.846 -71.258)" fill="#e0e0e0"/>
      <path id="Path_5049" data-name="Path 5049" d="M229.336,255.675c0,.05-3.21.083-7.183.083s-7.183,0-7.183-.083,3.218-.075,7.183-.075S229.336,255.633,229.336,255.675Z" transform="translate(-65.846 -71.996)" fill="#e0e0e0"/>
      <path id="Path_5050" data-name="Path 5050" d="M229.336,259.983c0,.05-3.21.083-7.183.083s-7.183,0-7.183-.083,3.218-.083,7.183-.083S229.336,259.983,229.336,259.983Z" transform="translate(-65.846 -72.73)" fill="#e0e0e0"/>
      <path id="Path_5051" data-name="Path 5051" d="M229.336,264.333s-3.21.075-7.183.075-7.183,0-7.183-.075,3.218-.083,7.183-.083S229.336,264.283,229.336,264.333Z" transform="translate(-65.846 -73.472)" fill="#e0e0e0"/>
      <path id="Path_5052" data-name="Path 5052" d="M229.336,268.653c0,.05-3.21.083-7.183.083s-7.183,0-7.183-.083,3.218-.083,7.183-.083S229.336,268.611,229.336,268.653Z" transform="translate(-65.846 -74.209)" fill="#e0e0e0"/>
      <path id="Path_5053" data-name="Path 5053" d="M229.336,273.983c0,.041-3.21.083-7.183.083s-7.183-.041-7.183-.083,3.218-.083,7.183-.083S229.336,273.983,229.336,273.983Z" transform="translate(-65.846 -75.118)" fill="#e0e0e0"/>
      <path id="Path_5054" data-name="Path 5054" d="M233.234,289.206c0,.116-5.126.216-11.446.216s-11.438-.1-11.438-.216,5.126-.216,11.438-.216S233.234,289.081,233.234,289.206Z" transform="translate(-65.058 -77.691)" fill="#e0e0e0"/>
      <path id="Path_5055" data-name="Path 5055" d="M229.972,292.81a63.808,63.808,0,0,1-7.365.216,63.727,63.727,0,0,1-7.357-.216,63.713,63.713,0,0,1,7.357-.216A63.8,63.8,0,0,1,229.972,292.81Z" transform="translate(-65.894 -78.302)" fill="#e0e0e0"/>
      <path id="Path_5056" data-name="Path 5056" d="M147,56.595l.829,16.522a1.045,1.045,0,0,0,.962,1.037h25.48a1.045,1.045,0,0,0,.929-1.1V60.186a1.045,1.045,0,0,0-.962-1.12l-15.627.158a.9.9,0,0,1-.68-.323l-2.721-3.135a.888.888,0,0,0-.672-.315H147.9A1.053,1.053,0,0,0,147,56.595Z" transform="translate(-54.252 -37.858)" fill="#ebebeb"/>
      <rect id="Rectangle_3192" data-name="Rectangle 3192" width="27.844" height="19.417" transform="translate(93.129 19.259)" fill="#f5f5f5"/>
      <path id="Path_5057" data-name="Path 5057" d="M144.788,59.4l2.123,20.271a.672.672,0,0,0,.614.63h27.139a.664.664,0,0,0,.614-.664l1.369-20.255a.688.688,0,0,0-.614-.771H145.4a.688.688,0,0,0-.614.788Z" transform="translate(-53.874 -38.397)" fill="#ebebeb"/>
      <path id="Path_5058" data-name="Path 5058" d="M173.076,97.086c0,.124-5.118.216-11.438.216S150.2,97.21,150.2,97.086s5.118-.216,11.438-.216S173.076,96.978,173.076,97.086Z" transform="translate(-54.798 -44.923)" fill="#e0e0e0"/>
      <path id="Path_5059" data-name="Path 5059" d="M169.842,100.69a61.644,61.644,0,0,1-7.357.216,61.749,61.749,0,0,1-7.365-.216,63.925,63.925,0,0,1,7.365-.216A63.8,63.8,0,0,1,169.842,100.69Z" transform="translate(-55.638 -45.533)" fill="#e0e0e0"/>
      <path id="Path_5060" data-name="Path 5060" d="M148,150.236l.871,16.522a1.037,1.037,0,0,0,.962,1.045H175.37a1.037,1.037,0,0,0,.954-1.111V153.819a1.037,1.037,0,0,0-.962-1.111l-15.668.116a.9.9,0,0,1-.68-.323l-2.721-3.127a.9.9,0,0,0-.672-.323h-6.635a1.062,1.062,0,0,0-.987,1.186Z" transform="translate(-54.422 -53.823)" fill="#ebebeb"/>
      <rect id="Rectangle_3193" data-name="Rectangle 3193" width="27.844" height="19.417" transform="translate(94.025 96.928)" fill="#f5f5f5"/>
      <path id="Path_5061" data-name="Path 5061" d="M145.868,153.045,148,173.291a.647.647,0,0,0,.605.63h27.139a.655.655,0,0,0,.614-.655l1.369-20.255a.688.688,0,0,0-.614-.771H146.482a.688.688,0,0,0-.614.8Z" transform="translate(-54.058 -54.367)" fill="#ebebeb"/>
      <path id="Path_5062" data-name="Path 5062" d="M174.156,190.736c0,.116-5.118.216-11.438.216s-11.438-.1-11.438-.216,5.118-.216,11.438-.216S174.156,190.611,174.156,190.736Z" transform="translate(-54.983 -60.896)" fill="#e0e0e0"/>
      <path id="Path_5063" data-name="Path 5063" d="M170.971,194.34a63.809,63.809,0,0,1-7.365.216,63.922,63.922,0,0,1-7.365-.216,61.753,61.753,0,0,1,7.365-.216,61.644,61.644,0,0,1,7.365.216Z" transform="translate(-55.829 -61.506)" fill="#e0e0e0"/>
      <path id="Path_5064" data-name="Path 5064" d="M131.788,265.7l.879,16.522a1.029,1.029,0,0,0,.954,1.045H159.1a1.045,1.045,0,0,0,.962-1.111V269.279a1.037,1.037,0,0,0-.962-1.111l-15.676.116a.9.9,0,0,1-.68-.323l-2.721-3.127a.9.9,0,0,0-.672-.323h-6.635a1.062,1.062,0,0,0-.929,1.186Z" transform="translate(-51.657 -73.516)" fill="#ebebeb"/>
      <rect id="Rectangle_3194" data-name="Rectangle 3194" width="27.844" height="19.417" transform="translate(80.555 192.694)" fill="#f5f5f5"/>
      <path id="Path_5065" data-name="Path 5065" d="M129.628,268.495l2.132,20.255a.647.647,0,0,0,.605.63H159.5a.664.664,0,0,0,.614-.664l1.335-20.247a.688.688,0,0,0-.614-.78h-30.6a.688.688,0,0,0-.614.8Z" transform="translate(-51.288 -74.058)" fill="#ebebeb"/>
      <path id="Path_5066" data-name="Path 5066" d="M157.916,306.2c0,.116-5.118.216-11.438.216s-11.438-.1-11.438-.216,5.126-.216,11.438-.216S157.916,306.071,157.916,306.2Z" transform="translate(-52.213 -80.589)" fill="#e0e0e0"/>
      <path id="Path_5067" data-name="Path 5067" d="M154.681,309.8a63.815,63.815,0,0,1-7.365.216,63.939,63.939,0,0,1-7.365-.216,61.753,61.753,0,0,1,7.365-.216,61.645,61.645,0,0,1,7.365.216Z" transform="translate(-53.05 -81.199)" fill="#e0e0e0"/>
      <rect id="Rectangle_3195" data-name="Rectangle 3195" width="184.3" height="162.08" transform="translate(173.393 14.183)" fill="#fff"/>
      <path id="Path_5068" data-name="Path 5068" d="M428.491,213.369c0-1.534-.075-64.555-.182-162.08l.182.182H244.207l.216-.216v162.08l-.191-.191,184.3.191-184.3.191H244V51.04H428.7v.182C428.566,148.814,428.491,211.834,428.491,213.369Z" transform="translate(-70.797 -37.105)" fill="#e0e0e0"/>
      <path id="Path_5069" data-name="Path 5069" d="M429.484,71.359c0,.075-40.916.141-91.379.141s-91.4-.066-91.4-.141,40.916-.149,91.4-.149S429.484,71.276,429.484,71.359Z" transform="translate(-71.26 -40.546)" fill="#e0e0e0"/>
      <path id="Path_5070" data-name="Path 5070" d="M258.572,61.858A1.891,1.891,0,1,1,256.681,60a1.891,1.891,0,0,1,1.891,1.858Z" transform="translate(-72.638 -38.634)" fill="#ebebeb"/>
      <path id="Path_5071" data-name="Path 5071" d="M266.062,61.858A1.891,1.891,0,1,1,264.171,60a1.891,1.891,0,0,1,1.891,1.858Z" transform="translate(-73.915 -38.634)" fill="#ebebeb"/>
      <path id="Path_5072" data-name="Path 5072" d="M273.552,61.858A1.891,1.891,0,1,1,271.661,60a1.891,1.891,0,0,1,1.891,1.858Z" transform="translate(-75.193 -38.634)" fill="#ebebeb"/>
      <path id="Path_5073" data-name="Path 5073" d="M445.176,86.848a2.071,2.071,0,0,0,.307-.058,1.062,1.062,0,0,0,.647-.605,1.544,1.544,0,0,0,.075-.664V79.308a.987.987,0,0,0-.954-.9H393.319a.912.912,0,0,0-.921.829v6.246a1.2,1.2,0,0,0,.116.68.946.946,0,0,0,.5.415,1.111,1.111,0,0,0,.332.05H427.16l13.2.05h4.844a2.311,2.311,0,0,1-.315,0h-4.529l-13.2.05H393.344a1.451,1.451,0,0,1-.423-.066,1.252,1.252,0,0,1-.655-.547,1.476,1.476,0,0,1-.158-.829v-6a1.219,1.219,0,0,1,1.211-1.111H445.25a1.128,1.128,0,0,1,1.095,1.037v6.229a1.658,1.658,0,0,1-.091.688,1.07,1.07,0,0,1-.688.605A.746.746,0,0,1,445.176,86.848Z" transform="translate(-96.058 -41.735)" fill="#e0e0e0"/>
      <path id="Path_5074" data-name="Path 5074" d="M396.3,84.309l.141-.3a1.385,1.385,0,0,0,.9.307c.473,0,.672-.182.672-.415,0-.664-1.659-.249-1.659-1.252,0-.423.323-.78,1.037-.78a1.659,1.659,0,0,1,.871.241l-.124.315a1.369,1.369,0,0,0-.747-.224c-.464,0-.664.191-.664.431,0,.664,1.659.249,1.659,1.244,0,.415-.332.771-1.053.771a1.659,1.659,0,0,1-1.029-.34Z" transform="translate(-96.774 -42.364)" fill="#e0e0e0"/>
      <path id="Path_5075" data-name="Path 5075" d="M401.25,83.858h-1.659a.688.688,0,0,0,.746.605.755.755,0,0,0,.589-.249l.207.241a1.045,1.045,0,0,1-.829.332,1.029,1.029,0,0,1-1.095-1,1.012,1.012,0,0,1,1.028-1.053,1,1,0,0,1,1.02,1.053A.469.469,0,0,0,401.25,83.858Zm-1.659-.265h1.319a.647.647,0,0,0-.664-.589.63.63,0,0,0-.664.589Z" transform="translate(-97.271 -42.511)" fill="#e0e0e0"/>
      <path id="Path_5076" data-name="Path 5076" d="M403.832,83.518v1.244h-.357v-.274a.771.771,0,0,1-.672.29c-.473,0-.763-.249-.763-.605s.216-.6.829-.6h.589V83.5c0-.315-.182-.5-.556-.5a1,1,0,0,0-.647.224l-.158-.282a1.352,1.352,0,0,1,.829-.265C403.508,82.68,403.832,82.945,403.832,83.518Zm-.373.614v-.29h-.581c-.365,0-.473.141-.473.315s.174.34.456.34a.614.614,0,0,0,.6-.365Z" transform="translate(-97.754 -42.502)" fill="#e0e0e0"/>
      <path id="Path_5077" data-name="Path 5077" d="M406.128,82.679v.365h-.083a.614.614,0,0,0-.647.7v1.028H405V82.7h.357v.348A.829.829,0,0,1,406.128,82.679Z" transform="translate(-98.258 -42.501)" fill="#e0e0e0"/>
      <path id="Path_5078" data-name="Path 5078" d="M406.66,83.774a1.037,1.037,0,0,1,1.111-1.095.9.9,0,0,1,.829.44l-.282.182a.647.647,0,0,0-.556-.3.73.73,0,0,0,0,1.452.63.63,0,0,0,.556-.3l.282.182a.9.9,0,0,1-.829.44,1.028,1.028,0,0,1-1.111-1Z" transform="translate(-98.541 -42.502)" fill="#e0e0e0"/>
      <path id="Path_5079" data-name="Path 5079" d="M411.487,83.41V84.6h-.373V83.452c0-.406-.207-.605-.556-.605a.614.614,0,0,0-.655.688V84.6h-.373V81.71h.39v1.12a.9.9,0,0,1,.73-.315.829.829,0,0,1,.838.9Z" transform="translate(-99.031 -42.337)" fill="#e0e0e0"/>
      <path id="Path_5080" data-name="Path 5080" d="M412.51,84.835a.257.257,0,0,1,.265-.265.265.265,0,0,1,0,.531.257.257,0,0,1-.265-.265Z" transform="translate(-99.539 -42.825)" fill="#e0e0e0"/>
      <path id="Path_5081" data-name="Path 5081" d="M413.57,84.835a.265.265,0,1,1,.265.265.265.265,0,0,1-.265-.265Z" transform="translate(-99.72 -42.825)" fill="#e0e0e0"/>
      <path id="Path_5082" data-name="Path 5082" d="M414.63,84.835a.265.265,0,1,1,.265.265A.265.265,0,0,1,414.63,84.835Z" transform="translate(-99.901 -42.825)" fill="#e0e0e0"/>
      <path id="Path_5083" data-name="Path 5083" d="M381.88,104.8v29.03h35.334V104.8a2.488,2.488,0,0,0-2.488-2.488H384.393a2.488,2.488,0,0,0-2.513,2.488Z" transform="translate(-94.315 -45.85)" fill="#e0e0e0"/>
      <path id="Path_5084" data-name="Path 5084" d="M383.88,119.125l.241-10.675h30.913v6.088" transform="translate(-94.656 -46.898)" fill="#f5f5f5"/>
      <rect id="Rectangle_3196" data-name="Rectangle 3196" width="27.015" height="2.886" transform="translate(291.472 58.666)" fill="#f5f5f5"/>
      <path id="Path_5085" data-name="Path 5085" d="M386.563,104.978h2.057l5.707-.05,19.251-.058h.141v2.994c-.29.29-.091.083-.158.149H397.337l-10.783-.058H386.5v-2.762a1.468,1.468,0,0,1,0-.182,1.121,1.121,0,0,1,0,.2c0,.141,0,.332,0,.564V107.9l-.066-.058,10.783-.058h16.232c-.058.058.158-.149-.133.141v-2.944l.141.149-19.143-.066h-7.722Z" transform="translate(-95.091 -46.287)" fill="#e0e0e0"/>
      <path id="Path_5086" data-name="Path 5086" d="M416.8,149.091c0,.083-6.752.149-15.079.149s-15.079-.066-15.079-.149,6.752-.141,15.079-.141S416.8,148.991,416.8,149.091Z" transform="translate(-95.127 -53.806)" fill="#e0e0e0"/>
      <path id="Path_5087" data-name="Path 5087" d="M378.607,114.572l2.712,21.034h35.334V115.227H400.612l-3.119-2.737H380.431a1.841,1.841,0,0,0-1.825,2.082Z" transform="translate(-93.754 -47.587)" fill="#ebebeb"/>
      <path id="Path_5088" data-name="Path 5088" d="M409.205,125.691c0,.083-3.873.149-8.643.149s-8.643-.066-8.643-.149,3.873-.141,8.643-.141S409.205,125.616,409.205,125.691Z" transform="translate(-96.027 -49.814)" fill="#e0e0e0"/>
      <path id="Path_5089" data-name="Path 5089" d="M409.205,128.189c0,.083-3.873.141-8.643.141s-8.643-.058-8.643-.141,3.873-.149,8.643-.149S409.205,128.106,409.205,128.189Z" transform="translate(-96.027 -50.239)" fill="#e0e0e0"/>
      <path id="Path_5090" data-name="Path 5090" d="M410.111,153.831c0,.083-4.23.149-9.456.149s-9.456-.066-9.456-.149,4.238-.141,9.456-.141S410.111,153.756,410.111,153.831Z" transform="translate(-95.905 -54.614)" fill="#e0e0e0"/>
      <path id="Path_5091" data-name="Path 5091" d="M289.23,104.8v29.03h35.334V104.8a2.488,2.488,0,0,0-2.488-2.488H291.743a2.488,2.488,0,0,0-2.513,2.488Z" transform="translate(-78.512 -45.85)" fill="#e0e0e0"/>
      <path id="Path_5092" data-name="Path 5092" d="M291.23,119.125l.24-10.675h30.913v6.088" transform="translate(-78.853 -46.898)" fill="#f5f5f5"/>
      <rect id="Rectangle_3197" data-name="Rectangle 3197" width="27.015" height="2.886" transform="translate(214.625 58.666)" fill="#f5f5f5"/>
      <path id="Path_5093" data-name="Path 5093" d="M293.913,104.978h2.057l5.707-.05,19.251-.058h.141v2.994c-.29.29-.091.083-.158.149H304.687l-10.783-.058h-.058v-2.762a1.468,1.468,0,0,1,0-.182,1.124,1.124,0,0,1,0,.2V107.9l-.066-.058,10.783-.058h16.356c-.058.058.158-.149-.133.141v-2.944l.141.149-19.143-.066h-7.722Z" transform="translate(-79.288 -46.287)" fill="#e0e0e0"/>
      <path id="Path_5094" data-name="Path 5094" d="M324.1,149.091c0,.083-6.752.149-15.079.149s-15.079-.066-15.079-.149,6.752-.141,15.079-.141S324.1,148.991,324.1,149.091Z" transform="translate(-79.315 -53.806)" fill="#e0e0e0"/>
      <path id="Path_5095" data-name="Path 5095" d="M286,114.572l2.712,21.034h35.334V115.227H307.968l-3.119-2.737H287.788A1.841,1.841,0,0,0,286,114.572Z" transform="translate(-77.958 -47.587)" fill="#ebebeb"/>
      <path id="Path_5096" data-name="Path 5096" d="M316.555,125.691c0,.083-3.873.149-8.643.149s-8.643-.066-8.643-.149,3.873-.141,8.643-.141S316.555,125.616,316.555,125.691Z" transform="translate(-80.225 -49.814)" fill="#e0e0e0"/>
      <path id="Path_5097" data-name="Path 5097" d="M316.555,128.189c0,.083-3.873.141-8.643.141s-8.643-.058-8.643-.141,3.873-.149,8.643-.149S316.555,128.106,316.555,128.189Z" transform="translate(-80.225 -50.239)" fill="#e0e0e0"/>
      <path id="Path_5098" data-name="Path 5098" d="M317.481,153.831c0,.083-4.23.149-9.456.149s-9.456-.066-9.456-.149,4.238-.141,9.456-.141S317.481,153.756,317.481,153.831Z" transform="translate(-80.105 -54.614)" fill="#e0e0e0"/>
      <path id="Path_5099" data-name="Path 5099" d="M287.9,179.238v29.03h35.326v-29.03a2.488,2.488,0,0,0-2.488-2.488H290.4a2.488,2.488,0,0,0-2.5,2.488Z" transform="translate(-78.285 -58.547)" fill="#e0e0e0"/>
      <path id="Path_5100" data-name="Path 5100" d="M289.9,193.565l.232-10.675h30.913v6.088" transform="translate(-78.626 -59.595)" fill="#f5f5f5"/>
      <rect id="Rectangle_3198" data-name="Rectangle 3198" width="27.015" height="2.886" transform="translate(213.513 120.409)" fill="#f5f5f5"/>
      <path id="Path_5101" data-name="Path 5101" d="M292.573,179.4h2.057l5.707-.041,19.251-.066h.149v3.027c-.29.29-.091.083-.158.149H303.347l-10.783-.058H292.5v-2.944a.831.831,0,0,1,0,.191v2.687l-.058-.058,10.783-.058h16.232c-.058.066.158-.141-.133.141v-2.878l.141.141-19.143-.066h-7.871Z" transform="translate(-79.06 -58.98)" fill="#e0e0e0"/>
      <path id="Path_5102" data-name="Path 5102" d="M322.8,223.531c0,.083-6.752.149-15.079.149s-15.079-.066-15.079-.149,6.752-.141,15.079-.141S322.8,223.456,322.8,223.531Z" transform="translate(-79.094 -66.502)" fill="#e0e0e0"/>
      <path id="Path_5103" data-name="Path 5103" d="M284.617,189l2.721,21.034h35.326V189.667H306.622l-3.11-2.737h-17.07A1.841,1.841,0,0,0,284.617,189Z" transform="translate(-77.723 -60.284)" fill="#ebebeb"/>
      <path id="Path_5104" data-name="Path 5104" d="M315.215,200.139c0,.075-3.865.141-8.643.141s-8.643-.066-8.643-.141,3.873-.149,8.643-.149S315.215,200.056,315.215,200.139Z" transform="translate(-79.996 -62.511)" fill="#e0e0e0"/>
      <path id="Path_5105" data-name="Path 5105" d="M315.215,202.631c0,.083-3.865.141-8.643.141s-8.643-.058-8.643-.141,3.873-.141,8.643-.141S315.215,202.548,315.215,202.631Z" transform="translate(-79.996 -62.938)" fill="#e0e0e0"/>
      <path id="Path_5106" data-name="Path 5106" d="M316.111,228.271c0,.083-4.23.149-9.456.149s-9.456-.066-9.456-.149,4.238-.141,9.456-.141S316.111,228.2,316.111,228.271Z" transform="translate(-79.872 -67.311)" fill="#e0e0e0"/>
      <path id="Path_5107" data-name="Path 5107" d="M381.56,179.238v29.03h35.334v-29.03a2.488,2.488,0,0,0-2.488-2.488H384.065a2.488,2.488,0,0,0-2.5,2.488Z" transform="translate(-94.26 -58.547)" fill="#e0e0e0"/>
      <path id="Path_5108" data-name="Path 5108" d="M383.56,193.565l.232-10.675h30.921v6.088" transform="translate(-94.602 -59.595)" fill="#f5f5f5"/>
      <rect id="Rectangle_3199" data-name="Rectangle 3199" width="27.015" height="2.886" transform="translate(291.206 120.409)" fill="#f5f5f5"/>
      <path id="Path_5109" data-name="Path 5109" d="M386.251,179.4H388.3l5.715-.041,19.251-.066h.133v3.027l-.149.149H397.026l-10.783-.058h-.066v-.066c0-.929,0-1.659.041-2.165v-.713a1.685,1.685,0,0,1,0,.191v2.687l-.058-.058,10.783-.058h16.232c-.066.066.149-.141-.141.141v-2.878l.149.141-19.152-.066h-7.863Z" transform="translate(-95.045 -58.98)" fill="#e0e0e0"/>
      <path id="Path_5110" data-name="Path 5110" d="M416.428,223.531c0,.083-6.752.149-15.079.149s-15.079-.066-15.079-.149,6.752-.141,15.079-.141S416.428,223.456,416.428,223.531Z" transform="translate(-95.064 -66.502)" fill="#e0e0e0"/>
      <path id="Path_5111" data-name="Path 5111" d="M378.277,189,381,210.038h35.334V189.667h-16.05l-3.11-2.737H380.1A1.841,1.841,0,0,0,378.277,189Z" transform="translate(-93.698 -60.284)" fill="#ebebeb"/>
      <path id="Path_5112" data-name="Path 5112" d="M408.877,200.141c0,.075-3.865.141-8.634.141s-8.643-.066-8.643-.141,3.865-.141,8.626-.141S408.877,200.058,408.877,200.141Z" transform="translate(-95.973 -62.513)" fill="#e0e0e0"/>
      <path id="Path_5113" data-name="Path 5113" d="M408.877,202.631c0,.083-3.865.141-8.634.141s-8.643-.058-8.643-.141,3.865-.141,8.643-.141S408.877,202.548,408.877,202.631Z" transform="translate(-95.973 -62.938)" fill="#e0e0e0"/>
      <path id="Path_5114" data-name="Path 5114" d="M409.811,228.271c0,.083-4.238.149-9.456.149s-9.456-.066-9.456-.149,4.23-.141,9.456-.141S409.811,228.2,409.811,228.271Z" transform="translate(-95.853 -67.311)" fill="#e0e0e0"/>
    </g>
    <g id="freepik--Table--inject-7" transform="translate(24.6 391.884)">
      <path id="Path_5115" data-name="Path 5115" d="M388.556,465.646c0,.124-81.484.216-181.97.216S24.6,465.77,24.6,465.646s81.467-.216,181.986-.216S388.556,465.53,388.556,465.646Z" transform="translate(-24.6 -465.43)" fill="#263238"/>
    </g>
    <g id="freepik--speech-bubble--inject-7" transform="translate(91.119 81.872)">
      <path id="Path_5116" data-name="Path 5116" d="M264.584,232.157H200.1L187.786,250.4l-12.019-18.248H112.432a7.332,7.332,0,0,1-7.332-7.332V99.24a7.332,7.332,0,0,1,7.332-7.34H264.584a7.332,7.332,0,0,1,7.332,7.34V224.858a7.332,7.332,0,0,1-7.332,7.3Z" transform="translate(-104.85 -91.707)" fill="#fafafa"/>
      <path id="Path_5117" data-name="Path 5117" d="M264.532,232.118h.4a7.364,7.364,0,0,0,1.186-.174,7.282,7.282,0,0,0,5.483-5.424,5.516,5.516,0,0,0,.174-1.974V211.921c0-15.759-.041-38.469-.066-66.562V99.392a7.183,7.183,0,0,0-4.977-7,8.552,8.552,0,0,0-3.094-.348H111.643a7.69,7.69,0,0,0-.954.174,7.059,7.059,0,0,0-5.217,5.234,14.839,14.839,0,0,0-.207,3.558V223.085a16.864,16.864,0,0,0,.133,3.052,7.141,7.141,0,0,0,3.318,4.736,6.934,6.934,0,0,0,2.779.954c.97.1,2.007.041,3,.058h61.312l.05.075,12,18.248h-.249l12.334-18.248.041-.058h.066l47.576.216h0l-47.535.058.108-.058q-5.723,8.527-12.3,18.289l-.124.191-.124-.191-12.027-18.248.133.075H114.521c-1.012,0-2,.041-3.044-.058a7.548,7.548,0,0,1-6.511-5.864,16.589,16.589,0,0,1-.149-3.127V99.267a7.523,7.523,0,0,1,5.756-7.4,8.343,8.343,0,0,1,1.012-.182h152.06a9,9,0,0,1,3.21.373,7.614,7.614,0,0,1,2.77,1.659,7.464,7.464,0,0,1,1.833,2.6,7.888,7.888,0,0,1,.589,3.11V145.4c0,28.093-.05,50.836-.066,66.562v12.624a8.4,8.4,0,0,1-.041,1.029,7.176,7.176,0,0,1-.174.97,7.349,7.349,0,0,1-5.582,5.449,6.757,6.757,0,0,1-1.186.141Z" transform="translate(-104.798 -91.667)" fill="#263238"/>
      <path id="Path_5118" data-name="Path 5118" d="M181.944,184.454c0,1.659-1.219,2.638-3.177,2.638H177.3v2.016H175.64V181.8h3.16C180.724,181.833,181.944,182.845,181.944,184.454Zm-1.717,0c0-.829-.514-1.277-1.551-1.277H177.3v2.538h1.377C179.713,185.748,180.227,185.284,180.227,184.454Z" transform="translate(-116.881 -107.041)" fill="#263238"/>
      <path id="Path_5119" data-name="Path 5119" d="M189.373,186.282v3.2h-1.526v-.7a1.85,1.85,0,0,1-1.709.78c-1.311,0-2.1-.73-2.1-1.7s.705-1.659,2.414-1.659h1.294c0-.7-.415-1.1-1.294-1.1a2.7,2.7,0,0,0-1.617.523l-.589-1.136a4.33,4.33,0,0,1,2.422-.68C188.386,183.785,189.373,184.581,189.373,186.282Zm-1.659,1.427v-.572h-1.12c-.763,0-1,.282-1,.655s.348.68.921.68a1.2,1.2,0,0,0,1.236-.763Z" transform="translate(-118.314 -107.383)" fill="#263238"/>
      <path id="Path_5120" data-name="Path 5120" d="M191.59,188.936l.539-1.17a3.874,3.874,0,0,0,1.957.539c.746,0,1.029-.191,1.029-.506,0-.921-3.392,0-3.392-2.223,0-1.062.962-1.816,2.6-1.816a4.678,4.678,0,0,1,2.157.489l-.539,1.161a3.218,3.218,0,0,0-1.659-.415c-.73,0-1.045.224-1.045.514,0,.962,3.392,0,3.392,2.248,0,1.045-.97,1.783-2.654,1.783A4.877,4.877,0,0,1,191.59,188.936Z" transform="translate(-119.602 -107.375)" fill="#263238"/>
      <path id="Path_5121" data-name="Path 5121" d="M198.27,188.936l.539-1.169a3.873,3.873,0,0,0,1.949.539c.755,0,1.037-.191,1.037-.506,0-.921-3.392,0-3.392-2.223,0-1.062.962-1.816,2.6-1.816a4.687,4.687,0,0,1,2.165.489l-.547,1.161A3.177,3.177,0,0,0,201,185c-.73,0-1.037.224-1.037.514,0,.962,3.384,0,3.384,2.248,0,1.045-.97,1.783-2.646,1.783a4.852,4.852,0,0,1-2.43-.605Z" transform="translate(-120.741 -107.375)" fill="#263238"/>
      <path id="Path_5122" data-name="Path 5122" d="M214.331,183.88,212.3,189.5h-1.568l-1.261-3.484-1.3,3.484h-1.584l-2.024-5.615h1.534l1.327,3.8,1.377-3.8h1.377l1.335,3.8,1.369-3.8Z" transform="translate(-121.814 -107.396)" fill="#263238"/>
      <path id="Path_5123" data-name="Path 5123" d="M216.569,186.595a3.085,3.085,0,1,1,3.085,2.886,2.886,2.886,0,0,1-3.085-2.886Zm4.52,0a1.443,1.443,0,1,0-1.435,1.551,1.427,1.427,0,0,0,1.418-1.551Z" transform="translate(-123.861 -107.298)" fill="#263238"/>
      <path id="Path_5124" data-name="Path 5124" d="M228.787,183.778v1.5h-.365a1.377,1.377,0,0,0-1.493,1.559v2.654H225.27v-5.615h1.559v.738a2.256,2.256,0,0,1,1.957-.838Z" transform="translate(-125.346 -107.377)" fill="#263238"/>
      <path id="Path_5125" data-name="Path 5125" d="M236.234,181.315v7.739h-1.551v-.647a2.165,2.165,0,0,1-1.75.73,2.9,2.9,0,1,1,0-5.806,2.157,2.157,0,0,1,1.659.68V181.29Zm-1.593,4.977a1.443,1.443,0,1,0-1.435,1.551,1.427,1.427,0,0,0,1.435-1.593Z" transform="translate(-126.158 -106.954)" fill="#263238"/>
      <rect id="Rectangle_3200" data-name="Rectangle 3200" width="19.658" height="27.197" rx="5.48" transform="translate(27.647 94.699)" fill="#ebebeb"/>
      <rect id="Rectangle_3201" data-name="Rectangle 3201" width="19.127" height="27.197" rx="5.48" transform="translate(74.568 94.699)" fill="#ebebeb"/>
      <rect id="Rectangle_3202" data-name="Rectangle 3202" width="19.127" height="27.197" rx="5.48" transform="translate(51.576 94.699)" fill="#ebebeb"/>
      <rect id="Rectangle_3203" data-name="Rectangle 3203" width="19.666" height="27.197" rx="5.48" transform="translate(97.452 94.699)" fill="#ebebeb"/>
      <rect id="Rectangle_3204" data-name="Rectangle 3204" width="19.666" height="27.197" rx="5.48" transform="translate(120.004 94.699)" fill="#ebebeb"/>
      <path id="Path_5126" data-name="Path 5126" d="M151.8,220.584l2.1,1.136-.946,1.584-2.115-1.261v2.339h-1.808v-2.356l-2.123,1.277-.929-1.584,2.107-1.136-2.107-1.161.929-1.584,2.123,1.277V216.76h1.808v2.356l2.115-1.277.946,1.584Z" transform="translate(-111.822 -113.004)" fill="#ff725e"/>
      <path id="Path_5127" data-name="Path 5127" d="M179.471,220.437l2.107,1.136-.946,1.584-2.123-1.244.041,2.339h-1.816V221.9l-2.123,1.277-.921-1.584,2.1-1.136-2.1-1.161.921-1.584,2.123,1.277V216.63h1.816l-.041,2.356,2.123-1.277.946,1.584Z" transform="translate(-116.549 -112.982)" fill="#ff725e"/>
      <path id="Path_5128" data-name="Path 5128" d="M207.806,220.434l2.107,1.136-.946,1.584L206.8,221.91l.041,2.339h-1.816v-2.356l-2.123,1.277-.9-1.6,2.1-1.136-2.1-1.161.921-1.584,2.123,1.277V216.61h1.816l-.041,2.356,2.123-1.277.946,1.584Z" transform="translate(-121.377 -112.978)" fill="#ff725e"/>
      <path id="Path_5129" data-name="Path 5129" d="M235.168,220.437l2.1,1.136-.946,1.584-2.123-1.244.041,2.339h-1.816V221.9l-2.123,1.277-.929-1.584,2.107-1.136-2.107-1.161.929-1.584,2.123,1.277V216.63h1.816l-.041,2.356,2.123-1.277.946,1.584Z" transform="translate(-126.046 -112.982)" fill="#ff725e"/>
      <path id="Path_5130" data-name="Path 5130" d="M153.043,233.177H142.874a4.753,4.753,0,0,1-4.744-4.744V210.384a4.753,4.753,0,0,1,4.744-4.744h10.169a4.744,4.744,0,0,1,4.744,4.744v18.049a4.753,4.753,0,0,1-4.744,4.744Zm-10.169-27.239a4.413,4.413,0,0,0-4.4,4.413V228.4a4.4,4.4,0,0,0,4.4,4.4h10.169a4.413,4.413,0,0,0,4.413-4.4V210.384a4.421,4.421,0,0,0-4.413-4.413Z" transform="translate(-110.483 -111.107)" fill="#263238"/>
      <path id="Path_5131" data-name="Path 5131" d="M181.522,233.177H171.344a4.753,4.753,0,0,1-4.744-4.744V210.384a4.753,4.753,0,0,1,4.744-4.744h10.177a4.744,4.744,0,0,1,4.736,4.744v18.049a4.744,4.744,0,0,1-4.736,4.744Zm-10.177-27.239a4.413,4.413,0,0,0-4.4,4.413V228.4a4.4,4.4,0,0,0,4.4,4.4h10.177a4.4,4.4,0,0,0,4.4-4.4V210.384a4.413,4.413,0,0,0-4.4-4.413Z" transform="translate(-115.339 -111.107)" fill="#263238"/>
      <path id="Path_5132" data-name="Path 5132" d="M209.21,233.177H199.024a4.753,4.753,0,0,1-4.744-4.744V210.384a4.753,4.753,0,0,1,4.744-4.744H209.2a4.744,4.744,0,0,1,4.736,4.744v18.049a4.744,4.744,0,0,1-4.728,4.744Zm-10.185-27.239a4.413,4.413,0,0,0-4.4,4.413V228.4a4.4,4.4,0,0,0,4.4,4.4H209.2a4.4,4.4,0,0,0,4.4-4.4V210.384a4.413,4.413,0,0,0-4.4-4.413Z" transform="translate(-120.061 -111.107)" fill="#263238"/>
      <path id="Path_5133" data-name="Path 5133" d="M237.21,233.177H227.024a4.753,4.753,0,0,1-4.744-4.744V210.384a4.744,4.744,0,0,1,4.744-4.744h10.169a4.753,4.753,0,0,1,4.744,4.744v18.049a4.753,4.753,0,0,1-4.728,4.744Zm-10.185-27.239a4.421,4.421,0,0,0-4.413,4.413V228.4a4.413,4.413,0,0,0,4.413,4.4h10.169a4.4,4.4,0,0,0,4.4-4.4V210.384a4.413,4.413,0,0,0-4.4-4.413Z" transform="translate(-124.836 -111.107)" fill="#263238"/>
      <path id="Path_5134" data-name="Path 5134" d="M264.4,233.177H254.234a4.753,4.753,0,0,1-4.744-4.744V210.384a4.744,4.744,0,0,1,4.744-4.744H264.4a4.753,4.753,0,0,1,4.744,4.744v18.049A4.753,4.753,0,0,1,264.4,233.177Zm-10.169-27.239a4.421,4.421,0,0,0-4.413,4.413V228.4a4.413,4.413,0,0,0,4.413,4.4H264.4a4.4,4.4,0,0,0,4.4-4.4V210.384a4.413,4.413,0,0,0-4.4-4.413Z" transform="translate(-129.478 -111.107)" fill="#263238"/>
      <path id="Path_5135" data-name="Path 5135" d="M265.669,230.08a33.851,33.851,0,0,1-5.449.216,33.852,33.852,0,0,1-5.449-.216,35.037,35.037,0,0,1,5.449-.216A35.036,35.036,0,0,1,265.669,230.08Z" transform="translate(-130.378 -115.235)" fill="#ff725e"/>
      <circle id="Ellipse_165" data-name="Ellipse 165" cx="21.972" cy="21.972" r="21.972" transform="translate(62.582 22.555)" fill="#ff725e"/>
      <path id="Path_5136" data-name="Path 5136" d="M202,139.188h-.365v-2.049a4.288,4.288,0,1,1,8.568,0V138.8h-.365v-1.659a3.923,3.923,0,1,0-7.838,0Z" transform="translate(-121.315 -98.66)" fill="#fff"/>
      <path id="Path_5137" data-name="Path 5137" d="M210.7,154.817h-10.89A1.8,1.8,0,0,1,198,153.009v-10.89a1.808,1.808,0,0,1,1.808-1.808H210.7a1.816,1.816,0,0,1,1.808,1.808v10.89A1.808,1.808,0,0,1,210.7,154.817Zm-10.89-14.142a1.443,1.443,0,0,0-1.443,1.443v10.89a1.443,1.443,0,0,0,1.443,1.443H210.7a1.443,1.443,0,0,0,1.443-1.443v-10.89a1.443,1.443,0,0,0-1.443-1.443Z" transform="translate(-120.695 -99.964)" fill="#fff"/>
      <path id="Path_5138" data-name="Path 5138" d="M206.455,148.784a1.717,1.717,0,1,1,1.709-1.709,1.717,1.717,0,0,1-1.709,1.709Zm0-3.052a1.335,1.335,0,1,0,.953.391,1.344,1.344,0,0,0-.953-.391Z" transform="translate(-121.843 -100.824)" fill="#fff"/>
      <rect id="Rectangle_3205" data-name="Rectangle 3205" width="0.365" height="3.085" transform="translate(84.372 47.695)" fill="#fff"/>
      <circle id="Ellipse_166" data-name="Ellipse 166" cx="6.785" cy="6.785" r="6.785" transform="translate(144.236 17.82) rotate(-77.59)" fill="#e0e0e0"/>
      <path id="Path_5139" data-name="Path 5139" d="M285.766,108.84a.207.207,0,0,1-.149-.066.2.2,0,0,1,0-.29l4.4-4.4a.2.2,0,0,1,.29,0,.207.207,0,0,1,0,.3l-4.4,4.388A.208.208,0,0,1,285.766,108.84Z" transform="translate(-135.629 -93.775)" fill="#fff"/>
      <path id="Path_5140" data-name="Path 5140" d="M290.154,108.84a.207.207,0,0,1-.141-.066l-4.4-4.388a.207.207,0,0,1,0-.3.2.2,0,0,1,.29,0l4.4,4.4a.2.2,0,0,1,0,.29A.207.207,0,0,1,290.154,108.84Z" transform="translate(-135.629 -93.775)" fill="#fff"/>
    </g>
    <g id="freepik--Plant--inject-7" transform="translate(33.482 252.998)">
      <path id="Path_5141" data-name="Path 5141" d="M70.768,400.564s-21.914-25.223-30.183-50.446-4.346-22.328-4.346-22.328,11.164,24.5,19.641,36.338,23.573,29.2,23.573,29.2Z" transform="translate(-35.309 -303.05)" fill="#455a64"/>
      <path id="Path_5142" data-name="Path 5142" d="M82.829,332.407a1.277,1.277,0,0,0-2.372.829c1.335,8.867,4.222,29.652,4.147,43.131-.141,17.518,0,24.286,0,24.286h9.124s-1.659-36.213-3.683-47.278C88.569,345.653,85.5,337.06,82.829,332.407Z" transform="translate(-43.007 -303.745)" fill="#455a64"/>
      <path id="Path_5143" data-name="Path 5143" d="M89.32,397.058a96.588,96.588,0,0,0,7.506-27.23c.746-6.445-.589-15.162-2.58-26.791a71.522,71.522,0,0,1-1.153-12.889,2.173,2.173,0,0,1,4.081-1.02c1.1,1.966,4.288,8.676,5.1,12.881,2.206,11.479,4.7,17.219,2.8,28.118s-8.983,27.67-8.983,27.67Z" transform="translate(-44.521 -303.102)" fill="#455a64"/>
      <path id="Path_5144" data-name="Path 5144" d="M99.22,394.925s24.054-51.707,25.712-59.379,7.341-25.348,8-24.344,1.659,10.335-2.662,21.01-22.851,64.29-22.851,64.29h-8.2" transform="translate(-46.21 -300.231)" fill="#455a64"/>
      <path id="Path_5145" data-name="Path 5145" d="M77.537,395.566a4.29,4.29,0,0,1-.672-.464c-.431-.324-1.078-.78-1.866-1.418-1.6-1.261-3.849-3.177-6.47-5.706a108.657,108.657,0,0,1-17.418-22.395A146.968,146.968,0,0,1,39.192,339.77c-1.211-3.434-2.09-6.246-2.662-8.195-.3-.979-.5-1.742-.639-2.256a4.844,4.844,0,0,1-.191-.829,4.745,4.745,0,0,1,.29.763c.182.556.423,1.3.73,2.231.63,1.933,1.568,4.719,2.812,8.137a156.812,156.812,0,0,0,12.019,25.671,113.633,113.633,0,0,0,17.269,22.395c2.58,2.563,4.778,4.512,6.337,5.806.771.664,1.4,1.145,1.8,1.493a5.058,5.058,0,0,1,.581.581Z" transform="translate(-35.375 -303.187)" fill="#263238"/>
      <path id="Path_5146" data-name="Path 5146" d="M88.051,371.556a7.275,7.275,0,0,1-.216-1.518c-.116-1.07-.265-2.488-.448-4.147-.382-3.5-.979-8.294-1.825-13.628s-1.8-10.069-2.538-13.5c-.357-1.659-.647-3.027-.879-4.081a8.428,8.428,0,0,1-.265-1.51,8.892,8.892,0,0,1,.464,1.46c.265.954.622,2.331,1.037,4.048.829,3.426,1.833,8.195,2.687,13.512s1.393,10.152,1.659,13.669c.141,1.75.241,3.177.282,4.147a9.339,9.339,0,0,1,.041,1.551Z" transform="translate(-43.252 -303.985)" fill="#263238"/>
      <path id="Path_5147" data-name="Path 5147" d="M95.61,328.87a3.217,3.217,0,0,1,.282.655l.722,1.924c.323.829.688,1.858,1.037,3.077s.829,2.579,1.169,4.147l.6,2.43c.2.829.34,1.742.523,2.662.4,1.833.639,3.824.929,5.914a96.463,96.463,0,0,1,.581,13.7,96.371,96.371,0,0,1-1.559,13.636c-.44,2.057-.829,4.031-1.344,5.806-.257.9-.464,1.792-.722,2.621l-.771,2.422c-.456,1.526-1.02,2.862-1.46,4.048a26.455,26.455,0,0,1-1.252,2.994l-.829,1.866a3.268,3.268,0,0,1-.332.63,3.773,3.773,0,0,1,.232-.672c.2-.481.456-1.111.771-1.9s.755-1.825,1.161-3.027.954-2.488,1.393-4.056c.232-.755.473-1.551.73-2.38s.448-1.709.688-2.613c.5-1.8.829-3.757,1.294-5.806a100.943,100.943,0,0,0,1.51-13.561,100.861,100.861,0,0,0-.531-13.628c-.282-2.082-.506-4.064-.879-5.9-.174-.912-.307-1.808-.5-2.654s-.382-1.659-.564-2.43c-.323-1.551-.763-2.92-1.087-4.147s-.664-2.256-.954-3.1l-.622-1.949a3.767,3.767,0,0,1-.216-.713Z" transform="translate(-45.18 -303.251)" fill="#263238"/>
      <path id="Path_5148" data-name="Path 5148" d="M133.49,312.46a.989.989,0,0,1,0,.232,5.763,5.763,0,0,1-.108.672c-.108.589-.241,1.46-.473,2.571a93.452,93.452,0,0,1-2.488,9.306c-1.244,3.882-2.837,8.444-4.786,13.445s-4.2,10.459-6.337,16.265-3.84,11.455-5.408,16.589-3.036,9.746-4.462,13.553a86.006,86.006,0,0,1-3.774,8.85c-.489,1.02-.937,1.783-1.219,2.314l-.34.589c-.075.133-.116.2-.124.191a.7.7,0,0,1,.083-.216l.29-.614c.257-.539.672-1.319,1.136-2.356.962-2.049,2.273-5.06,3.633-8.883s2.82-8.419,4.346-13.561,3.21-10.783,5.383-16.589,4.413-11.272,6.378-16.265,3.641-9.514,4.885-13.379,2.065-7.034,2.588-9.24c.265-1.1.431-1.966.572-2.555.058-.265.116-.481.158-.655A.754.754,0,0,1,133.49,312.46Z" transform="translate(-47.02 -300.452)" fill="#263238"/>
      <path id="Path_5149" data-name="Path 5149" d="M49.389,298.569a2.065,2.065,0,0,0-3.409,2.107A59.016,59.016,0,0,0,49,308.456c3.318,7.025,13.022,32.248,17.576,46.1s10.924,39.7,10.924,39.7l9.713-1.576s-8.883-42.426-17.534-57.762C62.7,322.623,55.717,304.857,49.389,298.569Z" transform="translate(-37.112 -297.983)" fill="#455a64"/>
      <path id="Path_5150" data-name="Path 5150" d="M74,376.64a5.433,5.433,0,0,1,.506,1.161c.282.763.68,1.875,1.12,3.26.9,2.77,1.991,6.635,3.086,10.94s2.024,8.22,2.662,11.056c.29,1.335.531,2.488.73,3.359a6.409,6.409,0,0,1,.2,1.252,6.22,6.22,0,0,1-.4-1.2c-.232-.888-.531-2-.887-3.318-.746-2.92-1.717-6.76-2.8-11.007s-2.132-8.178-2.936-10.965c-.382-1.319-.705-2.422-.962-3.318A6.327,6.327,0,0,1,74,376.64Z" transform="translate(-41.908 -311.399)" fill="#263238"/>
      <path id="Path_5151" data-name="Path 5151" d="M82.639,393.552a1.029,1.029,0,0,1-.05-.257,5.749,5.749,0,0,0-.116-.763c-.1-.672-.191-1.659-.4-2.944-.357-2.555-.987-6.229-2.032-10.716A154.638,154.638,0,0,0,75.5,363.36c-2-5.756-4.5-11.977-7.324-18.413-5.715-12.848-11.421-24.253-15.179-32.68-1.891-4.214-3.318-7.639-4.33-10.036-.489-1.194-.829-2.132-1.087-2.762-.116-.29-.2-.531-.274-.722a.937.937,0,0,1-.075-.257,1.119,1.119,0,0,1,.124.232l.315.705c.29.664.68,1.576,1.186,2.729,1.02,2.364,2.538,5.806,4.471,9.953,3.832,8.369,9.6,19.757,15.32,32.63,2.828,6.445,5.325,12.682,7.3,18.463A146.809,146.809,0,0,1,80.4,378.8a108,108,0,0,1,1.875,10.783c.174,1.277.232,2.281.307,2.953l.058.771a1.079,1.079,0,0,1,0,.249Z" transform="translate(-37.342 -298.07)" fill="#263238"/>
      <path id="Path_5152" data-name="Path 5152" d="M93.563,403.758a10.662,10.662,0,0,1-.332-1.659c-.191-1.136-.448-2.646-.755-4.462-.664-3.766-1.659-8.95-3.16-14.59s-3.094-10.642-4.355-14.25c-.614-1.742-1.128-3.177-1.518-4.263a10.29,10.29,0,0,1-.514-1.584,9.953,9.953,0,0,1,.705,1.51c.415.987,1,2.422,1.659,4.214a141.007,141.007,0,0,1,4.512,14.275A147.964,147.964,0,0,1,92.833,397.6c.274,1.891.481,3.426.589,4.5a11.067,11.067,0,0,1,.141,1.659Z" transform="translate(-43.431 -309.064)" fill="#263238"/>
      <rect id="Rectangle_3206" data-name="Rectangle 3206" width="37.913" height="46.191" transform="translate(32.158 93.3)" fill="#ff725e"/>
      <g id="Group_8400" data-name="Group 8400" transform="translate(32.158 93.3)" opacity="0.3">
        <rect id="Rectangle_3207" data-name="Rectangle 3207" width="37.913" height="46.191"/>
      </g>
      <rect id="Rectangle_3208" data-name="Rectangle 3208" width="33.634" height="46.191" transform="translate(24.337 93.3)" fill="#ff725e"/>
    </g>
    <g id="freepik--Character--inject-7" transform="translate(122.914 133.47)">
      <path id="Path_5153" data-name="Path 5153" d="M372.311,285.976,352.38,283.09l-39.871,5.9-11.189,3.956,1.982,24.468,38.336,7.059,25.862-7.664,9.779-14.391Z" transform="translate(-170.113 -175.915)" fill="#ffbe9d"/>
      <path id="Path_5154" data-name="Path 5154" d="M381.212,288.582l-16.688-3.932s-11.786,36.5-40.891,34.894c-23.722-1.286-24-27.761-24-27.761l-17.095,5.474s-6.544,43.852.7,74.923c1.659,7.258,3.956,17.037,3.956,17.037l-2.314,45.395,126.439.2L381.212,288.582Z" transform="translate(-166.447 -176.181)" fill="#ff725e"/>
      <g id="Group_8401" data-name="Group 8401" transform="translate(165.197 238.98)" opacity="0.3">
        <path id="Path_5155" data-name="Path 5155" d="M342.3,452.642c6.154-.158,11.828.365,17.982.216,7.382-.182,14.822-.365,22.113.829,5.458.9,10.783,2.563,16.24,3.426,7.465,1.178,15.419.763,22.055-2.828l-1.07-6.2L394.422,442Z" transform="translate(-342.3 -442)"/>
      </g>
      <path id="Path_5156" data-name="Path 5156" d="M259.615,310c5.806-7.465,15.394-10.575,15.394-10.575l6.47,56.31-12.251,82-40.128-.191S251.229,320.819,259.615,310Z" transform="translate(-157.794 -178.7)" fill="#ff725e"/>
      <path id="Path_5157" data-name="Path 5157" d="M398.256,288.89s27.006,2.165,36.694,46.448c4.379,20.014,9.953,43.462,11.521,59.23,1.153,11.43-5.06,29.329-16.456,30.8l-14.333,1.924a23.68,23.68,0,0,1-8.444-.307c-9.049-2.082-9.953-8.294-11.612-14.93l-4.147-13.2c-2.289-12.558,9.414-14.93,15.875-14.756l-4.819-57.322Z" transform="translate(-185.441 -176.904)" fill="#ff725e"/>
      <path id="Path_5158" data-name="Path 5158" d="M280.172,337.17a2.934,2.934,0,0,0-.124.614c-.066.448-.158,1.045-.274,1.783-.05.39-.116.829-.182,1.294s-.1.987-.158,1.543c-.116,1.1-.249,2.364-.307,3.766a95.217,95.217,0,0,0-.066,9.845A120.175,120.175,0,0,0,280.255,368c.622,4.238,1.4,8.236,2.2,11.853s1.568,6.859,2.248,9.58,1.252,4.9,1.659,6.412c.2.722.357,1.3.481,1.734a2.926,2.926,0,0,0,.2.6,3.083,3.083,0,0,0-.116-.614c-.1-.448-.232-1.029-.4-1.758-.373-1.568-.9-3.757-1.543-6.445s-1.393-5.972-2.148-9.588-1.543-7.606-2.157-11.828-1.045-8.294-1.228-11.952a85.525,85.525,0,0,1,0-9.8c.041-1.4.149-2.654.241-3.766q.058-.829.124-1.543c.05-.464.1-.9.141-1.294.083-.738.149-1.335.191-1.792a3.179,3.179,0,0,0,.025-.622Z" transform="translate(-166.3 -185.139)" fill="#263238"/>
      <path id="Path_5159" data-name="Path 5159" d="M431.848,419.139a4.865,4.865,0,0,0-.191-1.136,18.1,18.1,0,0,0-1.045-2.911,19.848,19.848,0,0,0-15.851-11.537,17.407,17.407,0,0,0-3.094-.1,5.055,5.055,0,0,0-1.128.141,37.035,37.035,0,0,1,4.147.257,20.479,20.479,0,0,1,15.618,11.363A40.229,40.229,0,0,1,431.848,419.139Z" transform="translate(-188.742 -196.44)" fill="#263238"/>
      <path id="Path_5160" data-name="Path 5160" d="M425.638,395.777a2.082,2.082,0,0,0-.655-.058,13.758,13.758,0,0,0-1.783.083,20.463,20.463,0,0,0-5.7,1.427,20.945,20.945,0,0,0-5.06,2.994,14.412,14.412,0,0,0-1.319,1.194c-.29.307-.44.481-.423.506s.73-.581,1.933-1.46a23.813,23.813,0,0,1,10.608-4.363C424.709,395.885,425.638,395.852,425.638,395.777Z" transform="translate(-188.769 -195.125)" fill="#263238"/>
      <path id="Path_5161" data-name="Path 5161" d="M394.975,320.858a6.132,6.132,0,0,0,.066-1.186c0-.763.05-1.858.141-3.21a51.54,51.54,0,0,1,5.69-20.255c.622-1.2,1.161-2.165,1.551-2.812a6.12,6.12,0,0,0,.556-1.045,6.251,6.251,0,0,0-.705.954,32.2,32.2,0,0,0-1.659,2.762,46.714,46.714,0,0,0-5.723,20.388c-.05,1.36-.05,2.488,0,3.227A5.726,5.726,0,0,0,394.975,320.858Z" transform="translate(-186.067 -177.495)" fill="#263238"/>
      <path id="Path_5162" data-name="Path 5162" d="M332.64,375.15a1.8,1.8,0,0,0,.116.464c.1.3.224.755.448,1.3a27.024,27.024,0,0,0,2.248,4.554,29.271,29.271,0,0,0,28.674,13.769,27.944,27.944,0,0,0,4.977-1.087c.572-.174,1-.365,1.294-.473a2.487,2.487,0,0,0,.44-.191c0-.041-.639.174-1.783.5A30.063,30.063,0,0,1,335.7,381.313a31.45,31.45,0,0,1-2.356-4.454A11.216,11.216,0,0,0,332.64,375.15Z" transform="translate(-175.455 -191.617)" fill="#263238"/>
      <path id="Path_5163" data-name="Path 5163" d="M401.26,447.976c.041-.042.464.564,1.476,1.393a13.562,13.562,0,0,0,4.977,2.356,26.153,26.153,0,0,0,8.128.722c3.086-.224,6.494-.589,10.028-1.111a51.43,51.43,0,0,0,9.787-2.256,12.44,12.44,0,0,0,3.591-2.4,18.653,18.653,0,0,0,2.488-2.862,27.046,27.046,0,0,0,2.762-4.786c.257-.605.456-1.07.581-1.393a1.889,1.889,0,0,1,.216-.481,3.405,3.405,0,0,1-.133.506c-.1.34-.274.829-.514,1.435a24.235,24.235,0,0,1-2.663,4.9,18.533,18.533,0,0,1-2.488,2.936,12.54,12.54,0,0,1-3.683,2.488,48.777,48.777,0,0,1-9.87,2.314c-3.558.531-6.959.879-10.069,1.087a26.125,26.125,0,0,1-8.236-.829,13.27,13.27,0,0,1-4.977-2.488,7.948,7.948,0,0,1-1.053-1.1A2.174,2.174,0,0,1,401.26,447.976Z" transform="translate(-187.159 -202.194)" fill="#263238"/>
      <path id="Path_5164" data-name="Path 5164" d="M395.889,343.72c.108,0,2.961,11.023,6.353,24.692s6.055,24.767,5.939,24.8-2.961-11.031-6.353-24.7S395.773,343.745,395.889,343.72Z" transform="translate(-186.242 -186.257)" fill="#263238"/>
      <path id="Path_5165" data-name="Path 5165" d="M391.694,416.348a3.384,3.384,0,0,1-.141-.912,16.254,16.254,0,0,1-.058-2.488,7.374,7.374,0,0,1,1.219-3.542,10.534,10.534,0,0,1,1.385-1.742,9.762,9.762,0,0,1,1.916-1.427,24.285,24.285,0,0,1,7.863-2.538,22.087,22.087,0,0,1,2.488-.216,3.134,3.134,0,0,1,.921,0c0,.066-1.3.116-3.368.489a26.194,26.194,0,0,0-7.7,2.6,9.621,9.621,0,0,0-1.841,1.36,10.418,10.418,0,0,0-1.344,1.659,7.142,7.142,0,0,0-1.244,3.318,21.216,21.216,0,0,0-.075,2.488A4.089,4.089,0,0,1,391.694,416.348Z" transform="translate(-185.49 -196.444)" fill="#263238"/>
      <g id="Group_8402" data-name="Group 8402" transform="translate(109.752 150.231)" opacity="0.3">
        <path id="Path_5166" data-name="Path 5166" d="M280.817,373.983c-6.893-11.67-7.042-26.832-1.029-38.983a109.287,109.287,0,0,0,1.228,38.934" transform="translate(-275.453 -335)"/>
      </g>
      <path id="Path_5167" data-name="Path 5167" d="M325.89,417.08h.05Z" transform="translate(-174.304 -198.769)" fill="#ffbe9d"/>
      <path id="Path_5168" data-name="Path 5168" d="M326.25,417.25l.108.05Z" transform="translate(-174.365 -198.798)" fill="#ffbe9d"/>
      <path id="Path_5169" data-name="Path 5169" d="M326,417.11l.249.116Z" transform="translate(-174.322 -198.774)" fill="#ffbe9d"/>
      <path id="Path_5170" data-name="Path 5170" d="M325.76,417l.108.05Z" transform="translate(-174.281 -198.756)" fill="#ffbe9d"/>
      <path id="Path_5171" data-name="Path 5171" d="M294.942,439.868c2.173-4.1,19.118-14.93,19.118-14.93l-4.587-1.062-5.068,2.14a12.442,12.442,0,0,1-2.181,4.744c-1.858,2.654-5.018-.091-5.018-.091l2.14-10.26,10.02-6.03s9.422,1.443,10.949,2.173l4.014,3.674c1.767,1.385,6.859,6.835,8.253,7s45.163-9.663,45.163-9.663h0c6,4.753,9.124,14.183,10.1,20.993,0,0,1.07,3.318-.091,5.159l-53.689,4.214-11.38,3.144a80.564,80.564,0,0,1-9.348,3.21c-3.782.829-6.329-.423-6.436-2.488s2.837-2.322,2.837-2.322a57.232,57.232,0,0,0,7.316-3.218,12.832,12.832,0,0,0,4.147-4.529l-4.056.481s-8.626,5.989-11.869,7.747-3.882-1.468-4.147-2.488,9.688-10.708,9.688-10.708-9.464,5.806-11.164,7.3-4.222,1.916-4.761.929S292.777,443.966,294.942,439.868Z" transform="translate(-168.836 -198.309)" fill="#ffbe9d"/>
      <path id="Path_5172" data-name="Path 5172" d="M326.38,417.31l.091.05Z" transform="translate(-174.387 -198.808)" fill="#ffbe9d"/>
      <path id="Path_5173" data-name="Path 5173" d="M326.56,417.4Z" transform="translate(-174.418 -198.824)" fill="#ffbe9d"/>
      <path id="Path_5174" data-name="Path 5174" d="M326.49,417.37h.058Z" transform="translate(-174.406 -198.819)" fill="#ffbe9d"/>
      <path id="Path_5175" data-name="Path 5175" d="M349.573,443.46a2.333,2.333,0,0,0,.05-.664,3.891,3.891,0,0,0-.05-.78,5.867,5.867,0,0,0-.191-1.02,14.566,14.566,0,0,0-2.745-5.3,30.691,30.691,0,0,0-4.147-4.3,11.918,11.918,0,0,0-1.949-1.51,20.917,20.917,0,0,0,1.758,1.717,39.512,39.512,0,0,1,4.014,4.338,15.6,15.6,0,0,1,2.787,5.126C349.531,442.514,349.49,443.468,349.573,443.46Z" transform="translate(-176.802 -200.954)" fill="#eb996e"/>
      <path id="Path_5176" data-name="Path 5176" d="M318.69,426.368a6.221,6.221,0,0,0,5.35-1.8c-.066-.091-1.1.68-2.588,1.161S318.69,426.252,318.69,426.368Z" transform="translate(-173.075 -200.045)" fill="#eb996e"/>
      <path id="Path_5177" data-name="Path 5177" d="M315.29,439.564a53.354,53.354,0,0,0,8.477-3.484,25.908,25.908,0,0,0-4.313,1.559A27.036,27.036,0,0,0,315.29,439.564Z" transform="translate(-172.496 -202.01)" fill="#eb996e"/>
      <path id="Path_5178" data-name="Path 5178" d="M326.25,446.849a9.952,9.952,0,0,0,2.206-.788,9.756,9.756,0,0,0,2.157-.921,8.725,8.725,0,0,0-4.363,1.709Z" transform="translate(-174.365 -203.555)" fill="#eb996e"/>
      <path id="Path_5179" data-name="Path 5179" d="M317,441.176a9.392,9.392,0,0,1,1.659,1.46,9.2,9.2,0,0,1,.962,2.007c.05,0,.1-.274,0-.705a3.591,3.591,0,0,0-.68-1.543,3.55,3.55,0,0,0-1.3-1.062C317.265,441.151,317,441.135,317,441.176Z" transform="translate(-172.787 -202.876)" fill="#eb996e"/>
      <path id="Path_5180" data-name="Path 5180" d="M312.179,433.626c-.058.1.688.506,1.178,1.36a10.785,10.785,0,0,1,.605,1.7,2.016,2.016,0,0,0-.274-1.924C313.133,433.8,312.2,433.518,312.179,433.626Z" transform="translate(-171.964 -201.588)" fill="#eb996e"/>
      <path id="Path_5181" data-name="Path 5181" d="M313.611,419.373c.05,0,.2-.166.323-.539a2.944,2.944,0,0,0,0-1.493,2.887,2.887,0,0,0-.713-1.31c-.274-.274-.5-.373-.531-.332a7.827,7.827,0,0,1,.829,1.742,7.15,7.15,0,0,1,.091,1.933Z" transform="translate(-172.052 -198.532)" fill="#eb996e"/>
      <path id="Path_5182" data-name="Path 5182" d="M405.331,445.78a7.707,7.707,0,0,1-.066-1.236,13.438,13.438,0,0,0-.058-1.443c-.058-.564-.05-1.2-.133-1.9a42.559,42.559,0,0,0-2.347-10.783,38.642,38.642,0,0,0-2.538-5.507c-.5-.829-.929-1.568-1.427-2.24-.232-.34-.464-.664-.688-.979a7.3,7.3,0,0,0-.688-.829c-1.783-2.2-3.152-3.318-3.086-3.384a5.666,5.666,0,0,1,.962.771,12.281,12.281,0,0,1,1.062,1c.39.406.829.829,1.3,1.41.224.282.464.564.713.829a11.119,11.119,0,0,1,.722.979c.514.672.962,1.451,1.468,2.248a36.036,36.036,0,0,1,2.6,5.557,39.5,39.5,0,0,1,2.248,10.882c.058.705.05,1.352.066,1.916s0,1.053,0,1.452A6.185,6.185,0,0,1,405.331,445.78Z" transform="translate(-185.971 -198.837)" fill="#263238"/>
      <g id="Group_8403" data-name="Group 8403" transform="translate(221.873 206.539)" opacity="0.3">
        <path id="Path_5183" data-name="Path 5183" d="M426.539,404.93a26.974,26.974,0,0,0-15.909-1.452h0A22.005,22.005,0,0,1,432.1,417.363c.382,1.029,1.145,2.248,2.24,2.09s1.393-1.427,1.393-2.447C435.745,411.64,431.49,407,426.539,404.93Z" transform="translate(-410.63 -402.888)"/>
      </g>
      <path id="Path_5184" data-name="Path 5184" d="M276.854,330.274a2.608,2.608,0,0,1-.713-.241c-.456-.174-1.095-.464-1.875-.829a39.265,39.265,0,0,1-5.806-3.558,39.809,39.809,0,0,1-5.093-4.479c-.6-.63-1.07-1.161-1.369-1.534s-.464-.6-.44-.622.78.747,2.024,1.941a52.7,52.7,0,0,0,5.134,4.354,51.775,51.775,0,0,0,5.665,3.625C275.942,329.784,276.9,330.216,276.854,330.274Z" transform="translate(-163.331 -182.042)" fill="#fff"/>
      <path id="Path_5185" data-name="Path 5185" d="M375.835,336.36a.928.928,0,0,1-.207.141l-.639.382c-.556.34-1.4.829-2.488,1.377a69.669,69.669,0,0,1-9.663,4.073,93.018,93.018,0,0,1-15.121,3.633,146.736,146.736,0,0,1-18.978,1.576c-6.76.158-13.2,0-19.077-.1a127.1,127.1,0,0,1-15.51-1.169,60.184,60.184,0,0,1-10.219-2.372c-1.17-.4-2.074-.73-2.671-.987l-.68-.29a1.221,1.221,0,0,1-.232-.108l.249.066.7.249c.606.232,1.518.539,2.7.912a65.628,65.628,0,0,0,10.2,2.231,133.538,133.538,0,0,0,15.477,1.07c5.806.108,12.276.224,19.019.066a149.043,149.043,0,0,0,18.928-1.543,94.612,94.612,0,0,0,15.087-3.525,75.082,75.082,0,0,0,9.688-3.931c1.1-.547,1.957-.987,2.488-1.3l.655-.34A1.564,1.564,0,0,1,375.835,336.36Z" transform="translate(-166.536 -185.001)" fill="#fff"/>
      <path id="Path_5186" data-name="Path 5186" d="M275.121,370.427a4.58,4.58,0,0,1-1.029-.216l-2.762-.755c-2.322-.655-5.524-1.593-9.057-2.646s-6.718-2.04-9.024-2.77l-2.721-.879a5.713,5.713,0,0,1-.979-.382,4.58,4.58,0,0,1,1.029.216l2.762.755c2.322.655,5.524,1.593,9.057,2.646s6.718,2.032,9.024,2.762l2.721.888A4.978,4.978,0,0,1,275.121,370.427Z" transform="translate(-161.283 -189.507)" fill="#fff"/>
      <path id="Path_5187" data-name="Path 5187" d="M275.708,425c0,.108-8.294-2.264-18.5-5.308s-18.405-5.607-18.372-5.723,8.294,2.256,18.5,5.308S275.742,424.885,275.708,425Z" transform="translate(-159.456 -198.238)" fill="#fff"/>
      <path id="Path_5188" data-name="Path 5188" d="M422.394,307.69a5.737,5.737,0,0,1-.912.722c-.6.44-1.493,1.053-2.613,1.783a89.013,89.013,0,0,1-18.72,9.2c-1.261.44-2.289.771-3.011.979a5.592,5.592,0,0,1-1.128.282,6.413,6.413,0,0,1,1.078-.44l2.961-1.1c2.488-.954,5.9-2.364,9.547-4.147s6.851-3.625,9.124-5.018l2.687-1.659A5.883,5.883,0,0,1,422.394,307.69Z" transform="translate(-186.264 -180.111)" fill="#fff"/>
      <path id="Path_5189" data-name="Path 5189" d="M440.162,364.51a10.266,10.266,0,0,1-1.344.639c-.871.39-2.165.9-3.774,1.493a87.645,87.645,0,0,1-26.185,5.209c-1.717.075-3.1.091-4.064.058a11.138,11.138,0,0,1-1.485-.066,8.926,8.926,0,0,1,1.485-.1c.954,0,2.339-.083,4.048-.2a101.718,101.718,0,0,0,13.23-1.717,103.22,103.22,0,0,0,12.881-3.467c1.617-.556,2.92-1.029,3.815-1.369a8.63,8.63,0,0,1,1.393-.481Z" transform="translate(-187.509 -189.803)" fill="#fff"/>
      <path id="Path_5190" data-name="Path 5190" d="M416.87,446.608a1.792,1.792,0,0,1,.041-.465c.05-.34.124-.771.207-1.3s.207-1.261.29-2.074.224-1.725.257-2.754c0-.506.066-1.045.1-1.6s0-1.145,0-1.742c0-1.2-.05-2.488-.116-3.84a56.318,56.318,0,0,0-1.335-8.693,56.97,56.97,0,0,0-2.762-8.352c-.564-1.228-1.07-2.414-1.659-3.467-.282-.531-.539-1.053-.829-1.543l-.829-1.377c-.506-.9-1.053-1.659-1.493-2.331a20.714,20.714,0,0,0-1.2-1.709l-.78-1.07a1.728,1.728,0,0,1-.249-.39,2.486,2.486,0,0,1,.315.332l.829,1.028a19.893,19.893,0,0,1,1.269,1.659c.464.672,1.029,1.418,1.551,2.306l.829,1.377c.29.481.556,1.012.829,1.543a35.7,35.7,0,0,1,1.659,3.475A50.08,50.08,0,0,1,417.94,432.8c.05,1.36.124,2.654.075,3.865,0,.605,0,1.194-.05,1.758s-.083,1.095-.124,1.609c-.058,1.037-.224,1.949-.332,2.762s-.232,1.51-.357,2.065-.216.954-.29,1.3a2.064,2.064,0,0,1,.008.448Z" transform="translate(-188.054 -196.521)" fill="#fff"/>
      <path id="Path_5191" data-name="Path 5191" d="M449.7,420.772c-.041,0-.066-.68-.257-1.875a16.115,16.115,0,0,0-1.659-4.827,20.338,20.338,0,0,0-4.686-5.906,24.336,24.336,0,0,0-7.971-4.661,31.065,31.065,0,0,0-9.132-1.592,57.866,57.866,0,0,0-7.614.29c-2.165.2-3.915.423-5.126.556l-1.393.149a1.822,1.822,0,0,1-.489,0,1.871,1.871,0,0,1,.473-.108l1.385-.232c1.2-.191,2.953-.448,5.118-.7a55.686,55.686,0,0,1,7.664-.382,31.127,31.127,0,0,1,9.257,1.6,24.535,24.535,0,0,1,8.1,4.778,20.163,20.163,0,0,1,4.695,6.063,15.253,15.253,0,0,1,1.518,4.977,10.36,10.36,0,0,1,.1,1.41A2.035,2.035,0,0,1,449.7,420.772Z" transform="translate(-188.883 -196.108)" fill="#fff"/>
      <path id="Path_5192" data-name="Path 5192" d="M340.435,395.79a1.953,1.953,0,0,1-.473.083l-1.352.141-4.977.415c-4.205.323-10.02.722-16.439,1.053s-12.251.539-16.473.589h-6.329a1.732,1.732,0,0,1-.473-.05,2.063,2.063,0,0,1,.473-.041h1.352l4.977-.124c4.205-.124,10.028-.373,16.448-.713l16.439-.929,4.977-.282,1.36-.058a1.892,1.892,0,0,1,.489-.083Z" transform="translate(-168.851 -195.138)" fill="#fff"/>
      <g id="Group_8404" data-name="Group 8404" transform="translate(162.278 192.822)" opacity="0.3">
        <path id="Path_5193" data-name="Path 5193" d="M352.905,395.905c5.225,1.534,12.442,1.908,17.559,0-3.981,5.665-11.67,7.714-18.347,5.872s-12.823-8.518-13.337-15.427A28.845,28.845,0,0,0,352.905,395.905Z" transform="translate(-338.78 -386.35)"/>
      </g>
      <path id="Path_5194" data-name="Path 5194" d="M398.261,391.279a2.613,2.613,0,0,1-.423.116l-1.2.257c-1.053.216-2.571.5-4.462.829-3.774.664-9.008,1.476-14.805,2.19s-11.081,1.178-14.93,1.443c-1.908.133-3.459.224-4.529.265l-1.228.041a1.337,1.337,0,0,1-.431,0,2.223,2.223,0,0,1,.423-.066l1.228-.124,4.512-.406c3.815-.34,9.074-.829,14.88-1.568s11.023-1.476,14.805-2.057l4.479-.7,1.228-.174a1.31,1.31,0,0,1,.456-.05Z" transform="translate(-179.482 -194.368)" fill="#fff"/>
      <g id="Group_8405" data-name="Group 8405" transform="translate(209.837 159.985)" opacity="0.3">
        <path id="Path_5195" data-name="Path 5195" d="M396.369,346.76c-1.311,15.013,2.779,29.909,6.835,44.425a6.171,6.171,0,0,0,1.111,2.488,2.157,2.157,0,0,0,2.488.688c1.269-.647,1.095-2.488.738-3.849l-11.272-43.131" transform="translate(-396.119 -346.76)"/>
      </g>
      <path id="Path_5196" data-name="Path 5196" d="M143.207,363.993l17.045,83.69H308.223a2.953,2.953,0,0,0,2.953-2.953h0a2.953,2.953,0,0,0-2.953-2.953H278.429l-15.8-77.834a3.235,3.235,0,0,0-3.135-2.588L146.408,360.12a3.227,3.227,0,0,0-3.2,3.873Z" transform="translate(-143.133 -189.054)" fill="#e0e0e0"/>
      <path id="Path_5197" data-name="Path 5197" d="M143.2,363.983a1.989,1.989,0,0,1-.05-.249,3.059,3.059,0,0,1,0-.763,3.318,3.318,0,0,1,1.568-2.447,3.209,3.209,0,0,1,.979-.382,4.859,4.859,0,0,1,1.161-.075h2.663l6.635.058,42.757.406,29.81.3,16.7.174,8.759.091,4.471.041h1.145a3.251,3.251,0,0,1,1.145.332,3.384,3.384,0,0,1,1.659,1.7,5.26,5.26,0,0,1,.307,1.136l.232,1.128c.149.746.307,1.5.456,2.256.315,1.518.622,3.044.937,4.57l1.891,9.315q1.916,9.414,3.915,19.268c2.671,13.122,5.449,26.766,8.294,40.833l-.2-.166h29.3a5.5,5.5,0,0,1,1.153.066,3.2,3.2,0,0,1,1.924,1.377,3.168,3.168,0,0,1-1.095,4.578,3.119,3.119,0,0,1-1.393.373h-148.2v-.124c-5.217-25.712-9.456-46.647-12.392-61.146-1.452-7.249-2.588-12.889-3.359-16.721-.382-1.916-.672-3.376-.829-4.363s-.274-1.493-.274-1.493.116.506.323,1.485l.912,4.346c.788,3.832,1.949,9.472,3.442,16.7l12.524,61.129-.158-.133H308.387a2.837,2.837,0,0,0,1.211-.324,2.762,2.762,0,0,0,.946-3.99,2.7,2.7,0,0,0-1.659-1.12,5.574,5.574,0,0,0-1.07-.066H278.262v-.158q-4.28-21.151-8.294-40.841-2-9.837-3.907-19.268l-1.941-9.439c-.307-1.534-.614-3.052-.921-4.57-.158-.755-.307-1.51-.464-2.264l-.224-1.12a4.71,4.71,0,0,0-.29-1.07,3.027,3.027,0,0,0-1.418-1.526,3.086,3.086,0,0,0-1.02-.3H258.67l-4.479-.05-8.759-.1-16.7-.2-29.81-.348-42.757-.523-6.635-.091-2.663-.041a5.141,5.141,0,0,0-1.145.058,3.368,3.368,0,0,0-.954.373A3.226,3.226,0,0,0,143.2,363,3.856,3.856,0,0,0,143.2,363.983Z" transform="translate(-143.131 -189.044)" fill="#263238"/>
      <path id="Path_5198" data-name="Path 5198" d="M223.411,410a4.885,4.885,0,1,1-4.885-4.885A4.885,4.885,0,0,1,223.411,410Z" transform="translate(-155.158 -196.728)" fill="#fff"/>
      <path id="Path_5199" data-name="Path 5199" d="M143.38,365.61h7.764l21.159.1,69.8.489,10.094.083h2.488a6.051,6.051,0,0,1,1.269.075,3.419,3.419,0,0,1,1.194.481,3.475,3.475,0,0,1,1.5,2.04c.191.829.324,1.592.489,2.389,1.253,6.3,2.488,12.383,3.608,18.173,2.289,11.612,4.355,22.021,6.08,30.789l4.073,20.736c.464,2.447.829,4.346,1.087,5.648.116.639.207,1.128.274,1.476a4.372,4.372,0,0,1,.075.5s-.05-.166-.116-.489-.182-.829-.315-1.468c-.265-1.3-.655-3.193-1.161-5.632-1-4.91-2.422-11.994-4.2-20.736l-6.171-30.772q-1.729-8.709-3.625-18.173c-.166-.78-.315-1.593-.481-2.356a3.11,3.11,0,0,0-1.335-1.8,3.054,3.054,0,0,0-1.062-.4,5.544,5.544,0,0,0-1.186-.066h-2.488l-10.094-.075-69.805-.614-21.151-.232-5.756-.083h-1.493Z" transform="translate(-143.174 -189.99)" fill="#263238"/>
      <path id="Path_5200" data-name="Path 5200" d="M376.426,212.37a54.826,54.826,0,0,1-17.484,41.364q-3.923-11.322-7.822-22.644" transform="translate(-178.607 -163.853)" fill="#263238"/>
      <path id="Path_5201" data-name="Path 5201" d="M308,157.355c6.71-3.666,14.814-4.2,22.312-2.7s14.482,4.894,21.1,8.726c3.716,2.148,7.415,4.512,10.086,7.863,4.869,6.13,9.688,16.2,10.152,24.054.382,6.32-2.04,22.138-4.711,27.877-2.447,5.267-13.918,9.281-19.583,10.584L295.4,173.3A26.326,26.326,0,0,1,308,157.355Z" transform="translate(-169.103 -153.876)" fill="#263238"/>
      <path id="Path_5202" data-name="Path 5202" d="M296.744,167.433l12.442-2.223c-6.81,16.215-8.659,53.291-12.549,70.444-4.6-6.635-15.253-26.957-14.681-35.027S281.989,166.064,296.744,167.433Z" transform="translate(-166.806 -155.809)" fill="#263238"/>
      <path id="Path_5203" data-name="Path 5203" d="M357.211,194.882A21.276,21.276,0,0,0,341.2,175.3l-28.69-7.316c-12.392-1.335-20.67,13.91-21.482,26.351-.9,13.827-1.46,28.408.158,38.726,3.243,20.736,19.135,23.423,19.135,23.423v15.925l9.6,39.738,30.93-42.732,6.4-74.268C357.278,194.782,357.211,195.354,357.211,194.882Z" transform="translate(-168.209 -156.268)" fill="#ffbe9d"/>
      <path id="Path_5204" data-name="Path 5204" d="M298.72,218.165a2.662,2.662,0,0,0,2.563,2.687,2.546,2.546,0,0,0,2.745-2.4,2.663,2.663,0,0,0-2.555-2.687,2.546,2.546,0,0,0-2.754,2.4Z" transform="translate(-169.669 -164.431)" fill="#263238"/>
      <path id="Path_5205" data-name="Path 5205" d="M294.989,208.987c.332.348,2.347-1.136,5.209-1.128s4.977,1.452,5.267,1.1c.158-.158-.182-.78-1.095-1.452a7.315,7.315,0,0,0-4.214-1.311,7.067,7.067,0,0,0-4.147,1.327C295.1,208.207,294.8,208.829,294.989,208.987Z" transform="translate(-169.023 -162.8)" fill="#263238"/>
      <path id="Path_5206" data-name="Path 5206" d="M328.8,218.164a2.663,2.663,0,0,0,2.563,2.687,2.538,2.538,0,0,0,2.745-2.405,2.662,2.662,0,0,0-2.555-2.687,2.546,2.546,0,0,0-2.754,2.405Z" transform="translate(-174.8 -164.429)" fill="#263238"/>
      <path id="Path_5207" data-name="Path 5207" d="M327.722,208.987c.332.348,2.356-1.136,5.217-1.128s4.977,1.452,5.267,1.1c.149-.158-.182-.78-1.095-1.452a7.365,7.365,0,0,0-4.189-1.311,7.108,7.108,0,0,0-4.147,1.327C327.863,208.207,327.564,208.829,327.722,208.987Z" transform="translate(-174.609 -162.8)" fill="#263238"/>
      <path id="Path_5208" data-name="Path 5208" d="M315.508,231.761c0-.158-1.767-.473-4.653-.829-.73-.075-1.418-.224-1.543-.722a3.691,3.691,0,0,1,.5-2.165q1.037-2.646,2.173-5.566c3.019-7.913,5.2-14.424,4.885-14.54s-3.027,6.2-6.047,14.1q-1.095,2.92-2.082,5.59a4.247,4.247,0,0,0-.39,2.87,1.825,1.825,0,0,0,1.2,1.07,4.463,4.463,0,0,0,1.236.174C313.65,231.91,315.45,231.927,315.508,231.761Z" transform="translate(-171.295 -163.097)" fill="#263238"/>
      <path id="Path_5209" data-name="Path 5209" d="M341.984,265.79s-6.752,14.275-27.5,12.259v-4.877A52.255,52.255,0,0,0,341.984,265.79Z" transform="translate(-172.357 -172.964)" fill="#eb996e"/>
      <path id="Path_5210" data-name="Path 5210" d="M328.817,196.659c.282.78,3.135.415,6.494.829s6.071,1.335,6.519.639c.2-.34-.274-1.07-1.369-1.825a10.783,10.783,0,0,0-4.827-1.659,10.973,10.973,0,0,0-5.084.581C329.314,195.68,328.692,196.286,328.817,196.659Z" transform="translate(-174.8 -160.815)" fill="#263238"/>
      <path id="Path_5211" data-name="Path 5211" d="M296.075,198.394c.5.655,2.488,0,4.844-.041s4.379.448,4.844-.232c.2-.332-.116-.979-.987-1.6a7.034,7.034,0,0,0-7.8.224C296.124,197.407,295.851,198.079,296.075,198.394Z" transform="translate(-169.205 -160.966)" fill="#263238"/>
      <path id="Path_5212" data-name="Path 5212" d="M297.92,173.731c1.269-3.119,4.695-4.977,8.054-5.159s6.635,1.1,9.572,2.787c12.35,7.141,18.7,24.385,30.9,31.776,3,1.816,6.909.149,9.464,2.555s4.205,6.254,2.8,9.464a29.1,29.1,0,0,0,4.238-7.158,9.811,9.811,0,0,0-.348-8.087c-1.053-1.833-2.92-3.227-3.426-5.275-.456-1.808.257-3.691.182-5.549a12.167,12.167,0,0,0-1.9-5.292c-4.786-8.452-11.363-16.1-19.832-20.86a35.143,35.143,0,0,0-18.206-4.7,26.857,26.857,0,0,0-17.352,6.876c-2.729,2.546-5.6,5.176-4.147,8.626" transform="translate(-169.466 -154.617)" fill="#263238"/>
      <path id="Path_5213" data-name="Path 5213" d="M367.56,218.321c.216-.6,11.04-4.5,11.181,7,.141,11.172-11.131,8.974-11.156,8.651S367.56,218.321,367.56,218.321Z" transform="translate(-181.411 -164.678)" fill="#ffbe9d"/>
      <path id="Path_5214" data-name="Path 5214" d="M371.7,230.454c.05,0,.191.133.523.282a1.975,1.975,0,0,0,1.46,0c1.169-.44,2.148-2.331,2.181-4.338a6.411,6.411,0,0,0-.564-2.787,2.264,2.264,0,0,0-1.485-1.476.979.979,0,0,0-1.136.539c-.149.315-.075.539-.141.556s-.241-.182-.149-.647a1.245,1.245,0,0,1,.431-.7,1.443,1.443,0,0,1,1.07-.3,2.72,2.72,0,0,1,2.049,1.717,6.5,6.5,0,0,1,.705,3.1c-.05,2.256-1.178,4.371-2.8,4.852a2.074,2.074,0,0,1-1.775-.274C371.714,230.728,371.656,230.479,371.7,230.454Z" transform="translate(-182.115 -165.423)" fill="#eb996e"/>
      <path id="Path_5215" data-name="Path 5215" d="M360.557,203.894a4.428,4.428,0,0,1-.672-.373c-.431-.274-1.095-.639-1.875-1.194a38.225,38.225,0,0,1-6.038-5.491,108.218,108.218,0,0,1-7.374-9.58,87.438,87.438,0,0,0-9.215-11.479,34.979,34.979,0,0,0-5.955-4.7,29.3,29.3,0,0,0-6.42-2.92,31.834,31.834,0,0,0-11.836-1.452,30.632,30.632,0,0,0-7.929,1.551c-.921.282-1.6.589-2.074.771a4.254,4.254,0,0,1-.73.257,5.37,5.37,0,0,1,.688-.348,17.955,17.955,0,0,1,2.049-.829,28.583,28.583,0,0,1,7.971-1.725,31.676,31.676,0,0,1,12,1.327,29.266,29.266,0,0,1,6.544,2.936,35.669,35.669,0,0,1,6.047,4.769,85.6,85.6,0,0,1,9.24,11.612,115.5,115.5,0,0,0,7.266,9.613,41.723,41.723,0,0,0,5.881,5.574c.763.572,1.4.962,1.808,1.261a4.549,4.549,0,0,1,.622.423Z" transform="translate(-169.963 -155.99)" fill="#455a64"/>
      <path id="Path_5216" data-name="Path 5216" d="M372.86,234.652a2.2,2.2,0,1,1-.523.166" transform="translate(-182.008 -167.647)" fill="#fff"/>
      <path id="Path_5217" data-name="Path 5217" d="M372.3,234.805a3.027,3.027,0,0,0-1,1.5,1.891,1.891,0,0,0,.431,1.75,1.957,1.957,0,0,0,3.442-1.087,1.9,1.9,0,0,0-.664-1.659,2.978,2.978,0,0,0-1.659-.647,1.007,1.007,0,0,1,.523-.124,2.281,2.281,0,0,1,1.393.489,2.239,2.239,0,0,1,.9,2.016,2.4,2.4,0,0,1-4.255,1.352,2.24,2.24,0,0,1-.431-2.157,2.206,2.206,0,0,1,.829-1.2C372.1,234.814,372.3,234.781,372.3,234.805Z" transform="translate(-181.975 -167.634)" fill="#263238"/>
      <path id="Path_5218" data-name="Path 5218" d="M366.537,212.177c.174,3.052.315,6.271-1.095,8.983s-4.977,4.562-7.614,3.044c-2.165-1.236-2.812-4.014-3.185-6.478-1.053-7.117-1.543-14.308-2.662-21.416Z" transform="translate(-178.754 -161.114)" fill="#263238"/>
      <path id="Path_5219" data-name="Path 5219" d="M301.32,170.412c0,.058.987-.191,2.77-.249a19.309,19.309,0,0,1,7.4,1.352,24.392,24.392,0,0,1,4.628,2.389,49.164,49.164,0,0,1,4.778,3.65,57.033,57.033,0,0,1,9.356,10.086c1.418,1.991,2.679,4.039,4.039,5.939a28.957,28.957,0,0,0,4.479,5.035,50.088,50.088,0,0,0,9.439,6.312c2.862,1.51,5.25,2.571,6.9,3.318l1.908.829a3.375,3.375,0,0,0,.689.249,3.2,3.2,0,0,0-.63-.357l-1.866-.921c-1.659-.829-3.973-1.924-6.785-3.475a51.655,51.655,0,0,1-9.273-6.387,28.291,28.291,0,0,1-4.363-4.977c-1.335-1.875-2.588-3.923-4.023-5.939a56.127,56.127,0,0,0-9.489-10.161,49.01,49.01,0,0,0-4.877-3.65,24.34,24.34,0,0,0-4.753-2.364,18.554,18.554,0,0,0-7.564-1.178,12.833,12.833,0,0,0-2.065.29,2.653,2.653,0,0,0-.7.207Z" transform="translate(-170.113 -156.607)" fill="#455a64"/>
      <path id="Path_5220" data-name="Path 5220" d="M369.9,204.171a5.068,5.068,0,0,0,.987.664l2.837,1.659.946.539a2.9,2.9,0,0,0,1.228.406,1.178,1.178,0,0,0,.755-.174.979.979,0,0,0,.415-.738,2.488,2.488,0,0,0-.523-1.41l-3.318-5.259-.448.406a11.712,11.712,0,0,0,7.589,2.264,3.218,3.218,0,0,0,1.02-.174,1.369,1.369,0,0,0,.829-.755,1.211,1.211,0,0,0-.191-1.128,4.37,4.37,0,0,0-.63-.7,23.281,23.281,0,0,1-3.807-4.8,40.192,40.192,0,0,1-2.422-5.142,5.854,5.854,0,0,0,.357,1.5,20.277,20.277,0,0,0,1.659,3.865,22.161,22.161,0,0,0,3.782,4.977c.415.4.829.829.672,1.2s-.771.531-1.36.531a11.239,11.239,0,0,1-3.782-.456,11.38,11.38,0,0,1-3.409-1.659l-1.327-.979.887,1.385,3.318,5.217a2.123,2.123,0,0,1,.473,1.095c0,.315-.282.5-.639.473a5.541,5.541,0,0,1-2.007-.829l-2.92-1.493a5.158,5.158,0,0,0-.97-.489Z" transform="translate(-181.81 -160.008)" fill="#455a64"/>
      <path id="Path_5221" data-name="Path 5221" d="M328.562,242.415a3.732,3.732,0,0,0-3.857-2.837,3.873,3.873,0,0,0-3,2.132,4.8,4.8,0,0,0-.174,3.741l.066.265a4.255,4.255,0,0,0,4.786,1.02,3.973,3.973,0,0,0,2.181-4.321Z" transform="translate(-173.509 -168.492)" fill="#eb996e"/>
      <path id="Path_5222" data-name="Path 5222" d="M319.16,245.405c0-.431,2.895-.3,5.076-2.671s2.007-5.474,2.414-5.474c.182,0,.531.713.5,2.024a7.2,7.2,0,0,1-1.85,4.57,6.3,6.3,0,0,1-4.247,2.057C319.857,245.961,319.135,245.6,319.16,245.405Z" transform="translate(-173.155 -168.098)" fill="#263238"/>
      <path id="Path_5223" data-name="Path 5223" d="M421.038,459a.739.739,0,0,1-.191,0l-.581.058-2.215.182c-1.924.158-4.711.34-8.162.547-6.893.406-16.423.829-26.957,1s-20.089.075-26.99-.108c-3.45-.083-6.246-.183-8.17-.266l-2.223-.116h2.223l8.178.141c6.9.1,16.439.149,26.973,0s20.056-.547,26.948-.879l8.17-.406,2.223-.1h.572Z" transform="translate(-177.525 -205.919)" fill="#fff"/>
    </g>
  </g>
</svg>
