<svg xmlns="http://www.w3.org/2000/svg" width="14" height="14" viewBox="0 0 14 14">
  <g id="local_police_black_24dp" opacity="0.8">
    <rect id="Rectangle_3840" data-name="Rectangle 3840" width="14" height="14" fill="none"/>
    <path id="Path_10729" data-name="Path 10729" d="M9.46,7.514l.506,2.181L8.056,8.543,6.146,9.695,6.651,7.52,4.966,6.064l2.224-.191.865-2.051.865,2.046,2.224.191Zm-1.4-5.283,3.932,1.748V6.621A5.886,5.886,0,0,1,8.056,12.2,5.886,5.886,0,0,1,4.123,6.621V3.979L8.056,2.231M8.056,1,3,3.248V6.621a6.994,6.994,0,0,0,5.056,6.745,6.994,6.994,0,0,0,5.056-6.745V3.248L8.056,1Z" transform="translate(-1.048 -0.349)" fill="#064c87"/>
  </g>
</svg>
