<svg xmlns="http://www.w3.org/2000/svg" xmlns:xlink="http://www.w3.org/1999/xlink" width="24.6" height="16.117" viewBox="0 0 24.6 16.117">
  <defs>
    <linearGradient id="linear-gradient" y1="0.5" x2="1" y2="0.5" gradientUnits="objectBoundingBox">
      <stop offset="0" stop-color="#8ccc44"/>
      <stop offset="1" stop-color="#5cb450"/>
    </linearGradient>
  </defs>
  <path id="Path_10738" data-name="Path 10738" d="M-827.351,968.91a3.07,3.07,0,0,0-1.919.636l-10.99,8.206-3.179-3.8a3.072,3.072,0,0,0-2.908-1.125,3.072,3.072,0,0,0-2.394,2,3.072,3.072,0,0,0,.586,3.062l5.045,6.041a3.072,3.072,0,0,0,4.193.492l13.323-9.946a3.072,3.072,0,0,0,1.13-3.415,3.071,3.071,0,0,0-2.887-2.146Z" transform="translate(848.92 -968.91)" fill-rule="evenodd" fill="url(#linear-gradient)"/>
</svg>
