<svg xmlns="http://www.w3.org/2000/svg" width="537.02" height="305" viewBox="0 0 537.02 305">
  <g id="Experts-pana" transform="translate(-56.228 -71.679)">
    <g id="freepik--background-complete--inject-4" transform="translate(56.228 72.658)">
      <path id="Path_9608" data-name="Path 9608" d="M229.519,84.988a6.306,6.306,0,0,0,3.76-5.827,5.921,5.921,0,1,0-11.817-.051,6.272,6.272,0,0,0,3.76,5.879c-9.091,1.376-8.681,11.253-8.681,11.253l21.507.1S238.533,86.355,229.519,84.988Z" transform="translate(-79.559 -72.825)" fill="#e0e0e0"/>
      <path id="Path_9609" data-name="Path 9609" d="M638.582,144.407l-9.972-10.741,3.23-3,6.887,7.408,14.466-14.235,3.093,3.144Z" transform="translate(-139.533 -80.25)" fill="#f5f5f5"/>
      <path id="Path_9610" data-name="Path 9610" d="M467.452,214.927c0-7.34-7.69-11.962-15.568-8.305a8.938,8.938,0,0,0-4.136,3.965c-1.974,3.828-1.1,8.2.692,11.834l6.118,15.491a2.64,2.64,0,0,0,4.913,0l5.981-15.577C467.555,217.568,467.452,214.927,467.452,214.927Zm-7.365,6.357c-5.281,3.068-10.638-2.606-7.741-8.211a4.417,4.417,0,0,1,1.709-1.777c5.289-3.076,10.638,2.563,7.741,8.211a4.417,4.417,0,0,1-1.709,1.777Z" transform="translate(-113.046 -92.112)" fill="#ebebeb"/>
      <path id="Path_9611" data-name="Path 9611" d="M574.725,321.585c-16.465-15.038-17.405-38.878-13.825-59.7.6-3.478.709-7.212,2.811-10.04s6.314-4.392,9.279-2.486c2.461,1.581,3.2,4.759,4.324,7.459a20.892,20.892,0,0,0,7.229,8.963c2.093,1.461,4.785,2.563,7.177,1.641,3.281-1.239,4.2-5.349,4.657-8.827l2.563-19.439c.453-3.478.923-7.024,2.469-10.168s4.383-5.879,7.861-6.34,7.348,2.008,7.6,5.5a32.791,32.791,0,0,1-.5,4.341c-.1,1.461.367,3.144,1.709,3.734s2.9-.188,4.084-1.06c4.11-3.008,7.195-7.186,10.117-11.364s5.776-8.468,9.6-11.843,8.792-5.776,13.868-5.366,10.031,4.221,10.638,9.279-2.965,9.638-6.656,13.176a78.694,78.694,0,0,1-18.465,13.133c-1.213.624-2.563,1.3-3.127,2.563-1.085,2.213.854,4.819,3.033,5.9,2.512,1.222,5.392,1.341,8.092,2.042s5.511,2.3,6.195,5c.957,3.751-2.563,7.058-5.853,9.083a67.981,67.981,0,0,1-21.464,8.613c-2.717.581-5.554,1.025-7.887,2.563s-4.016,4.452-3.093,7.075,4.059,3.845,6.836,3.725,5.409-1.247,8.117-1.854c5.084-1.136,11.287.051,13.817,4.606,1.709,2.991,1.333,6.793-.145,9.878a25.749,25.749,0,0,1-6.5,7.852,68.285,68.285,0,0,1-31.615,16.072c-11.723,2.3-22.284,1.905-32.88-3.649" transform="translate(-129.43 -92.287)" fill="#ebebeb"/>
      <path id="Path_9612" data-name="Path 9612" d="M578.9,330.721c1.905-8.177,1.427-10.706,5.981-20.815a314.058,314.058,0,0,1,17.089-31.786l4.913-8.1c1.624-2.657,3.221-5.289,4.956-7.767a157.782,157.782,0,0,1,10.775-13.671c3.649-4.187,7.254-8.023,10.664-11.595s6.656-6.836,9.741-9.672a125.973,125.973,0,0,1,15.551-12.355c1.948-1.307,3.486-2.281,4.537-2.922l1.2-.726c.273-.162.419-.231.419-.231s-.128.1-.385.273l-1.179.769c-1.034.675-2.563,1.709-4.477,3.008a132.8,132.8,0,0,0-15.423,12.458c-3.059,2.863-6.28,6.135-9.672,9.707s-6.981,7.425-10.6,11.612a156.357,156.357,0,0,0-10.723,13.671c-1.709,2.469-3.315,5.084-4.93,7.741l-4.913,8.1a318.9,318.9,0,0,0-17.089,31.709c-4.6,10.083-4.136,12.561-6.084,20.7" transform="translate(-132.298 -92.947)" fill="#e0e0e0"/>
      <path id="Path_9613" data-name="Path 9613" d="M617.628,264.3a8.389,8.389,0,0,1-.111-1.529c-.051-.983-.068-2.41-.077-4.17,0-3.529.128-8.4.3-13.765s.222-10.253.128-13.748c0-1.76-.085-3.187-.137-4.17a7.508,7.508,0,0,1,0-1.529,8.542,8.542,0,0,1,.214,1.512c.12.983.222,2.41.308,4.17.188,3.52.188,8.4,0,13.782s-.333,10.134-.453,13.748c0,1.709-.068,3.093-.094,4.17a7.819,7.819,0,0,1-.077,1.529Z" transform="translate(-137.908 -95.03)" fill="#e0e0e0"/>
      <path id="Path_9614" data-name="Path 9614" d="M664.1,268.29a1.658,1.658,0,0,1-.478,0l-1.359-.068c-1.171-.068-2.871-.171-4.973-.222-4.2-.137-10.023-.12-16.431.179s-12.21.854-16.38,1.367c-2.093.239-3.777.487-4.947.649l-1.341.179c-.308,0-.47.051-.479,0a1.786,1.786,0,0,1,.461-.128l1.324-.282c1.162-.222,2.837-.521,4.93-.812,4.17-.615,9.972-1.213,16.406-1.53a156.358,156.358,0,0,1,16.465,0c2.11.1,3.811.256,4.982.393l1.35.162A1.709,1.709,0,0,1,664.1,268.29Z" transform="translate(-137.947 -101.145)" fill="#e0e0e0"/>
      <path id="Path_9615" data-name="Path 9615" d="M584.114,315.6a3.6,3.6,0,0,1-.231-.59c-.137-.453-.316-1.025-.538-1.709-.47-1.5-1.085-3.683-1.82-6.391-1.47-5.426-3.281-12.962-5.127-21.319s-3.631-15.9-5.007-21.361c-.684-2.666-1.248-4.845-1.658-6.434-.179-.709-.325-1.29-.444-1.709a3.175,3.175,0,0,1-.12-.624,2.667,2.667,0,0,1,.222.59l.538,1.709c.47,1.5,1.094,3.683,1.82,6.391,1.478,5.417,3.281,12.962,5.127,21.319s3.631,15.893,5.007,21.361c.692,2.666,1.247,4.853,1.658,6.434.188.718.333,1.3.444,1.752A2.732,2.732,0,0,1,584.114,315.6Z" transform="translate(-130.882 -99.406)" fill="#e0e0e0"/>
      <path id="Path_9616" data-name="Path 9616" d="M649.386,313.124a2.829,2.829,0,0,1-.624.145l-1.829.325-6.725,1.128c-5.674.983-13.5,2.435-22.139,4.067s-16.474,3.016-22.173,3.9c-2.845.444-5.127.786-6.75.991l-1.846.231a3.277,3.277,0,0,1-.641,0,3.084,3.084,0,0,1,.632-.154l1.82-.325,6.725-1.154c5.674-.983,13.5-2.435,22.139-4.059s16.474-3.025,22.216-3.913c2.845-.444,5.127-.786,6.75-.991l1.846-.222A2.146,2.146,0,0,1,649.386,313.124Z" transform="translate(-133.428 -107.794)" fill="#e0e0e0"/>
      <path id="Path_9617" data-name="Path 9617" d="M57.981,218.237s5.127-5.793,16.688,6.989,16.8,20.567,16.8,20.567,2.854,2.563,4.435-.043,2.939-9.177,6.836-9.126c4.059.051,6.443,3.913,7.408,10.254s3.58,20.259,3.819,21.507,1.418,2.828,2.777,1.213,8.092-14.979,14.244-11.407,5.921,21.763,5.93,23.754.59,2.683,1.6,2.905,2.845-4.494,4.913-8.211,5.127-7.69,8.5-5.323,7.639,14.8,1.179,38.647l-3.717,10.852-11.27,2.41c-24.429,3.674-36.306-1.991-38.263-5.614s2.333-6.2,6.272-7.827,8.818-2.914,8.715-3.939-.718-1.709-2.7-1.923-20.054-2.059-22.891-8.579,11.21-11.672,12.962-12.817.316-2.521-.854-2.9-14.714-4.58-20.934-6.272-9.784-4.494-9.4-8.545c.4-3.9,7.075-4.486,9.86-5.759s.555-4.4.555-4.4-7.135-6.05-18.508-19.063-4.845-17.465-4.845-17.465" transform="translate(-56.228 -93.798)" fill="#ebebeb"/>
      <path id="Path_9618" data-name="Path 9618" d="M70.46,231.84a2.073,2.073,0,0,1,.222.222l.632.675c.555.632,1.35,1.512,2.367,2.649l8.681,9.775,28.77,32.1c11.262,12.526,21.413,23.925,28.684,32.213l8.545,9.869,2.316,2.7.59.709a2.215,2.215,0,0,1,.188.248s-.077-.068-.222-.222l-.624-.675-2.375-2.649-8.656-9.724c-7.331-8.254-17.508-19.6-28.778-32.128S89.438,253.68,82.132,245.392l-8.545-9.86c-.991-1.162-1.769-2.068-2.307-2.709l-.6-.709a2.213,2.213,0,0,1-.222-.273Z" transform="translate(-58.299 -95.969)" fill="#e0e0e0"/>
      <path id="Path_9619" data-name="Path 9619" d="M108.861,250.81a22.369,22.369,0,0,1,.154,3.085c.06,2.025.145,4.588.231,7.434s.171,5.537.162,7.442c0,.957,0,1.709-.06,2.264a2.632,2.632,0,0,1-.1.854,28.9,28.9,0,0,1-.154-3.076c-.077-2.025-.179-4.6-.291-7.434s-.128-5.545-.1-7.451a20.736,20.736,0,0,1,.068-2.256,3.529,3.529,0,0,1,.094-.863Z" transform="translate(-63.863 -98.729)" fill="#e0e0e0"/>
      <path id="Path_9620" data-name="Path 9620" d="M104.075,275.921c0,.12-5.434.145-12.133.051s-12.142-.273-12.142-.4,5.443-.145,12.142-.051S104.084,275.793,104.075,275.921Z" transform="translate(-59.658 -102.317)" fill="#e0e0e0"/>
      <path id="Path_9621" data-name="Path 9621" d="M129.116,300.76a2.9,2.9,0,0,1-.778.333c-.513.2-1.256.444-2.187.735-1.854.59-4.443,1.333-7.34,2s-5.554,1.154-7.477,1.444c-.966.145-1.709.239-2.29.3a2.785,2.785,0,0,1-.854.043,26.05,26.05,0,0,1,3.085-.658c1.905-.367,4.537-.854,7.425-1.564s5.477-1.359,7.357-1.863A25.5,25.5,0,0,1,129.116,300.76Z" transform="translate(-63.79 -105.999)" fill="#e0e0e0"/>
      <path id="Path_9622" data-name="Path 9622" d="M137.46,278.12a19.182,19.182,0,0,1-.59,2.854c-.41,1.709-1.017,4.153-1.709,6.836s-1.341,5.05-1.837,6.776a18.8,18.8,0,0,1-.854,2.777,18.132,18.132,0,0,1,.581-2.854c.419-1.709,1.025-4.153,1.709-6.836s1.35-5.05,1.846-6.776A18.8,18.8,0,0,1,137.46,278.12Z" transform="translate(-67.324 -102.704)" fill="#e0e0e0"/>
      <path id="Path_9623" data-name="Path 9623" d="M161.55,297.23a4.494,4.494,0,0,1-.179.991c-.179.718-.393,1.606-.649,2.649-.564,2.239-1.376,5.315-2.3,8.707s-1.786,6.451-2.435,8.664c-.308,1.034-.572,1.905-.778,2.615a4.479,4.479,0,0,1-.35.94,4.579,4.579,0,0,1,.179-.991c.179-.718.393-1.6.649-2.649.564-2.23,1.376-5.306,2.3-8.7s1.786-6.46,2.427-8.664c.316-1.034.572-1.905.786-2.615A4.383,4.383,0,0,1,161.55,297.23Z" transform="translate(-70.583 -105.486)" fill="#e0e0e0"/>
      <path id="Path_9624" data-name="Path 9624" d="M150.3,325.24a5.4,5.4,0,0,1-1.008.359c-.658.205-1.623.478-2.82.795-2.384.641-5.7,1.453-9.4,2.2s-7.058,1.307-9.51,1.649c-1.222.171-2.213.291-2.9.359a4.444,4.444,0,0,1-1.077.068,4.99,4.99,0,0,1,1.051-.239l2.88-.5c2.427-.419,5.776-1.017,9.467-1.769s7-1.512,9.4-2.068l2.845-.666A4.846,4.846,0,0,1,150.3,325.24Z" transform="translate(-66.032 -109.562)" fill="#e0e0e0"/>
    </g>
    <g id="freepik--Icons--inject-4" transform="translate(61.839 88.385)">
      <path id="Path_9625" data-name="Path 9625" d="M99.618,236.864a2.563,2.563,0,0,0,1.2-.427,2.239,2.239,0,0,0,.854-1.256,3.716,3.716,0,0,0,.077-1q0-.538,0-1.154c0-3.3.077-8.032.128-13.868q0-2.2.051-4.588v-2.444a7.049,7.049,0,0,0,0-1.213,2.059,2.059,0,0,0-.538-1.025,1.9,1.9,0,0,0-1.025-.555,9.049,9.049,0,0,0-1.29,0H65.551a2.042,2.042,0,0,0-1.991,1.88l-.051,3.264c0,2.179-.068,4.272-.1,6.426-.06,4.212-.12,8.271-.179,12.142v1.444a2.093,2.093,0,0,0,.308,1.248,1.914,1.914,0,0,0,.957.8,3.367,3.367,0,0,0,1.3.137H80.7l13.859.068,3.768.043h1.316a1.649,1.649,0,0,1-.333,0H94.559l-13.859.077H65.764a3.828,3.828,0,0,1-1.435-.145,2.384,2.384,0,0,1-1.162-.966,2.5,2.5,0,0,1-.367-1.47c0-.478,0-.957,0-1.444.051-3.871.1-7.929.154-12.142,0-2.1.06-4.272.094-6.426,0-1.094,0-2.187.051-3.3a2.5,2.5,0,0,1,2.435-2.085H99.071a10.543,10.543,0,0,1,1.359.051,2.247,2.247,0,0,1,1.222.666,2.461,2.461,0,0,1,.632,1.2,7.358,7.358,0,0,1,0,1.29v2.444c0,1.6-.051,3.136-.077,4.6-.12,5.836-.205,10.561-.273,13.859v1.162a3.982,3.982,0,0,1-.1,1.025,2.393,2.393,0,0,1-.94,1.3,2.128,2.128,0,0,1-.923.342A.982.982,0,0,1,99.618,236.864Z" transform="translate(-62.794 -108.354)" fill="#455a64"/>
      <path id="Path_9626" data-name="Path 9626" d="M86.83,222.147l4.665,2.828-4.768,2.8-4.768,2.794.1-5.631.1-5.631Z" transform="translate(-65.584 -109.871)" fill="#455a64"/>
      <path id="Path_9627" data-name="Path 9627" d="M590.468,124.166a8.613,8.613,0,0,0,5.127-7.972,8.1,8.1,0,1,0-16.175-.077,8.6,8.6,0,0,0,5.127,8.049c-12.441,1.88-11.877,15.38-11.877,15.38l29.419.137S602.806,126.063,590.468,124.166Z" transform="translate(-137.002 -93.602)" fill="#ff725e"/>
      <rect id="Rectangle_3515" data-name="Rectangle 3515" width="47.927" height="32.307" transform="translate(231.389 4.666) rotate(-5.42)" fill="#fff"/>
      <path id="Path_9628" data-name="Path 9628" d="M384.326,123.5a3.5,3.5,0,0,0-.077-.6l-.179-1.709c-.154-1.512-.376-3.691-.658-6.485-.555-5.588-1.35-13.6-2.307-23.361l.188.162L333.6,96.16l.2-.239h0v.513l.051.53.1,1.077.205,2.128.393,4.212q.393,4.178.778,8.22c.5,5.383.991,10.561,1.453,15.457l-.222-.179,34.349-3.161,9.835-.854,2.623-.231.684-.051h.068l-.658.068-2.563.273-9.775.983-34.46,3.367h-.205v-.205c-.47-4.9-.966-10.074-1.487-15.457q-.385-4.033-.778-8.22c-.137-1.393-.273-2.8-.4-4.212l-.205-2.128-.128-1.034-.051-.53v-.521h0l.205-.248,47.713-4.486h.179v.179c.854,9.809,1.623,17.867,2.136,23.5.239,2.768.436,4.939.564,6.443.06.718.1,1.282.137,1.709S384.326,123.5,384.326,123.5Z" transform="translate(-102.179 -91.23)" fill="#455a64"/>
      <path id="Path_9629" data-name="Path 9629" d="M381.316,91.4a2.622,2.622,0,0,1-.376.513l-1.128,1.307c-1.017,1.162-2.444,2.786-4.2,4.776l-14.116,15.79-.128.137-.154-.1-1.273-.812-18.678-11.962-5.605-3.725L334.133,96.3a3.674,3.674,0,0,1-.513-.376,3.238,3.238,0,0,1,.564.3l1.564.948,5.708,3.555L360.2,112.6l1.273.854h-.291l14.2-15.7,4.315-4.682,1.179-1.256a4.587,4.587,0,0,1,.436-.419Z" transform="translate(-102.211 -91.255)" fill="#455a64"/>
      <path id="Path_9630" data-name="Path 9630" d="M260.922,134.13a23.065,23.065,0,0,0-.487-3.093,12.031,12.031,0,0,0-1.427-3.349,12.588,12.588,0,0,0-15.1-5.332,12.646,12.646,0,0,0-5.81,4.366,12.458,12.458,0,0,0,0,14.8,12.56,12.56,0,0,0,20.909-.957,12.031,12.031,0,0,0,1.427-3.349,23.349,23.349,0,0,0,.487-3.085.744.744,0,0,1,0,.205v.607a6.4,6.4,0,0,1-.077.983,9.239,9.239,0,0,1-.239,1.333,12.227,12.227,0,0,1-1.376,3.418,12.817,12.817,0,0,1-15.457,5.588,11.963,11.963,0,0,1-3.281-1.709,12.108,12.108,0,0,1-2.743-2.743,12.868,12.868,0,0,1,0-15.32,12.108,12.108,0,0,1,2.743-2.743,11.963,11.963,0,0,1,3.281-1.709,12.817,12.817,0,0,1,12.21,1.905,12.689,12.689,0,0,1,3.238,3.683,12.024,12.024,0,0,1,1.384,3.418,9.235,9.235,0,0,1,.239,1.333,6.393,6.393,0,0,1,.077.983v.607a.854.854,0,0,1,0,.162Z" transform="translate(-87.89 -95.602)" fill="#263238"/>
      <path id="Path_9631" data-name="Path 9631" d="M281.943,158.931c-.068.1-4.58-2.8-10.066-6.485s-9.886-6.759-9.818-6.836,4.571,2.8,10.066,6.494S282.011,158.828,281.943,158.931Z" transform="translate(-91.796 -99.144)" fill="#263238"/>
      <path id="Path_9632" data-name="Path 9632" d="M327.83,185.2l-9.98-10.741,3.23-3,6.9,7.408,14.466-14.235,3.093,3.144Z" transform="translate(-99.916 -101.913)" fill="#ff725e"/>
    </g>
    <g id="freepik--speech-bubbles--inject-4" transform="translate(87.385 71.679)">
      <path id="Path_9633" data-name="Path 9633" d="M646.773,176.641h1.077l.854.111a10.971,10.971,0,0,1,5,2.187,11.219,11.219,0,0,1,4.2,7.477c.085.854.085,1.752.085,2.657v19.439a13.074,13.074,0,0,1-.376,3.785,11.219,11.219,0,0,1-8.433,8.117,19.7,19.7,0,0,1-4.272.265H606.758l.154-.06-8.6,8.6-.385.385V220.5l.222.222a19.707,19.707,0,0,1-2.828-.1,11.2,11.2,0,0,1-9.579-8.946,14.524,14.524,0,0,1-.222-2.709V190.91a39.5,39.5,0,0,1,.154-4.93,11.219,11.219,0,0,1,9.408-9.356,34.808,34.808,0,0,1,4.4-.137h15.927l23,.077h0l-23,.077H599.478a33.5,33.5,0,0,0-4.341.145,10.809,10.809,0,0,0-9.066,9.04,38.145,38.145,0,0,0-.137,4.87v15.4a31.9,31.9,0,0,0,.214,5.281,11.227,11.227,0,0,0,2.273,4.759,10.817,10.817,0,0,0,6.955,3.837,19.762,19.762,0,0,0,2.768.094h.222v8.98l-.376-.162,8.613-8.6.06-.06H644.9a19.157,19.157,0,0,0,4.23-.256,10.792,10.792,0,0,0,3.751-1.6,10.9,10.9,0,0,0,4.435-6.237,12.812,12.812,0,0,0,.385-3.589V189.1c0-.914,0-1.794-.06-2.632a11.048,11.048,0,0,0-4.076-7.374,10.9,10.9,0,0,0-4.913-2.23l-.812-.137h-.59Z" transform="translate(-164.416 -86.93)" fill="#263238"/>
      <path id="Path_9634" data-name="Path 9634" d="M616.679,203.549s-.051-.214-.162-.581a2.453,2.453,0,0,0-.906-1.248,2.307,2.307,0,0,0-2.153-.282,2.247,2.247,0,0,0,0,4.221,2.307,2.307,0,0,0,2.153-.282,2.453,2.453,0,0,0,.906-1.248c.111-.359.12-.581.162-.581a1.188,1.188,0,0,1,0,.624,2.358,2.358,0,0,1-.854,1.453,2.563,2.563,0,0,1-2.486.427,2.649,2.649,0,0,1,0-5,2.563,2.563,0,0,1,2.486.419,2.367,2.367,0,0,1,.854,1.461A1.163,1.163,0,0,1,616.679,203.549Z" transform="translate(-168.21 -90.486)" fill="#263238"/>
      <path id="Path_9635" data-name="Path 9635" d="M629.929,203.449a4.883,4.883,0,0,1-.154-.572,2.488,2.488,0,0,0-.906-1.256,2.316,2.316,0,0,0-2.162-.282,2.264,2.264,0,0,0,0,4.23,2.341,2.341,0,0,0,2.162-.29,2.5,2.5,0,0,0,.906-1.248,5.484,5.484,0,0,1,.154-.581,1.316,1.316,0,0,1,0,.624,2.436,2.436,0,0,1-.854,1.453,2.563,2.563,0,0,1-2.486.427,2.649,2.649,0,0,1,0-5,2.563,2.563,0,0,1,2.486.419,2.452,2.452,0,0,1,.854,1.461C630.006,203.227,629.955,203.449,629.929,203.449Z" transform="translate(-170.138 -90.472)" fill="#263238"/>
      <path id="Path_9636" data-name="Path 9636" d="M643.189,203.449a5.913,5.913,0,0,1-.162-.572,2.461,2.461,0,0,0-.855-1.256,2.316,2.316,0,0,0-2.162-.282,2.264,2.264,0,0,0,0,4.23,2.341,2.341,0,0,0,2.162-.291,2.478,2.478,0,0,0,.854-1.247c.12-.359.128-.581.162-.581s.077.222,0,.624a2.436,2.436,0,0,1-.854,1.453,2.563,2.563,0,0,1-2.486.427,2.649,2.649,0,0,1,0-5,2.563,2.563,0,0,1,2.486.419,2.452,2.452,0,0,1,.854,1.461C643.266,203.227,643.215,203.449,643.189,203.449Z" transform="translate(-172.068 -90.472)" fill="#263238"/>
      <path id="Path_9637" data-name="Path 9637" d="M151.9,133.608c0-7.331-7.69-11.962-15.56-8.305a8.946,8.946,0,0,0-4.136,3.965c-1.982,3.828-1.1,8.2.684,11.834l6.118,15.5a2.64,2.64,0,0,0,4.913,0l5.981-15.585C152,136.256,151.9,133.608,151.9,133.608ZM144.52,140c-5.281,3.068-10.629-2.606-7.741-8.211a4.332,4.332,0,0,1,1.709-1.777c5.281-3.076,10.638,2.606,7.741,8.2A4.349,4.349,0,0,1,144.52,140Z" transform="translate(-98.279 -79.297)" fill="#ff725e"/>
      <path id="Path_9638" data-name="Path 9638" d="M173.479,153.99h0a.647.647,0,0,0,.111.282,5.806,5.806,0,0,1,.282.854l1.06,3.23c.931,2.845,2.29,7.024,4.033,12.381l.051.171h-.171l-17.226-3.153h-.111v-.12h0l.231.111a43.048,43.048,0,0,1-26.061,8.562,47.471,47.471,0,0,1-6.349-.53,46.083,46.083,0,0,1-6.434-1.444l-3.187-1.162a11.52,11.52,0,0,1-1.572-.684l-1.555-.743a44.278,44.278,0,0,1-11.5-8.34,42.423,42.423,0,0,1-8.451-12.3,43.092,43.092,0,1,1,82.182-20.678,40.766,40.766,0,0,1-1.171,13.142,41.6,41.6,0,0,1-2.837,7.861c-.419.854-.752,1.512-.991,1.923l-.367.649.325-.649c.231-.453.555-1.1.957-1.965a42.826,42.826,0,0,0,2.751-7.861,40.92,40.92,0,0,0,1.085-13.082,42.736,42.736,0,1,0-81.507,20.473,42.176,42.176,0,0,0,8.357,12.193,43.946,43.946,0,0,0,11.381,8.263l1.547.743a10.478,10.478,0,0,0,1.555.684l3.144,1.154a45.4,45.4,0,0,0,6.383,1.444,48.065,48.065,0,0,0,6.289.538,42.723,42.723,0,0,0,25.847-8.493l.231-.171v.291h0l-.111-.145,17.2,3.23-.12.137-3.93-12.415-1.017-3.247c-.111-.359-.188-.641-.248-.854s-.085-.291-.085-.291Z" transform="translate(-92.692 -74.354)" fill="#263238"/>
      <path id="Path_9639" data-name="Path 9639" d="M503.2,118.65a6.277,6.277,0,0,1-.171-1.512,12.94,12.94,0,0,0-.214-1.829,17.7,17.7,0,0,0-.479-2.444,22.806,22.806,0,0,0-2.563-6.306,23.557,23.557,0,0,0-5.862-6.75,23.215,23.215,0,0,0-9.749-4.546,23.464,23.464,0,0,0-12.261.76,21.823,21.823,0,0,0-5.981,3.042,21.413,21.413,0,0,0-5.024,4.819,23.156,23.156,0,0,0-.666,27.462,25.687,25.687,0,0,0,2.256,2.76,26.31,26.31,0,0,0,2.563,2.316,21.934,21.934,0,0,0,5.8,3.324,23.489,23.489,0,0,0,12.2,1.359,23.25,23.25,0,0,0,9.963-4.076,23.532,23.532,0,0,0,6.186-6.451,23.072,23.072,0,0,0,2.845-6.178,18.018,18.018,0,0,0,.6-2.418,12.009,12.009,0,0,0,.291-1.811,6.484,6.484,0,0,1,.248-1.512,6.757,6.757,0,0,1,0,1.529,11.527,11.527,0,0,1-.171,1.854,17.421,17.421,0,0,1-.487,2.5,22.677,22.677,0,0,1-2.717,6.426,24.284,24.284,0,0,1-16.594,11.219,24.574,24.574,0,0,1-12.817-1.307,23.249,23.249,0,0,1-6.126-3.418,28.052,28.052,0,0,1-2.734-2.427,28.642,28.642,0,0,1-2.341-2.9,24.326,24.326,0,0,1,.709-28.983,26.485,26.485,0,0,1,2.478-2.777,25.636,25.636,0,0,1,2.837-2.333,22.771,22.771,0,0,1,6.289-3.162,24.244,24.244,0,0,1,28.9,11.279,22.5,22.5,0,0,1,2.41,6.588,16.3,16.3,0,0,1,.367,2.563,11.366,11.366,0,0,1,.085,1.854,6.834,6.834,0,0,1-.068,1.487Z" transform="translate(-145.387 -74.875)" fill="#455a64"/>
      <path id="Path_9640" data-name="Path 9640" d="M499.47,105.295c.051.077-.385.453-1.213,1.068l-1.538,1.1c-.3.205-.624.444-.974.666l-1.179.615a26.95,26.95,0,0,1-14.039,3.537l-2.128-.094-2.034-.325c-.333-.051-.667-.094-.991-.162l-.957-.256c-.624-.171-1.247-.316-1.837-.5a30.94,30.94,0,0,1-5.981-2.751c-3.2-1.931-4.759-3.691-4.64-3.8s1.871,1.324,5.127,3a36.083,36.083,0,0,0,5.87,2.392c.564.171,1.162.3,1.769.453l.914.222.948.145,1.948.291,2.025.077a29.052,29.052,0,0,0,13.594-3.05l1.2-.521c.359-.188.692-.384,1.008-.564l1.623-.854C498.88,105.457,499.41,105.226,499.47,105.295Z" transform="translate(-146.435 -76.439)" fill="#455a64"/>
      <path id="Path_9641" data-name="Path 9641" d="M461.139,138.239c-.051-.068.385-.444,1.213-1.068l1.538-1.1c.3-.205.624-.444.974-.666l1.179-.615a26.95,26.95,0,0,1,14.039-3.529l2.128.094,2.034.316c.333.06.666.1.991.171l.957.248c.624.179,1.247.325,1.837.513a30.445,30.445,0,0,1,5.981,2.743c3.2,1.94,4.759,3.7,4.64,3.811s-1.871-1.324-5.127-3a35.307,35.307,0,0,0-5.87-2.4c-.572-.162-1.171-.291-1.769-.444l-.914-.231-.948-.145-1.948-.282-2.025-.085a29.051,29.051,0,0,0-13.6,3.059l-1.154.538c-.359.188-.692.393-1.008.564l-1.623.906C461.729,138.086,461.191,138.316,461.139,138.239Z" transform="translate(-146.316 -80.349)" fill="#455a64"/>
      <path id="Path_9642" data-name="Path 9642" d="M503.291,123.311c0,.367-10.706.4-23.925.077s-23.865-.854-23.857-1.239,10.7-.393,23.925-.068S503.3,122.952,503.291,123.311Z" transform="translate(-145.497 -78.981)" fill="#455a64"/>
      <path id="Path_9643" data-name="Path 9643" d="M482.15,142.019c-.359,0-.393-10.7-.077-23.882s.854-23.865,1.239-23.856.393,10.706.077,23.925S482.509,142.027,482.15,142.019Z" transform="translate(-149.332 -74.968)" fill="#455a64"/>
      <path id="Path_9644" data-name="Path 9644" d="M480.176,141.983c-.085.137-2.717-1.649-5.759-5.682a32.229,32.229,0,0,1-4.272-7.75,28.668,28.668,0,0,1-1.846-10.7,27.343,27.343,0,0,1,2.41-10.6,32.633,32.633,0,0,1,4.665-7.511c3.213-3.888,5.862-5.605,5.981-5.469s-2.273,2.1-5.229,6.041a35.444,35.444,0,0,0-4.272,7.417,27.445,27.445,0,0,0-2.213,10.134,29.093,29.093,0,0,0,1.709,10.254,34.46,34.46,0,0,0,3.888,7.63C477.937,139.83,480.313,141.838,480.176,141.983Z" transform="translate(-147.358 -74.967)" fill="#455a64"/>
      <path id="Path_9645" data-name="Path 9645" d="M483.979,94.289c.094-.137,2.726,1.649,5.759,5.682a32.231,32.231,0,0,1,4.272,7.75,29.051,29.051,0,0,1,1.846,10.706,27.453,27.453,0,0,1-2.41,10.587,33.222,33.222,0,0,1-4.665,7.511c-3.213,3.888-5.87,5.614-5.981,5.469s2.273-2.1,5.221-6.041a35.453,35.453,0,0,0,4.272-7.417,27.616,27.616,0,0,0,2.2-10.134,29.093,29.093,0,0,0-1.709-10.254,34.647,34.647,0,0,0-3.9-7.63C486.217,96.442,483.825,94.434,483.979,94.289Z" transform="translate(-149.468 -74.969)" fill="#455a64"/>
      <path id="Path_9646" data-name="Path 9646" d="M452.325,150.444h0l-.29.077-.854.205-3.315.778-12.7,2.905-.171.043.051-.171,4.665-16.867v-.12h.162l-.137.222a42.885,42.885,0,0,1-6.417-20.575,44.637,44.637,0,0,1,.137-6.118,48,48,0,0,1,1.094-6.272,45.754,45.754,0,0,1,2.008-6.28c.478-1.017.957-2.042,1.444-3.067a11.107,11.107,0,0,1,.854-1.5c.291-.5.581-.991.854-1.487A44.492,44.492,0,0,1,449.035,81.5a42.433,42.433,0,0,1,13-7.323,43.11,43.11,0,1,1,13.3,83.737,40.843,40.843,0,0,1-12.988-2.333,42.124,42.124,0,0,1-7.57-3.52,16.276,16.276,0,0,1-1.829-1.162l-.615-.427.615.385c.427.265,1.051.649,1.871,1.128a43.58,43.58,0,0,0,7.588,3.418,41.014,41.014,0,0,0,12.936,2.247A42.746,42.746,0,1,0,462.177,74.6a42.271,42.271,0,0,0-12.9,7.237,44.03,44.03,0,0,0-9.228,10.621c-.291.487-.581.983-.854,1.47a12.536,12.536,0,0,0-.812,1.487l-1.453,3.025a44.288,44.288,0,0,0-2,6.229,47.421,47.421,0,0,0-1.1,6.212,44,44,0,0,0-.145,6.075,42.6,42.6,0,0,0,6.306,20.43l.154.248h-.291l.154-.1c-1.837,6.5-3.418,12.193-4.751,16.85l-.12-.137,12.714-2.828,3.324-.718.854-.179a2.565,2.565,0,0,1,.3-.051h0Z" transform="translate(-142.261 -71.679)" fill="#263238"/>
    </g>
    <g id="freepik--character-3--inject-4" transform="translate(390.696 165.493)">
      <path id="Path_9647" data-name="Path 9647" d="M495.192,187.723c-4.178.974-6.836,5.2-7.75,9.4s-.453,8.545-.854,12.817-1.9,8.809-5.494,11.108l3.58,1.042a9.767,9.767,0,0,1-4.2,5.383,7.972,7.972,0,0,0,4.888,1.666c-2.1.555-2.683,3.563-1.521,5.4s3.375,2.709,5.486,3.247a14.381,14.381,0,0,0,7.6.231c3.418-1.034,6.05-4.076,7.374-7.442a32.256,32.256,0,0,0,1.709-10.655,95.817,95.817,0,0,0-2.563-26.95c-.564-2.119-1.333-4.366-3.136-5.614s-4.879-.743-5.426,1.376" transform="translate(-452.441 -182.231)" fill="#ff725e"/>
      <path id="Path_9648" data-name="Path 9648" d="M584.861,329.787c-.991-3.777-6.767-25.053-11.962-38.946-5.733-15.423-17.559-18.61-17.559-18.61-26.616-9.083-50.533-9.134-76.047-.282a22.111,22.111,0,0,0-2.375.854h-.077c-18.943,7.434-20.9,27.445-20.9,27.445l-7.989,48.542a10.978,10.978,0,0,0-.188,1.162l-.077.461h0a11.364,11.364,0,0,0,6.511,10.963c11.108,5.127,21.737,3.9,30.863.137l-6.631,9.655h78.943l-5.178-12.74,1.709-7.69,12.227,14.714a11.373,11.373,0,0,0,5.631,3.666c14.1,1.641,16.38-19.353,13.731-31.572h0" transform="translate(-447.666 -193.682)" fill="#455a64"/>
      <path id="Path_9649" data-name="Path 9649" d="M542.417,266.806s-12.74,64.084-17.226,63.589S499.66,268.02,499.66,268.02,526.558,260.842,542.417,266.806Z" transform="translate(-455.233 -193.548)" fill="#ffbe9d"/>
      <path id="Path_9650" data-name="Path 9650" d="M505.249,260.678c-.068-7.374-.273-15.141-.273-15.141s-9.51-1.512-11.561-13.9c-1.948-11.809-.162-39.126-.162-39.126h0a35.631,35.631,0,0,1,39.681,8.844h0l-.436,59.915c-.051,6.955-6.075,12.449-13.518,12.338h0C511.453,273.495,505.309,267.736,505.249,260.678Z" transform="translate(-454.192 -182.694)" fill="#ffbe9d"/>
      <path id="Path_9651" data-name="Path 9651" d="M497.07,216.9a1.589,1.589,0,0,0,1.538,1.6,1.521,1.521,0,0,0,1.632-1.444,1.589,1.589,0,0,0-1.538-1.6,1.521,1.521,0,0,0-1.632,1.444Z" transform="translate(-454.857 -186.419)" fill="#263238"/>
      <path id="Path_9652" data-name="Path 9652" d="M494.615,215.543c.2.205,1.393-.692,3.1-.7s2.974.854,3.162.632-.12-.461-.667-.854a4.375,4.375,0,0,0-2.563-.76,4.272,4.272,0,0,0-2.469.854C494.692,215.073,494.513,215.449,494.615,215.543Z" transform="translate(-454.495 -186.186)" fill="#263238"/>
      <path id="Path_9653" data-name="Path 9653" d="M517.32,217.874a1.589,1.589,0,0,0,1.538,1.6,1.521,1.521,0,0,0,1.606-1.444,1.589,1.589,0,0,0-1.538-1.6,1.521,1.521,0,0,0-1.606,1.444Z" transform="translate(-457.804 -186.56)" fill="#263238"/>
      <path id="Path_9654" data-name="Path 9654" d="M515.506,216.143c.205.205,1.4-.692,3.11-.7s2.974.854,3.153.632-.111-.461-.658-.854a4.375,4.375,0,0,0-2.563-.76,4.17,4.17,0,0,0-2.469.854C515.591,215.673,515.412,216.049,515.506,216.143Z" transform="translate(-457.536 -186.274)" fill="#263238"/>
      <path id="Path_9655" data-name="Path 9655" d="M507.6,228.891a11.466,11.466,0,0,0-2.786-.479c-.436,0-.854-.128-.923-.427a2.2,2.2,0,0,1,.282-1.3l1.273-3.332c1.76-4.751,3.042-8.647,2.845-8.724s-1.777,3.725-3.546,8.476c-.419,1.171-.854,2.281-1.213,3.349a2.512,2.512,0,0,0-.214,1.709,1.077,1.077,0,0,0,.718.632,3.2,3.2,0,0,0,.743.1,11.108,11.108,0,0,0,2.82-.009Z" transform="translate(-455.757 -186.298)" fill="#263238"/>
      <path id="Path_9656" data-name="Path 9656" d="M507.1,254.229a31.555,31.555,0,0,0,16.577-4.529s-3.982,8.545-16.4,7.459Z" transform="translate(-456.316 -191.403)" fill="#eb996e"/>
      <path id="Path_9657" data-name="Path 9657" d="M509.182,235.939a3.127,3.127,0,0,1,2.76-1.162,2.828,2.828,0,0,1,1.948,1.034,1.786,1.786,0,0,1,.145,2.042,2.059,2.059,0,0,1-2.239.572,6.408,6.408,0,0,1-2.187-1.29,1.854,1.854,0,0,1-.5-.5.555.555,0,0,1,0-.632" transform="translate(-456.595 -189.229)" fill="#eb996e"/>
      <path id="Path_9658" data-name="Path 9658" d="M513.316,232.67c-.282,0-.273,1.846-1.854,3.17s-3.563,1.136-3.572,1.393c0,.12.444.359,1.282.376a4.623,4.623,0,0,0,2.982-1.06,3.956,3.956,0,0,0,1.427-2.657C513.649,233.123,513.444,232.661,513.316,232.67Z" transform="translate(-456.431 -188.924)" fill="#263238"/>
      <path id="Path_9659" data-name="Path 9659" d="M526.008,190.143c-4.418,6.545-16.312,13.415-24.882,15.107.983-1.341,6.212-4.691,7.186-6.024-3.845,2.974-9.4,6.964-14.526,7.323A3.136,3.136,0,0,1,492,206.3a2.4,2.4,0,0,1-.94-1.931,52,52,0,0,1,.162-11.236,12.424,12.424,0,0,1,4.332-8.092c3.273-2.623,8-3.332,12.467-3.52a28.411,28.411,0,0,1,11.057,1.29c3.452,1.29,6.426,3.913,6.981,7.109" transform="translate(-453.949 -181.473)" fill="#ff725e"/>
      <path id="Path_9660" data-name="Path 9660" d="M545.955,220.631a68.786,68.786,0,0,0,1.094-8.305c.256-6.408,2.17-29.513-19.849-27.223l1.247,6.212s-4.11,14.389,5.349,24.1c0,0-2.692,20.268,3.888,26.813,0,0,7.058-14.68,8.271-21.592" transform="translate(-459.242 -181.978)" fill="#ff725e"/>
      <path id="Path_9661" data-name="Path 9661" d="M534.52,219.311a7.442,7.442,0,0,1,3.99.231,5.169,5.169,0,0,1,2.939,2.64,5.366,5.366,0,0,1,.06,3.956,9.134,9.134,0,0,1-2.239,3.349,6.253,6.253,0,0,1-2.4,1.615,2.99,2.99,0,0,1-2.76-.41" transform="translate(-460.247 -186.955)" fill="#ffbe9d"/>
      <path id="Path_9662" data-name="Path 9662" d="M535.5,227.659c-.145.051.436.854,1.641.521a2.623,2.623,0,0,0,1.5-1.316,5.871,5.871,0,0,0,.641-2.2,3.418,3.418,0,0,0-.572-2.333,2.281,2.281,0,0,0-1.709-1.017c-1.248,0-1.632.854-1.487.854A2.255,2.255,0,0,1,536.9,222a2.23,2.23,0,0,1,1.4,2.563c-.137,1.367-.658,2.615-1.384,2.931S535.582,227.548,535.5,227.659Z" transform="translate(-460.446 -187.271)" fill="#eb996e"/>
      <path id="Path_9663" data-name="Path 9663" d="M483.712,338.761c-.12,0-.222-5.033-.222-11.245s.1-11.236.222-11.236.222,5.033.222,11.236S483.832,338.761,483.712,338.761Z" transform="translate(-452.88 -201.093)" fill="#263238"/>
      <path id="Path_9664" data-name="Path 9664" d="M519.233,315.705s-11.108.128-11.783,2.563c-1.162,4.067.914,26.394.914,26.394l10.211,3.418s4.922-1.136,2.649-10.612a69.153,69.153,0,0,0-6.75-17.038s13.569.376,13.193-2.657S519.233,315.705,519.233,315.705Z" transform="translate(-456.316 -200.988)" fill="#ffbe9d"/>
      <path id="Path_9665" data-name="Path 9665" d="M516.14,323.373c.607-.12,14.167-1.239,13.321.931s-13.321,2.709-13.321,2.709Z" transform="translate(-457.632 -202.068)" fill="#ffbe9d"/>
      <path id="Path_9666" data-name="Path 9666" d="M559.055,285.02l-1.675,42.347-6.186,16.26-38.006.786-1.538-52.455Z" transform="translate(-456.979 -196.543)" fill="#263238"/>
      <path id="Path_9667" data-name="Path 9667" d="M498.728,333.2a2.163,2.163,0,0,1-.461.239l-1.367.615-5.067,2.162-16.764,7-9.22,3.8a54.438,54.438,0,0,0-7.383,3.418,14.406,14.406,0,0,0-4.136,3.52,16.833,16.833,0,0,0-1.111,1.709,1.854,1.854,0,0,1,.205-.487,7.418,7.418,0,0,1,.769-1.29,13.722,13.722,0,0,1,4.1-3.683,51.159,51.159,0,0,1,7.4-3.512l9.237-3.828,16.816-6.878,5.127-2.034,1.4-.53a2.052,2.052,0,0,1,.453-.222Z" transform="translate(-448.475 -203.556)" fill="#263238"/>
      <path id="Path_9668" data-name="Path 9668" d="M516.867,352.62a7.124,7.124,0,0,1-.855,1.017c-.555.641-1.384,1.538-2.452,2.606-2.128,2.153-5.2,4.99-8.741,7.946s-6.836,5.5-9.3,7.28c-1.222.854-2.222,1.589-2.922,2.068a7.425,7.425,0,0,1-1.111.692,7.129,7.129,0,0,1,1.008-.854l2.837-2.179c2.392-1.837,5.665-4.409,9.2-7.365s6.631-5.733,8.8-7.827c1.094-1.034,1.957-1.905,2.563-2.5A7.6,7.6,0,0,1,516.867,352.62Z" transform="translate(-454.044 -206.382)" fill="#263238"/>
      <path id="Path_9669" data-name="Path 9669" d="M584,379.435c-.094.085-5.665-6.306-12.449-14.269s-12.21-14.475-12.116-14.526,5.665,6.289,12.449,14.235S584.089,379.358,584,379.435Z" transform="translate(-463.932 -206.094)" fill="#263238"/>
      <path id="Path_9670" data-name="Path 9670" d="M595.854,345.5a7.986,7.986,0,0,1-1.23-.436c-.786-.308-1.914-.786-3.29-1.4-2.751-1.239-6.494-3.085-10.476-5.392s-7.459-4.623-9.9-6.391c-1.222-.854-2.2-1.623-2.854-2.153a7.126,7.126,0,0,1-.991-.854,7.24,7.24,0,0,1,1.094.709c.76.521,1.752,1.2,2.931,2.034,2.486,1.709,5.981,3.965,9.946,6.263s7.69,4.187,10.39,5.486l3.221,1.529A7.343,7.343,0,0,1,595.854,345.5Z" transform="translate(-465.05 -202.925)" fill="#263238"/>
      <path id="Path_9671" data-name="Path 9671" d="M577.295,334c-.12,0-.786-4.5-1.487-10.091s-1.171-10.142-1.051-10.151.795,4.5,1.5,10.091S577.423,333.994,577.295,334Z" transform="translate(-466.161 -200.726)" fill="#263238"/>
      <path id="Path_9672" data-name="Path 9672" d="M539.126,228.65a3.171,3.171,0,0,1-.35.538l-1.085,1.453-3.939,5.127v-.273l6.417,5.041.573.461h-.308l5.554-6.955v.256l-4.178-3.418-1.145-.966a2.316,2.316,0,0,1-.385-.376,3.631,3.631,0,0,1,.453.291l1.2.854,4.272,3.281.145.111-.12.145c-1.581,2.034-3.461,4.426-5.486,7.007l-.137.179-.179-.137-.547-.359c-2.316-1.846-4.494-3.589-6.383-5.084l-.154-.128.12-.145,4.067-5.007,1.162-1.393C538.955,228.8,539.109,228.633,539.126,228.65Z" transform="translate(-460.137 -188.339)" fill="#263238"/>
      <path id="Path_9673" data-name="Path 9673" d="M554.213,344.41a151.877,151.877,0,0,1-18.354-1.965c-7.186-1.145-7.109-1.8-6.836-2.623.684-2.2,12.714,1.538,10.553-.778s-15.192-2.862-14.381-5.127c1.06-2.965,13.586,1.188,14.671,1.461s1.47-1.29.479-1.487c-1.418-.282-16.312-3.572-15.3-6.494.564-1.623,3.367-.265,3.367-.265s13.731,4.118,14.167,2.717-7.545-4.11-10.3-4.819-3.52-2.3-2.239-3.255c.854-.649,9.4,1.342,12.056,2.119s10.1,3.016,7.28-1.068l-.12-.2c-2.888-3.948-3.8-7.946-3.281-9.288a1.709,1.709,0,0,1,3.042,0,1.768,1.768,0,0,1,.282.658,3.177,3.177,0,0,0,.1.35,24.327,24.327,0,0,0,2.5,4.349A13.261,13.261,0,0,0,555,321.92c1.4,1.017,4.947,4.759,5.981,5.426" transform="translate(-458.92 -200.53)" fill="#ffbe9d"/>
    </g>
    <g id="freepik--character-2--inject-4" transform="translate(129.551 166.379)">
      <path id="Path_9674" data-name="Path 9674" d="M256.686,276.365h0a15,15,0,0,1-14.714-14.526c-.205-6.656-.359-13.073-.359-13.073s-12.227-1.136-13.124-13.236-.513-40.031-.513-40.031h0a42.176,42.176,0,0,1,42.62,2.709l1.88,1.273-.521,62.034a15,15,0,0,1-15.269,14.85Z" transform="translate(-154.535 -183.742)" fill="#b78876"/>
      <path id="Path_9675" data-name="Path 9675" d="M242.851,231.9a7.875,7.875,0,0,0-2.734-.41c-.444,0-.786-.094-.854-.325a2.426,2.426,0,0,1,.239-1.273l1.128-3.443c1.521-4.939,2.563-9.006,2.3-9.083s-1.709,3.862-3.213,8.8c-.359,1.2-.7,2.358-1.034,3.495a2.768,2.768,0,0,0-.128,1.829,1.162,1.162,0,0,0,.795.649,3,3,0,0,0,.752.051A8.659,8.659,0,0,0,242.851,231.9Z" transform="translate(-156.072 -187.583)" fill="#263238"/>
      <path id="Path_9676" data-name="Path 9676" d="M248.7,236.14a40.321,40.321,0,0,1-8.032,2.88,4.623,4.623,0,0,0,5.554,1.5C249.761,238.968,248.7,236.14,248.7,236.14Z" transform="translate(-156.395 -190.315)" fill="#fff"/>
      <path id="Path_9677" data-name="Path 9677" d="M243.92,257.46A28.2,28.2,0,0,0,259.428,252s-3.2,8.946-15.38,8.6Z" transform="translate(-156.868 -192.623)" fill="#a36957"/>
      <path id="Path_9678" data-name="Path 9678" d="M279.265,218.107a1.829,1.829,0,0,1,1.709-1.837c2.264-.06,5.981.854,6.306,7.066.5,8.912-8.075,6.69-8.1,6.434S279.239,221.567,279.265,218.107Z" transform="translate(-161.999 -187.423)" fill="#b78876"/>
      <path id="Path_9679" data-name="Path 9679" d="M281.519,226.79a2.287,2.287,0,0,0,.427.205,1.564,1.564,0,0,0,1.162,0c.923-.4,1.632-1.94,1.581-3.546a5.024,5.024,0,0,0-.555-2.2,1.786,1.786,0,0,0-1.23-1.128.8.8,0,0,0-.9.478c-.1.256,0,.427-.085.444s-.2-.137-.145-.513a1,1,0,0,1,.316-.572,1.162,1.162,0,0,1,.854-.273,2.187,2.187,0,0,1,1.709,1.29,5.263,5.263,0,0,1,.692,2.392c.043,1.794-.786,3.529-2.051,3.973a1.649,1.649,0,0,1-1.427-.162C281.544,226.978,281.484,226.79,281.519,226.79Z" transform="translate(-162.339 -187.92)" fill="#a36957"/>
      <path id="Path_9680" data-name="Path 9680" d="M232.43,219.986a1.649,1.649,0,0,0,1.709,1.538,1.564,1.564,0,0,0,1.581-1.6,1.641,1.641,0,0,0-1.709-1.547,1.572,1.572,0,0,0-1.581,1.606Z" transform="translate(-155.195 -187.73)" fill="#263238"/>
      <path id="Path_9681" data-name="Path 9681" d="M229.153,217.994c.222.2,1.4-.854,3.161-.931s3.127.666,3.3.444-.145-.479-.735-.854a4.537,4.537,0,0,0-2.666-.615,4.272,4.272,0,0,0-2.5,1C229.2,217.507,229.016,217.9,229.153,217.994Z" transform="translate(-154.712 -187.387)" fill="#263238"/>
      <path id="Path_9682" data-name="Path 9682" d="M253,219.628a1.641,1.641,0,0,0,1.709,1.538,1.572,1.572,0,0,0,1.589-1.6,1.649,1.649,0,0,0-1.709-1.538,1.581,1.581,0,0,0-1.589,1.6Z" transform="translate(-158.189 -187.679)" fill="#263238"/>
      <path id="Path_9683" data-name="Path 9683" d="M250.124,217.994c.222.2,1.4-.854,3.161-.931s3.119.666,3.3.444-.145-.479-.743-.854a4.5,4.5,0,0,0-2.657-.615,4.272,4.272,0,0,0-2.5,1C250.176,217.507,250.013,217.9,250.124,217.994Z" transform="translate(-157.766 -187.387)" fill="#263238"/>
      <path id="Path_9684" data-name="Path 9684" d="M263.657,190.808a10.587,10.587,0,0,0,2.017,11.364c1.188,1.23,2.692,2.17,3.725,3.546,2.136,2.845,1.786,6.759,2.128,10.3a6.948,6.948,0,0,0,1.709,4.5c1.171,1.085,3.461,1.2,4.272-.214a4.409,4.409,0,0,0,.444-1.427q1.119-5.921,2.222-11.834c.555-2.965,1.119-5.981.607-8.972a12.646,12.646,0,0,0-15.816-10.048" transform="translate(-159.618 -183.246)" fill="#263238"/>
      <path id="Path_9685" data-name="Path 9685" d="M258.66,187.568c-4.11-.786-6.417-2.1-9.322-3.418a13.671,13.671,0,0,0-9.262-1.051c-2.068.581-4.025,1.829-6.152,1.8s-4.016-1.273-6.032-1.914a10.766,10.766,0,0,0-8.365.854,7.159,7.159,0,0,0-3.948,5.443c-.171,2.392,1.965,4.862,4.11,4.178-2.239.778-3.144,4.076-2.034,6.272a5.742,5.742,0,0,0,5.973,2.845,10.877,10.877,0,0,0,6.032-3.683c.051,2.666,2.726,4.537,5.2,4.46s4.717-1.564,6.759-3.093,4.11-3.2,6.537-3.734c1.709-.376,3.418-.171,5.127-.376a5.47,5.47,0,0,0,4.375-2.563c.829-1.615,4.11-3.512,2.392-3.563" transform="translate(-152.741 -182.509)" fill="#263238"/>
      <path id="Path_9686" data-name="Path 9686" d="M237.5,202.284a9.805,9.805,0,0,0,.914.487,4.349,4.349,0,0,0,2.743,0,7.305,7.305,0,0,0,1.76-.778c.6-.359,1.2-.854,1.854-1.29a15.381,15.381,0,0,1,2.145-1.367,6.169,6.169,0,0,1,2.683-.675c1.905,0,3.623.479,5.178.342a4.682,4.682,0,0,0,3.486-1.9,5.127,5.127,0,0,0,1.042-2.563c.068-.666,0-1.042.043-1.042s.043.085.077.265a3.76,3.76,0,0,1,.051.786,4.938,4.938,0,0,1-.957,2.734,5.075,5.075,0,0,1-1.478,1.4,4.981,4.981,0,0,1-2.222.718c-1.658.162-3.418-.342-5.2-.308a8.445,8.445,0,0,0-4.606,1.931c-.658.461-1.273.914-1.905,1.273a7.075,7.075,0,0,1-1.871.76,4.332,4.332,0,0,1-2.888-.128,2.684,2.684,0,0,1-.666-.444Q237.491,202.3,237.5,202.284Z" transform="translate(-155.933 -184.109)" fill="#263238"/>
      <path id="Path_9687" data-name="Path 9687" d="M264.455,183.49a18.191,18.191,0,0,0,.248,2.837,17.008,17.008,0,0,0,1.119,2.623,4.9,4.9,0,0,1-1.367-5.46Z" transform="translate(-159.809 -182.652)" fill="#263238"/>
      <path id="Path_9688" data-name="Path 9688" d="M269.325,183.27c.094.094-1.008,1.136-1.829,2.777s-1.051,3.127-1.179,3.1a5.545,5.545,0,0,1,.778-3.307A5.7,5.7,0,0,1,269.325,183.27Z" transform="translate(-160.125 -182.62)" fill="#263238"/>
      <path id="Path_9689" data-name="Path 9689" d="M332.769,331.55l18.6,47.858H322.9l-13.27-34.076Z" transform="translate(-166.431 -204.201)" fill="#b78876"/>
      <path id="Path_9690" data-name="Path 9690" d="M207.551,275.029s-24.532,25.249-35.127,25.249c-3.469,0-6.186-42.056-6.229-54.181h0a15.893,15.893,0,0,1,2.384-4.349,20.508,20.508,0,0,1,3.085-3.418,21.148,21.148,0,0,1,4.811-3.1c1.658-.581,1.794-2.845.282-3.3s-6.109,1.042-10.253,4.947-2.888-4.836-2.5-8.023,1.136-13.124.248-14c-1.3-1.282-2.948-.094-3.273,3.1s-1.888,12.749-3.6,12.5.564-16.474.564-16.474,1.034-3.418-.854-3.76c-3.486-.624-4.571,16.773-4.631,18.431,0,1.154-1.88.957-1.769-.282s2.563-16.149-.948-16.824c-2.709-.513-1.025,14.312-3.255,17.158s-.128-11.407-2.743-11.792c-.974-.137-1.709-.111-1.709,8.211,0,4.477,1.709,11.236,1.042,19.849h0c1.128,25.429-.12,96.836,28.2,88.377,31.111-9.314,52.37-29.692,52.37-29.692Z" transform="translate(-142.04 -186.541)" fill="#b78876"/>
      <path id="Path_9691" data-name="Path 9691" d="M299.089,312.55a4.964,4.964,0,0,1,.273,1.008c.154.649.35,1.6.573,2.777.436,2.358.957,5.631,1.359,9.262s.607,6.938.692,9.331c0,1.2.06,2.17.051,2.837a4.153,4.153,0,0,1-.051,1.042,5.453,5.453,0,0,1-.12-1.034c-.051-.761-.12-1.709-.2-2.828-.162-2.384-.419-5.674-.854-9.3s-.854-6.9-1.23-9.262c-.171-1.111-.308-2.042-.427-2.794a4.484,4.484,0,0,1-.068-1.042Z" transform="translate(-164.896 -201.436)" fill="#263238"/>
      <path id="Path_9692" data-name="Path 9692" d="M209.258,370.632l78.371.393-2.64-16.542a127.56,127.56,0,0,0-.111-23.592l3.973,10.758,32.392-16.235s-11.774-31.393-21.635-42.031c-12.449-13.441-34.862-12.1-34.862-12.1l-15.141,10.254-13.936-9.818a67.732,67.732,0,0,0-21.532,6.263l-.718.205v.154c-8.22,4.272-19.952,14.756-31.119,24.916l12.894,12.552,14.278,13.3a11.639,11.639,0,0,1,2.444-.1C212.155,330.481,209.258,370.632,209.258,370.632Z" transform="translate(-147.899 -195.424)" fill="#455a64"/>
      <path id="Path_9693" data-name="Path 9693" d="M299.474,306.68l10.655,37.989-4.272,2.136-3.965-10.758S298.022,313.524,299.474,306.68Z" transform="translate(-164.906 -200.581)" opacity="0.2"/>
      <path id="Path_9694" data-name="Path 9694" d="M243.74,270.74v-4.1s12.236-.948,14.714,13.509c0,0,3.99-13.509,15.867-14.868l1.709,6.314s-5.631,17.593-6.443,17.747-11.108,3.153-11.108,3.153l-5.981-1.35-6.622-7.545Z" transform="translate(-156.842 -194.556)" fill="#455a64"/>
      <path id="Path_9695" data-name="Path 9695" d="M279.261,272.11a4.679,4.679,0,0,1-.684.709c-.444.453-1.094,1.085-1.863,1.914a43.979,43.979,0,0,0-5.306,6.972c-.376.615-.718,1.222-1.042,1.811l-.2.359-.188-.359c-1.359-2.563-2.563-4.785-3.486-6.52a2.879,2.879,0,0,0-.778-.854,1.709,1.709,0,0,0-.854-.3,2.05,2.05,0,0,0-.743.128.931.931,0,0,1,.752-.282,1.709,1.709,0,0,1,.94.265,3.017,3.017,0,0,1,.906.923c.966,1.615,2.2,3.879,3.623,6.468H270c.325-.6.666-1.222,1.051-1.837a37.271,37.271,0,0,1,5.46-6.964c.8-.8,1.487-1.41,1.974-1.82a3.468,3.468,0,0,1,.778-.615Z" transform="translate(-159.808 -195.55)" fill="#263238"/>
      <path id="Path_9696" data-name="Path 9696" d="M242.81,273a3.255,3.255,0,0,1,.581.615c.359.419.854,1.025,1.461,1.786,1.222,1.512,2.88,3.623,4.691,5.981l.291.376h-.376a14.54,14.54,0,0,0,1.008-3.811,4.563,4.563,0,0,1,1.709-2.854,2.512,2.512,0,0,1,2.2-.282,1.829,1.829,0,0,1,.521.333c.094.111.128.171.12.179a3.538,3.538,0,0,0-.692-.35,2.41,2.41,0,0,0-1.982.376,4.315,4.315,0,0,0-1.461,2.692,14.936,14.936,0,0,1-1.017,3.931l-.162.3L249.5,282l-.291-.376c-1.811-2.35-3.418-4.494-4.588-6.058-.572-.778-1.034-1.418-1.35-1.863a3.29,3.29,0,0,1-.461-.7Z" transform="translate(-156.706 -195.68)" fill="#263238"/>
      <path id="Path_9697" data-name="Path 9697" d="M253,372.316a.855.855,0,0,1,0-.239V371.4c0-.632.077-1.5.137-2.615.145-2.3.359-5.571.607-9.6.564-8.134,1.333-19.311,2.179-31.658l2.3-31.615c.316-4.024.572-7.289.752-9.587.094-1.111.171-1.982.231-2.606a5.718,5.718,0,0,1,.068-.684.854.854,0,0,1,0-.222.6.6,0,0,1,0,.231v.675c0,.632-.085,1.5-.145,2.615-.145,2.3-.35,5.571-.607,9.6-.555,8.134-1.324,19.311-2.17,31.658s-1.709,23.523-2.307,31.615c-.316,4.024-.564,7.289-.743,9.587q-.154,1.666-.231,2.615a5.741,5.741,0,0,1-.068.675.718.718,0,0,1,0,.231Z" transform="translate(-158.188 -197.109)" fill="#263238"/>
      <path id="Path_9698" data-name="Path 9698" d="M219.62,298.6a7.693,7.693,0,0,1-.077,1.359c-.068.948-.171,2.187-.291,3.691-.231,3.11-.47,7.425-.735,12.193s-.555,9.074-.854,12.193c-.154,1.555-.308,2.82-.436,3.683a7.476,7.476,0,0,1-.248,1.342,7.691,7.691,0,0,1,.077-1.359c.077-.948.171-2.2.291-3.691.239-3.119.47-7.434.743-12.193s.547-9.083.854-12.2c.154-1.555.308-2.811.436-3.683a8.039,8.039,0,0,1,.239-1.333Z" transform="translate(-152.946 -199.405)" fill="#263238"/>
      <path id="Path_9699" data-name="Path 9699" d="M259.378,280.26s-4.2,5.494-3.589,6.314l3.589,4.793h2.563s2.392-6.716,1.777-7.57A37.528,37.528,0,0,0,259.378,280.26Z" transform="translate(-158.586 -196.736)" fill="#ff725e"/>
      <path id="Path_9700" data-name="Path 9700" d="M266.71,278.53l-4.64,3.623,1.777,3.409,4.768-3.52Z" transform="translate(-159.509 -196.484)" fill="#ff725e"/>
      <path id="Path_9701" data-name="Path 9701" d="M251.55,280.519l4.23,3.529,2.341-3.529-5.34-4.059Z" transform="translate(-157.978 -196.183)" fill="#ff725e"/>
      <path id="Path_9702" data-name="Path 9702" d="M258.841,293.134l-6.451,57.813,6.349,20.1,8.468-19.917-5.571-58.676Z" transform="translate(-158.101 -198.51)" fill="#ff725e"/>
      <path id="Path_9703" data-name="Path 9703" d="M310.6,280.479a5.646,5.646,0,0,0-.854-.573,3.623,3.623,0,0,0-2.657-.154,8.236,8.236,0,0,0-3.307,2.333,19.866,19.866,0,0,0-3.025,4.042,20.508,20.508,0,0,0-2.563,8.758c-.137,2.367.162,3.828.068,3.837a5.5,5.5,0,0,1-.222-1.017,16.712,16.712,0,0,1-.154-2.828,19.457,19.457,0,0,1,2.486-8.972,19.1,19.1,0,0,1,3.119-4.11,8.211,8.211,0,0,1,3.512-2.341,3.649,3.649,0,0,1,2.828.3,2.469,2.469,0,0,1,.607.5C310.569,280.385,310.612,280.47,310.6,280.479Z" transform="translate(-164.721 -196.596)" fill="#263238"/>
    </g>
    <g id="freepik--character-1--inject-4" transform="translate(266.477 175.231)">
      <path id="Path_9704" data-name="Path 9704" d="M381.293,197c-5.477,3.358-9.279,8.972-11.535,14.979s-3.11,12.449-3.777,18.8a366.438,366.438,0,0,0-1.769,50.815c20.7,2.615,41.569,5.246,62.375,3.828-3.614-23.78-5.9-47.534-3.008-71.416" transform="translate(-311.269 -193.47)" fill="#263238"/>
      <path id="Path_9705" data-name="Path 9705" d="M419.419,406.354l-15.1-30.487,5.759-22.3c.675,4.725,1.273,8.827,1.273,8.827l32.341-1.709a2.051,2.051,0,0,0,1.923-2.341l-6.263-44.6s-2.025-20.695-21.618-28.385h-.094c-.786-.308-1.606-.581-2.452-.854-26.411-9.16-51.148-9.1-78.67.29,0,0-12.227,3.29-18.157,19.242s-11.962,39.4-11.962,39.4l27.428,9.715.179-4.64,6.067,23.207-13.3,33.8,46.44,1.145Z" transform="translate(-302.887 -205.214)" fill="#ff725e"/>
      <path id="Path_9706" data-name="Path 9706" d="M305.827,354.28l-3.085,14.526c-2.649,12.518,6.622,25.369,19.336,26.813l67.6,6.938A26.873,26.873,0,0,0,419.453,378.2h0l-85.224-8.117.53-8.186Z" transform="translate(-302.289 -216.361)" fill="#ff725e"/>
      <path id="Path_9707" data-name="Path 9707" d="M405.289,369.139l5.246-.974s12.441-13.612,14.774-13.8c1.923-.162,12.509-.06,16.235,0a1.282,1.282,0,0,1,1.265,1.282h0a1.282,1.282,0,0,1-1.239,1.282l-12.5.487-.06,1.008,12.518.162c1.282.1,2.093,2.119-1.982,2.486l-10.476.367v.649l10.621,1.487c.538.077,1.948.35,1.957.9,0,0,.649,1.324-2.384,1.709-1.034.128-10.254-.179-10.254-.179l.35.854,9.553,2.059a1.35,1.35,0,0,1,1.051,1.512h0a1.35,1.35,0,0,1-1.47,1.162l-10.194-.94-10.014,7.989H404.87Z" transform="translate(-317.219 -216.361)" fill="#ffbe9d"/>
      <path id="Path_9708" data-name="Path 9708" d="M366.48,277.917s13.167,67.331,17.807,66.844,26.4-64.537,26.4-64.537S382.877,271.757,366.48,277.917Z" transform="translate(-311.631 -204.92)" fill="#fafafa"/>
      <path id="Path_9709" data-name="Path 9709" d="M434.632,351.048c-.12,0-.222-4.648-.222-10.373s.1-10.365.222-10.365.222,4.64.222,10.365S434.76,351.048,434.632,351.048Z" transform="translate(-321.518 -212.873)" fill="#263238"/>
      <path id="Path_9710" data-name="Path 9710" d="M340.07,351.641a20.683,20.683,0,0,1,.273-2.982c.231-1.846.572-4.375.983-7.169s.795-5.332,1.1-7.152a20.249,20.249,0,0,1,.59-2.948,20.74,20.74,0,0,1-.273,2.991c-.231,1.837-.573,4.375-.983,7.169s-.795,5.315-1.1,7.143a20.246,20.246,0,0,1-.59,2.948Z" transform="translate(-307.788 -213.03)" fill="#263238"/>
      <path id="Path_9711" data-name="Path 9711" d="M384.587,418.134a2.719,2.719,0,0,1,0-.624v-1.786c0-1.555,0-3.8.06-6.579.1-5.554.4-13.218.786-21.678s.726-16.124.914-21.678c.077-2.734.145-4.964.2-6.571a17.713,17.713,0,0,1,.051-1.786,2.97,2.97,0,0,1,.051-.624,3.536,3.536,0,0,1,0,.624v1.794c0,1.547,0,3.794-.051,6.571-.1,5.554-.41,13.218-.786,21.686s-.735,16.124-.914,21.669c-.085,2.743-.154,4.973-.2,6.571a15.026,15.026,0,0,1-.06,1.786A5.069,5.069,0,0,1,384.587,418.134Z" transform="translate(-314.264 -216.729)" fill="#263238"/>
      <path id="Path_9712" data-name="Path 9712" d="M413.513,280.87s.043.29.145.854a12.132,12.132,0,0,0,.675,2.324,24.91,24.91,0,0,0,1.709,3.418,48.442,48.442,0,0,1,2.418,4.512,10.869,10.869,0,0,1,1.025,6.118,7.887,7.887,0,0,1-1.376,3.221,21.55,21.55,0,0,1-2.41,2.786,43.58,43.58,0,0,0-5.127,5.879,14,14,0,0,0-2.64,7.741,9.543,9.543,0,0,0,.906,4.05,36.314,36.314,0,0,1,1.658,3.837,5.649,5.649,0,0,1,.265,2.068,4.272,4.272,0,0,1-.641,1.965,10.621,10.621,0,0,1-2.845,2.666l-10.706,7.9-7.237,5.281-1.982,1.427-.521.359-.188.111a1.56,1.56,0,0,1,.162-.154l.5-.393,1.931-1.487,7.118-5.409,10.647-7.964a10.126,10.126,0,0,0,2.726-2.563,3.812,3.812,0,0,0,.581-1.769,5.357,5.357,0,0,0-.256-1.923,34.964,34.964,0,0,0-1.649-3.777,9.9,9.9,0,0,1-.94-4.221,14.363,14.363,0,0,1,2.726-7.981,42.651,42.651,0,0,1,5.2-5.93c1.752-1.709,3.367-3.6,3.708-5.785a10.476,10.476,0,0,0-.948-5.921,47.533,47.533,0,0,0-2.35-4.52,25.066,25.066,0,0,1-1.649-3.495,10.792,10.792,0,0,1-.6-2.375,6,6,0,0,1-.06-.632.667.667,0,0,1,.034-.214Z" transform="translate(-314.565 -205.677)" fill="#263238"/>
      <path id="Path_9713" data-name="Path 9713" d="M382.806,344.471H382.6l-.607-.111a19.186,19.186,0,0,1-2.281-.624,22.764,22.764,0,0,1-7.511-4.272,22.293,22.293,0,0,1-6.9-10.766,22.865,22.865,0,0,1-.854-7.57,24.683,24.683,0,0,1,.538-4,9.305,9.305,0,0,0,.111-4,3.307,3.307,0,0,0-1.034-1.615,5.5,5.5,0,0,0-1.76-.854c-.632-.214-1.29-.385-1.931-.649a5.392,5.392,0,0,1-1.709-1.128,6.733,6.733,0,0,1-1.76-3.529,13.96,13.96,0,0,1-.205-3.751,51.02,51.02,0,0,1,2.8-12.569,52.383,52.383,0,0,1,3.589-7.9c.5-.854.914-1.572,1.213-2.017l.333-.513a.692.692,0,0,1,.128-.171.374.374,0,0,1-.085.188l-.3.538c-.273.461-.658,1.162-1.145,2.059a57.246,57.246,0,0,0-3.418,7.921,53.343,53.343,0,0,0-2.692,12.492,14.175,14.175,0,0,0,.222,3.64,6.426,6.426,0,0,0,1.641,3.307,5.127,5.127,0,0,0,1.6,1.025c.6.248,1.247.419,1.905.641a5.759,5.759,0,0,1,1.9.957,3.725,3.725,0,0,1,1.179,1.837,9.622,9.622,0,0,1-.1,4.2,25.636,25.636,0,0,0-.538,3.948,22.8,22.8,0,0,0,.854,7.434,22.148,22.148,0,0,0,6.707,10.638,23.54,23.54,0,0,0,7.365,4.383c.957.342,1.709.564,2.247.7l.59.154q.055-.011.111-.017Z" transform="translate(-310.202 -205.322)" fill="#263238"/>
      <path id="Path_9714" data-name="Path 9714" d="M419.235,371.469,362.61,369.64l.085,18.8,37.494,8.237,26.377,4.212c16.388,0,29.5-15.047,26.967-31.239h-.068Z" transform="translate(-311.068 -218.597)" fill="#ff725e"/>
      <path id="Path_9715" data-name="Path 9715" d="M434.825,371.114a4.156,4.156,0,0,1-.735.051l-2.1.06-7.741.137c-6.537.1-15.568.214-25.548.111s-19.012-.453-25.54-.854c-3.264-.222-5.9-.427-7.69-.615l-2.093-.214a4.367,4.367,0,0,1-.735-.1,4.369,4.369,0,0,1,.735,0l2.1.128c1.829.128,4.469.291,7.69.47,6.528.359,15.551.675,25.531.769s18.995,0,25.531,0h9.852A4.97,4.97,0,0,1,434.825,371.114Z" transform="translate(-311.072 -218.601)" fill="#263238"/>
      <path id="Path_9716" data-name="Path 9716" d="M355.665,369.139l-5.246-.974s-12.441-13.612-14.782-13.8c-1.914-.162-12.5-.06-16.192,0a1.282,1.282,0,0,0-1.265,1.282h0a1.282,1.282,0,0,0,1.23,1.282l12.509.487.06,1.008-12.526.162c-1.273.1-2.093,2.119,1.991,2.486l10.476.367v.649L321.3,363.576c-.538.077-1.948.35-1.965.9,0,0-.641,1.324,2.384,1.709,1.042.128,10.253-.179,10.253-.179l-.359.854-9.544,2.059a1.367,1.367,0,0,0-1.06,1.512h0a1.359,1.359,0,0,0,1.47,1.162l10.2-.94,10.014,7.989h13.381Z" transform="translate(-304.602 -216.361)" fill="#ffbe9d"/>
      <path id="Path_9717" data-name="Path 9717" d="M425.719,403.792a2.8,2.8,0,0,1-.641,0l-1.829-.2c-1.6-.179-3.888-.47-6.725-.854-5.674-.786-13.483-2.025-22.054-3.7s-16.235-3.486-21.823-4.9c-2.768-.7-5.007-1.3-6.545-1.709l-1.769-.513a4.382,4.382,0,0,1-.615-.205,3.073,3.073,0,0,1,.632.12l1.794.427,6.579,1.606c5.563,1.333,13.27,3.085,21.831,4.768s16.363,2.965,22.011,3.828l6.7,1,1.82.282A5.508,5.508,0,0,1,425.719,403.792Z" transform="translate(-311.23 -221.809)" fill="#263238"/>
      <path id="Path_9718" data-name="Path 9718" d="M363.1,388.58a14.378,14.378,0,0,1-.5-2.674c-.222-1.709-.461-3.982-.6-6.537s-.128-4.887-.077-6.571a14.759,14.759,0,0,1,.214-2.709,18.366,18.366,0,0,1,.1,2.717c0,1.709.077,3.982.205,6.537s.325,4.853.47,6.52a20.51,20.51,0,0,1,.179,2.717Z" transform="translate(-310.965 -218.662)" fill="#263238"/>
      <path id="Path_9719" data-name="Path 9719" d="M370.258,389.359a2.9,2.9,0,0,1-.248-.718c-.128-.461-.3-1.145-.47-1.991a48.7,48.7,0,0,1-.854-13.483c.068-.854.154-1.564.231-2.042a2.5,2.5,0,0,1,.154-.735,23.813,23.813,0,0,1-.068,2.794c-.068,1.709-.094,4.1.068,6.725s.47,4.982.743,6.682A22.555,22.555,0,0,1,370.258,389.359Z" transform="translate(-311.932 -218.706)" fill="#263238"/>
      <path id="Path_9720" data-name="Path 9720" d="M364.328,373.559c.051.051-.273.282-.265.854a1.034,1.034,0,0,0,.342.769.929.929,0,0,0,1.4-.854,1.025,1.025,0,0,0-.487-.684c-.453-.273-.854-.111-.854-.179s.35-.367.991-.094a1.282,1.282,0,0,1,.752.854,1.3,1.3,0,0,1-2.076,1.188,1.273,1.273,0,0,1-.393-1.085C363.841,373.67,364.328,373.5,364.328,373.559Z" transform="translate(-311.231 -219.123)" fill="#263238"/>
      <path id="Path_9721" data-name="Path 9721" d="M367.114,395.814a2.365,2.365,0,0,1-.581,0h-1.666a45.108,45.108,0,0,0-6.075.573,89.628,89.628,0,0,0-8.844,1.965c-3.307.854-6.913,1.923-10.783,2.768a46.258,46.258,0,0,1-11.108,1.2,28.086,28.086,0,0,1-8.946-1.709,20.379,20.379,0,0,1-5.349-3.016,13.5,13.5,0,0,1-1.239-1.119,2.564,2.564,0,0,1-.393-.427s.59.547,1.709,1.41a21.088,21.088,0,0,0,5.349,2.854,28.139,28.139,0,0,0,8.9,1.615,47,47,0,0,0,10.98-1.23c3.845-.854,7.459-1.88,10.775-2.734a84.671,84.671,0,0,1,8.9-1.88,40.272,40.272,0,0,1,6.118-.427,9.751,9.751,0,0,1,1.666.077A3.1,3.1,0,0,1,367.114,395.814Z" transform="translate(-303.721 -222.384)" fill="#263238"/>
      <path id="Path_9722" data-name="Path 9722" d="M400.854,275.15c1.341-7.5,2.9-15.38,2.9-15.38s9.963.094,14.193-12.176c4.033-11.706,6.947-39.869,6.947-39.869h0a36.844,36.844,0,0,0-41.988,2.145h0l-9.929,61.162c-1.154,7.1,4.033,13.748,11.646,14.919h0C392.3,287.138,399.572,282.344,400.854,275.15Z" transform="translate(-312.553 -194.223)" fill="#ffbe9d"/>
      <path id="Path_9723" data-name="Path 9723" d="M424.532,233.049a1.641,1.641,0,0,1-1.846,1.359,1.564,1.564,0,0,1-1.418-1.752,1.649,1.649,0,0,1,1.854-1.359,1.572,1.572,0,0,1,1.41,1.752Z" transform="translate(-319.604 -198.46)" fill="#263238"/>
      <path id="Path_9724" data-name="Path 9724" d="M427.452,231.374c-.239.179-1.307-.948-3.05-1.248s-3.17.342-3.324.094c-.077-.1.2-.453.854-.76a4.571,4.571,0,0,1,2.709-.342,4.383,4.383,0,0,1,2.384,1.265C427.452,230.886,427.563,231.3,427.452,231.374Z" transform="translate(-319.576 -198.134)" fill="#263238"/>
      <path id="Path_9725" data-name="Path 9725" d="M403.593,229.7a1.649,1.649,0,0,1-1.846,1.359,1.572,1.572,0,0,1-1.418-1.709,1.658,1.658,0,0,1,1.854-1.367,1.581,1.581,0,0,1,1.41,1.717Z" transform="translate(-316.557 -197.978)" fill="#263238"/>
      <path id="Path_9726" data-name="Path 9726" d="M406.042,228.373c-.239.171-1.307-.948-3.05-1.256s-3.17.35-3.324.1c-.077-.111.188-.461.854-.769a4.512,4.512,0,0,1,2.709-.333,4.323,4.323,0,0,1,2.384,1.256C406.042,227.877,406.153,228.3,406.042,228.373Z" transform="translate(-316.46 -197.697)" fill="#263238"/>
      <path id="Path_9727" data-name="Path 9727" d="M411.86,242.692a12.263,12.263,0,0,1,2.922,0c.453,0,.854,0,1.017-.273a2.308,2.308,0,0,0-.06-1.367c-.231-1.154-.47-2.358-.718-3.623-.983-5.127-1.606-9.348-1.393-9.4s1.162,4.1,2.145,9.245c.231,1.273.453,2.478.658,3.631a2.641,2.641,0,0,1-.077,1.786,1.119,1.119,0,0,1-.854.521,2.844,2.844,0,0,1-.778,0,11.286,11.286,0,0,1-2.862-.521Z" transform="translate(-318.236 -197.987)" fill="#263238"/>
      <path id="Path_9728" data-name="Path 9728" d="M406.255,268.3a32.7,32.7,0,0,1-16.115-7.494s2.563,9.4,15.38,10.441Z" transform="translate(-315.075 -202.757)" fill="#eb996e"/>
      <path id="Path_9729" data-name="Path 9729" d="M409.219,249.707A3.213,3.213,0,0,0,406.6,248a2.888,2.888,0,0,0-2.162.718,1.829,1.829,0,0,0-.5,2.051,2.145,2.145,0,0,0,2.179.983,6.776,6.776,0,0,0,2.461-.94,1.973,1.973,0,0,0,.59-.427.581.581,0,0,0,.111-.649" transform="translate(-317.065 -200.891)" fill="#eb996e"/>
      <path id="Path_9730" data-name="Path 9730" d="M405.529,245.55c.282,0-.051,1.923,1.333,3.555s3.418,1.769,3.418,2.042c0,.12-.513.282-1.367.154a4.751,4.751,0,0,1-2.854-1.589,4.187,4.187,0,0,1-1.06-2.922C405.1,245.934,405.4,245.515,405.529,245.55Z" transform="translate(-317.237 -200.536)" fill="#263238"/>
      <path id="Path_9731" data-name="Path 9731" d="M394.61,199.492c3.375,7.442,14.312,16.5,22.754,19.712-.769-1.538-5.511-5.862-6.28-7.391,3.418,3.7,8.331,8.724,13.535,9.98a3.23,3.23,0,0,0,1.863.06,2.512,2.512,0,0,0,1.29-1.8,53.829,53.829,0,0,0,1.777-11.492,12.816,12.816,0,0,0-2.991-9c-2.88-3.238-7.579-4.785-12.1-5.751a29.44,29.44,0,0,0-11.5-.6c-3.743.718-7.229,2.871-8.348,6.041" transform="translate(-315.725 -192.869)" fill="#263238"/>
      <path id="Path_9732" data-name="Path 9732" d="M371.047,227.633a71.2,71.2,0,0,1,.325-8.656c.854-6.571,2.9-30.47,24.95-24.318l-2.341,6.126s1.709,15.38-9.63,23.634c0,0,.051,15.38-7.793,20.891,0,0-5.469-10.407-5.511-17.67" transform="translate(-312.293 -192.984)" fill="#263238"/>
      <path id="Path_9733" data-name="Path 9733" d="M385.743,228.336a7.69,7.69,0,0,0-4.11-.453,5.341,5.341,0,0,0-3.418,2.179,5.571,5.571,0,0,0-.743,4.025,9.4,9.4,0,0,0,1.709,3.8,6.409,6.409,0,0,0,2.145,2.042,3.059,3.059,0,0,0,2.888.06" transform="translate(-313.216 -197.95)" fill="#ffbe9d"/>
      <path id="Path_9734" data-name="Path 9734" d="M384.04,236.711c.145.077-.581.795-1.76.239a2.683,2.683,0,0,1-1.29-1.6,5.9,5.9,0,0,1-.273-2.358,3.58,3.58,0,0,1,.983-2.281,2.393,2.393,0,0,1,1.965-.735c1.273.2,1.512,1.145,1.359,1.145a2.568,2.568,0,0,0-1.393-.4,2.307,2.307,0,0,0-1.871,2.358c-.094,1.418.214,2.786.9,3.23S383.98,236.583,384.04,236.711Z" transform="translate(-313.7 -198.269)" fill="#eb996e"/>
      <path id="Path_9735" data-name="Path 9735" d="M380.96,242.06c-3.418,20.43-.641,41.313,0,62.025a11.618,11.618,0,0,1-.854,5.827c-1.359,2.674-4.537,3.982-7.536,4.161s-5.981-.513-8.963-.76c-.325-1.982-.641-3.973-.966-5.981q-1.5,3.435-2.991,6.836,1.974-21.789,4.324-43.577" transform="translate(-310.637 -200.029)" fill="#263238"/>
    </g>
  </g>
</svg>
