<svg id="change_circle_black_24dp" xmlns="http://www.w3.org/2000/svg" width="24" height="24" viewBox="0 0 24 24">
  <rect id="Rectangle_4733" data-name="Rectangle 4733" width="24" height="24" fill="none"/>
  <path id="Path_52225" data-name="Path 52225" d="M12,2A10,10,0,1,0,22,12,10,10,0,0,0,12,2Zm0,18a8,8,0,1,1,8-8A8.011,8.011,0,0,1,12,20Zm4.17-5.24-1.1-1.1A3.491,3.491,0,0,0,12,8.5c-.03,0-.06.01-.09.01L13,9.6l-1.06,1.06L9.11,7.83,11.94,5,13,6.06l-.96.96a4.971,4.971,0,0,1,4.13,7.74Zm-1.28,1.41L12.06,19,11,17.94l.95-.95A5,5,0,0,1,7.83,9.24l1.1,1.1a3.5,3.5,0,0,0,.59,4.13,3.449,3.449,0,0,0,2.56,1.01L11,14.4l1.06-1.06Z"/>
</svg>
