<svg xmlns="http://www.w3.org/2000/svg" width="24" height="24" viewBox="0 0 24 24">
  <g id="Group_8770" data-name="Group 8770" transform="translate(1921 -3195)">
    <g id="text_snippet" transform="translate(-1918 3198)">
      <g id="Group" transform="translate(0 0)">
        <path id="Vector" d="M17.41,5.41,12.58.58A2,2,0,0,0,11.17,0H2A2.006,2.006,0,0,0,0,2V16a2.006,2.006,0,0,0,2,2H16a2.006,2.006,0,0,0,2-2V6.83A2.006,2.006,0,0,0,17.41,5.41ZM4,4h7V6H4ZM14,14H4V12H14Zm0-4H4V8H14Z" fill="#84818a"/>
      </g>
    </g>
    <rect id="Rectangle_3238" data-name="Rectangle 3238" width="24" height="24" transform="translate(-1921 3195)" fill="none"/>
  </g>
</svg>
