<svg xmlns="http://www.w3.org/2000/svg" width="24" height="24" viewBox="0 0 24 24">
  <g id="Group_8769" data-name="Group 8769" transform="translate(1980 -3145)">
    <g id="create_new_folder" transform="translate(-1978 3149)">
      <path id="Vector" d="M18,2H10L8,0H2A1.985,1.985,0,0,0,.01,2L0,14a1.993,1.993,0,0,0,2,2H18a1.993,1.993,0,0,0,2-2V4A1.993,1.993,0,0,0,18,2Zm-1,8H14v3H12V10H9V8h3V5h2V8h3Z" fill="#84818a"/>
    </g>
    <rect id="Rectangle_3236" data-name="Rectangle 3236" width="24" height="24" transform="translate(-1980 3145)" fill="none"/>
  </g>
</svg>
