<svg xmlns="http://www.w3.org/2000/svg" xmlns:xlink="http://www.w3.org/1999/xlink" width="309.575" height="232.455" viewBox="0 0 309.575 232.455">
  <defs>
    <clipPath id="clip-path">
      <rect id="Rectangle_3096" data-name="Rectangle 3096" width="276.278" height="118.492" fill="none"/>
    </clipPath>
    <clipPath id="clip-path-2">
      <rect id="Rectangle_3097" data-name="Rectangle 3097" width="24.809" height="7.531" fill="none"/>
    </clipPath>
    <clipPath id="clip-path-3">
      <rect id="Rectangle_3098" data-name="Rectangle 3098" width="3.943" height="3.943" fill="none"/>
    </clipPath>
    <clipPath id="clip-path-4">
      <rect id="Rectangle_3099" data-name="Rectangle 3099" width="2.19" height="3.943" fill="none"/>
    </clipPath>
    <clipPath id="clip-path-5">
      <rect id="Rectangle_3100" data-name="Rectangle 3100" width="8.82" height="2.882" fill="none"/>
    </clipPath>
    <clipPath id="clip-path-6">
      <rect id="Rectangle_3101" data-name="Rectangle 3101" width="7.253" height="7.372" fill="none"/>
    </clipPath>
    <clipPath id="clip-path-7">
      <rect id="Rectangle_3102" data-name="Rectangle 3102" width="3.309" height="10.815" fill="none"/>
    </clipPath>
    <clipPath id="clip-path-8">
      <rect id="Rectangle_3103" data-name="Rectangle 3103" width="9.636" height="4.783" fill="none"/>
    </clipPath>
    <clipPath id="clip-path-9">
      <rect id="Rectangle_3104" data-name="Rectangle 3104" width="19.761" height="9.987" fill="none"/>
    </clipPath>
    <clipPath id="clip-path-10">
      <rect id="Rectangle_3105" data-name="Rectangle 3105" width="14.356" height="13.102" fill="none"/>
    </clipPath>
    <clipPath id="clip-path-11">
      <rect id="Rectangle_3106" data-name="Rectangle 3106" width="3.125" height="19.669" fill="none"/>
    </clipPath>
    <clipPath id="clip-path-12">
      <rect id="Rectangle_3107" data-name="Rectangle 3107" width="7.796" height="3.113" fill="none"/>
    </clipPath>
    <clipPath id="clip-path-13">
      <rect id="Rectangle_3108" data-name="Rectangle 3108" width="3.969" height="3.969" fill="none"/>
    </clipPath>
    <clipPath id="clip-path-14">
      <rect id="Rectangle_3109" data-name="Rectangle 3109" width="2.005" height="3.846" fill="none"/>
    </clipPath>
    <clipPath id="clip-path-15">
      <rect id="Rectangle_3111" data-name="Rectangle 3111" width="24.148" height="18.703" fill="none"/>
    </clipPath>
    <clipPath id="clip-path-16">
      <rect id="Rectangle_3112" data-name="Rectangle 3112" width="4.717" height="2.53" fill="none"/>
    </clipPath>
    <clipPath id="clip-path-17">
      <rect id="Rectangle_3113" data-name="Rectangle 3113" width="17.921" height="8.383" fill="none"/>
    </clipPath>
    <clipPath id="clip-path-18">
      <rect id="Rectangle_3114" data-name="Rectangle 3114" width="6.47" height="2.857" fill="none"/>
    </clipPath>
    <clipPath id="clip-path-19">
      <rect id="Rectangle_3115" data-name="Rectangle 3115" width="13.14" height="37.13" fill="none"/>
    </clipPath>
    <clipPath id="clip-path-20">
      <rect id="Rectangle_3116" data-name="Rectangle 3116" width="11.002" height="38.636" fill="none"/>
    </clipPath>
    <clipPath id="clip-path-21">
      <rect id="Rectangle_3117" data-name="Rectangle 3117" width="4.406" height="20.931" fill="none"/>
    </clipPath>
    <clipPath id="clip-path-22">
      <rect id="Rectangle_3118" data-name="Rectangle 3118" width="2.755" height="4.059" fill="none"/>
    </clipPath>
    <clipPath id="clip-path-23">
      <rect id="Rectangle_3119" data-name="Rectangle 3119" width="4.056" height="4.056" fill="none"/>
    </clipPath>
  </defs>
  <g id="Group_8012" data-name="Group 8012" transform="translate(-5211.729 -4031.545)">
    <g id="Group_7945" data-name="Group 7945" transform="translate(5222.24 4046.984)" opacity="0.6">
      <g id="Group_7944" data-name="Group 7944" transform="translate(0 0)">
        <g id="Group_7943" data-name="Group 7943" clip-path="url(#clip-path)">
          <path id="Path_4444" data-name="Path 4444" d="M1089.541,971.325l.976,0,.877,0h.21s-.05.6-.032,1.4a2.587,2.587,0,0,0,.415,1.4,3.135,3.135,0,0,0,.37.738.174.174,0,0,1-.093.265c-.321.048-.6.1-.852.148-.542.235-.737.429-.877,0a2.209,2.209,0,0,1-.261-.568c-.056-.164-.109-.36-.16-.577a7.576,7.576,0,0,1-.432-1.4c-.091-.8-.141-1.4-.141-1.4" transform="translate(-1006.075 -872.229)" fill="#fbc343"/>
          <path id="Path_4445" data-name="Path 4445" d="M1077.614,853.993l.454.864.172.328.1.186s.5-.326,1.218-.692a.819.819,0,0,1,.76.058,3.125,3.125,0,0,1,.824-.023.175.175,0,0,0,.189-.208c-.108-.306-.2-.579-.27-.822.1-.313.23-.477-.174-.328a2.185,2.185,0,0,0-.623.038c-.171.028-.368.074-.583.132a2.417,2.417,0,0,0-.768-.073c-.745.3-1.3.539-1.3.539" transform="translate(-995.862 -771.179)" fill="#9490e6"/>
          <path id="Path_4446" data-name="Path 4446" d="M663.315,1068.507l.919.329,1.339.479.2.071s-.238.548-.481,1.315a5.821,5.821,0,0,0-.3,2.2,3.231,3.231,0,0,0,.11.825.172.172,0,0,1-.173.219c-.317-.064-.6-.112-.848-.151-.9-.076-1.264,0-1.338-.481a2.257,2.257,0,0,1-.063-.627c0-.174.013-.378.035-.6a17.067,17.067,0,0,1,.288-2.2c.171-.786.318-1.373.318-1.373" transform="translate(-640.565 -955.451)" fill="#8cbfbe"/>
          <path id="Path_4447" data-name="Path 4447" d="M592.016,824.752l-.6.769-.723.926-.13.166s.49.341,1.1.868a3.557,3.557,0,0,1,1.015,1.382,3.279,3.279,0,0,1,.342.764.17.17,0,0,0,.261.1c.233-.223.445-.414.635-.579.627-.424.937-.507.722-.927a2.285,2.285,0,0,0-.277-.569c-.092-.149-.21-.316-.346-.495a10.433,10.433,0,0,0-1-1.4c-.558-.581-.991-1-.991-1" transform="translate(-578.818 -746.733)" fill="#708cd5"/>
          <path id="Path_4448" data-name="Path 4448" d="M856.936,490.52l.962.162.682.115.208.035s-.144.58-.256,1.377a1.791,1.791,0,0,0,.23,1.17,3.189,3.189,0,0,0,.247.792.173.173,0,0,1-.134.246c-.324-.008-.61-.005-.863,0-.459.159-.641.324-.682-.116a2.233,2.233,0,0,1-.167-.6c-.029-.171-.05-.374-.065-.6a5.243,5.243,0,0,1-.246-1.173c.038-.8.085-1.405.085-1.405" transform="translate(-806.831 -460.542)" fill="#fbc343"/>
          <path id="Path_4449" data-name="Path 4449" d="M777.6,586.158l-.962.162-.682.115-.208.035s.144.58.256,1.377a1.791,1.791,0,0,1-.23,1.17,3.185,3.185,0,0,1-.247.792.173.173,0,0,0,.134.245c.324-.008.61-.005.863,0,.459.159.641.324.682-.116a2.233,2.233,0,0,0,.167-.6c.029-.171.05-.374.065-.6a5.242,5.242,0,0,0,.246-1.173c-.038-.8-.085-1.405-.085-1.405" transform="translate(-737.18 -542.434)" fill="#fbc343"/>
          <path id="Path_4450" data-name="Path 4450" d="M1225.04,420.783l-.96.173-.358.065-.207.037s.15.579.27,1.374a.812.812,0,0,1-.3.693,3.2,3.2,0,0,1-.238.795.173.173,0,0,0,.137.244c.323-.011.609-.012.863-.009.26.189.372.365.357-.066a2.23,2.23,0,0,0,.16-.607c.027-.172.046-.374.059-.6a2.4,2.4,0,0,0,.314-.7c-.046-.8-.1-1.4-.1-1.4" transform="translate(-1120.552 -400.829)" fill="#fbc343"/>
          <path id="Path_4451" data-name="Path 4451" d="M1474.722,420.159l.975.029.432.013.21.006s-.069.594-.078,1.4a.97.97,0,0,0,.388.75,3.157,3.157,0,0,0,.346.751.174.174,0,0,1-.1.261c-.322.037-.606.078-.856.118-.274.224-.376.415-.432-.014a2.208,2.208,0,0,1-.242-.577c-.051-.166-.1-.363-.141-.582a2.854,2.854,0,0,1-.4-.75c-.065-.8-.1-1.4-.1-1.4" transform="translate(-1335.892 -400.295)" fill="#ee6f57"/>
          <path id="Path_4452" data-name="Path 4452" d="M1319.243,525.793l.182-.959.1-.544.039-.207s.576.162,1.368.3a1.314,1.314,0,0,0,.979-.231,3.157,3.157,0,0,0,.8-.223.174.174,0,0,1,.242.142c-.015.324-.019.61-.018.864.164.38.331.538-.1.544a2.2,2.2,0,0,1-.607.148c-.172.024-.374.039-.6.047a3.841,3.841,0,0,1-.982.247c-.8-.062-1.4-.128-1.4-.128" transform="translate(-1202.761 -489.136)" fill="#8cbfbe"/>
          <path id="Path_4453" data-name="Path 4453" d="M976.042,608.925l-.945-.245-.786-.2-.2-.053s-.108.588-.336,1.359a2.268,2.268,0,0,1-.738,1.136,3.205,3.205,0,0,1-.552.621.172.172,0,0,0,.021.278c.3.125.558.244.787.352.425.35.549.582.786.2a2.247,2.247,0,0,0,.4-.484c.1-.144.2-.32.306-.517a6.632,6.632,0,0,0,.755-1.131c.3-.747.5-1.315.5-1.315" transform="translate(-905.789 -561.499)" fill="#8cbfbe"/>
          <path id="Path_4454" data-name="Path 4454" d="M1664.034,481.523l-.326.92-.336.947-.07.2s-.54-.261-1.3-.533a2.334,2.334,0,0,0-1.381-.087,3.067,3.067,0,0,0-.815.083.177.177,0,0,1-.215-.183c.064-.319.112-.6.15-.854-.01-.669-.115-.949.337-.946a2.151,2.151,0,0,1,.618-.042c.172.006.373.026.593.057a6.824,6.824,0,0,1,1.386.071c.776.2,1.354.37,1.354.37" transform="translate(-1494.19 -452.409)" fill="#fbc343"/>
          <path id="Path_4455" data-name="Path 4455" d="M1227.676,709.461l-.326.92-.335.946-.07.2s-.54-.261-1.3-.533a2.334,2.334,0,0,0-1.381-.087,3.072,3.072,0,0,0-.815.083.177.177,0,0,1-.215-.183c.064-.319.112-.6.15-.854-.009-.669-.115-.949.337-.946a2.152,2.152,0,0,1,.619-.042c.172.006.373.026.593.057a6.826,6.826,0,0,1,1.386.071c.776.2,1.354.37,1.354.37" transform="translate(-1120.552 -647.584)" fill="#ee6f57"/>
          <path id="Path_4456" data-name="Path 4456" d="M1914.081,645.837l-.326.92-.335.947-.071.2s-.54-.261-1.3-.533a2.333,2.333,0,0,0-1.381-.087,3.067,3.067,0,0,0-.815.083.177.177,0,0,1-.216-.183c.064-.319.112-.6.151-.854-.01-.669-.115-.949.337-.946a2.151,2.151,0,0,1,.619-.042c.172.006.373.026.593.057a6.822,6.822,0,0,1,1.386.071c.775.2,1.354.37,1.354.37" transform="translate(-1708.296 -593.105)" fill="#ee6f57"/>
          <path id="Path_4457" data-name="Path 4457" d="M1578.4,686.689l.761-.61.8-.645.164-.132s.317.51.809,1.145a2.908,2.908,0,0,0,1.227.957,3.026,3.026,0,0,0,.73.364.178.178,0,0,1,.085.271c-.223.238-.413.454-.579.648-.359.586-.423.885-.806.644a2.13,2.13,0,0,1-.543-.294c-.141-.1-.3-.221-.469-.365a8.479,8.479,0,0,1-1.24-.946c-.547-.584-.944-1.037-.944-1.037" transform="translate(-1424.665 -627.327)" fill="#d3d3d3"/>
          <path id="Path_4458" data-name="Path 4458" d="M1560.618,433.714l-.974.067-.593.041-.21.014s.091.591.129,1.394a1.447,1.447,0,0,1-.344,1,3.171,3.171,0,0,1-.318.764.174.174,0,0,0,.111.257c.323.024.608.054.86.085.383.207.528.39.593-.042a2.209,2.209,0,0,0,.221-.586c.044-.168.084-.367.119-.587a4.225,4.225,0,0,0,.362-1.005c.036-.8.044-1.406.044-1.406" transform="translate(-1407.443 -411.901)" fill="#9490e6"/>
          <path id="Path_4459" data-name="Path 4459" d="M1464.723,283.043l.866-.841.063-.061.183-.178s.482.6,1.206,1.336c.039.015.152-.026.449-.261a4.091,4.091,0,0,0,.979.371.228.228,0,0,1,.15.327c-.244.319-.45.609-.626.865l-.064.06a2.85,2.85,0,0,1-.734-.307c-.194-.105-.415-.242-.65-.4a3.368,3.368,0,0,1-.464.276c-.785-.667-1.359-1.187-1.359-1.187" transform="translate(-1327.33 -281.963)" fill="#fbc343"/>
          <path id="Path_4460" data-name="Path 4460" d="M1672.682,352.767l-.5.84-.376.636-.107.181s-.477-.364-1.163-.783a1.445,1.445,0,0,0-1.052-.183,3.033,3.033,0,0,0-.812-.081.178.178,0,0,1-.175-.223c.124-.3.226-.57.313-.811.037-.519-.043-.764.377-.635a2.134,2.134,0,0,1,.613.082c.167.04.359.1.568.174a4.215,4.215,0,0,1,1.061.168c.719.352,1.251.634,1.251.634" transform="translate(-1501.808 -341.654)" fill="#708cd5"/>
          <path id="Path_4461" data-name="Path 4461" d="M2160.75,425.362l-1.116-.806-.213-.154-.24-.174s-.411.74-1.061,1.669c-.089.1-.283.159-.705.015a4.275,4.275,0,0,1-1,.563.251.251,0,0,0-.1.387c.33.319.614.61.861.872-.052.367-.157.627.214.152a3,3,0,0,0,.745-.452c.193-.146.407-.332.636-.546a2.14,2.14,0,0,0,.725,0c.73-.861,1.259-1.526,1.259-1.526" transform="translate(-1919.463 -403.779)" fill="#ee6f57"/>
          <path id="Path_4462" data-name="Path 4462" d="M2016.392,491.731l.889-.4.453-.205.192-.087s.185.571.511,1.305a1.038,1.038,0,0,0,.682.563,3.06,3.06,0,0,0,.622.53.177.177,0,0,1,.017.282c-.274.175-.512.337-.72.485-.19.341-.216.565-.453.2a2.139,2.139,0,0,1-.457-.417c-.114-.128-.239-.287-.369-.467a3.034,3.034,0,0,1-.7-.556c-.391-.7-.669-1.234-.669-1.234" transform="translate(-1799.703 -460.984)" fill="#8cbfbe"/>
          <path id="Path_4463" data-name="Path 4463" d="M1999.51,643.193l-.972-.091-.56-.052-.21-.02s0,.6-.084,1.4a1.327,1.327,0,0,1-.488.888,3.121,3.121,0,0,1-.429.7.175.175,0,0,0,.071.272c.315.076.592.152.836.223.327.264.435.468.56.051a2.193,2.193,0,0,0,.307-.543c.069-.158.139-.349.207-.561a3.878,3.878,0,0,0,.5-.887c.157-.787.256-1.382.256-1.382" transform="translate(-1782.868 -591.131)" fill="#fbc343"/>
          <path id="Path_4464" data-name="Path 4464" d="M1867.616,797.026l.936.277.557.165.2.06s-.209.56-.411,1.338a1.378,1.378,0,0,0,.141,1.021,3.216,3.216,0,0,0,.154.817.172.172,0,0,1-.161.228c-.32-.047-.6-.079-.856-.1-.407.122-.583.271-.556-.166a2.253,2.253,0,0,1-.1-.622c-.009-.174-.007-.378,0-.6a4.039,4.039,0,0,1-.158-1.025c.129-.794.245-1.388.245-1.388" transform="translate(-1672.103 -722.992)" fill="#8cbfbe"/>
          <path id="Path_4465" data-name="Path 4465" d="M1753.562,874.408l.942-.256.833-.226.2-.055s.1.592.307,1.367a2.433,2.433,0,0,0,.728,1.211,3.075,3.075,0,0,0,.536.621.176.176,0,0,1-.026.281c-.3.129-.558.251-.787.363-.459.366-.6.6-.833.225a2.155,2.155,0,0,1-.389-.484c-.094-.145-.192-.321-.294-.519a7.105,7.105,0,0,1-.745-1.207c-.281-.751-.474-1.322-.474-1.322" transform="translate(-1574.652 -788.792)" fill="#fbc343"/>
          <path id="Path_4466" data-name="Path 4466" d="M2351.474,731.548l-.842-.494-1.007-.59-.181-.107s-.241.549-.639,1.248a3.8,3.8,0,0,1-1.194,1.33,3.048,3.048,0,0,1-.672.464.178.178,0,0,0-.046.28c.255.2.474.389.667.557.512.57.644.871,1.008.589a2.134,2.134,0,0,0,.5-.368c.126-.116.266-.262.413-.427a11.144,11.144,0,0,0,1.209-1.321c.459-.656.789-1.16.789-1.16" transform="translate(-2082.656 -665.906)" fill="#ee6f57"/>
          <path id="Path_4467" data-name="Path 4467" d="M2396.18,977.525l.808-.547,1.1-.747.174-.118s.276.533.717,1.205a4.731,4.731,0,0,0,1.393,1.439,3.032,3.032,0,0,0,.7.42.178.178,0,0,1,.063.276c-.241.219-.448.419-.629.6-.559.659-.7.989-1.1.746a2.132,2.132,0,0,1-.519-.336c-.133-.108-.281-.244-.439-.4a13.831,13.831,0,0,1-1.407-1.429c-.5-.625-.86-1.108-.86-1.108" transform="translate(-2124.902 -876.338)" fill="#fbc343"/>
          <path id="Path_4468" data-name="Path 4468" d="M2248.523,829.3l.786-.578,1.01-.742.17-.125s.3.523.761,1.177a4.183,4.183,0,0,0,1.375,1.281,3.025,3.025,0,0,0,.714.393.179.179,0,0,1,.074.274c-.232.228-.432.436-.605.623-.494.652-.61.977-1.01.741a2.116,2.116,0,0,1-.531-.316c-.137-.1-.291-.233-.454-.383a12.232,12.232,0,0,1-1.388-1.271c-.522-.606-.9-1.075-.9-1.075" transform="translate(-1998.469 -749.393)" fill="#8cbfbe"/>
          <path id="Path_4469" data-name="Path 4469" d="M995.715,333.448l1.15.492.184.079.248.106s-.346.683-.712,1.647c-.026.115.024.3.341.559A4.152,4.152,0,0,0,997,337.4a.22.22,0,0,1-.237.267c-.4-.107-.757-.19-1.073-.259-.225.228-.358.441-.183-.08a2.9,2.9,0,0,1-.034-.808c.013-.223.045-.483.09-.767a2.107,2.107,0,0,1-.361-.568c.277-.994.508-1.735.508-1.735" transform="translate(-925.3 -326.047)" fill="#fbc343"/>
          <path id="Path_4470" data-name="Path 4470" d="M1054.135,420.783l1.083.612.339.192.233.132s-.413.639-.876,1.554a.838.838,0,0,0,.157.817,4.151,4.151,0,0,0-.034,1.064c.017.152-.139.287-.262.239-.384-.149-.726-.27-1.031-.372-.349.143-.539.318-.339-.193a2.913,2.913,0,0,1,.052-.8c.037-.219.1-.473.17-.75a2.549,2.549,0,0,1-.176-.828c.378-.954.684-1.662.684-1.662" transform="translate(-975.064 -400.829)" fill="#708cd5"/>
          <path id="Path_4471" data-name="Path 4471" d="M2231.829,558.244l.774-.594.354-.272.167-.128s.306.516.786,1.161a.832.832,0,0,0,.717.3,3.032,3.032,0,0,0,.722.379.178.178,0,0,1,.079.272c-.228.233-.423.445-.592.636-.084.358-.051.576-.355.271a2.119,2.119,0,0,1-.537-.3c-.139-.1-.3-.227-.461-.374a2.435,2.435,0,0,1-.73-.288c-.534-.6-.923-1.056-.923-1.056" transform="translate(-1984.175 -517.68)" fill="#708cd5"/>
          <path id="Path_4472" data-name="Path 4472" d="M1378.168,350.331l1.379.072.215.011.3.016s-.115.839-.151,1.975c.014.14.131.324.555.486a4.472,4.472,0,0,0,.467,1.073.246.246,0,0,1-.152.366c-.456.042-.251.206-.606.256-.15.322-.819.477-.823-.129a3.128,3.128,0,0,1-.326-.823c-.067-.236-.127-.517-.182-.828a2.269,2.269,0,0,1-.579-.488c-.068-1.134-.093-1.988-.093-1.988" transform="translate(-1253.216 -340.504)" fill="#8cbfbe"/>
          <path id="Path_4473" data-name="Path 4473" d="M1526.7,347.807l-1.364-.173-.188-.024-.294-.037s-.026.843-.178,1.966c-.035.123-.178.267-.62.339a4.387,4.387,0,0,1-.635.971.247.247,0,0,0,.088.387c.441.122.641.181.982.292l.375.082a3.07,3.07,0,0,0,.456-.75c.1-.22.21-.485.316-.781a2.2,2.2,0,0,0,.644-.336c.255-1.1.42-1.935.42-1.935" transform="translate(-1377.54 -338.141)" fill="#8cbfbe"/>
          <path id="Path_4474" data-name="Path 4474" d="M1193.448,542.681l-.37.9-.208.507-.08.195s.569.183,1.3.509a1.3,1.3,0,0,1,.678.73,3.189,3.189,0,0,1,.543.627.173.173,0,0,0,.279.015c.164-.279.317-.521.456-.733.343-.224.567-.262.207-.508a2.233,2.233,0,0,0-.426-.461c-.13-.115-.291-.24-.473-.37a3.8,3.8,0,0,0-.672-.745c-.7-.391-1.239-.669-1.239-.669" transform="translate(-1094.484 -505.206)" fill="#9490e6"/>
          <path id="Path_4475" data-name="Path 4475" d="M1663,587.762l-.37.9-.208.507-.08.195s.569.183,1.3.509a1.3,1.3,0,0,1,.678.73,3.189,3.189,0,0,1,.543.627.173.173,0,0,0,.279.015c.164-.279.317-.521.456-.733.343-.224.567-.262.207-.508a2.233,2.233,0,0,0-.426-.461c-.13-.115-.291-.24-.473-.37a3.79,3.79,0,0,0-.672-.745c-.7-.391-1.239-.669-1.239-.669" transform="translate(-1496.545 -543.807)" fill="#ee6f57"/>
          <path id="Path_4476" data-name="Path 4476" d="M677.781,538l.91-.353,1.054-.409.2-.076s.173.572.484,1.314a3.954,3.954,0,0,0,1.037,1.493,3.185,3.185,0,0,0,.617.554.173.173,0,0,1,.01.28c-.282.159-.527.307-.741.442-.567.469-.73.74-1.054.408a2.228,2.228,0,0,1-.452-.435c-.112-.132-.234-.3-.361-.479a11.573,11.573,0,0,1-1.053-1.486c-.378-.709-.646-1.251-.646-1.251" transform="translate(-653.5 -500.476)" fill="#708cd5"/>
          <path id="Path_4477" data-name="Path 4477" d="M2139.824,531.375l.741-.635.224-.192.16-.137s.333.5.846,1.118a.552.552,0,0,0,.587.08,3.028,3.028,0,0,0,.741.339.179.179,0,0,1,.094.268c-.215.245-.4.467-.557.667.006.3.077.495-.225.191a2.126,2.126,0,0,1-.552-.276c-.145-.092-.307-.211-.481-.349a1.69,1.69,0,0,1-.6-.068c-.566-.566-.978-1.006-.978-1.006" transform="translate(-1905.394 -494.699)" fill="#fbc343"/>
          <path id="Path_4478" data-name="Path 4478" d="M510.752,950.556l.812.541,1.455.969.175.117s-.358.477-.772,1.168a8.116,8.116,0,0,0-1.023,2.418,3.265,3.265,0,0,0-.086.832.17.17,0,0,1-.218.172c-.292-.138-.553-.253-.786-.35-1.025-.4-1.451-.455-1.454-.97a2.285,2.285,0,0,1,.085-.627c.041-.17.1-.366.174-.578a23.793,23.793,0,0,1,1.009-2.428c.349-.726.628-1.264.628-1.264" transform="translate(-508.855 -854.454)" fill="#fbc343"/>
        </g>
      </g>
    </g>
    <path id="Path_4479" data-name="Path 4479" d="M751.587,655.285c-4.265,3.472-22.126,10.051-22.35,10.2-.867.565-1.351,1.537-2.232,2.12a7.179,7.179,0,0,1-3.286,1.16c-4.1.376-7.664-2.637-9.05-6.324-1.441-3.834-.274-9.192,3.792-10.954a13.209,13.209,0,0,1,5.5-1.267c-2.315-18.23,6.655-21.482,8.1-21.552,4.162-5.424,10.718-1.976,11.349-.888,3.53-.868,6.516,6.675,2.61,8.84-.029.017-.058.029-.087.046.162,4.23.677,7.332,4.572,8.854,4.265,1.667,5.353,6.3,1.082,9.769" transform="translate(4537.661 3470.699)" fill="#102048"/>
    <path id="Path_4480" data-name="Path 4480" d="M628.679,556.635l-5.6,1.614c-2.064-1.832-2.656-3.367-3.528-5.934-.342-1.006-1.7-5.044-.606-5.37.372-.111,1.039.321,1.42.98a11.7,11.7,0,0,1-.541-3c-.017-.52.119-.878.477-1.015.286-.111.6.141.9.538,0-.086.193-1.1.586-1.243.412-.154.854.335,1.283,1.184q.086.163.165.346a2.325,2.325,0,0,1,.028-.284.714.714,0,0,1,.442-.539c.737-.281,1.325,1.227,1.522,1.68a45.619,45.619,0,0,1,2.155,5.375c.257.885.629,1.754.834,2.652a16.418,16.418,0,0,1,.47,3.014" transform="translate(4619.479 3541.352)" fill="#f9b384"/>
    <path id="Path_4481" data-name="Path 4481" d="M673.157,571.351c.307,2.21.116,4.062-.428,4.138s-1.232-1.655-1.539-3.865-.511-3.962.428-4.138c.755-.142,1.232,1.655,1.539,3.865" transform="translate(4574.604 3520.545)" fill="#f9b384"/>
    <path id="Path_4482" data-name="Path 4482" d="M657.179,639.865l-.989,5.4h-6.365l-.9-1.167-4.847-6.25a11.338,11.338,0,0,1-2.058-4.272l-2.432-11.142,6.784-1.765,3.042,9.464a11.317,11.317,0,0,0,2.708,4.542Z" transform="translate(4601.445 3475.001)" fill="#f9b384"/>
    <path id="Path_4483" data-name="Path 4483" d="M1059.151,514.109l5.164,1.645a16.1,16.1,0,0,0,2.413-7.591c.105-1.007.514-5.049-.572-5.121-.369-.025-.9.518-1.114,1.212a11.149,11.149,0,0,0-.13-2.9c-.094-.487-.3-.791-.658-.843-.289-.043-.531.258-.718.689-.018-.08-.411-.98-.808-1.032-.415-.056-.723.492-.943,1.372q-.046.17-.08.357a2.211,2.211,0,0,0-.087-.258.681.681,0,0,0-.525-.408c-.745-.105-.973,1.421-1.06,1.883a43.486,43.486,0,0,0-.868,5.453c-.052.877-.071,1.756-.072,2.634a16.735,16.735,0,0,0,.057,2.909" transform="translate(4242.265 3578.186)" fill="#f9b384"/>
    <path id="Path_4484" data-name="Path 4484" d="M1050.789,534.556c.506,2.066,1.328,3.64,1.836,3.516s.509-1.9,0-3.966-.942-3.69-1.836-3.516c-.719.14-.509,1.9,0,3.966" transform="translate(4249.742 3552.143)" fill="#f9b384"/>
    <path id="Path_4485" data-name="Path 4485" d="M1005.253,597.5l3.462-5.308a8.206,8.206,0,0,0,1-2.176l3.3-13.067,7,.571-2.961,14.021a8.209,8.209,0,0,1-.523,1.809l-3.347,8-4.534,1.994Z" transform="translate(4288.338 3512.434)" fill="#f9b384"/>
    <path id="Path_4486" data-name="Path 4486" d="M905.059,1231.957l-.287,3.7-2.248,29.115-.1,1.363-6.934-1.081v-1.368l-.017-29.65a23.5,23.5,0,0,0-.638-5.451c-2-8.371-7.963-33.525-7.561-34.169l13.212-1.351,4.295,31.777.1.73a29.99,29.99,0,0,1,.184,6.382" transform="translate(4389.379 2984.876)" fill="#f9b384"/>
    <path id="Path_4487" data-name="Path 4487" d="M942.458,1690.463a1.537,1.537,0,0,0,1.753,1.621c1.313,0,13.426.042,13.558,0a3.511,3.511,0,0,0-.953-2.251c-.683-.7-6.551-4.062-7.039-4.369-3.792,1.981-7.045-1.089-7.045-1.089a53.486,53.486,0,0,0-.274,6.089" transform="translate(4342.132 2564.189)" fill="#6f3428"/>
    <path id="Path_4488" data-name="Path 4488" d="M681.534,1197.152s-5.658,22.929-12.1,31.478a10.544,10.544,0,0,1-2.5,2.5c-1.874,1.219-4.272.7-7.135-1.2-4.864-3.2-11.068-10.332-18.335-19.468-.322-.4-.638-.8-.96-1.207l2.7-4.772,3.6,1.236,14.477,12.505,5.5-22.716Z" transform="translate(4600.657 2982.787)" fill="#f9b384"/>
    <path id="Path_4489" data-name="Path 4489" d="M587.425,1235.645a1.537,1.537,0,0,0-2.366.32c-.836,1.013-8.583,10.324-8.634,10.453a3.512,3.512,0,0,0,2.343.7c.978-.078,7.3-2.464,7.851-2.644.888-4.185,5.327-4.738,5.327-4.738a53.475,53.475,0,0,0-4.52-4.089" transform="translate(4655.528 2948.773)" fill="#6f3428"/>
    <path id="Path_4490" data-name="Path 4490" d="M879.451,1243.656c.423-1.523.879-3.036,1.343-4.546s.952-3.012,1.427-4.518l1.5-4.495c.517-1.493,1.038-2.984,1.6-4.462l.214.07c-.417,1.525-.875,3.037-1.335,4.548l-1.435,4.516c-.5,1.5-.986,3-1.507,4.492s-1.036,2.985-1.591,4.465Z" transform="translate(4396.058 2956.99)" fill="#e28b6d"/>
    <path id="Path_4491" data-name="Path 4491" d="M775.932,1034.345c-23.728,12.321-38.05-.684-41.666-6.158,5.123-5.629,8.319-13.459,9.975-18.45.96-2.9,1.4-4.847,1.4-4.847l20.071-1.6,2.219-.178s.029.109.086.322c.155.6.529,2.024,1.029,3.938,2.1,8.009,6.445,24.706,6.882,26.977" transform="translate(4520.374 3147.532)" fill="#1f3c88"/>
    <g id="Group_7948" data-name="Group 7948" transform="translate(5264.615 4150.818)" opacity="0.6">
      <g id="Group_7947" data-name="Group 7947" transform="translate(0 0)">
        <g id="Group_7946" data-name="Group 7946" clip-path="url(#clip-path-2)">
          <path id="Path_4492" data-name="Path 4492" d="M828.475,1008.43c-3.938,3.082-13.339,4.64-24.809,2.369.96-2.9,1.4-4.847,1.4-4.847l20.071-1.6,2.306.144c.155.6.529,2.024,1.029,3.938" transform="translate(-803.666 -1004.348)" fill="#102048"/>
        </g>
      </g>
    </g>
    <path id="Path_4493" data-name="Path 4493" d="M761.082,723.76c-.874,1.828-3.145,6.135-5.767,10.562a34.788,34.788,0,0,0-4.071,11.022c-1.2,5.721-3.042,12.241-1.259,15.765,1.529,3.013-5.014,3.76-12.246,4.145-5.755.3-15.334.282-13.6-2.892,3.225-5.9-.3-13.609-1.253-16.691-1.276-4.128-6.537-9.912-9.671-13.1-1.409-1.426-2.386-2.334-2.386-2.334s5.5-.977,7.354-5.4c1.23,1.2,5.485,4.973,7.848,7.066a4.471,4.471,0,0,0,3.737,1.046l4.473-.793H739c1.713.236,2.99.385,3.933.489a3.958,3.958,0,0,0,3.823-1.932l6.393-10.809s4.312,4.191,7.934,3.852" transform="translate(4540.445 3390.026)" fill="#ee6f57"/>
    <path id="Path_4494" data-name="Path 4494" d="M861.234,772.126H860.8a4.016,4.016,0,0,1-4.016-4.016v-7.517h8.464v7.517a4.016,4.016,0,0,1-4.016,4.016" transform="translate(4415.465 3355.188)" fill="#f9b384"/>
    <path id="Path_4495" data-name="Path 4495" d="M856.786,773.763s5.107,7.275,8.464-.728c.123.022-8.464.728-8.464.728" transform="translate(4415.465 3344.535)" fill="#e28b6d"/>
    <path id="Path_4496" data-name="Path 4496" d="M840.08,664.418a22.225,22.225,0,0,1,.069,3.927,7.178,7.178,0,0,1-.661,2.3c-2.214,4.611-8.63,4.933-11.867-1.541a18.479,18.479,0,0,1-1.478-11.142l7.221-3.133,6.963,3.409a25.88,25.88,0,0,0-.247,6.181" transform="translate(4441.95 3445.751)" fill="#f9b384"/>
    <path id="Path_4497" data-name="Path 4497" d="M829.559,651.546c-5.672.969-8.666-.55-11.343-3.66-1.591,1.3-1.182,2.327-1.085,4.268.072,1.444-.289,2.966-3.906,2.966l-1.483-5.208,1.664-3.834,7.245-3,8.526,1.375Z" transform="translate(4454.034 3455.815)" fill="#102048"/>
    <path id="Path_4498" data-name="Path 4498" d="M869.109,718.758c.021.415-.188.763-.468.777s-.523-.311-.544-.726.188-.763.468-.777.523.311.544.726" transform="translate(4405.78 3391.632)" fill="#0c1836"/>
    <path id="Path_4499" data-name="Path 4499" d="M860.962,709.752a1.256,1.256,0,0,0-.626-.331,1.4,1.4,0,0,0-.687.037,2.2,2.2,0,0,0-.642.32,4.329,4.329,0,0,0-.575.512l-.156-.093a1.959,1.959,0,0,1,.47-.729,1.764,1.764,0,0,1,.779-.452,1.546,1.546,0,0,1,.921.029,1.143,1.143,0,0,1,.666.606Z" transform="translate(4414.188 3399.399)" fill="#0c1836"/>
    <path id="Path_4500" data-name="Path 4500" d="M900.186,715.86c.021.415.264.74.544.726s.489-.362.468-.777-.264-.74-.544-.726-.489.362-.468.777" transform="translate(4378.304 3394.158)" fill="#0c1836"/>
    <path id="Path_4501" data-name="Path 4501" d="M895.772,707.049a1.689,1.689,0,0,1,.444-.609,1.334,1.334,0,0,1,.751-.314,1.718,1.718,0,0,1,1.365.633l-.106.147c-.225-.078-.426-.179-.634-.233a1.813,1.813,0,0,0-.594-.089,1.171,1.171,0,0,0-.551.172,3.936,3.936,0,0,0-.529.4Z" transform="translate(4382.083 3401.828)" fill="#0c1836"/>
    <path id="Path_4502" data-name="Path 4502" d="M880.891,753.161l3.058-.416a1.569,1.569,0,0,1-3.058.416" transform="translate(4394.825 3361.908)" fill="#fff"/>
    <path id="Path_4503" data-name="Path 4503" d="M888.913,721.523a3.548,3.548,0,0,0,.205.946.856.856,0,0,0,.255.322l.205.137.1.071a.949.949,0,0,1,.126.111.847.847,0,0,1-1.15,1.242l.089-.15a.686.686,0,0,0,.766-.149.481.481,0,0,0-.03-.644.883.883,0,0,0-.168-.141l-.214-.16a1.038,1.038,0,0,1-.334-.5,2.324,2.324,0,0,1-.029-1.083Z" transform="translate(4388.173 3388.644)" fill="#e28b6d"/>
    <g id="Group_7951" data-name="Group 7951" transform="translate(5271.174 4111.838)" opacity="0.4">
      <g id="Group_7950" data-name="Group 7950" transform="translate(0 0)">
        <g id="Group_7949" data-name="Group 7949" clip-path="url(#clip-path-3)">
          <path id="Path_4504" data-name="Path 4504" d="M853.235,735.22a1.971,1.971,0,1,1-1.882-2.057,1.971,1.971,0,0,1,1.882,2.057" transform="translate(-849.294 -733.161)" fill="#fc8879"/>
        </g>
      </g>
    </g>
    <g id="Group_7954" data-name="Group 7954" transform="translate(5279.976 4110.167)" opacity="0.4">
      <g id="Group_7953" data-name="Group 7953" transform="translate(0 0)">
        <g id="Group_7952" data-name="Group 7952" clip-path="url(#clip-path-4)">
          <path id="Path_4505" data-name="Path 4505" d="M912.654,725.461a1.132,1.132,0,0,1-.241.011,1.971,1.971,0,0,1,.172-3.938,22.225,22.225,0,0,1,.069,3.927" transform="translate(-910.53 -721.532)" fill="#fc8879"/>
        </g>
      </g>
    </g>
    <path id="Path_4506" data-name="Path 4506" d="M822.1,723.386c-1.187-.981-2.483-1.119-3.051.06-.667,1.382,1.346,4.487,3.321,3.47a20.917,20.917,0,0,0-.269-3.53" transform="translate(4447.893 3387.716)" fill="#f9b384"/>
    <path id="Path_4507" data-name="Path 4507" d="M825.19,728.765a1.546,1.546,0,0,0-.656-.845.681.681,0,0,0-.916.12l-.1-.055a.672.672,0,0,1,.494-.432.955.955,0,0,1,.662.12,1.292,1.292,0,0,1,.625,1.073Z" transform="translate(4443.949 3383.494)" fill="#e28b6d"/>
    <g id="Group_7957" data-name="Group 7957" transform="translate(5272.251 4128.516)" opacity="0.4">
      <g id="Group_7956" data-name="Group 7956" transform="translate(0 0)">
        <g id="Group_7955" data-name="Group 7955" clip-path="url(#clip-path-5)">
          <path id="Path_4508" data-name="Path 4508" d="M856.786,849.547a7.635,7.635,0,0,0,4.5,1.372,6.268,6.268,0,0,0,2.232-.451,8.88,8.88,0,0,0,2.091-1.281,4.3,4.3,0,0,1-1.665,2.07,4.916,4.916,0,0,1-2.633.811,5.447,5.447,0,0,1-2.659-.636,4.04,4.04,0,0,1-1.863-1.886" transform="translate(-856.786 -849.188)" fill="#6f3428"/>
        </g>
      </g>
    </g>
    <g id="Group_7960" data-name="Group 7960" transform="translate(5281.071 4143.446)" opacity="0.4">
      <g id="Group_7959" data-name="Group 7959" transform="translate(0 0)">
        <g id="Group_7958" data-name="Group 7958" clip-path="url(#clip-path-6)">
          <path id="Path_4509" data-name="Path 4509" d="M918.15,960.435c.9-.317,1.786-.633,2.634-1.009a8.461,8.461,0,0,0,2.3-1.453,6.177,6.177,0,0,0,1.516-2.222,16.056,16.056,0,0,0,.8-2.688,8.7,8.7,0,0,1-.377,2.844,5.662,5.662,0,0,1-1.545,2.486,7.178,7.178,0,0,1-2.53,1.447,12.384,12.384,0,0,1-2.8.594" transform="translate(-918.15 -953.063)" fill="#6f3428"/>
        </g>
      </g>
    </g>
    <path id="Path_4510" data-name="Path 4510" d="M661.739,588.659a4.846,4.846,0,0,0-.655,1.881,2.448,2.448,0,0,0,.551,1.808l-.108.129a1.8,1.8,0,0,1-.706-.86,2.469,2.469,0,0,1-.163-1.115,3.3,3.3,0,0,1,.945-1.943Z" transform="translate(4583.409 3502.495)" fill="#e28b6d"/>
    <path id="Path_4511" data-name="Path 4511" d="M634.634,583.215a3.226,3.226,0,0,1,.906-.681,7.359,7.359,0,0,1,1.026-.45,10.629,10.629,0,0,1,1.069-.306,7.339,7.339,0,0,1,1.1-.164l.034.165c-.685.265-1.383.462-2.061.708-.345.107-.677.243-1.009.375a5.875,5.875,0,0,0-.951.478Z" transform="translate(4605.686 3508.442)" fill="#e28b6d"/>
    <path id="Path_4512" data-name="Path 4512" d="M1067.468,545.53a3.3,3.3,0,0,1,1.394,1.651,2.468,2.468,0,0,1,.116,1.121,1.8,1.8,0,0,1-.472,1.007l-.136-.1a2.449,2.449,0,0,0,.089-1.888,4.849,4.849,0,0,0-1.1-1.662Z" transform="translate(4235.157 3539.339)" fill="#e28b6d"/>
    <path id="Path_4513" data-name="Path 4513" d="M1075.635,540.69a5.879,5.879,0,0,0-1.026-.284c-.351-.065-.7-.134-1.062-.172-.713-.109-1.436-.167-2.16-.294v-.169a7.331,7.331,0,0,1,1.11-.053,10.594,10.594,0,0,1,1.108.092,7.378,7.378,0,0,1,1.093.242,3.229,3.229,0,0,1,1.021.492Z" transform="translate(4231.71 3544.317)" fill="#e28b6d"/>
    <g id="Group_7963" data-name="Group 7963" transform="translate(5291.22 4209.721)" opacity="0.4">
      <g id="Group_7962" data-name="Group 7962" transform="translate(0 0)">
        <g id="Group_7961" data-name="Group 7961" clip-path="url(#clip-path-7)">
          <path id="Path_4514" data-name="Path 4514" d="M991.976,1421.26l-.287,3.7c-4.5-5.169-3.266-8.526.006-10.815l.1.73a29.989,29.989,0,0,1,.184,6.382" transform="translate(-988.758 -1414.148)" fill="#fc8879"/>
        </g>
      </g>
    </g>
    <g id="Group_7966" data-name="Group 7966" transform="translate(5260.458 4209.787)" opacity="0.4">
      <g id="Group_7965" data-name="Group 7965" transform="translate(0 0)">
        <g id="Group_7964" data-name="Group 7964" clip-path="url(#clip-path-8)">
          <path id="Path_4515" data-name="Path 4515" d="M784.382,1416.233a10.547,10.547,0,0,1-2.5,2.5c-1.874,1.219-4.272.7-7.135-1.2,3.168-3.438,6.393-3.823,9.636-1.3" transform="translate(-774.746 -1414.602)" fill="#fc8879"/>
        </g>
      </g>
    </g>
    <path id="Path_4516" data-name="Path 4516" d="M2312.7,1561.425a2.331,2.331,0,0,1,.893,2.947c-.62,1.336-4.853,11.88-8.6,12.73-.676.153-1.23-.776-1.583-2.277-.263-1.082.066-8.746.066-9.4,4.2-2.441,3.263-7.214,3.217-7.435l0-.008a62.107,62.107,0,0,1,6.013,3.443" transform="translate(3176.863 2672.414)" fill="#ee6f57"/>
    <path id="Path_4517" data-name="Path 4517" d="M2268.944,1534.473l4.74,3.379,0,.008c.046.221.979,4.994-3.217,7.435l-5.708-4.885Z" transform="translate(3209.868 2692.543)" fill="#f9b384"/>
    <path id="Path_4518" data-name="Path 4518" d="M2081.163,1683.834a1.744,1.744,0,0,1-1.989,1.839c-1.49,0-15.234.048-15.385,0a3.984,3.984,0,0,1,1.082-2.554c.775-.8,7.434-4.609,7.987-4.958,4.3,2.248,7.843-1.088,8-1.244l.006-.006a62.1,62.1,0,0,1,.294,6.923" transform="translate(3381.952 2570.579)" fill="#ee6f57"/>
    <path id="Path_4519" data-name="Path 4519" d="M2135.221,1634.262l-.331,5.811-.006.006c-.162.156-3.7,3.492-8,1.244l1.088-7.434Z" transform="translate(3327.93 2607.417)" fill="#f9b384"/>
    <path id="Path_4520" data-name="Path 4520" d="M2172.75,1226.309l2.538,23.91a6.611,6.611,0,0,0,.919,2.727l9.929,16.395-7.642,11.238-12.941-18.75Z" transform="translate(3294.815 2956.413)" fill="#102048"/>
    <path id="Path_4521" data-name="Path 4521" d="M2126.436,1074.588a49.649,49.649,0,0,0-2.829,13.615l-3.812,56.931h-12.77l1.483-74.6.167-8.331,18.933-1.656a13.08,13.08,0,0,1,.661,2.852c.414,3.461-.4,7.239-1.834,11.188" transform="translate(3344.93 3098.348)" fill="#1f3c88"/>
    <path id="Path_4522" data-name="Path 4522" d="M2047.4,584.4a4.115,4.115,0,0,1-1.181-4.8,1.809,1.809,0,0,1,1.556-1.028,2.648,2.648,0,0,1-.221-3.479,2.731,2.731,0,0,1,1.136-1.2,4.21,4.21,0,0,1,2.865-.121,1.93,1.93,0,0,1,.691-1.8,3.687,3.687,0,0,1,1.805-1.088,3.265,3.265,0,0,1,3.109.719c.126.149.3.683.488.723.138.029.241-.12.318-.238a2.526,2.526,0,0,1,2.1-.951,2.686,2.686,0,0,1,1.893.567,1.392,1.392,0,0,1,.264,1.819,3.517,3.517,0,0,1,3.65.064,2.464,2.464,0,0,1,.619,3.382,2.042,2.042,0,0,1,1.634.84,3.88,3.88,0,0,1,.69,1.758,6.849,6.849,0,0,1-2.489,6.471,6.349,6.349,0,0,1-3.472,1.271,12.631,12.631,0,0,1-2.96-.311,27.532,27.532,0,0,1-5.094-1.285,13.793,13.793,0,0,1-3.312-1.869c-.4-.309-.587,1.368-1.126,1.442a3.759,3.759,0,0,1-2.959-.883" transform="translate(3397.291 3517.73)" fill="#6f3428"/>
    <path id="Path_4523" data-name="Path 4523" d="M1929.919,820.654l-4.486,5.065s-5.961-5.123-8.817-9.667c-.054-.1-.125-.189-.179-.288a12.771,12.771,0,0,1-.911-1.828c0-.017-.007-.026-.006-.035a.894.894,0,0,1,.27-.938c.356-.295.444-.079,1.119.527-.622-1.312-1.041-2.064-1.325-2.833-.211-.583-.188-1.038.167-1.324.283-.231.734-.062,1.211.28-.032-.1-.185-1.313.206-1.623.41-.326,1.09.065,1.889.868q.158.153.314.331a2.746,2.746,0,0,1-.072-.332.851.851,0,0,1,.3-.772c.731-.589,1.951.9,2.341,1.342a54.318,54.318,0,0,1,4.417,5.292c.617.907,1.2,1.837,1.761,2.779a20.882,20.882,0,0,1,1.8,3.156" transform="translate(3508.969 3314.702)" fill="#e28b6d"/>
    <path id="Path_4524" data-name="Path 4524" d="M1982.383,901.843s12.677,10.926,17.074,10.47,5.654-9.678,5.654-9.678l-18.242-5.856-4.909,1.765Z" transform="translate(3452.02 3238.578)" fill="#e28b6d"/>
    <path id="Path_4525" data-name="Path 4525" d="M2124.508,684.788v15.4h-8.641v-13.9Z" transform="translate(3337.361 3420.097)" fill="#f9b384"/>
    <path id="Path_4526" data-name="Path 4526" d="M2121.644,723.868a6.954,6.954,0,0,1-5.778,4.9v-4.508Z" transform="translate(3337.361 3386.635)" fill="#e28b6d"/>
    <path id="Path_4527" data-name="Path 4527" d="M2089.784,620.211c-1.6,3.1-4.709,5.508-8.21,4.4a5.4,5.4,0,0,1-3.484-3.9,19.047,19.047,0,0,1-.707-3.846c-.213-2.168-.247-4.646-.316-7.273l6.709-4.4,6.612,3.7s1,8.216-.6,11.321" transform="translate(3370.584 3488.256)" fill="#f9b384"/>
    <g id="Group_7969" data-name="Group 7969" transform="translate(5453.44 4158.896)" opacity="0.6">
      <g id="Group_7968" data-name="Group 7968" transform="translate(0 0)">
        <g id="Group_7967" data-name="Group 7967" clip-path="url(#clip-path-9)">
          <path id="Path_4528" data-name="Path 4528" d="M2137.107,1063.4c-3.151,4.462-12.12,6.917-19.761,7.135l.167-8.331,18.933-1.656a13.093,13.093,0,0,1,.661,2.852" transform="translate(-2117.346 -1060.548)" fill="#102048"/>
        </g>
      </g>
    </g>
    <path id="Path_4529" data-name="Path 4529" d="M2111.125,808.251c-5.525,2.944-12.741,3.392-20.5,2.967a1.579,1.579,0,0,1-1.869-1.535q-.095-4.683-.184-9.36-.112-5.476-.213-10.958-.018-1.052-.052-2.1c-.15-4.582-.466-9.216-.328-13.776.144-4.726,2.53-7.837,6.94-9.452,3.133-1.15,7.066-1.886,9.452,1.138,4.088,5.186,4.49,12.126,5.9,18.3a175.231,175.231,0,0,1,3.214,20.215c.2,1.834-.161,3.162-2.363,4.565" transform="translate(3361.265 3353.1)" fill="#708cd5"/>
    <g id="Group_7972" data-name="Group 7972" transform="translate(5449.576 4140.36)" opacity="0.3">
      <g id="Group_7971" data-name="Group 7971" transform="translate(0 0)">
        <g id="Group_7970" data-name="Group 7970" clip-path="url(#clip-path-10)">
          <path id="Path_4530" data-name="Path 4530" d="M2104.823,932.3c-.7,4.651-3.731,13.04-14.092,12.356q-.112-5.476-.213-10.958-.017-1.052-.052-2.1Z" transform="translate(-2090.467 -931.588)" fill="#1f3c88"/>
        </g>
      </g>
    </g>
    <path id="Path_4531" data-name="Path 4531" d="M2018.847,874.035a18.364,18.364,0,0,1-3.427,6.3,6.526,6.526,0,0,1-2.386,1.713,8.364,8.364,0,0,1-4.657-.172c-4.611-1.133-11.234-4.444-17.248-9.084l-1.823-8.406c5.8-.8,13.385,4.548,19.623,7.043Z" transform="translate(3445.729 3266.382)" fill="#f9b384"/>
    <path id="Path_4532" data-name="Path 4532" d="M2078.956,609.325a2.318,2.318,0,0,0-1.817-3.018,1.422,1.422,0,0,0-.782-.9,4.654,4.654,0,0,0-1.184-.333,2.17,2.17,0,0,1-.569-.172,3.423,3.423,0,0,1-.656-.5,3.776,3.776,0,0,0-3.064-.8c-.6.115-1.167.374-1.771.46a6.726,6.726,0,0,0-2.214.322c-.552.287-.891.857-1.363,1.253-.529.448-1.288.782-1.391,1.466a1.06,1.06,0,0,1-.121.506.943.943,0,0,1-.391.224,1.148,1.148,0,0,0-.6.581,2.173,2.173,0,0,0,.293,1.989,2.2,2.2,0,0,0,1.472.966,2.424,2.424,0,0,0,1.161.161,2.292,2.292,0,0,0,1.972-1.811,1.391,1.391,0,0,0,.431.96,2.054,2.054,0,0,0,1.184.523,2.125,2.125,0,0,0,2.38-1.018c-.052.127.638.742.742.839a4.815,4.815,0,0,0,.46.374c.178.132.362.253.552.368.144.081.293.161.443.23a4.462,4.462,0,0,0,2.444.46,4.3,4.3,0,0,0,2.944-1.713,2.018,2.018,0,0,0-.552-1.414" transform="translate(3382.717 3489.667)" fill="#6f3428"/>
    <path id="Path_4533" data-name="Path 4533" d="M1940.481,814.484l-4.135,5.356s-6.292-4.711-9.447-9.052c-.06-.094-.138-.18-.2-.275a12.78,12.78,0,0,1-1.031-1.762c0-.017-.009-.026-.009-.034a.894.894,0,0,1,.206-.954c.335-.318.852.226,1.565.784a13.915,13.915,0,0,1-1.927-3.071c-.249-.567-.258-1.023.077-1.332.266-.249.728-.112,1.227.2-.038-.1-.273-1.3.1-1.633.387-.352,1.092-.008,1.943.739q.168.142.335.309a2.712,2.712,0,0,1-.094-.327.85.85,0,0,1,.249-.791c.69-.637,2.007.768,2.426,1.181a54.262,54.262,0,0,1,4.763,4.983c.677.863,1.32,1.753,1.945,2.654a20.906,20.906,0,0,1,2.007,3.028" transform="translate(3500.514 3319.327)" fill="#f9b384"/>
    <path id="Path_4534" data-name="Path 4534" d="M1990.124,816.627c1.11,2.907,1.516,5.452.906,5.685s-2-1.935-3.114-4.841-1.944-5.221-.906-5.685c.835-.373,2,1.935,3.114,4.841" transform="translate(3448.101 3311.388)" fill="#f9b384"/>
    <g id="Group_7975" data-name="Group 7975" transform="translate(5464.575 4123.58)" opacity="0.3">
      <g id="Group_7974" data-name="Group 7974" transform="translate(0 0)">
        <g id="Group_7973" data-name="Group 7973" clip-path="url(#clip-path-11)">
          <path id="Path_4535" data-name="Path 4535" d="M2194.82,814.855c3.288,5.845,3.817,15.724,2.353,19.668l-1.051-.327Z" transform="translate(-2194.82 -814.854)" fill="#1f3c88"/>
        </g>
      </g>
    </g>
    <path id="Path_4536" data-name="Path 4536" d="M2125.834,819.338s.2-14.723,5.709-15.725c5.334-.97,6.911,2.6,5.509,20.833-.2,0-11.218-5.108-11.218-5.108" transform="translate(3328.825 3318.476)" fill="#708cd5"/>
    <path id="Path_4537" data-name="Path 4537" d="M2136.728,918.478c-.963-.363-1.913-.757-2.858-1.158s-1.881-.827-2.822-1.239q-1.4-.642-2.79-1.308c-.922-.453-1.844-.908-2.747-1.4l.093-.2c.967.357,1.915.752,2.862,1.151s1.883.823,2.818,1.246c.928.44,1.866.859,2.787,1.315s1.844.907,2.75,1.4Z" transform="translate(3329.103 3224.547)" fill="#1f3c88"/>
    <path id="Path_4538" data-name="Path 4538" d="M2128.844,809.364c-.26.261-.527.439-.763.669a3.549,3.549,0,0,0-.342.349,3.254,3.254,0,0,0-.308.377,7.274,7.274,0,0,0-.959,1.7,17.333,17.333,0,0,0-1.04,3.813c-.105.655-.2,1.314-.282,1.974-.057.664-.134,1.326-.176,1.993-.1,1.332-.141,2.669-.214,4.011l-.224,0c-.04-.672-.056-1.345-.083-2.019s.015-1.348.021-2.023a32.336,32.336,0,0,1,.4-4.037,16.008,16.008,0,0,1,1.159-3.914,7.451,7.451,0,0,1,1.1-1.746,7.776,7.776,0,0,1,1.555-1.307Z" transform="translate(3330.013 3313.563)" fill="#1f3c88"/>
    <g id="Group_7978" data-name="Group 7978" transform="translate(5453.354 4145.565)" opacity="0.4">
      <g id="Group_7977" data-name="Group 7977" transform="translate(0 0)">
        <g id="Group_7976" data-name="Group 7976" clip-path="url(#clip-path-12)">
          <path id="Path_4539" data-name="Path 4539" d="M2124.542,968.951a6.631,6.631,0,0,1-2.386,1.713c-1.078.428-3.222.293-5.41-.372,1.3-3.158,6.544-2.978,7.8-1.341" transform="translate(-2116.747 -967.797)" fill="#fc8879"/>
        </g>
      </g>
    </g>
    <path id="Path_4540" data-name="Path 4540" d="M1949.55,808.824c.707.593,1.351,1.249,2,1.9q.474.5.932,1.014c.3.347.6.7.873,1.066l-.126.112c-.359-.294-.693-.609-1.026-.925s-.649-.647-.967-.977c-.622-.672-1.244-1.343-1.8-2.078Z" transform="translate(3479.875 3313.89)" fill="#e28b6d"/>
    <path id="Path_4541" data-name="Path 4541" d="M1935.048,814.562c.768.7,1.469,1.456,2.172,2.213q.517.577,1.019,1.167c.329.4.657.8.96,1.219l-.126.111c-.389-.345-.753-.712-1.115-1.08s-.709-.75-1.056-1.132c-.681-.775-1.363-1.549-1.978-2.384Z" transform="translate(3492.296 3308.977)" fill="#e28b6d"/>
    <path id="Path_4542" data-name="Path 4542" d="M1937.6,841.746a10.82,10.82,0,0,1,1.257,1.136q.289.309.564.63a6.918,6.918,0,0,1,.5.682l-.126.111a7.111,7.111,0,0,1-.657-.541q-.307-.289-.6-.592a10.728,10.728,0,0,1-1.065-1.309Z" transform="translate(3490.111 3285.7)" fill="#e28b6d"/>
    <path id="Path_4543" data-name="Path 4543" d="M2124.122,672.214c.032.43.292.76.581.739s.5-.387.466-.816-.292-.76-.581-.739-.5.387-.466.816" transform="translate(3330.294 3431.564)" fill="#2d1510"/>
    <path id="Path_4544" data-name="Path 4544" d="M2120.109,663.55a1.374,1.374,0,0,1,1.348-.712,1.544,1.544,0,0,1,.75.3,1.74,1.74,0,0,1,.481.6l-.133.1a4.282,4.282,0,0,0-.556-.386,1.486,1.486,0,0,0-.584-.188,1.386,1.386,0,0,0-.606.066,1.747,1.747,0,0,0-.563.319Z" transform="translate(3333.728 3438.897)" fill="#2d1510"/>
    <path id="Path_4545" data-name="Path 4545" d="M2091.8,673.224c.032.429-.177.795-.466.816s-.549-.309-.581-.739.177-.795.466-.816.549.309.581.739" transform="translate(3358.865 3430.633)" fill="#2d1510"/>
    <path id="Path_4546" data-name="Path 4546" d="M2086.642,664.132a1.908,1.908,0,0,0-1.246-.315,1.3,1.3,0,0,0-.573.219,3.339,3.339,0,0,0-.506.456l-.147-.083a1.629,1.629,0,0,1,.417-.667,1.431,1.431,0,0,1,.753-.349,1.544,1.544,0,0,1,1.422.622Z" transform="translate(3364.501 3438.424)" fill="#2d1510"/>
    <path id="Path_4547" data-name="Path 4547" d="M2102.853,707.332l-3.3-.107c.715,1.552,1.888,2.007,3.3.107" transform="translate(3351.326 3400.885)" fill="#fff"/>
    <path id="Path_4548" data-name="Path 4548" d="M2103.538,674.728a2.666,2.666,0,0,1,.067,1.261,1.158,1.158,0,0,1-.342.584,3.917,3.917,0,0,0-.422.4.584.584,0,0,0,.107.838.955.955,0,0,0,1.014,0l.083.113a1.081,1.081,0,0,1-1.274.143.862.862,0,0,1-.4-.607.968.968,0,0,1,.179-.7,3.392,3.392,0,0,1,.469-.426,1,1,0,0,0,.292-.435,3.416,3.416,0,0,0,.085-1.156Z" transform="translate(3348.922 3428.711)" fill="#e28b6d"/>
    <g id="Group_7981" data-name="Group 7981" transform="translate(5455.127 4104.986)" opacity="0.4">
      <g id="Group_7980" data-name="Group 7980" transform="translate(0 0)">
        <g id="Group_7979" data-name="Group 7979" clip-path="url(#clip-path-13)">
          <path id="Path_4549" data-name="Path 4549" d="M2129.117,687.8a1.984,1.984,0,1,0,1.623-2.289,1.984,1.984,0,0,0-1.623,2.289" transform="translate(-2129.089 -685.487)" fill="#fc8879"/>
        </g>
      </g>
    </g>
    <g id="Group_7984" data-name="Group 7984" transform="translate(5447.966 4105.122)" opacity="0.4">
      <g id="Group_7983" data-name="Group 7983" transform="translate(0 0)">
        <g id="Group_7982" data-name="Group 7982" clip-path="url(#clip-path-14)">
          <path id="Path_4550" data-name="Path 4550" d="M2079.973,690.273a19.047,19.047,0,0,1-.707-3.846,1.984,1.984,0,0,1,.707,3.846" transform="translate(-2079.267 -686.427)" fill="#fc8879"/>
        </g>
      </g>
    </g>
    <path id="Path_4551" data-name="Path 4551" d="M2162.874,666.754a2.639,2.639,0,0,1,2.468-1c1.465.215,1.234,5.868-2.313,4.795-.694,0-.154-3.793-.154-3.793" transform="translate(3297.281 3436.423)" fill="#f9b384"/>
    <path id="Path_4552" data-name="Path 4552" d="M2171.884,671.9a1.14,1.14,0,0,1,.269-1.133.722.722,0,0,1,.651-.155.846.846,0,0,1,.476.377l-.1.1a1.126,1.126,0,0,0-.439-.167.454.454,0,0,0-.353.115,1.48,1.48,0,0,0-.363.858Z" transform="translate(3289.435 3432.256)" fill="#e28b6d"/>
    <line id="Line_201" data-name="Line 201" x2="309.575" transform="translate(5211.729 4256.284)" fill="none" stroke="#102048" stroke-width="4.8"/>
    <path id="Path_4553" data-name="Path 4553" d="M1359.785,1634.167l-1.583,5.644c1.616,3.423,5.418,4.634,8.995,1.39l1.285-6.058Z" transform="translate(3986.121 2607.179)" fill="#f9b384"/>
    <path id="Path_4554" data-name="Path 4554" d="M1339.6,1673.431l-3.049,10.87c-.546,2.344,2.076,6.24,3.267,6.135,1.9.105,5.749-1.564,6.295-3.908l2.483-11.708c-4.483,2.66-6.782,1.184-8.995-1.39" transform="translate(4004.725 2573.559)" fill="#102048"/>
    <path id="Path_4555" data-name="Path 4555" d="M1525.958,1621.809l.371,6.526.007.007c1.393,2.9,7.25,5.417,8.989,1.4l-1.222-8.348Z" transform="translate(3842.477 2618.119)" fill="#f9b384"/>
    <path id="Path_4556" data-name="Path 4556" d="M1526.007,1677.479a1.958,1.958,0,0,0,2.234,2.065c1.674,0,17.108.054,17.277,0a4.473,4.473,0,0,0-1.215-2.868c-.871-.9-8.348-5.177-8.969-5.568-1.452,1.948-5.764,1.948-8.989-1.4l-.007-.007a69.748,69.748,0,0,0-.331,7.775" transform="translate(3842.469 2576.75)" fill="#102048"/>
    <path id="Path_4557" data-name="Path 4557" d="M1304.516,967.046c2.008,1.7,8.108,5.174,10.888,4.324s1.467-7.259,1.467-7.259l-8.957-2.625Z" transform="translate(4032.09 3183.171)" fill="#f9b384"/>
    <path id="Path_4558" data-name="Path 4558" d="M1421.872,515.874a.665.665,0,0,1-.068.056c-4.015,2.984-6.9-2.625-9.013-3.138s-4.812,1.476-6.616.241c0,0-1.118,7.493-.346,9.964-11.54-4.559-5.251-16.1-2.094-14.789,2.212-7.722,9.779-4.287,13.1-3.052,7.635-3.336,8.97,7.66,5.035,10.718" transform="translate(3951.045 3575.481)" fill="#102048"/>
    <path id="Path_4559" data-name="Path 4559" d="M1810.051,504.36c-.236-.078.76-3.748.912-4.159a4.4,4.4,0,0,1,2.058-2.527c2.792-1.492,6.181-1.768,9.378-1.9,2-.081,6.586-.341,7.644,1.194.994,1.441-1.519,2.448-2.672,2.716-2.211.515-4.713.556-6.6,1.812-1.742,1.156-3.366,3.507-2.823,5.474l-7.893-2.612" transform="translate(3599.25 3582)" fill="#f9b384"/>
    <path id="Path_4560" data-name="Path 4560" d="M1392.206,948.637l-4.736,97.193-12.149.412.412-55.186-11.531,55.8-12.767-.412,10.5-100.9Z" transform="translate(3991.916 3196.818)" fill="#102048"/>
    <path id="Path_4561" data-name="Path 4561" d="M1448.542,763.738a13.486,13.486,0,0,1-1.368.793,36.367,36.367,0,0,1-10.5,3.128,43.552,43.552,0,0,1-9.308.477,25.18,25.18,0,0,1-10.016-2.466l.213-2.909,2.875-39.407,20.848-.926Z" transform="translate(3935.478 3387.868)" fill="#fff"/>
    <path id="Path_4562" data-name="Path 4562" d="M1472.161,663.028h0a4.607,4.607,0,0,1-4.607-4.642l-.438-9.386h9.215l.437,9.455a4.607,4.607,0,0,1-4.607,4.573" transform="translate(3892.862 3450.741)" fill="#f9b384"/>
    <path id="Path_4563" data-name="Path 4563" d="M1468.052,671.326c1.937,3.025,6.3,5.218,9.2-.29Z" transform="translate(3892.06 3431.873)" fill="#e28b6d"/>
    <path id="Path_4564" data-name="Path 4564" d="M1448.285,556.208c-.218,2.208-.885,4.053-2.271,5.106a8.069,8.069,0,0,1-11.51-2.467c-2.932-4.715-2.7-12.977-2.7-12.977l7.026-3.162,7.262.385,1.311,3.243a49.573,49.573,0,0,1,.891,6.025,23.174,23.174,0,0,1-.006,3.846" transform="translate(3923.104 3541.755)" fill="#f9b384"/>
    <rect id="Rectangle_3110" data-name="Rectangle 3110" width="3.611" height="26.739" transform="translate(5417.696 4046.483)" fill="#bb9132"/>
    <path id="Path_4565" data-name="Path 4565" d="M1799.809,207.5l1.759,10.269-9.222-4.853-9.222,4.853,1.19-6.917.575-3.352-7.463-7.273,10.309-1.5,4.611-9.343,4.611,9.343,2.329.339,7.986,1.161Z" transform="translate(3627.154 3844.29)" fill="#fbc343"/>
    <path id="Path_4566" data-name="Path 4566" d="M1836.827,432.611h-17.921l.23-1.041,1.34-6a1.714,1.714,0,0,1,1.667-1.34h11.441a1.71,1.71,0,0,1,1.667,1.34Z" transform="translate(3591.637 3643.206)" fill="#fbc343"/>
    <g id="Group_7987" data-name="Group 7987" transform="translate(5410.279 4043.361)" opacity="0.3">
      <g id="Group_7986" data-name="Group 7986" transform="translate(0 0)">
        <g id="Group_7985" data-name="Group 7985" clip-path="url(#clip-path-15)">
          <path id="Path_4567" data-name="Path 4567" d="M1833.751,265.182l1.759,10.269-9.222-4.853-9.222,4.853,1.19-6.917c8.2-1.552,12.672-7.216,14.972-11.786l7.986,1.161Z" transform="translate(-1817.067 -256.748)" fill="#bb9132"/>
        </g>
      </g>
    </g>
    <g id="Group_7990" data-name="Group 7990" transform="translate(5410.612 4044.78)" opacity="0.9">
      <g id="Group_7989" data-name="Group 7989" transform="translate(0 0)">
        <g id="Group_7988" data-name="Group 7988" clip-path="url(#clip-path-16)">
          <path id="Path_4568" data-name="Path 4568" d="M1824.1,267.38c.138.64-.8,1.385-2.1,1.664s-2.457-.015-2.594-.655.8-1.385,2.1-1.663,2.457.015,2.594.655" transform="translate(-1819.393 -266.62)" fill="#fff"/>
        </g>
      </g>
    </g>
    <g id="Group_7993" data-name="Group 7993" transform="translate(5410.543 4067.434)" opacity="0.3">
      <g id="Group_7992" data-name="Group 7992" transform="translate(0 0)">
        <g id="Group_7991" data-name="Group 7991" clip-path="url(#clip-path-17)">
          <path id="Path_4569" data-name="Path 4569" d="M1836.827,432.611h-17.921l.23-1.041c4.72-.322,9.188-3.973,11.309-7.342h3.139a1.71,1.71,0,0,1,1.667,1.34Z" transform="translate(-1818.907 -424.228)" fill="#bb9132"/>
        </g>
      </g>
    </g>
    <path id="Path_4570" data-name="Path 4570" d="M1819.5,478.281H1798.44a1.6,1.6,0,1,1,0-3.2H1819.5a1.6,1.6,0,1,1,0,3.2" transform="translate(3610.53 3599.66)" fill="#bb9132"/>
    <path id="Path_4571" data-name="Path 4571" d="M1773.975,174.545a20.539,20.539,0,0,1,3.086,2.405c.477.441.939.9,1.379,1.379a12.979,12.979,0,0,1,1.233,1.534l-.307.329a12.974,12.974,0,0,1-1.616-1.125c-.51-.405-1-.835-1.47-1.28a20.56,20.56,0,0,1-2.612-2.913Z" transform="translate(3630.372 3857)" fill="#fbc343"/>
    <path id="Path_4572" data-name="Path 4572" d="M1953.054,174.874a20.538,20.538,0,0,1-2.612,2.913c-.472.446-.96.875-1.47,1.28a12.979,12.979,0,0,1-1.616,1.125l-.307-.329a12.979,12.979,0,0,1,1.233-1.534c.439-.481.9-.938,1.379-1.379a20.545,20.545,0,0,1,3.086-2.405Z" transform="translate(3481.912 3857)" fill="#fbc343"/>
    <path id="Path_4573" data-name="Path 4573" d="M1960.114,213.313a6.635,6.635,0,0,1,1.775-1.314,7.2,7.2,0,0,1,1-.443,4.348,4.348,0,0,1,1.1-.255l.207.4a4.346,4.346,0,0,1-.838.752,7.182,7.182,0,0,1-.936.563,6.629,6.629,0,0,1-2.1.7Z" transform="translate(3470.725 3825.527)" fill="#fbc343"/>
    <path id="Path_4574" data-name="Path 4574" d="M1777.884,213.712a6.634,6.634,0,0,1-2.1-.7,7.175,7.175,0,0,1-.936-.563,4.341,4.341,0,0,1-.838-.752l.207-.4a4.354,4.354,0,0,1,1.1.255,7.19,7.19,0,0,1,1,.443,6.634,6.634,0,0,1,1.775,1.314Z" transform="translate(3630.076 3825.527)" fill="#fbc343"/>
    <g id="Group_7996" data-name="Group 7996" transform="translate(5362.48 4114.67)" opacity="0.3">
      <g id="Group_7995" data-name="Group 7995" transform="translate(0 0)">
        <g id="Group_7994" data-name="Group 7994" clip-path="url(#clip-path-18)">
          <path id="Path_4575" data-name="Path 4575" d="M1484.526,753.543a8.553,8.553,0,0,0,1.709.836,3.653,3.653,0,0,0,1.638.17,4.148,4.148,0,0,0,1.568-.561,13.44,13.44,0,0,0,1.555-1.13A3.691,3.691,0,0,1,1490,754.7a3.411,3.411,0,0,1-1.988.992,3.239,3.239,0,0,1-2.179-.5,3.3,3.3,0,0,1-1.309-1.643" transform="translate(-1484.527 -752.858)" fill="#1f3c88"/>
        </g>
      </g>
    </g>
    <g id="Group_7999" data-name="Group 7999" transform="translate(5369.512 4118.397)" opacity="0.3">
      <g id="Group_7998" data-name="Group 7998" transform="translate(0 0)">
        <g id="Group_7997" data-name="Group 7997" clip-path="url(#clip-path-19)">
          <path id="Path_4576" data-name="Path 4576" d="M1546.592,812.79a36.367,36.367,0,0,1-10.5,3.128c-2.375-7.267-3.467-21.992-1.909-37.13Z" transform="translate(-1533.452 -778.788)" fill="#1f3c88"/>
        </g>
      </g>
    </g>
    <g id="Group_8002" data-name="Group 8002" transform="translate(5352.824 4117.368)" opacity="0.3">
      <g id="Group_8001" data-name="Group 8001" transform="translate(0 0)">
        <g id="Group_8000" data-name="Group 8000" clip-path="url(#clip-path-20)">
          <path id="Path_4577" data-name="Path 4577" d="M1427.361,810.264a25.18,25.18,0,0,1-10.016-2.466l.213-2.909,8.7-33.261c2.587,13.879,2.536,30.386,1.1,38.636" transform="translate(-1417.347 -771.628)" fill="#1f3c88"/>
        </g>
      </g>
    </g>
    <path id="Path_4578" data-name="Path 4578" d="M1534.09,564.979c8.855-1.146,17.574-2.128,26.1-3.161a4.441,4.441,0,0,0,3.436-2.422l9.123-18.2,10.553,2.523-7.771,20.27a17.834,17.834,0,0,1-11.556,10.706l-14.894,4.441s-1.139,11.812,7.51,35.595c-.309,1.853-7.722,4.221-15.135,3.913-3.5-3.192-4.794-10.061-7.368-53.664" transform="translate(3835.514 3543.05)" fill="#1f3c88"/>
    <path id="Path_4579" data-name="Path 4579" d="M1230.12,714.275a110.632,110.632,0,0,0-18.314,1.538,14.967,14.967,0,0,0-8.773,4.8,160.547,160.547,0,0,0-12.262,16.763,5.8,5.8,0,0,0,.73,7.253l12.956,14.051,8.031-8.494-9.421-10.3,10.6-12.664a3.448,3.448,0,0,1,3.192.206c.412,1.338.592,17.189-5.277,40.149,2.368,1.853,14.414,2.986,17.091.515.618-.927,6.564-29.613,1.442-53.826" transform="translate(4130.296 3394.853)" fill="#1f3c88"/>
    <path id="Path_4580" data-name="Path 4580" d="M1474.816,604.741c.049.514-.192.957-.537.99s-.666-.357-.715-.87.191-.957.537-.99.666.357.715.87" transform="translate(3887.346 3489.386)" fill="#0c1836"/>
    <path id="Path_4581" data-name="Path 4581" d="M1464.4,594.705a2.472,2.472,0,0,0-1.682-.142,2.814,2.814,0,0,0-1.437.936l-.2-.106a2.023,2.023,0,0,1,.55-.884,2.079,2.079,0,0,1,.949-.5,2.275,2.275,0,0,1,1.063,0,1.563,1.563,0,0,1,.913.539Z" transform="translate(3898.025 3497.884)" fill="#0c1836"/>
    <path id="Path_4582" data-name="Path 4582" d="M1513.2,599.426c.049.514.369.9.715.87s.586-.476.537-.99-.369-.9-.715-.87-.586.476-.537.99" transform="translate(3853.408 3494.039)" fill="#0c1836"/>
    <path id="Path_4583" data-name="Path 4583" d="M1506.277,587.926a1.853,1.853,0,0,1,.729-.752,2.338,2.338,0,0,1,1.006-.338,1.886,1.886,0,0,1,1.069.206,1.806,1.806,0,0,1,.739.748l-.174.142a2.23,2.23,0,0,0-1.585-.526,3,3,0,0,0-1.6.647Z" transform="translate(3859.329 3503.979)" fill="#0c1836"/>
    <path id="Path_4584" data-name="Path 4584" d="M1486.764,640.362l4.845-.825C1491.525,641.878,1488.324,643.268,1486.764,640.362Z" transform="translate(3876.038 3458.844)" fill="#fff"/>
    <path id="Path_4585" data-name="Path 4585" d="M1437.429,535.3a.665.665,0,0,1-.068.056c-4.015,2.984-6.9-2.625-9.013-3.138s-4.812,1.477-6.616.241c0,0-2.318,5.111-.346,9.964l-3.509-5.134s-.426-5.72-.544-5.72c0-.087,3.632-2.891,3.632-2.891l7.141-2.669,7.3,1.236,1.155,4.176Z" transform="translate(3935.489 3556.051)" fill="#102048"/>
    <path id="Path_4586" data-name="Path 4586" d="M1424.5,611.812c-1.956,0-3.174.34-2.986,2.409.155,1.7,2.008,4.728,4.582,2.5Z" transform="translate(3931.923 3482.584)" fill="#f9b384"/>
    <g id="Group_8005" data-name="Group 8005" transform="translate(5366.256 4173.167)" opacity="0.6">
      <g id="Group_8004" data-name="Group 8004" transform="translate(0 0)">
        <g id="Group_8003" data-name="Group 8003" clip-path="url(#clip-path-21)">
          <path id="Path_4587" data-name="Path 4587" d="M1510.8,1180.72c.29-1.752.592-3.5.919-5.247s.672-3.486,1.005-5.23l1.079-5.215c.378-1.735.759-3.469,1.182-5.194l.22.044c-.274,1.755-.591,3.5-.91,5.249l-1.013,5.228c-.364,1.738-.706,3.479-1.088,5.213s-.766,3.467-1.174,5.2Z" transform="translate(-1510.798 -1159.833)" fill="#708cd5"/>
        </g>
      </g>
    </g>
    <path id="Path_4588" data-name="Path 4588" d="M1428.818,620.672a2.6,2.6,0,0,0-.257-.776.793.793,0,0,0-.538-.409.725.725,0,0,0-.635.185,1.628,1.628,0,0,0-.439.656l-.166-.03a1.358,1.358,0,0,1,.343-.9,1.056,1.056,0,0,1,.978-.333,1.107,1.107,0,0,1,.782.665,1.787,1.787,0,0,1,.1.94Z" transform="translate(3927.397 3476.389)" fill="#e28b6d"/>
    <path id="Path_4589" data-name="Path 4589" d="M1497.99,604.368a4.093,4.093,0,0,0,.333,1.349,1.2,1.2,0,0,0,.433.455,4.074,4.074,0,0,1,.639.409,1.159,1.159,0,0,1,.353.793,1.033,1.033,0,0,1-.348.8,1.3,1.3,0,0,1-1.533.088l.076-.151a1.145,1.145,0,0,0,1.2-.209.7.7,0,0,0-.043-1.012,4.694,4.694,0,0,0-.579-.388,1.386,1.386,0,0,1-.522-.621,3.2,3.2,0,0,1-.175-1.5Z" transform="translate(3866.583 3488.958)" fill="#e28b6d"/>
    <g id="Group_8008" data-name="Group 8008" transform="translate(5368.716 4094.008)" opacity="0.4">
      <g id="Group_8007" data-name="Group 8007" transform="translate(0 0)">
        <g id="Group_8006" data-name="Group 8006" clip-path="url(#clip-path-22)">
          <path id="Path_4590" data-name="Path 4590" d="M1530.579,613.064a1.989,1.989,0,0,1-.644.1,2.03,2.03,0,0,1,0-4.059,1.9,1.9,0,0,1,.65.109,23.174,23.174,0,0,1-.006,3.846" transform="translate(-1527.907 -609.108)" fill="#fc8879"/>
        </g>
      </g>
    </g>
    <g id="Group_8011" data-name="Group 8011" transform="translate(5357.722 4096.036)" opacity="0.4">
      <g id="Group_8010" data-name="Group 8010" transform="translate(0 0)">
        <g id="Group_8009" data-name="Group 8009" clip-path="url(#clip-path-23)">
          <path id="Path_4591" data-name="Path 4591" d="M1455.478,625.248a2.028,2.028,0,1,1-2.028-2.028,2.028,2.028,0,0,1,2.028,2.028" transform="translate(-1451.422 -623.22)" fill="#fc8879"/>
        </g>
      </g>
    </g>
  </g>
</svg>
