<svg xmlns="http://www.w3.org/2000/svg" width="64" height="64" viewBox="0 0 64 64">
  <g id="Group_9492" data-name="Group 9492" transform="translate(-90 -1603)">
    <circle id="Ellipse_1331" data-name="Ellipse 1331" cx="32" cy="32" r="32" transform="translate(90 1603)" fill="#064c87" opacity="0.1"/>
    <g id="search" transform="translate(-728 550.64)">
      <path id="Path_9937" data-name="Path 9937" d="M832,1072.36h36a2,2,0,0,1,2,2v23a2,2,0,0,1-2,2H832a2,2,0,0,1-2-2v-23A2,2,0,0,1,832,1072.36Z" fill="#474545"/>
      <path id="Path_9938" data-name="Path 9938" d="M832,1074.36h36v21H832Z" fill="#49b2d6"/>
      <path id="Path_9939" data-name="Path 9939" d="M826,1097.36v1.5a3.492,3.492,0,0,0,3.5,3.5h41a3.492,3.492,0,0,0,3.5-3.5v-1.5Z" fill="#cfd3d6"/>
      <path id="Path_9940" data-name="Path 9940" d="M826,1097.36v2h48v-2Z" fill="#eff4f7"/>
      <path id="Path_9941" data-name="Path 9941" d="M856,1097.36h0a2,2,0,0,1-2,2h-8a2,2,0,0,1-2-2h12Z" fill="#726f6f"/>
      <path id="Path_9942" data-name="Path 9942" d="M850.566,1087.95l.866-.5,1.5,2.6-.866.5Z" fill="#5e5c5c"/>
      <path id="Path_9943" data-name="Path 9943" d="M852,1089.43a1,1,0,0,1,1.366.366l3.5,6.062a1,1,0,0,1-1.732,1l-3.5-6.062A1,1,0,0,1,852,1089.43Z" fill="#ffcb59"/>
      <path id="Path_9944" data-name="Path 9944" d="M853.3,1088.68l.5.866-2.6,1.5-.5-.866Z" fill="#474545"/>
      <path id="Path_9945" data-name="Path 9945" d="M847.232,1085.42l.707.707,1.414-1.416-.707-.707Zm-2.121,2.121.707.707,1.414-1.414-.707-.707Zm-2.121,2.121.707.707,1.414-1.414-.707-.707Zm-2.121,2.121.707.707,1.414-1.414-.707-.707Z" fill="#726f6f" fill-rule="evenodd"/>
      <path id="Path_9946" data-name="Path 9946" d="M848.939,1083.87l-25,3,.121.994,25-3Z" fill="#726f6f" fill-rule="evenodd"/>
      <path id="Path_9947" data-name="Path 9947" d="M835.012,1067.98l.633.775.775-.633-.633-.775Zm1.264,1.551.631.775.775-.633-.631-.775Zm1.264,1.551.631.775.775-.633-.631-.775Zm1.262,1.551.631.775.775-.633-.631-.775Zm1.264,1.551.631.775.775-.633-.631-.775Zm1.262,1.551.633.775.775-.633-.633-.775Zm1.264,1.551.631.775.775-.633-.631-.775Zm1.264,1.551.631.775.775-.633-.631-.775Zm1.262,1.551.633.775.775-.631-.633-.777Zm1.264,1.551.631.775.775-.631-.631-.775Zm1.264,1.551.631.775.775-.631-.631-.775Zm1.214,1.352.959.283.285-.959-.959-.283Zm1.918.568.959.283.283-.959-.957-.283Zm1.918.568.959.283.283-.959-.959-.283Zm1.918.568.959.283.283-.959-.959-.283Zm1.918.568.957.283.285-.959-.959-.283Zm1.916.566.959.285.285-.959-.959-.283Zm1.918.568.959.285.283-.959-.957-.285Zm1.918.568.959.285.283-.959-.959-.285Zm1.918.568.959.285.283-.959-.959-.285Zm1.918.568.957.285.285-.959-.959-.285Zm1.916.568.959.283.285-.957-.959-.285Zm1.918.568.959.283.285-.959-.959-.283Zm1.918.568.959.283.283-.959-.959-.283Zm1.918.568.959.283.283-.959-.959-.283Zm1.918.568.152.045.285-.959-.154-.045Z" fill="#726f6f" fill-rule="evenodd"/>
      <path id="Path_9948" data-name="Path 9948" d="M863.322,1078.39l-14.5,5.5.355.936,14.5-5.5Z" fill="#726f6f" fill-rule="evenodd"/>
      <path id="Path_9949" data-name="Path 9949" d="M878,1092.36a2,2,0,1,1-2-2,2,2,0,0,1,2,2Z" fill="#dfe3e6"/>
      <path id="Path_9950" data-name="Path 9950" d="M826,1087.36a2,2,0,1,1-2-2,2,2,0,0,1,2,2Z" fill="#f4608a"/>
      <path id="Path_9951" data-name="Path 9951" d="M842,1092.36a1,1,0,1,1-1-1A1,1,0,0,1,842,1092.36Z" fill="#ffcb59"/>
      <path id="Path_9952" data-name="Path 9952" d="M837,1067.86a1.5,1.5,0,1,1-1.5-1.5A1.5,1.5,0,0,1,837,1067.86Z" fill="#49b2d6"/>
      <path id="Path_9953" data-name="Path 9953" d="M865,1078.86a1.5,1.5,0,1,1-1.5-1.5A1.5,1.5,0,0,1,865,1078.86Z" fill="#5e5c5c"/>
      <path id="Path_9954" data-name="Path 9954" d="M852.713,1082.67a4,4,0,1,1-5.464-1.464,4,4,0,0,1,5.464,1.464Z" fill="#eff4f7"/>
      <path id="Path_9955" data-name="Path 9955" d="M851.5,1084.61a2.25,2.25,0,1,1-2.25-2.25A2.25,2.25,0,0,1,851.5,1084.61Z" fill="#d9416b"/>
      <path id="Path_9956" data-name="Path 9956" d="M852.713,1082.67a4,4,0,1,1-5.464-1.464,4,4,0,0,1,5.464,1.464Z" fill="none" stroke="#474545" stroke-width="1"/>
    </g>
  </g>
</svg>
