<svg xmlns="http://www.w3.org/2000/svg" width="80.034" height="68" viewBox="0 0 80.034 68">
  <g id="business_1_" data-name="business (1)" transform="translate(0 -15.035)">
    <path id="Path_11232" data-name="Path 11232" d="M49.97,77.608v-5.83A1.272,1.272,0,0,0,48.7,70.506H31.334a1.271,1.271,0,0,0-1.271,1.271v5.83L23.25,81.372a.454.454,0,0,0-.229.391v.826a.447.447,0,0,0,.446.446h33.1a.447.447,0,0,0,.445-.446v-.826a.435.435,0,0,0-.062-.226.443.443,0,0,0-.168-.165ZM79.149,15.919a3,3,0,0,0-2.132-.884h-74A3.019,3.019,0,0,0,0,18.051v47.9a3.019,3.019,0,0,0,3.018,3.018h74a3.019,3.019,0,0,0,3.017-3.018v-47.9A3,3,0,0,0,79.149,15.919ZM40.017,67.692a1.334,1.334,0,1,1,1.334-1.333A1.334,1.334,0,0,1,40.017,67.692Zm34.8-3.941H5.219v-43.5h69.6Z" fill="#222"/>
    <path id="Path_11233" data-name="Path 11233" d="M40.067,94.822a.626.626,0,0,0-.628.628v.476h6.722v-.476A.629.629,0,0,0,45.975,95a.623.623,0,0,0-.442-.183Zm8.205-7.761a.625.625,0,0,0-.626.628v8.237h6.72V87.688a.625.625,0,0,0-.627-.628Zm8.207-3.191a.624.624,0,0,0-.627.627v11.43h6.721V84.5a.63.63,0,0,0-.184-.445.622.622,0,0,0-.443-.182Zm8.207,1.321a.617.617,0,0,0-.443.183.624.624,0,0,0-.184.445V95.926h6.722V85.818a.628.628,0,0,0-.627-.628Zm8.206-5.129a.628.628,0,0,0-.629.627V95.926h6.724V80.688a.631.631,0,0,0-.629-.627H72.893Zm8.206-6.4a.626.626,0,0,0-.627.627v21.64h6.721V74.286a.628.628,0,0,0-.627-.627H81.1Z" transform="translate(-23.657 -35.164)" fill="#5e889e"/>
    <path id="Path_11234" data-name="Path 11234" d="M85.659,42.779a.418.418,0,0,0-.478-.613l-6.715,1.968a.418.418,0,0,0-.213.658l.815,1.045L58.729,61.7,47.458,56.925l-18.8,17.847a.627.627,0,0,0-.022.889l.865.909a.623.623,0,0,0,.887.022l17.6-16.713,11.117,4.709,21.5-16.773.815,1.043a.417.417,0,0,0,.689-.046Z" transform="translate(-17.075 -16.264)" fill="#5e889e"/>
  </g>
</svg>
