<svg xmlns="http://www.w3.org/2000/svg" width="66" height="68" viewBox="0 0 66 68">
  <path id="idea_3_" data-name="idea (3)" d="M35.99,2h0a1.136,1.136,0,0,1,1.138,1.133V8.8A1.136,1.136,0,0,1,35.99,9.933h0A1.136,1.136,0,0,1,34.852,8.8V3.133A1.136,1.136,0,0,1,35.99,2ZM16.683,17.241a1.136,1.136,0,1,0,1.609-1.6l-4.024-4.005a1.136,1.136,0,1,0-1.609,1.6Zm-6.855,16.5h0l-5.69,0a1.133,1.133,0,1,0,0,2.267h0l5.69,0a1.133,1.133,0,1,0,0-2.267ZM55.316,52.492a1.136,1.136,0,1,0-1.609,1.6L57.732,58.1a1.136,1.136,0,1,0,1.609-1.6Zm-38.634,0L12.658,56.5a1.136,1.136,0,1,0,1.609,1.6l4.024-4.005a1.136,1.136,0,1,0-1.609-1.6ZM67.861,33.723h0l-5.69,0a1.133,1.133,0,1,0,0,2.267h0l5.69,0a1.133,1.133,0,1,0,0-2.267ZM54.5,17.562a1.138,1.138,0,0,0,.805-.332l4.022-4.009a1.136,1.136,0,0,0-1.61-1.6L53.7,15.628a1.133,1.133,0,0,0,.805,1.935Zm-.993,25.368a20.3,20.3,0,0,0-.322-19.588A19.565,19.565,0,0,0,37.269,13.37h0a23.083,23.083,0,0,0-2.536,0,19.565,19.565,0,0,0-15.916,9.973,20.3,20.3,0,0,0-.322,19.588L25.758,56.68v5.387A7.959,7.959,0,0,0,33.724,70h4.552a7.959,7.959,0,0,0,7.965-7.933V56.68Zm-25.473,18v-3.4H43.965v3.4ZM20.8,24.457a17.076,17.076,0,0,1,14.064-8.825,20.587,20.587,0,0,1,2.278,0A17.077,17.077,0,0,1,51.2,24.457a18.054,18.054,0,0,1,.289,17.417L44.416,55.267H37.137V45.8a13.572,13.572,0,0,0,1.819.143,7.388,7.388,0,0,0,5.376-1.961c3.562-3.473,2.262-10.189,2.2-10.473a1.133,1.133,0,0,0-1.339-.889c-4.892.975-7.779,5.6-9.2,8.686-1.419-3.091-4.306-7.712-9.2-8.686a1.134,1.134,0,0,0-1.339.889c-.057.284-1.357,7,2.2,10.473a7.387,7.387,0,0,0,5.376,1.961,13.578,13.578,0,0,0,1.819-.143v9.464H27.583L20.506,41.875A18.054,18.054,0,0,1,20.8,24.457ZM37.512,43.578c.861-2.219,3.081-6.892,6.964-8.393.188,2.071.065,5.423-1.735,7.18-1.146,1.115-2.9,1.524-5.228,1.213Zm-3.025,0c-2.32.312-4.079-.1-5.225-1.21-1.917-1.865-1.9-5.332-1.732-7.181,3.878,1.5,6.1,6.173,6.957,8.39Zm3.789,24.155H33.724A5.693,5.693,0,0,1,28.149,63.2h15.7A5.693,5.693,0,0,1,38.275,67.733Z" transform="translate(-3 -2)"/>
</svg>
