<svg xmlns="http://www.w3.org/2000/svg" width="68.033" height="68" viewBox="0 0 68.033 68">
  <g id="research" transform="translate(-0.018 -0.038)">
    <path id="Path_11230" data-name="Path 11230" d="M21.013,4A17.013,17.013,0,1,0,38.027,21.013,17.013,17.013,0,0,0,21.013,4Zm0,31.191A14.178,14.178,0,1,1,35.191,21.013,14.178,14.178,0,0,1,21.013,35.191Z" transform="translate(1.664 1.655)"/>
    <path id="Path_11231" data-name="Path 11231" d="M66.387,58.354,53.769,45.736a2.836,2.836,0,0,0-2.736-.723l-4.608-4.594a4.253,4.253,0,0,0,0-6.011l-2.836-2.836A22.684,22.684,0,1,0,31.552,43.609l2.836,2.836a4.253,4.253,0,0,0,6.011,0l4.622,4.579a2.836,2.836,0,0,0,.723,2.736C58.83,66.847,59.213,68.038,62.375,68.038a5.671,5.671,0,0,0,4.012-9.683ZM2.828,22.669A19.849,19.849,0,1,1,22.677,42.518,19.849,19.849,0,0,1,2.828,22.669ZM36.415,44.432l-2.24-2.24A22.9,22.9,0,0,0,42.2,34.167l2.24,2.24a1.418,1.418,0,0,1,0,2.013l-6.011,6.011a1.418,1.418,0,0,1-2.013,0Zm8.025-2.013,4.253,4.253-1.914,2.07-4.253-4.253ZM64.374,64.366a2.836,2.836,0,0,1-4,0l-12.618-12.6,4.012-4.012,12.6,12.618A2.836,2.836,0,0,1,64.374,64.366Z" transform="translate(0 0)"/>
  </g>
</svg>
