<svg xmlns="http://www.w3.org/2000/svg" width="62.333" height="68" viewBox="0 0 62.333 68">
  <g id="workflow" transform="translate(-2)">
    <rect id="Rectangle_4192" data-name="Rectangle 4192" width="22" height="18" rx="2" transform="translate(22 1)" fill="#dad7e5"/>
    <path id="Path_11225" data-name="Path 11225" d="M37.833,3.833V15.167H32.167A14.167,14.167,0,0,1,18,1H35A2.833,2.833,0,0,1,37.833,3.833Z" transform="translate(6.667 0.417)" fill="#edebf2"/>
    <rect id="Rectangle_4193" data-name="Rectangle 4193" width="22" height="16" rx="2" transform="translate(22 26)" fill="#dad7e5"/>
    <path id="Path_11226" data-name="Path 11226" d="M37.833,20.833V32.167H32.167A14.167,14.167,0,0,1,18,18H35A2.833,2.833,0,0,1,37.833,20.833Z" transform="translate(6.667 7.5)" fill="#edebf2"/>
    <rect id="Rectangle_4194" data-name="Rectangle 4194" width="22" height="18" rx="2" transform="translate(22 49)" fill="#dad7e5"/>
    <path id="Path_11227" data-name="Path 11227" d="M37.833,37.833V49.167H32.167A14.167,14.167,0,0,1,18,35H35A2.833,2.833,0,0,1,37.833,37.833Z" transform="translate(6.667 14.583)" fill="#edebf2"/>
    <path id="Path_11228" data-name="Path 11228" d="M41.667,0h-17a4.25,4.25,0,0,0-4.25,4.25V15.583a4.25,4.25,0,0,0,4.25,4.25h17a4.25,4.25,0,0,0,4.25-4.25V4.25A4.25,4.25,0,0,0,41.667,0Zm1.417,15.583A1.417,1.417,0,0,1,41.667,17h-17a1.417,1.417,0,0,1-1.417-1.417V4.25a1.417,1.417,0,0,1,1.417-1.417h17A1.417,1.417,0,0,1,43.083,4.25Zm-1.417,8.5h-17a4.25,4.25,0,0,0-4.25,4.25V39.667a4.25,4.25,0,0,0,4.25,4.25h17a4.25,4.25,0,0,0,4.25-4.25V28.333A4.25,4.25,0,0,0,41.667,24.083Zm1.417,15.583a1.417,1.417,0,0,1-1.417,1.417h-17a1.417,1.417,0,0,1-1.417-1.417V28.333a1.417,1.417,0,0,1,1.417-1.417h17a1.417,1.417,0,0,1,1.417,1.417Zm-1.417,8.5h-17a4.25,4.25,0,0,0-4.25,4.25V63.75A4.25,4.25,0,0,0,24.667,68h17a4.25,4.25,0,0,0,4.25-4.25V52.417A4.25,4.25,0,0,0,41.667,48.167ZM43.083,63.75a1.417,1.417,0,0,1-1.417,1.417h-17A1.417,1.417,0,0,1,23.25,63.75V52.417A1.417,1.417,0,0,1,24.667,51h17a1.417,1.417,0,0,1,1.417,1.417ZM50.167,8.5a1.417,1.417,0,0,0,0,2.833c13.43,0,15.13,17.241,3.882,20.768a1.417,1.417,0,0,0-2.054-1.941c-2.72,2.734-2.975,2.918-3.131,3.3a1.417,1.417,0,0,0,.3,1.544C52.249,38.094,52.235,38.25,53,38.25a1.417,1.417,0,0,0,1.006-2.422l-.652-.638A13.487,13.487,0,0,0,64.333,21.958C64.333,15.073,59.063,8.5,50.167,8.5Zm-34,26.917a1.417,1.417,0,1,0,0-2.833C7.185,32.583,2,39.242,2,46.042A13.487,13.487,0,0,0,12.979,59.273l-.652.638a1.422,1.422,0,0,0,2.012,2.012c4.363-4.378,4.363-3.315,0-7.678a1.417,1.417,0,0,0-2.054,1.941,10.639,10.639,0,0,1,3.882-20.768ZM57.661,54.244,53,58.919l-1.828-1.842a1.422,1.422,0,0,0-2.012,2.012c4.661,4.647,2.833,4.817,10.512-2.833a1.422,1.422,0,0,0-2.012-2.012ZM14.339,4.661a1.422,1.422,0,0,0-2.012,2.012c.567.553,1.728.411-6.078.411a1.417,1.417,0,0,0,0,2.833c7.494,0,6.672-.184,6.077.411a1.422,1.422,0,0,0,2.012,2.012C18.688,7.976,18.674,9.01,14.339,4.661Z" transform="translate(0)"/>
    <path id="Path_11229" data-name="Path 11229" d="M31.75,4H20.417a1.417,1.417,0,0,0,0,2.833H31.75A1.417,1.417,0,1,0,31.75,4ZM28.917,9.667h-8.5a1.417,1.417,0,0,0,0,2.833h8.5a1.417,1.417,0,0,0,0-2.833ZM31.75,28.083H20.417a1.417,1.417,0,0,0,0,2.833H31.75a1.417,1.417,0,1,0,0-2.833ZM28.917,33.75h-8.5a1.417,1.417,0,0,0,0,2.833h8.5a1.417,1.417,0,0,0,0-2.833ZM31.75,52.167H20.417a1.417,1.417,0,1,0,0,2.833H31.75a1.417,1.417,0,1,0,0-2.833Zm-2.833,5.667h-8.5a1.417,1.417,0,0,0,0,2.833h8.5a1.417,1.417,0,0,0,0-2.833Z" transform="translate(7.083 1.667)"/>
  </g>
</svg>
