<svg id="Iconly_Light_3_User" data-name="Iconly/Light/3 User" xmlns="http://www.w3.org/2000/svg" width="24" height="24" viewBox="0 0 24 24">
  <rect id="Iconly_Light_3_User_Background_" data-name="Iconly/Light/3 User (Background)" width="24" height="24" fill="none"/>
  <g id="_3_User" data-name="3 User" transform="translate(1.688 4.188)">
    <path id="Stroke_1" data-name="Stroke 1" d="M0,5.8A2.9,2.9,0,1,0,0,0" transform="translate(15.907 0.942)" fill="none" stroke="#064c87" stroke-linecap="round" stroke-linejoin="round" stroke-width="1.5" stroke-dasharray="0 0"/>
    <path id="Stroke_3" data-name="Stroke 3" d="M0,0A9.435,9.435,0,0,1,1.423.206a2.337,2.337,0,0,1,1.712.978,1.381,1.381,0,0,1,0,1.184,2.361,2.361,0,0,1-1.712.984" transform="translate(17.241 9.897)" fill="none" stroke="#064c87" stroke-linecap="round" stroke-linejoin="round" stroke-width="1.5" stroke-dasharray="0 0"/>
    <path id="Stroke_5" data-name="Stroke 5" d="M2.9,5.8A2.9,2.9,0,1,1,2.9,0" transform="translate(1.7 0.942)" fill="none" stroke="#064c87" stroke-linecap="round" stroke-linejoin="round" stroke-width="1.5" stroke-dasharray="0 0"/>
    <path id="Stroke_7" data-name="Stroke 7" d="M3.268,0A9.435,9.435,0,0,0,1.845.206a2.334,2.334,0,0,0-1.711.978,1.375,1.375,0,0,0,0,1.184,2.358,2.358,0,0,0,1.711.984" transform="translate(0 9.897)" fill="none" stroke="#064c87" stroke-linecap="round" stroke-linejoin="round" stroke-width="1.5" stroke-dasharray="0 0"/>
    <path id="Stroke_9" data-name="Stroke 9" d="M12.041,2.458c0,1.965-2.755,2.475-6.021,2.475C2.773,4.933,0,4.441,0,2.475S2.755,0,6.021,0C9.267,0,12.041.491,12.041,2.458Z" transform="translate(4.229 10.522)" fill="none" stroke="#064c87" stroke-linecap="round" stroke-linejoin="round" stroke-width="1.5" stroke-dasharray="0 0"/>
    <path id="Stroke_11" data-name="Stroke 11" d="M0,3.858A3.858,3.858,0,1,1,3.858,7.717,3.845,3.845,0,0,1,0,3.858Z" transform="translate(6.392)" fill="none" stroke="#064c87" stroke-linecap="round" stroke-linejoin="round" stroke-width="1.5" stroke-dasharray="0 0"/>
  </g>
</svg>
